<?xml version="1.0" standalone="no"?>
<!DOCTYPE svg PUBLIC "-//W3C//DTD SVG 20010904//EN"
 "http://www.w3.org/TR/2001/REC-SVG-20010904/DTD/svg10.dtd">
<svg version="1.0" xmlns="http://www.w3.org/2000/svg"
 width="260.000000pt" height="260.000000pt" viewBox="0 0 260.000000 260.000000"
 preserveAspectRatio="xMidYMid meet">
<metadata>
Created by potrace 1.11, written by Peter Selinger 2001-2013
</metadata>
<g transform="translate(0.000000,260.000000) scale(0.100000,-0.100000)"
fill="#000000" stroke="none">
<path d="M602 2525 c-190 -53 -325 -191 -352 -360 -18 -109 7 -191 102 -342
86 -137 114 -254 83 -359 -22 -79 -67 -149 -165 -264 -142 -165 -208 -304
-230 -483 -24 -199 30 -370 159 -497 111 -110 234 -160 396 -160 137 0 217 26
389 125 164 95 254 121 360 103 33 -5 128 -35 210 -67 83 -33 175 -64 205 -70
151 -32 332 -22 481 25 190 59 277 177 288 386 6 119 -8 198 -53 294 -50 110
-109 190 -221 299 -118 116 -134 149 -115 243 16 78 36 115 124 221 109 131
140 199 145 317 5 107 -11 172 -66 279 -92 175 -300 300 -465 280 -36 -4 -98
-29 -205 -83 -149 -75 -156 -77 -225 -77 -65 0 -79 4 -152 43 -247 131 -317
153 -510 158 -94 3 -145 0 -183 -11z m905 -663 c124 -39 193 -97 242 -202 23
-50 26 -66 25 -170 0 -136 -20 -200 -86 -275 -86 -98 -162 -125 -350 -125
l-128 0 0 -190 0 -190 -115 0 -115 0 0 591 0 592 233 -6 c195 -4 242 -8 294
-25z"/>
<path d="M1210 1485 l0 -175 107 0 c95 0 111 3 149 25 80 47 107 157 61 246
-35 66 -68 79 -204 79 l-113 0 0 -175z"/>
</g>
</svg>
