<?xml version="1.0" encoding="utf-8"?>
<!-- Generator: Adobe Illustrator 19.2.1, SVG Export Plug-In . SVG Version: 6.00 Build 0)  -->
<svg version="1.1" xmlns="http://www.w3.org/2000/svg" xmlns:xlink="http://www.w3.org/1999/xlink" x="0px" y="0px"
	 viewBox="0 0 530 530" style="enable-background:new 0 0 530 530;" xml:space="preserve">
<style type="text/css">
	.st0{fill:url(#SVGID_1_);}
	.st1{fill:#FFD8A0;}
	.st2{opacity:0.5;}
	.st3{fill:#FFEBCE;}
	.st4{fill:#DBDCD7;}
	.st5{fill:#CFC9BD;}
	.st6{fill:#FFFFFF;}
	.st7{fill:none;stroke:#FFFFFF;stroke-width:2;stroke-miterlimit:10;}
	.st8{fill:none;stroke:#FFFFFF;stroke-width:1.9773;stroke-miterlimit:10;}
	.st9{opacity:0.8;}
	.st10{fill:#6D85A7;}
	.st11{fill:none;stroke:#FFFFFF;stroke-width:0.4943;stroke-miterlimit:10;}
	.st12{fill:#D1CBC2;}
	.st13{fill:none;stroke:#D1CBC2;stroke-width:2;stroke-miterlimit:10;}
	.st14{fill:#C6C1B6;}
	.st15{fill:#D3D2D0;}
	.st16{fill:none;stroke:#FFFFFF;stroke-width:0.5;stroke-miterlimit:10;}
	.st17{fill:#E0E0E0;}
	.st18{fill:#F0F0F0;stroke:#F0F0F0;stroke-miterlimit:10;}
	.st19{fill:#DCDCDA;}
	.st20{fill:#BFBFBF;}
	.st21{fill:#D6D6D6;}
	.st22{fill:none;stroke:#C1C1C1;stroke-miterlimit:10;}
	.st23{fill:#E2E2E2;stroke:#D3D4CF;stroke-width:2.8498;stroke-miterlimit:10;}
	.st24{fill:#D3D1CF;}
	.st25{fill:#EFEFEF;}
	.st26{fill:#CCCCCC;}
	.st27{fill:#CBC7BE;stroke:#DDE0DB;stroke-width:6;stroke-miterlimit:10;}
	.st28{opacity:0.5;fill:none;stroke:#DDE0DB;stroke-width:0.75;stroke-miterlimit:10;}
	.st29{fill:none;stroke:#DDE0DB;stroke-width:2;stroke-miterlimit:10;}
	.st30{fill:none;stroke:#B4AFA7;stroke-width:2;stroke-miterlimit:10;}
	.st31{fill:#DBDAD5;stroke:#C3BDB2;stroke-miterlimit:10;}
	.st32{fill:#BCBCBC;}
	.st33{fill:#DCDBD6;}
	.st34{fill:#CECBC6;}
	.st35{fill:#DCD8D1;}
	.st36{fill:#D4D1D4;}
	.st37{fill:none;stroke:#D1CBC2;stroke-width:1.4119;stroke-miterlimit:10;}
	.st38{fill:#E5E5E5;stroke:#E5E5E5;stroke-miterlimit:10;}
	.st39{fill:#E5E5E5;}
	.st40{fill:#C3BDB2;stroke:#C3BDB2;stroke-miterlimit:10;}
	.st41{fill:#CAC7C8;stroke:#CAC7C8;stroke-miterlimit:10;}
	.st42{opacity:0.6;fill:#EFEFEF;stroke:#EFEFEF;stroke-miterlimit:10;}
	.st43{fill:#DDDED9;stroke:#DDDED9;stroke-miterlimit:10;}
	.st44{fill:#91919B;}
	.st45{fill:#F0F0F0;}
	.st46{fill:#6C92A5;}
	.st47{fill:#9AAFCF;}
	.st48{fill:#737476;stroke:#737476;stroke-miterlimit:10;}
	.st49{fill:#EFEFEF;stroke:#EFEFEF;stroke-miterlimit:10;}
	.st50{fill:#6D85A7;stroke:#EFEFEF;stroke-width:1.5574;stroke-miterlimit:10;}
</style>
<g id="night_sky">
	<g>
		<linearGradient id="SVGID_1_" gradientUnits="userSpaceOnUse" x1="265" y1="528.6305" x2="265" y2="13.0765">
			<stop  offset="0" style="stop-color:#906090"/>
			<stop  offset="0" style="stop-color:#8F5F8F"/>
			<stop  offset="0.137" style="stop-color:#875B8B"/>
			<stop  offset="0.3105" style="stop-color:#775383"/>
			<stop  offset="0.504" style="stop-color:#604878"/>
			<stop  offset="0.7025" style="stop-color:#483078"/>
			<stop  offset="0.9944" style="stop-color:#001848"/>
		</linearGradient>
		<path class="st0" d="M525,99.8v334.6c0,4,0,8-0.6,11.9c-0.1,0.4-0.1,0.9-0.2,1.3c0,0.2-0.1,0.4-0.1,0.7c0,0.2-0.1,0.4-0.1,0.6
			c-0.1,0.8-0.3,1.7-0.4,2.5c-0.2,1.2-0.5,2.3-0.7,3.5c0,0,0,0.1,0,0.1c-0.1,0.3-0.1,0.6-0.2,0.8c-0.5,1.9-1,3.9-1.6,5.8
			c-0.4,1.1-0.8,2.3-1.2,3.4c0,0,0,0,0,0.1c-0.2,0.6-0.5,1.2-0.7,1.9c-0.2,0.5-0.4,1-0.6,1.4c-5.4,13.1-13.7,24.7-24,34
			c-1.9,1.7-3.8,3.3-5.8,4.8c-0.4,0.3-0.9,0.5-1.3,0.8c-0.1,0.1-0.2,0.1-0.3,0.1h0c0,0,0,0.2-0.1,0.2c-8.2,5.9-17.3,10.6-27.2,13.6
			c-1.1,0.3-2.1,0.7-3.2,1c-1.1,0.3-2.2,0.6-3.3,0.8c0,0,0,0,0,0c0,0,0,0,0,0c-2.2,0.5-4.4,0.9-6.6,1.2l0,0c-0.1,0-0.1,0-0.2,0
			c-4.6,0.7-9.4,1-14.2,1H99.4c-0.5,0-1.1,0-1.6,0c-7.9-0.1-15.7-1.2-23-3.2c-4.8-1.3-9.5-3-14-5c-5.3-2.4-10.3-5.2-15-8.5
			c-1.7-1.2-3.5-2.5-5.1-3.8c-1-0.8-2-1.6-3-2.5c0,0-0.1-0.1-0.1-0.1c-2.1-1.8-4-3.6-5.9-5.6c-4.9-5.1-9.4-10.7-13-16.8
			c-4.7-7.8-8.4-16.4-10.7-25.5c0,0,0-0.1,0-0.1c-0.4-1.6-0.8-3.3-1.1-5C5.6,444.3,5,438.5,5,432.6V99.8C5,48.1,47.7,6,99.4,6h332.8
			C483.9,6,525,48.1,525,99.8z"/>
		<path class="st1" d="M63.7,89.1c-11.6,0-21-9.4-21-21c0-7.3,3.8-13.8,9.5-17.6c-11.6,1.2-20.7,11-20.7,22.9c0,12.7,10.3,23,23,23
			c7.7,0,14.6-3.8,18.8-9.7C70.4,88.3,67.1,89.1,63.7,89.1z"/>
		<g class="st2">
			<g>
				<path class="st3" d="M90.5,42.3c3.9,0,3.9-6,0-6C86.6,36.3,86.6,42.3,90.5,42.3L90.5,42.3z"/>
			</g>
		</g>
		<g class="st2">
			<g>
				<path class="st3" d="M70.9,57.4c3.9,0,3.9-6,0-6C67,51.4,67,57.4,70.9,57.4L70.9,57.4z"/>
			</g>
		</g>
		<g class="st2">
			<g>
				<path class="st3" d="M63.3,175.2c3.9,0,3.9-6,0-6C59.5,169.2,59.4,175.2,63.3,175.2L63.3,175.2z"/>
			</g>
		</g>
		<g class="st2">
			<g>
				<path class="st3" d="M30.1,120.8c3.9,0,3.9-6,0-6C26.2,114.8,26.2,120.8,30.1,120.8L30.1,120.8z"/>
			</g>
		</g>
		<g class="st2">
			<g>
				<path class="st3" d="M152.5,48.3c3.9,0,3.9-6,0-6C148.6,42.3,148.6,48.3,152.5,48.3L152.5,48.3z"/>
			</g>
		</g>
		<g class="st2">
			<g>
				<path class="st3" d="M283.9,45.3c3.9,0,3.9-6,0-6C280,39.3,280,45.3,283.9,45.3L283.9,45.3z"/>
			</g>
		</g>
		<g class="st2">
			<g>
				<path class="st3" d="M265.8,90.6c3.9,0,3.9-6,0-6C261.9,84.6,261.9,90.6,265.8,90.6L265.8,90.6z"/>
			</g>
		</g>
		<g class="st2">
			<g>
				<path class="st3" d="M367,66.4c3.9,0,3.9-6,0-6C363.1,60.4,363.1,66.4,367,66.4L367,66.4z"/>
			</g>
		</g>
		<g class="st2">
			<g>
				<path class="st3" d="M489.4,188.8c3.9,0,3.9-6,0-6C485.5,182.8,485.5,188.8,489.4,188.8L489.4,188.8z"/>
			</g>
		</g>
		<g class="st2">
			<g>
				<path class="st3" d="M450.1,237.1c3.9,0,3.9-6,0-6C446.2,231.1,446.2,237.1,450.1,237.1L450.1,237.1z"/>
			</g>
		</g>
		<g class="st2">
			<g>
				<path class="st3" d="M480.3,116.3c3.9,0,3.9-6,0-6C476.4,110.3,476.4,116.3,480.3,116.3L480.3,116.3z"/>
			</g>
		</g>
		<g class="st2">
			<g>
				<path class="st3" d="M463.7,52.8c3.9,0,3.9-6,0-6C459.8,46.8,459.8,52.8,463.7,52.8L463.7,52.8z"/>
			</g>
		</g>
		<g class="st2">
			<g>
				<path class="st3" d="M22.5,302.1c3.9,0,3.9-6,0-6C18.7,296.1,18.7,302.1,22.5,302.1L22.5,302.1z"/>
			</g>
		</g>
		<g class="st2">
			<g>
				<path class="st3" d="M58.8,228.1c3.9,0,3.9-6,0-6C54.9,222.1,54.9,228.1,58.8,228.1L58.8,228.1z"/>
			</g>
		</g>
		<g class="st2">
			<g>
				<path class="st3" d="M240.1,149.5c1.9,0,1.9-3,0-3C238.1,146.5,238.1,149.5,240.1,149.5L240.1,149.5z"/>
			</g>
		</g>
		<g class="st2">
			<g>
				<path class="st3" d="M86,71c1.9,0,1.9-3,0-3C84,68,84,71,86,71L86,71z"/>
			</g>
		</g>
		<g class="st2">
			<g>
				<path class="st3" d="M72.4,131.4c1.9,0,1.9-3,0-3C70.5,128.4,70.4,131.4,72.4,131.4L72.4,131.4z"/>
			</g>
		</g>
		<g class="st2">
			<g>
				<path class="st3" d="M30.1,194.9c1.9,0,1.9-3,0-3C28.1,191.9,28.1,194.9,30.1,194.9L30.1,194.9z"/>
			</g>
		</g>
		<g class="st2">
			<g>
				<path class="st3" d="M83,294.6c1.9,0,1.9-3,0-3C81,291.6,81,294.6,83,294.6L83,294.6z"/>
			</g>
		</g>
		<g class="st2">
			<g>
				<path class="st3" d="M52.7,324.8c1.9,0,1.9-3,0-3C50.8,321.8,50.8,324.8,52.7,324.8L52.7,324.8z"/>
			</g>
		</g>
		<g class="st2">
			<g>
				<path class="st3" d="M144.9,105.7c1.9,0,1.9-3,0-3C143,102.7,143,105.7,144.9,105.7L144.9,105.7z"/>
			</g>
		</g>
		<g class="st2">
			<g>
				<path class="st3" d="M240.1,55.9c1.9,0,1.9-3,0-3C238.1,52.9,238.1,55.9,240.1,55.9L240.1,55.9z"/>
			</g>
		</g>
		<g class="st2">
			<g>
				<path class="st3" d="M365.5,110.2c1.9,0,1.9-3,0-3C363.5,107.2,363.5,110.2,365.5,110.2L365.5,110.2z"/>
			</g>
		</g>
		<g class="st2">
			<g>
				<path class="st3" d="M413.8,27.2c1.9,0,1.9-3,0-3C411.9,24.2,411.9,27.2,413.8,27.2L413.8,27.2z"/>
			</g>
		</g>
		<g class="st2">
			<g>
				<path class="st3" d="M454.6,146.5c1.9,0,1.9-3,0-3C452.7,143.5,452.7,146.5,454.6,146.5L454.6,146.5z"/>
			</g>
		</g>
		<g class="st2">
			<g>
				<path class="st3" d="M501.4,258.3c1.9,0,1.9-3,0-3C499.5,255.3,499.5,258.3,501.4,258.3L501.4,258.3z"/>
			</g>
		</g>
		<g class="st2">
			<g>
				<path class="st3" d="M100.5,168.8c3.9,0,3.9-6,0-6C96.6,162.8,96.6,168.8,100.5,168.8L100.5,168.8z"/>
			</g>
		</g>
		<g class="st2">
			<g>
				<path class="st3" d="M115.5,215c3.9,0,3.9-6,0-6C111.7,209,111.7,215,115.5,215L115.5,215z"/>
			</g>
		</g>
		<g class="st2">
			<g>
				<path class="st3" d="M141.9,158.4c3.9,0,3.9-6,0-6C138.1,152.4,138.1,158.4,141.9,158.4L141.9,158.4z"/>
			</g>
		</g>
		<g class="st2">
			<g>
				<path class="st3" d="M388,223.5c3.9,0,3.9-6,0-6C384.1,217.5,384.1,223.5,388,223.5L388,223.5z"/>
			</g>
		</g>
		<g class="st2">
			<g>
				<path class="st3" d="M352.2,311.1c3.9,0,3.9-6,0-6C348.3,305.1,348.3,311.1,352.2,311.1L352.2,311.1z"/>
			</g>
		</g>
		<g class="st2">
			<g>
				<path class="st3" d="M438,339.4c3.9,0,3.9-6,0-6C434.1,333.4,434.1,339.4,438,339.4L438,339.4z"/>
			</g>
		</g>
		<g class="st2">
			<g>
				<path class="st3" d="M365.4,165c3.9,0,3.9-6,0-6C361.5,159,361.5,165,365.4,165L365.4,165z"/>
			</g>
		</g>
		<g class="st2">
			<g>
				<path class="st3" d="M140,314.9c3.9,0,3.9-6,0-6C136.2,308.9,136.2,314.9,140,314.9L140,314.9z"/>
			</g>
		</g>
		<g class="st2">
			<g>
				<path class="st3" d="M355,378.1c3.9,0,3.9-6,0-6C351.1,372.1,351.1,378.1,355,378.1L355,378.1z"/>
			</g>
		</g>
		<g class="st2">
			<g>
				<path class="st3" d="M490.8,355.5c3.9,0,3.9-6,0-6C486.9,349.5,486.9,355.5,490.8,355.5L490.8,355.5z"/>
			</g>
		</g>
		<g class="st2">
			<g>
				<path class="st3" d="M408.7,276.3c3.9,0,3.9-6,0-6C404.9,270.3,404.9,276.3,408.7,276.3L408.7,276.3z"/>
			</g>
		</g>
		<g class="st2">
			<g>
				<path class="st3" d="M28.8,376.2c3.9,0,3.9-6,0-6C24.9,370.2,24.9,376.2,28.8,376.2L28.8,376.2z"/>
			</g>
		</g>
		<g class="st2">
			<g>
				<path class="st3" d="M133.4,251.2c1.9,0,1.9-3,0-3C131.5,248.2,131.5,251.2,133.4,251.2L133.4,251.2z"/>
			</g>
		</g>
		<g class="st2">
			<g>
				<path class="st3" d="M321.1,116.4c1.9,0,1.9-3,0-3C319.1,113.4,319.1,116.4,321.1,116.4L321.1,116.4z"/>
			</g>
		</g>
		<g class="st2">
			<g>
				<path class="st3" d="M180.6,79.6c1.9,0,1.9-3,0-3C178.7,76.6,178.7,79.6,180.6,79.6L180.6,79.6z"/>
			</g>
		</g>
		<g class="st2">
			<g>
				<path class="st3" d="M390.8,347.4c1.9,0,1.9-3,0-3C388.9,344.4,388.9,347.4,390.8,347.4L390.8,347.4z"/>
			</g>
		</g>
		<g class="st2">
			<g>
				<path class="st3" d="M478.5,300.2c1.9,0,1.9-3,0-3C476.6,297.2,476.6,300.2,478.5,300.2L478.5,300.2z"/>
			</g>
		</g>
		<g class="st2">
			<g>
				<path class="st3" d="M356,250.3c1.9,0,1.9-3,0-3C354,247.3,354,250.3,356,250.3L356,250.3z"/>
			</g>
		</g>
		<g class="st2">
			<g>
				<path class="st3" d="M322,341.7c1.9,0,1.9-3,0-3C320.1,338.7,320.1,341.7,322,341.7L322,341.7z"/>
			</g>
		</g>
	</g>
</g>
<g id="background">
	<path class="st4" d="M525,186v248.4c0,4,0,8-0.6,11.9c-0.1,0.4-0.1,0.9-0.2,1.3c-0.1,0.4-0.1,0.9-0.2,1.3c-0.1,0.9-0.3,1.7-0.4,2.6
		c-0.2,1.2-0.5,2.5-0.7,3.5H7.8c0,0,0-0.1,0-0.1C6,447.7,5,440.3,5,432.6V186H525z"/>
	<rect x="5" y="185.8" class="st5" width="520" height="7.6"/>
	<g>
		<g>
			<g>
				<rect x="34.5" y="236.1" class="st6" width="30.7" height="50.7"/>
				<polygon class="st7" points="34.5,236 49.9,225.6 65.2,236 				"/>
			</g>
			<rect x="34.5" y="286.9" class="st6" width="5.1" height="7.4"/>
			<rect x="59.5" y="286.9" class="st6" width="5.1" height="7.4"/>
			<line class="st8" x1="32.2" y1="285.9" x2="67.5" y2="285.9"/>
		</g>
		<g class="st9">
			<rect x="39.8" y="243.7" class="st10" width="20.2" height="39.4"/>
			<line class="st11" x1="49.9" y1="243.7" x2="49.9" y2="283.2"/>
			<line class="st11" x1="39.8" y1="270" x2="59.9" y2="270"/>
			<line class="st11" x1="39.8" y1="256.6" x2="59.9" y2="256.6"/>
		</g>
		<line class="st8" x1="37" y1="275.6" x2="62.7" y2="275.6"/>
		<line class="st8" x1="39.6" y1="275.6" x2="39.6" y2="283.2"/>
		<line class="st8" x1="43.6" y1="275.6" x2="43.6" y2="283.2"/>
		<line class="st8" x1="48.1" y1="275.6" x2="48.1" y2="283.2"/>
		<line class="st8" x1="51.9" y1="275.6" x2="51.9" y2="283.2"/>
		<line class="st8" x1="55.9" y1="275.6" x2="55.9" y2="283.2"/>
		<line class="st8" x1="59.9" y1="275.6" x2="59.9" y2="283.2"/>
	</g>
	<g>
		<g>
			<g>
				<rect x="88.5" y="236.1" class="st6" width="30.7" height="50.7"/>
				<polygon class="st7" points="88.5,236 103.9,225.6 119.2,236 				"/>
			</g>
			<rect x="88.5" y="286.9" class="st6" width="5.1" height="7.4"/>
			<rect x="113.5" y="286.9" class="st6" width="5.1" height="7.4"/>
			<line class="st8" x1="86.2" y1="285.9" x2="121.5" y2="285.9"/>
		</g>
		<g class="st9">
			<rect x="93.8" y="243.7" class="st10" width="20.2" height="39.4"/>
			<line class="st11" x1="103.9" y1="243.7" x2="103.9" y2="283.2"/>
			<line class="st11" x1="93.8" y1="270" x2="113.9" y2="270"/>
			<line class="st11" x1="93.8" y1="256.6" x2="113.9" y2="256.6"/>
		</g>
		<line class="st8" x1="91" y1="275.6" x2="116.7" y2="275.6"/>
		<line class="st8" x1="93.6" y1="275.6" x2="93.6" y2="283.2"/>
		<line class="st8" x1="97.6" y1="275.6" x2="97.6" y2="283.2"/>
		<line class="st8" x1="102.1" y1="275.6" x2="102.1" y2="283.2"/>
		<line class="st8" x1="105.9" y1="275.6" x2="105.9" y2="283.2"/>
		<line class="st8" x1="109.9" y1="275.6" x2="109.9" y2="283.2"/>
		<line class="st8" x1="113.9" y1="275.6" x2="113.9" y2="283.2"/>
	</g>
	<rect x="5" y="297.2" class="st12" width="520" height="5.7"/>
	<line class="st13" x1="3.9" y1="306.4" x2="524.7" y2="306.4"/>
	<g>
		<rect x="5" y="217.7" class="st14" width="520" height="5.8"/>
		<rect x="5" y="212.3" class="st5" width="520" height="5.8"/>
	</g>
	<rect x="126.4" y="193.4" class="st15" width="282.4" height="261.6"/>
	<g>
		<g>
			<g>
				<rect x="34.5" y="321.8" class="st6" width="30.7" height="51.9"/>
				<polygon class="st7" points="34.5,322 49.9,311.4 65.2,322 				"/>
			</g>
			<rect x="34.5" y="373.7" class="st6" width="5.1" height="7.6"/>
			<rect x="59.5" y="373.7" class="st6" width="5.1" height="7.6"/>
			<line class="st7" x1="32.2" y1="372.7" x2="67.5" y2="372.7"/>
		</g>
		<g class="st9">
			<rect x="39.8" y="329.6" class="st10" width="20.2" height="40.4"/>
			<line class="st16" x1="49.9" y1="329.6" x2="49.9" y2="369.9"/>
			<line class="st16" x1="39.8" y1="356.5" x2="59.9" y2="356.5"/>
			<line class="st16" x1="39.8" y1="342.7" x2="59.9" y2="342.7"/>
		</g>
		<line class="st7" x1="37" y1="362.2" x2="62.7" y2="362.2"/>
		<line class="st7" x1="39.6" y1="362.2" x2="39.6" y2="369.9"/>
		<line class="st7" x1="43.6" y1="362.2" x2="43.6" y2="369.9"/>
		<line class="st7" x1="48.1" y1="362.2" x2="48.1" y2="369.9"/>
		<line class="st7" x1="51.9" y1="362.2" x2="51.9" y2="369.9"/>
		<line class="st7" x1="55.9" y1="362.2" x2="55.9" y2="369.9"/>
		<line class="st7" x1="59.9" y1="362.2" x2="59.9" y2="369.9"/>
	</g>
	<g>
		<g>
			<g>
				<rect x="88.5" y="321.8" class="st6" width="30.7" height="51.9"/>
				<polygon class="st7" points="88.5,322 103.9,311.4 119.2,322 				"/>
			</g>
			<rect x="88.5" y="373.7" class="st6" width="5.1" height="7.6"/>
			<rect x="113.5" y="373.7" class="st6" width="5.1" height="7.6"/>
			<line class="st7" x1="86.2" y1="372.7" x2="121.5" y2="372.7"/>
		</g>
		<g class="st9">
			<rect x="93.8" y="329.6" class="st10" width="20.2" height="40.4"/>
			<line class="st16" x1="103.9" y1="329.6" x2="103.9" y2="369.9"/>
			<line class="st16" x1="93.8" y1="356.5" x2="113.9" y2="356.5"/>
			<line class="st16" x1="93.8" y1="342.7" x2="113.9" y2="342.7"/>
		</g>
		<line class="st7" x1="91" y1="362.2" x2="116.7" y2="362.2"/>
		<line class="st7" x1="93.6" y1="362.2" x2="93.6" y2="369.9"/>
		<line class="st7" x1="97.6" y1="362.2" x2="97.6" y2="369.9"/>
		<line class="st7" x1="102.1" y1="362.2" x2="102.1" y2="369.9"/>
		<line class="st7" x1="105.9" y1="362.2" x2="105.9" y2="369.9"/>
		<line class="st7" x1="109.9" y1="362.2" x2="109.9" y2="369.9"/>
		<line class="st7" x1="113.9" y1="362.2" x2="113.9" y2="369.9"/>
	</g>
	<g>
		<g>
			<g>
				<rect x="410.5" y="236.1" class="st6" width="30.7" height="50.7"/>
				<polygon class="st7" points="410.5,236 425.9,225.6 441.2,236 				"/>
			</g>
			<rect x="410.5" y="286.9" class="st6" width="5.1" height="7.4"/>
			<rect x="435.5" y="286.9" class="st6" width="5.1" height="7.4"/>
			<line class="st8" x1="408.2" y1="285.9" x2="443.5" y2="285.9"/>
		</g>
		<g class="st9">
			<rect x="415.8" y="243.7" class="st10" width="20.2" height="39.4"/>
			<line class="st11" x1="425.9" y1="243.7" x2="425.9" y2="283.2"/>
			<line class="st11" x1="415.8" y1="270" x2="435.9" y2="270"/>
			<line class="st11" x1="415.8" y1="256.6" x2="435.9" y2="256.6"/>
		</g>
		<line class="st8" x1="413" y1="275.6" x2="438.7" y2="275.6"/>
		<line class="st8" x1="415.6" y1="275.6" x2="415.6" y2="283.2"/>
		<line class="st8" x1="419.6" y1="275.6" x2="419.6" y2="283.2"/>
		<line class="st8" x1="424.1" y1="275.6" x2="424.1" y2="283.2"/>
		<line class="st8" x1="427.9" y1="275.6" x2="427.9" y2="283.2"/>
		<line class="st8" x1="431.9" y1="275.6" x2="431.9" y2="283.2"/>
		<line class="st8" x1="435.9" y1="275.6" x2="435.9" y2="283.2"/>
	</g>
	<g>
		<g>
			<g>
				<rect x="464.5" y="236.1" class="st6" width="30.7" height="50.7"/>
				<polygon class="st7" points="464.5,236 479.9,225.6 495.2,236 				"/>
			</g>
			<rect x="464.5" y="286.9" class="st6" width="5.1" height="7.4"/>
			<rect x="489.5" y="286.9" class="st6" width="5.1" height="7.4"/>
			<line class="st8" x1="462.2" y1="285.9" x2="497.5" y2="285.9"/>
		</g>
		<g class="st9">
			<rect x="469.8" y="243.7" class="st10" width="20.2" height="39.4"/>
			<line class="st11" x1="479.9" y1="243.7" x2="479.9" y2="283.2"/>
			<line class="st11" x1="469.8" y1="270" x2="489.9" y2="270"/>
			<line class="st11" x1="469.8" y1="256.6" x2="489.9" y2="256.6"/>
		</g>
		<line class="st8" x1="467" y1="275.6" x2="492.7" y2="275.6"/>
		<line class="st8" x1="469.6" y1="275.6" x2="469.6" y2="283.2"/>
		<line class="st8" x1="473.6" y1="275.6" x2="473.6" y2="283.2"/>
		<line class="st8" x1="478.1" y1="275.6" x2="478.1" y2="283.2"/>
		<line class="st8" x1="481.9" y1="275.6" x2="481.9" y2="283.2"/>
		<line class="st8" x1="485.9" y1="275.6" x2="485.9" y2="283.2"/>
		<line class="st8" x1="489.9" y1="275.6" x2="489.9" y2="283.2"/>
	</g>
	<g>
		<g>
			<g>
				<rect x="410.5" y="321.8" class="st6" width="30.7" height="51.9"/>
				<polygon class="st7" points="410.5,322 425.9,311.4 441.2,322 				"/>
			</g>
			<rect x="410.5" y="373.7" class="st6" width="5.1" height="7.6"/>
			<rect x="435.5" y="373.7" class="st6" width="5.1" height="7.6"/>
			<line class="st7" x1="408.2" y1="372.7" x2="443.5" y2="372.7"/>
		</g>
		<g class="st9">
			<rect x="415.8" y="329.6" class="st10" width="20.2" height="40.4"/>
			<line class="st16" x1="425.9" y1="329.6" x2="425.9" y2="369.9"/>
			<line class="st16" x1="415.8" y1="356.5" x2="435.9" y2="356.5"/>
			<line class="st16" x1="415.8" y1="342.7" x2="435.9" y2="342.7"/>
		</g>
		<line class="st7" x1="413" y1="362.2" x2="438.7" y2="362.2"/>
		<line class="st7" x1="415.6" y1="362.2" x2="415.6" y2="369.9"/>
		<line class="st7" x1="419.6" y1="362.2" x2="419.6" y2="369.9"/>
		<line class="st7" x1="424.1" y1="362.2" x2="424.1" y2="369.9"/>
		<line class="st7" x1="427.9" y1="362.2" x2="427.9" y2="369.9"/>
		<line class="st7" x1="431.9" y1="362.2" x2="431.9" y2="369.9"/>
		<line class="st7" x1="435.9" y1="362.2" x2="435.9" y2="369.9"/>
	</g>
	<g>
		<g>
			<g>
				<rect x="464.5" y="321.8" class="st6" width="30.7" height="51.9"/>
				<polygon class="st7" points="464.5,322 479.9,311.4 495.2,322 				"/>
			</g>
			<rect x="464.5" y="373.7" class="st6" width="5.1" height="7.6"/>
			<rect x="489.5" y="373.7" class="st6" width="5.1" height="7.6"/>
			<line class="st7" x1="462.2" y1="372.7" x2="497.5" y2="372.7"/>
		</g>
		<g class="st9">
			<rect x="469.8" y="329.6" class="st10" width="20.2" height="40.4"/>
			<line class="st16" x1="479.9" y1="329.6" x2="479.9" y2="369.9"/>
			<line class="st16" x1="469.8" y1="356.5" x2="489.9" y2="356.5"/>
			<line class="st16" x1="469.8" y1="342.7" x2="489.9" y2="342.7"/>
		</g>
		<line class="st7" x1="467" y1="362.2" x2="492.7" y2="362.2"/>
		<line class="st7" x1="469.6" y1="362.2" x2="469.6" y2="369.9"/>
		<line class="st7" x1="473.6" y1="362.2" x2="473.6" y2="369.9"/>
		<line class="st7" x1="478.1" y1="362.2" x2="478.1" y2="369.9"/>
		<line class="st7" x1="481.9" y1="362.2" x2="481.9" y2="369.9"/>
		<line class="st7" x1="485.9" y1="362.2" x2="485.9" y2="369.9"/>
		<line class="st7" x1="489.9" y1="362.2" x2="489.9" y2="369.9"/>
	</g>
	<polygon class="st17" points="113.5,137 121.6,148 122,148 122,194 409,194 409,148 417.7,137 	"/>
	<g>
		<polygon class="st18" points="494.7,393.5 502.5,377.6 502.5,259 498.5,242 498.5,223.5 522.5,223.5 522.5,243 517.5,258.8 
			517.5,378 524.7,393.5 		"/>
		<polygon class="st19" points="517.6,258.8 501.7,259 497.4,242 523.4,242 518.1,258.7 		"/>
	</g>
	<g>
		<polygon class="st18" points="435.7,393.5 443.5,377.6 443.5,259 439.5,242 439.5,223.5 463.5,223.5 463.5,243 458.5,258.8 
			458.5,378 465.7,393.5 		"/>
		<polygon class="st19" points="458.6,258.8 442.7,259 438.4,242 464.4,242 459.1,258.7 		"/>
	</g>
	<g>
		<polygon class="st18" points="62.7,393.5 70.5,377.6 70.5,259 66.5,242 66.5,223.5 90.5,223.5 90.5,243 85.5,258.8 85.5,378 
			92.7,393.5 		"/>
		<polygon class="st19" points="85.6,258.8 69.7,259 65.4,242 91.4,242 86.1,258.7 		"/>
	</g>
	<g>
		<polygon class="st18" points="7.7,393.5 15.5,377.6 15.5,259 11.5,242 11.5,223.5 35.5,223.5 35.5,243 30.5,258.8 30.5,378 
			37.7,393.5 		"/>
		<polygon class="st19" points="30.6,258.8 14.7,259 10.4,242 36.4,242 31.1,258.7 		"/>
	</g>
	<path class="st20" d="M113.5,120l5.5,5h10v12h275v-12.2l9.6,0.2l6.4-5H113.5z M146,135h-4v-10h4V135z M152,135h-3v-10h3V135z
		 M158,135h-4v-10h4V135z M163,135h-4v-10h4V135z M172,135h-4v-10h4V135z M178,135h-4v-10h4V135z M183,135h-3v-10h3V135z M189,135
		h-4v-10h4V135z M348,135h-4v-10h4V135z M354,135h-4v-10h4V135z M360,135h-4v-10h4V135z M365,135h-4v-10h4V135z M374,135h-4v-10h4
		V135z M380,135h-4v-10h4V135z M385,135h-4v-10h4V135z M391,135h-4v-10h4V135z"/>
	<g>
		<path class="st21" d="M525,393v40.8c0,4.1,0,8.2-0.6,12.2c-0.1,0.5-0.1,0.9-0.2,1.4c-0.1,0.4-0.1,0.9-0.2,1.3
			c-0.1,0.9-0.3,1.7-0.4,2.6c-0.2,1.2-0.5,2.4-0.7,3.6c0,0,0,0.1,0,0.1H7.8c0,0,0-0.1,0-0.1C6,447.5,5,439.8,5,431.9V393H525z"/>
		<line class="st22" x1="5" y1="401.5" x2="525" y2="401.5"/>
		<line class="st22" x1="5" y1="393.5" x2="525" y2="393.5"/>
		<line class="st22" x1="5" y1="414.5" x2="525" y2="414.5"/>
		<line class="st22" x1="5" y1="426.5" x2="525" y2="426.5"/>
		<line class="st22" x1="5" y1="440.5" x2="525" y2="440.5"/>
	</g>
	<g>
		<rect x="39.9" y="396.6" class="st10" width="20.2" height="40.4"/>
		<line class="st16" x1="49.9" y1="396.6" x2="49.9" y2="436.9"/>
		<line class="st16" x1="39.9" y1="423.5" x2="60" y2="423.5"/>
		<line class="st16" x1="39.9" y1="409.7" x2="60" y2="409.7"/>
	</g>
	<g>
		<rect x="98.2" y="396.6" class="st10" width="20.2" height="40.4"/>
		<line class="st16" x1="108.3" y1="396.6" x2="108.3" y2="436.9"/>
		<line class="st16" x1="98.2" y1="423.5" x2="118.4" y2="423.5"/>
		<line class="st16" x1="98.2" y1="409.7" x2="118.4" y2="409.7"/>
	</g>
	<g>
		<rect x="411.5" y="396.6" class="st10" width="20.2" height="40.4"/>
		<line class="st16" x1="421.5" y1="396.6" x2="421.5" y2="436.9"/>
		<line class="st16" x1="411.5" y1="423.5" x2="431.6" y2="423.5"/>
		<line class="st16" x1="411.5" y1="409.7" x2="431.6" y2="409.7"/>
	</g>
	<g>
		<rect x="469.8" y="396.6" class="st10" width="20.2" height="40.4"/>
		<line class="st16" x1="479.9" y1="396.6" x2="479.9" y2="436.9"/>
		<line class="st16" x1="469.8" y1="423.5" x2="490" y2="423.5"/>
		<line class="st16" x1="469.8" y1="409.7" x2="490" y2="409.7"/>
	</g>
	<g>
		<rect x="150.2" y="155.3" class="st23" width="33.8" height="31.4"/>
		<rect x="154.9" y="160.6" class="st24" width="24.4" height="20.9"/>
	</g>
	<g>
		<rect x="342.6" y="155.3" class="st23" width="33.8" height="31.4"/>
		<rect x="347.3" y="160.6" class="st24" width="24.4" height="20.9"/>
	</g>
	<rect x="218.7" y="155.3" class="st25" width="97.2" height="31.4"/>
	<polygon class="st26" points="121.8,148 113.5,137 418,137 409,148 	"/>
	<g>
		<path class="st27" d="M267,243.5c-27.3,0-49.5,22.5-49.5,49.5h98.9C316.5,266,294.3,243.5,267,243.5z"/>
		<line class="st28" x1="242.4" y1="250.2" x2="226.4" y2="293"/>
		<line class="st28" x1="302.6" y1="260.6" x2="289.9" y2="294.5"/>
		<line class="st28" x1="309" y1="267" x2="298.5" y2="295.2"/>
		<line class="st28" x1="314" y1="274.3" x2="306.3" y2="295.2"/>
		<line class="st28" x1="251.9" y1="247.2" x2="234.9" y2="293"/>
		<line class="st28" x1="295.9" y1="251.5" x2="278.9" y2="297.2"/>
		<line class="st28" x1="262" y1="246.2" x2="244.9" y2="292"/>
		<line class="st28" x1="271.5" y1="246.2" x2="254.5" y2="292"/>
		<line class="st28" x1="280.4" y1="247.2" x2="263.3" y2="293"/>
		<line class="st28" x1="288.6" y1="248.7" x2="271.5" y2="294.5"/>
		<line class="st28" x1="239.3" y1="250.2" x2="255.3" y2="293"/>
		<line class="st28" x1="247.6" y1="248.5" x2="263.6" y2="291.3"/>
		<line class="st28" x1="257" y1="247.6" x2="273" y2="290.5"/>
		<line class="st28" x1="264.4" y1="244.6" x2="281.6" y2="290.5"/>
		<line class="st28" x1="272.2" y1="244.6" x2="289.3" y2="290.5"/>
		<line class="st28" x1="280.4" y1="244.6" x2="297.5" y2="290.5"/>
		<line class="st28" x1="287.7" y1="245.6" x2="304.8" y2="291.5"/>
		<line class="st28" x1="296.9" y1="251.5" x2="313.3" y2="292"/>
		<line class="st28" x1="234.1" y1="256.2" x2="247.8" y2="293"/>
		<line class="st28" x1="229.1" y1="261.2" x2="241.3" y2="293.9"/>
		<line class="st28" x1="223.6" y1="266" x2="234.9" y2="293"/>
		<line class="st28" x1="220" y1="277.6" x2="228.1" y2="294.6"/>
		<g>
			<g>
				<path class="st29" d="M263,244.5c0,0-21.6,17.3-22.1,46.5"/>
				<path class="st29" d="M257,244.5c0,0-21.6,17.3-22.1,46.5"/>
			</g>
			<g>
				<path class="st29" d="M271.9,245.5c0,0,21.6,17.3,22.1,46.5"/>
				<path class="st29" d="M277.9,245.5c0,0,21.6,17.3,22.1,46.5"/>
			</g>
		</g>
		<path class="st30" d="M255.7,247.9c0,0,2,7.1,10.3,7c8.3-0.2,8.8-7.5,8.8-7.5"/>
	</g>
	<rect x="153.9" y="240.3" class="st31" width="35.7" height="48.7"/>
	<g>
		<g>
			<g>
				<rect x="153.9" y="316.1" class="st32" width="35.7" height="79.4"/>
				<rect x="345.8" y="316.1" class="st32" width="36.3" height="79.4"/>
				<rect x="211.5" y="300.6" class="st32" width="112.5" height="94.9"/>
			</g>
			<rect x="346.2" y="240.3" class="st31" width="35.7" height="48.7"/>
		</g>
		<g>
			<rect x="138.6" y="223.4" class="st33" width="253" height="12.9"/>
			<rect x="138.6" y="227.4" class="st34" width="253" height="4.9"/>
		</g>
	</g>
	<g>
		<rect x="125.3" y="203" class="st35" width="282.4" height="19.7"/>
		<rect x="125.3" y="209.3" class="st34" width="282.4" height="6"/>
	</g>
	<polygon class="st36" points="124.5,203 118,194 416,194 407,203 	"/>
	<rect x="135.6" y="293.9" class="st12" width="259.2" height="5.7"/>
	<line class="st37" x1="135" y1="303.1" x2="394.6" y2="303.1"/>
	<polygon class="st38" points="123.8,394.5 131.5,378.6 131.5,238.8 127.5,221.4 127.5,202.5 151.5,202.5 151.5,222.4 146.5,238.6 
		146.5,378.9 153.4,394.5 	"/>
	<polygon class="st19" points="146.4,238.6 130.6,238.6 126.4,221 152.2,221 146.9,238.3 	"/>
	<polygon class="st38" points="189.1,394.5 196.5,378.6 196.5,238.8 192.5,221.4 192.5,202.5 216.5,202.5 216.5,222.4 211.5,238.6 
		211.5,378.9 218.7,394.5 	"/>
	<polygon class="st19" points="211.7,238.6 195.9,238.6 191.7,221 217.5,221 212.2,238.3 	"/>
	<polygon class="st38" points="315.7,394.5 323.5,378.6 323.5,238.8 319.5,221.4 319.5,202.5 343.5,202.5 343.5,222.4 338.5,238.6 
		338.5,378.9 345.4,394.5 	"/>
	<polygon class="st19" points="338.3,238.6 322.5,238.6 318.3,221 344.1,221 338.8,238.3 	"/>
	<polygon class="st38" points="379,394.5 386.5,378.6 386.5,238.8 382.5,221.4 382.5,202.5 406.5,202.5 406.5,222.4 401.5,238.6 
		401.5,378.9 408.7,394.5 	"/>
	<polygon class="st19" points="401.6,238.6 385.9,238.6 381.7,221 407.4,221 402.2,238.3 	"/>
	<polygon class="st39" points="239,396 239,313 235.7,304 251,304 247,313.1 247,396 	"/>
	<polygon class="st39" points="287,396 287,313 283.7,304 299,304 295,313.1 295,396 	"/>
	<polygon class="st40" points="183.2,288.5 153.5,288.5 153.5,257 153.5,252.5 160.5,252.5 161.5,255.9 163.8,249.6 168.5,250.1 
		168.5,253 166.1,257.6 170.8,259.9 181.3,257.1 175.7,263.1 168.5,264.8 168.5,270 172.6,272.1 177.1,272.6 179.3,263.3 185,262.1 
		186.5,266.8 186.5,272 189.1,274.6 186.6,279.8 185.5,286.3 	"/>
	<path class="st40" d="M347.5,289v-4.5h7.2l-0.7-6h-7.6V273c0,0,0.9-3.9,5.1-3.1c4.2,0.8,5.3,2.3,5.3,2.3l4.8-2.5l-2.2-7.2h-5.7
		l-1.6-3.9l-1.5-10.6l3.8,2.3l2.3,6.4l4.8,0.8V251l5.6,1.1l4.1,2.6l-0.8,5.3l3.8,2.6l4.7-7.9l2.5,0.8V289"/>
	<g>
		<path class="st41" d="M329.3,86.2c-1.3,0.3-7.4-1.2-7.4-1.2c-5.2-4.5-9.3-2-9.3-2l-6.3,1.8l1.2-3.3l1.4-1.3l-0.9-1.3l-0.5-1.4
			l-1.1-1.9h-2.2l-3.2,2.5l-1.9,2.1l-2.9-1.1l-1.9,1.3c0,0-5.7,6.5-8,1.3c-2.3-5.2,6-6.6,6-6.6l1.7-5.7l1.4-1.7l-1-0.9h-2.6l0.7,1.6
			l-1.5-0.5l-0.6-1.1l-2.9-0.3l0.4-1.2l-1-2l0.2-2.3l2.9-1l0.5-1.9l-0.6-1.1l-3.5-0.3v1.2l-5.9,1.5c-4.3-4.4-5.9,1.1-5.9,1.1
			l-1.2,0.1c0,0-0.2-12.2-6.9-10c-6.7,2.1-5.6,10.4-5.6,10.4l-1.3-0.7c-2-4.5-5.7,0-5.7,0l-6.6-2.2h-0.9h-1.8h-1.7l0.4,1h2.5l1.4,2
			l-1.6,3.5v2l-1.1,1.4l-0.3,2l-2.5,1l1.3,2.2l2.8,1.5c0,0-1.5-3,3.5-0.5c4.9,2.4,5.8-0.8,5.9-1c-0.8,2.7,3.2,3.4,3.2,3.4
			s2,4.3-1.1,5.5c-3.1,1.3-5.3-2.5-5.3-2.5l0.7-2c0,0-0.8-2.2-4.4-1.9c-3.5,0.3-2.5,3.4-2.5,3.4c-4.2,0.3-3.7,4.9-3.7,4.9
			c-3,0-4,2.9-4,2.9l-2.5-2.4l-2.5-3.9l-2-1.9l-4.7-1l-2,2l0.2,2.7l2,1.5l0.7,2.4l-3.7,1.5c0,0-6.9-7.6-10.4-3.2
			c-3.5,4.4-8.3,5.1-8.3,5.1s-2,0.1-2.5,1.6s2.4,2.8,2.4,2.8h3.4l4.4,1.2l-6.2,1.8l2.6,3v-2.2l4.9-1.2c5.9,2.5,7.2-0.2,7.2-0.2
			l3.7-1.3l-3.9,4.7c-4.4,0-6.2,3.7-6.2,3.7l-0.5,2.4l3.6,11.5l-7.2,1.6l1.6,3.6l12.1-2.3l-2.6,8.6l5.6,1.6l9.9-7.2
			c12.5,21.6,24.3,5.3,24.3,5.3c4,4.1,5.8,0.9,5.8,0.9s1.5,0.3,3.2,1.3c1.7,0.9,2.9-1.6,2.9-1.6c17.3,14.1,24.6-2.5,24.6-2.5l2-2.7
			l1.3-4.2l3.7-1.3l4.7,4.7l3.9,3.5l2.2-0.8l0.8-3.7c0,0,5.2,3.4,6.4-1c1.2-4.4-3.7-4.2-3.7-4.2l-1,1.9l-2.9-4.4
			c0.8-2.4-1.9-5.4-1.9-5.4s4.5,4.7,5,1.3c0.5-3.4-1.7-7.2-1.7-7.2l1-2.2l-2.5-3c0,0-3.9-6.4-0.8-4.8c3,1.6,9.1,1.3,9.1,1.3l7.6-1.3
			l1-4.6C332,88,330.7,85.8,329.3,86.2z"/>
		<path class="st42" d="M266.7,126.3c-14.4-10.4-7.3-18.3-7.3-18.3c0-5.5-6.6-12.5-6.6-12.5c-2.7-7.6,3.5-11.9,3.5-11.9l3.3,5.9
			l7.1-7.9h0.4l7.1,7.9l3.3-5.9c0,0,6.2,4.4,3.5,11.9c0,0-6.6,7-6.6,12.5c0,0,7.1,8-7.3,18.3L266.7,126.3z"/>
	</g>
	<path class="st25" d="M338,181.1v-7.8l0.3-8.1l4.2-5.7l1.6-8.1v-6.2l-0.7-3.4l-1.9-3.8h-4.5l-1.4,2.8l1.7,2.9l3.3-0.8l1.1,5.2
		l-4.8,0.9l-3.3,0.9l-1.1-3.6c0,0-1.1-1.4-3.3-1.6c-2.3-0.2-2.1,3-2.1,3v4l-1.7,2.3l-3.7,1.4l-1.6,3.9v4.9l2,8.4v6.6l0.8,5.4
		l-1.8,3.1v6.3h19.8l0-6l-1.1-2.6l-1.5-1.8L338,181.1z"/>
	<path class="st25" d="M146,181.1v-7.8l0.3-8.1l4.2-5.7l1.6-8.1v-6.2l-0.7-3.4l-1.9-3.8h-4.5l-1.4,2.8l1.7,2.9l3.3-0.8l1.1,5.2
		l-4.8,0.9l-3.3,0.9l-1.1-3.6c0,0-1.1-1.4-3.3-1.6c-2.3-0.2-2.1,3-2.1,3v4l-1.7,2.3l-3.7,1.4l-1.6,3.9v4.9l2,8.4v6.6l0.8,5.4
		l-1.8,3.1v6.3h19.8l0-6l-1.1-2.6l-1.5-1.8L146,181.1z"/>
	<path class="st25" d="M198,181.1v-7.8l-0.3-8.1l-4.2-5.7l-1.6-8.1v-6.2l0.7-3.4l1.9-3.8h4.5l1.4,2.8l-1.7,2.9l-3.3-0.8l-1.1,5.2
		l4.8,0.9l3.3,0.9l1.1-3.6c0,0,1.1-1.4,3.3-1.6c2.3-0.2,2.1,3,2.1,3v4l1.7,2.3l3.7,1.4l1.6,3.9v4.9l-2,8.4v6.6l-0.8,5.4l1.8,3.1v6.3
		h-19.8l0-6l1.1-2.6l1.5-1.8L198,181.1z"/>
	<path class="st25" d="M388,181.1v-7.8l-0.3-8.1l-4.2-5.7l-1.6-8.1v-6.2l0.7-3.4l1.9-3.8h4.5l1.4,2.8l-1.7,2.9l-3.3-0.8l-1.1,5.2
		l4.8,0.9l3.3,0.9l1.1-3.6c0,0,1.1-1.4,3.3-1.6c2.3-0.2,2.1,3,2.1,3v4l1.7,2.3l3.7,1.4l1.6,3.9v4.9l-2,8.4v6.6l-0.8,5.4l1.8,3.1v6.3
		h-19.8l0-6l1.1-2.6l1.5-1.8L388,181.1z"/>
	<path class="st43" d="M157.8,394.5l1-4.8l3.7-1.7c0,0,3.1-6.5,0.9-11.7c-2.2-5.2-5.7-6.9-5.7-6.9h-2.2v-4.3l2-2.6l2.3-1l1.1-5.5
		l1.4-4.4l2.3-1.8v-4.4l2.5-2l3.5-2.8v-5l-0.4-2c0,0,0.8-3.1,2.5-3.6c1.7-0.5,5.7,1.1,5.7,1.1s0.9,2.7,0.4,4c-0.5,1.3-2.2,3-2.2,3
		v2.7l2.5,0.3l1.5,2.7l2.7,3.9l1.4,1.7l1.1,4.4c0,0,3.6,3.5,0,9.9l-1.4,1.7c0,0,1.2,9.4-0.9,13.9c0,0,4.6-1,3.9,6.5l-0.8,3.3
		l-0.9,5.5H157.8z"/>
	<path class="st43" d="M379.8,334.3l0.6,3.9l1.1,6l-0.8,7.1c0,0-2.4,5.3-4.7,6c-2.3,0.7-3.5,4.8-3.5,4.8v4.8l2.3,5.9l0,6.8l0.8,6.5
		l1.1,4.1l1.8,1l-0.4,3.4h-27.4l-0.1-0.9l-2.2-3.4v-5.4l5-3.4v-5.9l-4-5.1v-4.9l-0.8-6.2l-1.7-3.4c0,0,3-7.7,7.1-10.3
		c0,0,3.4-8.6,9.4-7.1v-3l-2.1-4.3c0,0,0.2-3,2.4-3.4c2.2-0.4,5.7,0,5.7,0s1.2,2.5,1.2,4.6s-2.1,2.9-2.1,2.9v3.5l4.6,0.4l1.5,4.5
		l2.5,3.8l1.5-5.9v-2.8l1.6-4.6l2.1-6.5"/>
	<rect x="122.7" y="394.5" class="st44" width="286" height="60.5"/>
	<polygon class="st45" points="224,394 224,312.8 220.7,304 236,304 232,312.8 232,394 	"/>
	<polygon class="st45" points="301,395 301,312.8 297.7,304 313,304 309,312.9 309,395 	"/>
	<g>
		<path class="st46" d="M522.8,455C522.8,455,522.8,455,522.8,455c-0.1,0.3-0.2,0.6-0.2,0.9c-0.5,1.9-1,3.8-1.6,5.7
			c-0.4,1.1-0.8,2.3-1.2,3.4c0,0,0,0,0,0.1c-0.2,0.6-0.5,1.2-0.7,1.9c-0.2,0.5-0.4,1-0.6,1.4c-6.4,15.4-16.7,28.8-29.8,38.8
			c-0.4,0.3-0.9,0.5-1.3,0.8c-0.1,0.1-0.2,0.1-0.3,0.1h0c0,0,0,0.2-0.1,0.2c-8.2,5.9-17.3,10.6-27.2,13.6c-1.1,0.3-2.1,0.7-3.2,1
			c-1.1,0.3-2.2,0.6-3.3,0.8c0,0,0,0,0,0c0,0,0,0,0,0c-2.2,0.5-4.4,0.9-6.6,1.2l0,0c-0.1,0-0.1,0-0.2,0c-4.6,0.7-9.4,1-14.2,1H99.4
			c-0.5,0-1.1,0-1.6,0c-7.9-0.1-15.7-1.2-23-3.2c-4.8-1.3-9.5-3-14-5c-5.3-2.4-10.3-5.2-15-8.5c-2.8-2-5.5-4-8.1-6.3
			c0,0-0.1-0.1-0.1-0.1c-2.1-1.8-4-3.6-5.9-5.6c-4.9-5.1-9.4-10.7-13-16.8c-4.7-7.8-8.4-16.3-10.7-25.4c0,0,0-0.1,0-0.1H522.8z"/>
		<path class="st47" d="M78.1,501.7c0,0,32.4,2.3,59.8-8.5c27.4-10.8,52.1-5.9,52.1-5.9s93.8,22.6,156.7,0
			c62.9-22.6,58.8,6.7,58.8,6.7s35.8,10.9,59.5,6c23.6-4.9-33.4-75-33.4-75L356,435.7l-83-38L171.7,443l-79,6.8L78.1,501.7z"/>
		<path class="st48" d="M524.1,448.2c0,0.2-0.1,0.4-0.1,0.6c-0.1,0.8-0.3,1.7-0.4,2.5c-0.2,1.2-0.5,2.3-0.7,3.5c0,0,0,0.1,0,0.1
			c-0.1,0.3-0.1,0.6-0.2,0.8c-0.5,1.9-1,3.9-1.6,5.8c-0.4,1.1-0.8,2.3-1.2,3.4c0,0,0,0,0,0.1c-0.2,0.6-0.5,1.2-0.7,1.9
			c-0.2,0.5-0.4,1-0.6,1.4c-5.4,13.1-13.7,24.7-24,34L465,500c0,0-47.6-55-76.9-47.5c0,0,19,22.9,17.4,41.4c0,0-26.5,1.6-38.7-7.5
			l-20.1,0.8l-8.3-47.4c0,0-7.5-15.8-35.5-7.9c0,0,4.7-17.4-9.9-15.8c0,0-21.7-20.5-44.6-0.4c0,0-12.6-3.1-11.8,14.2
			c0,0-33.2-1.6-36.7,12.2c-3.6,13.8-9.9,45-9.9,45s-29.2,7.1-52.1,5.9C115,492,153.7,451,153.7,451s-44.6-1.1-75.6,50.8
			c0,0-16.9,2-37.5,3.7c-1-0.8-2-1.6-3-2.5c0,0-0.1-0.1-0.1-0.1c-2.1-1.8-4-3.6-5.9-5.6c-4.9-5.1-9.4-10.7-13-16.8
			c-4.7-7.8-8.4-16.4-10.7-25.5c0,0,0-0.1,0-0.1c-0.4-1.6-0.8-3.3-1.1-5c6.4-1.6,14.5-2.7,24.5-2.7c0,0,1.8-13.8,25.6-16.5l9.1-15
			c0,0,6.7,2.8,24.1-3.6l13.5,5.5V410l25.7-2.6l10.7,2.1h8.1l56.7,5l13.5-17h13.3V374c0,0,0.7-16.1,19.1-19.3
			c18.4-3.2,23.2-2.7,23.2-2.7s31.3,0,30.8,37.3l8.1,22.2l30.3,6l28.7,7c0,0,5.9-13.5,28.1-16.2c22.2-2.7,35.1,5.9,35.1,5.9
			s11.3-4.9,22.2,2.7c0,0,15.7-2.3,22.7,13.2l4.2,6.3c0,0,18.5-2.7,20,12.7C504,449.1,512.9,447.4,524.1,448.2z"/>
		<path class="st49" d="M274.9,385.5h-10.5l-18.5,1.7c0,0,14-19.3,12.7-25.7c0,0-8.7-1.9-8.3-13.3l-3-4.3l-1.3-5.2l5.7-10.8l6.3-6.2
			l4.6-3.2v-5.1c0,0,4.9-7.5,8.6,0l-0.6,9.7l4.5,4.8l3.5,10.8v5.6l2.4,8.4l4.3,7.5l-3.3,7.3l1.3,8l2,2.8l5,1l-2.5,1.5l-3.2,0.1
			l-2.8,1.4l-1.7-4.7l-2.4-5c0,0-0.1,6.5-0.7,7.7C276.4,381.6,274.9,385.5,274.9,385.5z"/>
		<path class="st49" d="M230.7,387.8c-0.9,0.9-1.9-4.7-1.9-4.7s-2.8,1.4,0,5.7s0,3.4,0,3.4l-3.7-2.2l-5.6-0.2V387v-5.9l-8.6-0.7
			l-1.6,6l-5.1-0.4l-6.3-1.1l-6.7-3.7l-7.1-3.7l2.6-5.1l-1-3.8H180l-10.1,6.9l-0.4,7.5l-4.8,9.2l-7.1,4.8l-6.3-1.9l-9.3,5.5
			l-2.7,9.1h5.3c1.5-6,7-9.1,7-9.1l5,2.1l-5,10h5.3l3-6.1l4,2.1h5.3l3.5,9h8.2h4.8h20.4l5.2-4.4c0,0-1.3-2.4-1.4-5.3
			c-0.1-2.9,1.2-3.7,1.2-3.7l3.1-4.3l6.1-2.8l3.6-0.5h5.4l3.8-2.2C235.8,394.3,231.7,386.9,230.7,387.8z M199.9,395.5
			c0,0-3.7,3.3-7.7,2c0,0-11.8-1.4-11.4-13.9l2.8-1.8l11.3,6.5l6.7,1.4L199.9,395.5z"/>
		<path class="st49" d="M384.9,409.2l-3.1-7.6l-2.2-5l1.4-2.5l3.1-2.4l-0.8-3.9l-4.3-2.1l-7.2,3.2l-6.3,0.3l-4.8-1.1l-4.4-4.3
			l-6-8.3l-4.7,0.7l-8,0.6l-5.4,7.2l-6,10.5l-5.1,1.6l-5.6,5.9l-2.4,10.3l8.9,1.1l2.9-3.7l2.9,0.7l-0.6,2.7l2.6,9.5l5-1.2l-1.8-7.1
			l0.7-4.1l2.9,3.5l2.2-4.6l1.3,1.9l-0.9,4.1l0.6,5.3l2.9,0.7l1.5-2.3l-0.7-8.9l4.5,3.1l5.5,0l1.4,5.1l0.5,2.7l6.8,1.3l0.8-3.3
			l1.4,3.7l7.4,1.4l-1.3-11.3c0,0,5.5-8.9,4.7-5.6c-0.8,3.3,7.3,7.5,7.3,7.5l2.7-0.5L384.9,409.2z M360.9,402.3l-4.5,4.2l-1.9-1.4
			l-6.4-1.5l-6.3-3.1l-3.1-5.9l3.4-0.5l3.5-1l-0.6-3.7l1.3-5.8l3.9,0.7l5.9,7.8l8.2,1.9L360.9,402.3z"/>
	</g>
	<rect x="42.9" y="196" class="st50" width="14" height="14"/>
	<rect x="96.9" y="196" class="st50" width="14" height="14"/>
	<rect x="419.6" y="195.5" class="st50" width="14" height="14"/>
	<rect x="473.6" y="195.5" class="st50" width="14" height="14"/>
</g>
</svg>
