<?xml version="1.0" encoding="utf-8"?>
<!-- Generator: Adobe Illustrator 21.0.2, SVG Export Plug-In . SVG Version: 6.00 Build 0)  -->
<svg version="1.1" id="Layer_1" xmlns="http://www.w3.org/2000/svg" xmlns:xlink="http://www.w3.org/1999/xlink" x="0px" y="0px"
	 viewBox="0 0 1024 599.1" style="enable-background:new 0 0 1024 599.1;" xml:space="preserve">
<style type="text/css">
	.st0{fill:#DFE1E0;}
	.st1{fill:none;stroke:#673D6D;stroke-width:1.6947;stroke-miterlimit:10;}
	.st2{fill:none;stroke:#673D6D;stroke-width:4;stroke-miterlimit:10;}
	.st3{opacity:0.3;fill:#673D6D;enable-background:new    ;}
	.st4{fill:#DFE1E0;stroke:#673D6D;stroke-width:4;stroke-miterlimit:10;}
	.st5{fill:#FFFFFF;stroke:#673D6D;stroke-width:2;stroke-miterlimit:10;}
	.st6{fill:#FFC408;}
	.st7{opacity:0.4;fill:#673D6D;enable-background:new    ;}
	.st8{fill:none;stroke:#673D6D;stroke-width:1.204;stroke-miterlimit:10;}
	.st9{fill:none;stroke:#673D6D;stroke-width:1.2243;stroke-miterlimit:10;}
	.st10{fill:#D2B28C;stroke:#673D6D;stroke-width:2.2688;stroke-miterlimit:10;}
	.st11{opacity:0.5;fill:#673D6D;enable-background:new    ;}
	.st12{fill:#A7ABD0;stroke:#673D6D;stroke-width:2.2688;stroke-miterlimit:10;}
	.st13{fill:none;stroke:#673D6D;stroke-miterlimit:10;}
	.st14{fill:#77C9F7;stroke:#673D6D;stroke-width:3;stroke-miterlimit:10;}
	.st15{opacity:0.2;fill:#673D6D;enable-background:new    ;}
	.st16{fill:#FFACD7;}
	.st17{fill:#FFFFFF;}
	.st18{fill:#FFFEFF;}
	.st19{fill:none;stroke:#673D6D;stroke-width:3;stroke-miterlimit:10;}
	.st20{fill:none;stroke:#673D6D;stroke-width:2.6931;stroke-miterlimit:10;}
	.st21{fill:#673D6D;}
	.st22{fill:none;stroke:#673D6D;stroke-width:2.4223;stroke-miterlimit:10;}
	.st23{fill:#FFFFFF;stroke:#673D6D;stroke-width:1.729;stroke-miterlimit:10;}
	.st24{fill:none;stroke:#673D6D;stroke-width:0.8645;stroke-miterlimit:10;}
	.st25{fill:#CECFD1;stroke:#673D6D;stroke-width:1.3787;stroke-miterlimit:10;}
	.st26{fill:#F9A9C0;stroke:#673D6D;stroke-width:1.3788;stroke-miterlimit:10;}
</style>
<g>
	<rect x="281" y="572.8" class="st0" width="223.7" height="26.3"/>
	<rect x="504.6" y="572.8" class="st0" width="235.9" height="26.3"/>
	<line class="st1" x1="281" y1="572.6" x2="281" y2="599.1"/>
	<line class="st2" x1="504.6" y1="572.8" x2="504.6" y2="599.1"/>
	<line class="st1" x1="740.5" y1="572.8" x2="740.5" y2="599.1"/>
	<rect x="44.9" y="572.8" class="st0" width="235.9" height="26.3"/>
	<rect x="740.5" y="572.8" class="st0" width="235.9" height="26.3"/>
	<rect x="44.9" y="574.6" class="st3" width="931.5" height="6"/>
	<line class="st2" x1="740.5" y1="572.8" x2="740.5" y2="599.1"/>
	<line class="st2" x1="281" y1="572.8" x2="281" y2="599.1"/>
	<rect x="22.7" y="562.4" class="st4" width="975.9" height="12.2"/>
</g>
<g>
	<g>
		<g>
			<polygon class="st5" points="50.2,523.7 45.9,504.3 49,491.3 55.9,501.9 60.2,523.7 61.8,534.1 55.2,536 			"/>
			<polygon class="st6" points="46.6,504.3 55.2,502.3 59.5,524.1 61,533.4 55.7,535 51,523.4 			"/>
			<polygon class="st7" points="48.2,497.9 51.8,497.1 49.3,493.2 			"/>
			<path class="st8" d="M50.5,512.6L50.5,512.6c-0.1,0-0.2,0-0.3-0.2l-1.9-8.4c0-0.1,0-0.3,0.2-0.3l0,0c0.1,0,0.2,0,0.3,0.2l1.9,8.4
				C50.7,512.5,50.6,512.6,50.5,512.6z"/>
			<path class="st9" d="M54.7,530.5L54.7,530.5c-0.1,0-0.1,0-0.2-0.1L51,514.8c0-0.1,0-0.2,0.1-0.2l0,0c0.1,0,0.1,0,0.2,0.1
				l3.5,15.6C54.8,530.4,54.7,530.5,54.7,530.5z"/>
		</g>
		<g>
			<g>
				<polygon class="st10" points="89.3,506.5 73.9,533.6 68.1,530.7 84.9,503 				"/>
				<polygon class="st11" points="82,509.6 84.9,511.8 87.8,506.8 85.2,504.7 				"/>
			</g>
			<path class="st12" d="M94.1,504.4c-1.6,2.5-4.8,3.3-7.4,1.7c-2.5-1.6-3.3-4.8-1.7-7.4c1.6-2.5,10.9-7.5,10.9-7.5
				S95.6,501.8,94.1,504.4z"/>
		</g>
		<g>
			<path class="st10" d="M73.3,525.6H62.5c-0.8,0-1.5-0.7-1.5-1.5v-37.6c0-0.8,0.7-1.5,1.5-1.5h10.8c0.8,0,1.5,0.7,1.5,1.5v37.6
				C74.7,525,74.1,525.6,73.3,525.6z"/>
			<line class="st13" x1="60.5" y1="493.3" x2="68.5" y2="493.3"/>
			<line class="st13" x1="60.5" y1="497.3" x2="66.5" y2="497.3"/>
			<line class="st13" x1="60.5" y1="501.3" x2="68.5" y2="501.3"/>
			<line class="st13" x1="60.5" y1="505.3" x2="66.5" y2="505.3"/>
			<line class="st13" x1="60.5" y1="510.3" x2="68.5" y2="510.3"/>
			<line class="st13" x1="60.5" y1="516.3" x2="66.5" y2="516.3"/>
		</g>
		<g>
			<path class="st14" d="M86.4,529.4H47c-1.1,0-2.1-0.9-2.1-2.1v-5.7c0-1.1,0.9-2.1,2.1-2.1h39.4c1.1,0,2.1,0.9,2.1,2.1v5.7
				C88.4,528.5,87.5,529.4,86.4,529.4z"/>
			<g>
				<path class="st14" d="M55.8,562.4h20.7c3.7,0,6.7-3,6.7-6.7v-26.3h-33v27.3C50.2,559.9,52.7,562.4,55.8,562.4z"/>
				<rect x="51.5" y="530.8" class="st15" width="30.5" height="4.4"/>
			</g>
		</g>
	</g>
</g>
<g>
	<g>
		<rect x="914.6" y="546.7" class="st16" width="53.9" height="15.8"/>
		<g>
			<path class="st17" d="M922.4,546.4c0,0,4.2,4.3,0.7,15.3h-4.7c3.5-11-0.7-15.2-0.7-15.2L922.4,546.4z"/>
			<path class="st17" d="M962.8,546.4c0,0,4.2,4.3,0.7,15.3h-4.7c3.5-11-0.7-15.2-0.7-15.2L962.8,546.4z"/>
		</g>
		<g>
			<g>
				<rect x="871.9" y="546.4" class="st18" width="43" height="16.2"/>
				<path class="st19" d="M869.4,546.2h98.3c0,0,4.4,8.6,0,16.1l-98.3,0.1C869.4,562.4,875.8,553.2,869.4,546.2z"/>
			</g>
			<path class="st20" d="M912.4,546.4c0,0,4.7,7.7,0,16.1"/>
		</g>
		<path class="st21" d="M905.6,550H888c-0.2,0-0.3,0.1-0.3,0.3v0.4c0,0.2,0.1,0.3,0.3,0.3h17.6c0.2,0,0.3-0.1,0.3-0.3v-0.4
			C905.9,550.2,905.7,550,905.6,550z"/>
		<path class="st21" d="M884.2,550h-7.1c-0.1,0-0.2,0.1-0.2,0.2v0.6c0,0.1,0.1,0.2,0.2,0.2h7.1c0.1,0,0.2-0.1,0.2-0.2v-0.6
			C884.4,550.1,884.3,550,884.2,550z"/>
		<path class="st3" d="M901.1,546.6c0,0,9.7,4.1,7.4,15.1h5.3l0.7-6.4l-1-5.4l-1-2.3l-2.3-1.4L901.1,546.6z"/>
	</g>
	<g>
		<rect x="918.3" y="529.8" class="st6" width="43.6" height="15.8"/>
		<g>
			<path class="st17" d="M924.7,529.5c0,0,3.4,5.2,0.6,15.2h-3.8c2.8-10-0.6-15.1-0.6-15.1L924.7,529.5z"/>
			<path class="st17" d="M957.4,529.5c0,0,3.4,5.2,0.6,15.2h-3.8c2.8-10-0.6-15.1-0.6-15.1L957.4,529.5z"/>
		</g>
		<g>
			<g>
				<rect x="883.8" y="529.5" class="st18" width="34.8" height="16.2"/>
				<path class="st19" d="M881.8,529.2h79.5c0,0,3.5,8.7,0,16.2l-79.5,0.1C881.8,545.4,887,536.2,881.8,529.2z"/>
			</g>
			<path class="st22" d="M916.6,529.5c0,0,3.8,7.7,0,16.1"/>
		</g>
		<path class="st21" d="M911,533.2h-14.2c-0.2,0-0.3,0.1-0.3,0.3v0.5c0,0.2,0.1,0.3,0.3,0.3H911c0.2,0,0.3-0.1,0.3-0.3v-0.5
			C911.3,533.3,911.2,533.2,911,533.2z"/>
		<path class="st21" d="M893.7,533.2H888c-0.1,0-0.2,0.1-0.2,0.2v0.7c0,0.1,0.1,0.2,0.2,0.2h5.7c0.1,0,0.2-0.1,0.2-0.2v-0.7
			C893.9,533.3,893.8,533.2,893.7,533.2z"/>
		<path class="st3" d="M907.4,529.7c0,0,7.8,5,6,15h4.3l0.6-6.3l-0.8-5.3l-0.8-2.3l-1.9-1.4L907.4,529.7z"/>
	</g>
</g>
<g>
	<polygon class="st23" points="134.5,560.1 110.8,560 95.9,555.1 109.5,551.5 136.1,551.2 149.6,551.1 149.9,560 	"/>
	<polygon class="st6" points="111,559.2 109.7,552.3 136.5,551.9 148.8,551.9 149,559.2 134.3,559.4 	"/>
	<polygon class="st7" points="103.6,556.9 103.2,553.9 98.2,555.2 	"/>
	<path class="st24" d="M121.4,557.8L121.4,557.8c0,0.1,0,0.2-0.3,0.2h-10.3c-0.1,0-0.4-0.1-0.3-0.2l0,0c0-0.1,0-0.2,0.3-0.2h10.3
		C121.3,557.6,121.4,557.7,121.4,557.8z"/>
	<path class="st24" d="M143.3,557.8L143.3,557.8c0,0.1,0,0.1-0.2,0.1l-19.1-0.1c-0.1,0-0.2,0-0.2-0.1l0,0c0-0.1,0-0.1,0.2-0.1
		l19.1,0.1C143.2,557.7,143.3,557.8,143.3,557.8z"/>
	<rect x="149.6" y="550.9" class="st25" width="3.1" height="9.3"/>
	<path class="st26" d="M154.2,560.2h-1.5v-9.3h1.5c2,0,3.6,1.6,3.6,3.6v2.2C157.7,558.6,156.1,560.2,154.2,560.2z"/>
</g>
</svg>
