<?xml version="1.0" encoding="utf-8"?>
<!-- Generator: Adobe Illustrator 20.1.0, SVG Export Plug-In . SVG Version: 6.00 Build 0)  -->
<svg version="1.1" id="Layer_1" xmlns="http://www.w3.org/2000/svg" xmlns:xlink="http://www.w3.org/1999/xlink" x="0px" y="0px"
	 viewBox="0 0 1024 599.1" style="enable-background:new 0 0 1024 599.1;" xml:space="preserve">
<style type="text/css">
	.st0{fill:#ED1462;}
	.st1{fill:#EAF6F7;}
	.st2{fill:none;stroke:#673D6D;stroke-width:3;stroke-miterlimit:10;}
	.st3{fill:none;stroke:#673D6D;stroke-width:3.0175;stroke-miterlimit:10;}
	.st4{fill:#673D6D;}
	.st5{fill:#14ED9F;}
	.st6{fill:#F78F1F;}
	.st7{fill:#FFFFF0;stroke:#673D6D;stroke-width:3.5339;stroke-miterlimit:10;}
	.st8{fill:#BFD7F1;stroke:#673D6D;stroke-width:2.8146;stroke-miterlimit:10;}
	.st9{fill:#F9A9C0;stroke:#673D6D;stroke-width:2.8146;stroke-miterlimit:10;}
	.st10{fill:#FFDDA6;stroke:#673D6D;stroke-width:2.8146;stroke-miterlimit:10;}
	.st11{fill:#FBF8A2;stroke:#673D6D;stroke-width:2.8146;stroke-miterlimit:10;}
	.st12{fill:#D3EBD7;stroke:#673D6D;stroke-width:2.8146;stroke-miterlimit:10;}
	.st13{fill:#90D9F7;stroke:#673D6D;stroke-width:2.8146;stroke-miterlimit:10;}
	.st14{fill:none;stroke:#673D6D;stroke-width:2.8146;stroke-miterlimit:10;}
	.st15{fill:#E7DAD4;stroke:#673D6D;stroke-width:2.8146;stroke-miterlimit:10;}
	.st16{fill:#F5DCD3;stroke:#673D6D;stroke-width:2.8146;stroke-miterlimit:10;}
	.st17{fill:#DFE1E0;}
	.st18{fill:none;stroke:#673D6D;stroke-width:4.8478;stroke-miterlimit:10;}
	.st19{fill:none;stroke:#673D6D;stroke-width:4.0478;stroke-miterlimit:10;}
	.st20{opacity:0.3;fill:#673D6D;enable-background:new    ;}
	.st21{fill:#CECFD1;stroke:#673D6D;stroke-width:3.5048;stroke-miterlimit:10;}
	.st22{fill:#DFE1E0;stroke:#673D6D;stroke-width:4.0478;stroke-miterlimit:10;}
	.st23{fill:none;stroke:#673D6D;stroke-width:3.6022;stroke-miterlimit:10;}
	.st24{fill:#D2B28C;stroke:#673D6D;stroke-width:3.6022;stroke-miterlimit:10;}
	.st25{fill:#CECFD1;stroke:#673D6D;stroke-width:3.2677;stroke-miterlimit:10;}
	.st26{fill:#999A9B;stroke:#673D6D;stroke-width:3.2677;stroke-miterlimit:10;}
	.st27{fill:#D2B28C;stroke:#673D6D;stroke-width:3.2677;stroke-miterlimit:10;}
	.st28{fill:#EAF6F7;stroke:#673D6D;stroke-width:3.2677;stroke-miterlimit:10;}
	.st29{fill:#CECFD1;stroke:#673D6D;stroke-width:3;stroke-miterlimit:10;}
	.st30{fill:#FFFFD7;stroke:#673D6D;stroke-width:1.9299;stroke-miterlimit:10;}
	.st31{fill:none;stroke:#000000;stroke-width:0.3216;stroke-miterlimit:10;}
	.st32{fill:none;stroke:#000000;stroke-width:0.4825;stroke-miterlimit:10;}
	.st33{fill:none;stroke:#000000;stroke-width:0.4371;stroke-miterlimit:10;}
	.st34{fill:#FFFFD7;stroke:#673D6D;stroke-width:2.1448;stroke-miterlimit:10;}
	.st35{fill:#FFFFFF;stroke:#673D6D;stroke-width:2;stroke-miterlimit:10;}
	.st36{fill:#FFC408;}
	.st37{opacity:0.4;fill:#673D6D;enable-background:new    ;}
	.st38{fill:none;stroke:#673D6D;stroke-width:1.204;stroke-miterlimit:10;}
	.st39{fill:none;stroke:#673D6D;stroke-width:1.2243;stroke-miterlimit:10;}
	.st40{fill:#D2B28C;stroke:#673D6D;stroke-width:2.2688;stroke-miterlimit:10;}
	.st41{opacity:0.5;fill:#673D6D;enable-background:new    ;}
	.st42{fill:#A7ABD0;stroke:#673D6D;stroke-width:2.2688;stroke-miterlimit:10;}
	.st43{fill:none;stroke:#673D6D;stroke-miterlimit:10;}
	.st44{fill:#77C9F7;stroke:#673D6D;stroke-width:3;stroke-miterlimit:10;}
	.st45{opacity:0.2;fill:#673D6D;enable-background:new    ;}
	.st46{enable-background:new    ;}
	.st47{fill:#E6FFFF;stroke:#673D6D;stroke-width:1.4754;stroke-miterlimit:10;}
	.st48{fill:#FFFFD7;stroke:#673D6D;stroke-width:3.1257;stroke-miterlimit:10;}
	.st49{fill:#E6FFFF;stroke:#673D6D;stroke-width:2.0838;stroke-miterlimit:10;}
	.st50{fill:none;}
	.st51{fill:none;stroke:#000000;stroke-width:0.7814;stroke-miterlimit:10;}
	.st52{fill:none;stroke:#000000;stroke-width:0.8485;stroke-miterlimit:10;}
	.st53{fill:#FFFFFF;stroke:#673D6D;stroke-width:1.729;stroke-miterlimit:10;}
	.st54{fill:none;stroke:#673D6D;stroke-width:0.8645;stroke-miterlimit:10;}
	.st55{fill:#CECFD1;stroke:#673D6D;stroke-width:1.3787;stroke-miterlimit:10;}
	.st56{fill:#F9A9C0;stroke:#673D6D;stroke-width:1.3788;stroke-miterlimit:10;}
	.st57{fill:#FFACD7;}
	.st58{fill:#FFFFFF;}
	.st59{fill:#FFFEFF;}
	.st60{fill:none;stroke:#673D6D;stroke-width:2.6931;stroke-miterlimit:10;}
	.st61{opacity:0.3;fill:#673D6D;}
	.st62{fill:none;stroke:#673D6D;stroke-width:2.4223;stroke-miterlimit:10;}
</style>
<g>
	<g>
		<g>
			<g>
				<g>
					<polygon class="st0" points="117.4,360.7 104.9,383.1 103.4,387.6 103.8,390.6 106.4,392.7 163.2,392.7 166.5,389.5 
						166.5,385.5 150.4,360.7 					"/>
					<g>
						<polygon class="st1" points="117.3,364.7 152.3,364.7 141.5,347.1 141.5,321.5 143.6,320.6 147.7,317.8 146.6,315.4 
							142.8,314 123.4,314.5 121.7,315.5 120.8,317.2 121.9,319.7 124.1,321.2 126.7,321.2 126.4,326.1 126.7,347.7 						"/>
						<g>
							<path class="st2" d="M127,321.2v26.5l-22.1,36.5c0,0-4.9,9.1,1.8,9.1s55.2,0,55.2,0s6.7-1,2.2-9.2l-22.1-37v-25.9H127z"/>
							<path class="st3" d="M144.4,321.2h-20.3c-1.8,0-3.3-1.5-3.3-3.3l0,0c0-1.8,1.5-3.3,3.3-3.3h20.3c1.8,0,3.3,1.5,3.3,3.3l0,0
								C147.7,319.7,146.2,321.2,144.4,321.2z"/>
						</g>
					</g>
				</g>
				<g>
					<circle class="st0" cx="132.4" cy="349.2" r="3.2"/>
					<circle class="st0" cx="137.2" cy="339.3" r="2.1"/>
					<circle class="st0" cx="132.5" cy="331.2" r="1.6"/>
				</g>
			</g>
			<path class="st4" d="M143.4,389h-32.2c-0.4,0-0.7-0.3-0.7-0.7l0,0c0-0.4,0.3-0.7,0.7-0.7h32.2c0.4,0,0.7,0.3,0.7,0.7l0,0
				C144.1,388.6,143.8,389,143.4,389z"/>
			<path class="st4" d="M156.6,389h-8.4c-0.4,0-0.7-0.3-0.7-0.7l0,0c0-0.4,0.3-0.7,0.7-0.7h8.4c0.4,0,0.7,0.3,0.7,0.7l0,0
				C157.3,388.6,157,389,156.6,389z"/>
		</g>
	</g>
	<g>
		<g>
			<g>
				<g>
					<polygon class="st5" points="53.4,365.7 40.9,384 39.4,388.4 39.8,391.6 42.5,393.7 99.2,393.7 102.5,390.3 102.5,386.3 
						88.4,365.7 					"/>
					<g>
						<polygon class="st1" points="53.4,365.7 88.4,365.7 77.5,347.9 77.5,322.3 79.6,321.4 83.7,318.6 82.6,316.2 78.9,314.8 
							59.5,315.3 57.7,316.3 56.8,317.9 57.9,320.4 60.1,322 62.7,322 62.4,326.9 62.7,348.6 						"/>
						<g>
							<path class="st2" d="M63,322.2v26.3l-22.1,36c0,0-4.8,8.7,1.8,8.7c6.7,0,55.2,0,55.2,0s6.2-0.6,1.7-8.8L77,347.8v-25.6
								L63,322.2L63,322.2z"/>
							<path class="st3" d="M80.4,322H60.1c-1.8,0-3.3-1.5-3.3-3.3l0,0c0-1.8,1.5-3.3,3.3-3.3h20.3c1.8,0,3.3,1.5,3.3,3.3l0,0
								C83.7,320.5,82.2,322,80.4,322z"/>
						</g>
					</g>
				</g>
				<g>
					<circle class="st5" cx="68" cy="355.4" r="3.2"/>
					<circle class="st5" cx="72.3" cy="343.5" r="2.1"/>
					<circle class="st5" cx="67.5" cy="334.5" r="1.6"/>
				</g>
			</g>
			<path class="st4" d="M79.5,389.7H47.3c-0.4,0-0.7-0.3-0.7-0.7l0,0c0-0.4,0.3-0.7,0.7-0.7h32.2c0.4,0,0.7,0.3,0.7,0.7l0,0
				C80.2,389.4,79.9,389.7,79.5,389.7z"/>
			<path class="st4" d="M92.6,389.7h-8.4c-0.4,0-0.7-0.3-0.7-0.7l0,0c0-0.4,0.3-0.7,0.7-0.7h8.4c0.4,0,0.7,0.3,0.7,0.7l0,0
				C93.3,389.4,93,389.7,92.6,389.7z"/>
		</g>
	</g>
	<g>
		<g>
			<g>
				<g>
					<polygon class="st6" points="86,364.7 73.5,383.1 72,387.6 72.4,390.6 75.1,392.7 131.8,392.7 134.5,389.5 134.5,385.5 
						121,364.7 					"/>
					<g>
						<polygon class="st1" points="85.9,364.7 121,364.7 110.5,347.1 110.5,321.5 112.4,320.6 116.4,317.8 115.3,315.4 111.5,314 
							92.1,314.5 90.3,315.5 89.4,317.2 90.5,319.7 92.7,321.2 95.3,321.2 95,326.1 95.3,347.7 						"/>
						<g>
							<path class="st2" d="M96,321.2v26.5l-22.3,36.5c0,0-5,9.1,1.6,9.1s55.2,0,55.2,0s6.4-1,1.9-9.2l-22.4-37v-25.9H96z"/>
							<path class="st3" d="M113,321.2H92.7c-1.8,0-3.3-1.5-3.3-3.3l0,0c0-1.8,1.5-3.3,3.3-3.3H113c1.8,0,3.3,1.5,3.3,3.3l0,0
								C116.3,319.7,114.8,321.2,113,321.2z"/>
						</g>
					</g>
				</g>
				<g>
					<circle class="st6" cx="104.9" cy="352.2" r="3.2"/>
					<circle class="st6" cx="100.1" cy="345.1" r="2.1"/>
					<circle class="st6" cx="104.9" cy="339.5" r="1.6"/>
					<circle class="st6" cx="101.2" cy="334.1" r="1.6"/>
				</g>
			</g>
			<path class="st4" d="M112.1,389H79.9c-0.4,0-0.7-0.3-0.7-0.7l0,0c0-0.4,0.3-0.7,0.7-0.7h32.2c0.4,0,0.7,0.3,0.7,0.7l0,0
				C112.8,388.6,112.4,389,112.1,389z"/>
			<path class="st4" d="M125.2,389h-8.4c-0.4,0-0.7-0.3-0.7-0.7l0,0c0-0.4,0.3-0.7,0.7-0.7h8.4c0.4,0,0.7,0.3,0.7,0.7l0,0
				C125.9,388.6,125.6,389,125.2,389z"/>
		</g>
	</g>
</g>
<g>
	<rect x="210.6" y="239.1" class="st7" width="221.4" height="123.1"/>
	<g>
		<rect x="224.3" y="247.2" class="st8" width="12.1" height="12.1"/>
		<rect x="224.3" y="259.2" class="st9" width="12.1" height="12.1"/>
		<rect x="236.5" y="259.2" class="st10" width="12.1" height="12.1"/>
		<rect x="236.5" y="271.4" class="st10" width="12.1" height="12.1"/>
		<rect x="236.5" y="283.5" class="st10" width="12.1" height="12.1"/>
		<rect x="248.5" y="283.5" class="st11" width="12.1" height="12.1"/>
		<rect x="260.7" y="283.5" class="st11" width="12.1" height="12.1"/>
		<rect x="272.8" y="283.5" class="st11" width="12.1" height="12.1"/>
		<rect x="284.9" y="283.5" class="st11" width="12.1" height="12.1"/>
		<rect x="297.1" y="283.5" class="st11" width="12.1" height="12.1"/>
		<rect x="309.1" y="283.5" class="st11" width="12.1" height="12.1"/>
		<rect x="321.3" y="283.5" class="st11" width="12.1" height="12.1"/>
		<rect x="333.4" y="283.5" class="st11" width="12.1" height="12.1"/>
		<rect x="345.6" y="283.5" class="st12" width="12.1" height="12.1"/>
		<rect x="357.8" y="283.5" class="st12" width="12.1" height="12.1"/>
		<rect x="369.9" y="283.5" class="st12" width="12.1" height="12.1"/>
		<rect x="381.9" y="283.5" class="st12" width="12.1" height="12.1"/>
		<rect x="394.1" y="283.5" class="st13" width="12.1" height="12.1"/>
		<rect x="406.3" y="283.5" class="st14" width="12.1" height="12.1"/>
		<rect x="406.3" y="295.7" class="st14" width="12.1" height="12.1"/>
		<rect x="406.3" y="307.8" class="st14" width="12.1" height="12.1"/>
		<rect x="406.3" y="331.3" class="st15" width="12.1" height="12.1"/>
		<rect x="394.1" y="331.3" class="st15" width="12.1" height="12.1"/>
		<rect x="381.9" y="331.3" class="st15" width="12.1" height="12.1"/>
		<rect x="369.9" y="331.3" class="st15" width="12.1" height="12.1"/>
		<rect x="357.8" y="331.3" class="st15" width="12.1" height="12.1"/>
		<rect x="345.6" y="331.3" class="st15" width="12.1" height="12.1"/>
		<rect x="333.4" y="331.3" class="st15" width="12.1" height="12.1"/>
		<rect x="321.3" y="331.3" class="st15" width="12.1" height="12.1"/>
		<rect x="309.1" y="331.3" class="st15" width="12.1" height="12.1"/>
		<rect x="297.1" y="331.3" class="st15" width="12.1" height="12.1"/>
		<rect x="284.9" y="331.3" class="st15" width="12.1" height="12.1"/>
		<rect x="272.8" y="331.3" class="st15" width="12.1" height="12.1"/>
		<rect x="260.7" y="331.3" class="st15" width="12.1" height="12.1"/>
		<rect x="406.3" y="343.5" class="st16" width="12.1" height="12.1"/>
		<rect x="394.1" y="343.5" class="st16" width="12.1" height="12.1"/>
		<rect x="381.9" y="343.5" class="st16" width="12.1" height="12.1"/>
		<rect x="369.9" y="343.5" class="st16" width="12.1" height="12.1"/>
		<rect x="357.8" y="343.5" class="st16" width="12.1" height="12.1"/>
		<rect x="345.6" y="343.5" class="st16" width="12.1" height="12.1"/>
		<rect x="333.4" y="343.5" class="st16" width="12.1" height="12.1"/>
		<rect x="321.3" y="343.5" class="st16" width="12.1" height="12.1"/>
		<rect x="309.1" y="343.5" class="st16" width="12.1" height="12.1"/>
		<rect x="297.1" y="343.5" class="st16" width="12.1" height="12.1"/>
		<rect x="284.9" y="343.5" class="st16" width="12.1" height="12.1"/>
		<rect x="272.8" y="343.5" class="st16" width="12.1" height="12.1"/>
		<rect x="260.7" y="343.5" class="st16" width="12.1" height="12.1"/>
		<rect x="406.3" y="271.4" class="st14" width="12.1" height="12.1"/>
		<rect x="394.1" y="271.4" class="st13" width="12.1" height="12.1"/>
		<rect x="381.9" y="271.4" class="st13" width="12.1" height="12.1"/>
		<rect x="369.9" y="271.4" class="st13" width="12.1" height="12.1"/>
		<rect x="357.8" y="271.4" class="st13" width="12.1" height="12.1"/>
		<rect x="345.6" y="271.4" class="st12" width="12.1" height="12.1"/>
		<rect x="406.3" y="259.2" class="st14" width="12.1" height="12.1"/>
		<rect x="394.1" y="259.2" class="st13" width="12.1" height="12.1"/>
		<rect x="381.9" y="259.2" class="st13" width="12.1" height="12.1"/>
		<rect x="369.9" y="259.2" class="st13" width="12.1" height="12.1"/>
		<rect x="357.8" y="259.2" class="st13" width="12.1" height="12.1"/>
		<rect x="345.6" y="259.2" class="st12" width="12.1" height="12.1"/>
		<rect x="406.3" y="247.2" class="st14" width="12.1" height="12.1"/>
		<rect x="236.5" y="295.7" class="st10" width="12.1" height="12.1"/>
		<rect x="248.5" y="295.7" class="st11" width="12.1" height="12.1"/>
		<rect x="260.7" y="295.7" class="st11" width="12.1" height="12.1"/>
		<rect x="272.8" y="295.7" class="st11" width="12.1" height="12.1"/>
		<rect x="284.9" y="295.7" class="st11" width="12.1" height="12.1"/>
		<rect x="297.1" y="295.7" class="st11" width="12.1" height="12.1"/>
		<rect x="309.1" y="295.7" class="st11" width="12.1" height="12.1"/>
		<rect x="321.3" y="295.7" class="st11" width="12.1" height="12.1"/>
		<rect x="333.4" y="295.7" class="st11" width="12.1" height="12.1"/>
		<rect x="345.6" y="295.7" class="st12" width="12.1" height="12.1"/>
		<rect x="357.8" y="295.7" class="st12" width="12.1" height="12.1"/>
		<rect x="369.9" y="295.7" class="st12" width="12.1" height="12.1"/>
		<rect x="381.9" y="295.7" class="st12" width="12.1" height="12.1"/>
		<rect x="394.1" y="295.7" class="st13" width="12.1" height="12.1"/>
		<rect x="236.5" y="307.8" class="st10" width="12.1" height="12.1"/>
		<rect x="248.5" y="307.8" class="st11" width="12.1" height="12.1"/>
		<rect x="260.7" y="307.8" class="st11" width="12.1" height="12.1"/>
		<rect x="272.8" y="307.8" class="st11" width="12.1" height="12.1"/>
		<rect x="284.9" y="307.8" class="st11" width="12.1" height="12.1"/>
		<rect x="297.1" y="307.8" class="st11" width="12.1" height="12.1"/>
		<rect x="309.1" y="307.8" class="st11" width="12.1" height="12.1"/>
		<rect x="321.3" y="307.8" class="st11" width="12.1" height="12.1"/>
		<rect x="333.4" y="307.8" class="st11" width="12.1" height="12.1"/>
		<rect x="357.8" y="307.8" class="st12" width="12.1" height="12.1"/>
		<rect x="381.9" y="307.8" class="st12" width="12.1" height="12.1"/>
		<rect x="224.3" y="271.4" class="st9" width="12.1" height="12.1"/>
		<rect x="224.3" y="283.5" class="st9" width="12.1" height="12.1"/>
		<rect x="224.3" y="295.7" class="st9" width="12.1" height="12.1"/>
		<rect x="224.3" y="307.8" class="st9" width="12.1" height="12.1"/>
		<rect x="310.8" y="250.8" class="st14" width="19.9" height="19.9"/>
	</g>
</g>
<g>
	<rect x="282.3" y="407.2" class="st17" width="223.7" height="214.9"/>
	<rect x="505.9" y="407.2" class="st17" width="235.9" height="214.9"/>
	<line class="st18" x1="282.3" y1="404.9" x2="282.3" y2="622.1"/>
	<line class="st19" x1="505.9" y1="407.2" x2="505.9" y2="622.1"/>
	<line class="st18" x1="741.8" y1="407" x2="741.8" y2="622.1"/>
	<rect x="46.2" y="407.2" class="st17" width="235.9" height="214.9"/>
	<rect x="741.8" y="407.2" class="st17" width="235.9" height="214.9"/>
	<rect x="46.2" y="406.9" class="st20" width="931.5" height="6"/>
	<line class="st19" x1="741.8" y1="407.2" x2="741.8" y2="622.1"/>
	<line class="st19" x1="282.3" y1="407" x2="282.3" y2="622.1"/>
	<rect x="582.5" y="420.3" class="st21" width="89.5" height="12.8"/>
	<rect x="350.1" y="420.3" class="st21" width="89.5" height="12.8"/>
	<rect x="24" y="394.7" class="st22" width="975.9" height="12.2"/>
</g>
<g>
	<g>
		<g>
			<rect x="169.5" y="319" class="st1" width="10.6" height="61.5"/>
			<rect x="169.5" y="349.8" class="st0" width="10.6" height="30.7"/>
			<rect x="169.5" y="319" class="st23" width="10.6" height="61.5"/>
		</g>
		<g>
			<rect x="190.5" y="319" class="st1" width="10.6" height="61.5"/>
			<rect x="190.5" y="334.8" class="st5" width="10.6" height="45.8"/>
			<rect x="190.5" y="319" class="st23" width="10.6" height="61.5"/>
		</g>
		<g>
			<rect x="211.5" y="319" class="st1" width="10.6" height="61.5"/>
			<rect x="211.5" y="326.9" class="st6" width="10.6" height="53.7"/>
			<rect x="211.5" y="319" class="st23" width="10.6" height="61.5"/>
		</g>
	</g>
	<g>
		<rect x="152" y="330.7" class="st24" width="9.3" height="63.7"/>
		<rect x="230.4" y="330.7" class="st24" width="9.3" height="63.7"/>
		<rect x="152" y="344.2" class="st24" width="87.7" height="8.2"/>
		<rect x="152" y="378.5" class="st24" width="87.7" height="8.2"/>
	</g>
</g>
<g>
	<g>
		<g>
			<rect x="803.2" y="319" class="st1" width="10.6" height="61.5"/>
			<rect x="803.2" y="349.8" class="st0" width="10.6" height="30.7"/>
			<rect x="803.2" y="319" class="st23" width="10.6" height="61.5"/>
		</g>
		<g>
			<rect x="824.2" y="319" class="st1" width="10.6" height="61.5"/>
			<rect x="824.2" y="334.8" class="st5" width="10.6" height="45.8"/>
			<rect x="824.2" y="319" class="st23" width="10.6" height="61.5"/>
		</g>
		<g>
			<rect x="845.2" y="319" class="st1" width="10.6" height="61.5"/>
			<rect x="845.2" y="326.9" class="st6" width="10.6" height="53.7"/>
			<rect x="845.2" y="319" class="st23" width="10.6" height="61.5"/>
		</g>
	</g>
	<g>
		<rect x="785.7" y="330.7" class="st24" width="9.3" height="63.7"/>
		<rect x="864.1" y="330.7" class="st24" width="9.3" height="63.7"/>
		<rect x="785.7" y="344.2" class="st24" width="87.7" height="8.2"/>
		<rect x="785.7" y="378.5" class="st24" width="87.7" height="8.2"/>
	</g>
</g>
<g>
	<g>
		<g>
			<g>
				<rect x="912.2" y="237.5" class="st25" width="29.1" height="68.1"/>
				<rect x="917.2" y="305.5" class="st25" width="19" height="6.1"/>
				<rect x="918.3" y="212.9" class="st25" width="16.7" height="24.6"/>
				<path class="st26" d="M936.1,212.9h-18.9c-1.7,0-3.1-1.4-3.1-3.1l0,0c0-1.7,1.4-3.1,3.1-3.1h18.9c1.7,0,3.1,1.4,3.1,3.1l0,0
					C939.2,211.5,937.8,212.9,936.1,212.9z"/>
			</g>
			<rect x="920.5" y="237.5" class="st20" width="20.7" height="68.1"/>
		</g>
		<rect x="918.3" y="214.3" class="st20" width="16.5" height="4.1"/>
	</g>
	<g>
		<g>
			<rect x="912.1" y="367.2" class="st27" width="74.2" height="27.3"/>
			<rect x="905.1" y="353.9" class="st27" width="88.2" height="13.3"/>
		</g>
		<rect x="913.6" y="368.8" class="st20" width="72.7" height="8"/>
	</g>
	<g>
		<rect x="910.5" y="324.5" class="st28" width="33" height="8.4"/>
		<g>
			<g>
				<path class="st29" d="M947.8,341.9h24.1c0,0,7.9,1.8,7.9-14.4s0-42.5,0-42.5s-0.8-6-10.5-6s-22.5,0-22.5,0v-11h26.4
					c0,0,17.6-0.4,17.6,15.4s0,54.5,0,54.5s-2.1,16-17.9,16h-25.1V341.9z"/>
				<rect x="923.1" y="342.4" class="st25" width="24.7" height="11.4"/>
				<rect x="903.8" y="332.8" class="st25" width="44.1" height="9.7"/>
			</g>
			<circle class="st26" cx="940.6" cy="273" r="12.6"/>
			<circle class="st26" cx="984.3" cy="333.8" r="8.7"/>
			<circle class="st25" cx="940.6" cy="272.8" r="5.8"/>
			<circle class="st25" cx="984.1" cy="333.8" r="3"/>
		</g>
		<rect x="903.8" y="332.8" class="st20" width="44.1" height="4.1"/>
		<rect x="923.1" y="343.4" class="st20" width="25.6" height="4.1"/>
	</g>
</g>
<g>
	<rect x="685.9" y="268.3" class="st30" width="19.5" height="19.5"/>
	<circle cx="695.6" cy="277.9" r="1.8"/>
	<circle class="st31" cx="695.6" cy="277.9" r="4.2"/>
	<circle class="st31" cx="695.6" cy="277.9" r="6.8"/>
	<circle cx="697.4" cy="274.1" r="0.9"/>
	<circle cx="695.2" cy="282.2" r="0.9"/>
	<circle cx="689.5" cy="275" r="0.9"/>
</g>
<g>
	<rect x="720.8" y="284.8" class="st30" width="19.5" height="19.5"/>
	<g>
		<polygon class="st32" points="735.6,291.8 735.6,294.8 733,296.3 730.4,294.8 730.4,291.8 733,290.3 		"/>
		<polyline class="st32" points="730.4,291.8 728,290.3 725.3,291.8 		"/>
		<polyline class="st32" points="730.4,294.8 728,296.3 727.9,299 725.3,301.4 		"/>
		<line class="st32" x1="727.5" y1="290.5" x2="727.5" y2="287.7"/>
		<line class="st32" x1="728.4" y1="290.5" x2="728.4" y2="287.7"/>
		<line class="st32" x1="727.7" y1="299.3" x2="729.6" y2="301.1"/>
		<line class="st32" x1="727.9" y1="298.6" x2="730.1" y2="300.6"/>
	</g>
</g>
<g>
	<rect x="651.6" y="283" class="st30" width="19.5" height="19.5"/>
	<g>
		<polygon class="st33" points="666.5,293.6 669.1,294.5 669.6,297.2 667.5,299 665,298 664.5,295.5 		"/>
		<polygon class="st33" points="661.8,294.5 664.5,295.5 665,298 662.8,299.9 660.3,299 659.8,296.2 		"/>
		<polygon class="st33" points="658.8,290.9 661.3,291.8 661.8,294.5 659.8,296.1 657.1,295.2 656.7,292.5 		"/>
		<polyline class="st33" points="661.4,285.1 658.3,288.1 658.8,290.9 		"/>
		<line class="st33" x1="654.1" y1="292" x2="656.7" y2="292.5"/>
		<polyline class="st33" points="663.7,289.1 666.1,290.9 666.5,293.6 		"/>
	</g>
</g>
<g>
	<rect x="685.6" y="308.9" class="st30" width="19.5" height="19.5"/>
	<circle cx="695.6" cy="318.7" r="1.8"/>
	<circle class="st31" cx="695.6" cy="318.7" r="4.2"/>
	<circle class="st31" cx="695.6" cy="318.7" r="6.8"/>
	<circle cx="699.4" cy="320.4" r="0.9"/>
	<circle cx="691.4" cy="318.3" r="0.9"/>
	<circle cx="694.2" cy="325.2" r="0.9"/>
	<circle cx="698.5" cy="312.5" r="0.9"/>
</g>
<g>
	<rect x="746.4" y="312.3" class="st30" width="19.5" height="19.5"/>
	<circle cx="756.3" cy="322" r="1.8"/>
	<circle class="st31" cx="756.3" cy="322" r="4.2"/>
	<circle class="st31" cx="756.3" cy="322" r="6.8"/>
	<circle cx="760.1" cy="323.7" r="0.9"/>
	<circle cx="751.8" cy="327.1" r="0.9"/>
	<circle cx="753" cy="316.1" r="0.9"/>
	<circle cx="752.1" cy="321.6" r="0.9"/>
	<circle cx="759.2" cy="315.8" r="0.9"/>
</g>
<rect x="695.7" y="346" class="st34" width="50.8" height="33.1"/>
<g>
	<rect x="648.5" y="330.1" class="st30" width="19.5" height="19.5"/>
	<g>
		<polygon class="st33" points="655.2,337.3 654.7,334.6 652.1,333.7 650,335.5 650.5,338.1 653.1,339.1 		"/>
		<polygon class="st33" points="659.8,336.4 659.3,333.7 656.7,332.8 654.7,334.6 655.2,337.3 657.8,338.2 		"/>
		<polygon class="st33" points="663,340.1 662.5,337.4 659.9,336.5 657.8,338.3 658.3,341 660.9,341.9 		"/>
		<polyline class="st33" points="660.9,341.9 661.4,344.5 658.3,347.5 		"/>
		<line class="st33" x1="663" y1="340.1" x2="665.6" y2="340.7"/>
		<polyline class="st33" points="653.1,339.1 653.6,341.8 656,343.6 		"/>
	</g>
</g>
<g>
	<g>
		<g>
			<polygon class="st35" points="395.2,356 390.9,336.6 394,323.6 400.9,334.2 405.2,356 406.8,366.4 400.2,368.3 			"/>
			<polygon class="st36" points="391.6,336.6 400.2,334.6 404.5,356.4 406,365.7 400.7,367.3 396,355.7 			"/>
			<polygon class="st37" points="393.2,330.2 396.8,329.4 394.3,325.5 			"/>
			<path class="st38" d="M395.5,344.9L395.5,344.9c-0.1,0-0.2,0-0.3-0.2l-1.9-8.4c0-0.1,0-0.3,0.2-0.3l0,0c0.1,0,0.2,0,0.3,0.2
				l1.9,8.4C395.7,344.8,395.6,344.9,395.5,344.9z"/>
			<path class="st39" d="M399.7,362.8L399.7,362.8c-0.1,0-0.1,0-0.2-0.1l-3.5-15.6c0-0.1,0-0.2,0.1-0.2l0,0c0.1,0,0.1,0,0.2,0.1
				l3.5,15.6C399.8,362.7,399.7,362.8,399.7,362.8z"/>
		</g>
		<g>
			<g>
				<polygon class="st40" points="434.3,338.8 418.9,365.9 413.1,363 429.9,335.3 				"/>
				<polygon class="st41" points="427,341.9 429.9,344.1 432.8,339.1 430.2,337 				"/>
			</g>
			<path class="st42" d="M439.1,336.7c-1.6,2.5-4.8,3.3-7.4,1.7c-2.5-1.6-3.3-4.8-1.7-7.4c1.6-2.5,10.9-7.5,10.9-7.5
				S440.6,334.1,439.1,336.7z"/>
		</g>
		<g>
			<path class="st40" d="M418.3,357.9h-10.8c-0.8,0-1.5-0.7-1.5-1.5v-37.6c0-0.8,0.7-1.5,1.5-1.5h10.8c0.8,0,1.5,0.7,1.5,1.5v37.6
				C419.7,357.3,419.1,357.9,418.3,357.9z"/>
			<line class="st43" x1="405.5" y1="325.6" x2="413.5" y2="325.6"/>
			<line class="st43" x1="405.5" y1="329.6" x2="411.5" y2="329.6"/>
			<line class="st43" x1="405.5" y1="333.6" x2="413.5" y2="333.6"/>
			<line class="st43" x1="405.5" y1="337.6" x2="411.5" y2="337.6"/>
			<line class="st43" x1="405.5" y1="342.6" x2="413.5" y2="342.6"/>
			<line class="st43" x1="405.5" y1="348.6" x2="411.5" y2="348.6"/>
		</g>
		<g>
			<path class="st44" d="M431.4,361.7H392c-1.1,0-2.1-0.9-2.1-2.1v-5.7c0-1.1,0.9-2.1,2.1-2.1h39.4c1.1,0,2.1,0.9,2.1,2.1v5.7
				C433.4,360.8,432.5,361.7,431.4,361.7z"/>
			<g>
				<path class="st44" d="M400.8,394.7h20.7c3.7,0,6.7-3,6.7-6.7v-26.3h-33V389C395.2,392.2,397.7,394.7,400.8,394.7z"/>
				<rect x="396.5" y="363.1" class="st45" width="30.5" height="4.4"/>
			</g>
		</g>
	</g>
</g>
<g class="st46">
	<path d="M711.7,352.7C711.7,352.6,711.6,352.6,711.7,352.7c-0.2,0-0.7,0.1-0.8,0.2c-0.3,0.1-0.7,0.2-0.9,0.3c0,0.2,0.1,1.1,0.2,1.6
		c0.1,0.4,0.3,0.8,0.5,0.8c0.1,0,0.3-0.1,0.4-0.3c0,0,0,0,0,0.1c0,0.1-0.2,0.3-0.2,0.4c-0.2,0-0.3,0.2-0.5,0.2c-0.3,0-0.5-0.5-0.7-1
		c-0.2-0.6-0.3-1.5-0.3-1.7c-0.1,0-0.1,0-0.2,0c-0.2,0-0.4,0.1-0.6,0.1c-0.1,0-0.3,0.1-0.4,0c-0.1-0.2-0.2-0.2-0.1-0.3
		c0.3-0.3,0.7-0.3,1.1-0.3c-0.1-0.8-0.1-1.9,0-2.2c0-0.1,0.1-0.1,0.2-0.1c0.1,0,0.3,0,0.3,0.2c0.1,0.1,0,0.2,0,0.3
		c0,0.1,0,0.1,0.1,0.1c0,0-0.1,0.2-0.1,0.3l0,1.3c0.3,0,1-0.1,1.4-0.1c0.1,0,0.3,0,0.5,0.1C711.8,352.6,711.7,352.6,711.7,352.7z"/>
	<path d="M713.3,356c-0.4,0-0.8-0.4-1.1-0.6c-0.3-0.3-0.5-0.9-0.5-1.3c0-0.5,0.1-1,0.5-1.4c0.3-0.3,0.4-0.4,0.7-0.6
		c0.2-0.2,0.6-0.2,0.9-0.1c0.2,0,0.6,0.1,0.6,0.3c0,0.1,0,0.2,0,0.4c0,0.1,0.1,0.2,0.2,0.2c0.3,0.3,0.6,0.6,0.7,1.1
		C715.4,354.9,714.4,356,713.3,356z M713.9,352.9c0-0.3-0.2-0.5-0.5-0.5c-0.1,0-0.2,0-0.3,0c-0.4,0.3-0.9,1.1-0.9,1.6
		c0,0.4,0.6,1.7,1.1,1.7c0.7,0,1.5-0.9,1.4-1.6C714.8,353.7,714.5,353,713.9,352.9z"/>
	<path d="M722.6,356.2c-0.2,0-0.4-0.2-0.6-0.4c-0.2-0.3-0.2-0.6-0.3-0.9c-0.2,0.2-0.4,0.3-0.7,0.5c-0.4,0.3-0.9,0.5-1.4,0.5
		c-0.7,0-1.4-1.1-1.4-1.8c0-0.5,0.3-0.9,0.8-1.3c0.4-0.3,1-0.5,1.4-0.5c0.4,0,0.8,0.2,1,0.5c0.1-0.1,0.1-0.5,0.1-0.6
		c0-0.3-0.3-1.4-0.3-1.7c0-0.1,0.1-0.2,0.2-0.2c0.1,0,0.3,0,0.3,0.2c0.2,0.5,0.4,2.3,0.4,2.9c0,0.7,0.1,1.5,0.3,2.2
		c0.1,0.4,0.5,0.3,0.8,0.5C723.1,356.2,722.7,356.1,722.6,356.2z M721.5,353.6c-0.3-0.1-0.1-0.5-0.5-0.7h0c-0.1,0-0.3-0.2-0.6-0.2
		c-0.4,0-0.8,0.2-1.1,0.5c-0.3,0.3-0.5,0.6-0.5,1c0,0.6,0.5,1.2,1.1,1.2c0.3,0,0.7-0.1,1-0.3c0.4-0.3,0.7-0.7,0.7-1.1
		C721.6,353.8,721.5,353.7,721.5,353.6z"/>
	<path d="M724.4,356c-0.4,0-0.8-0.4-1.1-0.6c-0.3-0.3-0.5-0.9-0.5-1.3c0-0.5,0.1-1,0.5-1.4c0.3-0.3,0.4-0.4,0.7-0.6
		c0.2-0.2,0.6-0.2,0.9-0.1c0.2,0,0.6,0.1,0.6,0.3c0,0.1-0.1,0.2-0.1,0.4c0,0.1,0.1,0.2,0.2,0.2c0.3,0.3,0.6,0.6,0.7,1.1
		C726.4,354.9,725.5,356,724.4,356z M725,352.9c0-0.3-0.1-0.5-0.5-0.5c-0.1,0-0.2,0-0.3,0c-0.4,0.3-0.9,1.1-0.9,1.6
		c0,0.4,0.6,1.7,1.1,1.7c0.7,0,1.5-0.9,1.4-1.6C725.8,353.7,725.6,353,725,352.9z"/>
	<path d="M729.6,355.9c-0.3-0.1-0.2-0.4-0.2-0.6c0.1-0.1,0.1-0.3,0.2-0.3c0.1-0.1,0.3-0.2,0.4-0.1c0,0,0.1,0.1,0.2,0.1
		c0,0.1,0.2,0.5,0.1,0.6C730.2,355.8,729.9,355.9,729.6,355.9z"/>
	<path d="M731,355.9c-0.3-0.1-0.1-0.4-0.2-0.6c0.1-0.1,0.1-0.3,0.2-0.3c0.1-0.1,0.3-0.2,0.4-0.1c0,0,0.1,0.1,0.2,0.1
		c0,0.1,0.2,0.5,0.1,0.6C731.7,355.8,731.3,355.9,731,355.9z"/>
</g>
<g class="st46">
	<path d="M699.2,364.6L699.2,364.6c-0.2,0-0.3-0.1-0.3-0.2v-0.3c0-0.4-0.1-0.8-0.1-1.2c0-1.1-0.1-2.6-0.2-3.6c0-0.1,0,0,0-0.1
		c0-0.1,0.1-0.2,0.1-0.3c0,0,0.1,0,0.1,0c0.3,0,0.3,0.2,0.3,0.4c0,1.6,0.3,3.5,0.3,5.1C699.4,364.6,699.3,364.5,699.2,364.6z"/>
	<path d="M703.3,364.2c-0.3,0.3-0.7,0.5-1.1,0.5c-0.9,0-2-0.6-2.1-1.8c-0.1-0.1-0.4,0-0.4-0.3c0-0.3,0.2-0.3,0.3-0.3
		c0.1-1.1,1.1-1.8,2.2-1.8c0.6,0,1.5,0.3,1.5,1.1c0,0.9-1.4,1.2-2.1,1.2c-0.2,0-0.6,0.1-0.9,0.1c-0.1,0-0.2,0-0.3,0
		c0.1,0.7,0.8,1.4,1.6,1.4c0.3,0,0.8-0.2,1-0.4c0.4-0.1,0.6-0.6,1.1-0.7C704.1,363.5,703.6,363.9,703.3,364.2z M702.4,360.8
		c-0.9,0-1.9,0.7-1.9,1.3c0,0,0,0.1,0,0.1c0.1,0,0.2,0,0.3,0c0.2,0,0.4,0,0.6,0c0.4,0,1.6-0.1,1.8-0.5
		C703.2,361.1,702.9,360.8,702.4,360.8z"/>
	<path d="M709.1,364.5c-0.2,0-0.5,0-0.7-0.1c-0.2-0.1-0.8-0.8-0.8-1.1c-0.2,0.2-0.4,0.6-0.6,0.8c-0.3,0.2-1,0.4-1.4,0.4
		c-0.4,0-0.9-0.3-1-0.6c0-0.1-0.1-0.3-0.1-0.5c0-0.6,0.2-1.3,0.6-1.8c0.3-0.5,0.7-0.9,1.3-0.9c0.2,0,0.4,0,0.5,0.1
		c0.2,0.2,0.3,0.3,0.4,0.4c0.1,0,0.2,0.1,0.3,0.1c0.1,0.2,0.1,0.5,0.1,0.8c0,0.7,0.3,1.4,0.7,1.9c0.1,0.1,0.2,0.3,0.5,0.3
		c0.2,0,0.4,0,0.6-0.1c0.1,0,0.2-0.2,0.2-0.1C709.8,364.1,709.4,364.5,709.1,364.5z M707.2,361.8c-0.2-0.2-0.3-0.5-0.6-0.6
		c-0.5,0.1-0.8,0.4-1,0.8c-0.2,0.4-0.5,0.7-0.5,1.2c0,0.3,0,0.6,0.2,0.8c0.1,0.1,0.2,0.1,0.4,0.1c1,0,1.7-0.5,1.7-1.5
		C707.3,362.4,707.1,361.8,707.2,361.8z"/>
	<path d="M712.5,360.8C712.5,360.8,712.5,360.8,712.5,360.8c-0.1,0-0.2-0.1-0.3-0.1c-0.2,0-0.3,0-0.5,0c-0.9,0-1.6,1-1.6,1.9
		c0,0.3,0.1,0.6,0.1,0.9c0,0.2,0.1,0.4,0.1,0.6c0,0.2-0.2,0.2-0.3,0.2c-0.1,0-0.2-0.5-0.3-1c0-0.2-0.5-1.7-0.5-1.9
		c0-0.3-0.1-0.6,0-0.8c0,0,0.1-0.1,0.1-0.1c0.3,0,0.3,0.8,0.4,1c0.1,0,0.1-0.3,0.2-0.4c0.2-0.5,1-0.9,1.5-0.9c0.3,0,0.6,0.2,0.9,0.3
		C712.6,360.7,712.6,360.7,712.5,360.8C712.6,360.8,712.6,360.8,712.5,360.8z"/>
	<path d="M716.9,363.9c0,0.2,0,0.4-0.2,0.5l0,0c0,0.1-0.1,0.1-0.2,0.1c-0.1,0-0.1-0.1-0.2-0.1c0,0,0,0,0-0.1c0-0.2,0.2-0.2,0.1-0.5
		l0.1-0.1c0-0.1,0,0,0-0.1c0-0.5-0.1-1-0.3-1.4c0-0.1-0.3-1.2-1.3-1.2c-0.9,0-1.2,0.5-1.2,1.3c0,0.3,0.2,0.9,0.3,1.2
		c0,0.1,0,0.1,0,0.2c0,0.1,0,0.2,0,0.4c0,0.2-0.1,0.2-0.3,0.2c-0.1,0-0.2-0.1-0.2-0.1c-0.1-0.2-0.2-0.3-0.2-0.5c0-0.2,0-0.7,0-0.9
		c0-0.2,0-0.3-0.1-0.4c0,0,0-0.1,0-0.1c0-0.2-0.1-0.4-0.1-0.6c0-0.1-0.2-0.3-0.2-0.5c0-0.1,0-0.1,0.1-0.2c0,0,0.1,0,0.1,0
		c0.4,0,0.2,0.5,0.4,0.4c0.2-0.5,0.8-0.7,1.2-0.8c1.7-0.3,1.9,1.2,2.2,2.1c0.1,0.2,0.1,0.5,0.1,0.8L716.9,363.9z"/>
	<path d="M724.3,364.5c-0.2,0-0.5,0-0.7-0.1c-0.2-0.1-0.8-0.8-0.8-1.1c-0.2,0.2-0.4,0.6-0.6,0.8c-0.3,0.2-1,0.4-1.4,0.4
		c-0.4,0-0.9-0.3-1-0.6c-0.1-0.1-0.1-0.3-0.1-0.5c0-0.6,0.2-1.3,0.6-1.8c0.3-0.5,0.7-0.9,1.3-0.9c0.2,0,0.4,0,0.5,0.1
		c0.2,0.2,0.3,0.3,0.4,0.4c0.1,0,0.2,0.1,0.3,0.1c0.1,0.2,0.1,0.5,0.1,0.8c0,0.7,0.3,1.4,0.7,1.9c0.1,0.1,0.2,0.3,0.5,0.3
		c0.2,0,0.4,0,0.6-0.1c0.1,0,0.1-0.2,0.2-0.1C725,364.1,724.6,364.5,724.3,364.5z M722.4,361.8c-0.2-0.2-0.3-0.5-0.6-0.6
		c-0.5,0.1-0.8,0.4-1,0.8c-0.2,0.4-0.5,0.7-0.5,1.2c0,0.3,0,0.6,0.2,0.8c0.1,0.1,0.2,0.1,0.4,0.1c1,0,1.7-0.5,1.7-1.5
		C722.5,362.4,722.3,361.8,722.4,361.8z"/>
	<path d="M728.1,364.2c-0.4,0.2-1.4,0.3-1.8,0.1c-0.1,0-0.3-0.1-0.4-0.1l-0.2-0.1c-0.2,0,0,0.3-0.3,0.3c-0.1,0-0.2-0.1-0.3-0.2
		c0-0.2-0.1-0.3-0.1-0.5c0-0.2,0.1-0.4,0.1-0.7c0-0.5,0-1.2-0.1-1.7c0-0.2-0.1-0.8-0.1-1c0-0.1-0.1-0.9-0.1-1
		c-0.2,0-0.2-0.5,0.1-0.5c0.1,0,0.3,0.1,0.3,0.2c0.2,0.5,0.3,2.3,0.3,2.9l0.1,0.2c0.3-0.4,1-1.1,1.6-1.1c0.5,0,0.9,0.3,1.2,0.7
		c0.3,0.3,0.4,0.9,0.5,1.3C728.8,363.4,728.5,363.9,728.1,364.2z M727.5,361.5c-0.9-0.1-1.7,0.6-1.7,1.6c-0.1,0.1-0.1,0.2-0.1,0.4
		c0,0.4,0.4,0.5,0.7,0.6c0.4,0.1,1.1,0,1.6-0.3c0.2-0.2,0.4-0.4,0.4-0.7C728.4,362.1,728,361.8,727.5,361.5z"/>
	<path d="M730.8,364.6c-0.4,0-0.8-0.4-1.1-0.6c-0.3-0.3-0.5-0.9-0.5-1.3c0-0.5,0.1-1,0.5-1.4c0.3-0.3,0.4-0.4,0.7-0.6
		c0.2-0.2,0.6-0.2,0.9-0.1c0.2,0,0.6,0.1,0.6,0.3c0,0.1,0,0.2,0,0.4c0,0.1,0.1,0.2,0.2,0.2c0.3,0.3,0.6,0.6,0.7,1.1
		C732.9,363.4,731.9,364.6,730.8,364.6z M731.4,361.4c0-0.3-0.1-0.5-0.5-0.5c-0.1,0-0.2,0-0.3,0c-0.4,0.3-0.9,1.1-0.9,1.6
		c0,0.4,0.6,1.7,1.1,1.7c0.7,0,1.5-0.9,1.4-1.6C732.3,362.3,732,361.5,731.4,361.4z"/>
	<path d="M738,364.2c-0.2,0.1-0.4,0.2-0.7,0.2c-0.7,0-0.8-0.6-1.1-1.1c-0.4,0.6-0.9,1.3-1.7,1.3c-1.2,0-1.2-1.2-1.2-2.1
		c0-0.6,0-0.9,0-1.5c0-0.1,0.2-0.2,0.3-0.2c0.2,0,0.3,0.1,0.3,0.3c0,0.6-0.4,3,0.6,3c0.8,0,1.5-1,1.5-1.7c0-0.7-0.1-0.6-0.1-1.3
		c0-0.1,0.1-0.2,0.3-0.2c0,0,0.1,0,0.1,0c0.3,0.2,0.2,0.5,0.2,0.8c0,0.2,0,0.1,0,0.3c0,0.7,0.1,1.5,0.7,1.9c0.2,0.2,0.8-0.1,0.8-0.3
		h0.1c0,0,0,0.1,0,0.1C738.2,363.9,738,364.1,738,364.2z"/>
	<path d="M741,361.2C740.9,361.2,740.9,361.2,741,361.2c-0.2,0-0.7,0.1-0.8,0.2c-0.3,0.1-0.7,0.2-0.9,0.3c0,0.2,0.1,1.1,0.2,1.6
		c0.1,0.4,0.3,0.8,0.5,0.8c0.1,0,0.3-0.1,0.4-0.3c0,0,0,0,0,0.1c0,0.1-0.2,0.3-0.2,0.4c-0.2,0-0.3,0.2-0.5,0.2c-0.3,0-0.5-0.5-0.7-1
		c-0.2-0.6-0.3-1.5-0.3-1.7c-0.1,0-0.1,0-0.2,0c-0.2,0-0.4,0.1-0.6,0.1c-0.1,0-0.3,0.1-0.4,0c-0.1-0.2-0.2-0.2-0.1-0.3
		c0.3-0.3,0.7-0.3,1.1-0.3c-0.1-0.8-0.1-1.9,0-2.2c0-0.1,0.1-0.1,0.2-0.1c0.1,0,0.3,0,0.3,0.2c0.1,0.1,0,0.2,0,0.3
		c0,0.1,0,0.1,0.1,0.1c0,0-0.1,0.2-0.1,0.3l0,1.3c0.3,0,1-0.1,1.4-0.1c0.1,0,0.3,0,0.4,0.1C741,361.1,741,361.2,741,361.2z"/>
</g>
<g class="st46">
	<path d="M702.3,375.5c-0.1,0-0.1,0-0.1,0.1c-0.2,0-0.2-0.5-0.2-0.6c0-0.2,0-0.5,0-0.7c0-0.5,0-0.8-0.2-1.3c0-0.3-0.3-0.8-0.7-0.8
		c-0.8,0-1.9,0.3-1.9,1.3c0,0.3,0.1,0.5,0.1,0.8c0,0.2,0.1,0.5,0.1,0.7c0,0.1,0,0.2-0.1,0.3c-0.1,0.1-0.2,0.1-0.3,0
		c-0.2-0.2-0.3-2.3-0.4-2.8c-0.1-0.5-0.2-1.5-0.2-2c0-0.2-0.1-0.2-0.1-0.4c0-0.1,0.1-0.4,0.3-0.4c0.2,0,0.2,0.2,0.3,0.3
		c0,0.7,0,2,0.3,2.5c0.6-0.8,1.4-0.9,2.1-0.9c1,0,1.2,1.4,1.2,2.1c0,0.4,0.1,0.8,0.1,1.3C702.5,375.3,702.5,375.5,702.3,375.5z"/>
	<path d="M706.3,375.2c-0.3,0.3-0.7,0.5-1.1,0.5c-0.9,0-2-0.6-2.1-1.8c-0.1-0.1-0.4,0-0.4-0.3c0-0.3,0.2-0.3,0.3-0.3
		c0.1-1.1,1.1-1.8,2.2-1.8c0.6,0,1.5,0.3,1.5,1.1c0,0.9-1.4,1.2-2.1,1.2c-0.2,0-0.6,0.1-0.9,0.1c-0.1,0-0.2,0-0.3,0
		c0.1,0.7,0.8,1.4,1.6,1.4c0.3,0,0.8-0.2,1-0.4c0.4-0.1,0.6-0.6,1.1-0.7C707.1,374.5,706.6,374.9,706.3,375.2z M705.4,371.8
		c-0.9,0-1.9,0.7-1.9,1.3c0,0,0,0.1,0,0.1c0.1,0,0.2,0,0.3,0c0.2,0,0.4,0,0.6,0c0.4,0,1.6-0.1,1.8-0.5
		C706.2,372.1,705.9,371.8,705.4,371.8z"/>
	<path d="M708.2,375.6L708.2,375.6c-0.2,0-0.3-0.1-0.3-0.2v-0.3c0-0.4-0.1-0.8-0.1-1.2c0-1.1-0.1-2.6-0.2-3.6c0-0.1,0,0,0-0.1
		c0-0.1,0.1-0.2,0.1-0.3c0,0,0.1,0,0.1,0c0.3,0,0.3,0.2,0.3,0.4c0,1.6,0.3,3.5,0.3,5.1C708.4,375.6,708.3,375.5,708.2,375.6z"/>
	<path d="M709.6,371L709.6,371c-0.1-0.1-0.2,0-0.4,0c-0.1,0-0.2-0.1-0.2-0.3c0-0.2,0.1-0.3,0.3-0.3c0.1,0,0.3,0.1,0.3,0.2
		c0,0,0,0,0,0.1C709.7,370.8,709.7,370.9,709.6,371C709.7,371,709.7,371,709.6,371z M710,375.3c-0.1,0-0.3,0-0.3-0.2
		c0-0.1-0.1-0.4-0.1-0.6c-0.1-0.5,0-1.4-0.2-1.9l-0.1-0.3c0-0.1,0-0.1,0-0.2c0-0.3,0.4-0.2,0.4,0c0.1,0.3,0.4,2.2,0.3,2.4
		c0,0.2,0.1,0.4,0.1,0.6C710.2,375.2,710.1,375.3,710,375.3z"/>
	<path d="M715.3,375.2c-0.2,0.1-0.4,0.2-0.7,0.2c-0.6,0-0.8-0.6-1.1-1.1c-0.4,0.6-0.9,1.3-1.7,1.3c-1.2,0-1.2-1.2-1.2-2.1
		c0-0.6,0-0.9,0-1.5c0-0.1,0.2-0.2,0.3-0.2c0.2,0,0.3,0.1,0.3,0.3c0,0.6-0.4,3,0.6,3c0.8,0,1.5-1,1.5-1.7c0-0.7-0.1-0.6-0.1-1.3
		c0-0.1,0.1-0.2,0.3-0.2c0,0,0,0,0.1,0c0.3,0.2,0.2,0.5,0.2,0.8c0,0.2,0,0.1,0,0.3c0,0.7,0.2,1.5,0.8,1.9c0.2,0.2,0.8-0.1,0.8-0.3
		h0.1c0,0,0,0.1,0,0.1C715.5,374.9,715.4,375.1,715.3,375.2z"/>
	<path d="M721.2,375.4c-0.1,0-0.3,0-0.3-0.2c0-0.3,0.2-0.6,0.2-1c0-0.9-0.7-2.1-1.6-2.1c-0.3,0-0.8,0.1-1.2,0.7
		c0.1,0.2,0.1,0.1,0.1,0.4c0,0.4,0.2,0.7,0.1,1.1c0,0.2-0.1,0.8-0.3,0.9c-0.3,0-0.2-0.4-0.4-0.7v-0.1c0-0.3,0.1-0.7,0.1-1
		c0-0.7-0.5-1.4-1.3-1.4c-0.5,0-0.6,0.3-0.6,0.8c0,0.8,0,1.6,0.1,2.4c0,0.1-0.1,0.1-0.2,0.1c-0.5,0-0.2-0.6-0.4-0.9
		c0.1-0.5,0-1.1,0.1-1.7c-0.1-0.3-0.2-0.6-0.2-0.8c0-0.1,0-0.3,0.2-0.3c0.1,0,0.3,0.2,0.3,0.3c0.2-0.1,0.5-0.3,0.8-0.3
		c0.6,0,1.2,0.4,1.5,1c0.3-0.4,0.6-0.9,1.4-0.9c1,0,1.3,0.4,1.8,1.2c0.2,0.4,0.3,1,0.3,1.5C721.5,374.7,721.5,375.3,721.2,375.4z"/>
</g>
<rect x="712.8" y="344" transform="matrix(0.9997 -2.483686e-02 2.483686e-02 0.9997 -8.37 18.0142)" class="st47" width="16.4" height="3.9"/>
<g>
	<rect x="481.1" y="269.1" class="st48" width="118.4" height="68"/>
	
		<rect x="592.8" y="263.4" transform="matrix(0.7591 -0.6509 0.6509 0.7591 -35.5334 453.8703)" class="st49" width="5.5" height="23.1"/>
	
		<rect x="474.2" y="272.1" transform="matrix(0.7591 -0.6509 0.6509 0.7591 -61.9432 382.4196)" class="st49" width="23.1" height="5.5"/>
	
		<rect x="581.8" y="328.6" transform="matrix(0.7591 -0.6509 0.6509 0.7591 -72.7996 466.0602)" class="st49" width="23.1" height="5.5"/>
	<rect x="488.1" y="280.9" class="st50" width="122.8" height="52.6"/>
	<g class="st46">
		<path d="M494.6,289.4c-1,0.2-1.6,1-2.7,0.9c-1.2-0.1-1.9-0.3-2.8-1.1c-0.4-0.3-0.6-0.9-0.7-1.6c-0.1-1,0.4-3.2,1-4.1
			c0.5-0.9,1.6-1.5,2.9-1.3c0.2,0.1,0.4,0.3,0.7,0.3c0.2,0.4,0.8,0.7,0.9,1.1c-0.2,0.4,0.1,1.1-0.5,1.3c-0.3,0.1-0.4-0.2-0.6-0.3
			c-0.3-0.6-0.2-1.3-0.8-1.7c-0.5-0.1-1.9,0.8-1.9,1.2c-0.7,0.9-1,4.2-0.2,4.9c0.8,0.8,1.9,0.8,3,0.7c0.1,0,2.2-0.7,2.5-1.2
			c0.3-0.2,0.4-0.7,0.8-0.9C496.1,288.2,495.2,288.9,494.6,289.4z"/>
		<path d="M496.9,290.2L496.9,290.2c-0.3,0-0.4-0.1-0.5-0.3v-0.4c0-0.6-0.1-1.2-0.1-1.8c-0.1-1.7-0.2-4-0.4-5.7c0-0.1,0,0,0-0.1
			c0-0.2,0.1-0.3,0.2-0.5c0.1,0,0.2-0.1,0.2-0.1c0.4,0,0.4,0.3,0.4,0.6c0,2.5,0.5,5.5,0.5,8C497.3,290,497.1,290,496.9,290.2z"/>
		<path d="M499.2,282.9L499.2,282.9c-0.2-0.2-0.4,0-0.6,0c-0.2,0-0.3-0.2-0.3-0.4c0-0.3,0.2-0.4,0.5-0.4c0.2,0,0.5,0.1,0.5,0.4
			c0,0,0,0.1,0,0.1c0,0.1,0,0.2,0,0.3C499.3,282.9,499.2,282.9,499.2,282.9z M499.7,289.7c-0.2,0-0.5,0-0.5-0.3
			c-0.1-0.2-0.2-0.6-0.2-0.9c-0.1-0.8,0-2.2-0.3-3l-0.1-0.5c0-0.2,0-0.2,0-0.4c0-0.5,0.7-0.4,0.7,0c0.1,0.5,0.5,3.4,0.5,3.7
			c0,0.3,0.2,0.7,0.2,1C500,289.4,499.9,289.7,499.7,289.7z"/>
		<path d="M506.8,288.4c-0.5,0.6-1.2,0.9-1.9,1.2c-0.1,0-0.8,0.2-1,0.2c-0.4,0-0.9-0.1-1.2-0.2c-0.9-0.2-1.9-1.6-1.9-2.5
			c0-1.4,0.9-3.6,2.6-3.6c0.2,0,0.5,0.1,0.6,0.2c0.6,0,0.7,0.8,1,0.8c0.3,0.4,0.5,0.8,0.5,1.3c0,0.2,0,0.4-0.2,0.5h-0.1
			c-1.1,0-0.8-2.2-1.8-2.2c-0.8,0-1.9,1.5-1.9,2.2c0,1.6,0.8,2.7,2.4,2.7c1.4,0,2.1-0.9,2.8-0.8L506.8,288.4L506.8,288.4z"/>
		<path d="M513.1,290.4c-0.1,0.1-0.1,0.3-0.3,0.3s-0.5-0.1-0.5-0.3c0-0.1,0-0.1,0-0.2c-0.1-0.4,0.1-0.8,0.1-1.2
			c0-0.5-0.5-1.2-0.9-1.6c-0.7-0.7-1-0.7-1.8-0.8c-0.6-0.1-1.4-0.1-1.8,0.5c-0.1,0-0.2,0.1-0.2,0.2l0,0.5c0,0.6,0,1.3,0.1,1.9
			c-0.2,0.1-0.3,0.3-0.5,0.2c-0.4-0.2-0.4-0.7-0.4-1c0-0.4,0.1-0.8,0.1-1.3c0-1.1-0.3-2.9-0.3-4.2c0-0.3,0-0.7,0-1
			c0.1-0.3,0.3-0.3,0.5-0.1c0.6,0.8,0.3,3.6,0.5,4.1c0.5-0.6,3.1-2.1,3.4-2.3c0.1-0.1,0.7-0.8,0.8-0.8c0.2-0.1,0.3-0.2,0.3-0.1
			c-0.2,1.7-2.6,2.4-2.7,2.8c2.2,0.2,3.6,1.4,3.6,3.6C513.2,289.8,513.1,290.1,513.1,290.4z"/>
		<path d="M520,290c-0.6,0-1.3-0.6-1.7-1c-0.4-0.5-0.8-1.4-0.8-2c0-0.7,0.2-1.5,0.8-2.2c0.4-0.5,0.6-0.7,1.2-1
			c0.4-0.2,1-0.3,1.5-0.2c0.4,0,0.9,0.1,0.9,0.5c0,0.2-0.1,0.4-0.1,0.6c0,0.2,0.1,0.3,0.2,0.3c0.4,0.5,1,0.9,1.1,1.7
			C523.2,288.3,521.7,290,520,290z M520.9,285.1c0-0.5-0.2-0.8-0.8-0.8c-0.1,0-0.3,0-0.4,0c-0.6,0.5-1.5,1.7-1.5,2.5
			c0,0.7,0.9,2.6,1.8,2.6c1.1,0,2.3-1.4,2.2-2.5C522.2,286.4,521.8,285.3,520.9,285.1z"/>
		<path d="M529.9,289c0,0.3-0.1,0.5-0.3,0.8l0,0.1c0,0.1-0.2,0.2-0.3,0.2c-0.2,0-0.2-0.2-0.4-0.2c0,0,0-0.1,0-0.1
			c0-0.3,0.3-0.4,0.2-0.7l0.1-0.1c0-0.1,0-0.1,0-0.2c0-0.8-0.2-1.5-0.4-2.2c0-0.1-0.5-1.8-2.1-1.8c-1.4,0-2,0.8-2,2.1
			c0,0.5,0.3,1.4,0.4,1.9c0,0.1-0.1,0.2-0.1,0.3c0,0.2,0.1,0.4,0.1,0.6c0,0.2-0.2,0.4-0.4,0.4c-0.2,0-0.3-0.2-0.4-0.2
			c-0.2-0.2-0.2-0.5-0.2-0.8c0-0.4-0.1-1.1-0.1-1.5c0-0.2,0-0.5-0.1-0.7c0-0.1,0-0.1,0-0.2c0-0.3-0.1-0.6-0.1-1
			c0-0.1-0.3-0.5-0.3-0.7c0-0.1,0-0.2,0.1-0.3c0,0,0.1,0,0.2,0c0.6,0,0.3,0.7,0.6,0.7c0.4-0.8,1.2-1.1,1.9-1.2
			c2.7-0.5,2.9,2,3.4,3.4c0.1,0.4,0.2,0.8,0.2,1.2L529.9,289z"/>
		<path d="M536.9,290c-0.6,0-1.3-0.6-1.7-1c-0.4-0.5-0.8-1.4-0.8-2c0-0.7,0.2-1.5,0.8-2.2c0.4-0.5,0.6-0.7,1.2-1
			c0.4-0.2,1-0.3,1.5-0.2c0.4,0,0.9,0.1,0.9,0.5c0,0.2-0.1,0.4-0.1,0.6c0,0.2,0.1,0.3,0.2,0.3c0.4,0.5,1,0.9,1.1,1.7
			C540,288.3,538.6,290,536.9,290z M537.7,285.1c0-0.5-0.2-0.8-0.8-0.8c-0.1,0-0.3,0-0.4,0c-0.6,0.5-1.5,1.7-1.5,2.5
			c0,0.7,0.9,2.6,1.8,2.6c1.1,0,2.3-1.4,2.2-2.5C539.1,286.4,538.7,285.3,537.7,285.1z"/>
		<path d="M546.8,289c0,0.3-0.1,0.5-0.3,0.8l0,0.1c0,0.1-0.2,0.2-0.3,0.2c-0.2,0-0.2-0.2-0.4-0.2c0,0,0-0.1,0-0.1
			c0-0.3,0.3-0.4,0.2-0.7l0.1-0.1c0-0.1,0-0.1,0-0.2c0-0.8-0.2-1.5-0.4-2.2c0-0.1-0.5-1.8-2.1-1.8c-1.4,0-2,0.8-2,2.1
			c0,0.5,0.3,1.4,0.4,1.9c0,0.1-0.1,0.2-0.1,0.3c0,0.2,0.1,0.4,0.1,0.6c0,0.2-0.2,0.4-0.4,0.4c-0.2,0-0.3-0.2-0.4-0.2
			c-0.2-0.2-0.2-0.5-0.2-0.8c0-0.4-0.1-1.1-0.1-1.5c0-0.2,0-0.5-0.1-0.7c0-0.1,0-0.1,0-0.2c0-0.3-0.1-0.6-0.1-1
			c0-0.1-0.3-0.5-0.3-0.7c0-0.1,0-0.2,0.1-0.3c0,0,0.1,0,0.2,0c0.6,0,0.3,0.7,0.6,0.7c0.4-0.8,1.2-1.1,1.9-1.2
			c2.7-0.5,2.9,2,3.4,3.4c0.1,0.4,0.2,0.8,0.2,1.2L546.8,289z"/>
		<path d="M552.7,289.4c-0.5,0.5-1.1,0.7-1.8,0.7c-1.4,0-3.1-1-3.2-2.8c-0.2-0.1-0.6,0-0.6-0.5c0-0.5,0.3-0.4,0.5-0.5
			c0.2-1.7,1.8-2.8,3.5-2.8c0.9,0,2.4,0.5,2.4,1.7c0,1.4-2.2,1.9-3.3,1.9c-0.4,0-0.9,0.1-1.4,0.1c-0.2,0-0.3,0-0.4,0
			c0.1,1,1.2,2.2,2.5,2.2c0.4,0,1.2-0.3,1.5-0.7c0.7-0.2,0.9-1,1.7-1.1C553.9,288.4,553.2,289,552.7,289.4z M551.3,284.2
			c-1.4,0-3,1.2-3,2c0,0.1,0,0.1,0,0.2c0.2,0,0.3,0,0.5,0c0.3,0,0.6,0,0.9,0c0.7,0,2.5-0.2,2.9-0.8
			C552.6,284.6,552,284.2,551.3,284.2z"/>
		<path d="M560.9,290c-0.6,0-1.3-0.6-1.7-1c-0.4-0.5-0.8-1.4-0.8-2c0-0.7,0.2-1.5,0.8-2.2c0.4-0.5,0.6-0.7,1.2-1
			c0.4-0.2,1-0.3,1.5-0.2c0.4,0,0.9,0.1,0.9,0.5c0,0.2-0.1,0.4-0.1,0.6c0,0.2,0.1,0.3,0.2,0.3c0.4,0.5,1,0.9,1.1,1.7
			C564.1,288.3,562.6,290,560.9,290z M561.8,285.1c0-0.5-0.2-0.8-0.8-0.8c-0.1,0-0.3,0-0.4,0c-0.6,0.5-1.5,1.7-1.5,2.5
			c0,0.7,0.9,2.6,1.8,2.6c1.1,0,2.3-1.4,2.2-2.5C563.1,286.4,562.7,285.3,561.8,285.1z"/>
		<path d="M569.1,286.4c0,0-1.1,0.2-1.2,0.2c-0.2,0-0.5,0-0.7,0.2c0.1,0.8,0.3,1.5,0.3,2.3c0,0.4,0,1-0.5,1l-0.1,0
			c-0.3-0.3-0.2-0.9-0.2-1.3c0-0.2-0.4-1.8-0.5-2c0,0-1.8,0.1-1.9-0.1c-0.1,0-0.1-0.1-0.1-0.2s0-0.2,0-0.3c0.4-0.3,0.9-0.1,1.3-0.1
			c0.2,0,0.3,0,0.5-0.1c0-0.7-0.4-1.2-0.6-1.8c-0.2-0.5-0.6-2-0.6-2.5c0-0.9,0.8-1.5,1.7-1.5c1.2,0,2.6,1.2,2.6,2.4
			c0,0.5-0.2,1.4-0.9,1.4h-0.2c0-0.1,0-0.1,0-0.2c0-0.2,0.2-0.4,0.3-0.6c0-0.1,0-0.3,0-0.4c0-1-0.9-2.1-1.9-2.1
			c-1.2,0-0.8,1.7-0.6,2.4c0.2,0.9,0.7,1.7,0.9,2.4c0.1,0.4,0.1,0.4,0.2,0.6c0.2,0,0.8,0,1.1-0.1l1.8,0.1c0.1,0.1,0.1,0,0.2,0.1
			C569.8,286.2,569.4,286.4,569.1,286.4z"/>
	</g>
	<g class="st46">
		<path d="M493.2,303.5c0,0-0.1,0-0.1,0c-0.1,0-0.9,0.2-1,0.3c-0.4,0.2-1.1,0.4-1.4,0.5c0,0.4,0.1,1.7,0.3,2.6
			c0.2,0.7,0.4,1.3,0.9,1.3c0.2,0,0.5-0.2,0.7-0.5c0,0,0,0.1,0,0.1c0,0.1-0.3,0.5-0.4,0.6c-0.3,0.1-0.5,0.2-0.8,0.2
			c-0.5,0-0.8-0.7-1.1-1.5c-0.3-0.9-0.4-2.3-0.4-2.7c-0.1-0.1-0.2,0-0.3,0c-0.3,0-0.6,0.2-0.9,0.2c-0.2,0-0.5,0.1-0.6,0
			c-0.1-0.3-0.3-0.3-0.1-0.5c0.4-0.5,1.2-0.4,1.8-0.5c-0.2-1.2-0.2-3-0.1-3.4c0.1-0.1,0.2-0.1,0.3-0.2c0.2,0,0.4,0.1,0.5,0.3
			c0.1,0.1,0,0.2,0,0.4c0,0.1,0.1,0.2,0.2,0.2c0,0.1-0.1,0.4-0.1,0.4l0,2.1c0.5-0.1,1.6-0.2,2.1-0.2c0.2,0,0.5,0,0.7,0.1
			C493.4,303.4,493.3,303.5,493.2,303.5z"/>
		<path d="M499.4,308.7c-0.1,0-0.1,0.1-0.2,0.1c-0.4,0-0.4-0.8-0.4-0.9c0-0.3,0-0.8,0-1.1c0-0.8,0-1.3-0.3-2c0-0.5-0.5-1.2-1-1.2
			c-1.2,0-3,0.5-3,2.1c0,0.5,0.2,0.7,0.2,1.2c0,0.4,0.1,0.8,0.1,1.1c0,0.1,0,0.3-0.1,0.4c-0.1,0.2-0.3,0.1-0.5,0
			c-0.3-0.2-0.5-3.7-0.6-4.3c-0.2-0.8-0.3-2.4-0.3-3.2c0-0.3-0.2-0.4-0.2-0.6c0-0.2,0.2-0.6,0.5-0.6c0.3,0,0.4,0.3,0.4,0.5
			c0,1,0.1,3.1,0.5,4c0.9-1.2,2.1-1.4,3.3-1.4c1.5,0,1.8,2.1,1.8,3.3c0,0.6,0.1,1.3,0.1,2C499.6,308.4,499.6,308.7,499.4,308.7z"/>
		<path d="M505.6,308.2c-0.5,0.5-1.1,0.7-1.8,0.7c-1.4,0-3.1-1-3.2-2.8c-0.2-0.1-0.6,0-0.6-0.5c0-0.5,0.3-0.4,0.5-0.5
			c0.2-1.7,1.8-2.8,3.5-2.8c0.9,0,2.4,0.5,2.4,1.7c0,1.4-2.2,1.9-3.3,1.9c-0.4,0-0.9,0.1-1.4,0.1c-0.2,0-0.3,0-0.4,0
			c0.1,1,1.2,2.2,2.5,2.2c0.4,0,1.2-0.3,1.5-0.7c0.7-0.2,0.9-1,1.7-1.1C506.8,307.2,506,307.8,505.6,308.2z M504.2,303
			c-1.4,0-3,1.2-3,2c0,0.1,0,0.1,0,0.2c0.2,0,0.3,0,0.5,0c0.3,0,0.6,0,0.9,0c0.7,0,2.5-0.2,2.9-0.8C505.4,303.3,504.9,303,504.2,303
			z"/>
		<path d="M516.6,307.7c-0.5,0.5-1.4,0.8-2.2,0.8c-1,0-1.4-0.4-1.9-0.6c0.1,1.1,0.2,2.4,0.2,3.5c0,0.5,0.1,1,0.1,1.5
			c0,0.2,0,0.6-0.3,0.7c-0.2-0.1-0.4-0.1-0.5-0.3c-0.2-1.1,0-2.2-0.2-3.3c-0.1-0.9-0.1-1.6-0.2-2.5c-0.3-0.2-0.5-0.7-0.7-1
			c0-0.1,0-0.1,0.1-0.1c0.2,0,0.3,0.5,0.6,0.5c0,0,0-0.3,0-0.3c0-0.7-0.2-2-0.2-2.7c0-0.2,0.2-0.7,0.4-0.7c0.2,0,0.4,0.3,0.5,0.5
			c0.2-0.6,1.4-1,1.9-1c0.5,0,1,0.2,1.5,0.5c0.4,0.3,0.8,0.6,1,1c0.2,0.3,0.4,1.4,0.4,1.8C517.3,306.7,517,307.3,516.6,307.7z
			 M515.6,303.6c-0.4-0.3-0.9-0.4-1.4-0.4c-1.1,0-1.4,0.6-1.7,1.5c0.1,0.6-0.1,2.2,0.1,2.7c0.6,0.2,1.4,0.5,2.1,0.5s1.2-0.3,1.6-0.7
			c0.3-0.4,0.5-1,0.5-1.7C516.6,304.7,516.2,304,515.6,303.6z"/>
		<path d="M520.3,308.8c-0.6,0-1.3-0.6-1.7-1c-0.4-0.5-0.8-1.4-0.8-2c0-0.7,0.2-1.5,0.8-2.2c0.4-0.5,0.6-0.7,1.2-1
			c0.4-0.2,1-0.3,1.5-0.2c0.4,0,0.9,0.1,0.9,0.5c0,0.2-0.1,0.4-0.1,0.6c0,0.2,0.1,0.3,0.2,0.3c0.4,0.5,1,0.9,1.1,1.7
			C523.5,307,522,308.8,520.3,308.8z M521.2,303.9c0-0.5-0.2-0.8-0.8-0.8c-0.1,0-0.3,0-0.4,0c-0.6,0.5-1.5,1.7-1.5,2.5
			c0,0.7,0.9,2.6,1.8,2.6c1.1,0,2.3-1.4,2.2-2.5C522.5,305.2,522.2,304,521.2,303.9z"/>
		<path d="M528.1,308.4c-1.3,0.6-1.8,0.3-2.8,0.1c-0.3-0.1-0.5-0.3-0.8-0.4c-0.2-0.2-0.4-0.4-0.4-0.7c0,0,0-0.1,0-0.2
			c0.6,0.5,1.5,0.9,2.3,0.9c0.5,0,2.1-0.4,2.1-1c0-0.4-1-0.7-2.1-1.1c-0.8-0.3-1.7-0.7-2.1-1.2c-0.2-0.3-0.4-0.6-0.4-0.8
			c0-0.4,0.4-0.7,0.6-0.9c0.8-0.6,1.1-1.1,2.2-1.1c0.5,0,0.4,0.1,0.8,0.4c0.1,0.3,0.4,0.6,0.4,1c0,0.1-0.1,0.3-0.2,0.4
			c-0.5-0.2-0.7-0.9-1.2-0.9c-0.4,0-1.9,0.8-1.9,1.2c0,0.3,0.2,0.4,0.4,0.6c0.7,0.8,2.1,0.8,3.1,1.3c0.5,0.2,1.1,0.6,1.1,1.2
			C529.3,307.6,528.5,308.3,528.1,308.4z"/>
		<path d="M533.8,303.5c0,0-0.1,0-0.1,0c-0.1,0-0.9,0.2-1,0.3c-0.4,0.2-1.1,0.4-1.4,0.5c0,0.4,0.1,1.7,0.3,2.6
			c0.2,0.7,0.4,1.3,0.9,1.3c0.2,0,0.5-0.2,0.7-0.5c0,0,0,0.1,0,0.1c0,0.1-0.3,0.5-0.4,0.6c-0.3,0.1-0.5,0.2-0.8,0.2
			c-0.5,0-0.8-0.7-1.1-1.5c-0.3-0.9-0.4-2.3-0.4-2.7c-0.1-0.1-0.2,0-0.3,0c-0.3,0-0.6,0.2-0.9,0.2c-0.2,0-0.5,0.1-0.6,0
			c-0.1-0.3-0.3-0.3-0.1-0.5c0.4-0.5,1.2-0.4,1.8-0.5c-0.2-1.2-0.2-3-0.1-3.4c0.1-0.1,0.2-0.1,0.3-0.2c0.2,0,0.4,0.1,0.5,0.3
			c0.1,0.1,0,0.2,0,0.4c0,0.1,0.1,0.2,0.2,0.2c0,0.1-0.1,0.4-0.1,0.4l0,2.1c0.5-0.1,1.6-0.2,2.1-0.2c0.2,0,0.5,0,0.7,0.1
			C533.9,303.4,533.9,303.5,533.8,303.5z"/>
		<path d="M539.3,308.2c-0.5,0.5-1.1,0.7-1.8,0.7c-1.4,0-3.1-1-3.2-2.8c-0.2-0.1-0.6,0-0.6-0.5c0-0.5,0.3-0.4,0.5-0.5
			c0.2-1.7,1.8-2.8,3.5-2.8c0.9,0,2.4,0.5,2.4,1.7c0,1.4-2.2,1.9-3.3,1.9c-0.4,0-0.9,0.1-1.4,0.1c-0.2,0-0.3,0-0.4,0
			c0.1,1,1.2,2.2,2.5,2.2c0.4,0,1.2-0.3,1.5-0.7c0.7-0.2,0.9-1,1.7-1.1C540.5,307.2,539.7,307.8,539.3,308.2z M537.9,303
			c-1.4,0-3,1.2-3,2c0,0.1,0,0.1,0,0.2c0.2,0,0.3,0,0.5,0c0.3,0,0.6,0,0.9,0c0.7,0,2.5-0.2,2.9-0.8C539.1,303.3,538.6,303,537.9,303
			z"/>
		<path d="M546,303c0,0-0.1-0.1-0.1-0.1c0,0.1-0.2,0-0.3,0c-0.3,0-0.4,0-0.7,0c-1.5,0-2.5,1.6-2.5,2.9c0,0.5,0.1,1,0.2,1.4
			c0,0.3,0.2,0.7,0.2,1c0,0.3-0.2,0.4-0.5,0.3c-0.2,0-0.3-0.8-0.5-1.5c0-0.2-0.8-2.7-0.8-3c0-0.4-0.2-1,0.1-1.3
			c0.1,0,0.1-0.1,0.2-0.1c0.5,0,0.5,1.3,0.7,1.6c0.2,0,0.2-0.5,0.2-0.6c0.4-0.8,1.6-1.5,2.4-1.5c0.5,0,1,0.3,1.4,0.5
			c0,0,0.1,0.1,0.1,0.1C546.1,303,546,303,546,303z"/>
		<path d="M550.4,308.4c-1.3,0.6-1.8,0.3-2.8,0.1c-0.3-0.1-0.5-0.3-0.8-0.4c-0.2-0.2-0.4-0.4-0.4-0.7c0,0,0-0.1,0-0.2
			c0.6,0.5,1.5,0.9,2.3,0.9c0.5,0,2.1-0.4,2.1-1c0-0.4-1-0.7-2.1-1.1c-0.8-0.3-1.7-0.7-2.1-1.2c-0.2-0.3-0.4-0.6-0.4-0.8
			c0-0.4,0.4-0.7,0.6-0.9c0.8-0.6,1.1-1.1,2.2-1.1c0.5,0,0.4,0.1,0.8,0.4c0.1,0.3,0.4,0.6,0.4,1c0,0.1-0.1,0.3-0.2,0.4
			c-0.5-0.2-0.7-0.9-1.2-0.9c-0.4,0-1.9,0.8-1.9,1.2c0,0.3,0.2,0.4,0.4,0.6c0.7,0.8,2.1,0.8,3.1,1.3c0.5,0.2,1.1,0.6,1.1,1.2
			C551.6,307.6,550.8,308.3,550.4,308.4z"/>
		<path d="M560.8,303.5c0,0-0.1,0-0.1,0c-0.1,0-0.9,0.2-1,0.3c-0.4,0.2-1.1,0.4-1.4,0.5c0,0.4,0.1,1.7,0.3,2.6
			c0.2,0.7,0.4,1.3,0.9,1.3c0.2,0,0.5-0.2,0.7-0.5c0,0,0,0.1,0,0.1c0,0.1-0.3,0.5-0.4,0.6c-0.3,0.1-0.5,0.2-0.8,0.2
			c-0.5,0-0.8-0.7-1.1-1.5c-0.3-0.9-0.4-2.3-0.4-2.7c-0.1-0.1-0.2,0-0.3,0c-0.3,0-0.6,0.2-0.9,0.2c-0.2,0-0.5,0.1-0.6,0
			c-0.1-0.3-0.3-0.3-0.1-0.5c0.4-0.5,1.2-0.4,1.8-0.5c-0.2-1.2-0.2-3-0.1-3.4c0.1-0.1,0.2-0.1,0.3-0.2c0.2,0,0.4,0.1,0.5,0.3
			c0.1,0.1,0,0.2,0,0.4c0,0.1,0.1,0.2,0.2,0.2c0,0.1-0.1,0.4-0.1,0.4l0,2.1c0.5-0.1,1.6-0.2,2.1-0.2c0.2,0,0.5,0,0.7,0.1
			C560.9,303.4,560.9,303.5,560.8,303.5z"/>
		<path d="M563.4,308.8c-0.6,0-1.3-0.6-1.7-1c-0.4-0.5-0.8-1.4-0.8-2c0-0.7,0.2-1.5,0.8-2.2c0.4-0.5,0.6-0.7,1.2-1
			c0.4-0.2,1-0.3,1.5-0.2c0.4,0,0.9,0.1,0.9,0.5c0,0.2-0.1,0.4-0.1,0.6c0,0.2,0.1,0.3,0.2,0.3c0.4,0.5,1,0.9,1.1,1.7
			C566.6,307,565.1,308.8,563.4,308.8z M564.2,303.9c0-0.5-0.2-0.8-0.8-0.8c-0.1,0-0.3,0-0.4,0c-0.6,0.5-1.5,1.7-1.5,2.5
			c0,0.7,0.9,2.6,1.8,2.6c1.1,0,2.3-1.4,2.2-2.5C565.6,305.2,565.2,304,564.2,303.9z"/>
	</g>
	<g class="st46">
		<path d="M489.5,327.7L489.5,327.7c-0.3,0-0.4-0.1-0.5-0.3V327c0-0.6-0.1-1.2-0.1-1.8c-0.1-1.7-0.2-4-0.4-5.7c0-0.1,0,0,0-0.1
			c0-0.2,0.1-0.3,0.2-0.5c0.1,0,0.2-0.1,0.2-0.1c0.4,0,0.4,0.3,0.4,0.6c0,2.5,0.5,5.5,0.5,8C489.8,327.6,489.6,327.5,489.5,327.7z"
			/>
		<path d="M495.9,326.9c-0.5,0.5-1.1,0.7-1.8,0.7c-1.4,0-3.1-1-3.2-2.8c-0.2-0.1-0.6,0-0.6-0.5c0-0.5,0.3-0.4,0.5-0.5
			c0.2-1.7,1.8-2.8,3.5-2.8c0.9,0,2.4,0.5,2.4,1.7c0,1.4-2.2,1.9-3.3,1.9c-0.4,0-0.9,0.1-1.4,0.1c-0.2,0-0.3,0-0.4,0
			c0.1,1,1.2,2.2,2.5,2.2c0.4,0,1.2-0.3,1.5-0.7c0.7-0.2,0.9-1,1.7-1.1C497.2,325.9,496.4,326.5,495.9,326.9z M494.6,321.7
			c-1.4,0-3,1.2-3,2c0,0.1,0,0.1,0,0.2c0.2,0,0.3,0,0.5,0c0.3,0,0.6,0,0.9,0c0.7,0,2.5-0.2,2.9-0.8
			C495.8,322.1,495.2,321.7,494.6,321.7z"/>
		<path d="M505,327.5c-0.3,0-0.8,0-1-0.2c-0.4-0.2-1.2-1.3-1.3-1.7c-0.4,0.3-0.6,1-1,1.2c-0.5,0.3-1.5,0.6-2.1,0.6s-1.3-0.4-1.5-1
			c-0.1-0.2-0.1-0.5-0.1-0.8c0-0.9,0.3-2,1-2.8c0.5-0.7,1.2-1.3,2.1-1.3c0.3,0,0.6,0,0.8,0.2c0.2,0.3,0.5,0.5,0.7,0.6
			c0.2,0.1,0.3,0.1,0.5,0.1c0.1,0.4,0.1,0.8,0.1,1.2c0,1,0.5,2.2,1.1,2.9c0.1,0.2,0.3,0.4,0.8,0.4c0.3,0,0.7,0,1-0.2
			c0.1,0,0.2-0.3,0.3-0.2C506.1,326.9,505.4,327.5,505,327.5z M501.9,323.2c-0.3-0.3-0.5-0.8-1-1c-0.7,0.2-1.2,0.6-1.6,1.2
			c-0.4,0.7-0.8,1.2-0.8,1.9c0,0.4,0.1,0.9,0.4,1.2c0.2,0.1,0.4,0.1,0.6,0.1c1.6,0,2.6-0.8,2.6-2.4
			C502.1,324.1,501.9,323.3,501.9,323.2z"/>
		<path d="M510.3,321.7c0,0-0.1-0.1-0.1-0.1c0,0.1-0.2,0-0.3,0c-0.3,0-0.4,0-0.7,0c-1.5,0-2.5,1.6-2.5,2.9c0,0.5,0.1,1,0.2,1.4
			c0,0.3,0.2,0.7,0.2,1c0,0.3-0.2,0.4-0.5,0.3c-0.2,0-0.3-0.8-0.5-1.5c0-0.2-0.8-2.7-0.8-3c0-0.4-0.2-1,0.1-1.3
			c0.1,0,0.1-0.1,0.2-0.1c0.5,0,0.5,1.3,0.7,1.6c0.2,0,0.2-0.5,0.2-0.6c0.4-0.8,1.6-1.5,2.4-1.5c0.5,0,1,0.3,1.4,0.5
			c0,0,0.1,0.1,0.1,0.1C510.4,321.7,510.4,321.7,510.3,321.7z"/>
		<path d="M517.1,326.5c0,0.3-0.1,0.5-0.3,0.8l0,0.1c0,0.1-0.2,0.2-0.3,0.2c-0.2,0-0.2-0.2-0.4-0.2c0,0,0-0.1,0-0.1
			c0-0.3,0.3-0.4,0.2-0.7l0.1-0.1c0-0.1,0-0.1,0-0.2c0-0.8-0.2-1.5-0.4-2.2c0-0.1-0.5-1.8-2.1-1.8c-1.4,0-2,0.8-2,2.1
			c0,0.5,0.3,1.4,0.4,1.9c0,0.1-0.1,0.2-0.1,0.3c0,0.2,0.1,0.4,0.1,0.6c0,0.2-0.2,0.4-0.4,0.4c-0.2,0-0.3-0.2-0.4-0.2
			c-0.2-0.2-0.2-0.5-0.2-0.8c0-0.4-0.1-1.1-0.1-1.5c0-0.2,0-0.5-0.1-0.7c0-0.1,0-0.1,0-0.2c0-0.3-0.1-0.6-0.1-1
			c0-0.1-0.3-0.5-0.3-0.7c0-0.1,0-0.2,0.1-0.3c0,0,0.1,0,0.2,0c0.6,0,0.3,0.7,0.6,0.7c0.4-0.8,1.2-1.1,1.9-1.2
			c2.7-0.5,2.9,2,3.4,3.4c0.1,0.4,0.2,0.8,0.2,1.2L517.1,326.5z"/>
		<path d="M531,327.3c-0.2,0.1-0.5,0-0.5-0.3c0-0.5,0.3-1,0.3-1.5c0-1.4-1-3.2-2.6-3.2c-0.5,0-1.3,0.2-1.9,1.2
			c0.1,0.3,0.2,0.2,0.2,0.7c0,0.6,0.2,1.1,0.2,1.7c0,0.3-0.2,1.2-0.5,1.4c-0.5,0-0.4-0.7-0.6-1v-0.2c0-0.5,0.1-1.1,0.1-1.6
			c0-1.1-0.9-2.2-2.1-2.2c-0.8,0-1,0.5-1,1.2c0,1.3,0,2.5,0.1,3.8c0,0.1-0.2,0.1-0.3,0.2c-0.7-0.1-0.4-1-0.7-1.4
			c0.2-0.9,0-1.8,0.2-2.6c-0.1-0.4-0.2-0.9-0.2-1.3c0-0.2,0.1-0.5,0.3-0.5c0.2,0,0.5,0.3,0.5,0.5c0.2-0.2,0.9-0.4,1.2-0.4
			c1,0,1.8,0.7,2.3,1.5c0.5-0.7,1-1.4,2.3-1.4c1.6,0,2.1,0.7,2.8,1.9c0.3,0.6,0.4,1.6,0.4,2.3C531.4,326.2,531.3,327.1,531,327.3z"
			/>
		<path d="M534.3,327.6c-0.6,0-1.3-0.6-1.7-1c-0.4-0.5-0.8-1.4-0.8-2c0-0.7,0.2-1.5,0.8-2.2c0.4-0.5,0.6-0.7,1.2-1
			c0.4-0.2,1-0.3,1.5-0.2c0.4,0,0.9,0.1,0.9,0.5c0,0.2-0.1,0.4-0.1,0.6c0,0.2,0.1,0.3,0.2,0.3c0.4,0.5,1,0.9,1.1,1.7
			C537.5,325.8,536,327.6,534.3,327.6z M535.2,322.6c0-0.5-0.2-0.8-0.8-0.8c-0.1,0-0.3,0-0.4,0c-0.6,0.5-1.5,1.7-1.5,2.5
			c0,0.7,0.9,2.6,1.8,2.6c1.1,0,2.3-1.4,2.2-2.5C536.5,324,536.2,322.8,535.2,322.6z"/>
		<path d="M542.9,321.7c0,0-0.1-0.1-0.1-0.1c0,0.1-0.2,0-0.3,0c-0.3,0-0.4,0-0.7,0c-1.5,0-2.5,1.6-2.5,2.9c0,0.5,0.1,1,0.2,1.4
			c0,0.3,0.2,0.7,0.2,1c0,0.3-0.2,0.4-0.5,0.3c-0.2,0-0.3-0.8-0.5-1.5c0-0.2-0.8-2.7-0.8-3c0-0.4-0.2-1,0.1-1.3
			c0.1,0,0.1-0.1,0.2-0.1c0.5,0,0.5,1.3,0.7,1.6c0.2,0,0.2-0.5,0.2-0.6c0.4-0.8,1.6-1.5,2.4-1.5c0.5,0,1,0.3,1.4,0.5
			c0,0,0.1,0.1,0.1,0.1C543,321.7,543,321.7,542.9,321.7z"/>
		<path d="M548.3,326.9c-0.5,0.5-1.1,0.7-1.8,0.7c-1.4,0-3.1-1-3.2-2.8c-0.2-0.1-0.6,0-0.6-0.5c0-0.5,0.3-0.4,0.5-0.5
			c0.2-1.7,1.8-2.8,3.5-2.8c0.9,0,2.4,0.5,2.4,1.7c0,1.4-2.2,1.9-3.3,1.9c-0.4,0-0.9,0.1-1.4,0.1c-0.2,0-0.3,0-0.4,0
			c0.1,1,1.2,2.2,2.5,2.2c0.4,0,1.2-0.3,1.5-0.7c0.7-0.2,0.9-1,1.7-1.1C549.5,325.9,548.7,326.5,548.3,326.9z M546.9,321.7
			c-1.4,0-3,1.2-3,2c0,0.1,0,0.1,0,0.2c0.2,0,0.3,0,0.5,0c0.3,0,0.6,0,0.9,0c0.7,0,2.5-0.2,2.9-0.8
			C548.1,322.1,547.6,321.7,546.9,321.7z"/>
		<path d="M550.9,323.5c-0.5-1.7-0.2-4-0.5-5.6c-0.1-0.3,0-0.6,0.3-0.8c0.2-0.1,0.4,0.1,0.5,0.2c0.1,0.2,0.2,4.8,0.4,5.5
			c0,0.2,0.3,0.6,0,0.7C551.4,323.7,551.1,323.9,550.9,323.5z M551.9,327.1l-0.4,0.4c-0.3-0.1-0.5,0.1-0.7-0.2
			c-0.1-0.7,0-1.3,0.5-1.6c0.5-0.1,0.6,0.5,0.8,0.8C552.2,326.6,552.1,327,551.9,327.1z"/>
	</g>
	<g>
		<path class="st51" d="M584.9,287c1.7,3.5,3,7.7,3.8,12"/>
		<path class="st51" d="M585.2,288c-1.9,4.4-4.1,8.3-6.6,12.1"/>
		<path class="st52" d="M570.9,324.6c1.9,0,3.8-1,5.3-2.4c4.2-3.6,6.4-9.6,7.4-15.4c1-5.8,1-11.9,1.7-17.8"/>
	</g>
</g>
<g>
	<polygon class="st53" points="667.7,392.9 644,392.8 629.1,387.9 642.7,384.3 669.3,384 682.8,383.9 683.1,392.8 	"/>
	<polygon class="st36" points="644.2,392 642.9,385.1 669.7,384.7 682,384.7 682.2,392 667.5,392.2 	"/>
	<polygon class="st37" points="636.8,389.7 636.4,386.7 631.4,388 	"/>
	<path class="st54" d="M654.6,390.6L654.6,390.6c0,0.1,0,0.2-0.3,0.2H644c-0.1,0-0.4-0.1-0.3-0.2l0,0c0-0.1,0-0.2,0.3-0.2h10.3
		C654.5,390.4,654.6,390.5,654.6,390.6z"/>
	<path class="st54" d="M676.5,390.6L676.5,390.6c0,0.1,0,0.1-0.2,0.1l-19.1-0.1c-0.1,0-0.2,0-0.2-0.1l0,0c0-0.1,0-0.1,0.2-0.1
		l19.1,0.1C676.4,390.5,676.5,390.6,676.5,390.6z"/>
	<rect x="682.8" y="383.7" class="st55" width="3.1" height="9.3"/>
	<path class="st56" d="M687.4,393h-1.5v-9.3h1.5c2,0,3.6,1.6,3.6,3.6v2.2C690.9,391.4,689.3,393,687.4,393z"/>
</g>
<g>
	<g>
		<rect x="537.2" y="379.1" class="st57" width="53.9" height="15.8"/>
		<g>
			<path class="st58" d="M545,378.8c0,0,4.2,4.3,0.7,15.3H541c3.5-11-0.7-15.2-0.7-15.2L545,378.8z"/>
			<path class="st58" d="M585.4,378.8c0,0,4.2,4.3,0.7,15.3h-4.7c3.5-11-0.7-15.2-0.7-15.2L585.4,378.8z"/>
		</g>
		<g>
			<g>
				<rect x="494.5" y="378.8" class="st59" width="43" height="16.2"/>
				<path class="st2" d="M492,378.6h98.3c0,0,4.4,8.6,0,16.1l-98.3,0.1C492,394.8,498.4,385.6,492,378.6z"/>
			</g>
			<path class="st60" d="M535,378.8c0,0,4.7,7.7,0,16.1"/>
		</g>
		<path class="st4" d="M528.2,382.4h-17.6c-0.2,0-0.3,0.1-0.3,0.3v0.4c0,0.2,0.1,0.3,0.3,0.3h17.6c0.2,0,0.3-0.1,0.3-0.3v-0.4
			C528.5,382.6,528.3,382.4,528.2,382.4z"/>
		<path class="st4" d="M506.8,382.4h-7.1c-0.1,0-0.2,0.1-0.2,0.2v0.6c0,0.1,0.1,0.2,0.2,0.2h7.1c0.1,0,0.2-0.1,0.2-0.2v-0.6
			C507,382.5,506.9,382.4,506.8,382.4z"/>
		<path class="st61" d="M523.7,379c0,0,9.7,4.1,7.4,15.1h5.3l0.7-6.4l-1-5.4l-1-2.3l-2.3-1.4L523.7,379z"/>
	</g>
	<g>
		<rect x="540.9" y="362.2" class="st36" width="43.6" height="15.8"/>
		<g>
			<path class="st58" d="M547.3,361.9c0,0,3.4,5.2,0.6,15.2h-3.8c2.8-10-0.6-15.1-0.6-15.1L547.3,361.9z"/>
			<path class="st58" d="M580,361.9c0,0,3.4,5.2,0.6,15.2h-3.8c2.8-10-0.6-15.1-0.6-15.1L580,361.9z"/>
		</g>
		<g>
			<g>
				<rect x="506.4" y="361.9" class="st59" width="34.8" height="16.2"/>
				<path class="st2" d="M504.4,361.6h79.5c0,0,3.5,8.7,0,16.2l-79.5,0.1C504.4,377.8,509.6,368.6,504.4,361.6z"/>
			</g>
			<path class="st62" d="M539.2,361.9c0,0,3.8,7.7,0,16.1"/>
		</g>
		<path class="st4" d="M533.6,365.6h-14.2c-0.2,0-0.3,0.1-0.3,0.3v0.5c0,0.2,0.1,0.3,0.3,0.3h14.2c0.2,0,0.3-0.1,0.3-0.3v-0.5
			C533.9,365.7,533.8,365.6,533.6,365.6z"/>
		<path class="st4" d="M516.3,365.6h-5.7c-0.1,0-0.2,0.1-0.2,0.2v0.7c0,0.1,0.1,0.2,0.2,0.2h5.7c0.1,0,0.2-0.1,0.2-0.2v-0.7
			C516.5,365.7,516.4,365.6,516.3,365.6z"/>
		<path class="st61" d="M530,362.1c0,0,7.8,5,6,15h4.3l0.6-6.3l-0.8-5.3l-0.8-2.3l-1.9-1.4L530,362.1z"/>
	</g>
</g>
</svg>
