<?xml version="1.0" encoding="utf-8"?>
<!-- Generator: Adobe Illustrator 20.1.0, SVG Export Plug-In . SVG Version: 6.00 Build 0)  -->
<svg version="1.1" id="Layer_2" xmlns="http://www.w3.org/2000/svg" xmlns:xlink="http://www.w3.org/1999/xlink" x="0px" y="0px"
	 viewBox="0 0 1024 599.1" style="enable-background:new 0 0 1024 599.1;" xml:space="preserve">
<style type="text/css">
	.st0{fill:none;stroke:#77C9F7;stroke-width:3.3107;stroke-miterlimit:10;}
	.st1{fill:#77C9F7;}
	.st2{font-family:'MyriadPro-Regular';}
	.st3{font-size:120.7997px;}
	.st4{font-size:30px;}
	.st5{fill:none;stroke:#FCEE21;stroke-width:3.3107;stroke-miterlimit:10;}
	.st6{fill:#FCEE21;}
	.st7{fill:none;stroke:#F78F1F;stroke-width:3.3107;stroke-miterlimit:10;}
	.st8{fill:#F78F1F;}
	.st9{fill:none;stroke:#14ED9F;stroke-width:3.3107;stroke-miterlimit:10;}
	.st10{fill:#14ED9F;}
	.st11{fill:none;stroke:#ED1462;stroke-width:3.3107;stroke-miterlimit:10;}
	.st12{fill:#ED1462;}
	.st13{font-size:117px;}
</style>
<g>
	<g>
		<rect x="71.7" y="33.3" class="st0" width="139.8" height="139.8"/>
		<text transform="matrix(1 0 0 1 98.6408 130.9933)" class="st1 st2 st3">O</text>
		<text transform="matrix(1 0 0 1 93.4014 163.0663)" class="st1 st2 st4">oxygen</text>
	</g>
	<g>
		<rect x="812.5" y="33.3" class="st5" width="139.8" height="139.8"/>
		<text transform="matrix(1 0 0 1 835.2482 132.1168)" class="st6 st2 st3">Li</text>
		<text transform="matrix(1 0 0 1 835.2482 162.6699)" class="st6 st2 st4">lithium</text>
	</g>
	<g>
		<rect x="256.9" y="33.3" class="st7" width="139.8" height="139.8"/>
		<text transform="matrix(1 0 0 1 285.2139 130.9933)" class="st8 st2 st3">C</text>
		<text transform="matrix(1 0 0 1 282.2135 163.0663)" class="st8 st2 st4">carbon</text>
	</g>
	<g>
		<rect x="442.1" y="33.3" class="st9" width="139.8" height="139.8"/>
		<text transform="matrix(1 0 0 1 477.6797 130.9933)" class="st10 st2 st3">B</text>
		<text transform="matrix(1 0 0 1 472.0008 163.0663)" class="st10 st2 st4">boron</text>
	</g>
	<g>
		<rect x="627.3" y="33.3" class="st11" width="139.8" height="139.8"/>
		<text transform="matrix(1 0 0 1 628.2015 130.9933)" class="st12 st2 st13">He</text>
		<text transform="matrix(1 0 0 1 659.2056 163.0663)" class="st12 st2 st4">helium</text>
	</g>
</g>
</svg>
