<?xml version="1.0" encoding="utf-8"?>
<!-- Generator: Adobe Illustrator 20.1.0, SVG Export Plug-In . SVG Version: 6.00 Build 0)  -->
<svg version="1.1" id="Layer_1" xmlns="http://www.w3.org/2000/svg" xmlns:xlink="http://www.w3.org/1999/xlink" x="0px" y="0px"
	 viewBox="0 0 37 36" style="enable-background:new 0 0 37 36;" xml:space="preserve">
<style type="text/css">
	.st0{fill:#2B2E33;}
</style>
<path class="st0" d="M18.4,27.5c-5.3,0-9.5-4.3-9.5-9.5s4.3-9.5,9.5-9.5S28,12.7,28,18S23.7,27.5,18.4,27.5z M26.5,19.3
	c-0.3-0.1-2.5-0.8-5.1-0.3c1.1,2.9,1.5,5.3,1.6,5.8C24.8,23.5,26,21.6,26.5,19.3z M21.6,25.5c-0.1-0.7-0.6-3.2-1.8-6.2
	c0,0,0,0-0.1,0c-4.6,1.6-6.2,4.8-6.4,5.1c1.3,1.1,3.1,1.8,5,1.8C19.5,26.1,20.6,25.9,21.6,25.5L21.6,25.5z M12.4,23.4
	c0.2-0.3,2.4-4,6.6-5.4c0.1,0,0.3-0.1,0.3-0.1c-0.2-0.4-0.4-0.9-0.7-1.3c-4,1.2-8,1.2-8.4,1.2v0.3C10.3,20.1,11.1,22,12.4,23.4
	L12.4,23.4z M10.5,16.3c0.3,0,3.7,0,7.5-1c-1.3-2.4-2.8-4.4-3-4.7C12.7,11.7,11,13.8,10.5,16.3z M16.5,10.1c0.3,0.3,1.7,2.3,3,4.8
	c2.9-1.1,4.1-2.8,4.3-2.9c-1.4-1.3-3.3-2-5.4-2C17.7,9.9,17.2,10,16.5,10.1z M24.7,12.9c-0.2,0.3-1.5,2-4.5,3.2
	c0.2,0.4,0.3,0.8,0.5,1.2c0.1,0.2,0.1,0.3,0.2,0.4c2.7-0.3,5.4,0.2,5.6,0.3C26.5,16,25.9,14.2,24.7,12.9L24.7,12.9z"/>
</svg>
