<?xml version="1.0" encoding="utf-8"?>
<!-- Generator: Adobe Illustrator 20.1.0, SVG Export Plug-In . SVG Version: 6.00 Build 0)  -->
<svg version="1.1" id="Layer_1" xmlns="http://www.w3.org/2000/svg" xmlns:xlink="http://www.w3.org/1999/xlink" x="0px" y="0px"
	 viewBox="0 0 35 36" style="enable-background:new 0 0 35 36;" xml:space="preserve">
<style type="text/css">
	.st0{fill:#2B2E33;}
</style>
<path class="st0" d="M23.3,18.2c0,3.1-2.5,5.6-5.6,5.6S12,21.3,12,18.2c0-0.4,0-0.7,0.1-1.1H8.3v7.4c0,1.6,1.3,2.9,2.9,2.9H24
	c1.6,0,2.9-1.3,2.9-2.9v-7.4h-3.8C23.3,17.4,23.3,17.8,23.3,18.2z M24.1,8.8H11.4c-1.6,0-2.9,1.3-2.9,2.9v3.1h4.7
	c1.1-1.5,2.7-2.4,4.6-2.4s3.6,1,4.6,2.4h4.7v-3.1C27.1,10.1,25.8,8.8,24.1,8.8z M25.5,12.4c0,0.3-0.2,0.5-0.5,0.5h-1.6
	c-0.2,0-0.5-0.2-0.5-0.5v-1.6c0-0.2,0.2-0.5,0.5-0.5H25c0.2,0,0.5,0.2,0.5,0.5V12.4z M21.2,18.2c0-1.9-1.6-3.4-3.4-3.4
	c-1.9,0-3.4,1.6-3.4,3.4c0,2,1.6,3.4,3.4,3.4C19.6,21.7,21.2,20.1,21.2,18.2z"/>
</svg>
