<?xml version="1.0" encoding="utf-8"?>
<!-- Generator: Adobe Illustrator 19.2.1, SVG Export Plug-In . SVG Version: 6.00 Build 0)  -->
<svg version="1.1" xmlns="http://www.w3.org/2000/svg" xmlns:xlink="http://www.w3.org/1999/xlink" x="0px" y="0px"
	 viewBox="0 0 530 530" style="enable-background:new 0 0 530 530;" xml:space="preserve">
<style type="text/css">
	.st0{fill:url(#SVGID_1_);}
	.st1{opacity:0.85;fill:#FFFFFF;}
	.st2{opacity:0.97;fill:#FFFFFF;}
	.st3{opacity:0.8;fill:#FFFFFF;}
	.st4{fill:#DBDCD7;}
	.st5{fill:#CFC9BD;}
	.st6{fill:#FFFFFF;}
	.st7{fill:none;stroke:#FFFFFF;stroke-width:2;stroke-miterlimit:10;}
	.st8{fill:none;stroke:#FFFFFF;stroke-width:1.9773;stroke-miterlimit:10;}
	.st9{opacity:0.8;}
	.st10{fill:#6D85A7;}
	.st11{fill:none;stroke:#FFFFFF;stroke-width:0.4943;stroke-miterlimit:10;}
	.st12{fill:#D1CBC2;}
	.st13{fill:none;stroke:#D1CBC2;stroke-width:2;stroke-miterlimit:10;}
	.st14{fill:#C6C1B6;}
	.st15{fill:#D3D2D0;}
	.st16{fill:none;stroke:#FFFFFF;stroke-width:0.5;stroke-miterlimit:10;}
	.st17{fill:#E0E0E0;}
	.st18{fill:#F0F0F0;stroke:#F0F0F0;stroke-miterlimit:10;}
	.st19{fill:#DCDCDA;}
	.st20{fill:#BFBFBF;}
	.st21{fill:#D6D6D6;}
	.st22{fill:none;stroke:#C1C1C1;stroke-miterlimit:10;}
	.st23{fill:#E2E2E2;stroke:#D3D4CF;stroke-width:2.8498;stroke-miterlimit:10;}
	.st24{fill:#D3D1CF;}
	.st25{fill:#EFEFEF;}
	.st26{fill:#CCCCCC;}
	.st27{fill:#CBC7BE;stroke:#DDE0DB;stroke-width:6;stroke-miterlimit:10;}
	.st28{opacity:0.5;fill:none;stroke:#DDE0DB;stroke-width:0.75;stroke-miterlimit:10;}
	.st29{fill:none;stroke:#DDE0DB;stroke-width:2;stroke-miterlimit:10;}
	.st30{fill:none;stroke:#B4AFA7;stroke-width:2;stroke-miterlimit:10;}
	.st31{fill:#DBDAD5;stroke:#C3BDB2;stroke-miterlimit:10;}
	.st32{fill:#BCBCBC;}
	.st33{fill:#DCDBD6;}
	.st34{fill:#CECBC6;}
	.st35{fill:#DCD8D1;}
	.st36{fill:#D4D1D4;}
	.st37{fill:none;stroke:#D1CBC2;stroke-width:1.4119;stroke-miterlimit:10;}
	.st38{fill:#E5E5E5;stroke:#E5E5E5;stroke-miterlimit:10;}
	.st39{fill:#E5E5E5;}
	.st40{fill:#C3BDB2;stroke:#C3BDB2;stroke-miterlimit:10;}
	.st41{fill:#CAC7C8;stroke:#CAC7C8;stroke-miterlimit:10;}
	.st42{opacity:0.6;fill:#EFEFEF;stroke:#EFEFEF;stroke-miterlimit:10;}
	.st43{fill:#DDDED9;stroke:#DDDED9;stroke-miterlimit:10;}
	.st44{fill:#91919B;}
	.st45{fill:#F0F0F0;}
	.st46{fill:#6C92A5;}
	.st47{fill:#9AAFCF;}
	.st48{fill:#737476;stroke:#737476;stroke-miterlimit:10;}
	.st49{fill:#EFEFEF;stroke:#EFEFEF;stroke-miterlimit:10;}
	.st50{fill:#6D85A7;stroke:#EFEFEF;stroke-width:1.5574;stroke-miterlimit:10;}
</style>
<g id="day_sky">
	<g>
		<linearGradient id="SVGID_1_" gradientUnits="userSpaceOnUse" x1="265" y1="526.6305" x2="265" y2="11.0765">
			<stop  offset="0" style="stop-color:#BAE1E5"/>
			<stop  offset="0.1703" style="stop-color:#B1DCE2"/>
			<stop  offset="0.4525" style="stop-color:#97CFD9"/>
			<stop  offset="0.5674" style="stop-color:#8BC9D5"/>
			<stop  offset="0.9944" style="stop-color:#1276A0"/>
		</linearGradient>
		<path class="st0" d="M525,97.4v332.8c0,4.6-0.1,9.2-0.7,13.7c-0.2,1.7-0.5,3.4-0.9,5.1c-0.1,0.6-0.3,1.2-0.4,1.9
			c0,0.1,0,0.1,0,0.2c-0.2,0.8-0.4,1.6-0.6,2.4c-0.5,1.9-1,3.9-1.7,5.8c-0.4,1.1-0.8,2.3-1.2,3.4c0,0,0,0,0,0.1
			c-0.2,0.6-0.5,1.2-0.7,1.9c-0.2,0.5-0.4,1-0.6,1.4c-1.7,4.1-3.7,8.1-5.9,11.9c-0.5,0.8-1,1.6-1.5,2.4c-0.2,0.3-0.4,0.6-0.6,0.9
			c-1.1,1.7-2.2,3.3-3.4,4.9c0,0.1-0.1,0.1-0.1,0.2c-0.3,0.4-0.6,0.8-0.8,1.1c-0.3,0.3-0.5,0.7-0.8,1c-0.1,0.2-0.3,0.4-0.5,0.6
			c-0.6,0.7-1.2,1.4-1.8,2.1c-0.9,1.1-1.9,2.2-2.9,3.3c-1.2,1.3-2.4,2.5-3.7,3.8c-1.6,1.5-3.2,2.9-4.9,4.3c-0.2,0.1-0.3,0.2-0.5,0.4
			c-0.8,0.7-1.7,1.4-2.6,2c-0.4,0.3-0.9,0.7-1.3,1c0,0,0,0-0.1,0.1c-0.1,0.1-0.2,0.2-0.3,0.2h0c0,0,0,0-0.1,0
			c-1.3,1-2.7,1.9-4.1,2.8c-0.8,0.5-1.6,1-2.4,1.5c-1.4,0.8-2.8,1.6-4.2,2.4c-1.3,0.7-2.5,1.3-3.8,1.9c-0.6,0.3-1.2,0.6-1.8,0.8
			c-1.2,0.6-2.5,1.1-3.8,1.6c-0.6,0.2-1.2,0.5-1.8,0.7c-1.4,0.5-2.9,1-4.4,1.5c-0.3,0.1-0.7,0.2-1,0.3c-0.9,0.3-1.8,0.5-2.8,0.8
			c-0.2,0-0.3,0.1-0.5,0.1c-1.1,0.3-2.2,0.4-3.3,0.7c0,0,0-0.1,0-0.1h0c-2.2,1-4.4,1.1-6.6,1.4l0,0.1c-0.1,0-0.1,0.2-0.2,0.3
			c-0.6,0.1-1.2,0.2-1.8,0.3c-0.3,0-0.6,0.1-0.8,0.1c-0.1,0-0.3,0-0.4,0c-3.7,0.5-7.4,0.8-11.2,0.8H99.1c-0.5,0-1-0.2-1.6-0.2
			c-0.6,0-1.3-0.1-1.9-0.1c-0.5,0-1.1-0.1-1.6-0.1c-0.7,0-1.4-0.1-2.1-0.1c-0.5,0-1-0.1-1.5-0.1c0,0-0.1,0-0.1,0c-0.1,0-0.2,0-0.3,0
			c0,0-0.1,0-0.2,0s-0.1,0-0.2,0c-2.3-0.2-4.6-0.5-6.9-0.9c0,0,0,0,0,0c-0.7-0.1-1.4-0.2-2.1-0.4c-2.1-0.4-4.1-0.9-6.1-1.4
			c-3.6-1-7-2.1-10.4-3.4c-0.1,0-0.3-0.1-0.4-0.2c-1.1-0.4-2.2-0.9-3.2-1.4c-4.5-2-8.8-4.4-12.9-7.1c-0.6-0.4-1.3-0.8-1.9-1.3
			c0,0-0.1-0.1-0.2-0.1c0,0,0,0-0.1-0.1c-0.9-0.6-1.8-1.3-2.7-1.9c-1.9-1.4-3.7-2.8-5.5-4.3c-0.5-0.5-1-0.9-1.6-1.4
			c-0.1-0.1-0.2-0.1-0.2-0.2c-1.5-1.3-2.9-2.7-4.3-4.1c-0.7-0.7-1.3-1.4-1.9-2.1c0,0-0.1-0.1-0.1-0.1c-0.4-0.4-0.7-0.8-1-1.2
			c-0.4-0.4-0.8-0.9-1.2-1.3c-0.1-0.1-0.2-0.2-0.3-0.4c-0.5-0.5-0.9-1.1-1.4-1.7c-2.6-3.2-5-6.5-7.1-10c-3.5-5.8-6.4-12-8.6-18.5
			c0-0.1,0-0.2,0-0.3c-3.1-9.2-4.7-19-4.7-29.1V97.4C5,45.7,47.4,4,99.1,4h332.8C483.6,4,525,45.7,525,97.4z"/>
		<path class="st1" d="M179.8,33.1c-1,0-2,0.1-3,0.3c-2.3-5.7-7.8-9.6-14.2-9.6c-7.7,0-14.1,5.7-15.2,13.1c-0.1,0-0.1,0-0.2,0
			c-5.6,0-10.2,4.6-10.2,10.2c0,1.1,0.2,2.2,0.5,3.1c-2.4,0.1-4.5,2.1-4.5,4.5v0.3c0,2.5,2.1,4.9,4.6,4.9h41.9c0,0,0.1,0,0.1,0
			c0.1,0,0.1,0,0.2,0c7.3,0,13.2-6.1,13.2-13.4S187.1,33.1,179.8,33.1z"/>
		<path class="st2" d="M173.2,48.6c1.2,0,2.3,0.1,3.4,0.4c2.6-6.4,8.9-11,16.2-11c8.8,0,16,6.5,17.3,14.9c0.1,0,0.1,0,0.2,0
			c6.4,0,11.6,5.2,11.6,11.6c0,1.2-0.4,2.5-0.8,3.6c2.8,0.1,4.8,2.4,4.8,5.2v0.3c0,2.8-1.9,5.4-4.7,5.4h-47.7c0,0-0.1-0.1-0.1-0.1
			c-0.1,0-0.1,0-0.2,0c-8.3,0-15.1-6.8-15.1-15.1S164.9,48.6,173.2,48.6z"/>
		<path class="st2" d="M431.7,74.8c-1.1,0-2.2,0.1-3.3,0.4c-2.5-6.2-8.5-10.6-15.6-10.6c-8.4,0-15.4,6.2-16.6,14.3
			c-0.1,0-0.1,0-0.2,0c-6.2,0-11.2,5-11.2,11.2c0,1.2,0.5,2.4,0.8,3.4c-2.7,0.1-4.6,2.3-4.6,5v0.3c0,2.7,1.7,5.1,4.4,5.1h46
			c0,0,0.1-0.1,0.1-0.1c0.1,0,0.1,0,0.2,0c8,0,14.5-6.5,14.5-14.5S439.7,74.8,431.7,74.8z"/>
		<path class="st3" d="M428.9,185.2c1.5,0,2.9,0.2,4.3,0.5c3.2-7.9,11.1-13.4,20.2-13.4c10.9,0,20,7.9,21.6,18.2c0.1,0,0.2,0,0.2,0
			c8,0,14.5,6.4,14.5,14.2c0,1.5-0.4,3-0.8,4.4c3.5,0.1,6.1,2.9,6.1,6.3v0.4c0,3.5-2.6,7.3-6.2,7.3h-59.5c0,0-0.1-0.5-0.1-0.5
			c-0.1,0-0.2-0.2-0.3-0.2c-10.4,0-18.8-8.4-18.8-18.5C410.1,193.5,418.5,185.2,428.9,185.2z"/>
		<path class="st2" d="M445.4,199.6c-1,0-2,0.1-2.9,0.3c-2.2-5.5-7.6-9.4-13.8-9.4c-7.5,0-13.7,5.5-14.7,12.7c-0.1,0-0.1,0-0.2,0
			c-5.5,0-9.9,4.4-9.9,9.9c0,1.1,0.2,2.1,0.5,3.1c-2.4,0.1-4.3,2-4.3,4.4v0.3c0,2.4,1.9,5.1,4.4,5.1h40.7c0,0,0.1-0.3,0.1-0.3
			c0.1,0,0.1-0.2,0.2-0.2c7.1,0,12.9-5.8,12.9-12.9S452.5,199.6,445.4,199.6z"/>
		<path class="st1" d="M57.1,210.9c1.3,0,2.6,0.2,3.8,0.4c2.9-7.3,10-12.4,18.3-12.4c9.9,0,18.1,7.3,19.5,16.8c0.1,0,0.1,0,0.2,0
			c7.2,0,13.1,5.9,13.1,13.1c0,1.4-0.3,2.8-0.7,4c3.1,0.1,5.6,2.7,5.6,5.8v0.4c0,3.2-2.5,5.9-5.7,5.9H57.5c0,0-0.1,0-0.1,0
			c-0.1,0-0.2,0-0.2,0c-9.4,0-17-7.6-17-17C40.1,218.6,47.7,210.9,57.1,210.9z"/>
	</g>
</g>
<g id="trevi_fountain">
	<g>
		<path class="st4" d="M525,184v248.4c0,4,0,8-0.6,11.9c-0.1,0.4-0.1,0.9-0.2,1.3c-0.1,0.4-0.1,0.9-0.2,1.3
			c-0.1,0.9-0.3,1.7-0.4,2.6c-0.2,1.2-0.5,2.5-0.7,3.5H7.8c0,0,0-0.1,0-0.1C6,445.7,5,438.3,5,430.6V184H525z"/>
		<rect x="5" y="183.8" class="st5" width="520" height="7.6"/>
		<g>
			<g>
				<g>
					<rect x="34.5" y="234.1" class="st6" width="30.7" height="50.7"/>
					<polygon class="st7" points="34.5,234 49.9,223.6 65.2,234 					"/>
				</g>
				<rect x="34.5" y="284.9" class="st6" width="5.1" height="7.4"/>
				<rect x="59.5" y="284.9" class="st6" width="5.1" height="7.4"/>
				<line class="st8" x1="32.2" y1="283.9" x2="67.5" y2="283.9"/>
			</g>
			<g class="st9">
				<rect x="39.8" y="241.7" class="st10" width="20.2" height="39.4"/>
				<line class="st11" x1="49.9" y1="241.7" x2="49.9" y2="281.2"/>
				<line class="st11" x1="39.8" y1="268" x2="59.9" y2="268"/>
				<line class="st11" x1="39.8" y1="254.6" x2="59.9" y2="254.6"/>
			</g>
			<line class="st8" x1="37" y1="273.6" x2="62.7" y2="273.6"/>
			<line class="st8" x1="39.6" y1="273.6" x2="39.6" y2="281.2"/>
			<line class="st8" x1="43.6" y1="273.6" x2="43.6" y2="281.2"/>
			<line class="st8" x1="48.1" y1="273.6" x2="48.1" y2="281.2"/>
			<line class="st8" x1="51.9" y1="273.6" x2="51.9" y2="281.2"/>
			<line class="st8" x1="55.9" y1="273.6" x2="55.9" y2="281.2"/>
			<line class="st8" x1="59.9" y1="273.6" x2="59.9" y2="281.2"/>
		</g>
		<g>
			<g>
				<g>
					<rect x="88.5" y="234.1" class="st6" width="30.7" height="50.7"/>
					<polygon class="st7" points="88.5,234 103.9,223.6 119.2,234 					"/>
				</g>
				<rect x="88.5" y="284.9" class="st6" width="5.1" height="7.4"/>
				<rect x="113.5" y="284.9" class="st6" width="5.1" height="7.4"/>
				<line class="st8" x1="86.2" y1="283.9" x2="121.5" y2="283.9"/>
			</g>
			<g class="st9">
				<rect x="93.8" y="241.7" class="st10" width="20.2" height="39.4"/>
				<line class="st11" x1="103.9" y1="241.7" x2="103.9" y2="281.2"/>
				<line class="st11" x1="93.8" y1="268" x2="113.9" y2="268"/>
				<line class="st11" x1="93.8" y1="254.6" x2="113.9" y2="254.6"/>
			</g>
			<line class="st8" x1="91" y1="273.6" x2="116.7" y2="273.6"/>
			<line class="st8" x1="93.6" y1="273.6" x2="93.6" y2="281.2"/>
			<line class="st8" x1="97.6" y1="273.6" x2="97.6" y2="281.2"/>
			<line class="st8" x1="102.1" y1="273.6" x2="102.1" y2="281.2"/>
			<line class="st8" x1="105.9" y1="273.6" x2="105.9" y2="281.2"/>
			<line class="st8" x1="109.9" y1="273.6" x2="109.9" y2="281.2"/>
			<line class="st8" x1="113.9" y1="273.6" x2="113.9" y2="281.2"/>
		</g>
		<rect x="5" y="295.2" class="st12" width="520" height="5.7"/>
		<line class="st13" x1="3.9" y1="304.4" x2="524.7" y2="304.4"/>
		<g>
			<rect x="5" y="215.7" class="st14" width="520" height="5.8"/>
			<rect x="5" y="210.3" class="st5" width="520" height="5.8"/>
		</g>
		<rect x="126.4" y="191.4" class="st15" width="282.4" height="261.6"/>
		<g>
			<g>
				<g>
					<rect x="34.5" y="319.8" class="st6" width="30.7" height="51.9"/>
					<polygon class="st7" points="34.5,320 49.9,309.4 65.2,320 					"/>
				</g>
				<rect x="34.5" y="371.7" class="st6" width="5.1" height="7.6"/>
				<rect x="59.5" y="371.7" class="st6" width="5.1" height="7.6"/>
				<line class="st7" x1="32.2" y1="370.7" x2="67.5" y2="370.7"/>
			</g>
			<g class="st9">
				<rect x="39.8" y="327.6" class="st10" width="20.2" height="40.4"/>
				<line class="st16" x1="49.9" y1="327.6" x2="49.9" y2="367.9"/>
				<line class="st16" x1="39.8" y1="354.5" x2="59.9" y2="354.5"/>
				<line class="st16" x1="39.8" y1="340.7" x2="59.9" y2="340.7"/>
			</g>
			<line class="st7" x1="37" y1="360.2" x2="62.7" y2="360.2"/>
			<line class="st7" x1="39.6" y1="360.2" x2="39.6" y2="367.9"/>
			<line class="st7" x1="43.6" y1="360.2" x2="43.6" y2="367.9"/>
			<line class="st7" x1="48.1" y1="360.2" x2="48.1" y2="367.9"/>
			<line class="st7" x1="51.9" y1="360.2" x2="51.9" y2="367.9"/>
			<line class="st7" x1="55.9" y1="360.2" x2="55.9" y2="367.9"/>
			<line class="st7" x1="59.9" y1="360.2" x2="59.9" y2="367.9"/>
		</g>
		<g>
			<g>
				<g>
					<rect x="88.5" y="319.8" class="st6" width="30.7" height="51.9"/>
					<polygon class="st7" points="88.5,320 103.9,309.4 119.2,320 					"/>
				</g>
				<rect x="88.5" y="371.7" class="st6" width="5.1" height="7.6"/>
				<rect x="113.5" y="371.7" class="st6" width="5.1" height="7.6"/>
				<line class="st7" x1="86.2" y1="370.7" x2="121.5" y2="370.7"/>
			</g>
			<g class="st9">
				<rect x="93.8" y="327.6" class="st10" width="20.2" height="40.4"/>
				<line class="st16" x1="103.9" y1="327.6" x2="103.9" y2="367.9"/>
				<line class="st16" x1="93.8" y1="354.5" x2="113.9" y2="354.5"/>
				<line class="st16" x1="93.8" y1="340.7" x2="113.9" y2="340.7"/>
			</g>
			<line class="st7" x1="91" y1="360.2" x2="116.7" y2="360.2"/>
			<line class="st7" x1="93.6" y1="360.2" x2="93.6" y2="367.9"/>
			<line class="st7" x1="97.6" y1="360.2" x2="97.6" y2="367.9"/>
			<line class="st7" x1="102.1" y1="360.2" x2="102.1" y2="367.9"/>
			<line class="st7" x1="105.9" y1="360.2" x2="105.9" y2="367.9"/>
			<line class="st7" x1="109.9" y1="360.2" x2="109.9" y2="367.9"/>
			<line class="st7" x1="113.9" y1="360.2" x2="113.9" y2="367.9"/>
		</g>
		<g>
			<g>
				<g>
					<rect x="410.5" y="234.1" class="st6" width="30.7" height="50.7"/>
					<polygon class="st7" points="410.5,234 425.9,223.6 441.2,234 					"/>
				</g>
				<rect x="410.5" y="284.9" class="st6" width="5.1" height="7.4"/>
				<rect x="435.5" y="284.9" class="st6" width="5.1" height="7.4"/>
				<line class="st8" x1="408.2" y1="283.9" x2="443.5" y2="283.9"/>
			</g>
			<g class="st9">
				<rect x="415.8" y="241.7" class="st10" width="20.2" height="39.4"/>
				<line class="st11" x1="425.9" y1="241.7" x2="425.9" y2="281.2"/>
				<line class="st11" x1="415.8" y1="268" x2="435.9" y2="268"/>
				<line class="st11" x1="415.8" y1="254.6" x2="435.9" y2="254.6"/>
			</g>
			<line class="st8" x1="413" y1="273.6" x2="438.7" y2="273.6"/>
			<line class="st8" x1="415.6" y1="273.6" x2="415.6" y2="281.2"/>
			<line class="st8" x1="419.6" y1="273.6" x2="419.6" y2="281.2"/>
			<line class="st8" x1="424.1" y1="273.6" x2="424.1" y2="281.2"/>
			<line class="st8" x1="427.9" y1="273.6" x2="427.9" y2="281.2"/>
			<line class="st8" x1="431.9" y1="273.6" x2="431.9" y2="281.2"/>
			<line class="st8" x1="435.9" y1="273.6" x2="435.9" y2="281.2"/>
		</g>
		<g>
			<g>
				<g>
					<rect x="464.5" y="234.1" class="st6" width="30.7" height="50.7"/>
					<polygon class="st7" points="464.5,234 479.9,223.6 495.2,234 					"/>
				</g>
				<rect x="464.5" y="284.9" class="st6" width="5.1" height="7.4"/>
				<rect x="489.5" y="284.9" class="st6" width="5.1" height="7.4"/>
				<line class="st8" x1="462.2" y1="283.9" x2="497.5" y2="283.9"/>
			</g>
			<g class="st9">
				<rect x="469.8" y="241.7" class="st10" width="20.2" height="39.4"/>
				<line class="st11" x1="479.9" y1="241.7" x2="479.9" y2="281.2"/>
				<line class="st11" x1="469.8" y1="268" x2="489.9" y2="268"/>
				<line class="st11" x1="469.8" y1="254.6" x2="489.9" y2="254.6"/>
			</g>
			<line class="st8" x1="467" y1="273.6" x2="492.7" y2="273.6"/>
			<line class="st8" x1="469.6" y1="273.6" x2="469.6" y2="281.2"/>
			<line class="st8" x1="473.6" y1="273.6" x2="473.6" y2="281.2"/>
			<line class="st8" x1="478.1" y1="273.6" x2="478.1" y2="281.2"/>
			<line class="st8" x1="481.9" y1="273.6" x2="481.9" y2="281.2"/>
			<line class="st8" x1="485.9" y1="273.6" x2="485.9" y2="281.2"/>
			<line class="st8" x1="489.9" y1="273.6" x2="489.9" y2="281.2"/>
		</g>
		<g>
			<g>
				<g>
					<rect x="410.5" y="319.8" class="st6" width="30.7" height="51.9"/>
					<polygon class="st7" points="410.5,320 425.9,309.4 441.2,320 					"/>
				</g>
				<rect x="410.5" y="371.7" class="st6" width="5.1" height="7.6"/>
				<rect x="435.5" y="371.7" class="st6" width="5.1" height="7.6"/>
				<line class="st7" x1="408.2" y1="370.7" x2="443.5" y2="370.7"/>
			</g>
			<g class="st9">
				<rect x="415.8" y="327.6" class="st10" width="20.2" height="40.4"/>
				<line class="st16" x1="425.9" y1="327.6" x2="425.9" y2="367.9"/>
				<line class="st16" x1="415.8" y1="354.5" x2="435.9" y2="354.5"/>
				<line class="st16" x1="415.8" y1="340.7" x2="435.9" y2="340.7"/>
			</g>
			<line class="st7" x1="413" y1="360.2" x2="438.7" y2="360.2"/>
			<line class="st7" x1="415.6" y1="360.2" x2="415.6" y2="367.9"/>
			<line class="st7" x1="419.6" y1="360.2" x2="419.6" y2="367.9"/>
			<line class="st7" x1="424.1" y1="360.2" x2="424.1" y2="367.9"/>
			<line class="st7" x1="427.9" y1="360.2" x2="427.9" y2="367.9"/>
			<line class="st7" x1="431.9" y1="360.2" x2="431.9" y2="367.9"/>
			<line class="st7" x1="435.9" y1="360.2" x2="435.9" y2="367.9"/>
		</g>
		<g>
			<g>
				<g>
					<rect x="464.5" y="319.8" class="st6" width="30.7" height="51.9"/>
					<polygon class="st7" points="464.5,320 479.9,309.4 495.2,320 					"/>
				</g>
				<rect x="464.5" y="371.7" class="st6" width="5.1" height="7.6"/>
				<rect x="489.5" y="371.7" class="st6" width="5.1" height="7.6"/>
				<line class="st7" x1="462.2" y1="370.7" x2="497.5" y2="370.7"/>
			</g>
			<g class="st9">
				<rect x="469.8" y="327.6" class="st10" width="20.2" height="40.4"/>
				<line class="st16" x1="479.9" y1="327.6" x2="479.9" y2="367.9"/>
				<line class="st16" x1="469.8" y1="354.5" x2="489.9" y2="354.5"/>
				<line class="st16" x1="469.8" y1="340.7" x2="489.9" y2="340.7"/>
			</g>
			<line class="st7" x1="467" y1="360.2" x2="492.7" y2="360.2"/>
			<line class="st7" x1="469.6" y1="360.2" x2="469.6" y2="367.9"/>
			<line class="st7" x1="473.6" y1="360.2" x2="473.6" y2="367.9"/>
			<line class="st7" x1="478.1" y1="360.2" x2="478.1" y2="367.9"/>
			<line class="st7" x1="481.9" y1="360.2" x2="481.9" y2="367.9"/>
			<line class="st7" x1="485.9" y1="360.2" x2="485.9" y2="367.9"/>
			<line class="st7" x1="489.9" y1="360.2" x2="489.9" y2="367.9"/>
		</g>
		<polygon class="st17" points="113.5,135 121.6,146 122,146 122,192 409,192 409,146 417.7,135 		"/>
		<g>
			<polygon class="st18" points="494.7,391.5 502.5,375.6 502.5,257 498.5,240 498.5,221.5 522.5,221.5 522.5,241 517.5,256.8 
				517.5,376 524.7,391.5 			"/>
			<polygon class="st19" points="517.6,256.8 501.7,257 497.4,240 523.4,240 518.1,256.7 			"/>
		</g>
		<g>
			<polygon class="st18" points="435.7,391.5 443.5,375.6 443.5,257 439.5,240 439.5,221.5 463.5,221.5 463.5,241 458.5,256.8 
				458.5,376 465.7,391.5 			"/>
			<polygon class="st19" points="458.6,256.8 442.7,257 438.4,240 464.4,240 459.1,256.7 			"/>
		</g>
		<g>
			<polygon class="st18" points="62.7,391.5 70.5,375.6 70.5,257 66.5,240 66.5,221.5 90.5,221.5 90.5,241 85.5,256.8 85.5,376 
				92.7,391.5 			"/>
			<polygon class="st19" points="85.6,256.8 69.7,257 65.4,240 91.4,240 86.1,256.7 			"/>
		</g>
		<g>
			<polygon class="st18" points="7.7,391.5 15.5,375.6 15.5,257 11.5,240 11.5,221.5 35.5,221.5 35.5,241 30.5,256.8 30.5,376 
				37.7,391.5 			"/>
			<polygon class="st19" points="30.6,256.8 14.7,257 10.4,240 36.4,240 31.1,256.7 			"/>
		</g>
		<path class="st20" d="M113.5,118l5.5,5h10v12h275v-12.2l9.6,0.2l6.4-5H113.5z M146,133h-4v-10h4V133z M152,133h-3v-10h3V133z
			 M158,133h-4v-10h4V133z M163,133h-4v-10h4V133z M172,133h-4v-10h4V133z M178,133h-4v-10h4V133z M183,133h-3v-10h3V133z M189,133
			h-4v-10h4V133z M348,133h-4v-10h4V133z M354,133h-4v-10h4V133z M360,133h-4v-10h4V133z M365,133h-4v-10h4V133z M374,133h-4v-10h4
			V133z M380,133h-4v-10h4V133z M385,133h-4v-10h4V133z M391,133h-4v-10h4V133z"/>
		<g>
			<path class="st21" d="M525,391v40.8c0,4.1,0,8.2-0.6,12.2c-0.1,0.5-0.1,0.9-0.2,1.4c-0.1,0.4-0.1,0.9-0.2,1.3
				c-0.1,0.9-0.3,1.7-0.4,2.6c-0.2,1.2-0.5,2.4-0.7,3.6c0,0,0,0.1,0,0.1H7.8c0,0,0-0.1,0-0.1C6,445.5,5,437.8,5,429.9V391H525z"/>
			<line class="st22" x1="5" y1="399.5" x2="525" y2="399.5"/>
			<line class="st22" x1="5" y1="391.5" x2="525" y2="391.5"/>
			<line class="st22" x1="5" y1="412.5" x2="525" y2="412.5"/>
			<line class="st22" x1="5" y1="424.5" x2="525" y2="424.5"/>
			<line class="st22" x1="5" y1="438.5" x2="525" y2="438.5"/>
		</g>
		<g>
			<rect x="39.9" y="394.6" class="st10" width="20.2" height="40.4"/>
			<line class="st16" x1="49.9" y1="394.6" x2="49.9" y2="434.9"/>
			<line class="st16" x1="39.9" y1="421.5" x2="60" y2="421.5"/>
			<line class="st16" x1="39.9" y1="407.7" x2="60" y2="407.7"/>
		</g>
		<g>
			<rect x="98.2" y="394.6" class="st10" width="20.2" height="40.4"/>
			<line class="st16" x1="108.3" y1="394.6" x2="108.3" y2="434.9"/>
			<line class="st16" x1="98.2" y1="421.5" x2="118.4" y2="421.5"/>
			<line class="st16" x1="98.2" y1="407.7" x2="118.4" y2="407.7"/>
		</g>
		<g>
			<rect x="411.5" y="394.6" class="st10" width="20.2" height="40.4"/>
			<line class="st16" x1="421.5" y1="394.6" x2="421.5" y2="434.9"/>
			<line class="st16" x1="411.5" y1="421.5" x2="431.6" y2="421.5"/>
			<line class="st16" x1="411.5" y1="407.7" x2="431.6" y2="407.7"/>
		</g>
		<g>
			<rect x="469.8" y="394.6" class="st10" width="20.2" height="40.4"/>
			<line class="st16" x1="479.9" y1="394.6" x2="479.9" y2="434.9"/>
			<line class="st16" x1="469.8" y1="421.5" x2="490" y2="421.5"/>
			<line class="st16" x1="469.8" y1="407.7" x2="490" y2="407.7"/>
		</g>
		<g>
			<rect x="150.2" y="153.3" class="st23" width="33.8" height="31.4"/>
			<rect x="154.9" y="158.6" class="st24" width="24.4" height="20.9"/>
		</g>
		<g>
			<rect x="342.6" y="153.3" class="st23" width="33.8" height="31.4"/>
			<rect x="347.3" y="158.6" class="st24" width="24.4" height="20.9"/>
		</g>
		<rect x="218.7" y="153.3" class="st25" width="97.2" height="31.4"/>
		<polygon class="st26" points="121.8,146 113.5,135 418,135 409,146 		"/>
		<g>
			<path class="st27" d="M267,241.5c-27.3,0-49.5,22.5-49.5,49.5h98.9C316.5,264,294.3,241.5,267,241.5z"/>
			<line class="st28" x1="242.4" y1="248.2" x2="226.4" y2="291"/>
			<line class="st28" x1="302.6" y1="258.6" x2="289.9" y2="292.5"/>
			<line class="st28" x1="309" y1="265" x2="298.5" y2="293.2"/>
			<line class="st28" x1="314" y1="272.3" x2="306.3" y2="293.2"/>
			<line class="st28" x1="251.9" y1="245.2" x2="234.9" y2="291"/>
			<line class="st28" x1="295.9" y1="249.5" x2="278.9" y2="295.2"/>
			<line class="st28" x1="262" y1="244.2" x2="244.9" y2="290"/>
			<line class="st28" x1="271.5" y1="244.2" x2="254.5" y2="290"/>
			<line class="st28" x1="280.4" y1="245.2" x2="263.3" y2="291"/>
			<line class="st28" x1="288.6" y1="246.7" x2="271.5" y2="292.5"/>
			<line class="st28" x1="239.3" y1="248.2" x2="255.3" y2="291"/>
			<line class="st28" x1="247.6" y1="246.5" x2="263.6" y2="289.3"/>
			<line class="st28" x1="257" y1="245.6" x2="273" y2="288.5"/>
			<line class="st28" x1="264.4" y1="242.6" x2="281.6" y2="288.5"/>
			<line class="st28" x1="272.2" y1="242.6" x2="289.3" y2="288.5"/>
			<line class="st28" x1="280.4" y1="242.6" x2="297.5" y2="288.5"/>
			<line class="st28" x1="287.7" y1="243.6" x2="304.8" y2="289.5"/>
			<line class="st28" x1="296.9" y1="249.5" x2="313.3" y2="290"/>
			<line class="st28" x1="234.1" y1="254.2" x2="247.8" y2="291"/>
			<line class="st28" x1="229.1" y1="259.2" x2="241.3" y2="291.9"/>
			<line class="st28" x1="223.6" y1="264" x2="234.9" y2="291"/>
			<line class="st28" x1="220" y1="275.6" x2="228.1" y2="292.6"/>
			<g>
				<g>
					<path class="st29" d="M263,242.5c0,0-21.6,17.3-22.1,46.5"/>
					<path class="st29" d="M257,242.5c0,0-21.6,17.3-22.1,46.5"/>
				</g>
				<g>
					<path class="st29" d="M271.9,243.5c0,0,21.6,17.3,22.1,46.5"/>
					<path class="st29" d="M277.9,243.5c0,0,21.6,17.3,22.1,46.5"/>
				</g>
			</g>
			<path class="st30" d="M255.7,245.9c0,0,2,7.1,10.3,7c8.3-0.2,8.8-7.5,8.8-7.5"/>
		</g>
		<rect x="153.9" y="238.3" class="st31" width="35.7" height="48.7"/>
		<g>
			<g>
				<g>
					<rect x="153.9" y="314.1" class="st32" width="35.7" height="79.4"/>
					<rect x="345.8" y="314.1" class="st32" width="36.3" height="79.4"/>
					<rect x="211.5" y="298.6" class="st32" width="112.5" height="94.9"/>
				</g>
				<rect x="346.2" y="238.3" class="st31" width="35.7" height="48.7"/>
			</g>
			<g>
				<rect x="138.6" y="221.4" class="st33" width="253" height="12.9"/>
				<rect x="138.6" y="225.4" class="st34" width="253" height="4.9"/>
			</g>
		</g>
		<g>
			<rect x="125.3" y="201" class="st35" width="282.4" height="19.7"/>
			<rect x="125.3" y="207.3" class="st34" width="282.4" height="6"/>
		</g>
		<polygon class="st36" points="124.5,201 118,192 416,192 407,201 		"/>
		<rect x="135.6" y="291.9" class="st12" width="259.2" height="5.7"/>
		<line class="st37" x1="135" y1="301.1" x2="394.6" y2="301.1"/>
		<polygon class="st38" points="123.8,392.5 131.5,376.6 131.5,236.8 127.5,219.4 127.5,200.5 151.5,200.5 151.5,220.4 146.5,236.6 
			146.5,376.9 153.4,392.5 		"/>
		<polygon class="st19" points="146.4,236.6 130.6,236.6 126.4,219 152.2,219 146.9,236.3 		"/>
		<polygon class="st38" points="189.1,392.5 196.5,376.6 196.5,236.8 192.5,219.4 192.5,200.5 216.5,200.5 216.5,220.4 211.5,236.6 
			211.5,376.9 218.7,392.5 		"/>
		<polygon class="st19" points="211.7,236.6 195.9,236.6 191.7,219 217.5,219 212.2,236.3 		"/>
		<polygon class="st38" points="315.7,392.5 323.5,376.6 323.5,236.8 319.5,219.4 319.5,200.5 343.5,200.5 343.5,220.4 338.5,236.6 
			338.5,376.9 345.4,392.5 		"/>
		<polygon class="st19" points="338.3,236.6 322.5,236.6 318.3,219 344.1,219 338.8,236.3 		"/>
		<polygon class="st38" points="379,392.5 386.5,376.6 386.5,236.8 382.5,219.4 382.5,200.5 406.5,200.5 406.5,220.4 401.5,236.6 
			401.5,376.9 408.7,392.5 		"/>
		<polygon class="st19" points="401.6,236.6 385.9,236.6 381.7,219 407.4,219 402.2,236.3 		"/>
		<polygon class="st39" points="239,394 239,311 235.7,302 251,302 247,311.1 247,394 		"/>
		<polygon class="st39" points="287,394 287,311 283.7,302 299,302 295,311.1 295,394 		"/>
		<polygon class="st40" points="183.2,286.5 153.5,286.5 153.5,255 153.5,250.5 160.5,250.5 161.5,253.9 163.8,247.6 168.5,248.1 
			168.5,251 166.1,255.6 170.8,257.9 181.3,255.1 175.7,261.1 168.5,262.8 168.5,268 172.6,270.1 177.1,270.6 179.3,261.3 
			185,260.1 186.5,264.8 186.5,270 189.1,272.6 186.6,277.8 185.5,284.3 		"/>
		<path class="st40" d="M347.5,287v-4.5h7.2l-0.7-6h-7.6V271c0,0,0.9-3.9,5.1-3.1c4.2,0.8,5.3,2.3,5.3,2.3l4.8-2.5l-2.2-7.2h-5.7
			l-1.6-3.9l-1.5-10.6l3.8,2.3l2.3,6.4l4.8,0.8V249l5.6,1.1l4.1,2.6l-0.8,5.3l3.8,2.6l4.7-7.9l2.5,0.8V287"/>
		<g>
			<path class="st41" d="M329.3,84.2c-1.3,0.3-7.4-1.2-7.4-1.2c-5.2-4.5-9.3-2-9.3-2l-6.3,1.8l1.2-3.3l1.4-1.3l-0.9-1.3l-0.5-1.4
				l-1.1-1.9h-2.2l-3.2,2.5l-1.9,2.1l-2.9-1.1l-1.9,1.3c0,0-5.7,6.5-8,1.3c-2.3-5.2,6-6.6,6-6.6l1.7-5.7l1.4-1.7l-1-0.9h-2.6
				l0.7,1.6l-1.5-0.5l-0.6-1.1l-2.9-0.3l0.4-1.2l-1-2l0.2-2.3l2.9-1l0.5-1.9l-0.6-1.1l-3.5-0.3v1.2l-5.9,1.5
				c-4.3-4.4-5.9,1.1-5.9,1.1l-1.2,0.1c0,0-0.2-12.2-6.9-10c-6.7,2.1-5.6,10.4-5.6,10.4l-1.3-0.7c-2-4.5-5.7,0-5.7,0l-6.6-2.2h-0.9
				h-1.8h-1.7l0.4,1h2.5l1.4,2l-1.6,3.5v2l-1.1,1.4l-0.3,2l-2.5,1l1.3,2.2l2.8,1.5c0,0-1.5-3,3.5-0.5c4.9,2.4,5.8-0.8,5.9-1
				c-0.8,2.7,3.2,3.4,3.2,3.4s2,4.3-1.1,5.5c-3.1,1.3-5.3-2.5-5.3-2.5l0.7-2c0,0-0.8-2.2-4.4-1.9c-3.5,0.3-2.5,3.4-2.5,3.4
				c-4.2,0.3-3.7,4.9-3.7,4.9c-3,0-4,2.9-4,2.9l-2.5-2.4l-2.5-3.9l-2-1.9l-4.7-1l-2,2l0.2,2.7l2,1.5l0.7,2.4l-3.7,1.5
				c0,0-6.9-7.6-10.4-3.2c-3.5,4.4-8.3,5.1-8.3,5.1s-2,0.1-2.5,1.6s2.4,2.8,2.4,2.8h3.4l4.4,1.2l-6.2,1.8l2.6,3v-2.2l4.9-1.2
				c5.9,2.5,7.2-0.2,7.2-0.2l3.7-1.3l-3.9,4.7c-4.4,0-6.2,3.7-6.2,3.7l-0.5,2.4l3.6,11.5l-7.2,1.6l1.6,3.6l12.1-2.3l-2.6,8.6
				l5.6,1.6l9.9-7.2c12.5,21.6,24.3,5.3,24.3,5.3c4,4.1,5.8,0.9,5.8,0.9s1.5,0.3,3.2,1.3c1.7,0.9,2.9-1.6,2.9-1.6
				c17.3,14.1,24.6-2.5,24.6-2.5l2-2.7l1.3-4.2l3.7-1.3l4.7,4.7l3.9,3.5l2.2-0.8l0.8-3.7c0,0,5.2,3.4,6.4-1c1.2-4.4-3.7-4.2-3.7-4.2
				l-1,1.9l-2.9-4.4c0.8-2.4-1.9-5.4-1.9-5.4s4.5,4.7,5,1.3c0.5-3.4-1.7-7.2-1.7-7.2l1-2.2l-2.5-3c0,0-3.9-6.4-0.8-4.8
				c3,1.6,9.1,1.3,9.1,1.3l7.6-1.3l1-4.6C332,86,330.7,83.8,329.3,84.2z"/>
			<path class="st42" d="M266.7,124.3c-14.4-10.4-7.3-18.3-7.3-18.3c0-5.5-6.6-12.5-6.6-12.5c-2.7-7.6,3.5-11.9,3.5-11.9l3.3,5.9
				l7.1-7.9h0.4l7.1,7.9l3.3-5.9c0,0,6.2,4.4,3.5,11.9c0,0-6.6,7-6.6,12.5c0,0,7.1,8-7.3,18.3L266.7,124.3z"/>
		</g>
		<path class="st25" d="M338,179.1v-7.8l0.3-8.1l4.2-5.7l1.6-8.1v-6.2l-0.7-3.4l-1.9-3.8h-4.5l-1.4,2.8l1.7,2.9l3.3-0.8l1.1,5.2
			l-4.8,0.9l-3.3,0.9l-1.1-3.6c0,0-1.1-1.4-3.3-1.6c-2.3-0.2-2.1,3-2.1,3v4l-1.7,2.3l-3.7,1.4l-1.6,3.9v4.9l2,8.4v6.6l0.8,5.4
			l-1.8,3.1v6.3h19.8l0-6l-1.1-2.6l-1.5-1.8L338,179.1z"/>
		<path class="st25" d="M146,179.1v-7.8l0.3-8.1l4.2-5.7l1.6-8.1v-6.2l-0.7-3.4l-1.9-3.8h-4.5l-1.4,2.8l1.7,2.9l3.3-0.8l1.1,5.2
			l-4.8,0.9l-3.3,0.9l-1.1-3.6c0,0-1.1-1.4-3.3-1.6c-2.3-0.2-2.1,3-2.1,3v4l-1.7,2.3l-3.7,1.4l-1.6,3.9v4.9l2,8.4v6.6l0.8,5.4
			l-1.8,3.1v6.3h19.8l0-6l-1.1-2.6l-1.5-1.8L146,179.1z"/>
		<path class="st25" d="M198,179.1v-7.8l-0.3-8.1l-4.2-5.7l-1.6-8.1v-6.2l0.7-3.4l1.9-3.8h4.5l1.4,2.8l-1.7,2.9l-3.3-0.8l-1.1,5.2
			l4.8,0.9l3.3,0.9l1.1-3.6c0,0,1.1-1.4,3.3-1.6c2.3-0.2,2.1,3,2.1,3v4l1.7,2.3l3.7,1.4l1.6,3.9v4.9l-2,8.4v6.6l-0.8,5.4l1.8,3.1
			v6.3h-19.8l0-6l1.1-2.6l1.5-1.8L198,179.1z"/>
		<path class="st25" d="M388,179.1v-7.8l-0.3-8.1l-4.2-5.7l-1.6-8.1v-6.2l0.7-3.4l1.9-3.8h4.5l1.4,2.8l-1.7,2.9l-3.3-0.8l-1.1,5.2
			l4.8,0.9l3.3,0.9l1.1-3.6c0,0,1.1-1.4,3.3-1.6c2.3-0.2,2.1,3,2.1,3v4l1.7,2.3l3.7,1.4l1.6,3.9v4.9l-2,8.4v6.6l-0.8,5.4l1.8,3.1
			v6.3h-19.8l0-6l1.1-2.6l1.5-1.8L388,179.1z"/>
		<path class="st43" d="M157.8,392.5l1-4.8l3.7-1.7c0,0,3.1-6.5,0.9-11.7c-2.2-5.2-5.7-6.9-5.7-6.9h-2.2v-4.3l2-2.6l2.3-1l1.1-5.5
			l1.4-4.4l2.3-1.8v-4.4l2.5-2l3.5-2.8v-5l-0.4-2c0,0,0.8-3.1,2.5-3.6c1.7-0.5,5.7,1.1,5.7,1.1s0.9,2.7,0.4,4c-0.5,1.3-2.2,3-2.2,3
			v2.7l2.5,0.3l1.5,2.7l2.7,3.9l1.4,1.7l1.1,4.4c0,0,3.6,3.5,0,9.9l-1.4,1.7c0,0,1.2,9.4-0.9,13.9c0,0,4.6-1,3.9,6.5l-0.8,3.3
			l-0.9,5.5H157.8z"/>
		<path class="st43" d="M379.8,332.3l0.6,3.9l1.1,6l-0.8,7.1c0,0-2.4,5.3-4.7,6c-2.3,0.7-3.5,4.8-3.5,4.8v4.8l2.3,5.9l0,6.8l0.8,6.5
			l1.1,4.1l1.8,1l-0.4,3.4h-27.4l-0.1-0.9l-2.2-3.4v-5.4l5-3.4v-5.9l-4-5.1v-4.9l-0.8-6.2l-1.7-3.4c0,0,3-7.7,7.1-10.3
			c0,0,3.4-8.6,9.4-7.1v-3l-2.1-4.3c0,0,0.2-3,2.4-3.4c2.2-0.4,5.7,0,5.7,0s1.2,2.5,1.2,4.6s-2.1,2.9-2.1,2.9v3.5l4.6,0.4l1.5,4.5
			l2.5,3.8l1.5-5.9v-2.8l1.6-4.6l2.1-6.5"/>
		<rect x="122.7" y="392.5" class="st44" width="286" height="60.5"/>
		<polygon class="st45" points="224,392 224,310.8 220.7,302 236,302 232,310.8 232,392 		"/>
		<polygon class="st45" points="301,393 301,310.8 297.7,302 313,302 309,310.9 309,393 		"/>
		<g>
			<path class="st46" d="M522.8,453C522.8,453,522.8,453,522.8,453c-0.1,0.3-0.2,0.6-0.2,0.9c-0.5,1.9-1,3.8-1.6,5.7
				c-0.4,1.1-0.8,2.3-1.2,3.4c0,0,0,0,0,0.1c-0.2,0.6-0.5,1.2-0.7,1.9c-0.2,0.5-0.4,1-0.6,1.4c-6.4,15.4-16.7,28.8-29.8,38.8
				c-0.4,0.3-0.9,0.5-1.3,0.8c-0.1,0.1-0.2,0.1-0.3,0.1h0c0,0,0,0.2-0.1,0.2c-8.2,5.9-17.3,10.6-27.2,13.6c-1.1,0.3-2.1,0.7-3.2,1
				c-1.1,0.3-2.2,0.6-3.3,0.8c0,0,0,0,0,0c0,0,0,0,0,0c-2.2,0.5-4.4,0.9-6.6,1.2l0,0c-0.1,0-0.1,0-0.2,0c-4.6,0.7-9.4,1-14.2,1H99.4
				c-0.5,0-1.1,0-1.6,0c-7.9-0.1-15.7-1.2-23-3.2c-4.8-1.3-9.5-3-14-5c-5.3-2.4-10.3-5.2-15-8.5c-2.8-2-5.5-4-8.1-6.3
				c0,0-0.1-0.1-0.1-0.1c-2.1-1.8-4-3.6-5.9-5.6c-4.9-5.1-9.4-10.7-13-16.8c-4.7-7.8-8.4-16.3-10.7-25.4c0,0,0-0.1,0-0.1H522.8z"/>
			<path class="st47" d="M78.1,499.7c0,0,32.4,2.3,59.8-8.5c27.4-10.8,52.1-5.9,52.1-5.9s93.8,22.6,156.7,0
				c62.9-22.6,58.8,6.7,58.8,6.7s35.8,10.9,59.5,6c23.6-4.9-33.4-75-33.4-75L356,433.7l-83-38L171.7,441l-79,6.8L78.1,499.7z"/>
			<path class="st48" d="M524.1,446.2c0,0.2-0.1,0.4-0.1,0.6c-0.1,0.8-0.3,1.7-0.4,2.5c-0.2,1.2-0.5,2.3-0.7,3.5c0,0,0,0.1,0,0.1
				c-0.1,0.3-0.1,0.6-0.2,0.8c-0.5,1.9-1,3.9-1.6,5.8c-0.4,1.1-0.8,2.3-1.2,3.4c0,0,0,0,0,0.1c-0.2,0.6-0.5,1.2-0.7,1.9
				c-0.2,0.5-0.4,1-0.6,1.4c-5.4,13.1-13.7,24.7-24,34L465,498c0,0-47.6-55-76.9-47.5c0,0,19,22.9,17.4,41.4c0,0-26.5,1.6-38.7-7.5
				l-20.1,0.8l-8.3-47.4c0,0-7.5-15.8-35.5-7.9c0,0,4.7-17.4-9.9-15.8c0,0-21.7-20.5-44.6-0.4c0,0-12.6-3.1-11.8,14.2
				c0,0-33.2-1.6-36.7,12.2c-3.6,13.8-9.9,45-9.9,45s-29.2,7.1-52.1,5.9C115,490,153.7,449,153.7,449s-44.6-1.1-75.6,50.8
				c0,0-16.9,2-37.5,3.7c-1-0.8-2-1.6-3-2.5c0,0-0.1-0.1-0.1-0.1c-2.1-1.8-4-3.6-5.9-5.6c-4.9-5.1-9.4-10.7-13-16.8
				c-4.7-7.8-8.4-16.4-10.7-25.5c0,0,0-0.1,0-0.1c-0.4-1.6-0.8-3.3-1.1-5c6.4-1.6,14.5-2.7,24.5-2.7c0,0,1.8-13.8,25.6-16.5l9.1-15
				c0,0,6.7,2.8,24.1-3.6l13.5,5.5V408l25.7-2.6l10.7,2.1h8.1l56.7,5l13.5-17h13.3V372c0,0,0.7-16.1,19.1-19.3
				c18.4-3.2,23.2-2.7,23.2-2.7s31.3,0,30.8,37.3l8.1,22.2l30.3,6l28.7,7c0,0,5.9-13.5,28.1-16.2c22.2-2.7,35.1,5.9,35.1,5.9
				s11.3-4.9,22.2,2.7c0,0,15.7-2.3,22.7,13.2l4.2,6.3c0,0,18.5-2.7,20,12.7C504,447.1,512.9,445.4,524.1,446.2z"/>
			<path class="st49" d="M274.9,383.5h-10.5l-18.5,1.7c0,0,14-19.3,12.7-25.7c0,0-8.7-1.9-8.3-13.3l-3-4.3l-1.3-5.2l5.7-10.8
				l6.3-6.2l4.6-3.2v-5.1c0,0,4.9-7.5,8.6,0l-0.6,9.7l4.5,4.8l3.5,10.8v5.6l2.4,8.4l4.3,7.5l-3.3,7.3l1.3,8l2,2.8l5,1l-2.5,1.5
				l-3.2,0.1l-2.8,1.4l-1.7-4.7l-2.4-5c0,0-0.1,6.5-0.7,7.7C276.4,379.6,274.9,383.5,274.9,383.5z"/>
			<path class="st49" d="M230.7,385.8c-0.9,0.9-1.9-4.7-1.9-4.7s-2.8,1.4,0,5.7s0,3.4,0,3.4l-3.7-2.2l-5.6-0.2V385v-5.9l-8.6-0.7
				l-1.6,6l-5.1-0.4l-6.3-1.1l-6.7-3.7l-7.1-3.7l2.6-5.1l-1-3.8H180l-10.1,6.9l-0.4,7.5l-4.8,9.2l-7.1,4.8l-6.3-1.9l-9.3,5.5
				l-2.7,9.1h5.3c1.5-6,7-9.1,7-9.1l5,2.1l-5,10h5.3l3-6.1l4,2.1h5.3l3.5,9h8.2h4.8h20.4l5.2-4.4c0,0-1.3-2.4-1.4-5.3
				c-0.1-2.9,1.2-3.7,1.2-3.7l3.1-4.3l6.1-2.8l3.6-0.5h5.4l3.8-2.2C235.8,392.3,231.7,384.9,230.7,385.8z M199.9,393.5
				c0,0-3.7,3.3-7.7,2c0,0-11.8-1.4-11.4-13.9l2.8-1.8l11.3,6.5l6.7,1.4L199.9,393.5z"/>
			<path class="st49" d="M384.9,407.2l-3.1-7.6l-2.2-5l1.4-2.5l3.1-2.4l-0.8-3.9l-4.3-2.1l-7.2,3.2l-6.3,0.3l-4.8-1.1l-4.4-4.3
				l-6-8.3l-4.7,0.7l-8,0.6l-5.4,7.2l-6,10.5l-5.1,1.6l-5.6,5.9l-2.4,10.3l8.9,1.1l2.9-3.7l2.9,0.7l-0.6,2.7l2.6,9.5l5-1.2l-1.8-7.1
				l0.7-4.1l2.9,3.5l2.2-4.6l1.3,1.9l-0.9,4.1l0.6,5.3l2.9,0.7l1.5-2.3l-0.7-8.9l4.5,3.1l5.5,0l1.4,5.1l0.5,2.7l6.8,1.3l0.8-3.3
				l1.4,3.7l7.4,1.4l-1.3-11.3c0,0,5.5-8.9,4.7-5.6c-0.8,3.3,7.3,7.5,7.3,7.5l2.7-0.5L384.9,407.2z M360.9,400.3l-4.5,4.2l-1.9-1.4
				l-6.4-1.5l-6.3-3.1l-3.1-5.9l3.4-0.5l3.5-1l-0.6-3.7l1.3-5.8l3.9,0.7l5.9,7.8l8.2,1.9L360.9,400.3z"/>
		</g>
		<rect x="42.9" y="194" class="st50" width="14" height="14"/>
		<rect x="96.9" y="194" class="st50" width="14" height="14"/>
		<rect x="419.6" y="193.5" class="st50" width="14" height="14"/>
		<rect x="473.6" y="193.5" class="st50" width="14" height="14"/>
	</g>
</g>
</svg>
