<?xml version="1.0" encoding="utf-8"?>
<!-- Generator: Adobe Illustrator 20.1.0, SVG Export Plug-In . SVG Version: 6.00 Build 0)  -->
<svg version="1.1" id="Layer_1" xmlns="http://www.w3.org/2000/svg" xmlns:xlink="http://www.w3.org/1999/xlink" x="0px" y="0px"
	 viewBox="0 0 36 36" style="enable-background:new 0 0 36 36;" xml:space="preserve">
<style type="text/css">
	.st0{fill:#2B2E33;}
</style>
<path class="st0" d="M12.9,10.7c0,1.1-0.8,2-2.2,2s-2.1-0.9-2.1-2c0-1.2,0.8-2,2.2-2C12.1,8.7,12.9,9.6,12.9,10.7z M8.7,14.4h4.1
	v13.1H8.7V14.4z M15.2,18.6c0-1.7-0.1-3-0.1-4.2h3.5l0.2,1.8h0.1c0.5-0.8,1.8-2.1,4.1-2.1c2.7,0,4.7,1.8,4.7,5.7v7.8h-4.1v-7.3
	c0-1.7-0.6-2.8-2.1-2.8c-1.1,0-1.8,0.8-2.1,1.5c-0.1,0.3-0.2,0.7-0.2,1v7.6h-4.1L15.2,18.6L15.2,18.6z"/>
</svg>
