<?xml version="1.0" encoding="utf-8"?>
<!-- Generator: Adobe Illustrator 20.1.0, SVG Export Plug-In . SVG Version: 6.00 Build 0)  -->
<svg version="1.1" id="Layer_1" xmlns="http://www.w3.org/2000/svg" xmlns:xlink="http://www.w3.org/1999/xlink" x="0px" y="0px"
	 viewBox="0 0 1024 330.5" style="enable-background:new 0 0 1024 330.5;" xml:space="preserve">
<style type="text/css">
	.st0{fill:#F78F1F;}
	.st1{fill:#ED1462;}
	.st2{fill:#14ED9F;}
</style>
<g id="Layer_3">
</g>
<circle class="st0" cx="659" cy="212.9" r="2.1"/>
<circle class="st0" cx="721.3" cy="229.9" r="2.9"/>
<circle class="st0" cx="416.7" cy="222.1" r="3.2"/>
<circle class="st1" cx="451.7" cy="215" r="1.6"/>
<circle class="st1" cx="700.7" cy="212" r="1.6"/>
<ellipse transform="matrix(0.8296 -0.5583 0.5583 0.8296 -4.4242 414.0893)" class="st1" cx="676.3" cy="214.3" rx="1.9" ry="1.9"/>
<circle class="st2" cx="381.2" cy="215.9" r="1.6"/>
<circle class="st2" cx="626.2" cy="213.9" r="1.6"/>
<circle class="st2" cx="626.2" cy="213.9" r="1.6"/>
<ellipse transform="matrix(0.8296 -0.5583 0.5583 0.8296 -10.8394 397.066)" class="st2" cx="645.2" cy="216.3" rx="1.9" ry="1.9"/>
<ellipse transform="matrix(0.5583 -0.8296 0.8296 0.5583 1.1223 215.4576)" class="st2" cx="202.9" cy="106.7" rx="1.2" ry="1.2"/>
<circle class="st0" cx="139.3" cy="111.3" r="1.6"/>
<circle class="st0" cx="145.6" cy="128" r="1.5"/>
<ellipse transform="matrix(0.8296 -0.5583 0.5583 0.8296 -47.0218 97.7678)" class="st1" cx="136.7" cy="125.9" rx="2.1" ry="2.1"/>
<circle class="st1" cx="128.9" cy="139" r="1.5"/>
<circle class="st1" cx="144.1" cy="103" r="1.5"/>
<ellipse transform="matrix(0.5583 -0.8296 0.8296 0.5583 -31.6099 175.6574)" class="st2" cx="149.2" cy="117.5" rx="2.1" ry="2.1"/>
<circle class="st2" cx="136.7" cy="137.5" r="1.5"/>
<circle class="st2" cx="132.5" cy="115.4" r="1.5"/>
<g>
	
		<ellipse transform="matrix(0.3998 -0.9166 0.9166 0.3998 160.5375 533.8583)" class="st0" cx="487.9" cy="144.3" rx="1.6" ry="1.6"/>
	
		<ellipse transform="matrix(0.3998 -0.9166 0.9166 0.3998 169.1837 535.5571)" class="st1" cx="493.5" cy="138.6" rx="1.5" ry="1.5"/>
	
		<ellipse transform="matrix(0.3998 -0.9166 0.9166 0.3998 165.5321 525.9772)" class="st2" cx="484.4" cy="136.6" rx="1.5" ry="1.5"/>
</g>
</svg>
