<?xml version="1.0" encoding="utf-8"?>
<!-- Generator: Adobe Illustrator 20.1.0, SVG Export Plug-In . SVG Version: 6.00 Build 0)  -->
<svg version="1.1" id="Layer_1" xmlns="http://www.w3.org/2000/svg" xmlns:xlink="http://www.w3.org/1999/xlink" x="0px" y="0px"
	 viewBox="0 0 1024 330.5" style="enable-background:new 0 0 1024 330.5;" xml:space="preserve">
<style type="text/css">
	.st0{fill:#F78F1F;}
	.st1{fill:#ED1462;}
	.st2{fill:#14ED9F;}
</style>
<g id="Layer_3">
</g>
<circle class="st0" cx="665.4" cy="207.1" r="1.6"/>
<circle class="st0" cx="719.8" cy="216.2" r="1.5"/>
<circle class="st0" cx="412" cy="212.9" r="2.1"/>
<ellipse transform="matrix(0.8296 -0.5583 0.5583 0.8296 -40.5607 283.4675)" class="st1" cx="444.2" cy="208.2" rx="2.1" ry="2.1"/>
<ellipse transform="matrix(0.8296 -0.5583 0.5583 0.8296 3.5359 421.9731)" class="st1" cx="693.2" cy="205.2" rx="2.1" ry="2.1"/>
<circle class="st1" cx="683.2" cy="220.4" r="1.5"/>
<ellipse transform="matrix(0.5583 -0.8296 0.8296 0.5583 -1.7714 414.8831)" class="st2" cx="388.8" cy="209.1" rx="2.1" ry="2.1"/>
<ellipse transform="matrix(0.5583 -0.8296 0.8296 0.5583 107.9867 617.0999)" class="st2" cx="633.6" cy="207.1" rx="2.1" ry="2.1"/>
<circle class="st2" cx="652.1" cy="222.4" r="1.5"/>
<circle class="st0" cx="982.4" cy="161.1" r="1.5"/>
<ellipse transform="matrix(0.8296 -0.5583 0.5583 0.8296 77.0861 570.6375)" class="st1" cx="973.5" cy="159" rx="2.1" ry="2.1"/>
<circle class="st1" cx="980.9" cy="136.1" r="1.5"/>
<circle class="st2" cx="973.6" cy="170.7" r="1.5"/>
<circle class="st2" cx="969.4" cy="148.5" r="1.5"/>
<ellipse transform="matrix(0.5583 -0.8296 0.8296 0.5583 -3.1854 219.2209)" class="st2" cx="204.3" cy="112.6" rx="1.5" ry="1.5"/>
<g>
	<circle class="st0" cx="134.7" cy="92.5" r="1.6"/>
	<circle class="st0" cx="128.4" cy="109.3" r="1.5"/>
	
		<ellipse transform="matrix(0.5583 -0.8296 0.8296 0.5583 -26.245 159.0507)" class="st1" cx="136.3" cy="104.2" rx="2.1" ry="2.1"/>
	<circle class="st1" cx="129.9" cy="84.3" r="1.5"/>
	<ellipse transform="matrix(0.8296 -0.5583 0.5583 0.8296 -33.9043 86.5006)" class="st2" cx="124.8" cy="98.8" rx="2.1" ry="2.1"/>
	<circle class="st2" cx="141.5" cy="96.7" r="1.5"/>
</g>
<g>
	
		<ellipse transform="matrix(3.972502e-02 -0.9992 0.9992 3.972502e-02 340.594 614.9835)" class="st0" cx="490.3" cy="130.3" rx="1.6" ry="1.6"/>
	
		<ellipse transform="matrix(3.972502e-02 -0.9992 0.9992 3.972502e-02 351.0119 611.0219)" class="st1" cx="493.4" cy="122.9" rx="1.5" ry="1.5"/>
</g>
</svg>
