<?xml version="1.0" encoding="utf-8"?>
<!-- Generator: Adobe Illustrator 20.1.0, SVG Export Plug-In . SVG Version: 6.00 Build 0)  -->
<svg version="1.1" id="Layer_1" xmlns="http://www.w3.org/2000/svg" xmlns:xlink="http://www.w3.org/1999/xlink" x="0px" y="0px"
	 viewBox="0 0 1024 330.5" style="enable-background:new 0 0 1024 330.5;" xml:space="preserve">
<style type="text/css">
	.st0{fill:#F78225;}
	.st1{fill:#FCEE21;}
	.st2{fill:none;stroke:#673D6D;stroke-width:2.933;stroke-miterlimit:10;}
</style>
<g id="Layer_3">
</g>
<g>
	<path class="st0" d="M83.9,227c0,3-2.4,5.4-5.4,5.4s-5.4-2.4-5.4-5.4s5.4-14.6,5.4-14.6S83.9,224,83.9,227z"/>
	<path class="st1" d="M81.3,229.9c0,1.7-1.4,3.1-3.1,3.1s-3.1-1.4-3.1-3.1c0-1.7,3.1-8.3,3.1-8.3S81.3,228.2,81.3,229.9z"/>
	<path class="st2" d="M84.4,226.8c0,3.5-2.8,6.3-6.3,6.3s-6.3-2.8-6.3-6.3s6.3-16.8,6.3-16.8S84.4,223.4,84.4,226.8z"/>
</g>
</svg>
