<?xml version="1.0" encoding="utf-8"?>
<!-- Generator: Adobe Illustrator 20.1.0, SVG Export Plug-In . SVG Version: 6.00 Build 0)  -->
<svg version="1.1" id="Layer_1" xmlns="http://www.w3.org/2000/svg" xmlns:xlink="http://www.w3.org/1999/xlink" x="0px" y="0px"
	 viewBox="0 0 1024 330.5" style="enable-background:new 0 0 1024 330.5;" xml:space="preserve">
<style type="text/css">
	.st0{fill:#F78225;}
	.st1{fill:#FCEE21;}
	.st2{fill:none;stroke:#673D6D;stroke-width:3.0175;stroke-miterlimit:10;}
</style>
<g id="Layer_3">
</g>
<g>
	<path class="st0" d="M301.6,224c0,3.1-2.5,5.6-5.6,5.6s-5.6-2.5-5.6-5.6s5.6-15,5.6-15S301.6,221,301.6,224z"/>
	<path class="st1" d="M298.8,227c0,1.8-1.4,3.2-3.2,3.2c-1.8,0-3.2-1.4-3.2-3.2s3.2-8.6,3.2-8.6S298.8,225.3,298.8,227z"/>
	<path class="st2" d="M302.4,223.9c0,3.6-2.9,6.4-6.4,6.4s-6.4-2.9-6.4-6.4c0-3.6,6.4-17.3,6.4-17.3S302.4,220.4,302.4,223.9z"/>
</g>
</svg>
