<?xml version="1.0" encoding="utf-8"?>
<!-- Generator: Adobe Illustrator 20.1.0, SVG Export Plug-In . SVG Version: 6.00 Build 0)  -->
<svg version="1.1" id="Layer_1" xmlns="http://www.w3.org/2000/svg" xmlns:xlink="http://www.w3.org/1999/xlink" x="0px" y="0px"
	 viewBox="0 0 1024 330.5" style="enable-background:new 0 0 1024 330.5;" xml:space="preserve">
<style type="text/css">
	.st0{fill:#DFE1E0;}
	.st1{fill:none;stroke:#673D6D;stroke-width:5.2389;stroke-miterlimit:10;}
	.st2{fill:#EAF6F7;}
	.st3{fill:#77C9F7;}
	.st4{fill:none;stroke:#673D6D;stroke-width:3;stroke-miterlimit:10;}
	.st5{fill:#14ED9F;}
	.st6{fill:none;stroke:#673D6D;stroke-width:2.7552;stroke-miterlimit:10;}
	.st7{fill:#673D6D;}
	.st8{fill:#ED1462;}
	.st9{fill:#F78F1F;}
	.st10{fill:none;stroke:#673D6D;stroke-width:3.0175;stroke-miterlimit:10;}
	.st11{fill:#CECFD1;stroke:#673D6D;stroke-width:3.0175;stroke-miterlimit:10;}
	.st12{fill:#777777;stroke:#673D6D;stroke-width:3;stroke-miterlimit:10;}
	.st13{fill:#B2B4B1;stroke:#673D6D;stroke-width:3.0175;stroke-miterlimit:10;}
	.st14{fill:#777777;stroke:#673D6D;stroke-width:3.0175;stroke-miterlimit:10;}
	.st15{opacity:0.3;fill:#673D6D;enable-background:new    ;}
	.st16{fill:#EAF6F7;stroke:#673D6D;stroke-width:3.0175;stroke-miterlimit:10;}
	.st17{fill:#ED1462;stroke:#673D6D;stroke-width:3.0175;stroke-miterlimit:10;}
	.st18{fill:#77C9F7;stroke:#673D6D;stroke-width:3.0175;stroke-miterlimit:10;}
	.st19{fill:#999A9B;stroke:#673D6D;stroke-width:3.0175;stroke-miterlimit:10;}
	.st20{fill:#CECFD1;stroke:#673D6D;stroke-width:3;stroke-miterlimit:10;}
	.st21{fill:#CECFD1;stroke:#673D6D;stroke-width:3.2677;stroke-miterlimit:10;}
	.st22{fill:#999A9B;stroke:#673D6D;stroke-width:3.2677;stroke-miterlimit:10;}
	.st23{fill:#D2B28C;stroke:#673D6D;stroke-width:3.2677;stroke-miterlimit:10;}
	.st24{fill:#EAF6F7;stroke:#673D6D;stroke-width:3.2677;stroke-miterlimit:10;}
	.st25{fill:none;stroke:#673D6D;stroke-width:3.6022;stroke-miterlimit:10;}
	.st26{fill:#D2B28C;stroke:#673D6D;stroke-width:3.6022;stroke-miterlimit:10;}
	.st27{fill:#ED1462;stroke:#673D6D;stroke-width:2;stroke-miterlimit:10;}
	.st28{fill:#EAF6F7;stroke:#673D6D;stroke-width:2.933;stroke-miterlimit:10;}
	.st29{fill:#CECFD1;stroke:#673D6D;stroke-width:2.933;stroke-miterlimit:10;}
	.st30{fill:#999A9B;stroke:#673D6D;stroke-width:2.933;stroke-miterlimit:10;}
	.st31{fill:#777777;stroke:#673D6D;stroke-width:2;stroke-miterlimit:10;}
	.st32{fill:#B2B4B1;stroke:#673D6D;stroke-width:2.933;stroke-miterlimit:10;}
	.st33{fill:#777777;stroke:#673D6D;stroke-width:2.933;stroke-miterlimit:10;}
	.st34{fill:#F2F2F2;stroke:#673D6D;stroke-width:3.0175;stroke-miterlimit:10;}
	.st35{fill:none;stroke:#673D6D;stroke-width:0.6035;stroke-miterlimit:10;}
</style>
<g id="Layer_3">
</g>
<g id="table">
	<rect y="313.4" class="st0" width="1024" height="17.2"/>
	<line class="st1" x1="0" y1="313.4" x2="1024" y2="313.4"/>
</g>
<path class="st2" d="M541.1,251.2c-3.4-22.2-6.4-23.2-1.5-45.3c0.5-2.1,4-4.2,5.5-5.9c5.7-6.2,13-3.4,19.1-10.4
	c6.2-7.2,5.9-18.8-0.5-25.6c-9.1-9.7-21.9-11.7-36.4-12c-8.1-0.2-16.2,2.2-24.3,2.1c-6.2-0.1-15.1,1.5-20.6-1.3
	c-1.6-0.8-5-3-6.1-4.3c-1.3-1.4-3.5-3-4.2-4.7c-1.9-4.5-2.9-12.9-3-17.5c-0.2-4.1-0.1-7-0.3-10.8c-0.4-6.9,1.9-14-0.3-20.7
	c-4.5-13.8-13.9-22-30.9-22.1c-22.9-0.2-30.6,12.2-31.7,21.5c-1.4,11.3,3.8,34.6,0,45.4c-1.8,5.2-8,10.3-21.4,10.5s-21.5-4.5-22-8.7
	c-1.2-10.2,2.7-31.1,0-41.2c-2.8-10.4-11.9-27.4-34.1-28.2c-22.6-0.8-35.6,16.5-33.2,34.2c0.6,4.1,6.6-6.6,6.1-5.7
	c2.3-4,0.7-8.5,4.4-12.7c12.8-14.1,40.6-7.3,45.1,9.3c3.9,14.3-3.5,29.2,0.9,43.6c3.9,12.7,16.6,20.8,31.9,20.3
	c22-0.7,29.5-13.5,31.3-22.2c2.1-10.3-1.5-31.4,0-41.7c0.9-6.1,4.5-14.9,21.6-15.9c30.3-1.9,22.4,30.9,22.3,46.5
	c-0.1,9.4,2,19.4,9.4,26.2c5.8,5.4,14.3,8.1,22.8,9.1c17,1.9,35.1-4.4,51.7-1.2c6.9,1.3,13.4,5.1,15.8,10.8
	c2.9,6.9-1.9,14.2-10.4,15c-3.9,0.4-8.2,0.3-11.1,2.5c-1.6,1.2-2.5,3-3.2,4.8c-5.2,13.7-3.6,31.1-2.1,45.2
	C532.2,245.3,535.2,252,541.1,251.2z"/>
<path class="st3" d="M469,116.2c0.4-0.1-1-0.2-0.6-0.1c0.9,0.2,0.5,2.8,0.3,3.5c-0.3,1.3-1.4,2.7-1.1,4c1,5.2,2.1,15,4.3,20.4
	c0.7,1.7,2.9,3.3,4.2,4.7c1.2,1.3,2.5,2.4,4.1,3.3c5.5,2.8,14.4,2.2,20.6,2.3c8.1,0.1,18.2-2.3,26.3-2.1c14.5,0.3,27.3,2.3,36.4,12
	c6.4,6.8,6.7,18.4,0.5,25.6c-5.7,6.6-12.3,4.5-18.2,9.5c-1.6,1.4-6,4.8-6.4,6.7c-3.6,15.4-2.2,31.1-2.6,15.4
	c-1.6-56-4.9-5.7-5.4-10.7c-1.5-14.1-3-1.9,2.2-15.6c0.7-1.8,1.6-3.6,3.2-4.8c2.9-2.2,7.2-2.1,11.1-2.5c8.5-0.8,13.3-8.1,10.4-15
	c-2.3-5.7-8.9-9.5-15.8-10.8c-16.6-3.2-34.7,3.1-51.7,1.2c-8.5-0.9-17-3.7-22.8-9.1c-7.5-6.9-9.5-16.8-9.4-26.2l0,0
	c-0.3-1.1-0.6-10.3,0-11.3c0.2-0.3,0.7,0,0.9,0.1c0.8,0.4,1.6,0.7,2.4,0.8c2.1,0.2,2.2-5.8,3.8-7.2c0.2-0.2,2.9,3.2,3.1,3.1
	c0.3-0.1-1.2-0.1-0.9-0.1c0.2,0-0.3,1.9-0.1,2.1C468.3,115.4,468.5,116.3,469,116.2L469,116.2z"/>
<path class="st4" d="M541.1,251.2c-2.3-15-4.8-31.4-1.5-46.3c0.5-2.1,4-4.2,5.5-5.9c5.7-6.2,12-2.4,18.1-9.4
	c6.2-7.2,6.9-18.8,0.5-25.6c-9.1-9.7-19.9-10.7-34.4-11c-8.1-0.2-21.2,2.2-29.3,2.1c-6.2-0.1-16.1-0.5-21.6-3.3
	c-1.6-0.8-3-2-4.1-3.3c-1.3-1.4-2.5-3-3.2-4.7c-1.9-4.5-2.9-11.9-3-16.5c-0.1-3.6-0.1-7.2-0.3-10.8c-0.4-6.9-0.1-18-2.3-24.7
	c-4.5-13.8-10.9-19-27.9-19.1c-22.9-0.2-29.6,12.2-30.7,21.5c-1.4,11.3,2.8,34.6-1,45.4c-1.8,5.2-10,12.3-23.4,12.5
	s-20.5-9.5-21-13.7c-1.2-10.2-0.9-28.8-1-39.2c-0.2-13.3-9.2-26.4-32.1-27.2c-22.6-0.8-35.6,16.5-33.2,34.2c0.6,4.1,6.6-6.6,6.1-5.7
	c2.3-4,2.7-9.5,6.4-13.7c12.8-14.1,39.6-9.3,44.1,7.3c3.7,13.6-2.8,31.3,1.9,46.6c3.9,12.7,14.6,20.8,29.9,20.3
	c22-0.7,29.5-13.5,31.3-22.2c2.1-10.3-1.5-31.4,0-41.7c0.9-6.1,4.5-14.9,21.6-15.9c30.3-1.9,22.4,30.9,22.3,46.5
	c-0.1,9.4,2,19.4,9.4,26.2c5.8,5.4,14.3,8.1,22.8,9.1c17,1.9,35.1-4.4,51.7-1.2c6.9,1.3,13.4,5.1,15.8,10.8
	c2.9,6.9-1.9,14.2-10.4,15c-3.9,0.4-8.2,0.3-11.1,2.5c-1.6,1.2-2.5,3-3.2,4.8c-5.2,13.7-3.6,31.1-2.1,45.2
	C532.2,245.3,535.2,252,541.1,251.2z"/>
<g>
	<g>
		<g>
			<g>
				<polygon class="st5" points="665.2,285.5 676.6,302 677.9,305.9 677.6,308.7 675.2,310.5 623.4,310.5 621,307.6 621,303.9 
					633.2,285.5 				"/>
				<g>
					<polygon class="st2" points="665.2,285.5 633.3,285.5 643,268.8 643,245.5 641.2,244.6 637.5,242.1 638.5,239.8 641.9,238.6 
						659.7,239 661.2,240 662.1,241.5 661,243.7 659.1,245.1 656.7,245.2 657,249.7 656.7,269.6 					"/>
					<g>
						<path class="st4" d="M656.5,245v24.4l20.2,32.8c0,0,4.4,7.8-1.7,7.8s-50.4,0-50.4,0s-5.7-0.5-1.7-7.9l20.6-33.4V245H656.5z"/>
						<path class="st6" d="M640.6,245.1h18.5c1.7,0,3.1-1.4,3.1-3.1l0,0c0-1.7-1.4-3.1-3.1-3.1h-18.5c-1.7,0-3.1,1.4-3.1,3.1l0,0
							C637.5,243.8,638.9,245.1,640.6,245.1z"/>
					</g>
				</g>
			</g>
			<g>
				<circle class="st5" cx="651.8" cy="275.7" r="2.9"/>
				<circle class="st5" cx="648" cy="264.8" r="1.9"/>
				<circle class="st5" cx="652.3" cy="256.6" r="1.5"/>
			</g>
		</g>
		<path class="st7" d="M641.4,307h29.4c0.4,0,0.6-0.3,0.6-0.6l0,0c0-0.4-0.3-0.6-0.6-0.6h-29.4c-0.4,0-0.6,0.3-0.6,0.6l0,0
			C640.8,306.7,641,307,641.4,307z"/>
		<path class="st7" d="M629.4,307h7.7c0.4,0,0.6-0.3,0.6-0.6l0,0c0-0.4-0.3-0.6-0.6-0.6h-7.7c-0.4,0-0.6,0.3-0.6,0.6l0,0
			C628.7,306.7,629,307,629.4,307z"/>
	</g>
</g>
<g>
	<g>
		<g>
			<g>
				<polygon class="st8" points="694.3,285.5 705.7,302 707,305.9 706.7,308.7 704.3,310.5 652.5,310.5 650.1,307.6 650.1,303.9 
					662.3,285.5 				"/>
				<g>
					<polygon class="st2" points="694.3,285.5 662.4,285.5 672.1,268.8 672.1,245.5 670.3,244.6 666.6,242.1 667.6,239.8 671,238.6 
						688.8,239 690.3,240 691.2,241.5 690.1,243.7 688.2,245.1 685.8,245.2 686.1,249.7 685.8,269.6 					"/>
					<g>
						<path class="st4" d="M685.6,245v24.4l20.2,32.8c0,0,4.4,7.8-1.7,7.8s-50.4,0-50.4,0s-5.7-0.5-1.7-7.9l20.6-33.4V245H685.6z"/>
						<path class="st6" d="M669.7,245.1h18.5c1.7,0,3.1-1.4,3.1-3.1l0,0c0-1.7-1.4-3.1-3.1-3.1h-18.5c-1.7,0-3.1,1.4-3.1,3.1l0,0
							C666.6,243.8,668,245.1,669.7,245.1z"/>
					</g>
				</g>
			</g>
			<g>
				<circle class="st8" cx="680.9" cy="275.7" r="2.9"/>
				<circle class="st8" cx="677.1" cy="264.8" r="1.9"/>
				<circle class="st8" cx="681.4" cy="256.6" r="1.5"/>
			</g>
		</g>
		<path class="st7" d="M670.5,307h29.4c0.4,0,0.6-0.3,0.6-0.6l0,0c0-0.4-0.3-0.6-0.6-0.6h-29.4c-0.4,0-0.6,0.3-0.6,0.6l0,0
			C669.9,306.7,670.1,307,670.5,307z"/>
		<path class="st7" d="M658.5,307h7.7c0.4,0,0.6-0.3,0.6-0.6l0,0c0-0.4-0.3-0.6-0.6-0.6h-7.7c-0.4,0-0.6,0.3-0.6,0.6l0,0
			C657.8,306.7,658.1,307,658.5,307z"/>
	</g>
</g>
<g>
	<g>
		<g>
			<g>
				<polygon class="st9" points="737,285.5 748.4,302.6 749.8,306.7 749.4,309.6 747,311.5 695.2,311.5 693,308.7 693,305 
					705,285.5 				"/>
				<g>
					<polygon class="st2" points="737,285.5 705.1,285.5 715,269.9 715,246.6 713.1,245.8 709.3,243.2 710.3,240.9 713.8,239.7 
						731.5,240.1 733,241.1 733.9,242.6 732.9,244.9 730.9,246.2 728.5,246.3 728.8,250.8 728.5,270.2 					"/>
					<g>
						<path class="st4" d="M728.5,246v24.5l20.1,33.2c0,0,4.3,8.3-1.8,8.3s-50.4,0-50.4,0s-5.6-0.9-1.6-8.4l20.6-33.8V246H728.5z"/>
						<path class="st6" d="M712.4,246.2h18.5c1.7,0,3.1-1.4,3.1-3.1l0,0c0-1.7-1.4-3.1-3.1-3.1h-18.5c-1.7,0-3.1,1.4-3.1,3.1l0,0
							C709.3,244.9,710.7,246.2,712.4,246.2z"/>
					</g>
				</g>
			</g>
			<g>
				<circle class="st9" cx="719.8" cy="274.6" r="2.9"/>
				<circle class="st9" cx="724.1" cy="268.1" r="1.9"/>
				<circle class="st9" cx="719.8" cy="263" r="1.5"/>
			</g>
		</g>
		<path class="st7" d="M713.2,308.1h29.4c0.4,0,0.6-0.3,0.6-0.6l0,0c0-0.4-0.3-0.6-0.6-0.6h-29.4c-0.4,0-0.6,0.3-0.6,0.6l0,0
			C712.6,307.8,712.9,308.1,713.2,308.1z"/>
		<path class="st7" d="M701.2,308.1h7.7c0.4,0,0.6-0.3,0.6-0.6l0,0c0-0.4-0.3-0.6-0.6-0.6h-7.7c-0.4,0-0.6,0.3-0.6,0.6l0,0
			C700.5,307.8,700.8,308.1,701.2,308.1z"/>
	</g>
</g>
<g>
	<polygon class="st2" points="515.6,289.5 557.9,289.5 543,265.9 543,240.3 545.3,239.4 549.5,236.6 548.5,234.2 544.7,232.8 
		525.3,233.3 523.6,234.3 522.7,236 523.8,238.5 526,240 528.6,240 528.3,244.9 528.6,266.4 	"/>
	<polygon class="st3" points="515.7,288.5 506.8,302.8 505.3,306.8 505.7,309.6 508.3,311.5 565.1,311.5 567,308.7 567,305.1 
		557.9,288.5 	"/>
	<path class="st7" d="M545.3,307.8h-32.2c-0.4,0-0.7-0.3-0.7-0.7l0,0c0-0.4,0.3-0.7,0.7-0.7h32.2c0.4,0,0.7,0.3,0.7,0.7l0,0
		C546,307.4,545.7,307.8,545.3,307.8z"/>
	<path class="st7" d="M558.5,307.8h-8.4c-0.4,0-0.7-0.3-0.7-0.7l0,0c0-0.4,0.3-0.7,0.7-0.7h8.4c0.4,0,0.7,0.3,0.7,0.7l0,0
		C559.2,307.4,558.9,307.8,558.5,307.8z"/>
	<g>
		<path class="st4" d="M528.5,240v26.5L506.6,303c0,0-4.7,9.1,2,9.1c6.7,0,55.2,0,55.2,0s6.5-1,2-9.2l-22.3-37V240H528.5z"/>
		<path class="st10" d="M546.3,240H526c-1.8,0-3.3-1.5-3.3-3.3l0,0c0-1.8,1.5-3.3,3.3-3.3h20.3c1.8,0,3.3,1.5,3.3,3.3l0,0
			C549.6,238.5,548.1,240,546.3,240z"/>
	</g>
</g>
<g>
	<rect x="238.2" y="94.6" class="st11" width="8.3" height="216.4"/>
	<g>
		<g>
			<rect x="231.8" y="301.7" class="st11" width="102.7" height="9.6"/>
			<g>
				<polygon class="st12" points="272.7,301.5 286.1,292 303.9,292 317.5,301.6 				"/>
				<rect x="286.4" y="286.5" class="st13" width="17.5" height="5.7"/>
				<rect x="291" y="237.6" class="st13" width="8.9" height="48.9"/>
				<rect x="286.4" y="230.7" class="st14" width="18.2" height="6.9"/>
				<rect x="299.9" y="272.2" class="st14" width="10" height="5.4"/>
				<rect x="291" y="239.1" class="st15" width="8" height="3.8"/>
			</g>
		</g>
	</g>
</g>
<g>
	<g>
		<circle class="st9" cx="294.5" cy="137.9" r="3.2"/>
		<circle class="st9" cx="299.3" cy="132.1" r="2.1"/>
		<circle class="st9" cx="294.6" cy="127.9" r="1.6"/>
	</g>
	<path class="st2" d="M262.2,158c0.9,27.1,26.9,31.6,26.9,31.6H303c0,0,25.9-7.7,26.2-31.8C329.3,133.7,306,124,306,124v-17.5h-20
		V124C286,124,261.4,130.9,262.2,158"/>
	<polyline class="st3" points="264,148.5 327.1,148.5 329,158.9 327.7,164.9 323.9,173.7 316,182 307.6,187.2 303,189.5 
		289.1,189.5 279.6,185.4 274.6,182.3 264.8,170.5 	"/>
	<path class="st4" d="M262.5,157.2c0.9,27.1,26.7,30.8,26.7,30.8H303c0,0,25.7-7,25.9-31c0.2-24.1-23.4-33-23.4-33v-18h-19v18
		C286.5,124,261.6,130.1,262.5,157.2"/>
	<path class="st16" d="M307.7,105.9h-22.5c-1.7,0-3.1-1.4-3.1-3.1l0,0c0-1.7,1.4-3.1,3.1-3.1h22.5c1.7,0,3.1,1.4,3.1,3.1l0,0
		C310.8,104.5,309.4,105.9,307.7,105.9z"/>
	<g>
		<circle class="st3" cx="301.4" cy="141.7" r="3.2"/>
		
			<ellipse transform="matrix(0.9421 -0.3354 0.3354 0.9421 -27.8277 105.8707)" class="st3" cx="292.6" cy="133.5" rx="2.1" ry="2.1"/>
		<circle class="st3" cx="298.2" cy="124.7" r="1.6"/>
	</g>
	<path class="st7" d="M301.8,185.1h-12.2c-0.2,0-0.4-0.2-0.4-0.4v-0.5c0-0.2,0.2-0.4,0.4-0.4h12.2c0.2,0,0.4,0.2,0.4,0.4v0.5
		C302.2,184.9,302,185.1,301.8,185.1z"/>
</g>
<rect x="167" y="165.4" class="st11" width="8.3" height="145.5"/>
<rect x="171.6" y="207.3" class="st11" width="75.7" height="8.3"/>
<rect x="237.9" y="110.8" class="st11" width="75.7" height="8.3"/>
<g>
	<g>
		<path class="st17" d="M183.2,311.7h-24.3c-4.5,0-8.2-3.7-8.2-8.2v-27.4h40.8v27.4C191.5,308,187.8,311.7,183.2,311.7z"/>
		<rect x="152.2" y="286.4" class="st2" width="36.8" height="11.3"/>
		<path class="st16" d="M195.5,276.1H146v-4.6c0-2.4,2-4.4,4.4-4.4H191c2.4,0,4.4,2,4.4,4.4v4.6H195.5z"/>
	</g>
	<rect x="150.7" y="277.7" class="st15" width="39.9" height="4.1"/>
</g>
<g>
	<g>
		<path class="st18" d="M219.2,311.7h-19.6c-5.5,0-9.9-4.4-9.9-9.9v-43.5h39.4v43.5C229.1,307.3,224.7,311.7,219.2,311.7z"/>
		<rect x="191.7" y="273.8" class="st2" width="35.5" height="16.9"/>
		<path class="st16" d="M233,258.3h-47.7V250c0-2.9,2.4-5.3,5.3-5.3h37.1c2.9,0,5.3,2.4,5.3,5.3L233,258.3L233,258.3z"/>
	</g>
	<rect x="190.2" y="259.5" class="st15" width="38.5" height="6.1"/>
</g>
<g>
	<circle class="st19" cx="242.4" cy="114.9" r="8"/>
	<circle class="st11" cx="242.2" cy="115" r="2.8"/>
</g>
<g>
	<circle class="st19" cx="242.4" cy="211.5" r="8"/>
	<circle class="st11" cx="242.2" cy="211.6" r="2.8"/>
</g>
<g>
	<circle class="st19" cx="171.1" cy="211.5" r="8"/>
	<circle class="st11" cx="171" cy="211.6" r="2.8"/>
</g>
<rect x="171.7" y="162.3" class="st20" width="75.7" height="8.3"/>
<g>
	<circle class="st19" cx="171.1" cy="166.5" r="8"/>
	<circle class="st11" cx="171" cy="166.6" r="2.8"/>
</g>
<g>
	<g>
		<g>
			<polygon class="st5" points="193.9,146.5 186.8,156.5 186,158.8 186.2,160.4 187.7,161.5 220.1,161.5 222,159.6 222,157.3 
				213.9,146.5 			"/>
			<g>
				<polygon class="st2" points="193.9,146.5 213.9,146.5 208,135.4 208,120.8 209.1,120.3 211.3,118.7 210.7,117.3 208.5,116.5 
					197.4,116.8 196.4,117.3 195.9,118.3 196.5,119.7 197.8,120.6 199.2,120.6 199.1,123.4 199.2,136.2 				"/>
				<g>
					<path class="st4" d="M198.5,122v13.7l-12.2,20.9c0,0-2.3,5.3,1.5,5.3s31.5,0,31.5,0s3.6-0.7,1-5.4l-12.9-21.3V122H198.5z"/>
					<path class="st10" d="M208.7,120.6h-11.6c-1.1,0-1.9-0.9-1.9-1.9l0,0c0-1.1,0.9-1.9,1.9-1.9h11.6c1.1,0,1.9,0.9,1.9,1.9l0,0
						C210.7,119.7,209.8,120.6,208.7,120.6z"/>
				</g>
			</g>
		</g>
	</g>
	<path class="st7" d="M208.8,159.3h-18.4c-0.2,0-0.4-0.2-0.4-0.4l0,0c0-0.2,0.2-0.4,0.4-0.4h18.4c0.2,0,0.4,0.2,0.4,0.4l0,0
		C209.2,159.1,209,159.3,208.8,159.3z"/>
	<path class="st7" d="M216.3,159.3h-4.8c-0.2,0-0.4-0.2-0.4-0.4l0,0c0-0.2,0.2-0.4,0.4-0.4h4.8c0.2,0,0.4,0.2,0.4,0.4l0,0
		C216.7,159.1,216.6,159.3,216.3,159.3z"/>
</g>
<g>
	<g>
		<g>
			<g>
				<rect x="915.9" y="154.6" class="st21" width="29.1" height="68.1"/>
				<rect x="920.9" y="222.6" class="st21" width="19" height="6.1"/>
				<rect x="922" y="130" class="st21" width="16.7" height="24.6"/>
				<path class="st22" d="M939.8,130h-18.9c-1.7,0-3.1-1.4-3.1-3.1l0,0c0-1.7,1.4-3.1,3.1-3.1h18.9c1.7,0,3.1,1.4,3.1,3.1l0,0
					C942.9,128.6,941.5,130,939.8,130z"/>
			</g>
			<rect x="924.2" y="154.6" class="st15" width="20.7" height="68.1"/>
		</g>
		<rect x="922" y="131.4" class="st15" width="16.5" height="4.1"/>
	</g>
	<g>
		<g>
			<rect x="915.8" y="284.3" class="st23" width="74.2" height="27.3"/>
			<rect x="908.8" y="271" class="st23" width="88.2" height="13.3"/>
		</g>
		<rect x="917.3" y="285.9" class="st15" width="72.7" height="8"/>
	</g>
	<g>
		<rect x="914.1" y="241.6" class="st24" width="33" height="8.4"/>
		<g>
			<g>
				<path class="st20" d="M951.5,259h24.1c0,0,7.9,1.8,7.9-14.4s0-42.5,0-42.5s-0.8-6-10.5-6s-22.5,0-22.5,0v-11h26.4
					c0,0,17.6-0.4,17.6,15.4s0,54.5,0,54.5s-2.1,16-17.9,16h-25.1V259z"/>
				<rect x="926.8" y="259.5" class="st21" width="24.7" height="11.4"/>
				<rect x="907.4" y="249.9" class="st21" width="44.1" height="9.7"/>
			</g>
			<circle class="st22" cx="944.3" cy="190.1" r="12.6"/>
			<circle class="st22" cx="988" cy="250.9" r="8.7"/>
			<circle class="st21" cx="944.3" cy="189.9" r="5.8"/>
			<circle class="st21" cx="987.8" cy="250.9" r="3"/>
		</g>
		<rect x="907.4" y="249.9" class="st15" width="44.1" height="4.1"/>
		<rect x="926.8" y="260.5" class="st15" width="25.6" height="4.1"/>
	</g>
</g>
<g>
	<g>
		<g>
			<rect x="806.3" y="236.5" class="st2" width="10.6" height="61.5"/>
			<rect x="806.3" y="267.3" class="st8" width="10.6" height="30.7"/>
			<rect x="806.3" y="236.5" class="st25" width="10.6" height="61.5"/>
		</g>
		<g>
			<rect x="827.3" y="236.5" class="st2" width="10.6" height="61.5"/>
			<rect x="827.3" y="252.2" class="st5" width="10.6" height="45.8"/>
			<rect x="827.3" y="236.5" class="st25" width="10.6" height="61.5"/>
		</g>
		<g>
			<rect x="848.3" y="236.5" class="st2" width="10.6" height="61.5"/>
			<rect x="848.3" y="244.3" class="st9" width="10.6" height="53.7"/>
			<rect x="848.3" y="236.5" class="st25" width="10.6" height="61.5"/>
		</g>
	</g>
	<g>
		<rect x="788.8" y="248.1" class="st26" width="9.3" height="63.7"/>
		<rect x="867.2" y="248.1" class="st26" width="9.3" height="63.7"/>
		<rect x="788.8" y="261.7" class="st26" width="87.7" height="8.2"/>
		<rect x="788.8" y="296" class="st26" width="87.7" height="8.2"/>
	</g>
</g>
<g>
	<g>
		<g>
			<g>
				<g>
					<polygon class="st8" points="430.9,279.5 418.4,301.9 416.9,306.4 417.3,309.4 419.9,311.5 476.7,311.5 480,308.3 480,304.3 
						463.9,279.5 					"/>
					<g>
						<polygon class="st2" points="430.8,283.5 465.8,283.5 455,265.9 455,240.3 457.1,239.4 461.2,236.6 460.1,234.2 456.3,232.8 
							436.9,233.3 435.2,234.3 434.3,236 435.4,238.5 437.6,240 440.2,240 439.9,244.9 440.2,266.5 						"/>
						<g>
							<path class="st4" d="M440.5,240v26.5L418.4,303c0,0-4.9,9.1,1.8,9.1c6.7,0,55.2,0,55.2,0s6.7-1,2.2-9.2l-22.1-37V240H440.5z"
								/>
							<path class="st10" d="M457.9,240h-20.3c-1.8,0-3.3-1.5-3.3-3.3l0,0c0-1.8,1.5-3.3,3.3-3.3h20.3c1.8,0,3.3,1.5,3.3,3.3l0,0
								C461.2,238.5,459.7,240,457.9,240z"/>
						</g>
					</g>
				</g>
				<g>
					<circle class="st8" cx="445.9" cy="268" r="3.2"/>
					<circle class="st8" cx="450.7" cy="258.1" r="2.1"/>
					<circle class="st8" cx="446" cy="250" r="1.6"/>
				</g>
			</g>
			<path class="st7" d="M456.9,307.8h-32.2c-0.4,0-0.7-0.3-0.7-0.7l0,0c0-0.4,0.3-0.7,0.7-0.7h32.2c0.4,0,0.7,0.3,0.7,0.7l0,0
				C457.6,307.4,457.3,307.8,456.9,307.8z"/>
			<path class="st7" d="M470.1,307.8h-8.4c-0.4,0-0.7-0.3-0.7-0.7l0,0c0-0.4,0.3-0.7,0.7-0.7h8.4c0.4,0,0.7,0.3,0.7,0.7l0,0
				C470.8,307.4,470.5,307.8,470.1,307.8z"/>
		</g>
	</g>
	<g>
		<g>
			<g>
				<g>
					<polygon class="st5" points="366.9,284.5 354.4,302.8 352.9,307.2 353.3,310.4 356,312.5 412.7,312.5 416,309.1 416,305.1 
						401.9,284.5 					"/>
					<g>
						<polygon class="st2" points="366.9,284.5 401.9,284.5 391,266.7 391,241.1 393.1,240.2 397.2,237.4 396.1,235 392.4,233.6 
							373,234.1 371.2,235.1 370.3,236.7 371.4,239.2 373.6,240.8 376.2,240.8 375.9,245.7 376.2,267.4 						"/>
						<g>
							<path class="st4" d="M376.5,241v26.3l-22.1,36c0,0-4.8,8.7,1.8,8.7c6.7,0,55.2,0,55.2,0s6.2-0.6,1.7-8.8l-22.6-36.6V241
								H376.5z"/>
							<path class="st10" d="M393.9,240.8h-20.3c-1.8,0-3.3-1.5-3.3-3.3l0,0c0-1.8,1.5-3.3,3.3-3.3h20.3c1.8,0,3.3,1.5,3.3,3.3l0,0
								C397.2,239.3,395.7,240.8,393.9,240.8z"/>
						</g>
					</g>
				</g>
				<g>
					<circle class="st5" cx="381.5" cy="274.2" r="3.2"/>
					<circle class="st5" cx="385.8" cy="262.3" r="2.1"/>
					<circle class="st5" cx="381" cy="253.3" r="1.6"/>
				</g>
			</g>
			<path class="st7" d="M393,308.5h-32.2c-0.4,0-0.7-0.3-0.7-0.7l0,0c0-0.4,0.3-0.7,0.7-0.7H393c0.4,0,0.7,0.3,0.7,0.7l0,0
				C393.7,308.2,393.4,308.5,393,308.5z"/>
			<path class="st7" d="M406.1,308.5h-8.4c-0.4,0-0.7-0.3-0.7-0.7l0,0c0-0.4,0.3-0.7,0.7-0.7h8.4c0.4,0,0.7,0.3,0.7,0.7l0,0
				C406.8,308.2,406.5,308.5,406.1,308.5z"/>
		</g>
	</g>
	<g>
		<g>
			<g>
				<g>
					<polygon class="st9" points="399.5,283.5 387,301.9 385.5,306.4 385.9,309.4 388.6,311.5 445.3,311.5 448,308.3 448,304.3 
						434.5,283.5 					"/>
					<g>
						<polygon class="st2" points="399.4,283.5 434.5,283.5 424,265.9 424,240.3 425.9,239.4 429.9,236.6 428.8,234.2 425,232.8 
							405.6,233.3 403.8,234.3 402.9,236 404,238.5 406.2,240 408.8,240 408.5,244.9 408.8,266.5 						"/>
						<g>
							<path class="st4" d="M409.5,240v26.5L387.2,303c0,0-5,9.1,1.6,9.1s55.2,0,55.2,0s6.4-1,1.9-9.2l-22.4-37V240H409.5z"/>
							<path class="st10" d="M426.5,240h-20.3c-1.8,0-3.3-1.5-3.3-3.3l0,0c0-1.8,1.5-3.3,3.3-3.3h20.3c1.8,0,3.3,1.5,3.3,3.3l0,0
								C429.8,238.5,428.3,240,426.5,240z"/>
						</g>
					</g>
				</g>
				<g>
					<circle class="st9" cx="418.4" cy="271" r="3.2"/>
					<circle class="st9" cx="413.6" cy="263.9" r="2.1"/>
					<circle class="st9" cx="418.4" cy="258.3" r="1.6"/>
					<circle class="st9" cx="414.7" cy="252.9" r="1.6"/>
				</g>
			</g>
			<path class="st7" d="M425.6,307.8h-32.2c-0.4,0-0.7-0.3-0.7-0.7l0,0c0-0.4,0.3-0.7,0.7-0.7h32.2c0.4,0,0.7,0.3,0.7,0.7l0,0
				C426.3,307.4,425.9,307.8,425.6,307.8z"/>
			<path class="st7" d="M438.7,307.8h-8.4c-0.4,0-0.7-0.3-0.7-0.7l0,0c0-0.4,0.3-0.7,0.7-0.7h8.4c0.4,0,0.7,0.3,0.7,0.7l0,0
				C439.4,307.4,439.1,307.8,438.7,307.8z"/>
		</g>
	</g>
</g>
<g>
	<g>
		<g>
			<g>
				<g>
					<polygon class="st8" points="677.9,283.5 665.4,301.9 663.9,306.4 664.3,309.4 666.9,311.5 723.7,311.5 727,308.3 727,304.3 
						712.9,283.5 					"/>
					<g>
						<polygon class="st2" points="677.8,283.5 712.8,283.5 702,265.9 702,240.3 704.1,239.4 708.2,236.6 707.1,234.2 703.3,232.8 
							683.9,233.3 682.2,234.3 681.3,236 682.4,238.5 684.6,240 687.2,240 686.9,244.9 687.2,266.5 						"/>
						<g>
							<path class="st4" d="M687.5,240v26.5L665.4,303c0,0-4.9,9.1,1.8,9.1s55.2,0,55.2,0s6.7-1,2.2-9.2l-22.1-37V240H687.5z"/>
							<path class="st10" d="M704.9,240h-20.3c-1.8,0-3.3-1.5-3.3-3.3l0,0c0-1.8,1.5-3.3,3.3-3.3h20.3c1.8,0,3.3,1.5,3.3,3.3l0,0
								C708.2,238.5,706.7,240,704.9,240z"/>
						</g>
					</g>
				</g>
				<g>
					<circle class="st8" cx="691.9" cy="271" r="3.2"/>
					<circle class="st8" cx="696.7" cy="265.1" r="2.1"/>
					<circle class="st8" cx="692" cy="261" r="1.6"/>
				</g>
			</g>
			<path class="st7" d="M703.9,307.8h-32.2c-0.4,0-0.7-0.3-0.7-0.7l0,0c0-0.4,0.3-0.7,0.7-0.7h32.2c0.4,0,0.7,0.3,0.7,0.7l0,0
				C704.6,307.4,704.3,307.8,703.9,307.8z"/>
			<path class="st7" d="M717.1,307.8h-8.4c-0.4,0-0.7-0.3-0.7-0.7l0,0c0-0.4,0.3-0.7,0.7-0.7h8.4c0.4,0,0.7,0.3,0.7,0.7l0,0
				C717.8,307.4,717.5,307.8,717.1,307.8z"/>
		</g>
	</g>
	<g>
		<g>
			<g>
				<g>
					<polygon class="st5" points="613.9,284.5 601.4,302.8 599.9,307.2 600.3,310.4 603,312.5 659.7,312.5 663,309.1 663,305.1 
						648.9,284.5 					"/>
					<g>
						<polygon class="st2" points="613.9,284.5 648.9,284.5 638,266.7 638,241.1 640.1,240.2 644.2,237.4 643.1,235 639.4,233.6 
							620,234.1 618.2,235.1 617.3,236.7 618.4,239.2 620.6,240.8 623.2,240.8 622.9,245.7 623.2,267.4 						"/>
						<g>
							<path class="st4" d="M623.5,241v26.3l-22.1,36c0,0-4.8,8.7,1.8,8.7c6.7,0,55.2,0,55.2,0s6.2-0.6,1.7-8.8l-22.6-36.6V241
								H623.5z"/>
							<path class="st10" d="M640.9,240.8h-20.3c-1.8,0-3.3-1.5-3.3-3.3l0,0c0-1.8,1.5-3.3,3.3-3.3h20.3c1.8,0,3.3,1.5,3.3,3.3l0,0
								C644.2,239.3,642.7,240.8,640.9,240.8z"/>
						</g>
					</g>
				</g>
				<g>
					<circle class="st5" cx="628.5" cy="274.2" r="3.2"/>
					<circle class="st5" cx="632.8" cy="262.3" r="2.1"/>
					<circle class="st5" cx="628" cy="253.3" r="1.6"/>
				</g>
			</g>
			<path class="st7" d="M640,308.5h-32.2c-0.4,0-0.7-0.3-0.7-0.7l0,0c0-0.4,0.3-0.7,0.7-0.7H640c0.4,0,0.7,0.3,0.7,0.7l0,0
				C640.7,308.2,640.4,308.5,640,308.5z"/>
			<path class="st7" d="M653.1,308.5h-8.4c-0.4,0-0.7-0.3-0.7-0.7l0,0c0-0.4,0.3-0.7,0.7-0.7h8.4c0.4,0,0.7,0.3,0.7,0.7l0,0
				C653.8,308.2,653.5,308.5,653.1,308.5z"/>
		</g>
	</g>
	<g>
		<g>
			<g>
				<g>
					<polygon class="st2" points="646.4,283.5 681.5,283.5 671,265.9 671,240.3 672.9,239.4 676.9,236.6 675.8,234.2 672,232.8 
						652.6,233.3 650.8,234.3 649.9,236 651,238.5 653.2,240 655.8,240 655.5,244.9 655.8,266.5 					"/>
					<g>
						<polygon class="st9" points="646.5,283 634,301.8 632.5,306.3 632.9,309.3 635.6,311.5 692.3,311.5 695,308.3 695,304.1 
							681.5,283 						"/>
					</g>
					<g>
						<path class="st4" d="M656.5,240v26.5L634.2,303c0,0-5,9.1,1.6,9.1c6.7,0,55.2,0,55.2,0s6.4-1,1.9-9.2l-22.4-37V240H656.5z"/>
						<path class="st10" d="M673.5,240h-20.3c-1.8,0-3.3-1.5-3.3-3.3l0,0c0-1.8,1.5-3.3,3.3-3.3h20.3c1.8,0,3.3,1.5,3.3,3.3l0,0
							C676.8,238.5,675.3,240,673.5,240z"/>
					</g>
				</g>
				<g>
					<circle class="st9" cx="665.4" cy="245" r="3.2"/>
					<circle class="st9" cx="662.2" cy="266.7" r="3.2"/>
					<circle class="st9" cx="659.9" cy="236.6" r="1.4"/>
					<circle class="st9" cx="659.9" cy="250.9" r="1.4"/>
					<circle class="st9" cx="665" cy="256.1" r="1.6"/>
					<circle class="st9" cx="667.6" cy="272.5" r="1.6"/>
					<circle class="st9" cx="665.4" cy="229.3" r="1.6"/>
				</g>
			</g>
			<path class="st7" d="M672.6,307.8h-32.2c-0.4,0-0.7-0.3-0.7-0.7l0,0c0-0.4,0.3-0.7,0.7-0.7h32.2c0.4,0,0.7,0.3,0.7,0.7l0,0
				C673.3,307.4,672.9,307.8,672.6,307.8z"/>
			<path class="st7" d="M685.7,307.8h-8.4c-0.4,0-0.7-0.3-0.7-0.7l0,0c0-0.4,0.3-0.7,0.7-0.7h8.4c0.4,0,0.7,0.3,0.7,0.7l0,0
				C686.4,307.4,686.1,307.8,685.7,307.8z"/>
		</g>
	</g>
</g>
<g>
	<g>
		<g>
			<g>
				<polygon class="st27" points="65.9,102.5 91.7,102.5 88.3,111.5 69.4,111.5 				"/>
				<path class="st2" d="M70,115.5v17.3c0,0-24.6,6.2-23.7,32.5c0.8,26.3,25.6,30.2,25.6,30.2h13.4c0,0,25.1-7,25.3-30.4
					c0.2-23.4-22.6-32.4-22.6-32.4v-17.2L70,115.5L70,115.5z"/>
				<polygon class="st9" points="49.1,157.5 110.7,157.5 112.5,168.1 111.3,174.3 107.6,183 99.9,191.1 91.8,195.7 87.2,197.5 
					73.8,197.5 64.5,194 59.7,191.2 50,179.4 48.1,170.8 48,161.9 				"/>
				<path class="st4" d="M69.5,118v14.8c0,0-23.3,7.4-22.5,33.8c0.8,26.3,26.8,31.5,26.8,31.5h13.4c0,0,23.9-8.3,24.1-31.7
					s-23.8-33.6-23.8-33.6V118H69.5z"/>
				<path class="st28" d="M89.8,117.2H68c-1.7,0-3-1.4-3-3l0,0c0-1.7,1.4-3,3-3h21.9c1.7,0,3,1.4,3,3l0,0
					C92.9,115.9,91.5,117.2,89.8,117.2z"/>
			</g>
			<g>
				<rect x="16.1" y="302.4" class="st29" width="99.8" height="9.3"/>
				<rect x="22.5" y="100.8" class="st29" width="8.1" height="201.6"/>
				<rect x="30.6" y="123.5" class="st29" width="68.7" height="9.3"/>
				<g>
					<circle class="st30" cx="26.6" cy="128.1" r="7.8"/>
					<circle class="st29" cx="26.4" cy="128.2" r="2.7"/>
				</g>
			</g>
		</g>
		<g>
			<g>
				<polygon class="st31" points="55.8,302.5 68.8,293.5 86.2,293.5 99.4,302.7 				"/>
				<rect x="69.1" y="287.6" class="st32" width="17" height="5.5"/>
				<rect x="73.7" y="240.1" class="st32" width="8.6" height="47.5"/>
				<rect x="69.1" y="233.5" class="st33" width="17.7" height="6.7"/>
				<rect x="82.3" y="273.8" class="st33" width="9.7" height="5.3"/>
				<rect x="73.7" y="241.6" class="st15" width="7.8" height="3.7"/>
			</g>
		</g>
	</g>
	<g>
		<circle class="st9" cx="83.3" cy="154" r="3.1"/>
		<ellipse transform="matrix(0.9421 -0.3354 0.3354 0.9421 -44.6416 33.5111)" class="st9" cx="74.7" cy="146" rx="2" ry="2"/>
		<circle class="st9" cx="80.3" cy="137.4" r="1.6"/>
	</g>
	<path class="st7" d="M85.7,195.1H73.8c-0.2,0-0.4-0.2-0.4-0.4v-0.5c0-0.2,0.2-0.4,0.4-0.4h11.9c0.2,0,0.4,0.2,0.4,0.4v0.5
		C86.1,194.9,85.9,195.1,85.7,195.1z"/>
</g>
<rect y="315.6" class="st15" width="1024" height="4.7"/>
<g>
	<g>
		<circle class="st34" cx="543.8" cy="197.1" r="15"/>
		<circle class="st7" cx="543.8" cy="197.1" r="3.1"/>
	</g>
	<polygon class="st7" points="542.1,194.5 543.2,185.5 544.4,185.5 544.8,194.5 	"/>
	<polygon class="st35" points="543.8,198.7 551.6,206.2 552.1,205.7 545.7,197.4 	"/>
</g>
<g>
	<g>
		
			<ellipse transform="matrix(0.7679 -0.6405 0.6405 0.7679 -11.1188 282.6995)" class="st34" cx="384.6" cy="156.7" rx="15" ry="15"/>
		
			<ellipse transform="matrix(0.7679 -0.6405 0.6405 0.7679 -11.1188 282.6995)" class="st7" cx="384.6" cy="156.7" rx="3.1" ry="3.1"/>
	</g>
	<polygon class="st7" points="387.4,157.5 392.4,165.1 391.5,165.9 385.4,159.2 	"/>
	<polygon class="st35" points="383.5,155.4 372.7,154.7 372.7,155.4 382.9,157.6 	"/>
</g>
</svg>
