<?xml version="1.0" encoding="utf-8"?>
<!-- Generator: Adobe Illustrator 20.1.0, SVG Export Plug-In . SVG Version: 6.00 Build 0)  -->
<svg version="1.1" xmlns="http://www.w3.org/2000/svg" xmlns:xlink="http://www.w3.org/1999/xlink" x="0px" y="0px"
	 viewBox="0 0 1024 599.1" style="enable-background:new 0 0 1024 599.1;" xml:space="preserve">
<style type="text/css">
	.st0{fill:none;stroke:#F2F2F2;stroke-width:4.6559;stroke-miterlimit:10;}
	.st1{fill:none;stroke:#F2F2F2;stroke-width:4.1567;stroke-miterlimit:10;}
	.st2{fill:none;stroke:#F2F2F2;stroke-width:4;stroke-miterlimit:10;}
	.st3{fill:#F2F2F2;}
	.st4{fill:none;stroke:#F2F2F2;stroke-width:3.9839;stroke-miterlimit:10;}
	.st5{fill:none;stroke:#F2F2F2;stroke-width:3;stroke-miterlimit:10;}
	.st6{opacity:0.3;fill:none;stroke:#F2F2F2;stroke-width:3;stroke-miterlimit:10;enable-background:new    ;}
	.st7{fill:none;stroke:#F2F2F2;stroke-width:3.1266;stroke-miterlimit:10;}
	.st8{fill:none;stroke:#F2F2F2;stroke-width:3.0277;stroke-miterlimit:10;}
</style>
<g id="lab_bg">
	<g>
		<g>
			<rect x="50.2" y="369.3" class="st0" width="923.6" height="14"/>
			<line class="st1" x1="275" y1="381" x2="275" y2="599.1"/>
			<line class="st1" x1="512" y1="376.6" x2="512" y2="599.1"/>
			<line class="st1" x1="762" y1="383.1" x2="762" y2="599.1"/>
		</g>
		<rect x="336.8" y="398.7" class="st0" width="109.9" height="19"/>
		<rect x="585.9" y="398.7" class="st0" width="122.7" height="19"/>
	</g>
	<g>
		<g>
			<rect x="68.3" y="18.3" class="st2" width="251.1" height="277.5"/>
			<rect x="90.3" y="36.2" class="st2" width="207.1" height="241.7"/>
		</g>
		<rect x="90.3" y="36.2" class="st2" width="207.1" height="55.4"/>
		<line class="st2" x1="284" y1="92.1" x2="284" y2="208"/>
	</g>
	<g>
		<g>
			<circle class="st2" cx="838.5" cy="96.8" r="52"/>
			<circle class="st3" cx="838.5" cy="96.8" r="8.2"/>
		</g>
		<polyline class="st4" points="838.7,54.2 838.7,94.8 854.9,123.1 		"/>
	</g>
	<g>
		<g>
			<g>
				<path class="st5" d="M613,368.7h-20.7c-3.9,0-7-3.1-7-7v-23.3H620v23.3C619.9,365.6,616.8,368.7,613,368.7z"/>
				<rect x="586.5" y="347.2" class="st5" width="31.2" height="9.6"/>
				<path class="st5" d="M623.4,338.4h-42v-4c0-2.1,1.7-3.8,3.8-3.8h34.5c2.1,0,3.8,1.7,3.8,3.8L623.4,338.4L623.4,338.4z"/>
			</g>
			<rect x="585.3" y="339.8" class="st6" width="33.9" height="3.5"/>
		</g>
		<g>
			<g>
				<path class="st5" d="M613,330.4h-20.7c-3.9,0-7-3.1-7-7v-23.3H620v23.3C619.9,327.3,616.8,330.4,613,330.4z"/>
				<rect x="586.5" y="308.9" class="st5" width="31.2" height="9.6"/>
				<path class="st5" d="M623.4,300.2h-42v-4c0-2.1,1.7-3.8,3.8-3.8h34.5c2.1,0,3.8,1.7,3.8,3.8L623.4,300.2L623.4,300.2z"/>
			</g>
			<rect x="585.3" y="301.5" class="st6" width="33.9" height="3.5"/>
		</g>
		<g>
			<g>
				<path class="st5" d="M674.4,311.4h-20.7c-3.9,0-7-3.1-7-7v-23.3h34.7v23.3C681.4,308.3,678.2,311.4,674.4,311.4z"/>
				<rect x="648" y="289.9" class="st5" width="31.2" height="9.6"/>
				<path class="st5" d="M684.8,281.2h-42v-4c0-2.1,1.7-3.8,3.8-3.8h34.5c2.1,0,3.8,1.7,3.8,3.8L684.8,281.2L684.8,281.2z"/>
			</g>
			<rect x="646.7" y="282.5" class="st6" width="33.9" height="3.5"/>
		</g>
		<g>
			<g>
				<path class="st5" d="M652,369.3h-16.6c-4.6,0-8.4-3.8-8.4-8.4v-37h33.5v37C660.5,365.5,656.7,369.3,652,369.3z"/>
				<rect x="628.7" y="337" class="st5" width="30.1" height="14.4"/>
				<path class="st5" d="M663.8,323.9h-40.6v-7c0-2.5,2-4.5,4.5-4.5h31.5c2.5,0,4.5,2,4.5,4.5L663.8,323.9L663.8,323.9z"/>
			</g>
			<rect x="627.5" y="324.9" class="st6" width="32.7" height="5.2"/>
		</g>
		<g>
			<g>
				<path class="st5" d="M571.9,369.3h-16.6c-4.6,0-8.4-3.8-8.4-8.4v-37h33.5v37C580.3,365.5,576.5,369.3,571.9,369.3z"/>
				<rect x="548.6" y="337" class="st5" width="30.1" height="14.4"/>
				<path class="st5" d="M583.6,323.9H543v-7c0-2.5,2-4.5,4.5-4.5h31.6c2.5,0,4.5,2,4.5,4.5V323.9z"/>
			</g>
			<rect x="547.3" y="324.9" class="st6" width="32.7" height="5.2"/>
		</g>
		<g>
			<g>
				<path class="st5" d="M692.6,369.3H676c-4.6,0-8.4-3.8-8.4-8.4v-37h33.5v37C701,365.5,697.3,369.3,692.6,369.3z"/>
				<rect x="669.3" y="337" class="st5" width="30.1" height="14.4"/>
				<path class="st5" d="M704.3,323.9h-40.6v-7c0-2.5,2-4.5,4.5-4.5h31.5c2.5,0,4.5,2,4.5,4.5L704.3,323.9L704.3,323.9z"/>
			</g>
			<rect x="668" y="324.9" class="st6" width="32.7" height="5.2"/>
		</g>
	</g>
	<g>
		<rect x="729.4" y="192.8" class="st7" width="238.2" height="132.4"/>
		<rect x="743.8" y="201.4" class="st8" width="13" height="13"/>
		<rect x="743.8" y="214.4" class="st8" width="13" height="13"/>
		<rect x="756.9" y="214.4" class="st8" width="13" height="13"/>
		<rect x="756.9" y="227.5" class="st8" width="13" height="13"/>
		<rect x="756.9" y="240.5" class="st8" width="13" height="13"/>
		<rect x="769.9" y="240.5" class="st8" width="13" height="13"/>
		<rect x="783" y="240.5" class="st8" width="13" height="13"/>
		<rect x="796" y="240.5" class="st8" width="13" height="13"/>
		<rect x="809" y="240.5" class="st8" width="13" height="13"/>
		<rect x="822.1" y="240.5" class="st8" width="13" height="13"/>
		<rect x="835.1" y="240.5" class="st8" width="13" height="13"/>
		<rect x="848.2" y="240.5" class="st8" width="13" height="13"/>
		<rect x="861.2" y="240.5" class="st8" width="13" height="13"/>
		<rect x="874.3" y="240.5" class="st8" width="13" height="13"/>
		<rect x="887.3" y="240.5" class="st8" width="13" height="13"/>
		<rect x="900.4" y="240.5" class="st8" width="13" height="13"/>
		<rect x="913.4" y="240.5" class="st8" width="13" height="13"/>
		<rect x="926.4" y="240.5" class="st8" width="13" height="13"/>
		<rect x="939.5" y="240.5" class="st8" width="13" height="13"/>
		<rect x="939.5" y="253.6" class="st8" width="13" height="13"/>
		<rect x="939.5" y="266.6" class="st8" width="13" height="13"/>
		<rect x="939.5" y="291.9" class="st8" width="13" height="13"/>
		<rect x="926.4" y="291.9" class="st8" width="13" height="13"/>
		<rect x="913.4" y="291.9" class="st8" width="13" height="13"/>
		<rect x="900.4" y="291.9" class="st8" width="13" height="13"/>
		<rect x="887.3" y="291.9" class="st8" width="13" height="13"/>
		<rect x="874.3" y="291.9" class="st8" width="13" height="13"/>
		<rect x="861.2" y="291.9" class="st8" width="13" height="13"/>
		<rect x="848.2" y="291.9" class="st8" width="13" height="13"/>
		<rect x="835.1" y="291.9" class="st8" width="13" height="13"/>
		<rect x="822.1" y="291.9" class="st8" width="13" height="13"/>
		<rect x="809" y="291.9" class="st8" width="13" height="13"/>
		<rect x="796" y="291.9" class="st8" width="13" height="13"/>
		<rect x="783" y="291.9" class="st8" width="13" height="13"/>
		<rect x="939.5" y="305" class="st8" width="13" height="13"/>
		<rect x="926.4" y="305" class="st8" width="13" height="13"/>
		<rect x="913.4" y="305" class="st8" width="13" height="13"/>
		<rect x="900.4" y="305" class="st8" width="13" height="13"/>
		<rect x="887.3" y="305" class="st8" width="13" height="13"/>
		<rect x="874.3" y="305" class="st8" width="13" height="13"/>
		<rect x="861.2" y="305" class="st8" width="13" height="13"/>
		<rect x="848.2" y="305" class="st8" width="13" height="13"/>
		<rect x="835.1" y="305" class="st8" width="13" height="13"/>
		<rect x="822.1" y="305" class="st8" width="13" height="13"/>
		<rect x="809" y="305" class="st8" width="13" height="13"/>
		<rect x="796" y="305" class="st8" width="13" height="13"/>
		<rect x="783" y="305" class="st8" width="13" height="13"/>
		<rect x="939.5" y="227.5" class="st8" width="13" height="13"/>
		<rect x="926.4" y="227.5" class="st8" width="13" height="13"/>
		<rect x="913.4" y="227.5" class="st8" width="13" height="13"/>
		<rect x="900.4" y="227.5" class="st8" width="13" height="13"/>
		<rect x="887.3" y="227.5" class="st8" width="13" height="13"/>
		<rect x="874.3" y="227.5" class="st8" width="13" height="13"/>
		<rect x="939.5" y="214.4" class="st8" width="13" height="13"/>
		<rect x="926.4" y="214.4" class="st8" width="13" height="13"/>
		<rect x="913.4" y="214.4" class="st8" width="13" height="13"/>
		<rect x="900.4" y="214.4" class="st8" width="13" height="13"/>
		<rect x="887.3" y="214.4" class="st8" width="13" height="13"/>
		<rect x="874.3" y="214.4" class="st8" width="13" height="13"/>
		<rect x="939.5" y="201.4" class="st8" width="13" height="13"/>
		<rect x="756.9" y="253.6" class="st8" width="13" height="13"/>
		<rect x="769.9" y="253.6" class="st8" width="13" height="13"/>
		<rect x="783" y="253.6" class="st8" width="13" height="13"/>
		<rect x="796" y="253.6" class="st8" width="13" height="13"/>
		<rect x="809" y="253.6" class="st8" width="13" height="13"/>
		<rect x="822.1" y="253.6" class="st8" width="13" height="13"/>
		<rect x="835.1" y="253.6" class="st8" width="13" height="13"/>
		<rect x="848.2" y="253.6" class="st8" width="13" height="13"/>
		<rect x="861.2" y="253.6" class="st8" width="13" height="13"/>
		<rect x="874.3" y="253.6" class="st8" width="13" height="13"/>
		<rect x="887.3" y="253.6" class="st8" width="13" height="13"/>
		<rect x="900.4" y="253.6" class="st8" width="13" height="13"/>
		<rect x="913.4" y="253.6" class="st8" width="13" height="13"/>
		<rect x="926.4" y="253.6" class="st8" width="13" height="13"/>
		<rect x="756.9" y="266.6" class="st8" width="13" height="13"/>
		<rect x="769.9" y="266.6" class="st8" width="13" height="13"/>
		<rect x="783" y="266.6" class="st8" width="13" height="13"/>
		<rect x="796" y="266.6" class="st8" width="13" height="13"/>
		<rect x="809" y="266.6" class="st8" width="13" height="13"/>
		<rect x="822.1" y="266.6" class="st8" width="13" height="13"/>
		<rect x="835.1" y="266.6" class="st8" width="13" height="13"/>
		<rect x="848.2" y="266.6" class="st8" width="13" height="13"/>
		<rect x="861.2" y="266.6" class="st8" width="13" height="13"/>
		<rect x="887.3" y="266.6" class="st8" width="13" height="13"/>
		<rect x="913.4" y="266.6" class="st8" width="13" height="13"/>
		<rect x="743.8" y="227.5" class="st8" width="13" height="13"/>
		<rect x="743.8" y="240.5" class="st8" width="13" height="13"/>
		<rect x="743.8" y="253.6" class="st8" width="13" height="13"/>
		<rect x="743.8" y="266.6" class="st8" width="13" height="13"/>
		<rect x="836.9" y="205.3" class="st8" width="21.4" height="21.4"/>
	</g>
</g>
<g id="Layer_2">
</g>
</svg>
