<?xml version="1.0" encoding="UTF-8"?>
<svg width="31px" height="30px" viewBox="0 0 31 30" version="1.1" xmlns="http://www.w3.org/2000/svg" xmlns:xlink="http://www.w3.org/1999/xlink">
    <!-- Generator: Sketch 49.3 (51167) - http://www.bohemiancoding.com/sketch -->
    <title>website</title>
    <desc>Created with Sketch.</desc>
    <defs></defs>
    <g id="iOS-App" stroke="none" stroke-width="1" fill="none" fill-rule="evenodd">
        <g id="Settings---notifications-Copy" transform="translate(-20.000000, -404.000000)" fill="#290E54" fill-rule="nonzero">
            <g id="website" transform="translate(20.000000, 404.000000)">
                <path d="M12.5805581,0.0875886765 C8.56879343,0.908176912 5.10408754,3.27876515 2.91585225,6.60670632 L8.43202872,6.60670632 C9.38938166,3.64347103 10.8482052,1.36405926 12.5805581,0.0875886765 Z M18.4158522,0.0875886765 C20.1482052,1.31847103 21.5614405,3.64347103 22.5187934,6.60670632 L28.0349699,6.60670632 C25.8923228,3.27876515 22.427617,0.908176912 18.4158522,0.0875886765 Z M16.227617,0.6346475 L16.227617,6.60670632 L21.0599699,6.60670632 C20.0114405,3.41552985 18.3246758,1.09052985 16.227617,0.6346475 Z M14.7232052,0.680235735 C12.7173228,1.13611809 11.0305581,3.41552985 9.98202872,6.60670632 L14.7232052,6.60670632 C14.7232052,6.60670632 14.7232052,0.680235735 14.7232052,0.680235735 Z M2.04967578,8.15670632 C1.13791107,9.98023574 0.59085225,12.0317063 0.454087544,14.2199416 L7.20114637,14.2199416 C7.2467346,12.0772946 7.52026401,10.025824 8.0217346,8.15670632 L2.04967578,8.15670632 Z M9.5717346,8.15670632 C9.11585225,9.98023574 8.84232284,12.0772946 8.7967346,14.2199416 L14.7687934,14.2199416 L14.7687934,8.15670632 L9.5717346,8.15670632 Z M16.227617,8.15670632 L16.227617,14.2199416 L22.2908522,14.2199416 C22.245264,12.0772946 21.9717346,10.025824 21.5158522,8.15670632 L16.227617,8.15670632 Z M22.9746758,8.15670632 C23.4305581,10.025824 23.7040875,12.0317063 23.795264,14.2199416 L30.5423228,14.2199416 C30.4511464,12.0317063 29.8584993,10.025824 28.9467346,8.15670632 L22.9746758,8.15670632 Z M0.454087544,15.7243534 C0.545264015,17.9125887 1.13791107,19.9640593 2.04967578,21.7875887 L8.0217346,21.7875887 C7.56585225,19.9640593 7.29232284,17.9125887 7.2467346,15.7243534 L0.454087544,15.7243534 Z M8.7967346,15.7243534 C8.84232284,17.8670004 9.11585225,19.918471 9.5717346,21.7875887 L14.7687934,21.7875887 L14.7687934,15.7243534 C14.7232052,15.7243534 8.7967346,15.7243534 8.7967346,15.7243534 Z M16.227617,15.7243534 L16.227617,21.7875887 L21.470264,21.7875887 C21.9261464,19.9640593 22.1996758,17.9125887 22.245264,15.7243534 L16.227617,15.7243534 Z M23.795264,15.7243534 C23.7496758,17.8670004 23.4761464,19.918471 23.020264,21.7875887 L28.9923228,21.7875887 C29.9040875,19.9640593 30.4511464,17.9125887 30.5879111,15.7243534 L23.795264,15.7243534 Z M2.91585225,23.2920004 C5.10408754,26.6199416 8.52320519,29.0361181 12.5349699,29.8111181 C10.8482052,28.5802357 9.38938166,26.2552357 8.43202872,23.2920004 C8.43202872,23.2920004 2.91585225,23.2920004 2.91585225,23.2920004 Z M9.98202872,23.2920004 C11.0305581,26.4831769 12.7173228,28.8081769 14.7232052,29.2640593 L14.7232052,23.2920004 C14.7232052,23.2920004 9.98202872,23.2920004 9.98202872,23.2920004 Z M16.227617,23.2920004 L16.227617,29.2640593 C18.3246758,28.8081769 20.0114405,26.5287651 21.0599699,23.2920004 L16.227617,23.2920004 Z M22.5643817,23.2920004 C21.6070287,26.2552357 20.1937934,28.5802357 18.4614405,29.8111181 C22.4732052,28.9905299 25.8923228,26.6199416 28.0805581,23.2920004 C28.0805581,23.2920004 22.5643817,23.2920004 22.5643817,23.2920004 Z" id="Shape"></path>
            </g>
        </g>
    </g>
</svg>