<?xml version="1.0" encoding="utf-8"?>
<!-- Generator: Adobe Illustrator 22.0.1, SVG Export Plug-In . SVG Version: 6.00 Build 0)  -->
<svg version="1.1" xmlns="http://www.w3.org/2000/svg" xmlns:xlink="http://www.w3.org/1999/xlink" x="0px" y="0px"
	 viewBox="0 0 129 104" style="enable-background:new 0 0 129 104;" xml:space="preserve">
<style type="text/css">
	.st0{fill:none;stroke:#FFFFFF;stroke-width:1.854;stroke-miterlimit:10;}
	.st1{fill:none;stroke:#FFFFFF;stroke-width:1.854;}
	.st2{fill:#FFFFFF;}
	.st3{fill:none;stroke:#FFFFFF;stroke-width:2;stroke-linecap:round;stroke-linejoin:round;stroke-miterlimit:10;}
	.st4{fill:none;stroke:#FFFFFF;stroke-width:2;stroke-miterlimit:10;}
	.st5{fill:none;stroke:#FFFFFF;stroke-width:1.9255;stroke-miterlimit:10;}
	.st6{fill:none;stroke:#FFFFFF;stroke-linecap:round;stroke-linejoin:round;stroke-miterlimit:10;}
	.st7{fill:none;stroke:#FFFFFF;stroke-width:1.4107;stroke-miterlimit:10;}
	.st8{fill:none;stroke:#FFFFFF;stroke-width:2.2747;stroke-linecap:round;stroke-linejoin:round;stroke-miterlimit:10;}
	.st9{fill:none;stroke:#FFFFFF;stroke-width:2.03;stroke-linecap:round;stroke-linejoin:round;stroke-miterlimit:10;}
	.st10{fill:none;}
	.st11{fill:#FFFFFF;stroke:#FFFFFF;stroke-linecap:round;stroke-linejoin:round;stroke-miterlimit:10;}
</style>
<g id="Layer_2">
</g>
<g id="Layer_1">
</g>
<g id="Layer_3">
	<g>
		<g>
			<polyline class="st3" points="43.3,55.2 43.3,30.8 73.1,57 103,30.8 103,66.9 73.1,66.9 			"/>
			<polygon class="st3" points="46.2,27.3 100.1,27.3 72.8,50.2 			"/>
		</g>
		<path id="Shape" class="st2" d="M60.3,62.2c-6.3,0-6,9.1-18.6-3.4s-3.4-12.4-3.4-18.6c0-1.3-1.5-4.6-4.2-7.2
			c-4-3.9-9-7.7-15.9-0.9c-1.9,2-3.2,4.7-3.2,7.7c0,14.1,31.4,45.7,45.6,45.7c3,0,5.8-1.2,7.7-3.2c6.9-6.9,3-11.9-0.9-15.9
			C65,63.7,61.6,62.2,60.3,62.2z"/>
	</g>
</g>
</svg>
