<?xml version="1.0" encoding="UTF-8"?>
<svg width="133px" height="25px" viewBox="0 0 133 25" version="1.1" xmlns="http://www.w3.org/2000/svg" xmlns:xlink="http://www.w3.org/1999/xlink">
    <!-- Generator: Sketch 49.3 (51167) - http://www.bohemiancoding.com/sketch -->
    <title>Not Paige?</title>
    <desc>Created with Sketch.</desc>
    <defs></defs>
    <g id="iOS-App" stroke="none" stroke-width="1" fill="none" fill-rule="evenodd">
        <g id="Menu-Copy" transform="translate(-121.000000, -593.000000)" fill="#BFBFBF">
            <g id="Not-Paige?" transform="translate(121.000000, 593.000000)">
                <text font-family="Nunito-Regular, Nunito" font-size="18" font-weight="normal">
                    <tspan x="45.305" y="20">Not Paige?</tspan>
                </text>
                <g id="change-user" fill-rule="nonzero">
                    <path d="M24.8461538,14.5384615 C23.1153846,13.1538462 21.0384615,12.4230769 18.9230769,12.4230769 C16.8076923,12.4230769 14.7307692,13.1538462 13,14.5384615 C11.3076923,15.8846154 10.0384615,17.7307692 9.30769231,19.8846154 C8.88461538,21.0769231 9.07692308,22.3846154 9.80769231,23.3846154 C10.4230769,24.2692308 11.3461538,24.7692308 12.3846154,24.7692308 L25.5769231,24.7692308 C26.5769231,24.7692308 27.5,24.2692308 28.1538462,23.3846154 C28.8846154,22.3846154 29.0384615,21.0769231 28.6538462,19.8846154 C27.8076923,17.7307692 26.5384615,15.8846154 24.8461538,14.5384615 Z" id="Shape"></path>
                    <circle id="Oval" cx="18.9230769" cy="5.88461538" r="5.73076923"></circle>
                    <path d="M11.7692308,14.6153846 C11.8076923,14.6153846 11.8076923,14.5769231 11.8461538,14.5769231 C11.6153846,14.3461538 11.3461538,14.1153846 11.0769231,13.8846154 C9.88461538,12.9230769 8.5,12.4615385 7.03846154,12.4615385 C5.57692308,12.4615385 4.19230769,12.9615385 3,13.8846154 C1.84615385,14.8076923 0.961538462,16.0769231 0.461538462,17.5384615 C0.153846154,18.3461538 0.269230769,19.2307692 0.769230769,19.9230769 C1.19230769,20.5384615 1.84615385,20.8461538 2.5,20.8461538 L8.11538462,20.8461538 C8.11538462,20.5384615 8.15384615,20.2307692 8.23076923,19.9615385 C8.53846154,18.8846154 9.30769231,16.9230769 11.7692308,14.6153846 Z" id="Shape"></path>
                    <path d="M37.3461538,16.8461538 C36.8076923,15.3461538 35.9230769,14.0384615 34.7307692,13.1153846 C33.5,12.1538462 32.0769231,11.6538462 30.5769231,11.6538462 C29.0769231,11.6538462 27.6538462,12.1538462 26.4230769,13.1153846 C26.0769231,13.3846154 25.7307692,13.7307692 25.4230769,14.0769231 C25.5384615,14.1538462 25.6538462,14.2307692 25.7307692,14.3076923 C28.9230769,17.3846154 29.5769231,19.8846154 29.6538462,20.2307692 C29.6538462,20.2307692 29.6538462,20.2692308 29.6538462,20.2692308 C29.6538462,20.2692308 29.6538462,20.2692308 29.6538462,20.2692308 L35.1538462,20.2692308 C35.8461538,20.2692308 36.5,19.9230769 36.9615385,19.3076923 C37.5,18.5769231 37.6538462,17.6538462 37.3461538,16.8461538 Z" id="Shape"></path>
                    <circle id="Oval" cx="7.03846154" cy="7.96153846" r="3.92307692"></circle>
                    <circle id="Oval" cx="30.6538462" cy="7" r="4.03846154"></circle>
                </g>
            </g>
        </g>
    </g>
</svg>