<?xml version="1.0" encoding="UTF-8"?>
<svg width="292px" height="64px" viewBox="0 0 292 64" version="1.1" xmlns="http://www.w3.org/2000/svg" xmlns:xlink="http://www.w3.org/1999/xlink">
    <!-- Generator: Sketch 49.3 (51167) - http://www.bohemiancoding.com/sketch -->
    <title>im ready</title>
    <desc>Created with Sketch.</desc>
    <defs>
        <rect id="path-1" x="0" y="0" width="280" height="52" rx="26"></rect>
        <filter x="-3.6%" y="-15.4%" width="107.1%" height="138.5%" filterUnits="objectBoundingBox" id="filter-2">
            <feOffset dx="0" dy="2" in="SourceAlpha" result="shadowOffsetOuter1"></feOffset>
            <feGaussianBlur stdDeviation="3" in="shadowOffsetOuter1" result="shadowBlurOuter1"></feGaussianBlur>
            <feComposite in="shadowBlurOuter1" in2="SourceAlpha" operator="out" result="shadowBlurOuter1"></feComposite>
            <feColorMatrix values="0 0 0 0 0.541176471   0 0 0 0 0.792156863   0 0 0 0 0.847058824  0 0 0 0.4 0" type="matrix" in="shadowBlurOuter1"></feColorMatrix>
        </filter>
    </defs>
    <g id="iOS-App" stroke="none" stroke-width="1" fill="none" fill-rule="evenodd">
        <g id="New-User---Onboarding" transform="translate(-42.000000, -572.000000)">
            <g id="im-ready" transform="translate(48.000000, 576.000000)">
                <g id="Rectangle">
                    <use fill="black" fill-opacity="1" filter="url(#filter-2)" xlink:href="#path-1"></use>
                    <use fill="#8ACAD8" fill-rule="evenodd" xlink:href="#path-1"></use>
                    <rect stroke="#8ACAD8" stroke-width="2" x="1" y="1" width="278" height="50" rx="25"></rect>
                </g>
                <path d="M89.304,33.784 C89.0799989,33.5599989 88.968,33.2560019 88.968,32.872 L88.968,18.208 C88.968,17.8399982 89.0799989,17.5400012 89.304,17.308 C89.5280011,17.0759988 89.8239982,16.96 90.192,16.96 C90.5760019,16.96 90.8799989,17.0719989 91.104,17.296 C91.3280011,17.5200011 91.44,17.8239981 91.44,18.208 L91.44,32.872 C91.44,33.2560019 91.3320011,33.5599989 91.116,33.784 C90.8999989,34.0080011 90.592002,34.12 90.192,34.12 C89.8239982,34.12 89.5280011,34.0080011 89.304,33.784 Z M97.356,17.488 C97.6360014,17.8400018 97.776,18.3599966 97.776,19.048 C97.776,20.4080068 97.3200046,21.583995 96.408,22.576 C96.215999,22.768001 96.0080011,22.864 95.784,22.864 C95.575999,22.864 95.4000007,22.7960007 95.256,22.66 C95.1119993,22.5239993 95.04,22.360001 95.04,22.168 C95.04,21.9919991 95.1119993,21.8240008 95.256,21.664 C95.7040022,21.1999977 95.9919994,20.6480032 96.12,20.008 C95.719998,19.9759998 95.3880013,19.8240014 95.124,19.552 C94.8599987,19.2799986 94.728,18.9360021 94.728,18.52 C94.728,18.0719978 94.8719986,17.7000015 95.16,17.404 C95.4480014,17.1079985 95.7999979,16.96 96.216,16.96 C96.6960024,16.96 97.0759986,17.1359982 97.356,17.488 Z M118.176,26.728 L118.176,32.968 C118.176,33.3360018 118.064001,33.619999 117.84,33.82 C117.615999,34.020001 117.320002,34.12 116.952,34.12 C116.599998,34.12 116.312001,34.020001 116.088,33.82 C115.863999,33.619999 115.752,33.3360018 115.752,32.968 L115.752,26.752 C115.752,25.7759951 115.576002,25.0680022 115.224,24.628 C114.871998,24.1879978 114.320004,23.968 113.568,23.968 C112.687996,23.968 111.992003,24.267997 111.48,24.868 C110.967997,25.468003 110.712,26.2879948 110.712,27.328 L110.712,32.968 C110.712,33.3360018 110.600001,33.619999 110.376,33.82 C110.151999,34.020001 109.856002,34.12 109.488,34.12 C109.135998,34.12 108.848001,34.020001 108.624,33.82 C108.399999,33.619999 108.288,33.3360018 108.288,32.968 L108.288,26.752 C108.288,25.7759951 108.112002,25.0680022 107.76,24.628 C107.407998,24.1879978 106.856004,23.968 106.104,23.968 C105.223996,23.968 104.524003,24.267997 104.004,24.868 C103.483997,25.468003 103.224,26.2879948 103.224,27.328 L103.224,32.968 C103.224,33.3360018 103.112001,33.619999 102.888,33.82 C102.663999,34.020001 102.376002,34.12 102.024,34.12 C101.671998,34.12 101.380001,34.020001 101.148,33.82 C100.915999,33.619999 100.8,33.3360018 100.8,32.968 L100.8,23.2 C100.8,22.8479982 100.919999,22.568001 101.16,22.36 C101.400001,22.151999 101.687998,22.048 102.024,22.048 C102.360002,22.048 102.635999,22.147999 102.852,22.348 C103.068001,22.548001 103.176,22.8239982 103.176,23.176 L103.176,24.064 C103.528002,23.3919966 104.015997,22.8800018 104.64,22.528 C105.264003,22.1759982 105.983996,22 106.8,22 C107.696004,22 108.435997,22.1839982 109.02,22.552 C109.604003,22.9200018 110.039999,23.4879962 110.328,24.256 C110.680002,23.5679966 111.199997,23.020002 111.888,22.612 C112.576003,22.203998 113.359996,22 114.24,22 C116.864013,22 118.176,23.5759842 118.176,26.728 Z M135.12,23.032 C135.12,23.3840018 135.032001,23.6479991 134.856,23.824 C134.679999,24.0000009 134.376002,24.1039998 133.944,24.136 L133.224,24.208 C132.215995,24.3040005 131.468002,24.655997 130.98,25.264 C130.491998,25.872003 130.248,26.6079957 130.248,27.472 L130.248,32.968 C130.248,33.3520019 130.136001,33.639999 129.912,33.832 C129.687999,34.024001 129.400002,34.12 129.048,34.12 C128.695998,34.12 128.404001,34.024001 128.172,33.832 C127.939999,33.639999 127.824,33.3520019 127.824,32.968 L127.824,23.2 C127.824,22.8319982 127.939999,22.548001 128.172,22.348 C128.404001,22.147999 128.695998,22.048 129.048,22.048 C129.368002,22.048 129.635999,22.147999 129.852,22.348 C130.068001,22.548001 130.176,22.8239982 130.176,23.176 L130.176,24.328 C130.496002,23.6239965 130.959997,23.0880018 131.568,22.72 C132.176003,22.3519982 132.863996,22.1360003 133.632,22.072 L133.968,22.048 C134.736004,21.9999998 135.12,22.3279965 135.12,23.032 Z M146.328,31.312 C146.472001,31.4880009 146.544,31.7119986 146.544,31.984 C146.544,32.4480023 146.256003,32.8399984 145.68,33.16 C145.119997,33.4800016 144.508003,33.7279991 143.844,33.904 C143.179997,34.0800009 142.544003,34.168 141.936,34.168 C140.079991,34.168 138.616005,33.6280054 137.544,32.548 C136.471995,31.4679946 135.936,29.9920094 135.936,28.12 C135.936,26.919994 136.171998,25.8560046 136.644,24.928 C137.116002,23.9999954 137.779996,23.2800026 138.636,22.768 C139.492004,22.2559974 140.463995,22 141.552,22 C143.120008,22 144.359995,22.503995 145.272,23.512 C146.184005,24.520005 146.64,25.8799914 146.64,27.592 C146.64,28.2320032 146.352003,28.552 145.776,28.552 L138.36,28.552 C138.520001,31.0320124 139.711989,32.272 141.936,32.272 C142.528003,32.272 143.039998,32.1920008 143.472,32.032 C143.904002,31.8719992 144.359998,31.6640013 144.84,31.408 C144.888,31.3759998 145.019999,31.3080005 145.236,31.204 C145.452001,31.0999995 145.631999,31.048 145.776,31.048 C146.000001,31.048 146.183999,31.1359991 146.328,31.312 Z M139.368,24.664 C138.807997,25.256003 138.472001,26.0879946 138.36,27.16 L144.552,27.16 C144.504,26.0719946 144.228003,25.2360029 143.724,24.652 C143.219997,24.0679971 142.512005,23.776 141.6,23.776 C140.671995,23.776 139.928003,24.071997 139.368,24.664 Z M157.692,23.176 C158.452004,23.9600039 158.832,25.151992 158.832,26.752 L158.832,32.968 C158.832,33.3360018 158.728001,33.619999 158.52,33.82 C158.311999,34.020001 158.024002,34.12 157.656,34.12 C157.303998,34.12 157.024001,34.016001 156.816,33.808 C156.607999,33.599999 156.504,33.3200018 156.504,32.968 L156.504,32.08 C156.199998,32.7520034 155.748003,33.2679982 155.148,33.628 C154.547997,33.9880018 153.848004,34.168 153.048,34.168 C152.279996,34.168 151.576003,34.0120016 150.936,33.7 C150.295997,33.3879984 149.796002,32.9520028 149.436,32.392 C149.075998,31.8319972 148.896,31.2080034 148.896,30.52 C148.896,29.6719958 149.115998,29.0040024 149.556,28.516 C149.996002,28.0279976 150.723995,27.680001 151.74,27.472 C152.756005,27.263999 154.151991,27.16 155.928,27.16 L156.48,27.16 L156.48,26.464 C156.48,25.5679955 156.296002,24.920002 155.928,24.52 C155.559998,24.119998 154.968004,23.92 154.152,23.92 C153.591997,23.92 153.064002,23.9919993 152.568,24.136 C152.071998,24.2800007 151.528003,24.4879986 150.936,24.76 C150.503998,25.0000012 150.200001,25.12 150.024,25.12 C149.783999,25.12 149.588001,25.0320009 149.436,24.856 C149.283999,24.6799991 149.208,24.4560014 149.208,24.184 C149.208,23.9439988 149.275999,23.7320009 149.412,23.548 C149.548001,23.3639991 149.767998,23.1840009 150.072,23.008 C150.632003,22.7039985 151.287996,22.4600009 152.04,22.276 C152.792004,22.0919991 153.519996,22 154.224,22 C155.776008,22 156.931996,22.3919961 157.692,23.176 Z M155.64,31.468 C156.200003,30.867997 156.48,30.0960047 156.48,29.152 L156.48,28.528 L156.048,28.528 C154.799994,28.528 153.840003,28.5839994 153.168,28.696 C152.495997,28.8080006 152.016001,28.9959987 151.728,29.26 C151.439999,29.5240013 151.296,29.9039975 151.296,30.4 C151.296,30.9760029 151.503998,31.4479982 151.92,31.816 C152.336002,32.1840018 152.855997,32.368 153.48,32.368 C154.360004,32.368 155.079997,32.068003 155.64,31.468 Z M172.608,17.272 C172.832001,17.480001 172.944,17.7599982 172.944,18.112 L172.944,32.944 C172.944,33.3120018 172.836001,33.599999 172.62,33.808 C172.403999,34.016001 172.112002,34.12 171.744,34.12 C171.375998,34.12 171.084001,34.016001 170.868,33.808 C170.651999,33.599999 170.544,33.3120018 170.544,32.944 L170.544,31.984 C170.191998,32.6880035 169.680003,33.2279981 169.008,33.604 C168.335997,33.9800019 167.560004,34.168 166.68,34.168 C165.671995,34.168 164.772004,33.9120026 163.98,33.4 C163.187996,32.8879974 162.572002,32.1680046 162.132,31.24 C161.691998,30.3119954 161.472,29.248006 161.472,28.048 C161.472,26.8319939 161.691998,25.7680046 162.132,24.856 C162.572002,23.9439954 163.183996,23.2400025 163.968,22.744 C164.752004,22.2479975 165.655995,22 166.68,22 C167.560004,22 168.331997,22.1879981 168.996,22.564 C169.660003,22.9400019 170.167998,23.4719966 170.52,24.16 L170.52,18.064 C170.52,17.7279983 170.627999,17.460001 170.844,17.26 C171.060001,17.059999 171.351998,16.96 171.72,16.96 C172.088002,16.96 172.383999,17.063999 172.608,17.272 Z M169.68,31.168 C170.256003,30.4479964 170.544,29.4240066 170.544,28.096 C170.544,26.7679934 170.260003,25.7440036 169.692,25.024 C169.123997,24.3039964 168.312005,23.944 167.256,23.944 C166.199995,23.944 165.380003,24.2999964 164.796,25.012 C164.211997,25.7240036 163.92,26.7359934 163.92,28.048 C163.92,29.3600066 164.215997,30.3879963 164.808,31.132 C165.400003,31.8760037 166.215995,32.248 167.256,32.248 C168.296005,32.248 169.103997,31.8880036 169.68,31.168 Z M185.076,22.24 C185.260001,22.1279994 185.455999,22.072 185.664,22.072 C185.968002,22.072 186.235999,22.175999 186.468,22.384 C186.700001,22.592001 186.816,22.8399986 186.816,23.128 C186.816,23.2880008 186.784,23.4399993 186.72,23.584 L180.048,37.744 C179.952,37.9680011 179.812001,38.1399994 179.628,38.26 C179.443999,38.3800006 179.248001,38.44 179.04,38.44 C178.751999,38.44 178.492001,38.344001 178.26,38.152 C178.027999,37.959999 177.912,37.7200014 177.912,37.432 C177.912,37.3039994 177.952,37.144001 178.032,36.952 L179.688,33.424 L175.056,23.584 C174.992,23.4559994 174.96,23.3120008 174.96,23.152 C174.96,22.8479985 175.087999,22.592001 175.344,22.384 C175.600001,22.175999 175.887998,22.072 176.208,22.072 C176.688002,22.072 177.031999,22.2959978 177.24,22.744 L180.96,31 L184.656,22.768 C184.752,22.5279988 184.891999,22.3520006 185.076,22.24 Z M189.48,29.224 C189.335999,29.0799993 189.256,28.8880012 189.24,28.648 L188.52,18.472 C188.472,18.0239978 188.587999,17.6600014 188.868,17.38 C189.148001,17.0999986 189.519998,16.96 189.984,16.96 C190.432002,16.96 190.795999,17.0999986 191.076,17.38 C191.356001,17.6600014 191.472,18.0239978 191.424,18.472 L190.704,28.648 C190.688,28.9040013 190.616001,29.0999993 190.488,29.236 C190.359999,29.3720007 190.192001,29.44 189.984,29.44 C189.791999,29.44 189.624001,29.3680007 189.48,29.224 Z M188.892,33.688 C188.595999,33.3999986 188.448,33.0320022 188.448,32.584 C188.448,32.1359978 188.595999,31.7640015 188.892,31.468 C189.188001,31.1719985 189.551998,31.024 189.984,31.024 C190.416002,31.024 190.775999,31.1719985 191.064,31.468 C191.352001,31.7640015 191.496,32.1359978 191.496,32.584 C191.496,33.0320022 191.352001,33.3999986 191.064,33.688 C190.775999,33.9760014 190.416002,34.12 189.984,34.12 C189.551998,34.12 189.188001,33.9760014 188.892,33.688 Z" id="I’m-ready!" fill="#FFFFFF"></path>
            </g>
        </g>
    </g>
</svg>