<?xml version="1.0" encoding="UTF-8"?>
<svg width="72px" height="92px" viewBox="0 0 72 92" version="1.1" xmlns="http://www.w3.org/2000/svg" xmlns:xlink="http://www.w3.org/1999/xlink">
    <!-- Generator: Sketch 49.3 (51167) - http://www.bohemiancoding.com/sketch -->
    <title>lock-big</title>
    <desc>Created with Sketch.</desc>
    <defs></defs>
    <g id="iOS-App" stroke="none" stroke-width="1" fill="none" fill-rule="evenodd">
        <g id="Parents---enter-password-empty" transform="translate(-152.000000, -114.000000)" fill="#361E56" fill-rule="nonzero">
            <g id="lock-big" transform="translate(152.000000, 114.000000)">
                <path d="M36.0923077,35.2430769 C44.3015385,35.2430769 52.3692308,35.2430769 60.5784615,35.2430769 C63.6923077,35.2430769 66.24,36.3753846 68.3630769,38.64 C70.3446154,40.6215385 71.1938462,43.1692308 71.1938462,45.8584615 C71.1938462,57.6061538 71.1938462,69.2123077 71.1938462,80.96 C71.1938462,85.2061538 69.0707692,88.4615385 65.3907692,90.4430769 C63.9753846,91.2923077 62.2769231,91.5753846 60.72,91.5753846 C44.3015385,91.5753846 27.8830769,91.5753846 11.4646154,91.5753846 C6.36923077,91.5753846 2.12307692,88.0369231 1.13230769,83.0830769 C0.990769231,82.3753846 0.990769231,81.5261538 0.990769231,80.8184615 C0.990769231,69.2123077 0.990769231,57.4646154 0.990769231,45.8584615 C0.990769231,40.9046154 4.24615385,36.8 8.91692308,35.5261538 C9.76615385,35.2430769 10.7569231,35.2430769 11.6061538,35.2430769 C19.8153846,35.2430769 27.8830769,35.2430769 36.0923077,35.2430769 Z M32.5538462,70.0615385 C32.5538462,71.3353846 32.5538462,72.4676923 32.5538462,73.7415385 C32.5538462,74.0246154 32.5538462,74.3076923 32.5538462,74.5907692 C32.8369231,76.4307692 34.8184615,77.8461538 36.6584615,77.4215385 C38.3569231,77.1384615 39.4892308,75.7230769 39.4892308,73.8830769 C39.4892308,71.3353846 39.4892308,68.7876923 39.4892308,66.24 C39.4892308,65.9569231 39.4892308,65.9569231 39.7723077,65.8153846 C42.1784615,64.2584615 43.4523077,61.2861538 42.8861538,58.5969231 C42.0369231,54.3507692 37.7907692,51.9446154 33.6861538,53.36 C30.5723077,54.4923077 28.5907692,57.7476923 29.0153846,61.0030769 C29.2984615,63.1261538 30.4307692,64.8246154 32.2707692,65.9569231 C32.4123077,66.0984615 32.5538462,66.24 32.5538462,66.3815385 C32.5538462,67.5138462 32.5538462,68.7876923 32.5538462,70.0615385 Z" id="Shape"></path>
                <path d="M60.72,31.7046154 C57.1815385,31.7046154 53.6430769,31.7046154 50.1046154,31.7046154 C50.1046154,31.5630769 50.1046154,31.4215385 50.1046154,31.4215385 C50.1046154,29.5815385 50.1046154,27.7415385 49.9630769,25.9015385 C49.8215385,22.6461538 49.1138462,19.5323077 47.5569231,16.7015385 C45.7169231,13.4461538 42.8861538,11.4646154 39.2061538,10.8984615 C36.8,10.4738462 34.3938462,10.6153846 31.9876923,11.04 C28.8738462,11.7476923 26.4676923,13.5876923 24.7692308,16.4184615 C23.6369231,18.2584615 22.9292308,20.3815385 22.5046154,22.5046154 C22.08,24.4861538 21.9384615,26.4676923 21.9384615,28.4492308 C21.9384615,29.44 21.9384615,30.5723077 21.9384615,31.5630769 C21.9384615,31.7046154 21.9384615,31.7046154 21.9384615,31.8461538 C18.4,31.8461538 14.8615385,31.8461538 11.4646154,31.8461538 C11.4646154,31.7046154 11.4646154,31.5630769 11.4646154,31.5630769 C11.4646154,29.8646154 11.4646154,28.1661538 11.4646154,26.4676923 C11.6061538,21.6553846 12.5969231,16.9846154 14.8615385,12.5969231 C16.1353846,10.0492308 17.8338462,7.78461538 20.0984615,5.94461538 C22.6461538,3.82153846 25.4769231,2.26461538 28.7323077,1.27384615 C31.8461538,0.424615385 34.96,-7.02216063e-15 38.0738462,0.283076923 C42.4615385,0.566153846 46.5661538,1.84 50.2461538,4.38769231 C53.7846154,6.79384615 56.1907692,10.0492308 58.0307692,13.7292308 C59.3046154,16.56 60.1538462,19.5323077 60.5784615,22.6461538 C60.8615385,24.4861538 61.0030769,26.4676923 61.0030769,28.4492308 C61.0030769,29.44 61.0030769,30.5723077 61.0030769,31.5630769 C60.72,31.4215385 60.72,31.5630769 60.72,31.7046154 Z" id="Shape"></path>
            </g>
        </g>
    </g>
</svg>