<?xml version="1.0" encoding="UTF-8"?>
<svg width="165px" height="165px" viewBox="0 0 165 165" version="1.1" xmlns="http://www.w3.org/2000/svg" xmlns:xlink="http://www.w3.org/1999/xlink">
    <!-- Generator: Sketch 49.3 (51167) - http://www.bohemiancoding.com/sketch -->
    <title>Learn BSL button</title>
    <desc>Created with Sketch.</desc>
    <defs>
        <linearGradient x1="93.1194256%" y1="12.755108%" x2="50%" y2="100%" id="linearGradient-1">
            <stop stop-color="#F9B642" offset="0%"></stop>
            <stop stop-color="#F19034" offset="100%"></stop>
        </linearGradient>
        <rect id="path-2" x="0" y="0" width="145" height="145" rx="15"></rect>
        <filter x="-9.0%" y="-9.7%" width="123.4%" height="123.4%" filterUnits="objectBoundingBox" id="filter-3">
            <feOffset dx="4" dy="3" in="SourceAlpha" result="shadowOffsetOuter1"></feOffset>
            <feGaussianBlur stdDeviation="5" in="shadowOffsetOuter1" result="shadowBlurOuter1"></feGaussianBlur>
            <feColorMatrix values="0 0 0 0 0.937254902   0 0 0 0 0.819607843   0 0 0 0 0.329411765  0 0 0 0.3 0" type="matrix" in="shadowBlurOuter1"></feColorMatrix>
        </filter>
    </defs>
    <g id="iOS-App" stroke="none" stroke-width="1" fill="none" fill-rule="evenodd">
        <g id="Menu-Copy" transform="translate(-23.000000, -353.000000)">
            <g id="Learn-BSL-button" transform="translate(29.000000, 360.000000)">
                <g id="Rectangle-8-Copy-8">
                    <use fill="black" fill-opacity="1" filter="url(#filter-3)" xlink:href="#path-2"></use>
                    <use fill="url(#linearGradient-1)" fill-rule="evenodd" xlink:href="#path-2"></use>
                </g>
                <path d="M49.79,108.79 C49.6366659,108.649999 49.56,108.466668 49.56,108.24 L49.56,95.64 C49.56,95.3866654 49.6333326,95.1833341 49.78,95.03 C49.9266674,94.8766659 50.1266654,94.8 50.38,94.8 C50.6333346,94.8 50.8333326,94.8766659 50.98,95.03 C51.1266674,95.1833341 51.2,95.3866654 51.2,95.64 L51.2,107.6 L57.66,107.6 C57.9000012,107.6 58.086666,107.659999 58.22,107.78 C58.353334,107.900001 58.42,108.073332 58.42,108.3 C58.42,108.526668 58.353334,108.699999 58.22,108.82 C58.086666,108.940001 57.9000012,109 57.66,109 L50.36,109 C50.1333322,109 49.9433341,108.930001 49.79,108.79 Z M68.04,106.92 C68.1466672,107.040001 68.2,107.193332 68.2,107.38 C68.2,107.713335 67.966669,108.019999 67.5,108.3 C67.0199976,108.580001 66.513336,108.789999 65.98,108.93 C65.446664,109.070001 64.9266692,109.14 64.42,109.14 C62.9133258,109.14 61.7233377,108.693338 60.85,107.8 C59.9766623,106.906662 59.54,105.673341 59.54,104.1 C59.54,103.099995 59.7333314,102.21667 60.12,101.45 C60.5066686,100.683329 61.0499965,100.086669 61.75,99.66 C62.4500035,99.2333312 63.2466622,99.02 64.14,99.02 C65.406673,99.02 66.4133296,99.4333292 67.16,100.26 C67.9066704,101.086671 68.28,102.20666 68.28,103.62 C68.28,103.886668 68.2266672,104.079999 68.12,104.2 C68.0133328,104.320001 67.8400012,104.38 67.6,104.38 L61.16,104.38 C61.2800006,106.673345 62.3666564,107.82 64.42,107.82 C64.9400026,107.82 65.3866648,107.750001 65.76,107.61 C66.1333352,107.469999 66.5333312,107.280001 66.96,107.04 C67.3066684,106.839999 67.5399994,106.74 67.66,106.74 C67.8066674,106.74 67.9333328,106.799999 68.04,106.92 Z M62.11,101.08 C61.5966641,101.613336 61.2933338,102.366662 61.2,103.34 L66.86,103.34 C66.8333332,102.353328 66.586669,101.596669 66.12,101.07 C65.653331,100.543331 65.0000042,100.28 64.16,100.28 C63.3066624,100.28 62.6233359,100.546664 62.11,101.08 Z M78.3,102.86 L78.3,108.3 C78.3,108.540001 78.2300007,108.733333 78.09,108.88 C77.9499993,109.026667 77.7600012,109.1 77.52,109.1 C77.2799988,109.1 77.0866674,109.026667 76.94,108.88 C76.7933326,108.733333 76.72,108.540001 76.72,108.3 L76.72,107.34 C76.4666654,107.913336 76.0800026,108.356665 75.56,108.67 C75.0399974,108.983335 74.4400034,109.14 73.76,109.14 C73.1333302,109.14 72.5566693,109.013335 72.03,108.76 C71.5033307,108.506665 71.0866682,108.153336 70.78,107.7 C70.4733318,107.246664 70.32,106.746669 70.32,106.2 C70.32,105.466663 70.5066648,104.896669 70.88,104.49 C71.2533352,104.083331 71.8666624,103.790001 72.72,103.61 C73.5733376,103.429999 74.7599924,103.34 76.28,103.34 L76.72,103.34 L76.72,102.68 C76.72,101.879996 76.5566683,101.293335 76.23,100.92 C75.9033317,100.546665 75.373337,100.36 74.64,100.36 C73.7333288,100.36 72.813338,100.606664 71.88,101.1 C71.5199982,101.326668 71.2666674,101.44 71.12,101.44 C70.9599992,101.44 70.8266672,101.380001 70.72,101.26 C70.6133328,101.139999 70.56,100.986668 70.56,100.8 C70.56,100.613332 70.6166661,100.450001 70.73,100.31 C70.8433339,100.169999 71.0266654,100.026667 71.28,99.88 C71.746669,99.613332 72.2766637,99.4033341 72.87,99.25 C73.4633363,99.0966659 74.0533304,99.02 74.64,99.02 C77.0800122,99.02 78.3,100.299987 78.3,102.86 Z M75.95,107.05 C76.4633359,106.509997 76.72,105.813338 76.72,104.96 L76.72,104.38 L76.36,104.38 C75.1866608,104.38 74.2933364,104.43 73.68,104.53 C73.0666636,104.63 72.6300013,104.796666 72.37,105.03 C72.1099987,105.263334 71.98,105.606664 71.98,106.06 C71.98,106.580003 72.1699981,107.009998 72.55,107.35 C72.9300019,107.690002 73.4066638,107.86 73.98,107.86 C74.780004,107.86 75.4366641,107.590003 75.95,107.05 Z M86.92,99.74 C86.92,99.9533344 86.8600006,100.123333 86.74,100.25 C86.6199994,100.376667 86.4133348,100.453333 86.12,100.48 L85.52,100.54 C84.6266622,100.62 83.9633355,100.936664 83.53,101.49 C83.0966645,102.043336 82.88,102.69333 82.88,103.44 L82.88,108.3 C82.88,108.566668 82.8066674,108.766666 82.66,108.9 C82.5133326,109.033334 82.3200012,109.1 82.08,109.1 C81.8399988,109.1 81.6433341,109.030001 81.49,108.89 C81.3366659,108.749999 81.26,108.553335 81.26,108.3 L81.26,99.86 C81.26,99.6066654 81.3399992,99.4100007 81.5,99.27 C81.6600008,99.1299993 81.8533322,99.06 82.08,99.06 C82.2933344,99.06 82.4733326,99.1299993 82.62,99.27 C82.7666674,99.4100007 82.84,99.5999988 82.84,99.84 L82.84,100.96 C83.1200014,100.37333 83.5166641,99.9266682 84.03,99.62 C84.5433359,99.3133318 85.13333,99.1333336 85.8,99.08 L86.08,99.06 C86.6400028,99.0199998 86.92,99.2466642 86.92,99.74 Z M96.72,102.88 L96.72,108.3 C96.72,108.553335 96.6500007,108.749999 96.51,108.89 C96.3699993,109.030001 96.1733346,109.1 95.92,109.1 C95.6666654,109.1 95.4666674,109.030001 95.32,108.89 C95.1733326,108.749999 95.1,108.553335 95.1,108.3 L95.1,102.98 C95.1,102.073329 94.9233351,101.413335 94.57,101 C94.2166649,100.586665 93.6533372,100.38 92.88,100.38 C91.9866622,100.38 91.273336,100.653331 90.74,101.2 C90.206664,101.746669 89.94,102.486662 89.94,103.42 L89.94,108.3 C89.94,108.553335 89.8700007,108.749999 89.73,108.89 C89.5899993,109.030001 89.3933346,109.1 89.14,109.1 C88.8866654,109.1 88.6866674,109.030001 88.54,108.89 C88.3933326,108.749999 88.32,108.553335 88.32,108.3 L88.32,99.86 C88.32,99.6199988 88.3933326,99.4266674 88.54,99.28 C88.6866674,99.1333326 88.8866654,99.06 89.14,99.06 C89.3800012,99.06 89.5699993,99.1333326 89.71,99.28 C89.8500007,99.4266674 89.92,99.6133322 89.92,99.84 L89.92,100.86 C90.2400016,100.259997 90.6866638,99.8033349 91.26,99.49 C91.8333362,99.1766651 92.486663,99.02 93.22,99.02 C95.553345,99.02 96.72,100.306654 96.72,102.88 Z M9.48,131.71 C8.5666621,131.409999 7.8366694,131.006669 7.29,130.5 C7.089999,130.313332 6.99,130.080001 6.99,129.8 C6.99,129.613332 7.0433328,129.450001 7.15,129.31 C7.2566672,129.169999 7.3833326,129.1 7.53,129.1 C7.7033342,129.1 7.889999,129.173333 8.09,129.32 C9.3300062,130.280005 10.7433254,130.76 12.33,130.76 C13.4766724,130.76 14.3566636,130.540002 14.97,130.1 C15.5833364,129.659998 15.89,129.033337 15.89,128.22 C15.89,127.753331 15.7433348,127.376668 15.45,127.09 C15.1566652,126.803332 14.7700024,126.573334 14.29,126.4 C13.8099976,126.226666 13.1633374,126.046668 12.35,125.86 C11.2566612,125.606665 10.3600035,125.340001 9.66,125.06 C8.9599965,124.779999 8.3933355,124.380003 7.96,123.86 C7.5266645,123.339997 7.31,122.660004 7.31,121.82 C7.31,121.019996 7.5266645,120.310003 7.96,119.69 C8.3933355,119.069997 8.9999961,118.590002 9.78,118.25 C10.5600039,117.909998 11.449995,117.74 12.45,117.74 C13.383338,117.74 14.2533293,117.883332 15.06,118.17 C15.8666707,118.456668 16.5433306,118.866664 17.09,119.4 C17.3033344,119.613334 17.41,119.846665 17.41,120.1 C17.41,120.286668 17.3566672,120.449999 17.25,120.59 C17.1433328,120.730001 17.0166674,120.8 16.87,120.8 C16.7233326,120.8 16.5300012,120.726667 16.29,120.58 C15.6366634,120.046664 15.0300028,119.673334 14.47,119.46 C13.9099972,119.246666 13.2366706,119.14 12.45,119.14 C11.3433278,119.14 10.4833364,119.369998 9.87,119.83 C9.2566636,120.290002 8.95,120.933329 8.95,121.76 C8.95,122.46667 9.2199973,122.996665 9.76,123.35 C10.3000027,123.703335 11.1299944,124.013332 12.25,124.28 C13.4633394,124.573335 14.4166632,124.843332 15.11,125.09 C15.8033368,125.336668 16.3799977,125.706664 16.84,126.2 C17.3000023,126.693336 17.53,127.353329 17.53,128.18 C17.53,128.966671 17.3133355,129.659997 16.88,130.26 C16.4466645,130.860003 15.8366706,131.326665 15.05,131.66 C14.2633294,131.993335 13.3633384,132.16 12.35,132.16 C11.349995,132.16 10.3933379,132.010001 9.48,131.71 Z M20.18,131.89 C20.0266659,131.749999 19.95,131.553335 19.95,131.3 L19.95,122.86 C19.95,122.606665 20.0266659,122.410001 20.18,122.27 C20.3333341,122.129999 20.5299988,122.06 20.77,122.06 C21.0100012,122.06 21.2033326,122.129999 21.35,122.27 C21.4966674,122.410001 21.57,122.606665 21.57,122.86 L21.57,131.3 C21.57,131.566668 21.4966674,131.766666 21.35,131.9 C21.2033326,132.033334 21.0100012,132.1 20.77,132.1 C20.5299988,132.1 20.3333341,132.030001 20.18,131.89 Z M19.99,119.68 C19.789999,119.493332 19.69,119.246668 19.69,118.94 C19.69,118.646665 19.789999,118.406668 19.99,118.22 C20.190001,118.033332 20.4499984,117.94 20.77,117.94 C21.0900016,117.94 21.349999,118.033332 21.55,118.22 C21.750001,118.406668 21.85,118.646665 21.85,118.94 C21.85,119.246668 21.750001,119.493332 21.55,119.68 C21.349999,119.866668 21.0900016,119.96 20.77,119.96 C20.4499984,119.96 20.190001,119.866668 19.99,119.68 Z M33.09,122.28 C33.2366674,122.426667 33.31,122.619999 33.31,122.86 L33.31,131.34 C33.31,132.793341 32.9366704,133.889996 32.19,134.63 C31.4433296,135.370004 30.336674,135.74 28.87,135.74 C27.4433262,135.74 26.2566714,135.460003 25.31,134.9 C24.8299976,134.633332 24.59,134.326668 24.59,133.98 C24.59,133.793332 24.6399995,133.640001 24.74,133.52 C24.8400005,133.399999 24.9699992,133.34 25.13,133.34 C25.263334,133.34 25.5033316,133.433332 25.85,133.62 C26.316669,133.860001 26.7766644,134.053333 27.23,134.2 C27.6833356,134.346667 28.2233302,134.42 28.85,134.42 C29.7966714,134.42 30.5099976,134.170003 30.99,133.67 C31.4700024,133.169997 31.71,132.440005 31.71,131.48 L31.71,129.76 C31.4299986,130.38667 31.0000029,130.866665 30.42,131.2 C29.8399971,131.533335 29.1566706,131.7 28.37,131.7 C27.5166624,131.7 26.7600033,131.500002 26.1,131.1 C25.4399967,130.699998 24.9266685,130.133337 24.56,129.4 C24.1933315,128.666663 24.01,127.820005 24.01,126.86 C24.01,125.899995 24.1933315,125.053337 24.56,124.32 C24.9266685,123.586663 25.4399967,123.020002 26.1,122.62 C26.7600033,122.219998 27.5166624,122.02 28.37,122.02 C29.1433372,122.02 29.8166638,122.186665 30.39,122.52 C30.9633362,122.853335 31.3966652,123.326664 31.69,123.94 L31.69,122.86 C31.69,122.619999 31.7599993,122.426667 31.9,122.28 C32.0400007,122.133333 32.2366654,122.06 32.49,122.06 C32.7433346,122.06 32.9433326,122.133333 33.09,122.28 Z M30.89,129.43 C31.423336,128.809997 31.69,127.953339 31.69,126.86 C31.69,125.779995 31.4266693,124.930003 30.9,124.31 C30.3733307,123.689997 29.6366714,123.38 28.69,123.38 C27.7433286,123.38 27.0000027,123.689997 26.46,124.31 C25.9199973,124.930003 25.65,125.779995 25.65,126.86 C25.65,127.953339 25.9199973,128.809997 26.46,129.43 C27.0000027,130.050003 27.7433286,130.36 28.69,130.36 C29.623338,130.36 30.356664,130.050003 30.89,129.43 Z M44.71,125.88 L44.71,131.3 C44.71,131.553335 44.6400007,131.749999 44.5,131.89 C44.3599993,132.030001 44.1633346,132.1 43.91,132.1 C43.6566654,132.1 43.4566674,132.030001 43.31,131.89 C43.1633326,131.749999 43.09,131.553335 43.09,131.3 L43.09,125.98 C43.09,125.073329 42.9133351,124.413335 42.56,124 C42.2066649,123.586665 41.6433372,123.38 40.87,123.38 C39.9766622,123.38 39.263336,123.653331 38.73,124.2 C38.196664,124.746669 37.93,125.486662 37.93,126.42 L37.93,131.3 C37.93,131.553335 37.8600007,131.749999 37.72,131.89 C37.5799993,132.030001 37.3833346,132.1 37.13,132.1 C36.8766654,132.1 36.6766674,132.030001 36.53,131.89 C36.3833326,131.749999 36.31,131.553335 36.31,131.3 L36.31,122.86 C36.31,122.619999 36.3833326,122.426667 36.53,122.28 C36.6766674,122.133333 36.8766654,122.06 37.13,122.06 C37.3700012,122.06 37.5599993,122.133333 37.7,122.28 C37.8400007,122.426667 37.91,122.613332 37.91,122.84 L37.91,123.86 C38.2300016,123.259997 38.6766638,122.803335 39.25,122.49 C39.8233362,122.176665 40.476663,122.02 41.21,122.02 C43.543345,122.02 44.71,123.306654 44.71,125.88 Z M53.3,131.79 C53.1466659,131.649999 53.07,131.466668 53.07,131.24 L53.07,118.64 C53.07,118.386665 53.1433326,118.183334 53.29,118.03 C53.4366674,117.876666 53.6366654,117.8 53.89,117.8 C54.1433346,117.8 54.3433326,117.876666 54.49,118.03 C54.6366674,118.183334 54.71,118.386665 54.71,118.64 L54.71,130.6 L61.17,130.6 C61.4100012,130.6 61.596666,130.659999 61.73,130.78 C61.863334,130.900001 61.93,131.073332 61.93,131.3 C61.93,131.526668 61.863334,131.699999 61.73,131.82 C61.596666,131.940001 61.4100012,132 61.17,132 L53.87,132 C53.6433322,132 53.4533341,131.930001 53.3,131.79 Z M71.27,125.86 L71.27,131.3 C71.27,131.540001 71.2000007,131.733333 71.06,131.88 C70.9199993,132.026667 70.7300012,132.1 70.49,132.1 C70.2499988,132.1 70.0566674,132.026667 69.91,131.88 C69.7633326,131.733333 69.69,131.540001 69.69,131.3 L69.69,130.34 C69.4366654,130.913336 69.0500026,131.356665 68.53,131.67 C68.0099974,131.983335 67.4100034,132.14 66.73,132.14 C66.1033302,132.14 65.5266693,132.013335 65,131.76 C64.4733307,131.506665 64.0566682,131.153336 63.75,130.7 C63.4433318,130.246664 63.29,129.746669 63.29,129.2 C63.29,128.466663 63.4766648,127.896669 63.85,127.49 C64.2233352,127.083331 64.8366624,126.790001 65.69,126.61 C66.5433376,126.429999 67.7299924,126.34 69.25,126.34 L69.69,126.34 L69.69,125.68 C69.69,124.879996 69.5266683,124.293335 69.2,123.92 C68.8733317,123.546665 68.343337,123.36 67.61,123.36 C66.7033288,123.36 65.783338,123.606664 64.85,124.1 C64.4899982,124.326668 64.2366674,124.44 64.09,124.44 C63.9299992,124.44 63.7966672,124.380001 63.69,124.26 C63.5833328,124.139999 63.53,123.986668 63.53,123.8 C63.53,123.613332 63.5866661,123.450001 63.7,123.31 C63.8133339,123.169999 63.9966654,123.026667 64.25,122.88 C64.716669,122.613332 65.2466637,122.403334 65.84,122.25 C66.4333363,122.096666 67.0233304,122.02 67.61,122.02 C70.0500122,122.02 71.27,123.299987 71.27,125.86 Z M68.92,130.05 C69.4333359,129.509997 69.69,128.813338 69.69,127.96 L69.69,127.38 L69.33,127.38 C68.1566608,127.38 67.2633364,127.43 66.65,127.53 C66.0366636,127.63 65.6000013,127.796666 65.34,128.03 C65.0799987,128.263334 64.95,128.606664 64.95,129.06 C64.95,129.580003 65.1399981,130.009998 65.52,130.35 C65.9000019,130.690002 66.3766638,130.86 66.95,130.86 C67.750004,130.86 68.4066641,130.590003 68.92,130.05 Z M82.63,125.88 L82.63,131.3 C82.63,131.553335 82.5600007,131.749999 82.42,131.89 C82.2799993,132.030001 82.0833346,132.1 81.83,132.1 C81.5766654,132.1 81.3766674,132.030001 81.23,131.89 C81.0833326,131.749999 81.01,131.553335 81.01,131.3 L81.01,125.98 C81.01,125.073329 80.8333351,124.413335 80.48,124 C80.1266649,123.586665 79.5633372,123.38 78.79,123.38 C77.8966622,123.38 77.183336,123.653331 76.65,124.2 C76.116664,124.746669 75.85,125.486662 75.85,126.42 L75.85,131.3 C75.85,131.553335 75.7800007,131.749999 75.64,131.89 C75.4999993,132.030001 75.3033346,132.1 75.05,132.1 C74.7966654,132.1 74.5966674,132.030001 74.45,131.89 C74.3033326,131.749999 74.23,131.553335 74.23,131.3 L74.23,122.86 C74.23,122.619999 74.3033326,122.426667 74.45,122.28 C74.5966674,122.133333 74.7966654,122.06 75.05,122.06 C75.2900012,122.06 75.4799993,122.133333 75.62,122.28 C75.7600007,122.426667 75.83,122.613332 75.83,122.84 L75.83,123.86 C76.1500016,123.259997 76.5966638,122.803335 77.17,122.49 C77.7433362,122.176665 78.396663,122.02 79.13,122.02 C81.463345,122.02 82.63,123.306654 82.63,125.88 Z M94.09,122.28 C94.2366674,122.426667 94.31,122.619999 94.31,122.86 L94.31,131.34 C94.31,132.793341 93.9366704,133.889996 93.19,134.63 C92.4433296,135.370004 91.336674,135.74 89.87,135.74 C88.4433262,135.74 87.2566714,135.460003 86.31,134.9 C85.8299976,134.633332 85.59,134.326668 85.59,133.98 C85.59,133.793332 85.6399995,133.640001 85.74,133.52 C85.8400005,133.399999 85.9699992,133.34 86.13,133.34 C86.263334,133.34 86.5033316,133.433332 86.85,133.62 C87.316669,133.860001 87.7766644,134.053333 88.23,134.2 C88.6833356,134.346667 89.2233302,134.42 89.85,134.42 C90.7966714,134.42 91.5099976,134.170003 91.99,133.67 C92.4700024,133.169997 92.71,132.440005 92.71,131.48 L92.71,129.76 C92.4299986,130.38667 92.0000029,130.866665 91.42,131.2 C90.8399971,131.533335 90.1566706,131.7 89.37,131.7 C88.5166624,131.7 87.7600033,131.500002 87.1,131.1 C86.4399967,130.699998 85.9266685,130.133337 85.56,129.4 C85.1933315,128.666663 85.01,127.820005 85.01,126.86 C85.01,125.899995 85.1933315,125.053337 85.56,124.32 C85.9266685,123.586663 86.4399967,123.020002 87.1,122.62 C87.7600033,122.219998 88.5166624,122.02 89.37,122.02 C90.1433372,122.02 90.8166638,122.186665 91.39,122.52 C91.9633362,122.853335 92.3966652,123.326664 92.69,123.94 L92.69,122.86 C92.69,122.619999 92.7599993,122.426667 92.9,122.28 C93.0400007,122.133333 93.2366654,122.06 93.49,122.06 C93.7433346,122.06 93.9433326,122.133333 94.09,122.28 Z M91.89,129.43 C92.423336,128.809997 92.69,127.953339 92.69,126.86 C92.69,125.779995 92.4266693,124.930003 91.9,124.31 C91.3733307,123.689997 90.6366714,123.38 89.69,123.38 C88.7433286,123.38 88.0000027,123.689997 87.46,124.31 C86.9199973,124.930003 86.65,125.779995 86.65,126.86 C86.65,127.953339 86.9199973,128.809997 87.46,129.43 C88.0000027,130.050003 88.7433286,130.36 89.69,130.36 C90.623338,130.36 91.356664,130.050003 91.89,129.43 Z M105.3,122.28 C105.440001,122.426667 105.51,122.619999 105.51,122.86 L105.51,131.32 C105.51,131.546668 105.440001,131.733333 105.3,131.88 C105.159999,132.026667 104.963335,132.1 104.71,132.1 C104.469999,132.1 104.280001,132.030001 104.14,131.89 C103.999999,131.749999 103.93,131.566668 103.93,131.34 L103.93,130.34 C103.623332,130.92667 103.193336,131.373332 102.64,131.68 C102.086664,131.986668 101.463337,132.14 100.77,132.14 C99.6099942,132.14 98.7366696,131.81667 98.15,131.17 C97.5633304,130.52333 97.27,129.566673 97.27,128.3 L97.27,122.86 C97.27,122.619999 97.3433326,122.426667 97.49,122.28 C97.6366674,122.133333 97.8366654,122.06 98.09,122.06 C98.3433346,122.06 98.5399993,122.133333 98.68,122.28 C98.8200007,122.426667 98.89,122.619999 98.89,122.86 L98.89,128.26 C98.89,129.126671 99.0633316,129.763331 99.41,130.17 C99.7566684,130.576669 100.30333,130.78 101.05,130.78 C101.903338,130.78 102.589997,130.503336 103.11,129.95 C103.630003,129.396664 103.89,128.666671 103.89,127.76 L103.89,122.86 C103.89,122.619999 103.963333,122.426667 104.11,122.28 C104.256667,122.133333 104.456665,122.06 104.71,122.06 C104.963335,122.06 105.159999,122.133333 105.3,122.28 Z M116.17,125.86 L116.17,131.3 C116.17,131.540001 116.100001,131.733333 115.96,131.88 C115.819999,132.026667 115.630001,132.1 115.39,132.1 C115.149999,132.1 114.956667,132.026667 114.81,131.88 C114.663333,131.733333 114.59,131.540001 114.59,131.3 L114.59,130.34 C114.336665,130.913336 113.950003,131.356665 113.43,131.67 C112.909997,131.983335 112.310003,132.14 111.63,132.14 C111.00333,132.14 110.426669,132.013335 109.9,131.76 C109.373331,131.506665 108.956668,131.153336 108.65,130.7 C108.343332,130.246664 108.19,129.746669 108.19,129.2 C108.19,128.466663 108.376665,127.896669 108.75,127.49 C109.123335,127.083331 109.736662,126.790001 110.59,126.61 C111.443338,126.429999 112.629992,126.34 114.15,126.34 L114.59,126.34 L114.59,125.68 C114.59,124.879996 114.426668,124.293335 114.1,123.92 C113.773332,123.546665 113.243337,123.36 112.51,123.36 C111.603329,123.36 110.683338,123.606664 109.75,124.1 C109.389998,124.326668 109.136667,124.44 108.99,124.44 C108.829999,124.44 108.696667,124.380001 108.59,124.26 C108.483333,124.139999 108.43,123.986668 108.43,123.8 C108.43,123.613332 108.486666,123.450001 108.6,123.31 C108.713334,123.169999 108.896665,123.026667 109.15,122.88 C109.616669,122.613332 110.146664,122.403334 110.74,122.25 C111.333336,122.096666 111.92333,122.02 112.51,122.02 C114.950012,122.02 116.17,123.299987 116.17,125.86 Z M113.82,130.05 C114.333336,129.509997 114.59,128.813338 114.59,127.96 L114.59,127.38 L114.23,127.38 C113.056661,127.38 112.163336,127.43 111.55,127.53 C110.936664,127.63 110.500001,127.796666 110.24,128.03 C109.979999,128.263334 109.85,128.606664 109.85,129.06 C109.85,129.580003 110.039998,130.009998 110.42,130.35 C110.800002,130.690002 111.276664,130.86 111.85,130.86 C112.650004,130.86 113.306664,130.590003 113.82,130.05 Z M127.63,122.28 C127.776667,122.426667 127.85,122.619999 127.85,122.86 L127.85,131.34 C127.85,132.793341 127.47667,133.889996 126.73,134.63 C125.98333,135.370004 124.876674,135.74 123.41,135.74 C121.983326,135.74 120.796671,135.460003 119.85,134.9 C119.369998,134.633332 119.13,134.326668 119.13,133.98 C119.13,133.793332 119.179999,133.640001 119.28,133.52 C119.38,133.399999 119.509999,133.34 119.67,133.34 C119.803334,133.34 120.043332,133.433332 120.39,133.62 C120.856669,133.860001 121.316664,134.053333 121.77,134.2 C122.223336,134.346667 122.76333,134.42 123.39,134.42 C124.336671,134.42 125.049998,134.170003 125.53,133.67 C126.010002,133.169997 126.25,132.440005 126.25,131.48 L126.25,129.76 C125.969999,130.38667 125.540003,130.866665 124.96,131.2 C124.379997,131.533335 123.696671,131.7 122.91,131.7 C122.056662,131.7 121.300003,131.500002 120.64,131.1 C119.979997,130.699998 119.466668,130.133337 119.1,129.4 C118.733331,128.666663 118.55,127.820005 118.55,126.86 C118.55,125.899995 118.733331,125.053337 119.1,124.32 C119.466668,123.586663 119.979997,123.020002 120.64,122.62 C121.300003,122.219998 122.056662,122.02 122.91,122.02 C123.683337,122.02 124.356664,122.186665 124.93,122.52 C125.503336,122.853335 125.936665,123.326664 126.23,123.94 L126.23,122.86 C126.23,122.619999 126.299999,122.426667 126.44,122.28 C126.580001,122.133333 126.776665,122.06 127.03,122.06 C127.283335,122.06 127.483333,122.133333 127.63,122.28 Z M125.43,129.43 C125.963336,128.809997 126.23,127.953339 126.23,126.86 C126.23,125.779995 125.966669,124.930003 125.44,124.31 C124.913331,123.689997 124.176671,123.38 123.23,123.38 C122.283329,123.38 121.540003,123.689997 121,124.31 C120.459997,124.930003 120.19,125.779995 120.19,126.86 C120.19,127.953339 120.459997,128.809997 121,129.43 C121.540003,130.050003 122.283329,130.36 123.23,130.36 C124.163338,130.36 124.896664,130.050003 125.43,129.43 Z M138.77,129.92 C138.876667,130.040001 138.93,130.193332 138.93,130.38 C138.93,130.713335 138.696669,131.019999 138.23,131.3 C137.749998,131.580001 137.243336,131.789999 136.71,131.93 C136.176664,132.070001 135.656669,132.14 135.15,132.14 C133.643326,132.14 132.453338,131.693338 131.58,130.8 C130.706662,129.906662 130.27,128.673341 130.27,127.1 C130.27,126.099995 130.463331,125.21667 130.85,124.45 C131.236669,123.683329 131.779997,123.086669 132.48,122.66 C133.180003,122.233331 133.976662,122.02 134.87,122.02 C136.136673,122.02 137.14333,122.433329 137.89,123.26 C138.63667,124.086671 139.01,125.20666 139.01,126.62 C139.01,126.886668 138.956667,127.079999 138.85,127.2 C138.743333,127.320001 138.570001,127.38 138.33,127.38 L131.89,127.38 C132.010001,129.673345 133.096656,130.82 135.15,130.82 C135.670003,130.82 136.116665,130.750001 136.49,130.61 C136.863335,130.469999 137.263331,130.280001 137.69,130.04 C138.036668,129.839999 138.269999,129.74 138.39,129.74 C138.536667,129.74 138.663333,129.799999 138.77,129.92 Z M132.84,124.08 C132.326664,124.613336 132.023334,125.366662 131.93,126.34 L137.59,126.34 C137.563333,125.353328 137.316669,124.596669 136.85,124.07 C136.383331,123.543331 135.730004,123.28 134.89,123.28 C134.036662,123.28 133.353336,123.546664 132.84,124.08 Z" id="Learn-Sign-Language" fill="#FFFFFF"></path>
            </g>
        </g>
    </g>
</svg>