<?xml version="1.0" encoding="UTF-8"?>
<svg width="206px" height="68px" viewBox="0 0 206 68" version="1.1" xmlns="http://www.w3.org/2000/svg" xmlns:xlink="http://www.w3.org/1999/xlink">
    <!-- Generator: Sketch 49.3 (51167) - http://www.bohemiancoding.com/sketch -->
    <title>logo</title>
    <desc>Created with Sketch.</desc>
    <defs></defs>
    <g id="iOS-App" stroke="none" stroke-width="1" fill="none" fill-rule="evenodd">
        <g id="SignUp-or-Log-in" transform="translate(-85.000000, -50.000000)" fill-rule="nonzero">
            <g id="logo" transform="translate(85.000000, 50.000000)">
                <path d="M26.9568367,31.590796 C28.0768303,32.8281844 29.0388154,34.1649579 29.8427918,35.6014148 C30.6464717,37.0384686 31.2429321,38.516709 31.63158,40.0349422 C32.0199314,41.5537723 32.1687501,43.0866298 32.0786288,44.6320222 C31.9882111,46.1786085 31.6179432,47.6702793 30.9675287,49.1064378 C30.4973566,50.1435639 29.8608753,51.0302694 29.0568989,51.7668527 C28.2529225,52.5034361 27.3496349,53.1128782 26.3467395,53.5948807 C25.3444371,54.0765847 24.2825479,54.4311475 23.1625542,54.6588676 C22.0422641,54.8862892 20.931164,55 19.8292538,55 C18.3117187,55 16.7535698,54.781532 15.1545105,54.3448945 C13.5557477,53.9085554 12.0109391,53.2901596 10.5206775,52.4897072 C9.02982302,51.6898517 7.63857624,50.7162962 6.34723361,49.5705331 C5.05500163,48.4244714 3.93915828,47.1420166 3,45.7237653 L8.88070793,40.0215118 C9.49495538,40.8944884 10.2088105,41.6949409 11.0219769,42.4222722 C11.8348469,43.1499019 12.6838839,43.7865033 13.5693845,44.3320764 C14.4542921,44.8779479 15.3486862,45.3101087 16.2522703,45.6279617 C17.1552615,45.9467101 18.013785,46.1329451 18.8266549,46.1872637 C19.5491072,46.2418807 20.1636511,46.1645812 20.6693973,45.9556637 C21.1751435,45.7467462 21.572685,45.4554556 21.8617251,45.0823886 C22.1507653,44.7099186 22.3541311,44.2774594 22.4715258,43.7865033 C22.5889206,43.2955472 22.6387245,42.7863855 22.6206409,42.2587196 C22.6025574,41.7313522 22.5124361,41.2084616 22.3496843,40.6897493 C22.1869324,40.1713355 21.9880135,39.7033603 21.7535204,39.28463 C21.2293942,38.3937462 20.5069419,37.5025639 19.5855707,36.6110831 C18.6639031,35.7199008 17.6479639,34.8239433 16.5368637,33.9235089 C15.4257636,33.0230746 14.26901,32.1139851 13.0677886,31.1953451 C11.8662707,30.2770035 10.7193,29.335681 9.62628339,28.3716761 C8.53297034,27.4076711 7.53956145,26.4254605 6.64516735,25.4250442 C5.75077324,24.4246279 5.05974485,23.3880987 4.57178572,22.3145613 C3.75891578,20.5139911 3.39724498,18.6907383 3.48795913,16.8442062 C3.57837683,14.9985695 4.05714596,13.2750003 4.92426653,11.6743939 C5.6105517,10.4011911 6.45069518,9.31422324 7.44469698,8.41378889 C8.43780942,7.51365299 9.53141892,6.79527531 10.7237468,6.25865583 C11.9160746,5.7223348 13.1762898,5.35792302 14.504096,5.16691275 C15.8321986,4.97620093 17.1736415,4.94874321 18.5284248,5.08543493 C19.8838009,5.22152975 21.2113106,5.51759567 22.5124361,5.97214042 C23.8132652,6.42698363 25.0325701,7.02717371 26.1709438,7.77271067 C26.6763936,8.10011421 27.2592172,8.53227495 27.9188217,9.06889443 C28.5781298,9.60521545 29.2374379,10.1782463 29.8970424,10.78739 C30.5566469,11.3971306 31.1661512,11.9973206 31.7264445,12.5882587 C32.2861448,13.1794951 32.7109598,13.6931337 33,14.1297712 L25.9539413,19.5592382 C25.1588585,18.4313822 24.3145647,17.4811061 23.4201706,16.707813 C22.5260729,15.9351167 21.6269356,15.3211978 20.7239444,14.8663546 C19.8200638,14.4118098 18.9440497,14.1023135 18.0947162,13.938761 C17.2456792,13.77491 16.4731267,13.7435723 15.777948,13.8432558 C15.0821763,13.9435362 14.4904592,14.166481 14.003093,14.5114933 C13.5148374,14.857401 13.1899266,15.2940385 13.0274712,15.8214059 C12.8104687,16.5126244 12.8599761,17.2262268 13.1762898,17.9628101 C13.4923071,18.6996919 13.9980533,19.4634346 14.6938249,20.2546349 C15.3890036,21.0458353 16.2249968,21.8737454 17.2006186,22.73747 C18.1762404,23.601493 19.2194531,24.5019274 20.3305533,25.4384746 C21.4416534,26.3756187 22.5663903,27.3530541 23.704764,28.3716761 C24.8428412,29.390298 25.9266678,30.4632385 26.9568367,31.590796" id="Fill-1" fill="#F19034"></path>
                <path d="M5.1761725,46.9790949 C5.81589683,47.7568159 6.5261611,48.4851815 7.29936403,49.1552181 C8.50371196,50.1994581 9.81751843,51.0974268 11.2030811,51.8242968 C12.5944207,52.5544572 14.0544759,53.125783 15.543416,53.5227199 C17.0074239,53.9133751 18.4464996,54.1113949 19.8208123,54.1113949 C20.8150607,54.1113949 21.8336332,54.0090947 22.8491651,53.8077846 C23.8330757,53.6124569 24.7774596,53.3043598 25.6543441,52.8927659 C26.5029518,52.4940343 27.2770669,51.9843279 27.9544936,51.3774064 C28.5850964,50.8129604 29.073099,50.1471115 29.4467783,49.341572 C30.0086655,48.1292246 30.3330884,46.8531639 30.4115337,45.550182 C30.4914992,44.2095106 30.3568044,42.8607629 30.011706,41.5419275 C29.6580941,40.1916842 29.1053285,38.8543031 28.3689158,37.5677731 C27.6221654,36.2635948 26.7151798,35.0318043 25.6728913,33.9062027 C24.667393,32.8311529 23.5940913,31.7928954 22.482479,30.820445 C21.3380292,29.819877 20.1884106,28.843538 19.0661565,27.9183491 C17.9220108,26.9761101 16.8295538,26.0548098 15.8194948,25.1804719 C14.7629159,24.2669489 13.8389034,23.3719714 13.0736058,22.5209652 C12.2249981,21.5778289 11.5889224,20.6311031 11.1830137,19.7068116 C10.6737274,18.5471099 10.5964983,17.3356598 10.9598399,16.2037766 C11.2550739,15.267221 11.8443256,14.4844149 12.7078319,13.8864671 C13.4637039,13.3635992 14.3646084,13.0255897 15.3859173,12.8820105 C16.3138825,12.7518917 17.332455,12.7889831 18.4139661,12.9926861 C19.4559505,13.1889111 20.5353333,13.5589269 21.6214052,14.0928623 C22.6901462,14.6187213 23.7558467,15.3282422 24.791142,16.202281 C25.3603263,16.6832715 25.9143082,17.2264797 26.4479185,17.8268205 L30.4887628,14.7841366 C29.9755239,14.2600723 29.4112043,13.719257 28.8097905,13.1757497 C28.1682418,12.5969458 27.5172676,12.0438665 26.8751109,11.5332627 C26.2566701,11.0418029 25.7115058,10.6460625 25.2554286,10.3574084 C24.2189171,9.6939525 23.1009198,9.15642763 21.9242405,8.75440568 C20.7405681,8.350589 19.517977,8.08436911 18.2905212,7.96382235 C17.0654978,7.84357471 15.8371298,7.86750459 14.6385588,8.03561198 C13.4661363,8.20042901 12.3387134,8.51809814 11.2882155,8.97994478 C10.2586971,9.43281771 9.30063091,10.0487129 8.44107736,10.8099822 C7.59398992,11.5595856 6.8639623,12.4850736 6.27075785,13.5604225 C5.51671016,14.9202378 5.11292979,16.3419716 5.03448451,17.9099769 C4.95664733,19.4603338 5.26313122,20.9592415 5.97157119,22.4925484 C6.383865,23.3791504 6.98892746,24.262462 7.76729926,25.1134683 C8.62989333,26.0563055 9.60255403,26.995254 10.6582208,27.9048885 C11.7415562,28.8384529 12.8929992,29.7615479 14.0809284,30.6487481 C15.3330124,31.5847054 16.5449616,32.5161759 17.6833304,33.4174349 C18.8606177,34.3498028 19.9561152,35.2938365 20.9400258,36.2232131 C22.0084628,37.2333531 22.8683204,38.2734054 23.4949705,39.3140559 L23.51595,39.3502499 C23.823042,39.88598 24.0836142,40.4839278 24.2903692,41.1276415 C24.5101984,41.8117369 24.6339473,42.5152753 24.6588796,43.2182155 C24.6832037,43.9202582 24.61388,44.6109343 24.4524286,45.2716981 C24.2654369,46.0347621 23.9325006,46.7209513 23.4633491,47.3126175 C22.9543669,47.9542374 22.2711633,48.4513806 21.4328933,48.7899883 C20.6295893,49.1139391 19.6909823,49.2401692 18.6450452,49.1620979 C17.6523171,49.0971881 16.5881369,48.8731447 15.4984164,48.4977447 C14.4460942,48.1358053 13.3925558,47.6392604 12.3682063,47.0221686 C11.3654445,46.4185375 10.3918717,45.7054271 9.47454836,44.9028788 C9.10877442,44.5831159 8.75820306,44.2486958 8.42496263,43.9011143 L5.1761725,46.9790949 Z M19.8208123,58 C18.0968404,58 16.3099298,57.7562144 14.5090329,57.2758221 C12.7339803,56.8026087 10.996022,56.1227011 9.34319811,55.2555422 C7.68763777,54.3871867 6.12025236,53.3163247 4.68664961,52.0728684 C3.23845238,50.8180455 1.96994958,49.3927221 0.915803076,47.836981 L0,46.485242 L8.87647908,38.0741891 L10.204576,39.9197809 C10.7448755,40.6705809 11.3824714,41.3690342 12.1000329,41.995997 C12.8440469,42.6468896 13.6281957,43.2215058 14.4318038,43.7054876 C15.2171688,44.1787009 16.0153039,44.5558956 16.8040135,44.8274997 C17.5583652,45.0871389 18.2710619,45.2405892 18.9238604,45.2833639 C19.4729774,45.3240447 19.7742924,45.2561437 19.9320952,45.1924304 C20.1263841,45.11406 20.2662478,45.0222291 20.3474295,44.9196298 C20.4696582,44.7658803 20.5550967,44.583415 20.6095219,44.3617645 C20.6885753,44.038412 20.7211088,43.7078806 20.7086427,43.3522228 C20.6961766,43.0022483 20.6332379,42.6474879 20.5213469,42.299009 C20.3991183,41.9191222 20.2519573,41.5757285 20.0829047,41.2778015 C19.6386855,40.5446499 19.0056503,39.7875684 18.2014341,39.0274956 C17.3011377,38.1767885 16.2929029,37.3081339 15.2043986,36.4466583 C14.0952188,35.5681327 12.9127626,34.6590965 11.6907796,33.7458725 C10.4295741,32.8042318 9.20576684,31.8231069 8.05371576,30.8300169 C6.88098918,29.819877 5.79643753,28.7714492 4.8295538,27.7149451 C3.78240049,26.5704987 2.95659665,25.3563565 2.37494616,24.1060204 C1.41110295,22.0196342 0.978437682,19.8719277 1.08668001,17.7185378 C1.19340208,15.5824971 1.76957965,13.5583286 2.79848988,11.7019684 C3.60544252,10.2395537 4.6145894,8.96588598 5.79674158,7.91955208 C6.96308308,6.88667873 8.26837611,6.04883389 9.67522234,5.42994743 C11.0613931,4.82063292 12.543036,4.40215919 14.0794081,4.18619204 C15.5935845,3.97381438 17.1421187,3.94300466 18.6836598,4.09436114 C20.2182076,4.24511936 21.7445461,4.57714642 23.220412,5.08087034 C24.6996225,5.58638901 26.1064687,6.2630063 27.4029442,7.09247568 C27.9769934,7.45620982 28.6197583,7.92134682 29.3595155,8.50882531 C30.0658271,9.07087831 30.7800441,9.67690247 31.4830111,10.3113433 C32.1893227,10.9496728 32.8518509,11.5871049 33.4526566,12.2062905 C34.1151848,12.8903859 34.612309,13.481753 34.9738262,14.0156884 L36,15.5310479 L25.677148,23.3043695 L24.4910431,21.6609852 C23.7716573,20.6643058 23.0066638,19.8204785 22.2161299,19.1528349 C21.4268123,18.4863878 20.6320217,17.953948 19.8539539,17.57107 C19.0929131,17.1968665 18.3580206,16.9414151 17.6708643,16.8118946 C17.019586,16.689254 16.4388476,16.6623329 15.944764,16.7314304 C15.5467606,16.7873665 15.2229458,16.900136 14.982137,17.0667478 C14.8070033,17.1881919 14.7586591,17.2818176 14.7322067,17.3649739 C14.6771733,17.5366708 14.639471,17.7729783 14.81126,18.1642318 C15.0514607,18.7104313 15.4622343,19.3089773 16.033547,19.9437173 C16.6902982,20.6738777 17.4966428,21.4533935 18.4297768,22.2607277 C19.4164238,23.1144261 20.4842527,24.0150869 21.6037702,24.9372846 C22.7558213,25.8867025 23.934933,26.8881678 25.1088758,27.9144605 C26.3205209,28.974554 27.490207,30.105839 28.5857045,31.2778048 L28.5917855,31.2843855 C29.8356602,32.6268516 30.9192997,34.0985391 31.812907,35.6593654 C32.7183723,37.2411303 33.4000557,38.8940866 33.8394101,40.5721692 C34.2869739,42.2822581 34.4611954,44.0339252 34.3575139,45.7784132 C34.2501837,47.5623856 33.8080928,49.3038825 33.0430993,50.9553431 C32.450807,52.2320021 31.6344288,53.3411519 30.6152482,54.2531794 C29.6511009,55.1164497 28.5549953,55.8397303 27.3567284,56.4020824 C26.1873464,56.9512731 24.9334381,57.3610723 23.6305774,57.6195149 C22.358122,57.8719752 21.076545,58 19.8208123,58 Z" id="Fill-3" fill="#F19034"></path>
                <polygon id="Fill-5" fill="#E14598" points="48 54 39 54 39.3549749 20 47.9240132 20"></polygon>
                <path d="M41.0409741,52.1433969 L46.9940713,52.1433969 L46.9193694,21.8566031 L41.3901978,21.8566031 L41.0409741,52.1433969 Z M51,56 L37,56 L37.4380668,18 L50.9062383,18 L51,56 Z" id="Fill-7" fill="#E14598"></path>
                <path d="M72.0852634,26.7259636 C70.8105472,26.7986811 69.7001371,27.0937233 68.7534355,27.6113884 C67.8067339,28.1290534 67.0192598,28.7921534 66.3910132,29.6000924 C65.7630654,30.4086274 65.2943451,31.3122315 64.9845535,32.3109048 C64.6750606,33.3098762 64.5247953,34.3270269 64.5343549,35.362357 C64.543317,36.3973891 64.7207676,37.4103675 65.0667065,38.3998021 C65.4123467,39.3901308 65.9175131,40.2707872 66.5825045,41.0426654 C67.2468984,41.8148417 68.0797807,42.4368146 69.0811514,42.9088822 C70.0822233,43.3812478 71.2565635,43.6169836 72.6038731,43.6169836 C73.9329596,43.6169836 75.0935578,43.3720091 76.0859663,42.8814641 C77.0780761,42.3909191 77.8972165,41.7373558 78.5436861,40.9198802 C79.189857,40.1027026 79.6678382,39.1761507 79.9776298,38.1411186 C80.2868239,37.1060865 80.4233473,36.0525771 80.3871999,34.9808882 C80.3504551,33.9094974 80.1503005,32.8604583 79.7864373,31.8340689 C79.4222753,30.8079775 78.8941061,29.9046714 78.202527,29.1232564 C77.5103504,28.3427355 76.654764,27.7297033 75.635469,27.2844577 C74.6155766,26.8398082 73.4322743,26.6535441 72.0852634,26.7259636 Z M89.6448002,17 C89.6994693,20.3965622 89.7720627,23.7385863 89.8634766,27.0254762 C89.9539943,30.3132602 90,33.5280286 90,36.6700796 C90,39.8124287 89.9271079,42.8772918 89.7816223,45.8646692 C89.6355393,48.8526425 89.3535304,51.7449507 88.9346993,54.5418916 C88.6249077,56.6122538 87.9969599,58.4376415 87.0505571,60.0177567 C86.1038555,61.5981699 84.9112923,62.9148332 83.4731663,63.9683426 C82.0347415,65.0212561 80.3961621,65.802373 78.557428,66.3110974 C76.7183952,66.8195237 74.7521,67.0466168 72.6588409,66.9920787 C70.5464626,66.9378386 68.6895055,66.7605153 67.0876709,66.4610027 C65.4852388,66.161192 64.0973008,65.7934323 62.9229607,65.3577234 C61.7486205,64.9217166 60.769954,64.4493509 59.9872597,63.9409246 C59.2042667,63.4322002 58.5760201,62.9327145 58.1028187,62.4427656 L62.9638878,54.7868661 C63.7465821,55.5316243 64.6980635,56.1580675 65.8180332,56.6667919 C66.9374055,57.1752183 68.1072646,57.5388057 69.327013,57.7563621 C70.5464626,57.9748126 71.7572488,58.0290527 72.9590729,57.9199764 C74.1605982,57.8111982 75.2435244,57.5066193 76.2090465,57.0074316 C77.1736724,56.5076479 77.9704073,55.7992485 78.5986539,54.8825313 C79.2266018,53.9652181 79.5680596,52.7981621 79.62243,51.3816613 C78.6939514,51.7994888 77.7108038,52.1171808 76.672987,52.3350352 C75.635469,52.5531876 74.5247601,52.6715026 73.3414578,52.6890859 C71.0107019,52.7078613 68.9174428,52.3943417 67.0604857,51.749421 C65.2032299,51.1050964 63.5780937,50.223844 62.1853759,49.1068557 C60.7926581,47.9898675 59.636541,46.6776745 58.7173233,45.1699788 C57.7978069,43.6625811 57.11519,42.0642865 56.6691737,40.3750951 C56.22256,38.6859037 56,36.9469425 56,35.1579136 C56,33.3691827 56.236302,31.6254531 56.7101009,29.927023 C57.1833023,28.228891 57.8796612,26.6264241 58.7991776,25.1184303 C59.718694,23.6113307 60.8652515,22.289899 62.2403437,21.1544334 C63.6148385,20.0198618 65.212192,19.1249003 67.0330018,18.471039 C68.8535128,17.8171776 70.8927002,17.490247 73.1502653,17.490247 C74.4611289,17.490247 75.6805785,17.6222709 76.8095104,17.8854248 C77.9384423,18.1488767 78.9944821,18.5166364 79.9776298,18.988704 L79.9776298,18.8253877 L79.9776298,18.471039 C79.9776298,18.2898413 79.9818121,18.0991069 79.9913717,17.8988358 C80.0000351,17.6991607 80.0137771,17.5131947 80.0322989,17.3403417 C80.0502232,17.1680847 80.0774084,17.0542401 80.1141532,17 L89.6448002,17 Z" id="Fill-9" fill="#8ACAD8"></path>
                <path d="M71.6372003,28.0195252 C70.5297305,28.0813549 69.5638079,28.3286739 68.7661623,28.7546779 C67.9551518,29.1874861 67.2735385,29.7466164 66.7404586,30.4163893 C66.1946212,31.1018416 65.7809147,31.8810739 65.5108816,32.7316027 C65.2347735,33.6022484 65.0989976,34.5001109 65.1071989,35.4003402 C65.1150963,36.2946528 65.2745647,37.1812736 65.5810477,38.0365358 C65.8805445,38.8743436 66.3231071,39.6284298 66.8965857,40.2783818 C67.4570031,40.9147252 68.1759775,41.4371718 69.0346767,41.832113 C69.8839596,42.2235042 70.9139733,42.4220102 72.0973804,42.4220102 C73.2537538,42.4220102 74.2634163,42.2175875 75.0981192,41.8146587 C75.9395046,41.4087715 76.6411654,40.8638414 77.1830541,40.194956 C77.7410414,39.5056579 78.1608229,38.7101546 78.4302485,37.8309297 C78.7057491,36.9315879 78.8290713,36.0029584 78.7965701,35.072258 C78.7637652,34.1347533 78.5815156,33.2028696 78.2546814,32.303232 C77.9384785,31.4337697 77.4755646,30.6589749 76.8790011,30.0013313 C76.2967138,29.3602544 75.5607293,28.8469788 74.6923102,28.4762961 C73.8366486,28.1121219 72.8090649,27.9591746 71.6372003,28.0195252 Z M72.0973804,44.7886991 C70.5519042,44.7886991 69.1716676,44.5138673 67.9958542,43.9718956 C66.8270271,43.4340655 65.8368046,42.7101546 65.0528277,41.8202796 C64.2806971,40.9451964 63.6859561,39.9340285 63.2862221,38.8157681 C62.8925631,37.7161453 62.6875323,36.5742179 62.6772049,35.4213446 C62.6668774,34.2767547 62.8387995,33.1366023 63.1893261,32.032542 C63.5459277,30.9095481 64.0944989,29.8776718 64.8198521,28.9662007 C65.5585702,28.0384587 66.4932067,27.268989 67.5979427,26.6793876 C68.7154362,26.0826862 70.0285442,25.7386288 71.5005131,25.6566822 L71.5044618,25.6563864 C73.0581392,25.5750314 74.4590308,25.794246 75.6661303,26.3081133 C76.8610799,26.8178389 77.8816774,27.5328748 78.6996741,28.4339916 C79.5036984,29.3203165 80.1245618,30.3563346 80.5455583,31.5136454 C80.955316,32.6419644 81.1840392,33.8119962 81.2253491,34.9917905 C81.2663553,36.1795725 81.1096206,37.3620294 80.7587903,38.5075068 C80.4012774,39.6748761 79.8399488,40.7354486 79.0905994,41.6608239 C78.3239363,42.6072036 77.3434337,43.3725316 76.1767328,43.9352119 C75.0039569,44.5014422 73.6313141,44.7886991 72.0973804,44.7886991 Z M58.9259016,62.0853487 C59.2208421,62.3155092 59.5567888,62.5504031 59.9319191,62.7885511 C60.6490711,63.2432512 61.5730763,63.676947 62.6778123,64.0772132 C63.8016846,64.4845795 65.1594437,64.8348495 66.7122099,65.1185563 C68.2713548,65.4031507 70.1120753,65.5738481 72.1845564,65.6259152 C74.1829227,65.6767991 76.0813555,65.4632054 77.8260912,64.9925301 C79.5434895,64.5286591 81.0929144,63.808594 82.4300186,62.8533393 C83.7543654,61.9057762 84.8691251,60.7032024 85.7430117,59.2787516 C86.6190246,57.8507507 87.2104243,56.1674432 87.5005049,54.2749797 C87.9178564,51.5521041 88.2036844,48.6934398 88.3497878,45.7785667 C88.4958912,42.8423933 88.570006,39.7908439 88.570006,36.7091191 C88.570006,33.6259152 88.5235324,30.4157976 88.4318001,27.1681089 C88.3500915,24.3047112 88.2823555,21.3493085 88.2291993,18.3666889 L80.8131614,18.3666889 C80.8107314,18.4622439 80.8095164,18.5542489 80.8095164,18.6438873 L80.8095164,21.0404556 L79.0678182,20.2239479 C78.1520142,19.7946897 77.1526792,19.4550699 76.0968468,19.2145551 C75.0437481,18.9749279 73.8849447,18.8536351 72.6529377,18.8536351 C70.5081643,18.8536351 68.5541454,19.1574588 66.8446446,19.7571186 C65.1351438,20.3564825 63.6176125,21.1848236 62.3345757,22.2190666 C61.0478939,23.2565639 59.9592566,24.4807337 59.0990387,25.8575549 C58.2263671,27.254493 57.5562962,28.7602988 57.1073548,30.3326677 C56.6578059,31.9065158 56.429994,33.5466312 56.429994,35.2080467 C56.429994,36.875379 56.6453522,38.5163819 57.0699937,40.0854966 C57.4915976,41.6445529 58.1461773,43.1403003 59.0155076,44.5313216 C59.8723843,45.9034095 60.9652741,47.1145625 62.2653209,48.1325346 C63.5671902,49.15169 65.1129701,49.9684935 66.8595283,50.5601657 C68.607909,51.1533171 70.6299677,51.4470823 72.8373135,51.4275571 C73.9478208,51.4112861 75.0097282,51.301531 75.9841558,51.1012499 C76.9485597,50.9036314 77.8737799,50.6122328 78.7343015,50.2341543 L80.5230808,49.4487094 L80.447751,51.3583315 C80.3836599,52.9842467 79.9623597,54.3625471 79.1956966,55.4556616 C78.4457397,56.5242216 77.4792096,57.3626211 76.3228362,57.9477849 C75.2035202,58.5125361 73.9405308,58.8604393 72.567888,58.9817321 C71.2432375,59.0994749 69.8915533,59.0400118 68.5508041,58.8057096 C67.2176487,58.5734783 65.9200319,58.1800163 64.6940999,57.6362695 C63.925918,57.2954663 63.220916,56.9011168 62.5860801,56.4576585 L58.9259016,62.0853487 Z M72.7583387,68 C72.5469293,68 72.3346085,67.9970416 72.1213766,67.9920124 C69.921017,67.9363952 67.9502918,67.7523852 66.2647873,67.4447156 C64.5759414,67.1361586 63.0839251,66.7495008 61.8303519,66.2953924 C60.5576426,65.8341839 59.472954,65.3214999 58.6060536,64.7715406 C57.7364195,64.2201021 57.0204826,63.662451 56.4779864,63.1133792 L55.8161168,62.4444938 L62.0621126,52.8410621 L63.1340437,53.8368464 C63.8268958,54.4805858 64.6904549,55.0340951 65.7010286,55.4822868 C66.7422811,55.944087 67.8454984,56.2783818 68.9790906,56.4760003 C70.1066078,56.673323 71.2398962,56.7230234 72.3482772,56.6248059 C73.4056284,56.5310258 74.3663873,56.2695067 75.2035202,55.8467569 C76.010582,55.4385031 76.6606054,54.8734561 77.1891291,54.1202574 C77.3950711,53.8270838 77.5633481,53.4939723 77.6933528,53.122698 C77.29696,53.2351157 76.8938848,53.3333333 76.4847345,53.417055 C75.3584323,53.6483988 74.1403978,53.7753125 72.8655622,53.794246 C70.3629721,53.8028252 68.0730065,53.4774055 66.0612753,52.7955033 C64.0510627,52.1147844 62.2616759,51.1663339 60.7429296,49.9767769 C59.2226646,48.7866282 57.942969,47.3683899 56.9393815,45.7614082 C55.9485514,44.1754308 55.201632,42.4684565 54.7201895,40.6884106 C54.2420882,38.9228607 54,37.0789143 54,35.2080467 C54,33.33215 54.2575794,31.4784409 54.7663594,29.6983951 C55.2751394,27.9165742 56.0342087,26.2104874 57.0232163,24.6274684 C58.0240701,23.02522 59.2897932,21.6016567 60.784847,20.3958287 C62.2853683,19.1867465 64.047114,18.2226167 66.0214841,17.5303602 C67.9958542,16.8381037 70.2265887,16.4869462 72.6529377,16.4869462 C74.0708393,16.4869462 75.4155372,16.6292434 76.6499741,16.9099919 C77.2629401,17.0496265 77.8607187,17.2185489 78.4399685,17.4155758 C78.4402722,17.4090674 78.4411835,17.4028548 78.441791,17.3963464 C78.4691284,17.1416315 78.526537,16.8102951 78.7257965,16.5221507 L79.0869544,16 L90.6197059,16 L90.6388421,17.1644109 C90.6941245,20.5322092 90.7688468,23.8760447 90.8605791,27.1027291 C90.9532226,30.3723097 91,33.6043192 91,36.7091191 C91,39.8290067 90.9249739,42.9190149 90.7767443,45.8936469 C90.6269959,48.8872125 90.3329666,51.8242734 89.903769,54.6246579 C89.5666073,56.8239036 88.8685915,58.7983137 87.8291616,60.4925671 C86.7879091,62.189483 85.4550574,63.6257673 83.8682713,64.7608905 C82.2921165,65.8868427 80.4778222,66.7323423 78.4755071,67.2731307 C76.6861203,67.7559352 74.7661213,68 72.7583387,68 Z" id="Fill-11" fill="#8ACAD8"></path>
                <path d="M105.491234,21.6769367 C105.782674,21.5330804 106.074712,21.3980858 106.36675,21.2719531 C106.65789,21.1461158 106.958905,21.019983 107.268896,20.8938503 C110.296097,19.6880568 112.95855,19.0576886 115.256254,19.0036317 C117.554258,18.9495748 119.509955,19.4990054 121.123644,20.650742 C122.737633,21.8030694 124.004826,23.5854696 124.925823,25.997352 C125.846222,28.4101205 126.434487,31.488409 126.69002,35.2325129 C126.780983,36.5286966 126.849504,37.9152705 126.895284,39.391053 C126.940766,40.8674262 126.972782,42.4019919 126.991034,43.9953408 C127.008988,45.5886896 127.000011,47.231369 126.963806,48.9233791 C126.926702,50.6156845 126.871945,52.3082854 126.799534,54 L117.745758,54 C117.818169,52.3440279 117.886391,50.6969175 117.950724,49.0583736 C118.014457,47.4204204 118.064726,45.8498169 118.101231,44.3465628 C118.137436,42.8433088 118.1512,41.4393067 118.142224,40.1336705 C118.132948,38.828625 118.101231,37.6721622 118.046474,36.6636911 C117.936959,34.9179196 117.722718,33.4326845 117.403751,32.2082813 C117.084185,30.9841735 116.587181,30.0436427 115.913041,29.3863937 C115.238002,28.7294401 114.357998,28.3785134 113.273628,28.3333183 C112.188359,28.288714 110.825117,28.5811529 109.184198,29.2109304 C107.797915,29.7331849 106.594755,30.3812767 105.57352,31.1552059 L105.709964,54 L96,54 C96.0176539,53.2260708 96.027229,52.1771309 96.027229,50.8540665 C96.027229,49.5310021 96.031418,48.0413361 96.0406938,46.3850686 C96.0496704,44.7290965 96.0547571,42.9650106 96.0547571,41.0925156 C96.0547571,39.2203159 96.0589462,37.3436854 96.068222,35.4620331 C96.0771986,33.5812671 96.0819861,31.7492408 96.0819861,29.9668406 C96.0819861,28.1847358 96.0858759,26.5556444 96.0954509,25.0792711 C96.1044275,23.6034886 96.1134041,22.3294594 96.1229791,21.258365 C96.1316565,20.1875661 96.1457198,19.4357914 96.1636729,19.0036317 L105.409547,19.0036317 L105.491234,21.6769367 Z" id="Fill-13" fill="#7DE4AD"></path>
                <path d="M120.812429,52.1440789 L125.975635,52.1440789 C126.013108,51.0745057 126.043686,49.9998901 126.067069,48.9326898 C126.102444,47.2633726 126.111737,45.6195638 126.09375,44.0475344 C126.076362,42.4829202 126.044285,40.9399586 125.999018,39.4613611 C125.95375,38.0088653 125.885999,36.6290388 125.796962,35.3607373 C125.554736,31.8037984 125.001032,28.8688492 124.149941,26.6336014 C123.3687,24.5831412 122.316453,23.0736964 121.021979,22.1476821 C119.747891,21.2362017 118.21269,20.8156097 116.332135,20.8589146 C114.275907,20.9072619 111.813469,21.4989975 109.012573,22.6175113 C108.727777,22.7331889 108.439383,22.8545021 108.159983,22.9755187 C107.89857,23.0888235 107.633859,23.2113231 107.373646,23.3403482 L104.646497,24.6893273 L104.529581,20.8595078 L99.0677892,20.8595078 C99.0668898,20.9704397 99.0656907,21.0876004 99.0647913,21.2106933 C99.0551982,22.2867919 99.0462046,23.5639916 99.0369113,25.0437755 C99.0276179,26.5229661 99.0234209,28.1549106 99.0234209,29.9399055 C99.0234209,31.7326122 99.0189241,33.5751492 99.0096308,35.4666269 C99.0003374,37.3530621 98.9964402,39.2347516 98.9964402,41.1113988 C98.9964402,42.9951645 98.9913439,44.7700747 98.9823503,46.4361292 C98.9727572,48.0956583 98.96886,49.5878998 98.96886,50.9131502 C98.96886,51.3494625 98.9676608,51.7602664 98.9655623,52.1440789 L104.761315,52.1440789 L104.630309,30.186981 L105.398059,29.6038471 C106.566323,28.716392 107.948934,27.9680467 109.507219,27.3795738 C111.410857,26.6472454 113.007514,26.3156362 114.380532,26.373475 C115.961001,26.4393223 117.283654,26.9812275 118.311619,27.9840636 C119.239755,28.8910949 119.91637,30.1439727 120.324079,31.7094766 C120.672729,33.0513372 120.90896,34.6779427 121.025876,36.5450983 C121.082836,37.5965784 121.116112,38.7990325 121.125705,40.1349609 C121.134399,41.4599147 121.120309,42.902919 121.083735,44.4245248 C121.047161,45.9301137 120.996198,47.5312108 120.932044,49.1839179 C120.893671,50.167771 120.8538,51.1542936 120.812429,52.1440789 Z M129.718456,56 L116.74524,56 L116.833077,53.9889888 C116.905625,52.3288665 116.973376,50.677939 117.03783,49.0353166 C117.101385,47.4015925 117.151749,45.8191818 117.187723,44.3325759 C117.223397,42.8501226 117.237188,41.4465673 117.228494,40.1613591 C117.2195,38.8856424 117.188023,37.7434 117.135261,36.7672587 C117.034233,35.1596362 116.837274,33.7759537 116.549779,32.6707874 C116.320743,31.7910442 115.992478,31.1373173 115.574278,30.7285896 C115.369824,30.5292682 115.005285,30.2587605 114.217149,30.2258368 C113.660747,30.2035911 112.632183,30.314523 110.908117,30.9777415 C110.030345,31.3090541 109.238611,31.6958326 108.539212,32.1333314 L108.68131,56 L95,56 L95.0449678,54.0287345 C95.0623554,53.2439062 95.0716487,52.1956889 95.0716487,50.9131502 C95.0716487,49.5813744 95.0755459,48.0823109 95.0851391,46.4150699 C95.0941326,44.7555408 95.099229,42.9877493 95.099229,41.1113988 C95.099229,39.2282262 95.1031262,37.3406045 95.1124196,35.4482371 C95.1217129,33.5629883 95.1262097,31.7263834 95.1262097,29.9399055 C95.1262097,28.1460123 95.1304067,26.5060594 95.1397,25.0200467 C95.1489934,23.5364069 95.1579869,22.2553513 95.1675801,21.1786595 C95.1759741,20.1028575 95.1903638,19.3192157 95.2101496,18.8517594 L95.2871945,17.0035867 L108.310775,17.0035867 L108.363537,18.7289631 C111.285546,17.6371442 113.928155,17.0584595 116.239202,17.00418 C118.960654,16.9398157 121.34275,17.6190511 123.305445,19.022903 C125.230068,20.4003566 126.740987,22.5033167 127.796831,25.2739443 C128.782526,27.863047 129.417472,31.167868 129.68518,35.0976449 C129.777214,36.4113275 129.847964,37.8409844 129.89443,39.3439038 C129.940298,40.8477131 129.972974,42.4152933 129.990961,44.004526 C130.009248,45.6174875 129.999655,47.3034148 129.963381,49.0151472 C129.925908,50.7259897 129.870148,52.4543322 129.7976,54.1533104 L129.718456,56 Z" id="Fill-15" fill="#7DE4AD"></path>
                <path d="M149.156363,27.1555389 C148.126188,27.1904848 147.194531,27.4454717 146.36198,27.9204995 C145.528841,28.3964157 144.820688,29.0488386 144.237226,29.8786565 C143.653176,30.7087705 143.210875,31.6857759 142.910909,32.8093766 C142.610062,33.9338657 142.485665,35.1525312 142.537423,36.4665576 C142.55448,37.0718923 142.627707,37.7115806 142.756221,38.3856225 C142.88503,39.0599606 143.073832,39.7260064 143.32292,40.3828715 C143.571715,41.0400328 143.87668,41.6666904 144.237226,42.2631406 C144.597773,42.8595907 145.022724,43.3873335 145.512079,43.8451845 C146.00114,44.3036278 146.555193,44.6711524 147.173357,44.9477584 C147.791227,45.2243643 148.477912,45.3626673 149.233707,45.3626673 C150.486797,45.3626673 151.594315,45.0771768 152.556263,44.5064919 C153.517328,43.9361032 154.324293,43.1886155 154.976865,42.2631406 C155.629436,41.338554 156.127026,40.2966913 156.47081,39.1378486 C156.814005,37.9798943 156.98575,36.8210515 156.98575,35.6625049 C156.98575,34.5560811 156.814005,33.4798647 156.47081,32.4335597 C156.127026,31.3875509 155.620908,30.4623721 154.95128,29.6583194 C154.281651,28.8542667 153.461452,28.2190207 152.491859,27.751989 C151.521383,27.2852535 150.409747,27.0865355 149.156363,27.1555389 Z M166,53.8696334 L156.857235,53.8696334 L156.857235,51.8205577 C154.727776,53.2385335 152.418338,53.964402 149.92892,53.9990518 C148.160301,54.0162286 146.546371,53.8000376 145.087128,53.3507751 C143.627591,52.9012163 142.31392,52.2745587 141.146702,51.470506 C139.978896,50.6664534 138.961661,49.7155093 138.094702,48.6173777 C137.22745,47.5195423 136.50224,46.3310843 135.91819,45.0511154 C135.334434,43.772035 134.883898,42.4319472 134.566582,41.0314444 C134.248677,39.6306455 134.064287,38.2215543 134.012528,36.8035785 C133.961064,35.2994226 134.06811,33.7949704 134.33455,32.2908145 C134.600695,30.7866585 135.021235,29.3515059 135.596462,27.9853568 C136.17169,26.6197999 136.90984,25.3490117 137.8115,24.1729922 C138.712572,22.9972687 139.773038,21.9773213 140.992014,21.1125575 C142.211285,20.2480898 143.584655,19.5737517 145.113007,19.0895432 C146.640772,18.6056308 148.323224,18.3633785 150.160658,18.3633785 C151.500209,18.3808515 152.74477,18.531889 153.895225,18.8170834 C155.045092,19.1025739 156.118791,19.5133367 157.114853,20.0490756 L157.114853,19.6341667 C157.114853,19.4265642 157.118676,19.2106694 157.127204,18.98589 C157.136027,18.7611106 157.140438,18.5538042 157.140438,18.3633785 L157.140438,18 L165.845606,18 L166,53.8696334 Z" id="Fill-17" fill="#E53C3C"></path>
                <path d="M150.612816,29.1157968 C150.480732,29.1157968 150.346528,29.1193542 150.210203,29.1267654 L150.178394,29.1282476 C149.357416,29.1552243 148.64368,29.3428754 147.995986,29.7021694 C147.327388,30.0730248 146.771486,30.5725383 146.296773,31.2288724 C145.801157,31.913369 145.417932,32.7416425 145.156492,33.6914593 C144.888386,34.6667705 144.775691,35.7488028 144.82295,36.9085042 C144.838401,37.4468523 144.905351,38.0130665 145.022288,38.6083324 C145.137709,39.1952979 145.309478,39.7843385 145.533354,40.3585567 C145.755715,40.9286246 146.031394,41.4800164 146.354029,41.9985026 C146.651823,42.4772648 147.005359,42.9038523 147.404639,43.2670001 C147.783925,43.6126575 148.219558,43.8930966 148.700027,44.1020919 C149.144749,44.2956719 149.637942,44.3896456 150.207174,44.3896456 C151.232033,44.3896456 152.100271,44.1765001 152.860963,43.7380547 C153.673459,43.2693717 154.336603,42.6720306 154.888264,41.9113471 C155.461131,41.1227975 155.906156,40.216262 156.210917,39.2166421 C156.521132,38.2007176 156.678057,37.1729351 156.678057,36.1623466 C156.678057,35.2184588 156.525676,34.2873181 156.223944,33.3950121 C155.932209,32.531165 155.498696,31.7604023 154.936432,31.1046611 C154.382347,30.4584062 153.719809,29.959782 152.91004,29.5809225 C152.248713,29.2717281 151.477418,29.1157968 150.612816,29.1157968 M150.207174,47.3541176 C149.21897,47.3541176 148.297718,47.1715061 147.469469,46.8107299 C146.682118,46.4686298 145.966261,46.0067651 145.341893,45.4381794 C144.739035,44.8903449 144.20858,44.2512048 143.766282,43.540028 C143.348219,42.8679822 142.990442,42.1529515 142.703251,41.4150945 C142.416364,40.6804983 142.19582,39.9239651 142.047378,39.1677283 C141.899541,38.4159382 141.814717,37.6896426 141.795328,37.0087034 C141.736557,35.5664878 141.883485,34.1856368 142.231265,32.9206966 C142.585406,31.6320406 143.121617,30.4862722 143.82475,29.5157041 C144.55121,28.5107481 145.452468,27.7055975 146.501866,27.1230788 C147.566108,26.5328524 148.763646,26.2109108 150.060852,26.1658508 C151.596475,26.086403 152.994258,26.3351222 154.216637,26.9063759 C155.408419,27.4639931 156.431461,28.2356451 157.257892,29.1993949 C158.067055,30.1438757 158.687181,31.2422126 159.1007,32.4641679 C159.503615,33.6582572 159.707497,34.9021496 159.707497,36.1623466 C159.707497,37.459896 159.507857,38.7731571 159.114029,40.065074 C158.713537,41.3762599 158.122797,42.5750924 157.358469,43.6280728 C156.565665,44.7201843 155.569888,45.6163441 154.399009,46.2919473 C153.176328,46.9968987 151.766123,47.3541176 150.207174,47.3541176 M151.142665,20.3276198 C149.433455,20.3279162 147.837243,20.5496587 146.416739,20.9866219 C144.999567,21.4229921 143.711752,22.0363414 142.589647,22.8097721 C141.463302,23.5858709 140.470857,24.5134541 139.639882,25.566731 C138.794668,26.6383876 138.092747,27.8123185 137.553507,29.0562109 C137.008511,30.3143328 136.603475,31.6572386 136.350516,33.0472795 C136.096043,34.4426565 135.992134,35.8578954 136.041211,37.2535688 C136.09059,38.5712765 136.270236,39.9023245 136.574695,41.2060992 C136.877336,42.5030557 137.312061,43.7593989 137.867054,44.9413339 C138.414777,46.1078536 139.104883,47.2067833 139.917985,48.2072926 C140.712607,49.1855683 141.659307,50.0452652 142.731425,50.762371 C143.802029,51.4788838 145.028649,52.0468767 146.378568,52.4506377 C147.726365,52.8538059 149.253809,53.0482753 150.909095,53.0349352 C153.192687,53.0038082 155.260885,52.3708934 157.224871,51.0997279 L159.57511,49.5789538 L159.57511,52.9050913 L165.957534,52.9050913 L165.811515,19.9644719 L159.841398,19.9644719 C159.840792,20.0160538 159.840489,20.0673391 159.840489,20.1177351 L159.840489,23.0054273 L157.612033,21.8403898 C156.701687,21.364592 155.704092,20.9940331 154.646818,20.7393849 C153.580455,20.4820687 152.401094,20.3439244 151.142665,20.3276198 M150.732781,56 C148.83817,56 147.078065,55.7598778 145.493063,55.2852658 C143.849591,54.7937564 142.345172,54.0953268 141.021609,53.2092461 C139.699259,52.3246477 138.530198,51.2624774 137.546842,50.0523799 C136.582269,48.8654054 135.763714,47.5622235 135.114505,46.1790009 C134.472567,44.8123793 133.969983,43.3612703 133.621294,41.8659907 C133.275029,40.3822725 133.070542,38.8656486 133.013589,37.3588075 C132.957241,35.7517673 133.076298,34.1272367 133.36773,32.5270147 C133.66098,30.9184922 134.130846,29.3612551 134.764605,27.8988811 C135.405028,26.4213883 136.238427,25.0274936 137.241778,23.7554387 C138.258458,22.4667827 139.470839,21.3331686 140.845296,20.3857234 C142.223388,19.436203 143.791729,18.687081 145.507604,18.1588121 C147.222873,17.6308396 149.125058,17.3634443 151.162053,17.3634443 C152.67132,17.3824169 154.080615,17.5496131 155.37146,17.8608827 C155.870711,17.9812402 156.360269,18.122942 156.837708,18.285395 L156.837708,17 L168.827928,17 L169,55.8695632 L156.54567,55.8695632 L156.54567,54.8254762 C154.775872,55.579045 152.900951,55.9727269 150.944539,55.9994071 C150.87365,56 150.803064,56 150.732781,56" id="Fill-19" fill="#E53C3C"></path>
                <path d="M183.212004,20.3613078 C183.982052,19.8799911 184.903102,19.463397 185.975455,19.1112215 C187.047807,18.7596538 188.197766,18.5098796 189.426535,18.3612913 C190.654401,18.2133108 191.932801,18.1807976 193.262639,18.2640556 C194.591273,18.3476176 195.897648,18.5697403 197.180861,18.9307278 C198.463774,19.2920191 199.687429,19.801291 200.851826,20.4585434 C202.015622,21.1160997 203.065414,21.9541498 204,22.9723897 L199.985521,30.111008 C199.032286,29.3151947 197.99633,28.7041292 196.878557,28.2778115 C195.760182,27.8521016 194.632482,27.5652563 193.49606,27.4169719 C192.359336,27.2686875 191.245774,27.2501519 190.155072,27.3613652 C189.064371,27.4722747 188.065715,27.6807237 187.1579,27.9861045 C186.250687,28.2917892 185.471314,28.680428 184.820984,29.1529327 C184.169752,29.6251335 183.716145,30.148383 183.459562,30.7223773 L183.762167,55 L174,55 C174.018349,54.2594895 174.027974,53.2269681 174.027974,51.9027397 L174.027974,47.3748994 L174.027974,41.9026576 L174.027974,35.9861702 L174.027974,30.1252895 C174.027974,28.2085311 174.022861,26.4446151 174.014138,24.8335414 C174.004813,23.2224677 174,21.8195391 174,20.6250595 L174,18 L183.294423,18 L183.212004,20.3613078 Z" id="Fill-21" fill="#EFD154"></path>
                <path d="M175.937045,53.1414314 L181.669493,53.1414314 L181.389825,30.9528809 L181.565769,30.5625719 C181.960157,29.691129 182.625892,28.9149631 183.54514,28.2560383 C184.341643,27.6840797 185.292395,27.2121471 186.370052,26.8533002 C187.398077,26.5113716 188.53458,26.275999 189.748357,26.153712 C190.966888,26.0311283 192.225839,26.0513115 193.490437,26.2139651 C194.756818,26.377509 196.02736,26.6968798 197.266696,27.1634697 C197.867343,27.389938 198.450752,27.6633028 199.013357,27.9814863 L201.198392,24.1404296 C200.686906,23.7115349 200.141538,23.335176 199.567937,23.014618 C198.55715,22.4503766 197.479493,22.006938 196.364983,21.6967684 C195.234126,21.3818499 194.065524,21.1853597 192.892762,21.1126405 C191.702762,21.0393277 190.544563,21.067525 189.451154,21.197529 C188.367552,21.3272363 187.343986,21.5465811 186.408689,21.8496271 C185.501923,22.1440656 184.724143,22.4895559 184.098829,22.8763032 L181.023671,24.7764998 L181.162465,20.8585686 L175.91208,20.8585686 L175.91208,21.4934516 C175.91208,22.6569584 175.916836,24.0231885 175.926049,25.5927355 C175.934668,27.1702964 175.93972,28.8968575 175.93972,30.7730123 L175.93972,52.0455979 C175.93972,52.4341261 175.938829,52.7997997 175.937045,53.1414314 Z M185.581871,57 L172,57 L172.049038,55.0229288 C172.067168,54.3034542 172.076084,53.3017104 172.076084,52.0455979 L172.076084,30.7730123 C172.076084,28.9045746 172.071031,27.1851371 172.062413,25.6146997 C172.053199,24.0371387 172.048444,22.6631915 172.048444,21.4934516 L172.048444,17 L185.164895,17 L185.122098,18.2101065 C185.153007,18.2000148 185.183916,18.1899232 185.215122,18.1798316 C186.389371,17.7993173 187.659913,17.5256558 188.992867,17.3662672 C190.3175,17.2086595 191.709895,17.173042 193.13201,17.2614922 C194.574336,17.3508329 196.011014,17.5924387 197.402517,17.9797796 C198.81215,18.3721664 200.174825,18.9331429 201.453094,19.6466813 C202.775647,20.3851519 203.981696,21.3364375 205.038252,22.4744184 L206,23.5105925 L200.198007,33.7105703 L198.424301,32.2463919 C197.651276,31.608244 196.802762,31.1128631 195.903129,30.7736059 C194.944056,30.4126813 193.965664,30.1660298 192.995892,30.0407747 C192.024038,29.9158164 191.061399,29.8994917 190.135909,29.992691 C189.205367,30.0864839 188.349423,30.2619003 187.591556,30.5138946 C186.883619,30.7495641 186.280594,31.0442993 185.799423,31.3897896 C185.575629,31.5500686 185.395227,31.7133158 185.26535,31.8724075 L185.581871,57 Z" id="Fill-23" fill="#EFD154"></path>
                <path d="M43.8361598,11.9963817 C42.5424862,12.0316833 41.4690909,11.8086805 40.6159739,11.3270862 C39.7628569,10.8463529 39.1158663,10.2384765 38.6756173,9.50374385 C38.234753,8.76901123 38.00986,7.96482343 38.0003228,7.09003241 C37.9907856,6.21552839 38.1926048,5.40244342 38.6051652,4.6499165 C39.0174179,3.8982506 39.641027,3.26856179 40.4753773,2.76085007 C41.3094199,2.25399936 42.3551266,2 43.6115744,2 C44.7544988,2 45.7205238,2.24079714 46.5081111,2.7218174 C47.2953907,3.20283766 47.9002331,3.81042709 48.322023,4.5451597 C48.7438129,5.27960531 48.9690136,6.07116491 48.9970099,6.91955148 C49.0250062,7.76822505 48.8564133,8.56380272 48.4909236,9.30685847 C48.1251262,10.0507753 47.5581249,10.675872 46.789612,11.1830097 C46.0204838,11.6907214 45.0356921,11.9613671 43.8361598,11.9963817" id="Fill-25" fill="#E14598"></path>
                <path d="M44.1039222,3.80418879 C43.3047835,3.80418879 42.6627158,3.96133105 42.1958098,4.27151875 C41.6898513,4.60775051 41.3289036,4.99987459 41.0931534,5.47013085 C40.8447685,5.96409013 40.7273241,6.48819029 40.7333543,7.07227959 C40.7388101,7.6458342 40.8671662,8.15325446 41.1256013,8.62380335 C41.3788677,9.08498809 41.7538858,9.46423644 42.2730532,9.7837883 C42.7540296,10.0802224 43.4176335,10.2177585 44.2586961,10.1931775 C44.9998305,10.1688893 45.5830324,10.0070649 45.9922213,9.71209398 C46.4410369,9.3884453 46.7580506,9.01153798 46.9616401,8.55913214 C47.1833199,8.06722127 47.2823867,7.54955896 47.2651577,6.97629698 C47.2476416,6.40391288 47.1135425,5.8865432 46.8553945,5.39521759 C46.609594,4.92700974 46.2592709,4.54571297 45.7848989,4.22879478 C45.356471,3.94318799 44.8065785,3.80418879 44.1039222,3.80418879 M44.0734843,14 C42.6308422,14 41.3768577,13.6772292 40.3419687,13.0395886 C39.2700374,12.3797082 38.4373021,11.518791 37.8678834,10.4811254 C37.3042078,9.45487229 37.0121761,8.32063877 37.0004029,7.1106141 C36.9883426,5.91375779 37.2470649,4.77864638 37.7693909,3.7377618 C38.3023415,2.67639313 39.1055004,1.78387191 40.157044,1.08477906 C41.2410357,0.364909494 42.5688178,0 44.1039222,0 C45.5353655,0 46.78935,0.352033778 47.829982,1.04644455 C48.8261056,1.71159232 49.6051438,2.57016847 50.1458475,3.59876259 C50.6750651,4.60511684 50.9610666,5.70189373 50.9963861,6.85895238 C51.0311312,8.01688893 50.8151943,9.12273734 50.3546056,10.1454789 C49.8765007,11.2077254 49.1342176,12.1069771 48.1481442,12.8177752 C47.12991,13.551691 45.859558,13.9479119 44.3721204,13.9953179 L44.3681003,13.9956106 C44.2690335,13.9985369 44.170541,14 44.0734843,14" id="Fill-27" fill="#E14598"></path>
            </g>
        </g>
    </g>
</svg>