<?xml version="1.0" encoding="UTF-8"?>
<svg width="35px" height="25px" viewBox="0 0 35 25" version="1.1" xmlns="http://www.w3.org/2000/svg" xmlns:xlink="http://www.w3.org/1999/xlink">
    <!-- Generator: Sketch 49.3 (51167) - http://www.bohemiancoding.com/sketch -->
    <title>email</title>
    <desc>Created with Sketch.</desc>
    <defs></defs>
    <g id="iOS-App" stroke="none" stroke-width="1" fill="none" fill-rule="evenodd">
        <g id="Settings---notifications-Copy" transform="translate(-18.000000, -297.000000)" fill="#290E54" fill-rule="nonzero">
            <g id="email" transform="translate(18.000000, 297.000000)">
                <path d="M34.6923077,3.37121212 L24.9230769,12.4621212 L34.6923077,21.5530303 C34.7307692,21.3636364 34.7307692,21.1742424 34.7307692,20.9848485 L34.7307692,3.93939394 C34.7307692,3.75 34.7307692,3.56060606 34.6923077,3.37121212 Z" id="Shape"></path>
                <path d="M19.5769231,14.8484848 L33.8846154,1.5530303 C33.1923077,0.71969697 32.1153846,0.151515152 30.9230769,0.151515152 L4,0.151515152 C2.80769231,0.151515152 1.73076923,0.681818182 1.03846154,1.5530303 L15.3461538,14.8484848 C16.4615385,15.9090909 18.4230769,15.9090909 19.5769231,14.8484848 Z" id="Shape"></path>
                <path d="M0.153846154,3.37121212 C0.115384615,3.56060606 0.115384615,3.75 0.115384615,3.93939394 L0.115384615,20.9848485 C0.115384615,21.1742424 0.115384615,21.3636364 0.153846154,21.5530303 L9.92307692,12.4621212 L0.153846154,3.37121212 Z" id="Shape"></path>
                <path d="M20.8846154,16.2121212 C19.9230769,17.0833333 18.6923077,17.5378788 17.4230769,17.5378788 C16.1538462,17.5378788 14.9230769,17.0833333 13.9615385,16.2121212 L11.3076923,13.75 L1,23.3712121 C1.69230769,24.2045455 2.76923077,24.7727273 3.96153846,24.7727273 L30.8846154,24.7727273 C32.0769231,24.7727273 33.1538462,24.2424242 33.8461538,23.3712121 L23.5384615,13.75 L20.8846154,16.2121212 Z" id="Shape"></path>
            </g>
        </g>
    </g>
</svg>