<?xml version="1.0" encoding="utf-8"?>
<!-- Generator: Adobe Illustrator 22.0.1, SVG Export Plug-In . SVG Version: 6.00 Build 0)  -->
<svg version="1.1" id="Layer_1" xmlns="http://www.w3.org/2000/svg" xmlns:xlink="http://www.w3.org/1999/xlink" x="0px" y="0px"
	 viewBox="0 0 126 37" style="enable-background:new 0 0 126 37;" xml:space="preserve">
<style type="text/css">
	.st0{enable-background:new    ;}
	.st1{fill:#290E54;}
</style>
<title>Users</title>
<desc>Created with Sketch.</desc>
<g id="iOS-App">
	<g id="Settings---User-Profiles" transform="translate(-122.000000, -64.000000)">
		<g class="st0">
			<path class="st1" d="M135,100.4c-1.5,0-2.9-0.2-4.1-0.7c-1.2-0.5-2.2-1.1-3.1-2c-0.9-0.9-1.6-1.9-2.2-3.1s-1.1-2.6-1.5-4.2
				c-0.4-1.6-0.7-3.2-0.9-5.1s-0.4-3.8-0.5-5.9c-0.1-2.3-0.2-4.8-0.2-7.3s0-5.2,0-8h6.6c0,3,0,5.7,0,8.2s0,4.8,0.1,6.8
				c0.1,2.5,0.2,4.7,0.4,6.6s0.5,3.4,0.9,4.6s1,2.1,1.7,2.7s1.6,0.8,2.6,0.8c1,0,1.8-0.3,2.5-0.9s1.3-1.4,1.7-2.5s0.8-2.5,1.1-4.2
				s0.4-3.6,0.5-5.8c0.1-2.2,0.1-4.6,0.1-7.3s-0.1-5.7-0.2-8.9h6.7c0,2.9,0.1,5.6,0.1,8.3s0,5.3-0.2,7.8c-0.1,1.9-0.3,3.8-0.5,5.5
				s-0.5,3.4-0.9,4.9c-0.4,1.5-0.9,2.8-1.5,4s-1.4,2.2-2.2,3.1c-0.9,0.8-1.9,1.5-3.1,1.9S136.5,100.4,135,100.4z"/>
			<path class="st1" d="M171,93.5c0,1.3-0.2,2.4-0.7,3.3c-0.5,0.9-1.1,1.7-1.9,2.3s-1.7,1.1-2.7,1.4s-2.1,0.5-3.3,0.5
				c-1.1,0-2.3-0.1-3.5-0.3s-2.3-0.6-3.4-1c-1.1-0.4-2.1-1-3-1.6s-1.7-1.4-2.3-2.2l3.9-4.9c0.5,0.5,1,0.9,1.6,1.3
				c0.6,0.4,1.2,0.8,1.9,1s1.3,0.5,1.9,0.7s1.2,0.2,1.7,0.2s1-0.2,1.3-0.4s0.6-0.6,0.8-1.1c0.1-0.4,0-0.9-0.5-1.3
				c-0.4-0.4-1-0.9-1.8-1.4s-1.6-1-2.6-1.6s-1.9-1.2-2.8-1.8s-1.8-1.3-2.6-2.1s-1.5-1.5-1.9-2.4c-0.5-0.8-0.7-1.7-0.7-2.6
				s0.1-1.7,0.4-2.5c0.3-0.8,0.8-1.6,1.4-2.3s1.3-1.3,2.1-1.8s1.7-0.9,2.7-1.1c1-0.2,2-0.3,3-0.2c1,0.1,2,0.3,3.1,0.6
				s2.1,0.7,3.1,1.2c1,0.5,1.9,1,2.7,1.6c0.8,0.6,1.4,1.2,1.9,1.8l-4,4.8c-0.7-0.7-1.4-1.3-2.3-1.8c-0.8-0.5-1.6-0.9-2.4-1.1
				s-1.5-0.3-2.1-0.2s-1.1,0.3-1.3,0.8c-0.1,0.3-0.2,0.5-0.1,0.8c0.1,0.3,0.2,0.5,0.5,0.7c0.2,0.2,0.5,0.5,0.8,0.7
				c0.3,0.2,0.7,0.4,1,0.6s0.7,0.4,1,0.5c0.3,0.2,0.6,0.3,0.8,0.4c1.1,0.5,2.2,1,3.3,1.7c1,0.7,1.9,1.5,2.7,2.4s1.4,1.9,1.8,3
				S171,92.2,171,93.5z"/>
			<path class="st1" d="M200.4,95c-0.9,1-1.9,1.8-3.1,2.6c-1.1,0.7-2.3,1.3-3.6,1.8s-2.5,0.8-3.7,1c-1.3,0.2-2.4,0.3-3.6,0.2
				c-1.7-0.1-3.3-0.5-4.9-1.1s-2.9-1.6-4.1-2.8c-1.2-1.2-2.1-2.6-2.8-4.3c-0.7-1.7-1-3.6-1-5.8c0-1.2,0.2-2.3,0.4-3.5
				c0.3-1.2,0.7-2.3,1.2-3.4s1.2-2.1,1.9-3s1.7-1.8,2.7-2.5s2.2-1.3,3.5-1.7s2.7-0.6,4.2-0.7c1.6,0,3,0.2,4.2,0.7s2.3,1.1,3.3,1.9
				c0.9,0.8,1.7,1.8,2.4,2.9s1.1,2.3,1.5,3.5c0.4,1.3,0.6,2.6,0.7,3.9s0.1,2.7-0.1,4l-19.2,0.1c0.2,0.9,0.5,1.7,1,2.4
				c0.4,0.7,0.9,1.3,1.5,1.8s1.2,0.9,1.9,1.1s1.4,0.4,2.2,0.4c0.6,0,1.3-0.1,2-0.2c0.7-0.1,1.4-0.4,2.2-0.6c0.7-0.3,1.4-0.7,2.1-1.1
				s1.3-1,1.8-1.5L200.4,95z M193.4,82.3c-0.1-0.6-0.3-1.2-0.6-1.7c-0.3-0.5-0.7-0.9-1.1-1.2c-0.5-0.3-1-0.6-1.5-0.8
				c-0.6-0.2-1.1-0.3-1.7-0.3c-0.7-0.1-1.4,0-2.2,0.1s-1.4,0.4-2,0.7s-1.2,0.7-1.7,1.3s-0.8,1.1-1,1.8L193.4,82.3z"/>
			<path class="st1" d="M210,74.9c0.6-0.4,1.3-0.7,2.1-0.9c0.8-0.3,1.7-0.4,2.6-0.6s1.9-0.1,2.9-0.1c1,0.1,2,0.2,2.9,0.5
				c1,0.3,1.9,0.6,2.7,1.1c0.9,0.5,1.7,1.1,2.3,1.9l-3,5.3c-0.7-0.6-1.5-1-2.3-1.4s-1.7-0.5-2.5-0.6s-1.7-0.1-2.5,0
				c-0.8,0.1-1.6,0.2-2.2,0.5c-0.7,0.2-1.3,0.5-1.7,0.9c-0.5,0.3-0.8,0.7-1,1.2l0.2,17.9h-7.3c0-0.5,0-1.3,0-2.3s0-2.1,0-3.3
				c0-1.2,0-2.6,0-4s0-2.9,0-4.4c0-1.5,0-2.9,0-4.3c0-1.4,0-2.7,0-3.9c0-1.2,0-2.2,0-3.1c0-0.9,0-1.5,0-1.9h6.9L210,74.9z"/>
			<path class="st1" d="M248.3,93.5c0,1.3-0.2,2.4-0.7,3.3c-0.5,0.9-1.1,1.7-1.9,2.3c-0.8,0.6-1.7,1.1-2.7,1.4s-2.1,0.5-3.3,0.5
				c-1.1,0-2.3-0.1-3.5-0.3c-1.2-0.2-2.3-0.6-3.4-1c-1.1-0.4-2.1-1-3-1.6s-1.7-1.4-2.3-2.2l3.9-4.9c0.5,0.5,1,0.9,1.6,1.3
				c0.6,0.4,1.2,0.8,1.9,1c0.6,0.3,1.3,0.5,1.9,0.7c0.6,0.2,1.2,0.2,1.7,0.2c0.5,0,1-0.2,1.3-0.4s0.6-0.6,0.8-1.1
				c0.1-0.4,0-0.9-0.5-1.3c-0.4-0.4-1-0.9-1.8-1.4s-1.6-1-2.6-1.6s-1.9-1.2-2.8-1.8c-0.9-0.6-1.8-1.3-2.6-2.1s-1.5-1.5-1.9-2.4
				c-0.5-0.8-0.7-1.7-0.7-2.6c0-0.9,0.1-1.7,0.4-2.5c0.3-0.8,0.8-1.6,1.4-2.3c0.6-0.7,1.3-1.3,2.1-1.8c0.8-0.5,1.7-0.9,2.7-1.1
				c1-0.2,2-0.3,3-0.2c1,0.1,2,0.3,3.1,0.6c1.1,0.3,2.1,0.7,3.1,1.2c1,0.5,1.9,1,2.7,1.6c0.8,0.6,1.4,1.2,1.9,1.8l-4,4.8
				c-0.7-0.7-1.4-1.3-2.3-1.8c-0.8-0.5-1.6-0.9-2.4-1.1c-0.8-0.2-1.5-0.3-2.1-0.2s-1.1,0.3-1.3,0.8c-0.1,0.3-0.2,0.5-0.1,0.8
				c0.1,0.3,0.2,0.5,0.5,0.7c0.2,0.2,0.5,0.5,0.8,0.7c0.3,0.2,0.7,0.4,1,0.6c0.3,0.2,0.7,0.4,1,0.5c0.3,0.2,0.6,0.3,0.8,0.4
				c1.1,0.5,2.2,1,3.3,1.7c1,0.7,1.9,1.5,2.7,2.4s1.4,1.9,1.8,3C248.1,91,248.3,92.2,248.3,93.5z"/>
		</g>
	</g>
</g>
</svg>
