<?xml version="1.0" encoding="utf-8"?>
<!-- Generator: Adobe Illustrator 22.0.1, SVG Export Plug-In . SVG Version: 6.00 Build 0)  -->
<svg version="1.1" id="Layer_1" xmlns="http://www.w3.org/2000/svg" xmlns:xlink="http://www.w3.org/1999/xlink" x="0px" y="0px"
	 viewBox="0 0 286.7 63.5" style="enable-background:new 0 0 286.7 63.5;" xml:space="preserve">
<style type="text/css">
	.st0{fill:#8ACAD8;}
	.st1{fill:#FFFFFF;}
</style>
<g>
	<path class="st0" d="M256.1,57h-228c-14.4,0-26-11.6-26-26v0c0-14.4,11.6-26,26-26h228c14.4,0,26,11.6,26,26v0
		C282.1,45.4,270.5,57,256.1,57z"/>
	<g>
		<path class="st1" d="M95.8,31.5c0.2,0.2,0.3,0.4,0.3,0.7v5.6c0,0.5-0.1,0.9-0.2,1.2c-0.2,0.2-0.5,0.4-0.9,0.6
			c-0.6,0.3-1.4,0.5-2.3,0.6c-0.9,0.1-1.8,0.2-2.6,0.2c-1.7,0-3.2-0.3-4.4-1s-2.2-1.7-2.9-3c-0.7-1.3-1-2.8-1-4.7
			c0-1.8,0.3-3.3,1-4.6c0.7-1.3,1.6-2.3,2.8-3c1.2-0.7,2.7-1,4.3-1c1.1,0,2.2,0.2,3.1,0.5c1,0.3,1.8,0.8,2.4,1.4
			c0.3,0.3,0.5,0.6,0.5,1c0,0.3-0.1,0.5-0.2,0.7c-0.2,0.2-0.4,0.3-0.6,0.3c-0.1,0-0.3,0-0.4-0.1c-0.1,0-0.3-0.1-0.4-0.2
			c-0.8-0.6-1.5-1-2.1-1.2c-0.6-0.2-1.4-0.3-2.2-0.3c-1.8,0-3.2,0.6-4.2,1.7s-1.4,2.8-1.4,4.9c0,2.2,0.5,3.9,1.5,5
			c1,1.1,2.4,1.7,4.3,1.7c1.3,0,2.5-0.2,3.7-0.6v-4.7h-3.1c-0.3,0-0.6-0.1-0.8-0.3c-0.2-0.2-0.3-0.4-0.3-0.7s0.1-0.5,0.3-0.7
			c0.2-0.2,0.4-0.3,0.8-0.3h4.4C95.4,31.2,95.6,31.3,95.8,31.5z"/>
		<path class="st1" d="M109.3,37.5c0.1,0.2,0.2,0.4,0.2,0.7c0,0.5-0.3,0.9-0.9,1.2c-0.6,0.3-1.2,0.6-1.8,0.7
			c-0.7,0.2-1.3,0.3-1.9,0.3c-1.9,0-3.3-0.5-4.4-1.6c-1.1-1.1-1.6-2.6-1.6-4.4c0-1.2,0.2-2.3,0.7-3.2s1.1-1.6,2-2.2
			c0.9-0.5,1.8-0.8,2.9-0.8c1.6,0,2.8,0.5,3.7,1.5c0.9,1,1.4,2.4,1.4,4.1c0,0.6-0.3,1-0.9,1h-7.4c0.2,2.5,1.4,3.7,3.6,3.7
			c0.6,0,1.1-0.1,1.5-0.2c0.4-0.2,0.9-0.4,1.4-0.6c0,0,0.2-0.1,0.4-0.2c0.2-0.1,0.4-0.2,0.5-0.2C109,37.3,109.1,37.3,109.3,37.5z
			 M102.3,30.9c-0.6,0.6-0.9,1.4-1,2.5h6.2c0-1.1-0.3-1.9-0.8-2.5c-0.5-0.6-1.2-0.9-2.1-0.9C103.6,30,102.9,30.3,102.3,30.9z"/>
		<path class="st1" d="M118.6,38.8c0.2,0.2,0.2,0.4,0.2,0.6c0,0.3-0.1,0.6-0.4,0.7s-0.6,0.2-1.1,0.2l-0.6,0
			c-1.3-0.1-2.3-0.5-2.9-1.2c-0.6-0.7-1-1.7-1-3.1v-5.6h-1.4c-0.7,0-1.1-0.3-1.1-0.9c0-0.3,0.1-0.5,0.3-0.7c0.2-0.2,0.4-0.3,0.8-0.3
			h1.4V26c0-0.4,0.1-0.7,0.3-0.9s0.5-0.3,0.9-0.3c0.4,0,0.7,0.1,0.9,0.3c0.2,0.2,0.3,0.5,0.3,0.9v2.5h2.4c0.3,0,0.6,0.1,0.8,0.3
			s0.3,0.4,0.3,0.7c0,0.3-0.1,0.5-0.3,0.7c-0.2,0.2-0.4,0.2-0.8,0.2h-2.4v5.8c0,0.8,0.2,1.3,0.5,1.7c0.3,0.4,0.8,0.6,1.4,0.6l0.7,0
			C118.2,38.5,118.5,38.6,118.6,38.8z"/>
		<path class="st1" d="M129.4,39.9c-1.1-0.3-2-0.8-2.6-1.4c-0.3-0.3-0.5-0.6-0.5-1c0-0.3,0.1-0.5,0.2-0.7c0.2-0.2,0.4-0.3,0.6-0.3
			c0.2,0,0.5,0.1,0.8,0.3c1.4,1.1,3,1.6,4.9,1.6c1.3,0,2.3-0.2,3-0.7s1-1.2,1-2.1c0-0.7-0.3-1.2-1-1.6c-0.6-0.4-1.7-0.7-3.1-1
			c-1.3-0.3-2.4-0.6-3.3-1c-0.9-0.4-1.5-0.9-2-1.5c-0.5-0.6-0.7-1.4-0.7-2.4c0-1,0.3-1.8,0.8-2.6c0.5-0.8,1.3-1.4,2.2-1.8
			c1-0.4,2.1-0.6,3.3-0.6c1.1,0,2.2,0.2,3.1,0.5c1,0.3,1.8,0.8,2.4,1.4c0.3,0.3,0.5,0.6,0.5,1c0,0.3-0.1,0.5-0.3,0.7
			c-0.2,0.2-0.4,0.3-0.6,0.3c-0.2,0-0.5-0.1-0.8-0.3c-0.7-0.6-1.4-1-2.1-1.2c-0.6-0.2-1.4-0.4-2.3-0.4c-1.2,0-2.2,0.3-2.9,0.8
			c-0.7,0.5-1,1.2-1,2.1c0,0.8,0.3,1.3,0.9,1.7c0.6,0.4,1.6,0.7,2.9,1.1c1.4,0.3,2.5,0.7,3.4,1c0.9,0.3,1.6,0.8,2.1,1.4
			c0.5,0.6,0.8,1.4,0.8,2.3c0,1-0.3,1.8-0.8,2.6c-0.5,0.7-1.3,1.3-2.3,1.7c-1,0.4-2.1,0.6-3.3,0.6C131.6,40.4,130.5,40.2,129.4,39.9
			z"/>
		<path class="st1" d="M148.4,38.8c0.2,0.2,0.2,0.4,0.2,0.6c0,0.3-0.1,0.6-0.4,0.7s-0.6,0.2-1.1,0.2l-0.6,0
			c-1.3-0.1-2.3-0.5-2.9-1.2c-0.6-0.7-1-1.7-1-3.1v-5.6h-1.4c-0.7,0-1.1-0.3-1.1-0.9c0-0.3,0.1-0.5,0.3-0.7c0.2-0.2,0.4-0.3,0.8-0.3
			h1.4V26c0-0.4,0.1-0.7,0.3-0.9s0.5-0.3,0.9-0.3c0.4,0,0.7,0.1,0.9,0.3c0.2,0.2,0.3,0.5,0.3,0.9v2.5h2.4c0.3,0,0.6,0.1,0.8,0.3
			s0.3,0.4,0.3,0.7c0,0.3-0.1,0.5-0.3,0.7c-0.2,0.2-0.4,0.2-0.8,0.2H145v5.8c0,0.8,0.2,1.3,0.5,1.7c0.3,0.4,0.8,0.6,1.4,0.6l0.7,0
			C148,38.5,148.2,38.6,148.4,38.8z"/>
		<path class="st1" d="M158.7,29.4c0.8,0.8,1.1,2,1.1,3.6v6.2c0,0.4-0.1,0.7-0.3,0.9c-0.2,0.2-0.5,0.3-0.9,0.3
			c-0.4,0-0.6-0.1-0.8-0.3c-0.2-0.2-0.3-0.5-0.3-0.8v-0.9c-0.3,0.7-0.8,1.2-1.4,1.5s-1.3,0.5-2.1,0.5c-0.8,0-1.5-0.2-2.1-0.5
			c-0.6-0.3-1.1-0.7-1.5-1.3s-0.5-1.2-0.5-1.9c0-0.8,0.2-1.5,0.7-2c0.4-0.5,1.2-0.8,2.2-1c1-0.2,2.4-0.3,4.2-0.3h0.6v-0.7
			c0-0.9-0.2-1.5-0.6-1.9c-0.4-0.4-1-0.6-1.8-0.6c-0.6,0-1.1,0.1-1.6,0.2c-0.5,0.1-1,0.4-1.6,0.6c-0.4,0.2-0.7,0.4-0.9,0.4
			c-0.2,0-0.4-0.1-0.6-0.3c-0.2-0.2-0.2-0.4-0.2-0.7c0-0.2,0.1-0.5,0.2-0.6c0.1-0.2,0.4-0.4,0.7-0.5c0.6-0.3,1.2-0.5,2-0.7
			c0.8-0.2,1.5-0.3,2.2-0.3C156.8,28.2,158,28.6,158.7,29.4z M156.7,37.7c0.6-0.6,0.8-1.4,0.8-2.3v-0.6h-0.4c-1.2,0-2.2,0.1-2.9,0.2
			c-0.7,0.1-1.2,0.3-1.4,0.6c-0.3,0.3-0.4,0.6-0.4,1.1c0,0.6,0.2,1,0.6,1.4c0.4,0.4,0.9,0.6,1.6,0.6
			C155.4,38.6,156.1,38.3,156.7,37.7z"/>
		<path class="st1" d="M170.5,29.2c0,0.4-0.1,0.6-0.3,0.8c-0.2,0.2-0.5,0.3-0.9,0.3l-0.7,0.1c-1,0.1-1.8,0.4-2.2,1.1
			c-0.5,0.6-0.7,1.3-0.7,2.2v5.5c0,0.4-0.1,0.7-0.3,0.9c-0.2,0.2-0.5,0.3-0.9,0.3s-0.6-0.1-0.9-0.3s-0.3-0.5-0.3-0.9v-9.8
			c0-0.4,0.1-0.7,0.3-0.9s0.5-0.3,0.9-0.3c0.3,0,0.6,0.1,0.8,0.3s0.3,0.5,0.3,0.8v1.2c0.3-0.7,0.8-1.2,1.4-1.6s1.3-0.6,2.1-0.6
			l0.3,0C170.1,28.2,170.5,28.5,170.5,29.2z"/>
		<path class="st1" d="M179.5,38.8c0.2,0.2,0.2,0.4,0.2,0.6c0,0.3-0.1,0.6-0.4,0.7s-0.6,0.2-1.1,0.2l-0.6,0
			c-1.3-0.1-2.3-0.5-2.9-1.2c-0.6-0.7-1-1.7-1-3.1v-5.6h-1.4c-0.7,0-1.1-0.3-1.1-0.9c0-0.3,0.1-0.5,0.3-0.7c0.2-0.2,0.4-0.3,0.8-0.3
			h1.4V26c0-0.4,0.1-0.7,0.3-0.9s0.5-0.3,0.9-0.3c0.4,0,0.7,0.1,0.9,0.3c0.2,0.2,0.3,0.5,0.3,0.9v2.5h2.4c0.3,0,0.6,0.1,0.8,0.3
			s0.3,0.4,0.3,0.7c0,0.3-0.1,0.5-0.3,0.7c-0.2,0.2-0.4,0.2-0.8,0.2h-2.4v5.8c0,0.8,0.2,1.3,0.5,1.7c0.3,0.4,0.8,0.6,1.4,0.6l0.7,0
			C179.1,38.5,179.3,38.6,179.5,38.8z"/>
		<path class="st1" d="M191.2,37.5c0.1,0.2,0.2,0.4,0.2,0.7c0,0.5-0.3,0.9-0.9,1.2c-0.6,0.3-1.2,0.6-1.8,0.7
			c-0.7,0.2-1.3,0.3-1.9,0.3c-1.9,0-3.3-0.5-4.4-1.6c-1.1-1.1-1.6-2.6-1.6-4.4c0-1.2,0.2-2.3,0.7-3.2s1.1-1.6,2-2.2
			c0.9-0.5,1.8-0.8,2.9-0.8c1.6,0,2.8,0.5,3.7,1.5c0.9,1,1.4,2.4,1.4,4.1c0,0.6-0.3,1-0.9,1h-7.4c0.2,2.5,1.4,3.7,3.6,3.7
			c0.6,0,1.1-0.1,1.5-0.2c0.4-0.2,0.9-0.4,1.4-0.6c0,0,0.2-0.1,0.4-0.2c0.2-0.1,0.4-0.2,0.5-0.2C190.8,37.3,191,37.3,191.2,37.5z
			 M184.2,30.9c-0.6,0.6-0.9,1.4-1,2.5h6.2c0-1.1-0.3-1.9-0.8-2.5c-0.5-0.6-1.2-0.9-2.1-0.9C185.5,30,184.8,30.3,184.2,30.9z"/>
		<path class="st1" d="M204.6,23.5c0.2,0.2,0.3,0.5,0.3,0.8v14.8c0,0.4-0.1,0.7-0.3,0.9c-0.2,0.2-0.5,0.3-0.9,0.3s-0.7-0.1-0.9-0.3
			c-0.2-0.2-0.3-0.5-0.3-0.9v-1c-0.4,0.7-0.9,1.2-1.5,1.6s-1.4,0.6-2.3,0.6c-1,0-1.9-0.3-2.7-0.8c-0.8-0.5-1.4-1.2-1.8-2.2
			c-0.4-0.9-0.7-2-0.7-3.2c0-1.2,0.2-2.3,0.7-3.2c0.4-0.9,1.1-1.6,1.8-2.1c0.8-0.5,1.7-0.7,2.7-0.7c0.9,0,1.7,0.2,2.3,0.6
			c0.7,0.4,1.2,0.9,1.5,1.6v-6.1c0-0.3,0.1-0.6,0.3-0.8c0.2-0.2,0.5-0.3,0.9-0.3S204.4,23.3,204.6,23.5z M201.7,37.4
			c0.6-0.7,0.9-1.7,0.9-3.1s-0.3-2.4-0.9-3.1c-0.6-0.7-1.4-1.1-2.4-1.1s-1.9,0.4-2.5,1.1c-0.6,0.7-0.9,1.7-0.9,3
			c0,1.3,0.3,2.3,0.9,3.1c0.6,0.7,1.4,1.1,2.4,1.1S201.1,38.1,201.7,37.4z"/>
	</g>
</g>
</svg>
