<?xml version="1.0" encoding="utf-8"?>
<!-- Generator: Adobe Illustrator 22.0.1, SVG Export Plug-In . SVG Version: 6.00 Build 0)  -->
<svg version="1.1" id="Layer_1" xmlns="http://www.w3.org/2000/svg" xmlns:xlink="http://www.w3.org/1999/xlink" x="0px" y="0px"
	 viewBox="0 0 321 64.2" style="enable-background:new 0 0 321 64.2;" xml:space="preserve">
<style type="text/css">
	.st0{fill:#290E54;}
	.st1{fill:#FFFFFF;}
</style>
<path class="st0" d="M289.4,57.3H30.7c-14.4,0-26-11.6-26-26v0c0-14.4,11.6-26,26-26h258.7c14.4,0,26,11.6,26,26v0
	C315.4,45.7,303.7,57.3,289.4,57.3z"/>
<g>
	<g>
		<path class="st1" d="M69.7,39.5c-0.2-0.2-0.3-0.5-0.3-0.9V24c0-0.4,0.1-0.7,0.3-0.9c0.2-0.2,0.5-0.3,0.9-0.3h5.8
			c1.8,0,3.2,0.4,4.2,1.3c1,0.9,1.5,2.1,1.5,3.7c0,1.6-0.5,2.8-1.5,3.7S78.2,33,76.4,33h-4.5v5.6c0,0.4-0.1,0.7-0.3,0.9
			c-0.2,0.2-0.5,0.3-0.9,0.3C70.2,39.9,69.9,39.7,69.7,39.5z M76.1,31c2.4,0,3.6-1,3.6-3.1c0-2-1.2-3.1-3.6-3.1h-4.3V31H76.1z"/>
		<path class="st1" d="M92.8,28.9c0.8,0.8,1.1,2,1.1,3.6v6.2c0,0.4-0.1,0.7-0.3,0.9c-0.2,0.2-0.5,0.3-0.9,0.3
			c-0.4,0-0.6-0.1-0.8-0.3c-0.2-0.2-0.3-0.5-0.3-0.8v-0.9c-0.3,0.7-0.8,1.2-1.4,1.5s-1.3,0.5-2.1,0.5c-0.8,0-1.5-0.2-2.1-0.5
			c-0.6-0.3-1.1-0.7-1.5-1.3S84,36.9,84,36.3c0-0.8,0.2-1.5,0.7-2c0.4-0.5,1.2-0.8,2.2-1c1-0.2,2.4-0.3,4.2-0.3h0.6v-0.7
			c0-0.9-0.2-1.5-0.6-1.9c-0.4-0.4-1-0.6-1.8-0.6c-0.6,0-1.1,0.1-1.6,0.2c-0.5,0.1-1,0.4-1.6,0.6c-0.4,0.2-0.7,0.4-0.9,0.4
			c-0.2,0-0.4-0.1-0.6-0.3c-0.2-0.2-0.2-0.4-0.2-0.7c0-0.2,0.1-0.5,0.2-0.6c0.1-0.2,0.4-0.4,0.7-0.5c0.6-0.3,1.2-0.5,2-0.7
			c0.8-0.2,1.5-0.3,2.2-0.3C90.9,27.7,92.1,28.1,92.8,28.9z M90.8,37.2c0.6-0.6,0.8-1.4,0.8-2.3v-0.6h-0.4c-1.2,0-2.2,0.1-2.9,0.2
			c-0.7,0.1-1.2,0.3-1.4,0.6c-0.3,0.3-0.4,0.6-0.4,1.1c0,0.6,0.2,1,0.6,1.4c0.4,0.4,0.9,0.6,1.6,0.6C89.5,38.1,90.2,37.8,90.8,37.2z
			"/>
		<path class="st1" d="M104.6,28.8c0,0.4-0.1,0.6-0.3,0.8c-0.2,0.2-0.5,0.3-0.9,0.3l-0.7,0.1c-1,0.1-1.8,0.4-2.2,1.1
			c-0.5,0.6-0.7,1.3-0.7,2.2v5.5c0,0.4-0.1,0.7-0.3,0.9c-0.2,0.2-0.5,0.3-0.9,0.3s-0.6-0.1-0.9-0.3s-0.3-0.5-0.3-0.9v-9.8
			c0-0.4,0.1-0.7,0.3-0.9s0.5-0.3,0.9-0.3c0.3,0,0.6,0.1,0.8,0.3s0.3,0.5,0.3,0.8v1.2c0.3-0.7,0.8-1.2,1.4-1.6s1.3-0.6,2.1-0.6
			l0.3,0C104.2,27.7,104.6,28.1,104.6,28.8z"/>
		<path class="st1" d="M115.5,37c0.1,0.2,0.2,0.4,0.2,0.7c0,0.5-0.3,0.9-0.9,1.2c-0.6,0.3-1.2,0.6-1.8,0.7c-0.7,0.2-1.3,0.3-1.9,0.3
			c-1.9,0-3.3-0.5-4.4-1.6c-1.1-1.1-1.6-2.6-1.6-4.4c0-1.2,0.2-2.3,0.7-3.2s1.1-1.6,2-2.2c0.9-0.5,1.8-0.8,2.9-0.8
			c1.6,0,2.8,0.5,3.7,1.5c0.9,1,1.4,2.4,1.4,4.1c0,0.6-0.3,1-0.9,1h-7.4c0.2,2.5,1.4,3.7,3.6,3.7c0.6,0,1.1-0.1,1.5-0.2
			c0.4-0.2,0.9-0.4,1.4-0.6c0,0,0.2-0.1,0.4-0.2c0.2-0.1,0.4-0.2,0.5-0.2C115.2,36.8,115.4,36.9,115.5,37z M108.6,30.4
			c-0.6,0.6-0.9,1.4-1,2.5h6.2c0-1.1-0.3-1.9-0.8-2.5c-0.5-0.6-1.2-0.9-2.1-0.9C109.9,29.5,109.1,29.8,108.6,30.4z"/>
		<path class="st1" d="M129,32.5v6.2c0,0.4-0.1,0.7-0.3,0.9c-0.2,0.2-0.5,0.3-0.9,0.3c-0.4,0-0.7-0.1-0.9-0.3
			c-0.2-0.2-0.3-0.5-0.3-0.8v-6.1c0-1-0.2-1.7-0.6-2.2c-0.4-0.5-1-0.7-1.8-0.7c-1,0-1.8,0.3-2.4,0.9c-0.6,0.6-0.9,1.4-0.9,2.4v5.6
			c0,0.4-0.1,0.6-0.3,0.8c-0.2,0.2-0.5,0.3-0.9,0.3s-0.7-0.1-0.9-0.3c-0.2-0.2-0.3-0.5-0.3-0.8v-9.8c0-0.3,0.1-0.6,0.3-0.8
			c0.2-0.2,0.5-0.3,0.9-0.3s0.6,0.1,0.8,0.3c0.2,0.2,0.3,0.5,0.3,0.8v1c0.4-0.7,0.9-1.2,1.6-1.6c0.7-0.4,1.5-0.6,2.3-0.6
			C127.6,27.7,129,29.3,129,32.5z"/>
		<path class="st1" d="M138.8,38.3c0.2,0.2,0.2,0.4,0.2,0.6c0,0.3-0.1,0.6-0.4,0.7s-0.6,0.2-1.1,0.2l-0.6,0
			c-1.3-0.1-2.3-0.5-2.9-1.2c-0.6-0.7-1-1.7-1-3.1v-5.6h-1.4c-0.7,0-1.1-0.3-1.1-0.9c0-0.3,0.1-0.5,0.3-0.7c0.2-0.2,0.4-0.3,0.8-0.3
			h1.4v-2.5c0-0.4,0.1-0.7,0.3-0.9s0.5-0.3,0.9-0.3c0.4,0,0.7,0.1,0.9,0.3c0.2,0.2,0.3,0.5,0.3,0.9V28h2.4c0.3,0,0.6,0.1,0.8,0.3
			s0.3,0.4,0.3,0.7c0,0.3-0.1,0.5-0.3,0.7c-0.2,0.2-0.4,0.2-0.8,0.2h-2.4v5.8c0,0.8,0.2,1.3,0.5,1.7c0.3,0.4,0.8,0.6,1.4,0.6l0.7,0
			C138.4,38,138.7,38.1,138.8,38.3z"/>
		<path class="st1" d="M140.9,38.9c-0.3-0.2-0.5-0.4-0.6-0.6c-0.1-0.2-0.2-0.4-0.2-0.6c0-0.3,0.1-0.5,0.2-0.6
			c0.1-0.2,0.3-0.3,0.6-0.3c0.2,0,0.5,0.1,1,0.4c0.5,0.3,0.9,0.5,1.4,0.6c0.5,0.2,1,0.2,1.7,0.2c0.8,0,1.4-0.1,1.8-0.4
			c0.4-0.3,0.6-0.7,0.6-1.2c0-0.3-0.1-0.6-0.3-0.8c-0.2-0.2-0.5-0.4-0.9-0.5c-0.4-0.2-1-0.3-1.8-0.5c-1.4-0.3-2.4-0.7-3-1.2
			c-0.6-0.5-0.9-1.2-0.9-2.1c0-0.7,0.2-1.3,0.6-1.9c0.4-0.6,1-1,1.7-1.3c0.7-0.3,1.5-0.5,2.4-0.5c0.6,0,1.3,0.1,1.9,0.3
			c0.6,0.2,1.1,0.4,1.6,0.7c0.5,0.4,0.8,0.8,0.8,1.2c0,0.3-0.1,0.5-0.2,0.6c-0.2,0.2-0.3,0.3-0.5,0.3c-0.1,0-0.3,0-0.4-0.1
			c-0.1-0.1-0.3-0.2-0.6-0.3c-0.4-0.3-0.8-0.5-1.2-0.6c-0.4-0.1-0.8-0.2-1.4-0.2c-0.7,0-1.2,0.1-1.6,0.4c-0.4,0.3-0.6,0.7-0.6,1.2
			c0,0.4,0.2,0.8,0.6,1c0.4,0.2,1.1,0.5,2.1,0.7c1.1,0.2,1.9,0.5,2.5,0.8c0.6,0.3,1,0.6,1.3,1.1c0.3,0.4,0.4,1,0.4,1.6
			c0,1-0.4,1.9-1.3,2.5c-0.9,0.6-2,0.9-3.5,0.9C143.3,39.9,141.9,39.6,140.9,38.9z"/>
		<path class="st1" d="M154,23.2c0.3,0.4,0.4,0.9,0.4,1.6c0,1.4-0.5,2.5-1.4,3.5c-0.2,0.2-0.4,0.3-0.6,0.3c-0.2,0-0.4-0.1-0.5-0.2
			s-0.2-0.3-0.2-0.5c0-0.2,0.1-0.3,0.2-0.5c0.4-0.5,0.7-1,0.9-1.7c-0.4,0-0.7-0.2-1-0.5c-0.3-0.3-0.4-0.6-0.4-1
			c0-0.4,0.1-0.8,0.4-1.1c0.3-0.3,0.6-0.4,1.1-0.4C153.3,22.7,153.7,22.9,154,23.2z"/>
		<path class="st1" d="M164.4,39.4c-0.2-0.2-0.3-0.5-0.3-0.9V24c0-0.4,0.1-0.7,0.3-0.9c0.2-0.2,0.5-0.3,0.9-0.3h4.7
			c2.7,0,4.9,0.7,6.4,2.2s2.3,3.6,2.3,6.2s-0.8,4.8-2.3,6.3c-1.5,1.5-3.6,2.2-6.4,2.2h-4.7C164.9,39.7,164.6,39.6,164.4,39.4z
			 M169.8,37.7c4.2,0,6.2-2.1,6.2-6.4c0-4.3-2.1-6.4-6.2-6.4h-3.3v12.8H169.8z"/>
		<path class="st1" d="M190,28.9c0.8,0.8,1.1,2,1.1,3.6v6.2c0,0.4-0.1,0.7-0.3,0.9c-0.2,0.2-0.5,0.3-0.9,0.3c-0.4,0-0.6-0.1-0.8-0.3
			c-0.2-0.2-0.3-0.5-0.3-0.8v-0.9c-0.3,0.7-0.8,1.2-1.4,1.5s-1.3,0.5-2.1,0.5c-0.8,0-1.5-0.2-2.1-0.5c-0.6-0.3-1.1-0.7-1.5-1.3
			s-0.5-1.2-0.5-1.9c0-0.8,0.2-1.5,0.7-2c0.4-0.5,1.2-0.8,2.2-1c1-0.2,2.4-0.3,4.2-0.3h0.6v-0.7c0-0.9-0.2-1.5-0.6-1.9
			c-0.4-0.4-1-0.6-1.8-0.6c-0.6,0-1.1,0.1-1.6,0.2c-0.5,0.1-1,0.4-1.6,0.6c-0.4,0.2-0.7,0.4-0.9,0.4c-0.2,0-0.4-0.1-0.6-0.3
			c-0.2-0.2-0.2-0.4-0.2-0.7c0-0.2,0.1-0.5,0.2-0.6c0.1-0.2,0.4-0.4,0.7-0.5c0.6-0.3,1.2-0.5,2-0.7c0.8-0.2,1.5-0.3,2.2-0.3
			C188.1,27.7,189.3,28.1,190,28.9z M188,37.2c0.6-0.6,0.8-1.4,0.8-2.3v-0.6h-0.4c-1.2,0-2.2,0.1-2.9,0.2c-0.7,0.1-1.2,0.3-1.4,0.6
			c-0.3,0.3-0.4,0.6-0.4,1.1c0,0.6,0.2,1,0.6,1.4c0.4,0.4,0.9,0.6,1.6,0.6C186.7,38.1,187.4,37.8,188,37.2z"/>
		<path class="st1" d="M194.6,38.9c-0.3-0.2-0.5-0.4-0.6-0.6c-0.1-0.2-0.2-0.4-0.2-0.6c0-0.3,0.1-0.5,0.2-0.6
			c0.1-0.2,0.3-0.3,0.6-0.3c0.2,0,0.5,0.1,1,0.4c0.5,0.3,0.9,0.5,1.4,0.6c0.5,0.2,1,0.2,1.7,0.2c0.8,0,1.4-0.1,1.8-0.4
			c0.4-0.3,0.6-0.7,0.6-1.2c0-0.3-0.1-0.6-0.3-0.8c-0.2-0.2-0.5-0.4-0.9-0.5c-0.4-0.2-1-0.3-1.8-0.5c-1.4-0.3-2.4-0.7-3-1.2
			c-0.6-0.5-0.9-1.2-0.9-2.1c0-0.7,0.2-1.3,0.6-1.9c0.4-0.6,1-1,1.7-1.3c0.7-0.3,1.5-0.5,2.4-0.5c0.6,0,1.3,0.1,1.9,0.3
			c0.6,0.2,1.1,0.4,1.6,0.7c0.5,0.4,0.8,0.8,0.8,1.2c0,0.3-0.1,0.5-0.2,0.6c-0.2,0.2-0.3,0.3-0.5,0.3c-0.1,0-0.3,0-0.4-0.1
			c-0.1-0.1-0.3-0.2-0.6-0.3c-0.4-0.3-0.8-0.5-1.2-0.6c-0.4-0.1-0.8-0.2-1.4-0.2c-0.7,0-1.2,0.1-1.6,0.4c-0.4,0.3-0.6,0.7-0.6,1.2
			c0,0.4,0.2,0.8,0.6,1c0.4,0.2,1.1,0.5,2.1,0.7c1.1,0.2,1.9,0.5,2.5,0.8c0.6,0.3,1,0.6,1.3,1.1c0.3,0.4,0.4,1,0.4,1.6
			c0,1-0.4,1.9-1.3,2.5c-0.9,0.6-2,0.9-3.5,0.9C196.9,39.9,195.6,39.6,194.6,38.9z"/>
		<path class="st1" d="M216.6,32.5v6.2c0,0.4-0.1,0.6-0.3,0.8c-0.2,0.2-0.5,0.3-0.9,0.3s-0.7-0.1-0.9-0.3c-0.2-0.2-0.3-0.5-0.3-0.8
			v-6.2c0-1-0.2-1.7-0.6-2.1c-0.4-0.4-1-0.7-1.8-0.7c-1,0-1.8,0.3-2.4,0.9c-0.6,0.6-0.9,1.4-0.9,2.4v5.6c0,0.4-0.1,0.6-0.3,0.8
			c-0.2,0.2-0.5,0.3-0.9,0.3s-0.7-0.1-0.9-0.3c-0.2-0.2-0.3-0.5-0.3-0.8V23.8c0-0.4,0.1-0.6,0.3-0.8c0.2-0.2,0.5-0.3,0.9-0.3
			c0.4,0,0.6,0.1,0.9,0.3c0.2,0.2,0.3,0.5,0.3,0.8v6c0.4-0.7,0.9-1.2,1.6-1.5c0.7-0.4,1.4-0.5,2.3-0.5
			C215.2,27.7,216.6,29.3,216.6,32.5z"/>
		<path class="st1" d="M228.9,28.5c0.8,0.5,1.4,1.2,1.8,2.1s0.7,2,0.7,3.2c0,1.2-0.2,2.3-0.7,3.2c-0.4,0.9-1.1,1.6-1.8,2.2
			c-0.8,0.5-1.7,0.8-2.7,0.8c-0.9,0-1.7-0.2-2.3-0.6s-1.2-0.9-1.5-1.6v1c0,0.4-0.1,0.6-0.3,0.9c-0.2,0.2-0.5,0.3-0.9,0.3
			s-0.7-0.1-0.9-0.3c-0.2-0.2-0.3-0.5-0.3-0.9V23.8c0-0.4,0.1-0.6,0.3-0.8c0.2-0.2,0.5-0.3,0.9-0.3c0.4,0,0.6,0.1,0.9,0.3
			c0.2,0.2,0.3,0.5,0.3,0.8v6.1c0.4-0.7,0.9-1.2,1.5-1.6c0.7-0.4,1.4-0.6,2.3-0.6C227.2,27.7,228.1,28,228.9,28.5z M228,36.9
			c0.6-0.7,0.9-1.8,0.9-3.1c0-1.3-0.3-2.3-0.9-3s-1.4-1.1-2.4-1.1c-1.1,0-1.9,0.4-2.4,1.1c-0.6,0.7-0.9,1.7-0.9,3.1s0.3,2.4,0.9,3.1
			c0.6,0.7,1.4,1.1,2.4,1.1C226.6,38,227.5,37.6,228,36.9z"/>
		<path class="st1" d="M236.1,39.2c-0.9-0.5-1.5-1.2-2-2.1c-0.5-0.9-0.7-2-0.7-3.2c0-1.2,0.2-2.3,0.7-3.2c0.5-0.9,1.1-1.6,2-2.1
			s1.9-0.7,3-0.7c1.2,0,2.2,0.2,3,0.7s1.5,1.2,2,2.1c0.5,0.9,0.7,2,0.7,3.2c0,1.2-0.2,2.3-0.7,3.2c-0.5,0.9-1.1,1.6-2,2.1
			c-0.9,0.5-1.9,0.7-3,0.7C238,39.9,237,39.7,236.1,39.2z M241.6,36.9c0.6-0.7,0.9-1.7,0.9-3.1c0-1.3-0.3-2.4-0.9-3.1
			s-1.4-1.1-2.4-1.1c-1.1,0-1.9,0.4-2.4,1.1c-0.6,0.7-0.9,1.7-0.9,3.1c0,1.4,0.3,2.4,0.9,3.1c0.6,0.7,1.4,1.1,2.5,1.1
			S241.1,37.6,241.6,36.9z"/>
		<path class="st1" d="M256,28.9c0.8,0.8,1.1,2,1.1,3.6v6.2c0,0.4-0.1,0.7-0.3,0.9c-0.2,0.2-0.5,0.3-0.9,0.3c-0.4,0-0.6-0.1-0.8-0.3
			c-0.2-0.2-0.3-0.5-0.3-0.8v-0.9c-0.3,0.7-0.8,1.2-1.4,1.5c-0.6,0.4-1.3,0.5-2.1,0.5c-0.8,0-1.5-0.2-2.1-0.5
			c-0.6-0.3-1.1-0.7-1.5-1.3c-0.4-0.6-0.5-1.2-0.5-1.9c0-0.8,0.2-1.5,0.7-2c0.4-0.5,1.2-0.8,2.2-1c1-0.2,2.4-0.3,4.2-0.3h0.6v-0.7
			c0-0.9-0.2-1.5-0.6-1.9c-0.4-0.4-1-0.6-1.8-0.6c-0.6,0-1.1,0.1-1.6,0.2c-0.5,0.1-1,0.4-1.6,0.6c-0.4,0.2-0.7,0.4-0.9,0.4
			c-0.2,0-0.4-0.1-0.6-0.3c-0.2-0.2-0.2-0.4-0.2-0.7c0-0.2,0.1-0.5,0.2-0.6c0.1-0.2,0.4-0.4,0.7-0.5c0.6-0.3,1.2-0.5,2-0.7
			c0.8-0.2,1.5-0.3,2.2-0.3C254.1,27.7,255.2,28.1,256,28.9z M253.9,37.2c0.6-0.6,0.8-1.4,0.8-2.3v-0.6h-0.4c-1.2,0-2.2,0.1-2.9,0.2
			c-0.7,0.1-1.2,0.3-1.4,0.6c-0.3,0.3-0.4,0.6-0.4,1.1c0,0.6,0.2,1,0.6,1.4c0.4,0.4,0.9,0.6,1.6,0.6
			C252.7,38.1,253.4,37.8,253.9,37.2z"/>
		<path class="st1" d="M267.7,28.8c0,0.4-0.1,0.6-0.3,0.8s-0.5,0.3-0.9,0.3l-0.7,0.1c-1,0.1-1.8,0.4-2.2,1.1s-0.7,1.3-0.7,2.2v5.5
			c0,0.4-0.1,0.7-0.3,0.9c-0.2,0.2-0.5,0.3-0.9,0.3c-0.4,0-0.6-0.1-0.9-0.3c-0.2-0.2-0.3-0.5-0.3-0.9v-9.8c0-0.4,0.1-0.7,0.3-0.9
			c0.2-0.2,0.5-0.3,0.9-0.3c0.3,0,0.6,0.1,0.8,0.3s0.3,0.5,0.3,0.8v1.2c0.3-0.7,0.8-1.2,1.4-1.6s1.3-0.6,2.1-0.6l0.3,0
			C267.4,27.7,267.7,28.1,267.7,28.8z"/>
		<path class="st1" d="M279.5,23c0.2,0.2,0.3,0.5,0.3,0.8v14.8c0,0.4-0.1,0.7-0.3,0.9c-0.2,0.2-0.5,0.3-0.9,0.3
			c-0.4,0-0.7-0.1-0.9-0.3c-0.2-0.2-0.3-0.5-0.3-0.9v-1c-0.4,0.7-0.9,1.2-1.5,1.6s-1.4,0.6-2.3,0.6c-1,0-1.9-0.3-2.7-0.8
			c-0.8-0.5-1.4-1.2-1.8-2.2c-0.4-0.9-0.7-2-0.7-3.2c0-1.2,0.2-2.3,0.7-3.2c0.4-0.9,1.1-1.6,1.8-2.1s1.7-0.7,2.7-0.7
			c0.9,0,1.7,0.2,2.3,0.6c0.7,0.4,1.2,0.9,1.5,1.6v-6.1c0-0.3,0.1-0.6,0.3-0.8c0.2-0.2,0.5-0.3,0.9-0.3S279.2,22.8,279.5,23z
			 M276.5,36.9c0.6-0.7,0.9-1.7,0.9-3.1s-0.3-2.4-0.9-3.1c-0.6-0.7-1.4-1.1-2.4-1.1s-1.9,0.4-2.5,1.1s-0.9,1.7-0.9,3
			c0,1.3,0.3,2.3,0.9,3.1c0.6,0.7,1.4,1.1,2.4,1.1S276,37.6,276.5,36.9z"/>
	</g>
	<g id="iOS-App">
		<g id="Choose-a-User-1" transform="translate(-331.000000, -621.000000)">
			<g id="lock" transform="translate(331.000000, 621.000000)">
				<path id="Shape" class="st1" d="M46.9,29.3c1.6,0,3.1,0,4.6,0c0.6,0,1.1,0.2,1.5,0.6c0.4,0.4,0.5,0.9,0.5,1.4c0,2.2,0,4.4,0,6.7
					c0,0.8-0.4,1.4-1.1,1.8c-0.3,0.2-0.6,0.2-0.9,0.2c-3.1,0-6.2,0-9.3,0c-1,0-1.8-0.7-2-1.6c0-0.1,0-0.3,0-0.4c0-2.2,0-4.4,0-6.6
					c0-0.9,0.6-1.7,1.5-2c0.2-0.1,0.3-0.1,0.5-0.1C43.8,29.3,45.3,29.3,46.9,29.3z M46.2,35.9c0,0.2,0,0.5,0,0.7c0,0.1,0,0.1,0,0.2
					c0.1,0.3,0.4,0.6,0.8,0.5c0.3-0.1,0.5-0.3,0.5-0.7c0-0.5,0-1,0-1.5c0-0.1,0-0.1,0.1-0.1c0.5-0.3,0.7-0.9,0.6-1.4
					c-0.2-0.8-1-1.3-1.7-1c-0.6,0.2-1,0.8-0.9,1.5c0.1,0.4,0.3,0.7,0.6,0.9c0,0,0.1,0.1,0.1,0.1C46.2,35.4,46.2,35.6,46.2,35.9z"/>
				<path id="Shape_1_" class="st1" d="M51.6,28.6c-0.7,0-1.3,0-2,0c0,0,0-0.1,0-0.1c0-0.3,0-0.7,0-1c0-0.6-0.2-1.2-0.5-1.7
					c-0.3-0.6-0.9-1-1.6-1.1c-0.5-0.1-0.9-0.1-1.4,0c-0.6,0.1-1,0.5-1.4,1c-0.2,0.3-0.3,0.8-0.4,1.2c-0.1,0.4-0.1,0.8-0.1,1.1
					c0,0.2,0,0.4,0,0.6c0,0,0,0,0,0.1c-0.7,0-1.3,0-2,0c0,0,0-0.1,0-0.1c0-0.3,0-0.6,0-1c0-0.9,0.2-1.8,0.6-2.6
					c0.2-0.5,0.6-0.9,1-1.3c0.5-0.4,1-0.7,1.6-0.9c0.6-0.2,1.2-0.2,1.8-0.2c0.8,0.1,1.6,0.3,2.3,0.8c0.7,0.5,1.1,1.1,1.5,1.8
					c0.2,0.5,0.4,1.1,0.5,1.7c0.1,0.3,0.1,0.7,0.1,1.1C51.6,28.2,51.6,28.4,51.6,28.6C51.6,28.6,51.6,28.6,51.6,28.6z"/>
			</g>
		</g>
	</g>
</g>
</svg>
