<?xml version="1.0" encoding="utf-8"?>
<!-- Generator: Adobe Illustrator 22.0.1, SVG Export Plug-In . SVG Version: 6.00 Build 0)  -->
<svg version="1.1" id="Layer_1" xmlns="http://www.w3.org/2000/svg" xmlns:xlink="http://www.w3.org/1999/xlink" x="0px" y="0px"
	 viewBox="0 0 187 39" style="enable-background:new 0 0 187 39;" xml:space="preserve">
<style type="text/css">
	.st0{enable-background:new    ;}
	.st1{fill:#290E54;}
</style>
<title>Account</title>
<desc>Created with Sketch.</desc>
<g id="iOS-App">
	<g id="Settings---Account" transform="translate(-92.000000, -63.000000)">
		<g class="st0">
			<path class="st1" d="M114.2,92.4L102,92.3l-2.9,8.8l-6.5-2.5c0.1-0.3,0.2-0.8,0.5-1.5c0.2-0.7,0.5-1.6,0.9-2.7s0.8-2.3,1.2-3.7
				c0.5-1.4,0.9-2.8,1.4-4.3c0.5-1.5,1-3.1,1.5-4.7s1.1-3.2,1.6-4.8s1-3.1,1.5-4.5s0.9-2.8,1.3-4s0.8-2.3,1.1-3.1s0.5-1.6,0.7-2
				l6.9-0.1c0.2,0.4,0.5,1.1,0.8,2s0.7,1.9,1.1,3.1s0.9,2.5,1.4,4c0.5,1.5,1,3,1.6,4.6c0.5,1.6,1.1,3.2,1.6,4.8
				c0.5,1.6,1.1,3.2,1.6,4.7c0.5,1.5,1,3,1.5,4.4s0.9,2.6,1.2,3.7s0.7,2,0.9,2.8s0.4,1.2,0.5,1.5l-6.5,2.5L114.2,92.4z M104.6,85.3
				l7.1,0l-3.5-11.2L104.6,85.3z"/>
			<path class="st1" d="M149,93.6c-0.6,0.9-1.3,1.7-2.1,2.5s-1.7,1.4-2.7,2c-1,0.6-2,1-3.1,1.3s-2.2,0.5-3.3,0.5
				c-1.8,0-3.3-0.2-4.7-0.7s-2.6-1.2-3.7-2.1c-1-0.9-1.9-1.9-2.6-3.1s-1.2-2.4-1.5-3.8s-0.5-2.7-0.5-4.1s0.2-2.8,0.5-4.1
				c0.4-1.3,0.9-2.6,1.6-3.8s1.6-2.2,2.6-3.1s2.2-1.6,3.6-2.1c1.4-0.5,2.9-0.8,4.6-0.8c1.2,0,2.3,0.1,3.4,0.4s2.1,0.7,3,1.2
				s1.8,1.3,2.6,2.1s1.5,1.9,2.2,3.1l-6.2,3c-0.2-0.4-0.5-0.8-0.9-1.1s-0.9-0.7-1.4-0.9c-0.5-0.3-1.1-0.5-1.7-0.6s-1.2-0.2-1.9-0.1
				c-0.9,0.1-1.8,0.3-2.5,0.8s-1.3,1-1.8,1.7s-0.8,1.4-1.1,2.2c-0.2,0.8-0.3,1.7-0.3,2.5s0.1,1.7,0.4,2.5c0.3,0.8,0.6,1.5,1.1,2.1
				s1.1,1.1,1.9,1.5c0.8,0.4,1.6,0.6,2.6,0.6c0.5,0,1.1-0.1,1.7-0.2c0.6-0.1,1.2-0.4,1.7-0.6s1.1-0.6,1.6-1.1s0.9-0.9,1.2-1.5
				L149,93.6z"/>
			<path class="st1" d="M176,93.6c-0.6,0.9-1.3,1.7-2.1,2.5s-1.7,1.4-2.7,2c-1,0.6-2,1-3.1,1.3s-2.2,0.5-3.3,0.5
				c-1.8,0-3.3-0.2-4.7-0.7s-2.6-1.2-3.7-2.1c-1-0.9-1.9-1.9-2.6-3.1s-1.2-2.4-1.5-3.8s-0.5-2.7-0.5-4.1s0.2-2.8,0.5-4.1
				c0.4-1.3,0.9-2.6,1.6-3.8s1.6-2.2,2.6-3.1s2.2-1.6,3.6-2.1c1.4-0.5,2.9-0.8,4.6-0.8c1.2,0,2.3,0.1,3.4,0.4s2.1,0.7,3,1.2
				s1.8,1.3,2.6,2.1s1.5,1.9,2.2,3.1l-6.2,3c-0.2-0.4-0.5-0.8-0.9-1.1s-0.9-0.7-1.4-0.9c-0.5-0.3-1.1-0.5-1.7-0.6s-1.2-0.2-1.9-0.1
				c-0.9,0.1-1.8,0.3-2.5,0.8s-1.3,1-1.8,1.7s-0.8,1.4-1.1,2.2c-0.2,0.8-0.3,1.7-0.3,2.5s0.1,1.7,0.4,2.5c0.3,0.8,0.6,1.5,1.1,2.1
				s1.1,1.1,1.9,1.5c0.8,0.4,1.6,0.6,2.6,0.6c0.5,0,1.1-0.1,1.7-0.2c0.6-0.1,1.2-0.4,1.7-0.6s1.1-0.6,1.6-1.1s0.9-0.9,1.2-1.5
				L176,93.6z"/>
			<path class="st1" d="M191.8,99.9c-1.8,0-3.3-0.2-4.7-0.7s-2.6-1.2-3.7-2.1c-1-0.9-1.9-1.9-2.6-3.1c-0.7-1.2-1.2-2.4-1.5-3.8
				s-0.5-2.7-0.5-4.1s0.2-2.8,0.5-4.1c0.4-1.3,0.9-2.6,1.6-3.8s1.6-2.2,2.6-3.1s2.2-1.6,3.6-2.1c1.4-0.5,2.9-0.8,4.6-0.8
				c1.6,0,3.1,0.3,4.4,0.8c1.3,0.5,2.4,1.2,3.4,2.1c1,0.9,1.8,1.9,2.4,3.1s1.1,2.4,1.4,3.7c0.3,1.3,0.5,2.7,0.5,4.1
				c0,1.4-0.2,2.8-0.5,4.1c-0.3,1.3-0.8,2.6-1.4,3.8s-1.4,2.2-2.4,3.1s-2.1,1.6-3.4,2.1C194.9,99.6,193.4,99.9,191.8,99.9z
				 M190.9,79.2c-1,0.1-1.8,0.3-2.5,0.7s-1.3,1-1.8,1.6c-0.5,0.7-0.8,1.4-1.1,2.2s-0.3,1.7-0.3,2.5c0,0.9,0.1,1.7,0.4,2.5
				c0.3,0.8,0.6,1.5,1.1,2.2c0.5,0.6,1.1,1.1,1.9,1.5c0.8,0.4,1.6,0.6,2.6,0.6c1,0,1.9-0.2,2.6-0.6c0.7-0.4,1.4-0.9,1.8-1.6
				c0.5-0.7,0.8-1.4,1.1-2.3s0.3-1.7,0.3-2.6c0-0.9-0.2-1.7-0.5-2.6c-0.3-0.8-0.7-1.6-1.2-2.2s-1.2-1.1-1.9-1.5
				S191.9,79.1,190.9,79.2z"/>
			<path class="st1" d="M222.9,98.3c-0.2,0.1-0.4,0.2-0.7,0.3s-0.4,0.2-0.7,0.3c-2.3,0.9-4.3,1.4-6,1.4s-3.2-0.4-4.4-1.3
				c-1.2-0.9-2.2-2.2-2.9-4.1c-0.7-1.8-1.1-4.2-1.3-7c-0.1-1-0.1-2.1-0.2-3.4c0-1.3-0.1-2.6-0.1-4c0-1.4,0-2.8,0-4.3
				c0-1.4,0.1-2.8,0.1-4.1h6.8c0,0.8-0.1,1.7-0.1,2.6c0,0.9-0.1,1.8-0.1,2.8s-0.1,1.8-0.1,2.7c0,0.9,0,1.8,0,2.6c0,0.8,0,1.6,0,2.3
				c0,0.7,0,1.3,0.1,1.8c0.1,1.3,0.2,2.5,0.5,3.4c0.2,0.9,0.6,1.6,1.1,2.1s1.2,0.8,2,0.8c0.8,0,1.8-0.2,3.1-0.7
				c1-0.4,1.9-0.9,2.7-1.5l-0.1-18.9h7.3c0,0.6,0,1.4,0,2.5c0,1,0,2.2,0,3.6c0,1.3,0,2.8,0,4.3s0,3,0,4.6c0,1.5,0,3,0,4.5s0,2.8,0,4
				c0,1.2,0,2.2,0,3.1c0,0.9,0,1.4,0,1.8h-6.9L222.9,98.3z"/>
			<path class="st1" d="M240,75.5c0.2-0.1,0.4-0.2,0.7-0.3s0.4-0.2,0.7-0.3c2.3-0.9,4.3-1.4,6-1.4s3.2,0.4,4.4,1.3
				c1.2,0.9,2.2,2.2,2.8,4.1c0.7,1.8,1.1,4.2,1.3,7c0.1,1,0.1,2,0.2,3.2c0,1.1,0.1,2.3,0.1,3.5c0,1.2,0,2.5,0,3.7s-0.1,2.6-0.1,3.9
				h-6.8c0.1-1.3,0.1-2.5,0.2-3.8c0-1.2,0.1-2.4,0.1-3.6c0-1.1,0-2.2,0-3.2c0-1,0-1.9-0.1-2.6c-0.1-1.3-0.2-2.5-0.5-3.4
				c-0.2-0.9-0.6-1.6-1.1-2.1c-0.5-0.5-1.2-0.8-2-0.8c-0.8,0-1.8,0.2-3.1,0.7c-1,0.4-1.9,0.9-2.7,1.5l0.1,17.3h-7.3
				c0-0.6,0-1.4,0-2.4c0-1,0-2.1,0-3.4c0-1.3,0-2.6,0-4s0-2.8,0-4.3c0-1.4,0-2.8,0-4.2s0-2.6,0-3.7c0-1.1,0-2.1,0-2.9
				c0-0.8,0-1.4,0-1.7h6.9L240,75.5z"/>
			<path class="st1" d="M262.9,73.1c0-1,0-1.9,0-2.9c0-0.9,0-1.8,0-2.6c0-0.8,0-1.4,0-2c0-0.5,0-0.9,0-1.1h6.9l0,8.6h5.6v7.1H270
				l0.1,20.2h-7.3c0-0.4,0-1,0-1.8c0-0.8,0-1.7,0-2.8s0-2.2,0-3.5c0-1.3,0-2.6,0-3.9s0-2.7,0-4.1c0-1.4,0-2.7,0-4h-5.5v-7.1H262.9z"
				/>
		</g>
	</g>
</g>
</svg>
