<?xml version="1.0" encoding="utf-8"?>
<!-- Generator: Adobe Illustrator 22.0.1, SVG Export Plug-In . SVG Version: 6.00 Build 0)  -->
<svg version="1.1" id="Layer_1" xmlns="http://www.w3.org/2000/svg" xmlns:xlink="http://www.w3.org/1999/xlink" x="0px" y="0px"
	 viewBox="0 0 243 38" style="enable-background:new 0 0 243 38;" xml:space="preserve">
<style type="text/css">
	.st0{enable-background:new    ;}
	.st1{fill:#290E54;}
</style>
<title>Contact Us</title>
<desc>Created with Sketch.</desc>
<g id="iOS-App">
	<g id="Settings---notifications-Copy" transform="translate(-65.000000, -63.000000)">
		<g class="st0">
			<path class="st1" d="M91,95.2c-0.5,0.8-1.2,1.5-2,2.2s-1.7,1.3-2.7,1.8s-2,0.9-3.1,1.3c-1.1,0.3-2.2,0.5-3.3,0.5
				c-1.7,0-3.2-0.2-4.6-0.6c-1.4-0.5-2.6-1.1-3.7-1.9c-1.1-0.8-2-1.8-2.8-3s-1.4-2.5-1.9-3.9s-0.9-2.9-1.1-4.6
				c-0.2-1.6-0.3-3.3-0.3-5c0-1.9,0.2-3.6,0.6-5.3s0.8-3.2,1.4-4.5s1.4-2.6,2.3-3.7s1.9-2,3-2.7s2.3-1.3,3.6-1.7s2.7-0.6,4.1-0.6
				c1.2,0,2.3,0.1,3.4,0.4s2.1,0.7,3,1.2s1.7,1.2,2.4,2c0.7,0.8,1.2,1.7,1.6,2.7l-6.2,3c-0.5-0.8-1.1-1.4-1.9-1.9
				c-0.8-0.4-1.9-0.6-3.2-0.5c-0.9,0.1-1.9,0.4-2.8,0.9s-1.7,1.3-2.4,2.3S73,75.6,72.6,77c-0.5,1.4-0.7,2.9-0.8,4.7
				c-0.1,2.1,0.1,4,0.4,5.5s0.9,2.9,1.7,3.9s1.5,1.8,2.5,2.3s1.9,0.8,2.9,0.8c0.5,0,1.1-0.1,1.7-0.3c0.6-0.2,1.2-0.4,1.8-0.7
				s1.1-0.6,1.5-1s0.9-0.7,1.1-1.1L91,95.2z"/>
			<path class="st1" d="M105.2,99.9c-1.8,0-3.3-0.2-4.7-0.7s-2.6-1.2-3.7-2.1c-1-0.9-1.9-1.9-2.6-3.1c-0.7-1.2-1.2-2.4-1.5-3.8
				s-0.5-2.7-0.5-4.1s0.2-2.8,0.5-4.1c0.4-1.3,0.9-2.6,1.6-3.8s1.6-2.2,2.6-3.1s2.2-1.6,3.6-2.1c1.4-0.5,2.9-0.8,4.6-0.8
				c1.6,0,3.1,0.3,4.4,0.8s2.4,1.2,3.4,2.1c1,0.9,1.8,1.9,2.4,3.1s1.1,2.4,1.4,3.7s0.5,2.7,0.5,4.1c0,1.4-0.2,2.8-0.5,4.1
				s-0.8,2.6-1.4,3.8s-1.4,2.2-2.4,3.1s-2.1,1.6-3.4,2.1S106.8,99.9,105.2,99.9z M104.3,79.2c-1,0.1-1.8,0.3-2.5,0.7s-1.3,1-1.8,1.6
				s-0.8,1.4-1.1,2.2s-0.3,1.7-0.3,2.5c0,0.9,0.1,1.7,0.4,2.5c0.3,0.8,0.6,1.5,1.1,2.2c0.5,0.6,1.1,1.1,1.9,1.5
				c0.8,0.4,1.6,0.6,2.6,0.6c1,0,1.9-0.2,2.6-0.6c0.7-0.4,1.4-0.9,1.8-1.6s0.8-1.4,1.1-2.3s0.3-1.7,0.3-2.6c0-0.9-0.2-1.7-0.5-2.6
				c-0.3-0.8-0.7-1.6-1.2-2.2s-1.2-1.1-1.9-1.5S105.3,79.1,104.3,79.2z"/>
			<path class="st1" d="M127.5,75.5c0.2-0.1,0.4-0.2,0.7-0.3s0.4-0.2,0.7-0.3c2.3-0.9,4.3-1.4,6-1.4s3.2,0.4,4.4,1.3
				s2.2,2.2,2.9,4.1s1.1,4.2,1.3,7c0.1,1,0.1,2,0.2,3.2s0.1,2.3,0.1,3.5c0,1.2,0,2.5,0,3.7s-0.1,2.6-0.1,3.9h-6.8
				c0.1-1.3,0.1-2.5,0.2-3.8s0.1-2.4,0.1-3.6c0-1.1,0-2.2,0-3.2c0-1,0-1.9-0.1-2.6c-0.1-1.3-0.2-2.5-0.5-3.4s-0.6-1.6-1.1-2.1
				c-0.5-0.5-1.2-0.8-2-0.8s-1.8,0.2-3.1,0.7c-1,0.4-1.9,0.9-2.7,1.5l0.1,17.3h-7.3c0-0.6,0-1.4,0-2.4c0-1,0-2.1,0-3.4s0-2.6,0-4
				s0-2.8,0-4.3s0-2.8,0-4.2s0-2.6,0-3.7s0-2.1,0-2.9s0-1.4,0-1.7h6.9L127.5,75.5z"/>
			<path class="st1" d="M150.5,73.1c0-1,0-1.9,0-2.9s0-1.8,0-2.6c0-0.8,0-1.4,0-2s0-0.9,0-1.1h6.9l0,8.6h5.6v7.1h-5.5l0.1,20.2h-7.3
				c0-0.4,0-1,0-1.8c0-0.8,0-1.7,0-2.8s0-2.2,0-3.5s0-2.6,0-3.9s0-2.7,0-4.1c0-1.4,0-2.7,0-4H145v-7.1H150.5z"/>
			<path class="st1" d="M191.5,100.3h-7.3v-1.6c-1.7,1.1-3.5,1.7-5.5,1.7c-1.4,0-2.7-0.2-3.9-0.5s-2.2-0.9-3.1-1.5
				c-0.9-0.6-1.7-1.4-2.4-2.3c-0.7-0.9-1.3-1.8-1.7-2.8s-0.8-2.1-1.1-3.2s-0.4-2.2-0.4-3.3c0-1.2,0-2.4,0.3-3.6s0.5-2.3,1-3.4
				s1-2.1,1.8-3s1.6-1.7,2.5-2.4s2.1-1.2,3.3-1.6s2.6-0.6,4-0.6c1.1,0,2.1,0.1,3,0.4c0.9,0.2,1.8,0.5,2.6,1c0-0.1,0-0.2,0-0.3
				s0-0.3,0-0.5s0-0.3,0-0.5s0-0.2,0-0.3h6.9L191.5,100.3z M178.1,79.2c-0.8,0-1.6,0.2-2.2,0.6c-0.7,0.4-1.2,0.9-1.7,1.5
				s-0.8,1.4-1.1,2.3s-0.3,1.9-0.3,2.9c0,0.5,0.1,1,0.2,1.5s0.3,1.1,0.5,1.6s0.4,1,0.7,1.5c0.3,0.5,0.6,0.9,1,1.2
				c0.4,0.4,0.8,0.7,1.3,0.9s1,0.3,1.6,0.3c1,0,1.9-0.2,2.6-0.7s1.4-1,1.9-1.8s0.9-1.6,1.2-2.5s0.4-1.8,0.4-2.7
				c0-0.9-0.1-1.7-0.4-2.6c-0.3-0.8-0.7-1.6-1.2-2.2c-0.5-0.6-1.2-1.1-2-1.5S179.1,79.1,178.1,79.2z"/>
			<path class="st1" d="M218.8,93.6c-0.6,0.9-1.3,1.7-2.1,2.5s-1.7,1.4-2.7,2c-1,0.6-2,1-3.1,1.3c-1.1,0.3-2.2,0.5-3.3,0.5
				c-1.8,0-3.3-0.2-4.7-0.7s-2.6-1.2-3.7-2.1c-1-0.9-1.9-1.9-2.6-3.1c-0.7-1.2-1.2-2.4-1.5-3.8c-0.3-1.3-0.5-2.7-0.5-4.1
				s0.2-2.8,0.5-4.1c0.4-1.3,0.9-2.6,1.6-3.8c0.7-1.2,1.6-2.2,2.6-3.1c1-0.9,2.2-1.6,3.6-2.1c1.4-0.5,2.9-0.8,4.6-0.8
				c1.2,0,2.3,0.1,3.4,0.4s2.1,0.7,3,1.2c0.9,0.5,1.8,1.3,2.6,2.1s1.5,1.9,2.2,3.1l-6.2,3c-0.2-0.4-0.5-0.8-0.9-1.1
				s-0.9-0.7-1.4-0.9c-0.5-0.3-1.1-0.5-1.7-0.6c-0.6-0.2-1.2-0.2-1.9-0.1c-0.9,0.1-1.8,0.3-2.5,0.8c-0.7,0.4-1.3,1-1.8,1.7
				c-0.5,0.7-0.8,1.4-1.1,2.2c-0.2,0.8-0.3,1.7-0.3,2.5c0,0.8,0.1,1.7,0.4,2.5c0.3,0.8,0.6,1.5,1.1,2.1c0.5,0.6,1.1,1.1,1.9,1.5
				c0.8,0.4,1.6,0.6,2.6,0.6c0.5,0,1.1-0.1,1.7-0.2c0.6-0.1,1.2-0.4,1.7-0.6c0.6-0.3,1.1-0.6,1.6-1.1c0.5-0.4,0.9-0.9,1.2-1.5
				L218.8,93.6z"/>
			<path class="st1" d="M226.7,73.1c0-1,0-1.9,0-2.9c0-0.9,0-1.8,0-2.6c0-0.8,0-1.4,0-2c0-0.5,0-0.9,0-1.1h6.9l0,8.6h5.6v7.1h-5.5
				l0.1,20.2h-7.3c0-0.4,0-1,0-1.8c0-0.8,0-1.7,0-2.8s0-2.2,0-3.5c0-1.3,0-2.6,0-3.9s0-2.7,0-4.1c0-1.4,0-2.7,0-4h-5.5v-7.1H226.7z"
				/>
			<path class="st1" d="M269.6,100.4c-1.5,0-2.9-0.2-4.1-0.7c-1.2-0.5-2.2-1.1-3.1-2c-0.9-0.9-1.6-1.9-2.2-3.1s-1.1-2.6-1.5-4.2
				c-0.4-1.6-0.7-3.2-0.9-5.1c-0.2-1.8-0.4-3.8-0.5-5.9c-0.1-2.3-0.2-4.8-0.2-7.3c0-2.6,0-5.2,0-8h6.6c0,3,0,5.7,0,8.2
				c0,2.5,0,4.8,0.1,6.8c0.1,2.5,0.2,4.7,0.4,6.6c0.2,1.9,0.5,3.4,0.9,4.6c0.4,1.2,1,2.1,1.7,2.7s1.6,0.8,2.6,0.8
				c1,0,1.8-0.3,2.5-0.9c0.7-0.6,1.3-1.4,1.7-2.5c0.5-1.1,0.8-2.5,1.1-4.2s0.4-3.6,0.5-5.8c0.1-2.2,0.1-4.6,0.1-7.3
				s-0.1-5.7-0.2-8.9h6.7c0,2.9,0.1,5.6,0.1,8.3c0,2.7,0,5.3-0.2,7.8c-0.1,1.9-0.3,3.8-0.5,5.5s-0.5,3.4-0.9,4.9
				c-0.4,1.5-0.9,2.8-1.5,4s-1.4,2.2-2.2,3.1c-0.9,0.8-1.9,1.5-3.1,1.9S271.1,100.4,269.6,100.4z"/>
			<path class="st1" d="M305.6,93.5c0,1.3-0.2,2.4-0.7,3.3c-0.5,0.9-1.1,1.7-1.9,2.3c-0.8,0.6-1.7,1.1-2.7,1.4s-2.1,0.5-3.3,0.5
				c-1.1,0-2.3-0.1-3.5-0.3c-1.2-0.2-2.3-0.6-3.4-1c-1.1-0.4-2.1-1-3-1.6s-1.7-1.4-2.3-2.2l3.9-4.9c0.5,0.5,1,0.9,1.6,1.3
				c0.6,0.4,1.2,0.8,1.9,1c0.6,0.3,1.3,0.5,1.9,0.7c0.6,0.2,1.2,0.2,1.7,0.2c0.5,0,1-0.2,1.3-0.4s0.6-0.6,0.8-1.1
				c0.1-0.4,0-0.9-0.5-1.3c-0.4-0.4-1-0.9-1.8-1.4s-1.6-1-2.6-1.6s-1.9-1.2-2.8-1.8c-0.9-0.6-1.8-1.3-2.6-2.1s-1.5-1.5-1.9-2.4
				c-0.5-0.8-0.7-1.7-0.7-2.6c0-0.9,0.1-1.7,0.4-2.5c0.3-0.8,0.8-1.6,1.4-2.3c0.6-0.7,1.3-1.3,2.1-1.8c0.8-0.5,1.7-0.9,2.7-1.1
				c1-0.2,2-0.3,3-0.2c1,0.1,2,0.3,3.1,0.6c1.1,0.3,2.1,0.7,3.1,1.2c1,0.5,1.9,1,2.7,1.6c0.8,0.6,1.4,1.2,1.9,1.8l-4,4.8
				c-0.7-0.7-1.4-1.3-2.3-1.8c-0.8-0.5-1.6-0.9-2.4-1.1c-0.8-0.2-1.5-0.3-2.1-0.2s-1.1,0.3-1.3,0.8c-0.1,0.3-0.2,0.5-0.1,0.8
				c0.1,0.3,0.2,0.5,0.5,0.7c0.2,0.2,0.5,0.5,0.8,0.7c0.3,0.2,0.7,0.4,1,0.6c0.3,0.2,0.7,0.4,1,0.5c0.3,0.2,0.6,0.3,0.8,0.4
				c1.1,0.5,2.2,1,3.2,1.7c1,0.7,1.9,1.5,2.7,2.4s1.4,1.9,1.8,3C305.4,91,305.6,92.2,305.6,93.5z"/>
		</g>
	</g>
</g>
</svg>
