<?xml version="1.0" encoding="utf-8"?>
<!-- Generator: Adobe Illustrator 22.0.1, SVG Export Plug-In . SVG Version: 6.00 Build 0)  -->
<svg version="1.1" xmlns="http://www.w3.org/2000/svg" xmlns:xlink="http://www.w3.org/1999/xlink" x="0px" y="0px"
	 viewBox="0 0 129 104" style="enable-background:new 0 0 129 104;" xml:space="preserve">
<style type="text/css">
	.st0{fill:none;stroke:#FFFFFF;stroke-width:1.854;stroke-miterlimit:10;}
	.st1{fill:none;stroke:#FFFFFF;stroke-width:1.854;}
	.st2{fill:#FFFFFF;}
	.st3{fill:none;stroke:#FFFFFF;stroke-width:2;stroke-linecap:round;stroke-linejoin:round;stroke-miterlimit:10;}
	.st4{fill:none;stroke:#FFFFFF;stroke-width:2;stroke-miterlimit:10;}
	.st5{fill:none;stroke:#FFFFFF;stroke-width:1.9255;stroke-miterlimit:10;}
	.st6{fill:none;stroke:#FFFFFF;stroke-linecap:round;stroke-linejoin:round;stroke-miterlimit:10;}
	.st7{fill:none;stroke:#FFFFFF;stroke-width:1.4107;stroke-miterlimit:10;}
	.st8{fill:none;stroke:#FFFFFF;stroke-width:2.2747;stroke-linecap:round;stroke-linejoin:round;stroke-miterlimit:10;}
	.st9{fill:none;stroke:#FFFFFF;stroke-width:2.03;stroke-linecap:round;stroke-linejoin:round;stroke-miterlimit:10;}
	.st10{fill:none;}
	.st11{fill:#FFFFFF;stroke:#FFFFFF;stroke-linecap:round;stroke-linejoin:round;stroke-miterlimit:10;}
</style>
<g id="Layer_2">
</g>
<g id="Layer_1">
	<g>
		<circle class="st4" cx="68.1" cy="35.8" r="14.8"/>
		<path class="st3" d="M87.8,64.5c-2-5.7-5.6-10-9.7-11.3c-2.7,2.2-6.2,3.5-10,3.5c-3.8,0-7.3-1.3-10-3.6c-1.2,0.4-2.4,1.1-3.5,2
			c-5,4.1-8.1,12.1-8.1,20.9v4c0,0.6,0.4,1,1,1h27.7"/>
		<g id="iOS-App">
			<g id="Parents-Dashboard-Copy" transform="translate(-334.000000, -70.000000)">
				<g id="settings" transform="translate(334.000000, 70.000000)">
					<path id="Shape_1_" class="st2" d="M94,75.2c-0.1-0.1-1.1-0.8-1.5-1.1l-0.4-1.3c0.2-0.4,0.6-1.5,0.7-1.7c0.1-0.2,0-0.4-0.1-0.5
						L92,69.8c-0.1-0.1-0.3-0.2-0.5-0.2c-0.2,0-1.3,0.2-1.8,0.3l-1.2-0.6c-0.1-0.4-0.6-1.5-0.7-1.7c-0.1-0.2-0.2-0.3-0.4-0.3
						l-1.1-0.1c-0.2,0-0.4,0.1-0.5,0.2c-0.1,0.1-0.8,1.1-1.1,1.5l-1.3,0.4c-0.4-0.2-1.5-0.6-1.7-0.7c-0.2-0.1-0.4,0-0.5,0.1
						l-0.9,0.7c-0.1,0.1-0.2,0.3-0.2,0.5c0,0.2,0.2,1.3,0.3,1.8l-0.6,1.2c-0.4,0.1-1.5,0.6-1.7,0.7c-0.2,0.1-0.3,0.2-0.3,0.4
						L77.7,75c0,0.2,0.1,0.4,0.2,0.5c0.1,0.1,1.1,0.8,1.5,1.1l0.4,1.3c-0.2,0.4-0.6,1.5-0.7,1.7c-0.1,0.2,0,0.4,0.1,0.5l0.7,0.9
						c0.1,0.1,0.3,0.2,0.5,0.2c0.2,0,1.3-0.2,1.8-0.3l1.2,0.6c0.1,0.4,0.6,1.5,0.7,1.7c0.1,0.2,0.2,0.3,0.4,0.3l1.1,0.1
						c0.2,0,0.4-0.1,0.5-0.2c0.1-0.1,0.8-1.1,1.1-1.5l1.3-0.4c0.4,0.2,1.5,0.6,1.7,0.7c0.2,0.1,0.4,0,0.5-0.1l0.9-0.7
						c0.1-0.1,0.2-0.3,0.2-0.5c0-0.2-0.2-1.3-0.3-1.8l0.6-1.2c0.4-0.1,1.5-0.6,1.7-0.7c0.2-0.1,0.3-0.2,0.3-0.4l0.1-1.1
						C94.2,75.5,94.1,75.3,94,75.2z M85.5,78.9c-2-0.2-3.4-2-3.2-4s2-3.4,4-3.1c2,0.2,3.4,2,3.2,4C89.3,77.7,87.5,79.1,85.5,78.9z"
						/>
				</g>
			</g>
		</g>
	</g>
</g>
<g id="Layer_3">
</g>
</svg>
