<?xml version="1.0" encoding="utf-8"?>
<!-- Generator: Adobe Illustrator 22.0.1, SVG Export Plug-In . SVG Version: 6.00 Build 0)  -->
<svg version="1.1" xmlns="http://www.w3.org/2000/svg" xmlns:xlink="http://www.w3.org/1999/xlink" x="0px" y="0px"
	 viewBox="0 0 129 104" style="enable-background:new 0 0 129 104;" xml:space="preserve">
<style type="text/css">
	.st0{fill:none;stroke:#FFFFFF;stroke-width:1.854;stroke-miterlimit:10;}
	.st1{fill:none;stroke:#FFFFFF;stroke-width:1.854;}
	.st2{fill:#FFFFFF;}
	.st3{fill:none;stroke:#FFFFFF;stroke-width:2;stroke-linecap:round;stroke-linejoin:round;stroke-miterlimit:10;}
	.st4{fill:none;stroke:#FFFFFF;stroke-width:2;stroke-miterlimit:10;}
	.st5{fill:none;stroke:#FFFFFF;stroke-width:1.9255;stroke-miterlimit:10;}
	.st6{fill:none;stroke:#FFFFFF;stroke-linecap:round;stroke-linejoin:round;stroke-miterlimit:10;}
	.st7{fill:none;stroke:#FFFFFF;stroke-width:1.4107;stroke-miterlimit:10;}
	.st8{fill:none;stroke:#FFFFFF;stroke-width:2.2747;stroke-linecap:round;stroke-linejoin:round;stroke-miterlimit:10;}
	.st9{fill:none;stroke:#FFFFFF;stroke-width:2.03;stroke-linecap:round;stroke-linejoin:round;stroke-miterlimit:10;}
	.st10{fill:none;}
	.st11{fill:#FFFFFF;stroke:#FFFFFF;stroke-linecap:round;stroke-linejoin:round;stroke-miterlimit:10;}
</style>
<g id="Layer_2">
</g>
<g id="Layer_1">
	<g>
		<path class="st3" d="M37.7,79V56.6c0-3.2,2.7-5.8,6.1-5.8h5.3c0,0,0,0,0.1,0c3,0,5.4,2.5,5.4,5.4v0.1"/>
		<path class="st3" d="M57.4,83.6v-6.5c0-1.6,0.9-3,2.4-3.7c0.4-0.2,0.9-0.3,1.4-0.4l0.1,0c0.1,0,0.3,0,0.4,0H66c0.1,0,0.3,0,0.4,0
			l0.2,0c2.1,0.3,3.7,2,3.7,4.1v6.5"/>
		<path class="st3" d="M69.5,51c0-4,3.4-7.2,7.6-7.2h6.3c4.2,0,7.6,3.2,7.6,7.2v28"/>
		<ellipse class="st4" cx="46.7" cy="39.5" rx="8.2" ry="7.8"/>
		<ellipse class="st4" cx="80" cy="29.1" rx="10.3" ry="9.7"/>
		<ellipse class="st4" cx="63.5" cy="63.5" rx="6.2" ry="5.8"/>
	</g>
</g>
<g id="Layer_3">
</g>
</svg>
