<?xml version="1.0" encoding="UTF-8"?>
<svg width="152px" height="152px" viewBox="0 0 152 152" version="1.1" xmlns="http://www.w3.org/2000/svg" xmlns:xlink="http://www.w3.org/1999/xlink">
    <!-- Generator: Sketch 49.3 (51167) - http://www.bohemiancoding.com/sketch -->
    <title>school</title>
    <desc>Created with Sketch.</desc>
    <defs>
        <linearGradient x1="86.2419255%" y1="11.6951572%" x2="39.5421261%" y2="100%" id="linearGradient-1">
            <stop stop-color="#622E9F" offset="0%"></stop>
            <stop stop-color="#290E54" offset="100%"></stop>
        </linearGradient>
        <rect id="path-2" x="0" y="0" width="140" height="140" rx="10"></rect>
        <filter x="-5.4%" y="-5.4%" width="115.0%" height="115.0%" filterUnits="objectBoundingBox" id="filter-3">
            <feOffset dx="3" dy="3" in="SourceAlpha" result="shadowOffsetOuter1"></feOffset>
            <feGaussianBlur stdDeviation="3" in="shadowOffsetOuter1" result="shadowBlurOuter1"></feGaussianBlur>
            <feColorMatrix values="0 0 0 0 0.160784314   0 0 0 0 0.0549019608   0 0 0 0 0.329411765  0 0 0 0.25 0" type="matrix" in="shadowBlurOuter1"></feColorMatrix>
        </filter>
    </defs>
    <g id="iOS-App" stroke="none" stroke-width="1" fill="none" fill-rule="evenodd">
        <g id="Parents-Dashboard-Copy" transform="translate(-185.000000, -478.000000)">
            <g id="school" transform="translate(188.000000, 481.000000)">
                <g id="Rectangle-4-Copy-6">
                    <use fill="black" fill-opacity="1" filter="url(#filter-3)" xlink:href="#path-2"></use>
                    <use fill="url(#linearGradient-1)" fill-rule="evenodd" xlink:href="#path-2"></use>
                </g>
                <path d="M11.696,114.768 C10.9653297,114.527999 10.3813355,114.205335 9.944,113.8 C9.7839992,113.650666 9.704,113.464001 9.704,113.24 C9.704,113.090666 9.74666624,112.960001 9.832,112.848 C9.91733376,112.735999 10.0186661,112.68 10.136,112.68 C10.2746674,112.68 10.4239992,112.738666 10.584,112.856 C11.576005,113.624004 12.7066603,114.008 13.976,114.008 C14.8933379,114.008 15.5973309,113.832002 16.088,113.48 C16.5786691,113.127998 16.824,112.62667 16.824,111.976 C16.824,111.602665 16.7066678,111.301334 16.472,111.072 C16.2373322,110.842666 15.9280019,110.658667 15.544,110.52 C15.1599981,110.381333 14.6426699,110.237334 13.992,110.088 C13.117329,109.885332 12.4000028,109.672001 11.84,109.448 C11.2799972,109.223999 10.8266684,108.904002 10.48,108.488 C10.1333316,108.071998 9.96,107.528003 9.96,106.856 C9.96,106.215997 10.1333316,105.648002 10.48,105.152 C10.8266684,104.655998 11.3119969,104.272001 11.936,104 C12.5600031,103.727999 13.271996,103.592 14.072,103.592 C14.8186704,103.592 15.5146634,103.706666 16.16,103.936 C16.8053366,104.165334 17.3466645,104.493331 17.784,104.92 C17.9546675,105.090668 18.04,105.277332 18.04,105.48 C18.04,105.629334 17.9973338,105.759999 17.912,105.872 C17.8266662,105.984001 17.7253339,106.04 17.608,106.04 C17.4906661,106.04 17.336001,105.981334 17.144,105.864 C16.6213307,105.437331 16.1360022,105.138668 15.688,104.968 C15.2399978,104.797332 14.7013365,104.712 14.072,104.712 C13.1866622,104.712 12.4986691,104.895998 12.008,105.264 C11.5173309,105.632002 11.272,106.146663 11.272,106.808 C11.272,107.373336 11.4879978,107.797332 11.92,108.08 C12.3520022,108.362668 13.0159955,108.610666 13.912,108.824 C14.8826715,109.058668 15.6453306,109.274666 16.2,109.472 C16.7546694,109.669334 17.2159982,109.965331 17.584,110.36 C17.9520018,110.754669 18.136,111.282663 18.136,111.944 C18.136,112.573336 17.9626684,113.127998 17.616,113.608 C17.2693316,114.088002 16.7813365,114.461332 16.152,114.728 C15.5226635,114.994668 14.8026707,115.128 13.992,115.128 C13.191996,115.128 12.4266703,115.008001 11.696,114.768 Z M21.36,114.616 C20.7999972,114.285332 20.3680015,113.816003 20.064,113.208 C19.7599985,112.599997 19.608,111.896004 19.608,111.096 C19.608,110.295996 19.7653318,109.58667 20.08,108.968 C20.3946682,108.34933 20.8346638,107.869335 21.4,107.528 C21.9653362,107.186665 22.6159963,107.016 23.352,107.016 C23.7573354,107.016 24.159998,107.071999 24.56,107.184 C24.960002,107.296001 25.3093318,107.458666 25.608,107.672 C25.800001,107.800001 25.9359996,107.925333 26.016,108.048 C26.0960004,108.170667 26.136,108.306666 26.136,108.456 C26.136,108.605334 26.0960004,108.728 26.016,108.824 C25.9359996,108.92 25.8320006,108.968 25.704,108.968 C25.629333,108.968 25.5493338,108.946667 25.464,108.904 C25.3786662,108.861333 25.306667,108.818667 25.248,108.776 C25.189333,108.733333 25.1493334,108.706667 25.128,108.696 C24.8506653,108.514666 24.5866679,108.370667 24.336,108.264 C24.0853321,108.157333 23.7786685,108.104 23.416,108.104 C22.6373294,108.104 22.0320022,108.367997 21.6,108.896 C21.1679978,109.424003 20.952,110.157329 20.952,111.096 C20.952,112.034671 21.1679978,112.759997 21.6,113.272 C22.0320022,113.784003 22.6373294,114.04 23.416,114.04 C23.7786685,114.04 24.0906654,113.986667 24.352,113.88 C24.6133346,113.773333 24.877332,113.629334 25.144,113.448 C25.2613339,113.373333 25.3733328,113.309334 25.48,113.256 C25.5866672,113.202666 25.677333,113.176 25.752,113.176 C25.8693339,113.176 25.9679996,113.224 26.048,113.32 C26.1280004,113.416 26.168,113.538666 26.168,113.688 C26.168,113.826667 26.130667,113.951999 26.056,114.064 C25.981333,114.176001 25.8426677,114.301333 25.64,114.44 C25.3413318,114.642668 24.9813354,114.805333 24.56,114.928 C24.1386646,115.050667 23.7146688,115.112 23.288,115.112 C22.562663,115.112 21.9200028,114.946668 21.36,114.616 Z M33.752,107.792 C34.2213357,108.309336 34.456,109.079995 34.456,110.104 L34.456,114.44 C34.456,114.642668 34.3973339,114.799999 34.28,114.912 C34.1626661,115.024001 34.008001,115.08 33.816,115.08 C33.6133323,115.08 33.4533339,115.024001 33.336,114.912 C33.2186661,114.799999 33.16,114.642668 33.16,114.44 L33.16,110.136 C33.16,109.442663 33.0186681,108.930668 32.736,108.6 C32.4533319,108.269332 32.0026698,108.104 31.384,108.104 C30.6693298,108.104 30.0986688,108.322664 29.672,108.76 C29.2453312,109.197336 29.032,109.78933 29.032,110.536 L29.032,114.44 C29.032,114.642668 28.9760006,114.799999 28.864,114.912 C28.7519994,115.024001 28.5946677,115.08 28.392,115.08 C28.1893323,115.08 28.0293339,115.024001 27.912,114.912 C27.7946661,114.799999 27.736,114.642668 27.736,114.44 L27.736,104.264 C27.736,104.082666 27.7973327,103.933334 27.92,103.816 C28.0426673,103.698666 28.199999,103.64 28.392,103.64 C28.5946677,103.64 28.7519994,103.695999 28.864,103.808 C28.9760006,103.920001 29.032,104.071999 29.032,104.264 L29.032,108.456 C29.2880013,107.986664 29.645331,107.629335 30.104,107.384 C30.562669,107.138665 31.0853304,107.016 31.672,107.016 C32.5893379,107.016 33.2826643,107.274664 33.752,107.792 Z M38.112,114.616 C37.5519972,114.285332 37.1200015,113.813336 36.816,113.2 C36.5119985,112.586664 36.36,111.874671 36.36,111.064 C36.36,110.253329 36.5119985,109.541336 36.816,108.928 C37.1200015,108.314664 37.5519972,107.842668 38.112,107.512 C38.6720028,107.181332 39.3199963,107.016 40.056,107.016 C40.7920037,107.016 41.4426638,107.181332 42.008,107.512 C42.5733362,107.842668 43.0079985,108.314664 43.312,108.928 C43.6160015,109.541336 43.768,110.253329 43.768,111.064 C43.768,111.874671 43.6160015,112.586664 43.312,113.2 C43.0079985,113.813336 42.5733362,114.285332 42.008,114.616 C41.4426638,114.946668 40.7920037,115.112 40.056,115.112 C39.3199963,115.112 38.6720028,114.946668 38.112,114.616 Z M41.824,113.28 C42.2346687,112.773331 42.44,112.034672 42.44,111.064 C42.44,110.114662 42.2320021,109.381336 41.816,108.864 C41.3999979,108.346664 40.8133371,108.088 40.056,108.088 C39.2986629,108.088 38.7120021,108.346664 38.296,108.864 C37.8799979,109.381336 37.672,110.114662 37.672,111.064 C37.672,112.024005 37.8773313,112.759997 38.288,113.272 C38.6986687,113.784003 39.2879962,114.04 40.056,114.04 C40.8240038,114.04 41.4133313,113.786669 41.824,113.28 Z M46.992,114.616 C46.4319972,114.285332 46.0000015,113.813336 45.696,113.2 C45.3919985,112.586664 45.24,111.874671 45.24,111.064 C45.24,110.253329 45.3919985,109.541336 45.696,108.928 C46.0000015,108.314664 46.4319972,107.842668 46.992,107.512 C47.5520028,107.181332 48.1999963,107.016 48.936,107.016 C49.6720037,107.016 50.3226638,107.181332 50.888,107.512 C51.4533362,107.842668 51.8879985,108.314664 52.192,108.928 C52.4960015,109.541336 52.648,110.253329 52.648,111.064 C52.648,111.874671 52.4960015,112.586664 52.192,113.2 C51.8879985,113.813336 51.4533362,114.285332 50.888,114.616 C50.3226638,114.946668 49.6720037,115.112 48.936,115.112 C48.1999963,115.112 47.5520028,114.946668 46.992,114.616 Z M50.704,113.28 C51.1146687,112.773331 51.32,112.034672 51.32,111.064 C51.32,110.114662 51.1120021,109.381336 50.696,108.864 C50.2799979,108.346664 49.6933371,108.088 48.936,108.088 C48.1786629,108.088 47.5920021,108.346664 47.176,108.864 C46.7599979,109.381336 46.552,110.114662 46.552,111.064 C46.552,112.024005 46.7573313,112.759997 47.168,113.272 C47.5786687,113.784003 48.1679962,114.04 48.936,114.04 C49.7040038,114.04 50.2933313,113.786669 50.704,113.28 Z M54.768,114.912 C54.6453327,114.799999 54.584,114.642668 54.584,114.44 L54.584,104.28 C54.584,104.077332 54.6453327,103.920001 54.768,103.808 C54.8906673,103.695999 55.047999,103.64 55.24,103.64 C55.4213342,103.64 55.5733327,103.695999 55.696,103.808 C55.8186673,103.920001 55.88,104.077332 55.88,104.28 L55.88,114.44 C55.88,114.642668 55.8186673,114.799999 55.696,114.912 C55.5733327,115.024001 55.4213342,115.08 55.24,115.08 C55.047999,115.08 54.8906673,115.024001 54.768,114.912 Z" id="School" fill="#FFFFFF"></path>
                <path d="M15.432,127.28 C15.5120004,127.352 15.552,127.451999 15.552,127.58 C15.552,127.860001 15.4000015,128 15.096,128 L10.392,128 C10.2559993,128 10.1440004,127.958 10.056,127.874 C9.96799956,127.79 9.924,127.688001 9.924,127.568 C9.924,127.415999 9.97999944,127.284001 10.092,127.172 L12.984,123.992 C13.384002,123.543998 13.6739991,123.142002 13.854,122.786 C14.0340009,122.429998 14.124,122.072002 14.124,121.712 C14.124,121.247998 13.9900013,120.892001 13.722,120.644 C13.4539987,120.395999 13.0760024,120.272 12.588,120.272 C12.2039981,120.272 11.8360018,120.341999 11.484,120.482 C11.1319982,120.622001 10.7800018,120.835999 10.428,121.124 C10.3079994,121.22 10.1960005,121.268 10.092,121.268 C10.0039996,121.268 9.92800032,121.226 9.864,121.142 C9.79999968,121.058 9.768,120.956001 9.768,120.836 C9.768,120.667999 9.83199936,120.532001 9.96,120.428 C10.2880016,120.123998 10.6879976,119.884001 11.16,119.708 C11.6320024,119.531999 12.1159975,119.444 12.612,119.444 C13.3720038,119.444 13.9779977,119.643998 14.43,120.044 C14.8820023,120.444002 15.108,120.983997 15.108,121.664 C15.108,122.152002 14.9980011,122.619998 14.778,123.068 C14.5579989,123.516002 14.1960025,124.015997 13.692,124.568 L11.292,127.172 L15.096,127.172 C15.2400007,127.172 15.3519996,127.208 15.432,127.28 Z M17.592,126.992 C17.0879975,126.255996 16.836,125.184007 16.836,123.776 C16.836,122.359993 17.0879975,121.284004 17.592,120.548 C18.0960025,119.811996 18.8319952,119.444 19.8,119.444 C20.7680048,119.444 21.5039975,119.809996 22.008,120.542 C22.5120025,121.274004 22.764,122.347993 22.764,123.764 C22.764,125.180007 22.5120025,126.255996 22.008,126.992 C21.5039975,127.728004 20.7680048,128.096 19.8,128.096 C18.8319952,128.096 18.0960025,127.728004 17.592,126.992 Z M21.288,126.416 C21.6080016,125.847997 21.768,124.964006 21.768,123.764 C21.768,122.555994 21.6100016,121.672003 21.294,121.112 C20.9779984,120.551997 20.4800034,120.272 19.8,120.272 C19.1279966,120.272 18.6320016,120.553997 18.312,121.118 C17.9919984,121.682003 17.832,122.563994 17.832,123.764 C17.832,124.964006 17.9919984,125.847997 18.312,126.416 C18.6320016,126.984003 19.1279966,127.268 19.8,127.268 C20.4720034,127.268 20.9679984,126.984003 21.288,126.416 Z M28.314,127.952 C27.9819983,127.864 27.6880013,127.740001 27.432,127.58 C27.2879993,127.484 27.1860003,127.394 27.126,127.31 C27.0659997,127.226 27.036,127.124001 27.036,127.004 C27.036,126.899999 27.0659997,126.814 27.126,126.746 C27.1860003,126.678 27.2639995,126.644 27.36,126.644 C27.4560005,126.644 27.5959991,126.703999 27.78,126.824 C28.0200012,126.968001 28.2579988,127.082 28.494,127.166 C28.7300012,127.25 29.0239982,127.292 29.376,127.292 C29.8080022,127.292 30.1439988,127.216001 30.384,127.064 C30.6240012,126.911999 30.744,126.692001 30.744,126.404 C30.744,126.227999 30.7000004,126.086001 30.612,125.978 C30.5239996,125.869999 30.3720011,125.774 30.156,125.69 C29.9399989,125.606 29.6240021,125.52 29.208,125.432 C28.5039965,125.279999 28.0000015,125.076001 27.696,124.82 C27.3919985,124.563999 27.24,124.216002 27.24,123.776 C27.24,123.431998 27.335999,123.128001 27.528,122.864 C27.720001,122.599999 27.9859983,122.392001 28.326,122.24 C28.6660017,122.087999 29.0519978,122.012 29.484,122.012 C29.7960016,122.012 30.0979985,122.054 30.39,122.138 C30.6820015,122.222 30.9399989,122.339999 31.164,122.492 C31.4360014,122.684001 31.572,122.883999 31.572,123.092 C31.572,123.196001 31.5400003,123.284 31.476,123.356 C31.4119997,123.428 31.3360004,123.464 31.248,123.464 C31.1519995,123.464 31.008001,123.396001 30.816,123.26 C30.5919989,123.115999 30.380001,123.004 30.18,122.924 C29.979999,122.844 29.7320015,122.804 29.436,122.804 C29.0599981,122.804 28.7580011,122.887999 28.53,123.056 C28.3019989,123.224001 28.188,123.447999 28.188,123.728 C28.188,123.904001 28.2299996,124.045999 28.314,124.154 C28.3980004,124.262001 28.537999,124.358 28.734,124.442 C28.930001,124.526 29.2119982,124.608 29.58,124.688 C30.1240027,124.808001 30.5459985,124.939999 30.846,125.084 C31.1460015,125.228001 31.3599994,125.403999 31.488,125.612 C31.6160006,125.820001 31.68,126.083998 31.68,126.404 C31.68,126.908003 31.4680021,127.313998 31.044,127.622 C30.6199979,127.930002 30.0600035,128.084 29.364,128.084 C28.9959982,128.084 28.6460017,128.04 28.314,127.952 Z M33.294,127.934 C33.2019995,127.85 33.156,127.732001 33.156,127.58 L33.156,122.516 C33.156,122.363999 33.2019995,122.246 33.294,122.162 C33.3860005,122.078 33.5039993,122.036 33.648,122.036 C33.7920007,122.036 33.9079996,122.078 33.996,122.162 C34.0840004,122.246 34.128,122.363999 34.128,122.516 L34.128,127.58 C34.128,127.740001 34.0840004,127.86 33.996,127.94 C33.9079996,128.02 33.7920007,128.06 33.648,128.06 C33.5039993,128.06 33.3860005,128.018 33.294,127.934 Z M33.18,120.608 C33.0599994,120.495999 33,120.348001 33,120.164 C33,119.987999 33.0599994,119.844001 33.18,119.732 C33.3000006,119.619999 33.455999,119.564 33.648,119.564 C33.840001,119.564 33.9959994,119.619999 34.116,119.732 C34.2360006,119.844001 34.296,119.987999 34.296,120.164 C34.296,120.348001 34.2360006,120.495999 34.116,120.608 C33.9959994,120.720001 33.840001,120.776 33.648,120.776 C33.455999,120.776 33.3000006,120.720001 33.18,120.608 Z M41.04,122.168 C41.1280004,122.256 41.172,122.371999 41.172,122.516 L41.172,127.604 C41.172,128.476004 40.9480022,129.133998 40.5,129.578 C40.0519978,130.022002 39.3880044,130.244 38.508,130.244 C37.6519957,130.244 36.9400028,130.076002 36.372,129.74 C36.0839986,129.579999 35.94,129.396001 35.94,129.188 C35.94,129.075999 35.9699997,128.984 36.03,128.912 C36.0900003,128.84 36.1679995,128.804 36.264,128.804 C36.3440004,128.804 36.487999,128.859999 36.696,128.972 C36.9760014,129.116001 37.2519986,129.232 37.524,129.32 C37.7960014,129.408 38.1199981,129.452 38.496,129.452 C39.0640028,129.452 39.4919986,129.302001 39.78,129.002 C40.0680014,128.701999 40.212,128.264003 40.212,127.688 L40.212,126.656 C40.0439992,127.032002 39.7860017,127.319999 39.438,127.52 C39.0899983,127.720001 38.6800024,127.82 38.208,127.82 C37.6959974,127.82 37.242002,127.700001 36.846,127.46 C36.449998,127.219999 36.1420011,126.880002 35.922,126.44 C35.7019989,125.999998 35.592,125.492003 35.592,124.916 C35.592,124.339997 35.7019989,123.832002 35.922,123.392 C36.1420011,122.951998 36.449998,122.612001 36.846,122.372 C37.242002,122.131999 37.6959974,122.012 38.208,122.012 C38.6720023,122.012 39.0759983,122.111999 39.42,122.312 C39.7640017,122.512001 40.0239991,122.795998 40.2,123.164 L40.2,122.516 C40.2,122.371999 40.2419996,122.256 40.326,122.168 C40.4100004,122.08 40.5279992,122.036 40.68,122.036 C40.8320008,122.036 40.9519996,122.08 41.04,122.168 Z M39.72,126.458 C40.0400016,126.085998 40.2,125.572003 40.2,124.916 C40.2,124.267997 40.0420016,123.758002 39.726,123.386 C39.4099984,123.013998 38.9680028,122.828 38.4,122.828 C37.8319972,122.828 37.3860016,123.013998 37.062,123.386 C36.7379984,123.758002 36.576,124.267997 36.576,124.916 C36.576,125.572003 36.7379984,126.085998 37.062,126.458 C37.3860016,126.830002 37.8319972,127.016 38.4,127.016 C38.9600028,127.016 39.3999984,126.830002 39.72,126.458 Z M48.012,124.328 L48.012,127.58 C48.012,127.732001 47.9700004,127.85 47.886,127.934 C47.8019996,128.018 47.6840008,128.06 47.532,128.06 C47.3799992,128.06 47.2600004,128.018 47.172,127.934 C47.0839996,127.85 47.04,127.732001 47.04,127.58 L47.04,124.388 C47.04,123.843997 46.9340011,123.448001 46.722,123.2 C46.5099989,122.951999 46.1720023,122.828 45.708,122.828 C45.1719973,122.828 44.7440016,122.991998 44.424,123.32 C44.1039984,123.648002 43.944,124.091997 43.944,124.652 L43.944,127.58 C43.944,127.732001 43.9020004,127.85 43.818,127.934 C43.7339996,128.018 43.6160008,128.06 43.464,128.06 C43.3119992,128.06 43.1920004,128.018 43.104,127.934 C43.0159996,127.85 42.972,127.732001 42.972,127.58 L42.972,122.516 C42.972,122.371999 43.0159996,122.256 43.104,122.168 C43.1920004,122.08 43.3119992,122.036 43.464,122.036 C43.6080007,122.036 43.7219996,122.08 43.806,122.168 C43.8900004,122.256 43.932,122.367999 43.932,122.504 L43.932,123.116 C44.124001,122.755998 44.3919983,122.482001 44.736,122.294 C45.0800017,122.105999 45.4719978,122.012 45.912,122.012 C47.312007,122.012 48.012,122.783992 48.012,124.328 Z M50.706,127.952 C50.3739983,127.864 50.0800013,127.740001 49.824,127.58 C49.6799993,127.484 49.5780003,127.394 49.518,127.31 C49.4579997,127.226 49.428,127.124001 49.428,127.004 C49.428,126.899999 49.4579997,126.814 49.518,126.746 C49.5780003,126.678 49.6559995,126.644 49.752,126.644 C49.8480005,126.644 49.9879991,126.703999 50.172,126.824 C50.4120012,126.968001 50.6499988,127.082 50.886,127.166 C51.1220012,127.25 51.4159982,127.292 51.768,127.292 C52.2000022,127.292 52.5359988,127.216001 52.776,127.064 C53.0160012,126.911999 53.136,126.692001 53.136,126.404 C53.136,126.227999 53.0920004,126.086001 53.004,125.978 C52.9159996,125.869999 52.7640011,125.774 52.548,125.69 C52.3319989,125.606 52.0160021,125.52 51.6,125.432 C50.8959965,125.279999 50.3920015,125.076001 50.088,124.82 C49.7839985,124.563999 49.632,124.216002 49.632,123.776 C49.632,123.431998 49.727999,123.128001 49.92,122.864 C50.112001,122.599999 50.3779983,122.392001 50.718,122.24 C51.0580017,122.087999 51.4439978,122.012 51.876,122.012 C52.1880016,122.012 52.4899985,122.054 52.782,122.138 C53.0740015,122.222 53.3319989,122.339999 53.556,122.492 C53.8280014,122.684001 53.964,122.883999 53.964,123.092 C53.964,123.196001 53.9320003,123.284 53.868,123.356 C53.8039997,123.428 53.7280004,123.464 53.64,123.464 C53.5439995,123.464 53.400001,123.396001 53.208,123.26 C52.9839989,123.115999 52.772001,123.004 52.572,122.924 C52.371999,122.844 52.1240015,122.804 51.828,122.804 C51.4519981,122.804 51.1500011,122.887999 50.922,123.056 C50.6939989,123.224001 50.58,123.447999 50.58,123.728 C50.58,123.904001 50.6219996,124.045999 50.706,124.154 C50.7900004,124.262001 50.929999,124.358 51.126,124.442 C51.322001,124.526 51.6039982,124.608 51.972,124.688 C52.5160027,124.808001 52.9379985,124.939999 53.238,125.084 C53.5380015,125.228001 53.7519994,125.403999 53.88,125.612 C54.0080006,125.820001 54.072,126.083998 54.072,126.404 C54.072,126.908003 53.8600021,127.313998 53.436,127.622 C53.0119979,127.930002 52.4520035,128.084 51.756,128.084 C51.3879982,128.084 51.0380017,128.04 50.706,127.952 Z" id="20-signs" fill="#FFFFFF"></path>
                <g id="buy-button-copy" transform="translate(91.000000, 108.000000)">
                    <rect id="Rectangle-5" fill="#FFFFFF" x="0" y="0" width="44" height="16" rx="8"></rect>
                    <path d="M15.04,4.179 C15.1866674,4.179 15.3186661,4.22849951 15.436,4.3275 C15.5533339,4.4265005 15.612,4.54566597 15.612,4.685 C15.612,4.73633359 15.5936668,4.80599956 15.557,4.894 L12.455,11.692 C12.4036664,11.8093339 12.3230005,11.9009997 12.213,11.967 C12.1029995,12.0330003 11.9856673,12.066 11.861,12.066 C11.7363327,12.066 11.6171672,12.0330003 11.5035,11.967 C11.3898328,11.9009997 11.3073336,11.8093339 11.256,11.692 L8.165,4.894 C8.12833315,4.80599956 8.11,4.73633359 8.11,4.685 C8.11,4.5383326 8.1704994,4.41733381 8.2915,4.322 C8.4125006,4.22666619 8.5463326,4.179 8.693,4.179 C8.92033447,4.179 9.08166619,4.28166564 9.177,4.487 L11.872,10.526 L14.567,4.487 C14.6623338,4.28166564 14.8199989,4.179 15.04,4.179 Z M16.767,11.901 C16.6643328,11.7983328 16.613,11.6590009 16.613,11.483 L16.613,4.762 C16.613,4.59333249 16.6643328,4.45583387 16.767,4.3495 C16.8696672,4.24316614 17.0053325,4.19 17.174,4.19 C17.3500009,4.19 17.4893328,4.24133282 17.592,4.344 C17.6946672,4.44666718 17.746,4.58599912 17.746,4.762 L17.746,11.483 C17.746,11.6590009 17.6965005,11.7983328 17.5975,11.901 C17.4984995,12.0036672 17.3573343,12.055 17.174,12.055 C17.0053325,12.055 16.8696672,12.0036672 16.767,11.901 Z M19.6985,11.8515 C19.5994995,11.7524995 19.55,11.6186675 19.55,11.45 L19.55,4.795 C19.55,4.62633249 19.5994995,4.4925005 19.6985,4.3935 C19.7975005,4.29449951 19.9349991,4.245 20.111,4.245 L24.159,4.245 C24.3276675,4.245 24.4578329,4.28533293 24.5495,4.366 C24.6411671,4.44666707 24.687,4.5603326 24.687,4.707 C24.687,4.8536674 24.6411671,4.96549961 24.5495,5.0425 C24.4578329,5.11950039 24.3276675,5.158 24.159,5.158 L20.661,5.158 L20.661,7.6 L23.939,7.6 C24.1076675,7.6 24.2378329,7.64033293 24.3295,7.721 C24.4211671,7.80166707 24.467,7.9153326 24.467,8.062 C24.467,8.2086674 24.4211671,8.32233293 24.3295,8.403 C24.2378329,8.48366707 24.1076675,8.524 23.939,8.524 L20.661,8.524 L20.661,11.087 L24.159,11.087 C24.5110018,11.087 24.687,11.2373318 24.687,11.538 C24.687,11.6846674 24.6411671,11.7983329 24.5495,11.879 C24.4578329,11.9596671 24.3276675,12 24.159,12 L20.111,12 C19.9349991,12 19.7975005,11.9505005 19.6985,11.8515 Z M36.017,4.267 C36.1050004,4.20833304 36.2039994,4.179 36.314,4.179 C36.453334,4.179 36.5761661,4.22483288 36.6825,4.3165 C36.7888339,4.40816713 36.842,4.5273326 36.842,4.674 C36.842,4.75466707 36.8273335,4.82799967 36.798,4.894 L34.367,11.692 C34.3156664,11.8166673 34.2350005,11.9119997 34.125,11.978 C34.0149994,12.0440003 33.8940007,12.077 33.762,12.077 C33.6373327,12.077 33.5200005,12.0440003 33.41,11.978 C33.2999994,11.9119997 33.2230002,11.8166673 33.179,11.692 L31.177,6.016 L29.131,11.692 C29.0869998,11.8166673 29.0100005,11.9119997 28.9,11.978 C28.7899994,12.0440003 28.6726673,12.077 28.548,12.077 C28.4159993,12.077 28.2968339,12.0440003 28.1905,11.978 C28.0841661,11.9119997 28.0053336,11.8166673 27.954,11.692 L25.523,4.894 C25.4936665,4.82799967 25.479,4.75466707 25.479,4.674 C25.479,4.5273326 25.5339994,4.40816713 25.644,4.3165 C25.7540005,4.22483288 25.8859992,4.179 26.04,4.179 C26.1500005,4.179 26.2508329,4.20833304 26.3425,4.267 C26.4341671,4.32566696 26.5019998,4.41366608 26.546,4.531 L28.581,10.383 L30.649,4.586 C30.6930002,4.46133271 30.7644995,4.36600033 30.8635,4.3 C30.9625005,4.23399967 31.0706661,4.201 31.188,4.201 C31.3053339,4.201 31.4116662,4.23583299 31.507,4.3055 C31.6023338,4.37516702 31.6756664,4.47233271 31.727,4.597 L33.751,10.438 L35.819,4.531 C35.8630002,4.41366608 35.9289996,4.32566696 36.017,4.267 Z" id="VIEW" fill="#290E54"></path>
                </g>
            </g>
        </g>
    </g>
</svg>