<?xml version="1.0" encoding="UTF-8"?>
<svg width="30px" height="30px" viewBox="0 0 30 30" version="1.1" xmlns="http://www.w3.org/2000/svg" xmlns:xlink="http://www.w3.org/1999/xlink">
    <!-- Generator: Sketch 49.3 (51167) - http://www.bohemiancoding.com/sketch -->
    <title>phone</title>
    <desc>Created with Sketch.</desc>
    <defs></defs>
    <g id="iOS-App" stroke="none" stroke-width="1" fill="none" fill-rule="evenodd">
        <g id="Settings---notifications-Copy" transform="translate(-20.000000, -229.000000)" fill="#290E54" fill-rule="nonzero">
            <g id="phone" transform="translate(20.000000, 229.000000)">
                <path d="M19.5454545,19.8636364 C16.8636364,19.8636364 17,23.7272727 11.6818182,18.4090909 C6.36363636,13.0909091 10.2272727,13.1818182 10.2272727,10.5454545 C10.2272727,10 9.59090909,8.59090909 8.45454545,7.5 C6.77272727,5.86363636 4.63636364,4.22727273 1.72727273,7.13636364 C0.909090909,8 0.363636364,9.13636364 0.363636364,10.4090909 C0.363636364,16.3636364 13.6363636,29.7272727 19.6363636,29.7272727 C20.9090909,29.7272727 22.0909091,29.2272727 22.9090909,28.3636364 C25.8181818,25.4545455 24.1818182,23.3181818 22.5454545,21.6363636 C21.5,20.5 20.0909091,19.8636364 19.5454545,19.8636364 Z" id="Shape"></path>
                <path d="M26.4090909,3.68181818 C21.7727273,-0.909090909 14.3636364,-1 9.63636364,3.45454545 C9.5,3.59090909 9.5,3.77272727 9.63636364,3.90909091 L11,5.27272727 C11.1363636,5.40909091 11.3181818,5.40909091 11.4545455,5.27272727 C13.1818182,3.63636364 15.4545455,2.72727273 17.8636364,2.72727273 C20.3636364,2.72727273 22.7272727,3.72727273 24.5,5.5 C28.0909091,9.09090909 28.1818182,14.8636364 24.7272727,18.5909091 C24.5909091,18.7272727 24.5909091,18.9090909 24.7272727,19.0454545 L26.0909091,20.4090909 C26.2272727,20.5454545 26.4090909,20.5454545 26.5454545,20.4090909 C31.0909091,15.7272727 31,8.27272727 26.4090909,3.68181818 Z" id="Shape"></path>
                <path d="M13.3636364,7.18181818 C13.2272727,7.31818182 13.2272727,7.5 13.3636364,7.63636364 L14.7272727,9 C14.8636364,9.13636364 15.0454545,9.13636364 15.1818182,9 C16.8181818,7.59090909 19.2727273,7.68181818 20.7727273,9.22727273 C22.3181818,10.7727273 22.3636364,13.2272727 21,14.8181818 C20.8636364,14.9545455 20.8636364,15.1363636 21,15.2727273 L22.3636364,16.6363636 C22.5,16.7727273 22.6818182,16.7727273 22.8181818,16.6363636 C25.2272727,14 25.1363636,9.90909091 22.5909091,7.36363636 C20.1363636,4.86363636 16,4.77272727 13.3636364,7.18181818 Z" id="Shape"></path>
            </g>
        </g>
    </g>
</svg>