<?xml version="1.0" encoding="utf-8"?>
<!-- Generator: Adobe Illustrator 22.0.1, SVG Export Plug-In . SVG Version: 6.00 Build 0)  -->
<svg version="1.1" id="Layer_1" xmlns="http://www.w3.org/2000/svg" xmlns:xlink="http://www.w3.org/1999/xlink" x="0px" y="0px"
	 viewBox="0 0 200 200" style="enable-background:new 0 0 200 200;" xml:space="preserve">
<style type="text/css">
	.st0{clip-path:url(#SVGID_2_);}
	.st1{fill:#FFBE84;}
	.st2{fill:#F7B27F;}
	.st3{fill:#D39371;}
	.st4{fill:none;stroke:#D39371;stroke-linecap:round;stroke-linejoin:round;stroke-miterlimit:10;}
	
		.st5{clip-path:url(#SVGID_2_);fill:none;stroke:#FFFFFF;stroke-linecap:round;stroke-linejoin:round;stroke-miterlimit:10;stroke-dasharray:3,3;}
	
		.st6{clip-path:url(#SVGID_2_);fill:none;stroke:#7DE4AD;stroke-linecap:round;stroke-linejoin:round;stroke-miterlimit:10;stroke-dasharray:3,3;}
</style>
<g>
	<defs>
		<rect id="SVGID_1_" x="0.2" y="-0.5" width="200" height="200"/>
	</defs>
	<clipPath id="SVGID_2_">
		<use xlink:href="#SVGID_1_"  style="overflow:visible;"/>
	</clipPath>
	<g class="st0">
		<g>
			<g>
				<path class="st1" d="M88.6,55.5c0.3,0,0.5-0.1,0.8-0.1c1.7-0.2,15.9,1.4,13.5-3.5c-1.8-3.6-8.5-4-11.9-4
					c-5.8,0-13.3-0.4-18.8,1.4c-2.8,0.9-5.9,0.7-8.5,2.2c-3.6,2.1-7.3,4-10.8,6.3c-2.6,1.7-4.8,4.6-6.9,7
					c-4.9,5.6-9.2,11.6-13.8,17.5c-3.8,4.9-7.7,9.8-11.6,14.6c-0.7,0.9-1.5,1.7-2.3,2.4c-1.1,0.9-2.1,2.1-3,3.4
					c-3.6,5.8-2.5,13.4,2.5,18c6.1,5.5,15.5,4.8,20.6-1.5c0.3-0.4,0.7-0.7,1.2-1c6.5-3,13.4-5.2,20.5-6.6c7.9-1.5,15.7-3.5,23.1-6.4
					c3.3-1.3,6.8-2.5,9.5-4.7c3.3-2.7,8.8-7.3,8.7-12c0-0.4-0.1-0.9-0.4-1.3c-0.5-0.6-1.5-0.6-2.3-0.4c-3.8,0.8-5.7,3.3-8.8,5.1
					c-3,1.8-7,1.3-10.3,2.1c-3.4,0.9-7.1,1.7-10.4,0.1c-4.5-2.2-4.5-8.5-4.2-12.8c0.2-2.6,1.2-5.2,1.3-7.8c0-3.7-2.2-7.6-1.1-11.4
					c0.8-2.7,1.6-2.1,4-2.3c2.9-0.3,6.3-0.2,8.9-1.5C81.1,56.9,85.3,56,88.6,55.5z"/>
			</g>
			<g>
				<path class="st2" d="M76.1,97.7c0.2,0.2,0.3,0.4,0.5,0.5c1.4,1.1,3.5,1.5,5.1,0.9c0.9-0.3,0.8-0.8,0.7-1.7
					c0-0.2-0.6-3.1-0.3-3.1c1.2,0,2.5-0.1,3.1-1c0.8,1.1,0.8,2.7,0,3.7c-0.2,0.3-0.5,0.6-0.7,0.9c-0.3,0.5-0.5,1-0.7,1.5
					c-0.6,1.2-1.7,2.1-3,2.4c-1.9,0.4-3.8-0.5-5.1-1.9c-1.1-1.3-2.2-3.2-2.4-4.8C74.5,95.3,75.3,96.8,76.1,97.7z"/>
			</g>
			<g>
				<path class="st3" d="M85.2,97.6c-0.1,0-0.2-0.1-0.2-0.2c-0.1-1.4-0.8-2.8-1.9-3.7c-0.1-0.1-0.1-0.2,0-0.3c0.1-0.1,0.2-0.1,0.3,0
					c1.2,1,1.9,2.5,2,4C85.4,97.5,85.3,97.6,85.2,97.6C85.2,97.6,85.2,97.6,85.2,97.6z"/>
			</g>
			<g>
				<path class="st1" d="M69.6,61.3c4.1,1.5,7.9,3.7,10.4,7.4c2.5,3.7,4.8,7.5,6.5,11.6c1.1,2.8,3.8,9.3,0.3,11.6
					c-3.1,0-5.1-3-6.9-5.6c-1.8-2.7-3.9-5.3-6.1-7.7c-1.1-1.1-2.2-2.2-3.5-2.9c-4.7-2.5-12.3-1.2-17,0.7c-0.3,0.1-0.6,0.2-0.9,0.1
					c-0.3-0.1-0.4-0.4-0.5-0.7c-0.4-1.4-1.1-2.8-1.4-4.2c-0.3-1.4,0.1-1.8,1-2.9c1.7-2.2,3.5-4.2,5.4-6.1c1.4-1.4,3.1-2.8,5-3
					c1.1-0.1,2.2,0.1,3.2,0.4C66.8,60.4,68.2,60.8,69.6,61.3z"/>
			</g>
			<g>
				<path class="st1" d="M67.4,69.3c3.6,1.4,6.4,4.5,8.9,7.5c2.5,3,5,6.1,7.3,9.3c0.9,1.2,1.8,2.5,2.1,4s-0.1,3.3-1.4,4.1
					c-3.1,0-5.1-3-6.9-5.6c-1.8-2.7-3.9-5.3-6.1-7.7c-1.1-1.1-2.2-2.2-3.5-2.9c-3.9-2-8.6-0.6-13-0.8c-0.3,0-0.7,0-1-0.2
					c-0.4-0.2-0.6-0.7-0.8-1.1C48.8,67.4,61.2,66.9,67.4,69.3z"/>
			</g>
			<g>
				<path class="st1" d="M64.6,76.8c0.3,0,0.5,0,0.8,0c1.1,0,2.3,0,3.3,0.5c0.8,0.5,1.4,1.3,2,2c2.3,3.1,14.7,15.6,11.8,19.8
					c-1.1,1.6-3.7,1.1-5.2-0.1c-3.7-2.7-5.6-7.1-8.7-10.5c-3.1-3.3-6.5-3.8-10.3-5.4c-0.7-0.3-8.6-3.5-4.7-6.1
					c0.2-0.1,0.5-0.2,0.8-0.2C57.7,76.8,61.1,76.8,64.6,76.8z"/>
			</g>
			<g>
				<path class="st2" d="M66.6,68c1.8,0.3,3.6,1.1,4.8,2.4c0.6,0.6,1.1,1.4,1.6,2.1c1.1,1.3,2.4,2.4,3.6,3.7c1.2,1.2,2.2,2.6,3.2,4
					c0.8,1,1.5,2.1,2.3,3.1c1.2,1.6,2.3,3.2,3.2,4.9c0.6,1,1,2.4,0.3,3.3c0.1-2.6-1.7-4.8-3.3-6.7c-3.1-3.7-6.2-7.4-9.3-11.1
					c-1.6-1.9-3.2-3.8-5.5-4.6c-1.3-0.5-2.7-0.5-4.1-0.6c-0.6,0-1.2,0-1.8-0.1C61.9,67.4,65.8,67.9,66.6,68z"/>
			</g>
			<g>
				<path class="st3" d="M85.7,92.3C85.7,92.3,85.7,92.3,85.7,92.3c-0.1,0-0.2-0.1-0.2-0.2c0.3-3-1.7-5.6-3.7-8
					c-0.7-0.9-1.4-1.7-2.1-2.6c-2.5-3.1-5.2-6.4-8.1-9.2c-1.7-1.6-3.7-3.6-6.2-4c-3.2-0.6-6.2,1.4-9.1,3.4l-4.1,2.8
					c-0.1,0.1-0.2,0-0.3-0.1c-0.1-0.1,0-0.2,0.1-0.3l4.1-2.8c2.9-2.1,6.1-4,9.4-3.4c2.7,0.5,4.8,2.5,6.5,4.1
					c2.9,2.8,5.6,6.1,8.1,9.2c0.7,0.9,1.4,1.8,2.1,2.6c2,2.4,4,5.2,3.8,8.3C85.9,92.2,85.8,92.3,85.7,92.3z"/>
			</g>
			<g>
				<path class="st2" d="M69.6,77c1.6,1.3,2.9,3.1,4.2,4.7c1.5,1.8,2.9,3.7,4.5,5.5c1.3,1.6,2.6,3.2,3.5,5.1
					c0.3,0.7,0.6,1.4,0.6,2.2c-2.6-4.4-5.9-8.2-9.2-12.1c-0.9-1.1-1.9-2.2-2.8-3.3c-0.5-0.6-1-1.2-1.7-1.6c-2.3-1.5-5.3-0.3-7.8-0.9
					c1.4-0.6,2.9-0.9,4.4-0.9c1.5,0,3,0.3,4.2,1.2C69.5,76.9,69.5,77,69.6,77z"/>
			</g>
			<g>
				<path class="st2" d="M93.6,53.1c-2,0.1-4.1,0-6.1-0.1c-0.7-0.1-1.5-0.1-2.2,0c-1.2,0.2-2.2,1-3,1.8c-0.9,0.9-3.1,1.4-3.8,2.5
					c3,0.4,7.1-1.1,10-1.8c2.1-0.4,4.2-0.2,6.3-0.1c2.2,0.1,4.1-0.3,6.3-0.8c0.7-0.2,1.4-0.3,1.8-0.9c0.5-0.6,0.4-1.6-0.1-2.3
					c-0.1-0.1-0.2-0.3-0.4-0.4c-0.2-0.1-0.4-0.1-0.6-0.1c-1.3,0.1-2.5,1.1-3.8,1.5C96.5,52.9,95,53,93.6,53.1z"/>
			</g>
			<g>
				<path class="st3" d="M82.3,94.9c-0.1,0-0.2,0-0.2-0.1c-2.7-5.1-6.5-9.5-10.2-13.8c-2.6-2.9-4.9-4.6-8.8-3.9
					c-1.8,0.3-3.4,1.1-5,1.8l-3.5,1.6c-0.1,0-0.2,0-0.3-0.1c0-0.1,0-0.2,0.1-0.3l3.5-1.6c1.6-0.7,3.3-1.5,5.1-1.8
					c4.1-0.7,6.6,1.1,9.2,4.1c3.7,4.3,7.6,8.7,10.3,13.8c0.1,0.1,0,0.2-0.1,0.3C82.4,94.9,82.3,94.9,82.3,94.9z"/>
			</g>
			<g>
				<path class="st2" d="M54.4,95.4c-0.5,2.7,0,5.4,2.3,7.5c0.8,0.7,1.8,1.1,2.8,1.6c2.5,1,5,1.8,7.6,2.4c1.5,0.4,3,0.8,4.6,1
					c0.8,0.1,1.6,0.2,2.3,0.2c0,0,1.6-0.3,1.5-0.4c-2.5-1.6-3.9-4.4-5.1-7.1c-0.5-1.1-1-2.2-1.2-3.4c-0.2-1-0.2-2.1-0.6-3.1
					c-0.2-0.4-0.4-0.8-0.7-1.1c-0.5-0.7-1.2-1.3-1.8-2c-0.8-1.1-1.3-3.3-1.4-4.6c0-0.1,0-0.3-0.1-0.3c-0.1,0-0.1-0.1-0.2-0.1
					c-0.7-0.2-1.3-0.7-2-0.9c-0.7-0.3-1,0-1.7,0.5c-1.1,0.8-2.1,1.8-2.9,2.8C56.1,90.3,54.9,92.8,54.4,95.4z"/>
			</g>
			<g>
				<path class="st2" d="M28.1,105.8c1.3,2.5,2.5,4.9,4.4,7c1.4,1.5,3.2,2.8,5.2,3.4c1.1,0.3,2,0.4,3.1,0.2c1.3-0.3,2.5-0.7,3.8-0.9
					c0.9-0.2,1.8-0.2,2.8-0.4c1.2-0.3,2.2-0.7,3.4-1c1.2-0.3,2.3-0.6,3.4-1c0.1,0,0.2-0.1,0.1-0.2c-1.3,0-2.7-0.1-4-0.2
					c-1.2-0.1-2.5,0-3.7-0.1c-2.2-0.1-4.4-0.3-6.5-0.9C35.7,110.5,31.6,108.5,28.1,105.8z"/>
			</g>
			<g>
				<path class="st3" d="M72.5,100.6c-0.1,0-0.1,0-0.1-0.1c-1.5-1.4-2.2-3.6-1.7-5.6c0-0.1,0.1-0.2,0.3-0.2c0.1,0,0.2,0.1,0.2,0.3
					c-0.4,1.9,0.2,3.9,1.6,5.2c0.1,0.1,0.1,0.2,0,0.3C72.6,100.6,72.5,100.6,72.5,100.6z"/>
			</g>
			<g>
				<path class="st3" d="M89.6,55.4C89.6,55.4,89.6,55.4,89.6,55.4c-1.5-0.3-3-1.1-4-2.1c-0.1-0.1-0.1-0.2,0-0.3
					c0.1-0.1,0.2-0.1,0.3,0c1,1,2.4,1.7,3.8,2c0.1,0,0.2,0.1,0.2,0.3C89.8,55.3,89.7,55.4,89.6,55.4z"/>
			</g>
			<g>
				<path class="st3" d="M79.1,57.7C79.1,57.7,79,57.7,79.1,57.7c-1.8-0.4-3.3-1.6-4-3.3c0-0.1,0-0.2,0.1-0.3c0.1,0,0.2,0,0.3,0.1
					c0.6,1.5,2.1,2.7,3.7,3c0.1,0,0.2,0.1,0.2,0.3C79.3,57.7,79.2,57.7,79.1,57.7z"/>
			</g>
			<g>
				<path class="st2" d="M62.2,57c-1.9,0.9-3.8,1.8-5.7,2.7c-0.5,0.2-1.1,0.6-1,1.1c2.5-0.2,5-0.4,7.5-0.6c1.3-0.1,3.1-0.2,3.9-1.3
					C65.4,58.2,63.7,57.7,62.2,57z"/>
			</g>
			<g>
				<path class="st3" d="M46,70.9c-0.1,0-0.1,0-0.2-0.1c-0.1-0.1,0-0.2,0-0.3l9.3-6.7c0.3-0.2,0.7-0.5,1-0.8c1.3-1,2.7-2,4.3-2.7
					c2.3-1.1,4.2-1.1,6.7-0.1c2.9,1.2,5.9,2.4,8.7,4.1c0.1,0.1,0.1,0.2,0.1,0.3c-0.1,0.1-0.2,0.1-0.3,0.1C73,63,70,61.8,67.1,60.6
					c-2.4-1-4.2-1-6.4,0.1c-1.5,0.7-2.9,1.7-4.2,2.7c-0.3,0.3-0.7,0.5-1,0.8l-9.3,6.7C46.1,70.9,46.1,70.9,46,70.9z"/>
			</g>
			<g>
				<path class="st3" d="M67.3,59.4C67.2,59.4,67.2,59.4,67.3,59.4c-1.8-0.5-3.5-1.4-4.9-2.5c-0.1-0.1-0.1-0.2,0-0.3s0.2-0.1,0.3,0
					c1.3,1.1,2.9,2,4.6,2.4c0.1,0,0.2,0.2,0.2,0.3C67.4,59.3,67.4,59.4,67.3,59.4z"/>
			</g>
			<g>
				<path class="st3" d="M76.7,69.9c-0.1,0-0.1,0-0.2-0.1c-0.1-0.1,0-0.2,0.1-0.3c0.9-0.6,1.4-1.7,1.5-2.7c0-0.1,0.1-0.2,0.2-0.2
					c0.1,0,0.2,0.1,0.2,0.2c0,1.2-0.6,2.4-1.6,3.1C76.8,69.9,76.7,69.9,76.7,69.9z"/>
			</g>
			<g>
				<path class="st3" d="M79.1,69.3c0,0-0.1,0-0.1,0c-0.1-0.1-0.1-0.2,0-0.3c0.2-0.3,0.4-0.6,0.5-1c0-0.1,0.2-0.2,0.3-0.2
					c0.1,0,0.2,0.2,0.2,0.3c-0.1,0.4-0.3,0.8-0.6,1.1C79.2,69.3,79.2,69.3,79.1,69.3z"/>
			</g>
			<g>
				<path class="st3" d="M91.1,94.7c-0.1,0-0.2,0-0.2-0.1c-0.4-0.8-0.9-1.4-1.6-1.9c-0.1-0.1-0.1-0.2-0.1-0.3
					c0.1-0.1,0.2-0.1,0.3-0.1c0.8,0.5,1.4,1.3,1.8,2.1C91.4,94.4,91.3,94.6,91.1,94.7C91.2,94.6,91.2,94.7,91.1,94.7z"/>
			</g>
			<g>
				<path class="st3" d="M92.2,101.4c-0.1,0-0.2-0.1-0.2-0.2c-0.2-0.9-0.8-1.7-1.5-2.3c-0.1-0.1-0.1-0.2,0-0.3
					c0.1-0.1,0.2-0.1,0.3,0c0.8,0.6,1.4,1.5,1.7,2.5C92.5,101.2,92.4,101.3,92.2,101.4C92.3,101.4,92.2,101.4,92.2,101.4z"/>
			</g>
			<g>
				<path class="st3" d="M91,101.9c-0.1,0-0.2-0.1-0.2-0.1c-0.1-0.3-0.3-0.5-0.5-0.7c-0.1-0.1-0.1-0.2,0-0.3c0.1-0.1,0.2-0.1,0.3,0
					c0.3,0.2,0.5,0.5,0.6,0.9C91.3,101.7,91.2,101.8,91,101.9C91.1,101.9,91,101.9,91,101.9z"/>
			</g>
		</g>
		<path class="st1" d="M18.7,99c0,0-41,37-41,46s13,24,13,24s21-27,48-50L18.7,99z"/>
	</g>
	<g class="st0">
		<g>
			<g>
				<path class="st1" d="M115.7,80.1c-3.3-5.6-6.6-11.3-9.3-17.1c-0.6-1.3-1.2-2.7-1-4.2c0.2-1.4,1.3-2.9,2.7-2.8
					c1,0,1.8,0.7,2.5,1.3c3.6,3.3,6,7.7,8.3,12c3.1,5.6,9.6,14.7,12.9,20.2c1.4,2.2,2.6,5.5,4.9,7c1.8,1.2,4.1,1.1,6.1,2.1
					c6.7,3.3,13,7.3,18.8,12c6,4.9,11.1,11,16.5,16.5c0.8,0.8,1.6,1.5,2.5,2.2c1.2,0.8,2.3,1.9,3.3,3.1c4.1,5.4,3.7,13.1-0.8,18.1
					c-5.5,6.1-15,6.2-20.7,0.4c-0.4-0.4-0.8-0.7-1.3-0.8c-6.8-2.4-13.8-3.9-21-4.7c-7.5-0.8-9.4-2-16.7-3.9
					c-3.3-0.9-8.7-1.2-10.4-4.6c-2.3-4.7-4.3-9.5-5.5-14.6c-0.2-0.9-0.4-1.9,0.1-2.7c0.8-1.3,2.8-1.2,4.2-0.5c1.7,0.9,3,2.4,3.9,4.1
					c0.7,1.3,1.1,2.8,1.8,4.1c2,3.7,7.3,4,10.7,2.2c2.2-1.1,3.8-3.2,4.2-5.7c0.2-1,0.1-2.1,0-3.1c-0.1-2.1,0-4.4-0.4-6.5
					C130,103,121.3,89.8,115.7,80.1z"/>
			</g>
			<g>
				<path class="st2" d="M116.6,130.4c0.7-0.6,0.9-1.5,0.9-2.4c0-0.9-0.3-1.7-0.7-2.5c-1-2.6-2.5-5.1-4.8-6.6
					c-0.4-0.2-0.8-0.4-1.2-0.4c-0.9,0.1-1.3,1-1.6,1.8c-0.5,1.7-0.9,3.6-0.4,5.3c0.3,1.1,1,2,1.6,2.9c1.3,1.9,2.6,3.9,4.1,5.7
					c0.4,0.4,0.6,1,0.9,1.4c0.7,1.1,1.9,2,3.2,2.1c1.9,0.2,3.8-0.9,4.9-2.4c1-1.4,1.9-3.4,2-5.1c-1.1,0.2-1.8,1.8-2.5,2.8
					c-0.2,0.2-0.3,0.4-0.5,0.6c-1.3,1.2-3.3,1.8-5,1.4c-1-0.2-0.9-0.7-0.9-1.6C116.6,133.1,116.9,130.3,116.6,130.4
					c-1.1,0.1-2.5,0.1-3.2-0.8"/>
			</g>
			<g>
				<path class="st4" d="M113.9,133.6"/>
			</g>
			<g>
				<path class="st4" d="M115.4,129.5"/>
			</g>
			<g>
				<path class="st1" d="M126,96.2c-4,1.9-7.5,4.4-9.7,8.4c-2.1,3.9-4.1,7.9-5.3,12.2c-0.9,2.9-2.9,9.6,0.8,11.6
					c3.1-0.3,4.8-3.5,6.3-6.2c1.6-2.9,3.4-5.6,5.4-8.2c0.9-1.2,2-2.4,3.3-3.2c4.5-2.9,12.1-2.3,17-0.9c0.3,0.1,0.6,0.2,0.9,0
					c0.3-0.2,0.3-0.5,0.4-0.8c0.3-1.4,0.8-2.9,1-4.3c0.2-1.4-0.3-1.8-1.3-2.8c-1.9-2-3.9-3.9-6-5.6c-1.5-1.3-3.3-2.5-5.3-2.5
					c-1.1,0-2.2,0.3-3.2,0.7C128.8,95,127.4,95.6,126,96.2z"/>
			</g>
			<g>
				<path class="st1" d="M129,103.9c-3.5,1.8-6,5-8.2,8.3c-2.3,3.3-4.4,6.6-6.4,10c-0.8,1.3-1.6,2.7-1.7,4.2
					c-0.2,1.5,0.4,3.2,1.8,3.9c3.1-0.3,4.8-3.5,6.3-6.2c1.6-2.9,3.4-5.6,5.4-8.2c0.9-1.2,2-2.4,3.3-3.2c3.7-2.4,8.5-1.4,12.9-2
					c0.3,0,0.7-0.1,1-0.3c0.4-0.3,0.6-0.7,0.7-1.1C147.3,100.3,134.9,101,129,103.9z"/>
			</g>
			<g>
				<path class="st1" d="M132.5,111.1c-0.3,0-0.5,0-0.8,0.1c-1.1,0.1-2.3,0.2-3.3,0.8c-0.8,0.5-1.3,1.4-1.8,2.2
					c-2,3.3-13.1,16.9-9.9,20.8c1.2,1.5,3.7,0.7,5.2-0.6c3.4-3,4.9-7.6,7.7-11.2c2.7-3.5,6.1-4.4,9.8-6.4c0.7-0.3,8.3-4.3,4.1-6.5
					c-0.2-0.1-0.5-0.1-0.8-0.1C139.3,110.5,135.9,110.8,132.5,111.1z"/>
			</g>
			<g>
				<path class="st2" d="M129.6,102.6c-1.8,0.5-3.4,1.4-4.6,2.8c-0.6,0.7-1,1.5-1.4,2.2c-0.9,1.4-2.2,2.6-3.2,4
					c-1.1,1.3-1.9,2.8-2.8,4.3c-0.7,1.1-1.3,2.2-2,3.3c-1,1.7-2,3.4-2.8,5.2c-0.5,1.1-0.8,2.5,0,3.4c-0.3-2.5,1.2-4.9,2.7-7
					c2.7-4,5.5-7.9,8.2-11.9c1.4-2,2.9-4.1,5.1-5.1c1.2-0.6,2.6-0.8,4-1c0.6-0.1,1.2-0.1,1.8-0.3
					C134.2,101.5,130.4,102.4,129.6,102.6z"/>
			</g>
			<g>
				<path class="st3" d="M113,128.5C113,128.5,112.9,128.6,113,128.5c-0.1,0-0.2-0.1-0.3-0.2c-0.6-3.1,1.2-6.1,3-8.6
					c0.6-0.9,1.2-1.9,1.9-2.8c2.2-3.4,4.5-6.9,7.2-9.9c1.5-1.8,3.4-4,6.1-4.7c3.3-0.9,6.6,0.8,9.7,2.5l4.3,2.4
					c0.1,0.1,0.1,0.2,0.1,0.3c-0.1,0.1-0.2,0.1-0.3,0.1l-4.3-2.4c-3-1.7-6.2-3.3-9.3-2.5c0,0-0.1,0-0.1,0c-2.5,0.7-4.3,2.8-5.8,4.6
					c-2.6,3-4.9,6.5-7.2,9.9c-0.6,0.9-1.2,1.9-1.9,2.8c-1.8,2.6-3.4,5.4-2.9,8.3C113.1,128.4,113.1,128.5,113,128.5z"/>
			</g>
			<g>
				<path class="st2" d="M127.5,111.8c-1.5,1.5-2.6,3.4-3.8,5.1c-1.3,2-2.6,4-4,5.9c-1.1,1.7-2.3,3.5-3,5.4
					c-0.3,0.7-0.5,1.5-0.4,2.2c2.1-4.6,5.1-8.7,8-12.9c0.8-1.2,1.7-2.3,2.5-3.5c0.4-0.6,0.9-1.3,1.5-1.8c2.1-1.7,5.2-0.8,7.7-1.7
					c-1.4-0.4-3-0.6-4.4-0.5c-1.5,0.1-3,0.5-4.1,1.6C127.6,111.7,127.6,111.8,127.5,111.8z"/>
			</g>
			<g>
				<path class="st3" d="M116.6,130.8c0,0-0.1,0-0.1,0c-0.1,0-0.2-0.2-0.1-0.3c2.2-5.4,5.6-10.1,8.9-14.7c2.3-3.2,4.7-5.2,8.8-4.9
					c1.8,0.1,3.6,0.7,5.3,1.3l3.7,1.2c0.1,0,0.2,0.2,0.1,0.3c0,0.1-0.2,0.2-0.3,0.1l-3.7-1.2c-1.7-0.6-3.4-1.1-5.2-1.3
					c-3.9-0.3-6.1,1.6-8.4,4.7c-3.3,4.6-6.7,9.3-8.9,14.7C116.7,130.7,116.6,130.8,116.6,130.8z"/>
			</g>
			<g>
				<path class="st2" d="M144.4,128.7c0.8,2.7,0.5,5.4-1.6,7.6c-0.7,0.8-1.7,1.3-2.6,1.8c-2.4,1.2-4.8,2.2-7.3,3.1
					c-2.4,0.8-4.7,1.5-7.2,0.7c0.7,0.2,2.5-3.9,2.7-4.5c0.6-1.8,1.3-3.7,1.5-5.5c0.1-1,0-2.1,0.3-3.1c0.1-0.4,0.4-0.8,0.6-1.2
					c0.5-0.8,1.1-1.4,1.6-2.2c0.7-1.2,1-3.4,1-4.8c0-0.1,0-0.3,0.1-0.4c0-0.1,0.1-0.1,0.2-0.1c0.7-0.3,1.2-0.8,1.9-1.1
					c0.7-0.3,1-0.1,1.7,0.3c1.2,0.7,2.3,1.5,3.2,2.5C142.2,123.8,143.6,126.1,144.4,128.7z"/>
			</g>
			<g>
				<path class="st2" d="M171.5,136.6c-1,2.6-2.1,5.1-3.7,7.4c-1.2,1.7-2.9,3.1-4.9,3.9c-1,0.4-2,0.6-3.1,0.5
					c-1.3-0.2-2.5-0.5-3.8-0.6c-0.9-0.1-1.9-0.1-2.8-0.2c-1.2-0.2-2.3-0.5-3.5-0.7c-1.2-0.2-2.3-0.4-3.5-0.7c-0.1,0-0.2-0.1-0.1-0.1
					c1.3-0.1,2.6-0.3,4-0.6c1.2-0.2,2.5-0.3,3.7-0.4c2.2-0.3,4.3-0.7,6.4-1.5C164.4,142,168.2,139.6,171.5,136.6z"/>
			</g>
			<g>
				<path class="st3" d="M126.9,135.6c-0.1,0-0.1,0-0.2,0c-0.1-0.1-0.1-0.2,0-0.3c1.3-1.4,1.7-3.5,1.1-5.3c0-0.1,0-0.2,0.1-0.3
					c0.1,0,0.2,0,0.3,0.1c0.7,2,0.2,4.2-1.2,5.8C127,135.5,126.9,135.6,126.9,135.6z"/>
			</g>
			<g>
				<path class="st3" d="M119.8,105.4c-0.1,0-0.1,0-0.2,0c-1.1-0.6-1.8-1.7-1.9-2.9c0-0.1,0.1-0.2,0.2-0.2c0.1,0,0.2,0.1,0.2,0.2
					c0.1,1.1,0.8,2.1,1.7,2.6c0.1,0.1,0.1,0.2,0.1,0.3C119.9,105.3,119.9,105.4,119.8,105.4z"/>
			</g>
			<g>
				<path class="st3" d="M117.4,105.1c-0.1,0-0.2,0-0.2-0.1c-0.3-0.3-0.5-0.7-0.7-1c0-0.1,0-0.2,0.1-0.3c0.1,0,0.2,0,0.3,0.1
					c0.1,0.3,0.3,0.6,0.6,0.9C117.5,104.8,117.5,104.9,117.4,105.1C117.4,105,117.4,105,117.4,105.1z"/>
			</g>
			<g>
				<path class="st3" d="M113.4,137.6C113.3,137.6,113.3,137.6,113.4,137.6c-0.2,0-0.3-0.1-0.3-0.3c0.2-1,0.7-2,1.4-2.7
					c0.1-0.1,0.2-0.1,0.3,0c0.1,0.1,0.1,0.2,0,0.3c-0.7,0.6-1.1,1.5-1.3,2.4C113.5,137.5,113.4,137.6,113.4,137.6z"/>
			</g>
			<g>
				<path class="st3" d="M114.6,138c0,0-0.1,0-0.1,0c-0.1,0-0.2-0.2-0.1-0.3c0.1-0.3,0.3-0.7,0.5-0.9c0.1-0.1,0.2-0.1,0.3,0
					c0.1,0.1,0.1,0.2,0,0.3c-0.2,0.2-0.3,0.5-0.4,0.8C114.7,138,114.7,138,114.6,138z"/>
			</g>
			<g>
				<path class="st2" d="M131.1,92.6c-1,0.2-1.9,0.7-2.7,1.2c-1.1,0.6-2.2,1.4-2.7,2.5c2.6-1.8,5.8-2.5,8.9-1.9
					c-0.2,0-0.7-1.2-1-1.5C132.8,92.5,131.8,92.5,131.1,92.6z"/>
			</g>
			<g>
				<path class="st3" d="M150.4,103.5c-0.1,0-0.1,0-0.2,0l-9.9-5.8c-0.4-0.2-0.7-0.4-1.1-0.7c-1.4-0.9-2.8-1.7-4.4-2.3
					c-2.3-0.8-4.1-0.6-6.4,0.5c-2.8,1.4-5.7,2.9-8.2,4.8c-0.1,0.1-0.2,0.1-0.3,0c-0.1-0.1-0.1-0.2,0-0.3c2.6-2,5.5-3.4,8.3-4.9
					c2.4-1.3,4.3-1.4,6.7-0.6c1.6,0.6,3.1,1.5,4.5,2.3c0.4,0.2,0.7,0.4,1.1,0.7l9.9,5.8c0.1,0.1,0.1,0.2,0.1,0.3
					C150.5,103.5,150.5,103.5,150.4,103.5z"/>
			</g>
			<g>
				<path class="st3" d="M111.1,70c-0.4,0.1-0.8,0.2-1.2,0.2c-0.1,0-0.2-0.1-0.2-0.2c0-0.1,0.1-0.2,0.2-0.2c0.8,0,1.6-0.2,2.3-0.6
					c0.1-0.1,0.2,0,0.3,0.1c0.1,0.1,0,0.2-0.1,0.3C112,69.7,111.6,69.9,111.1,70z"/>
			</g>
			<g>
				<path class="st3" d="M115.7,80C115.7,80,115.7,80,115.7,80c-0.2,0-0.3,0-0.3-0.1c0-0.1,0-0.2,0.2-0.3c0.5-0.1,1.1-0.4,1.5-0.7
					c0.1-0.1,0.2,0,0.3,0.1c0.1,0.1,0,0.2-0.1,0.3C116.9,79.6,116.3,79.9,115.7,80z"/>
			</g>
		</g>
		<path class="st1" d="M207.7,190c-17-19-45-39-45-39l19.4-20.6c0,0,28.6,26.6,37.6,40.6S207.7,190,207.7,190z"/>
	</g>
	<path class="st5" d="M180.2,130.7c-4.3-9.4-10.5-17.9-17.9-25.1c-4.8-4.6-10.3-8.7-14.3-14.1c-9.4-12.7-9.4-30.4-18.4-43.4
		c-0.8-1.2-1.7-2.3-3-2.9c-3-1.3-6.5,1.2-7.4,4.3c-1,3.1-0.1,6.4,0.7,9.5c2.8,10.4,5.7,20.7,8.6,31.1c-5.5,5.2-10.9,10.3-16.4,15.5
		c-1.1,1.1-2.3,2.1-3,3.5c-1.2,2.1-1.3,4.6-1.3,6.9c-0.2,6.5-0.2,13.7,3.8,18.8c2.6,3.3,6.4,5.2,10.2,6.9
		c9.9,4.4,20.2,7.8,30.7,10.2"/>
	<path class="st6" d="M20.3,90.6c5.9-4.6,9.8-11.1,14.4-17c2.8-3.6,5.8-7,8.9-10.3c3.3-3.5,7-7.7,11.4-9.8c7.6-3.7,15.9-6.1,24.3-7
		c7.3-0.8,18.1-1.5,24,3.8c1.1,1,2.1,2.4,1.7,3.8c-0.3,0.9-1.1,1.5-1.9,1.9c-4.3,2.3-9.4,0.9-14,1.7c-4.7,0.8-9.5,1.3-13.9,3.3
		c3.6,1.9,6.1,3.7,8.4,7.2c4.1,6.3,7.2,13.6,7.3,21.1c2.5-2.1,6.7-5.4,10.1-5.7c1.1-0.1,2.3,0.5,2.5,1.6c0.1,0.6-0.1,1.2-0.2,1.8
		c-0.4,1.7-0.4,3.5-0.9,5.2c-0.4,1.4-1.1,2.6-1.9,3.8c-4.1,6.1-9.4,7.9-16.1,9.9c-4.1,1.2-8,3.2-12.1,4.5c-9.5,3-20.3,2.2-29,7.2"/>
</g>
</svg>
