<?xml version="1.0" encoding="utf-8"?>
<!-- Generator: Adobe Illustrator 22.0.1, SVG Export Plug-In . SVG Version: 6.00 Build 0)  -->
<svg version="1.1" xmlns="http://www.w3.org/2000/svg" xmlns:xlink="http://www.w3.org/1999/xlink" x="0px" y="0px"
	 viewBox="0 0 151.3 112.7" style="enable-background:new 0 0 151.3 112.7;" xml:space="preserve">
<style type="text/css">
	.st0{fill:none;stroke:#FFFFFF;stroke-width:1.854;stroke-miterlimit:10;}
	.st1{fill:none;stroke:#FFFFFF;stroke-width:1.854;}
	.st2{fill:#FFFFFF;}
	.st3{fill:none;stroke:#FFFFFF;stroke-width:2;stroke-linecap:round;stroke-linejoin:round;stroke-miterlimit:10;}
	.st4{fill:none;stroke:#FFFFFF;stroke-width:2;stroke-miterlimit:10;}
	.st5{fill:none;stroke:#FFFFFF;stroke-width:1.9255;stroke-miterlimit:10;}
	.st6{fill:none;stroke:#FFFFFF;stroke-linecap:round;stroke-linejoin:round;stroke-miterlimit:10;}
	.st7{fill:none;stroke:#FFFFFF;stroke-width:1.4107;stroke-miterlimit:10;}
	.st8{fill:none;stroke:#FFFFFF;stroke-width:2.2747;stroke-linecap:round;stroke-linejoin:round;stroke-miterlimit:10;}
	.st9{fill:none;stroke:#FFFFFF;stroke-width:2.03;stroke-linecap:round;stroke-linejoin:round;stroke-miterlimit:10;}
	.st10{fill:none;}
	.st11{fill:#FFFFFF;stroke:#FFFFFF;stroke-linecap:round;stroke-linejoin:round;stroke-miterlimit:10;}
</style>
<g id="Layer_2">
</g>
<g id="Layer_1">
	<g>
		<g>
			<g>
				<path class="st10" d="M86.8,44.1c-4.1,0-7.4,3.3-7.4,7.4s3.3,7.4,7.4,7.4s7.4-3.3,7.4-7.4C94.2,47.4,90.9,44.1,86.8,44.1z"/>
				<path class="st10" d="M63,54.7c-3.3,0-6,2.7-6,6c0,3.3,2.7,6,6,6s6-2.7,6-6S66.3,54.7,63,54.7z"/>
				<path class="st3" d="M56.6,92.3V75.1c0-2.5,2-4.5,4.5-4.5H65c0,0,0,0,0.1,0c2.2,0,3.9,2,3.9,4.2v0.1 M84.7,95.9h24.2V62.3h2.3
					c1.5,0,2.9-0.9,3.4-2.3c0.6-1.4,0.3-2.9-0.7-4L76.3,16.9L60.2,33.1L46.5,46.9L37.4,56c-1.1,1.1-1.4,2.6-0.8,4
					c0.6,1.4,1.9,2.3,3.4,2.3h2.8v33.5h22.8 M70.2,95.9v-5c0-1.2,0.7-2.3,1.8-2.8c0.3-0.2,0.7-0.3,1-0.3l0.1,0c0.1,0,0.2,0,0.3,0
					h3.1c0.1,0,0.2,0,0.3,0l0.2,0c1.5,0.2,2.7,1.6,2.7,3.1v5 M63,67.7c-3.3,0-6-2.7-6-6s2.7-6,6-6s6,2.7,6,6
					C69,65,66.3,67.7,63,67.7z M79.3,80.2c0,2.4-2,4.4-4.4,4.4c-2.4,0-4.4-2-4.4-4.4c0-2.4,2-4.4,4.4-4.4
					C77.3,75.9,79.3,77.8,79.3,80.2z M86.8,59.9c-4.1,0-7.4-3.3-7.4-7.4c0-4.1,3.3-7.4,7.4-7.4s7.4,3.3,7.4,7.4
					C94.2,56.6,90.9,59.9,86.8,59.9z M79.2,73.9L79,69.2c0-3.1,2.5-5.6,5.6-5.6h4.6c3.1,0,5.6,2.5,5.6,5.6v23.4"/>
			</g>
		</g>
		<polygon class="st11" points="59.2,28.9 59.2,23.9 45.5,23.9 45.5,42.1 		"/>
	</g>
</g>
<g id="Layer_3">
</g>
</svg>
