<?xml version="1.0" encoding="UTF-8"?>
<svg width="292px" height="64px" viewBox="0 0 292 64" version="1.1" xmlns="http://www.w3.org/2000/svg" xmlns:xlink="http://www.w3.org/1999/xlink">
    <!-- Generator: Sketch 49.3 (51167) - http://www.bohemiancoding.com/sketch -->
    <title>sign up active</title>
    <desc>Created with Sketch.</desc>
    <defs>
        <rect id="path-1" x="0" y="0" width="280" height="52" rx="26"></rect>
        <filter x="-3.6%" y="-15.4%" width="107.1%" height="138.5%" filterUnits="objectBoundingBox" id="filter-2">
            <feOffset dx="0" dy="2" in="SourceAlpha" result="shadowOffsetOuter1"></feOffset>
            <feGaussianBlur stdDeviation="3" in="shadowOffsetOuter1" result="shadowBlurOuter1"></feGaussianBlur>
            <feComposite in="shadowBlurOuter1" in2="SourceAlpha" operator="out" result="shadowBlurOuter1"></feComposite>
            <feColorMatrix values="0 0 0 0 0.882352941   0 0 0 0 0.270588235   0 0 0 0 0.596078431  0 0 0 0.4 0" type="matrix" in="shadowBlurOuter1"></feColorMatrix>
        </filter>
    </defs>
    <g id="iOS-App" stroke="none" stroke-width="1" fill="none" fill-rule="evenodd">
        <g id="SignUp-Parents-Details" transform="translate(-42.000000, -418.000000)">
            <g id="sign-up-active" transform="translate(48.000000, 422.000000)">
                <g id="Rectangle">
                    <use fill="black" fill-opacity="1" filter="url(#filter-2)" xlink:href="#path-1"></use>
                    <use fill="#E14598" fill-rule="evenodd" xlink:href="#path-1"></use>
                    <rect stroke="#E14598" stroke-width="2" x="1" y="1" width="278" height="50" rx="25"></rect>
                </g>
                <path d="M102.092,33.688 C100.995995,33.3519983 100.120003,32.888003 99.464,32.296 C99.1599985,32.0399987 99.008,31.712002 99.008,31.312 C99.008,31.0239986 99.0879992,30.780001 99.248,30.58 C99.4080008,30.379999 99.5999989,30.28 99.824,30.28 C100.048001,30.28 100.319998,30.383999 100.64,30.592 C102.064007,31.6480053 103.687991,32.176 105.512,32.176 C106.792006,32.176 107.775997,31.9360024 108.464,31.456 C109.152003,30.9759976 109.496,30.2880045 109.496,29.392 C109.496,28.6879965 109.176003,28.1600018 108.536,27.808 C107.895997,27.4559982 106.872007,27.1200016 105.464,26.8 C104.119993,26.5119986 103.016004,26.1840018 102.152,25.816 C101.287996,25.4479982 100.612002,24.9480032 100.124,24.316 C99.6359976,23.6839968 99.392,22.8800049 99.392,21.904 C99.392,20.9279951 99.6599973,20.0600038 100.196,19.3 C100.732003,18.5399962 101.479995,17.9480021 102.44,17.524 C103.400005,17.0999979 104.495994,16.888 105.728,16.888 C106.864006,16.888 107.911995,17.0479984 108.872,17.368 C109.832005,17.6880016 110.647997,18.1599969 111.32,18.784 C111.640002,19.0560014 111.8,19.3839981 111.8,19.768 C111.8,20.0400014 111.716001,20.279999 111.548,20.488 C111.379999,20.696001 111.184001,20.8 110.96,20.8 C110.751999,20.8 110.488002,20.696001 110.168,20.488 C109.431996,19.9279972 108.740003,19.5240012 108.092,19.276 C107.443997,19.0279988 106.664005,18.904 105.752,18.904 C104.519994,18.904 103.560003,19.1559975 102.872,19.66 C102.183997,20.1640025 101.84,20.8639955 101.84,21.76 C101.84,22.5280038 102.143997,23.107998 102.752,23.5 C103.360003,23.892002 104.335993,24.2479984 105.68,24.568 C107.088007,24.8880016 108.227996,25.2199983 109.1,25.564 C109.972004,25.9080017 110.667997,26.379997 111.188,26.98 C111.708003,27.580003 111.968,28.3519953 111.968,29.296 C111.968,30.2560048 111.700003,31.1079963 111.164,31.852 C110.627997,32.5960037 109.876005,33.171998 108.908,33.58 C107.939995,33.988002 106.824006,34.192 105.56,34.192 C104.343994,34.192 103.188005,34.0240017 102.092,33.688 Z M115.076,33.832 C114.843999,33.639999 114.728,33.3520019 114.728,32.968 L114.728,23.224 C114.728,22.8399981 114.843999,22.548001 115.076,22.348 C115.308001,22.147999 115.599998,22.048 115.952,22.048 C116.304002,22.048 116.591999,22.147999 116.816,22.348 C117.040001,22.548001 117.152,22.8399981 117.152,23.224 L117.152,32.968 C117.152,33.3520019 117.040001,33.639999 116.816,33.832 C116.591999,34.024001 116.304002,34.12 115.952,34.12 C115.599998,34.12 115.308001,34.024001 115.076,33.832 Z M114.848,19.312 C114.575999,19.0559987 114.44,18.7200021 114.44,18.304 C114.44,17.8879979 114.575999,17.5560012 114.848,17.308 C115.120001,17.0599988 115.487998,16.936 115.952,16.936 C116.400002,16.936 116.763999,17.0599988 117.044,17.308 C117.324001,17.5560012 117.464,17.8879979 117.464,18.304 C117.464,18.7200021 117.328001,19.0559987 117.056,19.312 C116.783999,19.5680013 116.416002,19.696 115.952,19.696 C115.487998,19.696 115.120001,19.5680013 114.848,19.312 Z M131.108,22.372 C131.324001,22.5880011 131.432,22.8719982 131.432,23.224 L131.432,33.064 C131.432,34.856009 130.956005,36.2079954 130.004,37.12 C129.051995,38.0320046 127.648009,38.488 125.792,38.488 C124.063991,38.488 122.624006,38.1600033 121.472,37.504 C120.879997,37.1679983 120.584,36.7680023 120.584,36.304 C120.584,36.0319986 120.659999,35.8080009 120.812,35.632 C120.964001,35.4559991 121.151999,35.368 121.376,35.368 C121.584001,35.368 121.911998,35.4879988 122.36,35.728 C122.936003,36.0000014 123.471998,36.2119992 123.968,36.364 C124.464002,36.5160008 125.055997,36.592 125.744,36.592 C127.952011,36.592 129.056,35.4800111 129.056,33.256 L129.056,31.408 C128.719998,32.1120035 128.208003,32.659998 127.52,33.052 C126.831997,33.444002 126.032005,33.64 125.12,33.64 C124.095995,33.64 123.184004,33.4000024 122.384,32.92 C121.583996,32.4399976 120.964002,31.7600044 120.524,30.88 C120.083998,29.9999956 119.864,28.9840058 119.864,27.832 C119.864,26.6799942 120.087998,25.6640044 120.536,24.784 C120.984002,23.9039956 121.603996,23.2200024 122.396,22.732 C123.188004,22.2439976 124.095995,22 125.12,22 C126.016004,22 126.803997,22.1919981 127.484,22.576 C128.164003,22.9600019 128.679998,23.5039965 129.032,24.208 L129.032,23.2 C129.032,22.8479982 129.139999,22.568001 129.356,22.36 C129.572001,22.151999 129.863998,22.048 130.232,22.048 C130.600002,22.048 130.891999,22.1559989 131.108,22.372 Z M128.144,30.688 C128.736003,29.9999966 129.032,29.0480061 129.032,27.832 C129.032,26.631994 128.740003,25.6840035 128.156,24.988 C127.571997,24.2919965 126.752005,23.944 125.696,23.944 C124.639995,23.944 123.812003,24.2879966 123.212,24.976 C122.611997,25.6640034 122.312,26.6159939 122.312,27.832 C122.312,29.0480061 122.615997,29.9999966 123.224,30.688 C123.832003,31.3760034 124.655995,31.72 125.696,31.72 C126.736005,31.72 127.551997,31.3760034 128.144,30.688 Z M145.328,26.728 L145.328,32.968 C145.328,33.3360018 145.220001,33.619999 145.004,33.82 C144.787999,34.020001 144.488002,34.12 144.104,34.12 C143.735998,34.12 143.444001,34.016001 143.228,33.808 C143.011999,33.599999 142.904,33.3200018 142.904,32.968 L142.904,26.848 C142.904,25.855995 142.708002,25.1280023 142.316,24.664 C141.923998,24.1999977 141.312004,23.968 140.48,23.968 C139.503995,23.968 138.720003,24.271997 138.128,24.88 C137.535997,25.488003 137.24,26.3039949 137.24,27.328 L137.24,32.968 C137.24,33.3200018 137.132001,33.599999 136.916,33.808 C136.699999,34.016001 136.408002,34.12 136.04,34.12 C135.671998,34.12 135.376001,34.016001 135.152,33.808 C134.927999,33.599999 134.816,33.3200018 134.816,32.968 L134.816,23.2 C134.816,22.8639983 134.931999,22.5880011 135.164,22.372 C135.396001,22.1559989 135.687998,22.048 136.04,22.048 C136.392002,22.048 136.671999,22.151999 136.88,22.36 C137.088001,22.568001 137.192,22.8399983 137.192,23.176 L137.192,24.16 C137.576002,23.4559965 138.111997,22.9200018 138.8,22.552 C139.488003,22.1839982 140.263996,22 141.128,22 C143.928014,22 145.328,23.5759842 145.328,26.728 Z M164.924,22.36 C165.140001,22.568001 165.248,22.8559982 165.248,23.224 L165.248,32.992 C165.248,33.3280017 165.136001,33.599999 164.912,33.808 C164.687999,34.016001 164.392002,34.12 164.024,34.12 C163.687998,34.12 163.416001,34.020001 163.208,33.82 C162.999999,33.619999 162.896,33.3520017 162.896,33.016 L162.896,32.104 C162.527998,32.7760034 162.020003,33.2879982 161.372,33.64 C160.723997,33.9920018 160.000004,34.168 159.2,34.168 C156.351986,34.168 154.928,32.6000157 154.928,29.464 L154.928,23.224 C154.928,22.8559982 155.035999,22.568001 155.252,22.36 C155.468001,22.151999 155.767998,22.048 156.152,22.048 C156.520002,22.048 156.811999,22.151999 157.028,22.36 C157.244001,22.568001 157.352,22.8559982 157.352,23.224 L157.352,29.44 C157.352,30.3840047 157.543998,31.0799978 157.928,31.528 C158.312002,31.9760022 158.903996,32.2 159.704,32.2 C160.648005,32.2 161.403997,31.896003 161.972,31.288 C162.540003,30.679997 162.824,29.872005 162.824,28.864 L162.824,23.224 C162.824,22.8719982 162.935999,22.5880011 163.16,22.372 C163.384001,22.1559989 163.679998,22.048 164.048,22.048 C164.416002,22.048 164.707999,22.151999 164.924,22.36 Z M177.62,22.768 C178.412004,23.2800026 179.027998,23.9999954 179.468,24.928 C179.908002,25.8560046 180.128,26.9279939 180.128,28.144 C180.128,29.344006 179.912002,30.3999954 179.48,31.312 C179.047998,32.2240046 178.436004,32.9279975 177.644,33.424 C176.851996,33.9200025 175.944005,34.168 174.92,34.168 C174.039996,34.168 173.264003,33.9800019 172.592,33.604 C171.919997,33.2279981 171.408002,32.6880035 171.056,31.984 L171.056,37.336 C171.056,37.6720017 170.948001,37.939999 170.732,38.14 C170.515999,38.340001 170.232002,38.44 169.88,38.44 C169.511998,38.44 169.212001,38.336001 168.98,38.128 C168.747999,37.919999 168.632,37.6400018 168.632,37.288 L168.632,23.224 C168.632,22.8719982 168.743999,22.5880011 168.968,22.372 C169.192001,22.1559989 169.487998,22.048 169.856,22.048 C170.208002,22.048 170.495999,22.1559989 170.72,22.372 C170.944001,22.5880011 171.056,22.8719982 171.056,23.224 L171.056,24.208 C171.408002,23.5039965 171.919997,22.9600019 172.592,22.576 C173.264003,22.1919981 174.039996,22 174.92,22 C175.928005,22 176.827996,22.2559974 177.62,22.768 Z M176.792,31.18 C177.368003,30.4679964 177.656,29.4560066 177.656,28.144 C177.656,26.8159934 177.364003,25.7840037 176.78,25.048 C176.195997,24.3119963 175.384005,23.944 174.344,23.944 C173.287995,23.944 172.476003,24.3039964 171.908,25.024 C171.339997,25.7440036 171.056,26.7679934 171.056,28.096 C171.056,29.4240066 171.339997,30.4479964 171.908,31.168 C172.476003,31.8880036 173.287995,32.248 174.344,32.248 C175.400005,32.248 176.215997,31.8920036 176.792,31.18 Z" id="Sign-up" fill="#FFFFFF"></path>
            </g>
        </g>
    </g>
</svg>