<?xml version="1.0" encoding="UTF-8"?>
<svg width="30px" height="30px" viewBox="0 0 30 30" version="1.1" xmlns="http://www.w3.org/2000/svg" xmlns:xlink="http://www.w3.org/1999/xlink">
    <!-- Generator: Sketch 49.3 (51167) - http://www.bohemiancoding.com/sketch -->
    <title>facebook</title>
    <desc>Created with Sketch.</desc>
    <defs></defs>
    <g id="iOS-App" stroke="none" stroke-width="1" fill="none" fill-rule="evenodd">
        <g id="Settings---notifications-Copy" transform="translate(-20.000000, -468.000000)" fill="#3B5998" fill-rule="nonzero">
            <g id="facebook" transform="translate(20.000000, 468.000000)">
                <path d="M28.1818182,0.181818182 L1.86363636,0.181818182 C0.954545455,0.181818182 0.227272727,0.909090909 0.227272727,1.81818182 L0.227272727,28.0909091 C0.227272727,29 0.954545455,29.7272727 1.86363636,29.7272727 L16,29.7272727 L16,18.2727273 L12.1363636,18.2727273 L12.1363636,13.8181818 L16,13.8181818 L16,10.5454545 C16,6.72727273 18.3181818,4.63636364 21.7272727,4.63636364 C23.3636364,4.63636364 24.7727273,4.77272727 25.1818182,4.81818182 L25.1818182,8.81818182 L22.8181818,8.81818182 C20.9545455,8.81818182 20.5909091,9.72727273 20.5909091,11 L20.5909091,13.8636364 L25,13.8636364 L24.4090909,18.3181818 L20.5909091,18.3181818 L20.5909091,29.7272727 L28.1818182,29.7272727 C29.0909091,29.7272727 29.8181818,29 29.8181818,28.0909091 L29.8181818,1.81818182 C29.8181818,0.909090909 29.0454545,0.181818182 28.1818182,0.181818182" id="Shape"></path>
            </g>
        </g>
    </g>
</svg>