<?xml version="1.0" encoding="UTF-8"?>
<svg width="152px" height="152px" viewBox="0 0 152 152" version="1.1" xmlns="http://www.w3.org/2000/svg" xmlns:xlink="http://www.w3.org/1999/xlink">
    <!-- Generator: Sketch 49.3 (51167) - http://www.bohemiancoding.com/sketch -->
    <title>alphabet</title>
    <desc>Created with Sketch.</desc>
    <defs>
        <linearGradient x1="70.1636097%" y1="43.031523%" x2="39.2094026%" y2="100%" id="linearGradient-1">
            <stop stop-color="#A4E0EB" offset="0%"></stop>
            <stop stop-color="#8ACAD8" offset="100%"></stop>
        </linearGradient>
        <rect id="path-2" x="0" y="0" width="140" height="140" rx="10"></rect>
        <filter x="-5.4%" y="-5.4%" width="115.0%" height="115.0%" filterUnits="objectBoundingBox" id="filter-3">
            <feOffset dx="3" dy="3" in="SourceAlpha" result="shadowOffsetOuter1"></feOffset>
            <feGaussianBlur stdDeviation="3" in="shadowOffsetOuter1" result="shadowBlurOuter1"></feGaussianBlur>
            <feColorMatrix values="0 0 0 0 0.541176471   0 0 0 0 0.792156863   0 0 0 0 0.847058824  0 0 0 0.25 0" type="matrix" in="shadowBlurOuter1"></feColorMatrix>
        </filter>
    </defs>
    <g id="iOS-App" stroke="none" stroke-width="1" fill="none" fill-rule="evenodd">
        <g id="Parents-Dashboard-Copy" transform="translate(-17.000000, -248.000000)">
            <g id="alphabet" transform="translate(20.000000, 251.000000)">
                <g>
                    <g id="Rectangle-4">
                        <use fill="black" fill-opacity="1" filter="url(#filter-3)" xlink:href="#path-2"></use>
                        <use fill="url(#linearGradient-1)" fill-rule="evenodd" xlink:href="#path-2"></use>
                    </g>
                    <path d="M20.168,114.52 C20.168,114.680001 20.1066673,114.813333 19.984,114.92 C19.8613327,115.026667 19.7146675,115.08 19.544,115.08 C19.277332,115.08 19.0906672,114.952001 18.984,114.696 L17.848,112.104 L11.816,112.104 L10.664,114.696 C10.5573328,114.952001 10.370668,115.08 10.104,115.08 C9.93333248,115.08 9.78400064,115.024001 9.656,114.912 C9.52799936,114.799999 9.464,114.664001 9.464,114.504 C9.464,114.418666 9.48533312,114.333334 9.528,114.248 L14.104,104.072 C14.1680003,103.922666 14.2639994,103.810667 14.392,103.736 C14.5200006,103.661333 14.6586659,103.624 14.808,103.624 C14.9680008,103.624 15.1119994,103.664 15.24,103.744 C15.3680006,103.824 15.4639997,103.933333 15.528,104.072 L20.104,114.248 C20.1466669,114.333334 20.168,114.424 20.168,114.52 Z M12.296,111.016 L17.368,111.016 L14.824,105.272 L12.296,111.016 Z M22.016,114.912 C21.8933327,114.799999 21.832,114.642668 21.832,114.44 L21.832,104.28 C21.832,104.077332 21.8933327,103.920001 22.016,103.808 C22.1386673,103.695999 22.295999,103.64 22.488,103.64 C22.6693342,103.64 22.8213327,103.695999 22.944,103.808 C23.0666673,103.920001 23.128,104.077332 23.128,104.28 L23.128,114.44 C23.128,114.642668 23.0666673,114.799999 22.944,114.912 C22.8213327,115.024001 22.6693342,115.08 22.488,115.08 C22.295999,115.08 22.1386673,115.024001 22.016,114.912 Z M31.272,107.528 C31.7946693,107.869335 32.1999986,108.346664 32.488,108.96 C32.7760014,109.573336 32.92,110.285329 32.92,111.096 C32.92,111.906671 32.7760014,112.61333 32.488,113.216 C32.1999986,113.81867 31.7973359,114.285332 31.28,114.616 C30.7626641,114.946668 30.1573368,115.112 29.464,115.112 C28.855997,115.112 28.3253356,114.978668 27.872,114.712 C27.4186644,114.445332 27.0746678,114.066669 26.84,113.576 L26.84,117.336 C26.84,117.528001 26.7840006,117.679999 26.672,117.792 C26.5599994,117.904001 26.4026677,117.96 26.2,117.96 C25.9973323,117.96 25.8373339,117.901334 25.72,117.784 C25.6026661,117.666666 25.544,117.517334 25.544,117.336 L25.544,107.688 C25.544,107.495999 25.6026661,107.341334 25.72,107.224 C25.8373339,107.106666 25.9973323,107.048 26.2,107.048 C26.4026677,107.048 26.5599994,107.106666 26.672,107.224 C26.7840006,107.341334 26.84,107.495999 26.84,107.688 L26.84,108.552 C27.0746678,108.061331 27.4186644,107.682668 27.872,107.416 C28.3253356,107.149332 28.855997,107.016 29.464,107.016 C30.1466701,107.016 30.7493307,107.186665 31.272,107.528 Z M30.968,113.272 C31.3840021,112.759997 31.592,112.034671 31.592,111.096 C31.592,110.157329 31.3840021,109.424003 30.968,108.896 C30.5519979,108.367997 29.9653371,108.104 29.208,108.104 C28.4506629,108.104 27.8666687,108.359997 27.456,108.872 C27.0453313,109.384003 26.84,110.114662 26.84,111.064 C26.84,112.013338 27.0453313,112.746664 27.456,113.264 C27.8666687,113.781336 28.4506629,114.04 29.208,114.04 C29.9653371,114.04 30.5519979,113.784003 30.968,113.272 Z M40.872,107.792 C41.3413357,108.309336 41.576,109.079995 41.576,110.104 L41.576,114.44 C41.576,114.642668 41.5173339,114.799999 41.4,114.912 C41.2826661,115.024001 41.128001,115.08 40.936,115.08 C40.7333323,115.08 40.5733339,115.024001 40.456,114.912 C40.3386661,114.799999 40.28,114.642668 40.28,114.44 L40.28,110.136 C40.28,109.442663 40.1386681,108.930668 39.856,108.6 C39.5733319,108.269332 39.1226698,108.104 38.504,108.104 C37.7893298,108.104 37.2186688,108.322664 36.792,108.76 C36.3653312,109.197336 36.152,109.78933 36.152,110.536 L36.152,114.44 C36.152,114.642668 36.0960006,114.799999 35.984,114.912 C35.8719994,115.024001 35.7146677,115.08 35.512,115.08 C35.3093323,115.08 35.1493339,115.024001 35.032,114.912 C34.9146661,114.799999 34.856,114.642668 34.856,114.44 L34.856,104.264 C34.856,104.082666 34.9173327,103.933334 35.04,103.816 C35.1626673,103.698666 35.319999,103.64 35.512,103.64 C35.7146677,103.64 35.8719994,103.695999 35.984,103.808 C36.0960006,103.920001 36.152,104.071999 36.152,104.264 L36.152,108.456 C36.4080013,107.986664 36.765331,107.629335 37.224,107.384 C37.682669,107.138665 38.2053304,107.016 38.792,107.016 C39.7093379,107.016 40.4026643,107.274664 40.872,107.792 Z M50.056,110.088 L50.056,114.44 C50.056,114.632001 50.0000006,114.786666 49.888,114.904 C49.7759994,115.021334 49.624001,115.08 49.432,115.08 C49.239999,115.08 49.0853339,115.021334 48.968,114.904 C48.8506661,114.786666 48.792,114.632001 48.792,114.44 L48.792,113.672 C48.5893323,114.130669 48.2800021,114.485332 47.864,114.736 C47.4479979,114.986668 46.9680027,115.112 46.424,115.112 C45.9226642,115.112 45.4613354,115.010668 45.04,114.808 C44.6186646,114.605332 44.2853346,114.322668 44.04,113.96 C43.7946654,113.597332 43.672,113.197336 43.672,112.76 C43.672,112.17333 43.8213318,111.717335 44.12,111.392 C44.4186682,111.066665 44.9093299,110.832001 45.592,110.688 C46.2746701,110.543999 47.2239939,110.472 48.44,110.472 L48.792,110.472 L48.792,109.944 C48.792,109.303997 48.6613346,108.834668 48.4,108.536 C48.1386654,108.237332 47.7146696,108.088 47.128,108.088 C46.402663,108.088 45.6666704,108.285331 44.92,108.68 C44.6319986,108.861334 44.4293339,108.952 44.312,108.952 C44.1839994,108.952 44.0773338,108.904 43.992,108.808 C43.9066662,108.712 43.864,108.589334 43.864,108.44 C43.864,108.290666 43.9093329,108.160001 44,108.048 C44.0906671,107.935999 44.2373323,107.821334 44.44,107.704 C44.8133352,107.490666 45.237331,107.322667 45.712,107.2 C46.186669,107.077333 46.6586643,107.016 47.128,107.016 C49.0800098,107.016 50.056,108.03999 50.056,110.088 Z M48.176,113.44 C48.5866687,113.007998 48.792,112.45067 48.792,111.768 L48.792,111.304 L48.504,111.304 C47.5653286,111.304 46.8506691,111.344 46.36,111.424 C45.8693309,111.504 45.520001,111.637332 45.312,111.824 C45.103999,112.010668 45,112.285332 45,112.648 C45,113.064002 45.1519985,113.407999 45.456,113.68 C45.7600015,113.952001 46.141331,114.088 46.6,114.088 C47.2400032,114.088 47.7653313,113.872002 48.176,113.44 Z M58.152,107.512 C58.6746693,107.842668 59.0799986,108.311997 59.368,108.92 C59.6560014,109.528003 59.8,110.231996 59.8,111.032 C59.8,111.842671 59.6560014,112.554664 59.368,113.168 C59.0799986,113.781336 58.6746693,114.258665 58.152,114.6 C57.6293307,114.941335 57.0266701,115.112 56.344,115.112 C55.735997,115.112 55.2053356,114.978668 54.752,114.712 C54.2986644,114.445332 53.9546678,114.066669 53.72,113.576 L53.72,114.44 C53.72,114.632001 53.6640006,114.786666 53.552,114.904 C53.4399994,115.021334 53.2826677,115.08 53.08,115.08 C52.8773323,115.08 52.7173339,115.021334 52.6,114.904 C52.4826661,114.786666 52.424,114.632001 52.424,114.44 L52.424,104.264 C52.424,104.082666 52.4826661,103.933334 52.6,103.816 C52.7173339,103.698666 52.8773323,103.64 53.08,103.64 C53.2826677,103.64 53.4399994,103.695999 53.552,103.808 C53.6640006,103.920001 53.72,104.071999 53.72,104.264 L53.72,108.552 C53.9546678,108.061331 54.2986644,107.682668 54.752,107.416 C55.2053356,107.149332 55.735997,107.016 56.344,107.016 C57.0266701,107.016 57.6293307,107.181332 58.152,107.512 Z M57.848,113.248 C58.2640021,112.719997 58.472,111.981338 58.472,111.032 C58.472,110.103995 58.2640021,109.384003 57.848,108.872 C57.4319979,108.359997 56.8453371,108.104 56.088,108.104 C55.3306629,108.104 54.7466687,108.359997 54.336,108.872 C53.9253313,109.384003 53.72,110.114662 53.72,111.064 C53.72,112.013338 53.9253313,112.746664 54.336,113.264 C54.7466687,113.781336 55.3306629,114.04 56.088,114.04 C56.8453371,114.04 57.4319979,113.776003 57.848,113.248 Z M68.072,113.336 C68.1573338,113.432 68.2,113.554666 68.2,113.704 C68.2,113.970668 68.0133352,114.215999 67.64,114.44 C67.2559981,114.664001 66.8506688,114.831999 66.424,114.944 C65.9973312,115.056001 65.5813354,115.112 65.176,115.112 C63.9706606,115.112 63.0186702,114.75467 62.32,114.04 C61.6213298,113.32533 61.272,112.338673 61.272,111.08 C61.272,110.279996 61.4266651,109.573336 61.736,108.96 C62.0453349,108.346664 62.4799972,107.869335 63.04,107.528 C63.6000028,107.186665 64.2373298,107.016 64.952,107.016 C65.9653384,107.016 66.7706637,107.346663 67.368,108.008 C67.9653363,108.669337 68.264,109.565328 68.264,110.696 C68.264,110.909334 68.2213338,111.064 68.136,111.16 C68.0506662,111.256 67.912001,111.304 67.72,111.304 L62.568,111.304 C62.6640005,113.138676 63.5333251,114.056 65.176,114.056 C65.5920021,114.056 65.9493318,114.000001 66.248,113.888 C66.5466682,113.775999 66.866665,113.624001 67.208,113.432 C67.4853347,113.271999 67.6719995,113.192 67.768,113.192 C67.8853339,113.192 67.9866662,113.24 68.072,113.336 Z M63.328,108.664 C62.9173313,109.090669 62.674667,109.693329 62.6,110.472 L67.128,110.472 C67.1066666,109.682663 66.9093352,109.077335 66.536,108.656 C66.1626648,108.234665 65.6400034,108.024 64.968,108.024 C64.2853299,108.024 63.7386687,108.237331 63.328,108.664 Z M74.328,114.568 C74.328,114.749334 74.261334,114.885333 74.128,114.976 C73.994666,115.066667 73.794668,115.101333 73.528,115.08 L73.096,115.048 C72.2426624,114.984 71.6133354,114.728002 71.208,114.28 C70.8026646,113.831998 70.6,113.154671 70.6,112.248 L70.6,108.232 L69.528,108.232 C69.3466658,108.232 69.2053338,108.186667 69.104,108.096 C69.0026662,108.005333 68.952,107.885334 68.952,107.736 C68.952,107.575999 69.0026662,107.448 69.104,107.352 C69.2053338,107.256 69.3466658,107.208 69.528,107.208 L70.6,107.208 L70.6,105.4 C70.6,105.197332 70.6586661,105.040001 70.776,104.928 C70.8933339,104.815999 71.0533323,104.76 71.256,104.76 C71.448001,104.76 71.6026661,104.815999 71.72,104.928 C71.8373339,105.040001 71.896,105.197332 71.896,105.4 L71.896,107.208 L73.672,107.208 C73.8426675,107.208 73.9786662,107.256 74.08,107.352 C74.1813338,107.448 74.232,107.575999 74.232,107.736 C74.232,107.885334 74.1813338,108.005333 74.08,108.096 C73.9786662,108.186667 73.8426675,108.232 73.672,108.232 L71.896,108.232 L71.896,112.312 C71.896,112.89867 72.0159988,113.322665 72.256,113.584 C72.4960012,113.845335 72.8559976,113.992 73.336,114.024 L73.768,114.056 C74.1413352,114.088 74.328,114.258665 74.328,114.568 Z" id="Alphabet" fill="#FFFFFF"></path>
                    <path d="M15.432,127.28 C15.5120004,127.352 15.552,127.451999 15.552,127.58 C15.552,127.860001 15.4000015,128 15.096,128 L10.392,128 C10.2559993,128 10.1440004,127.958 10.056,127.874 C9.96799956,127.79 9.924,127.688001 9.924,127.568 C9.924,127.415999 9.97999944,127.284001 10.092,127.172 L12.984,123.992 C13.384002,123.543998 13.6739991,123.142002 13.854,122.786 C14.0340009,122.429998 14.124,122.072002 14.124,121.712 C14.124,121.247998 13.9900013,120.892001 13.722,120.644 C13.4539987,120.395999 13.0760024,120.272 12.588,120.272 C12.2039981,120.272 11.8360018,120.341999 11.484,120.482 C11.1319982,120.622001 10.7800018,120.835999 10.428,121.124 C10.3079994,121.22 10.1960005,121.268 10.092,121.268 C10.0039996,121.268 9.92800032,121.226 9.864,121.142 C9.79999968,121.058 9.768,120.956001 9.768,120.836 C9.768,120.667999 9.83199936,120.532001 9.96,120.428 C10.2880016,120.123998 10.6879976,119.884001 11.16,119.708 C11.6320024,119.531999 12.1159975,119.444 12.612,119.444 C13.3720038,119.444 13.9779977,119.643998 14.43,120.044 C14.8820023,120.444002 15.108,120.983997 15.108,121.664 C15.108,122.152002 14.9980011,122.619998 14.778,123.068 C14.5579989,123.516002 14.1960025,124.015997 13.692,124.568 L11.292,127.172 L15.096,127.172 C15.2400007,127.172 15.3519996,127.208 15.432,127.28 Z M21.516,123.02 C21.916002,123.244001 22.2279989,123.559998 22.452,123.968 C22.6760011,124.376002 22.788,124.843997 22.788,125.372 C22.788,125.892003 22.6720012,126.359998 22.44,126.776 C22.2079988,127.192002 21.8840021,127.515999 21.468,127.748 C21.0519979,127.980001 20.5840026,128.096 20.064,128.096 C19.0399949,128.096 18.2500028,127.740004 17.694,127.028 C17.1379972,126.315996 16.86,125.300007 16.86,123.98 C16.86,123.035995 16.9879987,122.224003 17.244,121.544 C17.5000013,120.863997 17.8719976,120.344002 18.36,119.984 C18.8480024,119.623998 19.4279966,119.444 20.1,119.444 C20.5560023,119.444 21.0099977,119.531999 21.462,119.708 C21.9140023,119.884001 22.2999984,120.123998 22.62,120.428 C22.7560007,120.556001 22.824,120.691999 22.824,120.836 C22.824,120.956001 22.7920003,121.056 22.728,121.136 C22.6639997,121.216 22.5880004,121.256 22.5,121.256 C22.3879994,121.256 22.2720006,121.212 22.152,121.124 C21.4559965,120.555997 20.7800033,120.272 20.124,120.272 C19.4119964,120.272 18.856002,120.595997 18.456,121.244 C18.055998,121.892003 17.856,122.799994 17.856,123.968 L17.856,124.124 C18.0400009,123.675998 18.3379979,123.324001 18.75,123.068 C19.1620021,122.811999 19.6279974,122.684 20.148,122.684 C20.6600026,122.684 21.115998,122.795999 21.516,123.02 Z M21.324,126.752 C21.6520016,126.407998 21.816,125.952003 21.816,125.384 C21.816,124.815997 21.6500017,124.362002 21.318,124.022 C20.9859983,123.681998 20.5480027,123.512 20.004,123.512 C19.4519972,123.512 19.0020017,123.685998 18.654,124.034 C18.3059983,124.382002 18.132,124.831997 18.132,125.384 C18.132,125.944003 18.3059983,126.397998 18.654,126.746 C19.0020017,127.094002 19.4559972,127.268 20.016,127.268 C20.5600027,127.268 20.9959984,127.096002 21.324,126.752 Z M28.302,127.952 C27.9699983,127.864 27.6760013,127.740001 27.42,127.58 C27.2759993,127.484 27.1740003,127.394 27.114,127.31 C27.0539997,127.226 27.024,127.124001 27.024,127.004 C27.024,126.899999 27.0539997,126.814 27.114,126.746 C27.1740003,126.678 27.2519995,126.644 27.348,126.644 C27.4440005,126.644 27.5839991,126.703999 27.768,126.824 C28.0080012,126.968001 28.2459988,127.082 28.482,127.166 C28.7180012,127.25 29.0119982,127.292 29.364,127.292 C29.7960022,127.292 30.1319988,127.216001 30.372,127.064 C30.6120012,126.911999 30.732,126.692001 30.732,126.404 C30.732,126.227999 30.6880004,126.086001 30.6,125.978 C30.5119996,125.869999 30.3600011,125.774 30.144,125.69 C29.9279989,125.606 29.6120021,125.52 29.196,125.432 C28.4919965,125.279999 27.9880015,125.076001 27.684,124.82 C27.3799985,124.563999 27.228,124.216002 27.228,123.776 C27.228,123.431998 27.323999,123.128001 27.516,122.864 C27.708001,122.599999 27.9739983,122.392001 28.314,122.24 C28.6540017,122.087999 29.0399978,122.012 29.472,122.012 C29.7840016,122.012 30.0859985,122.054 30.378,122.138 C30.6700015,122.222 30.9279989,122.339999 31.152,122.492 C31.4240014,122.684001 31.56,122.883999 31.56,123.092 C31.56,123.196001 31.5280003,123.284 31.464,123.356 C31.3999997,123.428 31.3240004,123.464 31.236,123.464 C31.1399995,123.464 30.996001,123.396001 30.804,123.26 C30.5799989,123.115999 30.368001,123.004 30.168,122.924 C29.967999,122.844 29.7200015,122.804 29.424,122.804 C29.0479981,122.804 28.7460011,122.887999 28.518,123.056 C28.2899989,123.224001 28.176,123.447999 28.176,123.728 C28.176,123.904001 28.2179996,124.045999 28.302,124.154 C28.3860004,124.262001 28.525999,124.358 28.722,124.442 C28.918001,124.526 29.1999982,124.608 29.568,124.688 C30.1120027,124.808001 30.5339985,124.939999 30.834,125.084 C31.1340015,125.228001 31.3479994,125.403999 31.476,125.612 C31.6040006,125.820001 31.668,126.083998 31.668,126.404 C31.668,126.908003 31.4560021,127.313998 31.032,127.622 C30.6079979,127.930002 30.0480035,128.084 29.352,128.084 C28.9839982,128.084 28.6340017,128.04 28.302,127.952 Z M33.282,127.934 C33.1899995,127.85 33.144,127.732001 33.144,127.58 L33.144,122.516 C33.144,122.363999 33.1899995,122.246 33.282,122.162 C33.3740005,122.078 33.4919993,122.036 33.636,122.036 C33.7800007,122.036 33.8959996,122.078 33.984,122.162 C34.0720004,122.246 34.116,122.363999 34.116,122.516 L34.116,127.58 C34.116,127.740001 34.0720004,127.86 33.984,127.94 C33.8959996,128.02 33.7800007,128.06 33.636,128.06 C33.4919993,128.06 33.3740005,128.018 33.282,127.934 Z M33.168,120.608 C33.0479994,120.495999 32.988,120.348001 32.988,120.164 C32.988,119.987999 33.0479994,119.844001 33.168,119.732 C33.2880006,119.619999 33.443999,119.564 33.636,119.564 C33.828001,119.564 33.9839994,119.619999 34.104,119.732 C34.2240006,119.844001 34.284,119.987999 34.284,120.164 C34.284,120.348001 34.2240006,120.495999 34.104,120.608 C33.9839994,120.720001 33.828001,120.776 33.636,120.776 C33.443999,120.776 33.2880006,120.720001 33.168,120.608 Z M41.028,122.168 C41.1160004,122.256 41.16,122.371999 41.16,122.516 L41.16,127.604 C41.16,128.476004 40.9360022,129.133998 40.488,129.578 C40.0399978,130.022002 39.3760044,130.244 38.496,130.244 C37.6399957,130.244 36.9280028,130.076002 36.36,129.74 C36.0719986,129.579999 35.928,129.396001 35.928,129.188 C35.928,129.075999 35.9579997,128.984 36.018,128.912 C36.0780003,128.84 36.1559995,128.804 36.252,128.804 C36.3320004,128.804 36.475999,128.859999 36.684,128.972 C36.9640014,129.116001 37.2399986,129.232 37.512,129.32 C37.7840014,129.408 38.1079981,129.452 38.484,129.452 C39.0520028,129.452 39.4799986,129.302001 39.768,129.002 C40.0560014,128.701999 40.2,128.264003 40.2,127.688 L40.2,126.656 C40.0319992,127.032002 39.7740017,127.319999 39.426,127.52 C39.0779983,127.720001 38.6680024,127.82 38.196,127.82 C37.6839974,127.82 37.230002,127.700001 36.834,127.46 C36.437998,127.219999 36.1300011,126.880002 35.91,126.44 C35.6899989,125.999998 35.58,125.492003 35.58,124.916 C35.58,124.339997 35.6899989,123.832002 35.91,123.392 C36.1300011,122.951998 36.437998,122.612001 36.834,122.372 C37.230002,122.131999 37.6839974,122.012 38.196,122.012 C38.6600023,122.012 39.0639983,122.111999 39.408,122.312 C39.7520017,122.512001 40.0119991,122.795998 40.188,123.164 L40.188,122.516 C40.188,122.371999 40.2299996,122.256 40.314,122.168 C40.3980004,122.08 40.5159992,122.036 40.668,122.036 C40.8200008,122.036 40.9399996,122.08 41.028,122.168 Z M39.708,126.458 C40.0280016,126.085998 40.188,125.572003 40.188,124.916 C40.188,124.267997 40.0300016,123.758002 39.714,123.386 C39.3979984,123.013998 38.9560028,122.828 38.388,122.828 C37.8199972,122.828 37.3740016,123.013998 37.05,123.386 C36.7259984,123.758002 36.564,124.267997 36.564,124.916 C36.564,125.572003 36.7259984,126.085998 37.05,126.458 C37.3740016,126.830002 37.8199972,127.016 38.388,127.016 C38.9480028,127.016 39.3879984,126.830002 39.708,126.458 Z M48,124.328 L48,127.58 C48,127.732001 47.9580004,127.85 47.874,127.934 C47.7899996,128.018 47.6720008,128.06 47.52,128.06 C47.3679992,128.06 47.2480004,128.018 47.16,127.934 C47.0719996,127.85 47.028,127.732001 47.028,127.58 L47.028,124.388 C47.028,123.843997 46.9220011,123.448001 46.71,123.2 C46.4979989,122.951999 46.1600023,122.828 45.696,122.828 C45.1599973,122.828 44.7320016,122.991998 44.412,123.32 C44.0919984,123.648002 43.932,124.091997 43.932,124.652 L43.932,127.58 C43.932,127.732001 43.8900004,127.85 43.806,127.934 C43.7219996,128.018 43.6040008,128.06 43.452,128.06 C43.2999992,128.06 43.1800004,128.018 43.092,127.934 C43.0039996,127.85 42.96,127.732001 42.96,127.58 L42.96,122.516 C42.96,122.371999 43.0039996,122.256 43.092,122.168 C43.1800004,122.08 43.2999992,122.036 43.452,122.036 C43.5960007,122.036 43.7099996,122.08 43.794,122.168 C43.8780004,122.256 43.92,122.367999 43.92,122.504 L43.92,123.116 C44.112001,122.755998 44.3799983,122.482001 44.724,122.294 C45.0680017,122.105999 45.4599978,122.012 45.9,122.012 C47.300007,122.012 48,122.783992 48,124.328 Z M50.694,127.952 C50.3619983,127.864 50.0680013,127.740001 49.812,127.58 C49.6679993,127.484 49.5660003,127.394 49.506,127.31 C49.4459997,127.226 49.416,127.124001 49.416,127.004 C49.416,126.899999 49.4459997,126.814 49.506,126.746 C49.5660003,126.678 49.6439995,126.644 49.74,126.644 C49.8360005,126.644 49.9759991,126.703999 50.16,126.824 C50.4000012,126.968001 50.6379988,127.082 50.874,127.166 C51.1100012,127.25 51.4039982,127.292 51.756,127.292 C52.1880022,127.292 52.5239988,127.216001 52.764,127.064 C53.0040012,126.911999 53.124,126.692001 53.124,126.404 C53.124,126.227999 53.0800004,126.086001 52.992,125.978 C52.9039996,125.869999 52.7520011,125.774 52.536,125.69 C52.3199989,125.606 52.0040021,125.52 51.588,125.432 C50.8839965,125.279999 50.3800015,125.076001 50.076,124.82 C49.7719985,124.563999 49.62,124.216002 49.62,123.776 C49.62,123.431998 49.715999,123.128001 49.908,122.864 C50.100001,122.599999 50.3659983,122.392001 50.706,122.24 C51.0460017,122.087999 51.4319978,122.012 51.864,122.012 C52.1760016,122.012 52.4779985,122.054 52.77,122.138 C53.0620015,122.222 53.3199989,122.339999 53.544,122.492 C53.8160014,122.684001 53.952,122.883999 53.952,123.092 C53.952,123.196001 53.9200003,123.284 53.856,123.356 C53.7919997,123.428 53.7160004,123.464 53.628,123.464 C53.5319995,123.464 53.388001,123.396001 53.196,123.26 C52.9719989,123.115999 52.760001,123.004 52.56,122.924 C52.359999,122.844 52.1120015,122.804 51.816,122.804 C51.4399981,122.804 51.1380011,122.887999 50.91,123.056 C50.6819989,123.224001 50.568,123.447999 50.568,123.728 C50.568,123.904001 50.6099996,124.045999 50.694,124.154 C50.7780004,124.262001 50.917999,124.358 51.114,124.442 C51.310001,124.526 51.5919982,124.608 51.96,124.688 C52.5040027,124.808001 52.9259985,124.939999 53.226,125.084 C53.5260015,125.228001 53.7399994,125.403999 53.868,125.612 C53.9960006,125.820001 54.06,126.083998 54.06,126.404 C54.06,126.908003 53.8480021,127.313998 53.424,127.622 C52.9999979,127.930002 52.4400035,128.084 51.744,128.084 C51.3759982,128.084 51.0260017,128.04 50.694,127.952 Z" id="26-signs" fill="#FFFFFF"></path>
                    <g id="open-button" transform="translate(91.000000, 108.000000)">
                        <rect id="Rectangle-5" fill="#FFFFFF" x="0" y="0" width="44" height="16" rx="8"></rect>
                        <path d="M14.04,4.179 C14.1866674,4.179 14.3186661,4.22849951 14.436,4.3275 C14.5533339,4.4265005 14.612,4.54566597 14.612,4.685 C14.612,4.73633359 14.5936668,4.80599956 14.557,4.894 L11.455,11.692 C11.4036664,11.8093339 11.3230005,11.9009997 11.213,11.967 C11.1029995,12.0330003 10.9856673,12.066 10.861,12.066 C10.7363327,12.066 10.6171672,12.0330003 10.5035,11.967 C10.3898328,11.9009997 10.3073336,11.8093339 10.256,11.692 L7.165,4.894 C7.12833315,4.80599956 7.11,4.73633359 7.11,4.685 C7.11,4.5383326 7.1704994,4.41733381 7.2915,4.322 C7.4125006,4.22666619 7.5463326,4.179 7.693,4.179 C7.92033447,4.179 8.08166619,4.28166564 8.177,4.487 L10.872,10.526 L13.567,4.487 C13.6623338,4.28166564 13.8199989,4.179 14.04,4.179 Z M15.767,11.901 C15.6643328,11.7983328 15.613,11.6590009 15.613,11.483 L15.613,4.762 C15.613,4.59333249 15.6643328,4.45583387 15.767,4.3495 C15.8696672,4.24316614 16.0053325,4.19 16.174,4.19 C16.3500009,4.19 16.4893328,4.24133282 16.592,4.344 C16.6946672,4.44666718 16.746,4.58599912 16.746,4.762 L16.746,11.483 C16.746,11.6590009 16.6965005,11.7983328 16.5975,11.901 C16.4984995,12.0036672 16.3573343,12.055 16.174,12.055 C16.0053325,12.055 15.8696672,12.0036672 15.767,11.901 Z M18.6985,11.8515 C18.5994995,11.7524995 18.55,11.6186675 18.55,11.45 L18.55,4.795 C18.55,4.62633249 18.5994995,4.4925005 18.6985,4.3935 C18.7975005,4.29449951 18.9349991,4.245 19.111,4.245 L23.159,4.245 C23.3276675,4.245 23.4578329,4.28533293 23.5495,4.366 C23.6411671,4.44666707 23.687,4.5603326 23.687,4.707 C23.687,4.8536674 23.6411671,4.96549961 23.5495,5.0425 C23.4578329,5.11950039 23.3276675,5.158 23.159,5.158 L19.661,5.158 L19.661,7.6 L22.939,7.6 C23.1076675,7.6 23.2378329,7.64033293 23.3295,7.721 C23.4211671,7.80166707 23.467,7.9153326 23.467,8.062 C23.467,8.2086674 23.4211671,8.32233293 23.3295,8.403 C23.2378329,8.48366707 23.1076675,8.524 22.939,8.524 L19.661,8.524 L19.661,11.087 L23.159,11.087 C23.5110018,11.087 23.687,11.2373318 23.687,11.538 C23.687,11.6846674 23.6411671,11.7983329 23.5495,11.879 C23.4578329,11.9596671 23.3276675,12 23.159,12 L19.111,12 C18.9349991,12 18.7975005,11.9505005 18.6985,11.8515 Z M35.017,4.267 C35.1050004,4.20833304 35.2039994,4.179 35.314,4.179 C35.453334,4.179 35.5761661,4.22483288 35.6825,4.3165 C35.7888339,4.40816713 35.842,4.5273326 35.842,4.674 C35.842,4.75466707 35.8273335,4.82799967 35.798,4.894 L33.367,11.692 C33.3156664,11.8166673 33.2350005,11.9119997 33.125,11.978 C33.0149994,12.0440003 32.8940007,12.077 32.762,12.077 C32.6373327,12.077 32.5200005,12.0440003 32.41,11.978 C32.2999994,11.9119997 32.2230002,11.8166673 32.179,11.692 L30.177,6.016 L28.131,11.692 C28.0869998,11.8166673 28.0100005,11.9119997 27.9,11.978 C27.7899994,12.0440003 27.6726673,12.077 27.548,12.077 C27.4159993,12.077 27.2968339,12.0440003 27.1905,11.978 C27.0841661,11.9119997 27.0053336,11.8166673 26.954,11.692 L24.523,4.894 C24.4936665,4.82799967 24.479,4.75466707 24.479,4.674 C24.479,4.5273326 24.5339994,4.40816713 24.644,4.3165 C24.7540005,4.22483288 24.8859992,4.179 25.04,4.179 C25.1500005,4.179 25.2508329,4.20833304 25.3425,4.267 C25.4341671,4.32566696 25.5019998,4.41366608 25.546,4.531 L27.581,10.383 L29.649,4.586 C29.6930002,4.46133271 29.7644995,4.36600033 29.8635,4.3 C29.9625005,4.23399967 30.0706661,4.201 30.188,4.201 C30.3053339,4.201 30.4116662,4.23583299 30.507,4.3055 C30.6023338,4.37516702 30.6756664,4.47233271 30.727,4.597 L32.751,10.438 L34.819,4.531 C34.8630002,4.41366608 34.9289996,4.32566696 35.017,4.267 Z" id="VIEW" fill="#290E54"></path>
                    </g>
                </g>
            </g>
        </g>
    </g>
</svg>