<?xml version="1.0" encoding="utf-8"?>
<!-- Generator: Adobe Illustrator 22.0.1, SVG Export Plug-In . SVG Version: 6.00 Build 0)  -->
<svg version="1.1" id="Layer_1" xmlns="http://www.w3.org/2000/svg" xmlns:xlink="http://www.w3.org/1999/xlink" x="0px" y="0px"
	 viewBox="0 0 243 38" style="enable-background:new 0 0 243 38;" xml:space="preserve">
<style type="text/css">
	.st0{enable-background:new    ;}
	.st1{fill:#290E54;}
</style>
<title>Dashboard</title>
<desc>Created with Sketch.</desc>
<g id="iOS-App">
	<g id="Parents-Dashboard" transform="translate(-61.000000, -63.000000)">
		<g class="st0">
			<path class="st1" d="M87.2,81.6c0.1,2.1-0.2,4-0.7,5.7s-1.3,3.4-2.4,4.8s-2.3,2.7-3.8,3.8s-3.2,2-5.1,2.6s-3.9,1.1-6.2,1.3
				s-4.6,0.2-7-0.1V63.4c2.3-0.2,4.5-0.2,6.7-0.1c2.1,0.2,4.1,0.5,5.9,1.1s3.5,1.3,5,2.3c1.5,1,2.8,2.2,3.9,3.6c1.1,1.4,2,3.1,2.6,5
				S87.1,79.3,87.2,81.6z M80.8,83.1c0-1.7-0.2-3.3-0.6-4.8c-0.4-1.5-1.1-2.9-2.1-4.1c-1-1.2-2.3-2.2-3.8-3s-3.5-1.3-5.8-1.4
				l0.1,24.5c1.8-0.1,3.5-0.5,5-1.1s2.8-1.4,3.8-2.4s1.9-2.1,2.5-3.4C80.5,85.9,80.8,84.6,80.8,83.1z"/>
			<path class="st1" d="M115.9,100.3h-7.3v-1.6c-1.7,1.1-3.5,1.7-5.5,1.7c-1.4,0-2.7-0.2-3.9-0.5S97,99,96.1,98.4
				c-0.9-0.6-1.7-1.4-2.4-2.3c-0.7-0.9-1.3-1.8-1.7-2.8s-0.8-2.1-1.1-3.2s-0.4-2.2-0.4-3.3c0-1.2,0-2.4,0.3-3.6s0.5-2.3,1-3.4
				s1-2.1,1.8-3s1.6-1.7,2.5-2.4s2.1-1.2,3.3-1.6s2.6-0.6,4-0.6c1.1,0,2.1,0.1,3,0.4c0.9,0.2,1.8,0.5,2.6,1c0-0.1,0-0.2,0-0.3
				s0-0.3,0-0.5s0-0.3,0-0.5s0-0.2,0-0.3h6.9L115.9,100.3z M102.5,79.2c-0.8,0-1.6,0.2-2.2,0.6c-0.7,0.4-1.2,0.9-1.7,1.5
				s-0.8,1.4-1.1,2.3s-0.3,1.9-0.3,2.9c0,0.5,0.1,1,0.2,1.5s0.3,1.1,0.5,1.6s0.4,1,0.7,1.5c0.3,0.5,0.6,0.9,1,1.2
				c0.4,0.4,0.8,0.7,1.3,0.9s1,0.3,1.6,0.3c1,0,1.9-0.2,2.6-0.7s1.4-1,1.9-1.8s0.9-1.6,1.2-2.5s0.4-1.8,0.4-2.7
				c0-0.9-0.1-1.7-0.4-2.6c-0.3-0.8-0.7-1.6-1.2-2.2c-0.5-0.6-1.2-1.1-2-1.5S103.5,79.1,102.5,79.2z"/>
			<path class="st1" d="M139.4,93.5c0,1.3-0.2,2.4-0.7,3.3c-0.5,0.9-1.1,1.7-1.9,2.3s-1.7,1.1-2.7,1.4s-2.1,0.5-3.3,0.5
				c-1.1,0-2.3-0.1-3.5-0.3s-2.3-0.6-3.4-1c-1.1-0.4-2.1-1-3-1.6s-1.7-1.4-2.3-2.2l3.9-4.9c0.5,0.5,1,0.9,1.6,1.3
				c0.6,0.4,1.2,0.8,1.9,1s1.3,0.5,1.9,0.7s1.2,0.2,1.7,0.2s1-0.2,1.3-0.4s0.6-0.6,0.8-1.1c0.1-0.4,0-0.9-0.5-1.3
				c-0.4-0.4-1-0.9-1.8-1.4s-1.6-1-2.6-1.6s-1.9-1.2-2.8-1.8s-1.8-1.3-2.6-2.1s-1.5-1.5-1.9-2.4c-0.5-0.8-0.7-1.7-0.7-2.6
				s0.1-1.7,0.4-2.5c0.3-0.8,0.8-1.6,1.4-2.3s1.3-1.3,2.1-1.8s1.7-0.9,2.7-1.1c1-0.2,2-0.3,3-0.2c1,0.1,2,0.3,3.1,0.6
				s2.1,0.7,3.1,1.2c1,0.5,1.9,1,2.7,1.6c0.8,0.6,1.4,1.2,1.9,1.8l-4,4.8c-0.7-0.7-1.4-1.3-2.3-1.8c-0.8-0.5-1.6-0.9-2.4-1.1
				s-1.5-0.3-2.1-0.2s-1.1,0.3-1.3,0.8c-0.1,0.3-0.2,0.5-0.1,0.8c0.1,0.3,0.2,0.5,0.5,0.7c0.2,0.2,0.5,0.5,0.8,0.7
				c0.3,0.2,0.7,0.4,1,0.6s0.7,0.4,1,0.5c0.3,0.2,0.6,0.3,0.8,0.4c1.1,0.5,2.2,1,3.3,1.7c1,0.7,1.9,1.5,2.7,2.4s1.4,1.9,1.8,3
				S139.4,92.2,139.4,93.5z"/>
			<path class="st1" d="M149.1,75.5c0.2-0.1,0.4-0.2,0.7-0.3s0.4-0.2,0.7-0.3c2.3-0.9,4.3-1.4,6-1.4s3.2,0.4,4.4,1.3
				s2.2,2.2,2.9,4.1s1.1,4.2,1.3,7c0.1,1,0.1,2,0.2,3.2s0.1,2.3,0.1,3.5s0,2.5,0,3.8s-0.1,2.6-0.1,3.9h-6.8c0.1-1.3,0.1-2.5,0.2-3.8
				s0.1-2.5,0.1-3.6s0-2.2,0-3.2c0-1,0-1.9-0.1-2.7c-0.1-1.3-0.2-2.5-0.5-3.4s-0.6-1.6-1.1-2.1c-0.5-0.5-1.2-0.8-2-0.8
				s-1.8,0.2-3.1,0.7c-1,0.4-1.9,0.9-2.7,1.5l0.1,17.5H142c0-0.5,0-1.2,0-2.1s0-2,0-3.3c0-1.3,0-2.7,0-4.2s0-3.1,0-4.7s0-3.3,0-5
				c0-1.7,0-3.3,0-4.9c0-1.6,0-3.1,0-4.5s0-2.7,0-3.9c0-1.1,0-2.1,0-2.9s0-1.3,0-1.6h6.9L149.1,75.5z"/>
			<path class="st1" d="M181.9,72.5c1.6,0,3,0.3,4.3,0.8c1.3,0.5,2.4,1.2,3.4,2.1s1.8,1.9,2.4,3.1s1.1,2.4,1.4,3.8
				c0.3,1.3,0.5,2.7,0.5,4.1s-0.2,2.8-0.5,4.1c-0.3,1.3-0.8,2.6-1.4,3.7s-1.4,2.2-2.4,3.1c-1,0.9-2.1,1.6-3.4,2.1
				c-1.3,0.5-2.8,0.8-4.4,0.8c-1.3,0-2.5-0.2-3.5-0.5s-2.1-0.7-3-1.2v1.9h-6.9c0-0.3,0-0.8,0-1.6s0-1.7,0-2.9s0-2.4,0-3.9
				c0-1.4,0-3,0-4.6s0-3.3,0-5s0-3.4,0-5s0-3.2,0-4.8s0-2.9,0-4.2s0-2.4,0-3.3s0-1.7,0-2.1h7.3L175.4,74c0.9-0.5,1.9-0.9,3-1.1
				S180.6,72.5,181.9,72.5z M180.9,93.2c1,0.1,1.9-0.1,2.7-0.5s1.4-0.9,1.9-1.5s0.9-1.4,1.2-2.2c0.3-0.8,0.4-1.7,0.5-2.6
				c0-0.9-0.1-1.7-0.3-2.6s-0.6-1.6-1.1-2.3c-0.5-0.7-1.1-1.2-1.8-1.6c-0.7-0.4-1.6-0.6-2.6-0.6c-0.9,0-1.8,0.2-2.5,0.5
				s-1.3,0.8-1.8,1.4s-0.9,1.2-1.2,1.9s-0.5,1.5-0.5,2.3v1.5c0.1,0.8,0.2,1.5,0.5,2.3s0.6,1.4,1.1,2c0.5,0.6,1,1.1,1.7,1.4
				S180,93.2,180.9,93.2z"/>
			<path class="st1" d="M209.7,99.9c-1.8,0-3.3-0.2-4.7-0.7s-2.6-1.2-3.7-2.1c-1-0.9-1.9-1.9-2.6-3.1c-0.7-1.2-1.2-2.4-1.5-3.8
				c-0.3-1.3-0.5-2.7-0.5-4.1s0.2-2.8,0.5-4.1c0.4-1.3,0.9-2.6,1.6-3.8c0.7-1.2,1.6-2.2,2.6-3.1c1-0.9,2.2-1.6,3.6-2.1
				c1.4-0.5,2.9-0.8,4.6-0.8c1.6,0,3.1,0.3,4.4,0.8c1.3,0.5,2.4,1.2,3.4,2.1c1,0.9,1.8,1.9,2.4,3.1s1.1,2.4,1.4,3.7
				c0.3,1.3,0.5,2.7,0.5,4.1c0,1.4-0.2,2.8-0.5,4.1c-0.3,1.3-0.8,2.6-1.4,3.8s-1.4,2.2-2.4,3.1s-2.1,1.6-3.4,2.1
				C212.7,99.6,211.3,99.9,209.7,99.9z M208.8,79.2c-1,0.1-1.8,0.3-2.5,0.7s-1.3,1-1.8,1.6c-0.5,0.7-0.8,1.4-1.1,2.2
				s-0.3,1.7-0.3,2.5c0,0.9,0.1,1.7,0.4,2.5c0.3,0.8,0.6,1.5,1.1,2.2c0.5,0.6,1.1,1.1,1.9,1.5c0.8,0.4,1.6,0.6,2.6,0.6
				c1,0,1.9-0.2,2.6-0.6c0.7-0.4,1.4-0.9,1.8-1.6c0.5-0.7,0.8-1.4,1.1-2.3s0.3-1.7,0.3-2.6c0-0.9-0.2-1.7-0.5-2.6
				c-0.3-0.8-0.7-1.6-1.2-2.2s-1.2-1.1-1.9-1.5S209.8,79.1,208.8,79.2z"/>
			<path class="st1" d="M250.4,100.3h-7.3v-1.6c-1.7,1.1-3.5,1.7-5.5,1.7c-1.4,0-2.7-0.2-3.9-0.5s-2.2-0.9-3.1-1.5
				c-0.9-0.6-1.7-1.4-2.4-2.3c-0.7-0.9-1.3-1.8-1.7-2.8s-0.8-2.1-1.1-3.2c-0.3-1.1-0.4-2.2-0.4-3.3c0-1.2,0-2.4,0.3-3.6
				c0.2-1.2,0.5-2.3,1-3.4c0.5-1.1,1-2.1,1.8-3c0.7-0.9,1.6-1.7,2.5-2.4s2.1-1.2,3.3-1.6s2.6-0.6,4-0.6c1.1,0,2.1,0.1,3,0.4
				c0.9,0.2,1.8,0.5,2.6,1c0-0.1,0-0.2,0-0.3s0-0.3,0-0.5c0-0.2,0-0.3,0-0.5s0-0.2,0-0.3h6.9L250.4,100.3z M237,79.2
				c-0.8,0-1.6,0.2-2.2,0.6c-0.7,0.4-1.2,0.9-1.7,1.5s-0.8,1.4-1.1,2.3c-0.2,0.9-0.3,1.9-0.3,2.9c0,0.5,0.1,1,0.2,1.5
				c0.1,0.5,0.3,1.1,0.5,1.6c0.2,0.5,0.4,1,0.7,1.5c0.3,0.5,0.6,0.9,1,1.2c0.4,0.4,0.8,0.7,1.3,0.9s1,0.3,1.6,0.3
				c1,0,1.9-0.2,2.6-0.7s1.4-1,1.9-1.8s0.9-1.6,1.2-2.5s0.4-1.8,0.4-2.7c0-0.9-0.1-1.7-0.4-2.6c-0.3-0.8-0.7-1.6-1.2-2.2
				c-0.5-0.6-1.2-1.1-2-1.5C238.9,79.3,238,79.1,237,79.2z"/>
			<path class="st1" d="M260.6,74.9c0.6-0.4,1.3-0.7,2.1-0.9c0.8-0.3,1.7-0.4,2.6-0.6s1.9-0.1,2.9-0.1c1,0.1,2,0.2,2.9,0.5
				c1,0.3,1.9,0.6,2.7,1.1c0.9,0.5,1.7,1.1,2.3,1.9l-3,5.3c-0.7-0.6-1.5-1-2.3-1.4s-1.7-0.5-2.5-0.6s-1.7-0.1-2.5,0
				c-0.8,0.1-1.6,0.2-2.2,0.5c-0.7,0.2-1.3,0.5-1.7,0.9c-0.5,0.3-0.8,0.7-1,1.2l0.2,17.9h-7.3c0-0.5,0-1.3,0-2.3s0-2.1,0-3.3
				c0-1.2,0-2.6,0-4s0-2.9,0-4.4c0-1.5,0-2.9,0-4.3c0-1.4,0-2.7,0-3.9c0-1.2,0-2.2,0-3.1c0-0.9,0-1.5,0-1.9h6.9L260.6,74.9z"/>
			<path class="st1" d="M289.4,72.6c1.3,0,2.5,0.1,3.5,0.4c1.1,0.3,2.1,0.7,3,1.1l-0.1-11h7.3c0,0.5,0,1.2,0,2.1c0,0.9,0,2,0,3.3
				c0,1.3,0,2.7,0,4.2c0,1.5,0,3.1,0,4.8c0,1.6,0,3.3,0,5c0,1.7,0,3.3,0,4.9c0,1.6,0,3.1,0,4.6c0,1.4,0,2.7,0,3.9c0,1.1,0,2.1,0,2.9
				c0,0.8,0,1.3,0,1.6h-6.9v-1.8c-0.9,0.5-1.9,0.9-3,1.2s-2.3,0.5-3.5,0.5c-1.6,0-3.1-0.3-4.4-0.8c-1.3-0.5-2.4-1.2-3.4-2.1
				c-1-0.9-1.8-1.9-2.4-3.1s-1.1-2.4-1.4-3.7c-0.3-1.3-0.5-2.7-0.5-4.1c0-1.4,0.2-2.8,0.5-4.1c0.3-1.3,0.8-2.6,1.4-3.8
				s1.4-2.2,2.4-3.1s2.1-1.6,3.4-2.1C286.4,72.8,287.9,72.6,289.4,72.6z M290.4,93.3c0.9-0.1,1.7-0.3,2.3-0.6
				c0.7-0.4,1.2-0.8,1.7-1.4c0.5-0.6,0.8-1.2,1.1-2c0.3-0.7,0.4-1.5,0.5-2.3v-1.5c-0.1-0.8-0.2-1.6-0.5-2.3
				c-0.3-0.7-0.7-1.4-1.2-1.9c-0.5-0.6-1.1-1-1.8-1.4c-0.7-0.3-1.5-0.5-2.5-0.5c-1,0-1.9,0.2-2.6,0.6c-0.7,0.4-1.4,0.9-1.8,1.6
				c-0.5,0.7-0.8,1.4-1.1,2.3s-0.3,1.7-0.3,2.6c0,0.9,0.2,1.7,0.5,2.6c0.3,0.8,0.7,1.6,1.2,2.2s1.2,1.1,1.9,1.5
				S289.4,93.3,290.4,93.3z"/>
		</g>
	</g>
</g>
</svg>
