<?xml version="1.0" encoding="utf-8"?>
<!-- Generator: Adobe Illustrator 22.0.1, SVG Export Plug-In . SVG Version: 6.00 Build 0)  -->
<svg version="1.1" id="Layer_1" xmlns="http://www.w3.org/2000/svg" xmlns:xlink="http://www.w3.org/1999/xlink" x="0px" y="0px"
	 viewBox="0 0 375 20" style="enable-background:new 0 0 375 20;" xml:space="preserve">
<style type="text/css">
	.st0{fill:#FFFFFF;}
</style>
<g>
	<g>
		<path class="st0" d="M310.2,7.8h0.2c1.7,0,2.1-0.9,2.2-1.5h1.4v8.8h-1.7V9h-2.1V7.8z"/>
		<path class="st0" d="M319,6.3c2.1,0,3,1.4,3,4.5s-1,4.5-3,4.5c-2.1,0-3-1.4-3-4.5S316.9,6.3,319,6.3z M319,13.9
			c1,0,1.3-0.9,1.3-3.1c0-2.3-0.3-3.1-1.3-3.1c-1,0-1.3,0.9-1.3,3.1C317.7,13.1,318,13.9,319,13.9z"/>
		<path class="st0" d="M326.4,6.3c2.1,0,3,1.4,3,4.5s-1,4.5-3,4.5c-2.1,0-3-1.4-3-4.5S324.3,6.3,326.4,6.3z M326.4,13.9
			c1,0,1.3-0.9,1.3-3.1c0-2.3-0.3-3.1-1.3-3.1c-1,0-1.3,0.9-1.3,3.1C325.1,13.1,325.4,13.9,326.4,13.9z"/>
		<path class="st0" d="M332.5,6.3c1.2,0,2.3,1,2.3,2.3c0,1.3-1,2.3-2.3,2.3c-1.2,0-2.3-1-2.3-2.3C330.2,7.3,331.2,6.3,332.5,6.3z
			 M332.5,9.5c0.5,0,1-0.4,1-1c0-0.5-0.4-1-1-1c-0.5,0-1,0.4-1,1C331.5,9.1,331.9,9.5,332.5,9.5z M333.3,15.3h-0.9l4.9-9h0.9
			L333.3,15.3z M338.3,10.7c1.2,0,2.3,1,2.3,2.3c0,1.3-1,2.3-2.3,2.3c-1.2,0-2.3-1-2.3-2.3C336,11.7,337,10.7,338.3,10.7z
			 M338.3,13.9c0.5,0,1-0.4,1-1c0-0.5-0.4-1-1-1c-0.5,0-1,0.4-1,1C337.3,13.5,337.7,13.9,338.3,13.9z"/>
	</g>
	<g>
		<path class="st0" d="M169.4,13L169.4,13c0.1,0.6,0.5,0.9,1,0.9c0.7,0,1.4-0.6,1.4-2.5l0,0c-0.4,0.6-1.1,0.7-1.7,0.7
			c-1.7,0-2.7-1.3-2.7-2.8c0-2.2,1.3-3.2,3-3.2c3,0,3.1,3.3,3.1,4.5c0,3.4-1.6,4.5-3.2,4.5c-1.5,0-2.6-0.9-2.7-2.3H169.4z
			 M170.6,10.8c0.6,0,1.3-0.4,1.3-1.5c0-1-0.4-1.6-1.3-1.6c-0.4,0-1.3,0.2-1.3,1.5C169.3,10.5,169.9,10.8,170.6,10.8z"/>
		<path class="st0" d="M177.1,10.5h-1.9V8.7h1.9V10.5z M177.1,15.1h-1.9v-1.8h1.9V15.1z"/>
		<path class="st0" d="M184.7,13.1h-1v1.9H182v-1.9h-3.5v-1.5l3.2-5.4h2v5.5h1V13.1z M182,11.8c0-2.1,0-3.5,0-3.8h0l-2.2,3.8H182z"
			/>
		<path class="st0" d="M185.9,7.8h0.2c1.7,0,2.1-0.9,2.2-1.5h1.4v8.8H188V9h-2.1V7.8z"/>
		<path class="st0" d="M197,15.1h-2l3.2-8.9h2.1l3.1,8.9h-2l-0.6-1.8h-3.3L197,15.1z M198.1,11.7h2.3l-1.1-3.5h0L198.1,11.7z"/>
		<path class="st0" d="M213.2,15.1h-1.7V7.6h0l-1.7,7.4H208l-1.6-7.4h0v7.4h-1.7V6.2h2.7l1.6,7h0l1.6-7h2.7V15.1z"/>
	</g>
	<path class="st0" d="M345.5,14.6c-0.3,0-0.5-0.2-0.5-0.5V7.2c0-0.3,0.2-0.5,0.5-0.5h20.1c0.3,0,0.5,0.2,0.5,0.5v6.9
		c0,0.3-0.2,0.5-0.5,0.5H345.5z"/>
	<path class="st0" d="M369,10.7c0-1-0.8-1.8-1.8-1.8V7.2c0-0.9-0.7-1.6-1.6-1.6h-20.1c-0.9,0-1.6,0.7-1.6,1.6v6.9
		c0,0.9,0.7,1.6,1.6,1.6h20.1c0.9,0,1.6-0.7,1.6-1.6v-1.6C368.2,12.4,369,11.6,369,10.7z M366.8,14.1c0,0.6-0.5,1.2-1.2,1.2h-20.1
		c-0.6,0-1.2-0.5-1.2-1.2V7.2c0-0.6,0.5-1.2,1.2-1.2h20.1c0.6,0,1.2,0.5,1.2,1.2V14.1z"/>
	<path class="st0" d="M15,10.8c0,1.6-1.3,2.8-2.8,2.8c-1.6,0-2.8-1.3-2.8-2.8c0-1.6,1.3-2.8,2.8-2.8C13.7,8,15,9.2,15,10.8z"/>
	<path class="st0" d="M22,10.8c0,1.6-1.3,2.8-2.8,2.8c-1.6,0-2.8-1.3-2.8-2.8c0-1.6,1.3-2.8,2.8-2.8C20.7,8,22,9.2,22,10.8z"/>
	<path class="st0" d="M29,10.8c0,1.6-1.3,2.8-2.8,2.8c-1.6,0-2.8-1.3-2.8-2.8c0-1.6,1.3-2.8,2.8-2.8C27.7,8,29,9.2,29,10.8z"/>
	<path class="st0" d="M36,10.8c0,1.6-1.3,2.8-2.8,2.8c-1.6,0-2.8-1.3-2.8-2.8c0-1.6,1.3-2.8,2.8-2.8C34.7,8,36,9.2,36,10.8z"/>
	<path class="st0" d="M42.9,10.8c0,1.6-1.3,2.8-2.8,2.8c-1.6,0-2.8-1.3-2.8-2.8c0-1.6,1.3-2.8,2.8-2.8C41.7,8,42.9,9.2,42.9,10.8z"
		/>
	<g>
		<path class="st0" d="M50.6,12l2.4,2.4l2.4-2.4C54,10.7,51.9,10.7,50.6,12z"/>
		<path class="st0" d="M48.8,10.2l0.9,0.9c1.8-1.8,4.7-1.8,6.6,0l0.9-0.9C54.8,7.9,51.1,7.9,48.8,10.2z"/>
		<path class="st0" d="M47.9,9.4c2.8-2.8,7.3-2.8,10.1,0l0.9-0.9c-3.3-3.3-8.6-3.3-11.9,0L47.9,9.4z"/>
	</g>
</g>
</svg>
