<?xml version="1.0" encoding="UTF-8"?>
<svg width="280px" height="52px" viewBox="0 0 280 52" version="1.1" xmlns="http://www.w3.org/2000/svg" xmlns:xlink="http://www.w3.org/1999/xlink">
    <!-- Generator: Sketch 49.3 (51167) - http://www.bohemiancoding.com/sketch -->
    <title>log in inactive</title>
    <desc>Created with Sketch.</desc>
    <defs></defs>
    <g id="iOS-App" stroke="none" stroke-width="1" fill="none" fill-rule="evenodd">
        <g id="Log-In" transform="translate(-48.000000, -387.000000)">
            <g id="log-in-inactive" transform="translate(48.000000, 387.000000)">
                <rect id="Rectangle" stroke="#B8B8B8" stroke-width="2" x="1" y="1" width="278" height="50" rx="25"></rect>
                <path d="M109.292,33.688 C109.075999,33.479999 108.968,33.2000018 108.968,32.848 L108.968,18.208 C108.968,17.8399982 109.079999,17.5400012 109.304,17.308 C109.528001,17.0759988 109.823998,16.96 110.192,16.96 C110.576002,16.96 110.879999,17.0719989 111.104,17.296 C111.328001,17.5200011 111.44,17.8239981 111.44,18.208 L111.44,31.936 L118.736,31.936 C119.104002,31.936 119.387999,32.0239991 119.588,32.2 C119.788001,32.3760009 119.888,32.6319983 119.888,32.968 C119.888,33.3040017 119.788001,33.5599991 119.588,33.736 C119.387999,33.9120009 119.104002,34 118.736,34 L110.168,34 C109.799998,34 109.508001,33.896001 109.292,33.688 Z M123.86,33.424 C122.987996,32.9279975 122.316002,32.2200046 121.844,31.3 C121.371998,30.3799954 121.136,29.3120061 121.136,28.096 C121.136,26.8639938 121.371998,25.7880046 121.844,24.868 C122.316002,23.9479954 122.987996,23.2400025 123.86,22.744 C124.732004,22.2479975 125.743994,22 126.896,22 C128.048006,22 129.059996,22.2479975 129.932,22.744 C130.804004,23.2400025 131.475998,23.9479954 131.948,24.868 C132.420002,25.7880046 132.656,26.8639938 132.656,28.096 C132.656,29.3120061 132.420002,30.3799954 131.948,31.3 C131.475998,32.2200046 130.804004,32.9279975 129.932,33.424 C129.059996,33.9200025 128.048006,34.168 126.896,34.168 C125.743994,34.168 124.732004,33.9200025 123.86,33.424 Z M129.356,31.192 C129.924003,30.4879965 130.208,29.4560068 130.208,28.096 C130.208,26.7519933 129.920003,25.7240036 129.344,25.012 C128.767997,24.2999964 127.952005,23.944 126.896,23.944 C125.839995,23.944 125.024003,24.2999964 124.448,25.012 C123.871997,25.7240036 123.584,26.7519933 123.584,28.096 C123.584,29.4560068 123.867997,30.4879965 124.436,31.192 C125.004003,31.8960035 125.823995,32.248 126.896,32.248 C127.968005,32.248 128.787997,31.8960035 129.356,31.192 Z M145.916,22.372 C146.132001,22.5880011 146.24,22.8719982 146.24,23.224 L146.24,33.064 C146.24,34.856009 145.764005,36.2079954 144.812,37.12 C143.859995,38.0320046 142.456009,38.488 140.6,38.488 C138.871991,38.488 137.432006,38.1600033 136.28,37.504 C135.687997,37.1679983 135.392,36.7680023 135.392,36.304 C135.392,36.0319986 135.467999,35.8080009 135.62,35.632 C135.772001,35.4559991 135.959999,35.368 136.184,35.368 C136.392001,35.368 136.719998,35.4879988 137.168,35.728 C137.744003,36.0000014 138.279998,36.2119992 138.776,36.364 C139.272002,36.5160008 139.863997,36.592 140.552,36.592 C142.760011,36.592 143.864,35.4800111 143.864,33.256 L143.864,31.408 C143.527998,32.1120035 143.016003,32.659998 142.328,33.052 C141.639997,33.444002 140.840005,33.64 139.928,33.64 C138.903995,33.64 137.992004,33.4000024 137.192,32.92 C136.391996,32.4399976 135.772002,31.7600044 135.332,30.88 C134.891998,29.9999956 134.672,28.9840058 134.672,27.832 C134.672,26.6799942 134.895998,25.6640044 135.344,24.784 C135.792002,23.9039956 136.411996,23.2200024 137.204,22.732 C137.996004,22.2439976 138.903995,22 139.928,22 C140.824004,22 141.611997,22.1919981 142.292,22.576 C142.972003,22.9600019 143.487998,23.5039965 143.84,24.208 L143.84,23.2 C143.84,22.8479982 143.947999,22.568001 144.164,22.36 C144.380001,22.151999 144.671998,22.048 145.04,22.048 C145.408002,22.048 145.699999,22.1559989 145.916,22.372 Z M142.952,30.688 C143.544003,29.9999966 143.84,29.0480061 143.84,27.832 C143.84,26.631994 143.548003,25.6840035 142.964,24.988 C142.379997,24.2919965 141.560005,23.944 140.504,23.944 C139.447995,23.944 138.620003,24.2879966 138.02,24.976 C137.419997,25.6640034 137.12,26.6159939 137.12,27.832 C137.12,29.0480061 137.423997,29.9999966 138.032,30.688 C138.640003,31.3760034 139.463995,31.72 140.504,31.72 C141.544005,31.72 142.359997,31.3760034 142.952,30.688 Z M156.308,33.832 C156.075999,33.639999 155.96,33.3520019 155.96,32.968 L155.96,23.224 C155.96,22.8399981 156.075999,22.548001 156.308,22.348 C156.540001,22.147999 156.831998,22.048 157.184,22.048 C157.536002,22.048 157.823999,22.147999 158.048,22.348 C158.272001,22.548001 158.384,22.8399981 158.384,23.224 L158.384,32.968 C158.384,33.3520019 158.272001,33.639999 158.048,33.832 C157.823999,34.024001 157.536002,34.12 157.184,34.12 C156.831998,34.12 156.540001,34.024001 156.308,33.832 Z M156.08,19.312 C155.807999,19.0559987 155.672,18.7200021 155.672,18.304 C155.672,17.8879979 155.807999,17.5560012 156.08,17.308 C156.352001,17.0599988 156.719998,16.936 157.184,16.936 C157.632002,16.936 157.995999,17.0599988 158.276,17.308 C158.556001,17.5560012 158.696,17.8879979 158.696,18.304 C158.696,18.7200021 158.560001,19.0559987 158.288,19.312 C158.015999,19.5680013 157.648002,19.696 157.184,19.696 C156.719998,19.696 156.352001,19.5680013 156.08,19.312 Z M172.28,26.728 L172.28,32.968 C172.28,33.3360018 172.172001,33.619999 171.956,33.82 C171.739999,34.020001 171.440002,34.12 171.056,34.12 C170.687998,34.12 170.396001,34.016001 170.18,33.808 C169.963999,33.599999 169.856,33.3200018 169.856,32.968 L169.856,26.848 C169.856,25.855995 169.660002,25.1280023 169.268,24.664 C168.875998,24.1999977 168.264004,23.968 167.432,23.968 C166.455995,23.968 165.672003,24.271997 165.08,24.88 C164.487997,25.488003 164.192,26.3039949 164.192,27.328 L164.192,32.968 C164.192,33.3200018 164.084001,33.599999 163.868,33.808 C163.651999,34.016001 163.360002,34.12 162.992,34.12 C162.623998,34.12 162.328001,34.016001 162.104,33.808 C161.879999,33.599999 161.768,33.3200018 161.768,32.968 L161.768,23.2 C161.768,22.8639983 161.883999,22.5880011 162.116,22.372 C162.348001,22.1559989 162.639998,22.048 162.992,22.048 C163.344002,22.048 163.623999,22.151999 163.832,22.36 C164.040001,22.568001 164.144,22.8399983 164.144,23.176 L164.144,24.16 C164.528002,23.4559965 165.063997,22.9200018 165.752,22.552 C166.440003,22.1839982 167.215996,22 168.08,22 C170.880014,22 172.28,23.5759842 172.28,26.728 Z" id="Log-in" fill="#A3A3A3"></path>
            </g>
        </g>
    </g>
</svg>