<?xml version="1.0" encoding="UTF-8"?>
<svg width="292px" height="64px" viewBox="0 0 292 64" version="1.1" xmlns="http://www.w3.org/2000/svg" xmlns:xlink="http://www.w3.org/1999/xlink">
    <!-- Generator: Sketch 49.3 (51167) - http://www.bohemiancoding.com/sketch -->
    <title>back to app</title>
    <desc>Created with Sketch.</desc>
    <defs>
        <rect id="path-1" x="0" y="0" width="280" height="52" rx="26"></rect>
        <filter x="-3.6%" y="-15.4%" width="107.1%" height="138.5%" filterUnits="objectBoundingBox" id="filter-2">
            <feOffset dx="0" dy="2" in="SourceAlpha" result="shadowOffsetOuter1"></feOffset>
            <feGaussianBlur stdDeviation="3" in="shadowOffsetOuter1" result="shadowBlurOuter1"></feGaussianBlur>
            <feColorMatrix values="0 0 0 0 0.490196078   0 0 0 0 0.894117647   0 0 0 0 0.678431373  0 0 0 0.4 0" type="matrix" in="shadowBlurOuter1"></feColorMatrix>
        </filter>
    </defs>
    <g id="iOS-App" stroke="none" stroke-width="1" fill="none" fill-rule="evenodd">
        <g id="Connected---yes" transform="translate(-42.000000, -572.000000)">
            <g id="back-to-app" transform="translate(48.000000, 576.000000)">
                <g id="Rectangle">
                    <use fill="black" fill-opacity="1" filter="url(#filter-2)" xlink:href="#path-1"></use>
                    <use fill="#7DE4AD" fill-rule="evenodd" xlink:href="#path-1"></use>
                </g>
                <path d="M87.196,26.752 C87.7320027,27.4560035 88,28.3359947 88,29.392 C88,30.8480073 87.500005,31.979996 86.5,32.788 C85.499995,33.596004 84.104009,34 82.312,34 L76.192,34 C75.8079981,34 75.5080011,33.8920011 75.292,33.676 C75.0759989,33.4599989 74.968,33.1680018 74.968,32.8 L74.968,18.28 C74.968,17.9119982 75.0759989,17.6200011 75.292,17.404 C75.5080011,17.1879989 75.8079981,17.08 76.192,17.08 L82.048,17.08 C83.7920087,17.08 85.1559951,17.4679961 86.14,18.244 C87.1240049,19.0200039 87.616,20.103993 87.616,21.496 C87.616,22.3920045 87.3800024,23.1679967 86.908,23.824 C86.4359976,24.4800033 85.7760042,24.9679984 84.928,25.288 C85.9040049,25.5600014 86.6599973,26.0479965 87.196,26.752 Z M77.392,24.4 L81.664,24.4 C84.0320118,24.4 85.216,23.504009 85.216,21.712 C85.216,20.8159955 84.9240029,20.1520022 84.34,19.72 C83.7559971,19.2879978 82.864006,19.072 81.664,19.072 L77.392,19.072 L77.392,24.4 Z M84.76,31.336 C85.3360029,30.8879978 85.624,30.1920047 85.624,29.248 C85.624,28.2879952 85.3320029,27.5720024 84.748,27.1 C84.1639971,26.6279976 83.2640061,26.392 82.048,26.392 L77.392,26.392 L77.392,32.008 L82.048,32.008 C83.2800062,32.008 84.1839971,31.7840022 84.76,31.336 Z M99.34,23.176 C100.100004,23.9600039 100.48,25.151992 100.48,26.752 L100.48,32.968 C100.48,33.3360018 100.376001,33.619999 100.168,33.82 C99.959999,34.020001 99.6720018,34.12 99.304,34.12 C98.9519982,34.12 98.672001,34.016001 98.464,33.808 C98.255999,33.599999 98.152,33.3200018 98.152,32.968 L98.152,32.08 C97.8479985,32.7520034 97.396003,33.2679982 96.796,33.628 C96.195997,33.9880018 95.496004,34.168 94.696,34.168 C93.9279962,34.168 93.2240032,34.0120016 92.584,33.7 C91.9439968,33.3879984 91.4440018,32.9520028 91.084,32.392 C90.7239982,31.8319972 90.544,31.2080034 90.544,30.52 C90.544,29.6719958 90.7639978,29.0040024 91.204,28.516 C91.6440022,28.0279976 92.3719949,27.680001 93.388,27.472 C94.4040051,27.263999 95.7999911,27.16 97.576,27.16 L98.128,27.16 L98.128,26.464 C98.128,25.5679955 97.9440018,24.920002 97.576,24.52 C97.2079982,24.119998 96.6160041,23.92 95.8,23.92 C95.2399972,23.92 94.7120025,23.9919993 94.216,24.136 C93.7199975,24.2800007 93.176003,24.4879986 92.584,24.76 C92.1519978,25.0000012 91.8480009,25.12 91.672,25.12 C91.4319988,25.12 91.2360008,25.0320009 91.084,24.856 C90.9319992,24.6799991 90.856,24.4560014 90.856,24.184 C90.856,23.9439988 90.9239993,23.7320009 91.06,23.548 C91.1960007,23.3639991 91.4159985,23.1840009 91.72,23.008 C92.2800028,22.7039985 92.9359962,22.4600009 93.688,22.276 C94.4400038,22.0919991 95.1679965,22 95.872,22 C97.4240078,22 98.5799962,22.3919961 99.34,23.176 Z M97.288,31.468 C97.8480028,30.867997 98.128,30.0960047 98.128,29.152 L98.128,28.528 L97.696,28.528 C96.4479938,28.528 95.4880034,28.5839994 94.816,28.696 C94.1439966,28.8080006 93.6640014,28.9959987 93.376,29.26 C93.0879986,29.5240013 92.944,29.9039975 92.944,30.4 C92.944,30.9760029 93.1519979,31.4479982 93.568,31.816 C93.9840021,32.1840018 94.5039969,32.368 95.128,32.368 C96.0080044,32.368 96.7279972,32.068003 97.288,31.468 Z M105.82,33.424 C104.963996,32.9279975 104.300002,32.2240046 103.828,31.312 C103.355998,30.3999954 103.12,29.344006 103.12,28.144 C103.12,26.9279939 103.363998,25.8560046 103.852,24.928 C104.340002,23.9999954 105.023996,23.2800026 105.904,22.768 C106.784004,22.2559974 107.791994,22 108.928,22 C109.536003,22 110.147997,22.0879991 110.764,22.264 C111.380003,22.4400009 111.927998,22.6799985 112.408,22.984 C112.920003,23.3360018 113.176,23.7439977 113.176,24.208 C113.176,24.4800014 113.104001,24.7079991 112.96,24.892 C112.815999,25.0760009 112.632001,25.168 112.408,25.168 C112.263999,25.168 112.120001,25.1320004 111.976,25.06 C111.831999,24.9879996 111.648001,24.8800007 111.424,24.736 C111.023998,24.4799987 110.652002,24.2840007 110.308,24.148 C109.963998,24.0119993 109.552002,23.944 109.072,23.944 C107.983995,23.944 107.140003,24.3119963 106.54,25.048 C105.939997,25.7840037 105.64,26.8079934 105.64,28.12 C105.64,29.4320066 105.935997,30.4439964 106.528,31.156 C107.120003,31.8680036 107.959995,32.224 109.048,32.224 C109.528002,32.224 109.951998,32.1520007 110.32,32.008 C110.688002,31.8639993 111.063998,31.6720012 111.448,31.432 C111.624001,31.3199994 111.799999,31.2240004 111.976,31.144 C112.152001,31.0639996 112.311999,31.024 112.456,31.024 C112.680001,31.024 112.863999,31.1159991 113.008,31.3 C113.152001,31.4840009 113.224,31.7119986 113.224,31.984 C113.224,32.2080011 113.164001,32.4119991 113.044,32.596 C112.923999,32.7800009 112.720001,32.967999 112.432,33.16 C111.951998,33.4800016 111.392003,33.7279991 110.752,33.904 C110.111997,34.0800009 109.464003,34.168 108.808,34.168 C107.671994,34.168 106.676004,33.9200025 105.82,33.424 Z M125.656,32.992 C125.656,33.2960015 125.552001,33.5599989 125.344,33.784 C125.135999,34.0080011 124.888001,34.12 124.6,34.12 C124.295998,34.12 124.024001,34.0080011 123.784,33.784 L117.808,28.504 L117.808,32.944 C117.808,33.3280019 117.696001,33.619999 117.472,33.82 C117.247999,34.020001 116.960002,34.12 116.608,34.12 C116.255998,34.12 115.964001,34.020001 115.732,33.82 C115.499999,33.619999 115.384,33.3280019 115.384,32.944 L115.384,18.136 C115.384,17.7519981 115.499999,17.460001 115.732,17.26 C115.964001,17.059999 116.255998,16.96 116.608,16.96 C116.960002,16.96 117.247999,17.059999 117.472,17.26 C117.696001,17.460001 117.808,17.7519981 117.808,18.136 L117.808,27.544 L123.28,22.432 C123.552001,22.1919988 123.815999,22.072 124.072,22.072 C124.376002,22.072 124.639999,22.1839989 124.864,22.408 C125.088001,22.6320011 125.2,22.8959985 125.2,23.2 C125.2,23.5040015 125.064001,23.7839987 124.792,24.04 L120.52,27.952 L125.224,32.104 C125.512001,32.3440012 125.656,32.6399982 125.656,32.992 Z M140.62,32.548 C140.772001,32.7000008 140.848,32.9119986 140.848,33.184 C140.848,33.5040016 140.724001,33.7479992 140.476,33.916 C140.227999,34.0840008 139.864002,34.1520002 139.384,34.12 L138.736,34.072 C137.439994,33.9759995 136.472003,33.5800035 135.832,32.884 C135.191997,32.1879965 134.872,31.1600068 134.872,29.8 L134.872,24.16 L133.432,24.16 C132.727996,24.16 132.376,23.8480031 132.376,23.224 C132.376,22.9359986 132.467999,22.7080008 132.652,22.54 C132.836001,22.3719992 133.095998,22.288 133.432,22.288 L134.872,22.288 L134.872,19.816 C134.872,19.4479982 134.979999,19.160001 135.196,18.952 C135.412001,18.743999 135.703998,18.64 136.072,18.64 C136.440002,18.64 136.735999,18.743999 136.96,18.952 C137.184001,19.160001 137.296,19.4479982 137.296,19.816 L137.296,22.288 L139.672,22.288 C140.008002,22.288 140.267999,22.3719992 140.452,22.54 C140.636001,22.7080008 140.728,22.9359986 140.728,23.224 C140.728,23.5280015 140.636001,23.7599992 140.452,23.92 C140.267999,24.0800008 140.008002,24.16 139.672,24.16 L137.296,24.16 L137.296,29.968 C137.296,30.7200038 137.451998,31.2719982 137.764,31.624 C138.076002,31.9760018 138.551997,32.1759998 139.192,32.224 L139.864,32.272 C140.216002,32.3040002 140.467999,32.3959992 140.62,32.548 Z M144.652,33.424 C143.779996,32.9279975 143.108002,32.2200046 142.636,31.3 C142.163998,30.3799954 141.928,29.3120061 141.928,28.096 C141.928,26.8639938 142.163998,25.7880046 142.636,24.868 C143.108002,23.9479954 143.779996,23.2400025 144.652,22.744 C145.524004,22.2479975 146.535994,22 147.688,22 C148.840006,22 149.851996,22.2479975 150.724,22.744 C151.596004,23.2400025 152.267998,23.9479954 152.74,24.868 C153.212002,25.7880046 153.448,26.8639938 153.448,28.096 C153.448,29.3120061 153.212002,30.3799954 152.74,31.3 C152.267998,32.2200046 151.596004,32.9279975 150.724,33.424 C149.851996,33.9200025 148.840006,34.168 147.688,34.168 C146.535994,34.168 145.524004,33.9200025 144.652,33.424 Z M150.148,31.192 C150.716003,30.4879965 151,29.4560068 151,28.096 C151,26.7519933 150.712003,25.7240036 150.136,25.012 C149.559997,24.2999964 148.744005,23.944 147.688,23.944 C146.631995,23.944 145.816003,24.2999964 145.24,25.012 C144.663997,25.7240036 144.376,26.7519933 144.376,28.096 C144.376,29.4560068 144.659997,30.4879965 145.228,31.192 C145.796003,31.8960035 146.615995,32.248 147.688,32.248 C148.760005,32.248 149.579997,31.8960035 150.148,31.192 Z M177.808,33.04 C177.808,33.3440015 177.684001,33.599999 177.436,33.808 C177.187999,34.016001 176.912002,34.12 176.608,34.12 C176.399999,34.12 176.204001,34.0600006 176.02,33.94 C175.835999,33.8199994 175.696,33.6480011 175.6,33.424 L174.016,29.824 L165.232,29.824 L163.648,33.424 C163.552,33.6480011 163.408001,33.8199994 163.216,33.94 C163.023999,34.0600006 162.824001,34.12 162.616,34.12 C162.295998,34.12 162.012001,34.016001 161.764,33.808 C161.515999,33.599999 161.392,33.3440015 161.392,33.04 C161.392,32.9119994 161.432,32.752001 161.512,32.56 L168.28,17.752 C168.392001,17.4959987 168.571999,17.2960007 168.82,17.152 C169.068001,17.0079993 169.327999,16.936 169.6,16.936 C169.872001,16.936 170.131999,17.0079993 170.38,17.152 C170.628001,17.2960007 170.807999,17.4959987 170.92,17.752 L177.688,32.56 C177.768,32.752001 177.808,32.9119994 177.808,33.04 Z M166.12,27.856 L173.152,27.856 L169.624,19.912 L166.12,27.856 Z M189.076,22.768 C189.868004,23.2800026 190.483998,23.9999954 190.924,24.928 C191.364002,25.8560046 191.584,26.9279939 191.584,28.144 C191.584,29.344006 191.368002,30.3999954 190.936,31.312 C190.503998,32.2240046 189.892004,32.9279975 189.1,33.424 C188.307996,33.9200025 187.400005,34.168 186.376,34.168 C185.495996,34.168 184.720003,33.9800019 184.048,33.604 C183.375997,33.2279981 182.864002,32.6880035 182.512,31.984 L182.512,37.336 C182.512,37.6720017 182.404001,37.939999 182.188,38.14 C181.971999,38.340001 181.688002,38.44 181.336,38.44 C180.967998,38.44 180.668001,38.336001 180.436,38.128 C180.203999,37.919999 180.088,37.6400018 180.088,37.288 L180.088,23.224 C180.088,22.8719982 180.199999,22.5880011 180.424,22.372 C180.648001,22.1559989 180.943998,22.048 181.312,22.048 C181.664002,22.048 181.951999,22.1559989 182.176,22.372 C182.400001,22.5880011 182.512,22.8719982 182.512,23.224 L182.512,24.208 C182.864002,23.5039965 183.375997,22.9600019 184.048,22.576 C184.720003,22.1919981 185.495996,22 186.376,22 C187.384005,22 188.283996,22.2559974 189.076,22.768 Z M188.248,31.18 C188.824003,30.4679964 189.112,29.4560066 189.112,28.144 C189.112,26.8159934 188.820003,25.7840037 188.236,25.048 C187.651997,24.3119963 186.840005,23.944 185.8,23.944 C184.743995,23.944 183.932003,24.3039964 183.364,25.024 C182.795997,25.7440036 182.512,26.7679934 182.512,28.096 C182.512,29.4240066 182.795997,30.4479964 183.364,31.168 C183.932003,31.8880036 184.743995,32.248 185.8,32.248 C186.856005,32.248 187.671997,31.8920036 188.248,31.18 Z M203.26,22.768 C204.052004,23.2800026 204.667998,23.9999954 205.108,24.928 C205.548002,25.8560046 205.768,26.9279939 205.768,28.144 C205.768,29.344006 205.552002,30.3999954 205.12,31.312 C204.687998,32.2240046 204.076004,32.9279975 203.284,33.424 C202.491996,33.9200025 201.584005,34.168 200.56,34.168 C199.679996,34.168 198.904003,33.9800019 198.232,33.604 C197.559997,33.2279981 197.048002,32.6880035 196.696,31.984 L196.696,37.336 C196.696,37.6720017 196.588001,37.939999 196.372,38.14 C196.155999,38.340001 195.872002,38.44 195.52,38.44 C195.151998,38.44 194.852001,38.336001 194.62,38.128 C194.387999,37.919999 194.272,37.6400018 194.272,37.288 L194.272,23.224 C194.272,22.8719982 194.383999,22.5880011 194.608,22.372 C194.832001,22.1559989 195.127998,22.048 195.496,22.048 C195.848002,22.048 196.135999,22.1559989 196.36,22.372 C196.584001,22.5880011 196.696,22.8719982 196.696,23.224 L196.696,24.208 C197.048002,23.5039965 197.559997,22.9600019 198.232,22.576 C198.904003,22.1919981 199.679996,22 200.56,22 C201.568005,22 202.467996,22.2559974 203.26,22.768 Z M202.432,31.18 C203.008003,30.4679964 203.296,29.4560066 203.296,28.144 C203.296,26.8159934 203.004003,25.7840037 202.42,25.048 C201.835997,24.3119963 201.024005,23.944 199.984,23.944 C198.927995,23.944 198.116003,24.3039964 197.548,25.024 C196.979997,25.7440036 196.696,26.7679934 196.696,28.096 C196.696,29.4240066 196.979997,30.4479964 197.548,31.168 C198.116003,31.8880036 198.927995,32.248 199.984,32.248 C201.040005,32.248 201.855997,31.8920036 202.432,31.18 Z" id="Back-to-App" fill="#FFFFFF"></path>
            </g>
        </g>
    </g>
</svg>