<?xml version="1.0" encoding="utf-8"?>
<!-- Generator: Adobe Illustrator 22.0.1, SVG Export Plug-In . SVG Version: 6.00 Build 0)  -->
<svg version="1.1" id="Layer_1" xmlns="http://www.w3.org/2000/svg" xmlns:xlink="http://www.w3.org/1999/xlink" x="0px" y="0px"
	 viewBox="0 0 181 47" style="enable-background:new 0 0 181 47;" xml:space="preserve">
<style type="text/css">
	.st0{enable-background:new    ;}
	.st1{fill:#290E54;}
</style>
<title>Settings</title>
<desc>Created with Sketch.</desc>
<g id="iOS-App">
	<g id="Settings" transform="translate(-92.000000, -63.000000)">
		<g class="st0">
			<path class="st1" d="M110.1,83.2c0.8,0.9,1.6,1.9,2.2,3s1.1,2.2,1.4,3.3c0.3,1.1,0.4,2.3,0.3,3.5s-0.3,2.3-0.8,3.4
				c-0.4,0.8-0.8,1.4-1.4,2c-0.6,0.6-1.3,1-2.1,1.4c-0.8,0.4-1.6,0.6-2.4,0.8s-1.7,0.3-2.5,0.3c-1.1,0-2.3-0.2-3.5-0.5
				s-2.4-0.8-3.5-1.4s-2.2-1.3-3.2-2.2s-1.8-1.8-2.5-2.9l4.5-4.3c0.5,0.7,1,1.3,1.6,1.8s1.3,1,1.9,1.4s1.3,0.7,2,1s1.3,0.4,1.9,0.4
				c0.5,0,1,0,1.4-0.2s0.7-0.4,0.9-0.7s0.4-0.6,0.5-1s0.1-0.8,0.1-1.1s-0.1-0.8-0.2-1.2c-0.1-0.4-0.3-0.7-0.5-1.1
				c-0.4-0.7-0.9-1.3-1.6-2s-1.5-1.3-2.3-2c-0.8-0.7-1.7-1.4-2.6-2.1c-0.9-0.7-1.8-1.4-2.6-2.1s-1.6-1.5-2.3-2.2s-1.2-1.5-1.6-2.3
				c-0.6-1.4-0.9-2.7-0.8-4.1c0.1-1.4,0.4-2.7,1.1-3.9c0.5-1,1.2-1.8,1.9-2.5c0.8-0.7,1.6-1.2,2.5-1.6c0.9-0.4,1.9-0.7,2.9-0.8
				c1-0.1,2-0.2,3-0.1c1,0.1,2,0.3,3,0.7s1.9,0.8,2.8,1.4c0.4,0.2,0.8,0.6,1.3,1s1,0.8,1.5,1.3c0.5,0.5,1,0.9,1.4,1.4
				c0.4,0.4,0.7,0.8,1,1.2l-5.3,4.1c-0.6-0.8-1.2-1.6-1.9-2.1s-1.4-1-2-1.4s-1.3-0.6-2-0.7s-1.2-0.1-1.8-0.1c-0.5,0.1-1,0.2-1.3,0.5
				s-0.6,0.6-0.7,1c-0.2,0.5-0.1,1.1,0.1,1.6c0.2,0.6,0.6,1.1,1.1,1.7c0.5,0.6,1.2,1.2,1.9,1.9c0.7,0.7,1.5,1.3,2.4,2
				s1.7,1.4,2.6,2.2S109.3,82.4,110.1,83.2z"/>
			<path class="st1" d="M143.5,95c-0.9,1-1.9,1.8-3.1,2.6c-1.1,0.7-2.3,1.3-3.6,1.8s-2.5,0.8-3.7,1s-2.4,0.3-3.6,0.2
				c-1.7-0.1-3.3-0.5-4.9-1.1s-2.9-1.6-4.1-2.8c-1.2-1.2-2.1-2.6-2.8-4.3c-0.7-1.7-1-3.6-1-5.8c0-1.2,0.2-2.3,0.4-3.5
				c0.3-1.2,0.7-2.3,1.2-3.4s1.2-2.1,1.9-3s1.7-1.8,2.7-2.5s2.2-1.3,3.5-1.7s2.7-0.6,4.2-0.7c1.6,0,3,0.2,4.2,0.7s2.3,1.1,3.3,1.9
				s1.7,1.8,2.4,2.9s1.1,2.3,1.5,3.5s0.6,2.6,0.7,3.9s0.1,2.7-0.1,4l-19.2,0.1c0.2,0.9,0.5,1.7,1,2.4c0.4,0.7,0.9,1.3,1.5,1.8
				s1.2,0.9,1.9,1.1s1.4,0.4,2.2,0.4c0.6,0,1.3-0.1,2-0.2s1.4-0.4,2.2-0.6c0.7-0.3,1.4-0.7,2.1-1.1s1.3-1,1.8-1.5L143.5,95z
				 M136.5,82.3c-0.1-0.6-0.3-1.2-0.6-1.7c-0.3-0.5-0.7-0.9-1.1-1.2c-0.5-0.3-1-0.6-1.5-0.8c-0.6-0.2-1.1-0.3-1.7-0.3
				c-0.7-0.1-1.4,0-2.2,0.1s-1.4,0.4-2,0.7s-1.2,0.7-1.7,1.3s-0.8,1.1-1,1.8L136.5,82.3z"/>
			<path class="st1" d="M150.4,73.1c0-1,0-1.9,0-2.9s0-1.8,0-2.6c0-0.8,0-1.4,0-2s0-0.9,0-1.1h6.9l0,8.6h5.6v7.1h-5.5l0.1,20.2h-7.3
				c0-0.4,0-1,0-1.8c0-0.8,0-1.7,0-2.8s0-2.2,0-3.5s0-2.6,0-3.9s0-2.7,0-4.1c0-1.4,0-2.7,0-4h-5.5v-7.1H150.4z"/>
			<path class="st1" d="M171,73.1c0-1,0-1.9,0-2.9s0-1.8,0-2.6c0-0.8,0-1.4,0-2s0-0.9,0-1.1h6.9l0,8.6h5.6v7.1h-5.5l0.1,20.2h-7.3
				c0-0.4,0-1,0-1.8c0-0.8,0-1.7,0-2.8s0-2.2,0-3.5s0-2.6,0-3.9s0-2.7,0-4.1c0-1.4,0-2.7,0-4h-5.5v-7.1H171z"/>
			<path class="st1" d="M190.4,72.3c-0.9,0-1.7-0.1-2.3-0.5c-0.6-0.4-1.1-0.9-1.4-1.4c-0.3-0.6-0.5-1.2-0.5-1.9
				c0-0.7,0.1-1.3,0.4-1.9s0.8-1.1,1.4-1.5c0.6-0.4,1.4-0.6,2.3-0.6c0.8,0,1.5,0.2,2.1,0.6c0.6,0.4,1,0.9,1.3,1.4
				c0.3,0.6,0.5,1.2,0.5,1.9c0,0.7-0.1,1.3-0.4,1.9c-0.3,0.6-0.7,1.1-1.2,1.5S191.3,72.3,190.4,72.3z M193.8,100.1h-7.3l0.3-25.8
				h6.9L193.8,100.1z"/>
			<path class="st1" d="M204.3,75.5c0.2-0.1,0.4-0.2,0.7-0.3s0.4-0.2,0.7-0.3c2.3-0.9,4.3-1.4,6-1.4s3.2,0.4,4.4,1.3
				c1.2,0.9,2.2,2.2,2.9,4.1c0.7,1.8,1.1,4.2,1.3,7c0.1,1,0.1,2,0.2,3.2c0,1.1,0.1,2.3,0.1,3.5c0,1.2,0,2.5,0,3.7s-0.1,2.6-0.1,3.9
				h-6.8c0.1-1.3,0.1-2.5,0.2-3.8c0-1.2,0.1-2.4,0.1-3.6c0-1.1,0-2.2,0-3.2c0-1,0-1.9-0.1-2.6c-0.1-1.3-0.2-2.5-0.5-3.4
				c-0.2-0.9-0.6-1.6-1.1-2.1c-0.5-0.5-1.2-0.8-2-0.8c-0.8,0-1.8,0.2-3.1,0.7c-1,0.4-1.9,0.9-2.7,1.5l0.1,17.3h-7.3
				c0-0.6,0-1.4,0-2.4c0-1,0-2.1,0-3.4c0-1.3,0-2.6,0-4s0-2.8,0-4.3c0-1.4,0-2.8,0-4.2s0-2.6,0-3.7c0-1.1,0-2.1,0-2.9
				c0-0.8,0-1.4,0-1.7h6.9L204.3,75.5z"/>
			<path class="st1" d="M248.8,71.9c0,2.6,0.1,5.1,0.2,7.5s0.1,4.9,0.1,7.3s-0.1,4.7-0.2,6.9s-0.3,4.4-0.6,6.5
				c-0.2,1.6-0.7,2.9-1.4,4.1s-1.6,2.2-2.7,3s-2.3,1.4-3.7,1.8s-2.9,0.6-4.4,0.5c-1.6,0-3-0.2-4.2-0.4c-1.2-0.2-2.2-0.5-3.1-0.8
				c-0.9-0.3-1.6-0.7-2.2-1.1s-1.1-0.8-1.4-1.1l3.7-5.8c0.6,0.6,1.3,1,2.1,1.4c0.8,0.4,1.7,0.7,2.6,0.8s1.8,0.2,2.7,0.1
				s1.7-0.3,2.4-0.7s1.3-0.9,1.8-1.6c0.5-0.7,0.7-1.6,0.8-2.6c-0.7,0.3-1.4,0.6-2.2,0.7s-1.6,0.3-2.5,0.3c-1.8,0-3.3-0.2-4.7-0.7
				s-2.6-1.1-3.7-2c-1-0.8-1.9-1.8-2.6-3c-0.7-1.1-1.2-2.3-1.5-3.6c-0.3-1.3-0.5-2.6-0.5-3.9c0-1.3,0.2-2.7,0.5-3.9
				c0.4-1.3,0.9-2.5,1.6-3.6c0.7-1.1,1.6-2.1,2.6-3c1-0.9,2.2-1.5,3.6-2s2.9-0.7,4.6-0.7c1,0,1.9,0.1,2.7,0.3
				c0.8,0.2,1.6,0.5,2.4,0.8v-0.1c0,0,0-0.1,0-0.3s0-0.3,0-0.4c0-0.2,0-0.3,0-0.4c0-0.1,0-0.2,0.1-0.3H248.8z M235.6,79.2
				c-1,0.1-1.8,0.3-2.5,0.7c-0.7,0.4-1.3,0.9-1.8,1.5c-0.5,0.6-0.8,1.3-1.1,2s-0.3,1.5-0.3,2.3c0,0.8,0.1,1.5,0.4,2.3s0.6,1.4,1.1,2
				c0.5,0.6,1.1,1,1.9,1.4s1.6,0.5,2.6,0.5c1,0,1.9-0.2,2.6-0.6c0.7-0.4,1.4-0.9,1.8-1.5c0.5-0.6,0.8-1.3,1.1-2.1s0.3-1.6,0.3-2.4
				s-0.2-1.6-0.5-2.4c-0.3-0.8-0.7-1.5-1.2-2s-1.2-1-1.9-1.4S236.6,79.1,235.6,79.2z"/>
			<path class="st1" d="M272.5,93.5c0,1.3-0.2,2.4-0.7,3.3c-0.5,0.9-1.1,1.7-1.9,2.3c-0.8,0.6-1.7,1.1-2.7,1.4s-2.1,0.5-3.3,0.5
				c-1.1,0-2.3-0.1-3.5-0.3c-1.2-0.2-2.3-0.6-3.4-1c-1.1-0.4-2.1-1-3-1.6s-1.7-1.4-2.3-2.2l3.9-4.9c0.5,0.5,1,0.9,1.6,1.3
				c0.6,0.4,1.2,0.8,1.9,1c0.6,0.3,1.3,0.5,1.9,0.7c0.6,0.2,1.2,0.2,1.7,0.2c0.5,0,1-0.2,1.3-0.4s0.6-0.6,0.8-1.1
				c0.1-0.4,0-0.9-0.5-1.3c-0.4-0.4-1-0.9-1.8-1.4s-1.6-1-2.6-1.6s-1.9-1.2-2.8-1.8c-0.9-0.6-1.8-1.3-2.6-2.1s-1.5-1.5-1.9-2.4
				c-0.5-0.8-0.7-1.7-0.7-2.6c0-0.9,0.1-1.7,0.4-2.5c0.3-0.8,0.8-1.6,1.4-2.3c0.6-0.7,1.3-1.3,2.1-1.8c0.8-0.5,1.7-0.9,2.7-1.1
				c1-0.2,2-0.3,3-0.2c1,0.1,2,0.3,3.1,0.6c1.1,0.3,2.1,0.7,3.1,1.2c1,0.5,1.9,1,2.7,1.6c0.8,0.6,1.4,1.2,1.9,1.8l-4,4.8
				c-0.7-0.7-1.4-1.3-2.3-1.8c-0.8-0.5-1.6-0.9-2.4-1.1c-0.8-0.2-1.5-0.3-2.1-0.2s-1.1,0.3-1.3,0.8c-0.1,0.3-0.2,0.5-0.1,0.8
				c0.1,0.3,0.2,0.5,0.5,0.7c0.2,0.2,0.5,0.5,0.8,0.7c0.3,0.2,0.7,0.4,1,0.6c0.3,0.2,0.7,0.4,1,0.5c0.3,0.2,0.6,0.3,0.8,0.4
				c1.1,0.5,2.2,1,3.2,1.7c1,0.7,1.9,1.5,2.7,2.4s1.4,1.9,1.8,3C272.3,91,272.5,92.2,272.5,93.5z"/>
		</g>
	</g>
</g>
</svg>
