<?xml version="1.0" encoding="utf-8"?>
<!-- Generator: Adobe Illustrator 22.0.1, SVG Export Plug-In . SVG Version: 6.00 Build 0)  -->
<svg version="1.1" xmlns="http://www.w3.org/2000/svg" xmlns:xlink="http://www.w3.org/1999/xlink" x="0px" y="0px"
	 viewBox="0 0 151.3 112.7" style="enable-background:new 0 0 151.3 112.7;" xml:space="preserve">
<style type="text/css">
	.st0{fill:none;stroke:#FFFFFF;stroke-width:1.854;stroke-miterlimit:10;}
	.st1{fill:none;stroke:#FFFFFF;stroke-width:1.854;}
	.st2{fill:#FFFFFF;}
	.st3{fill:none;stroke:#FFFFFF;stroke-width:2;stroke-linecap:round;stroke-linejoin:round;stroke-miterlimit:10;}
	.st4{fill:none;stroke:#FFFFFF;stroke-width:2;stroke-miterlimit:10;}
	.st5{fill:none;stroke:#FFFFFF;stroke-width:1.9255;stroke-miterlimit:10;}
	.st6{fill:none;stroke:#FFFFFF;stroke-linecap:round;stroke-linejoin:round;stroke-miterlimit:10;}
	.st7{fill:none;stroke:#FFFFFF;stroke-width:1.4107;stroke-miterlimit:10;}
	.st8{fill:none;stroke:#FFFFFF;stroke-width:2.2747;stroke-linecap:round;stroke-linejoin:round;stroke-miterlimit:10;}
	.st9{fill:none;stroke:#FFFFFF;stroke-width:2.03;stroke-linecap:round;stroke-linejoin:round;stroke-miterlimit:10;}
	.st10{fill:none;}
	.st11{fill:#FFFFFF;stroke:#FFFFFF;stroke-linecap:round;stroke-linejoin:round;stroke-miterlimit:10;}
</style>
<g id="Layer_2">
</g>
<g id="Layer_1">
	<g>
		<path class="st8" d="M115.8,64.2c-70.7,0-70.7,0-69.7,0c-6.9,0-5.8-11.3-3.4-15.5c4.5-7.9,13.3-7.5,19.4-2.2
			c2.1-10.8,9.2-19.1,16.8-19.9s15.5,5.8,18.7,16c5.4-4.8,12.7-4.3,17.8,1.2c2.2,2.4,4.1,5.9,4.5,9.9S118.6,64.2,115.8,64.2z"/>
		<path class="st9" d="M35.6,49.9c-2.2-2.7-3.6-6-4.1-9.6C30.3,30,37.6,20.6,47.9,19.4c6.4-0.8,12.5,1.8,16.4,6.3"/>
		<g>
			<path class="st2" d="M65.7,80.8c0,1.4-1.1,2.5-2.5,2.5c-1.4,0-2.5-1.1-2.5-2.5c0-1.4,2.5-5.6,2.5-5.6S65.7,79.4,65.7,80.8z"/>
			<path class="st2" d="M83.9,90.9c0,1.4-1.1,2.5-2.5,2.5c-1.4,0-2.5-1.1-2.5-2.5c0-1.4,2.5-5.6,2.5-5.6S83.9,89.5,83.9,90.9z"/>
			<path class="st2" d="M97.1,76.7c0,1.4-1.1,2.5-2.5,2.5c-1.4,0-2.5-1.1-2.5-2.5c0-1.4,2.5-5.6,2.5-5.6S97.1,75.3,97.1,76.7z"/>
		</g>
	</g>
</g>
<g id="Layer_3">
</g>
</svg>
