<?xml version="1.0" encoding="UTF-8"?>
<svg width="338px" height="150px" viewBox="0 0 338 150" version="1.1" xmlns="http://www.w3.org/2000/svg" xmlns:xlink="http://www.w3.org/1999/xlink">
    <!-- Generator: Sketch 49.3 (51167) - http://www.bohemiancoding.com/sketch -->
    <title>chat with friends button</title>
    <desc>Created with Sketch.</desc>
    <defs>
        <linearGradient x1="70.1636097%" y1="43.031523%" x2="64.691382%" y2="100%" id="linearGradient-1">
            <stop stop-color="#A4E0EB" offset="0%"></stop>
            <stop stop-color="#8ACAD8" offset="100%"></stop>
        </linearGradient>
        <rect id="path-2" x="0" y="0" width="318" height="130" rx="15"></rect>
        <filter x="-4.1%" y="-10.8%" width="110.7%" height="126.2%" filterUnits="objectBoundingBox" id="filter-3">
            <feOffset dx="4" dy="3" in="SourceAlpha" result="shadowOffsetOuter1"></feOffset>
            <feGaussianBlur stdDeviation="5" in="shadowOffsetOuter1" result="shadowBlurOuter1"></feGaussianBlur>
            <feColorMatrix values="0 0 0 0 0.541176471   0 0 0 0 0.792156863   0 0 0 0 0.847058824  0 0 0 0.3 0" type="matrix" in="shadowBlurOuter1"></feColorMatrix>
        </filter>
    </defs>
    <g id="iOS-App" stroke="none" stroke-width="1" fill="none" fill-rule="evenodd">
        <g id="Menu-Copy" transform="translate(-23.000000, -187.000000)">
            <g id="chat-with-friends-button" transform="translate(29.000000, 194.000000)">
                <g id="Rectangle-8">
                    <use fill="black" fill-opacity="1" filter="url(#filter-3)" xlink:href="#path-2"></use>
                    <use fill="url(#linearGradient-1)" fill-rule="evenodd" xlink:href="#path-2"></use>
                </g>
                <path d="M146.778,58.722 C145.025991,57.6779948 143.676005,56.1780098 142.728,54.222 C141.779995,52.2659902 141.306,49.9560133 141.306,47.292 C141.306,44.6519868 141.779995,42.3540098 142.728,40.398 C143.676005,38.4419902 145.025991,36.9420052 146.778,35.898 C148.530009,34.8539948 150.605988,34.332 153.006,34.332 C154.614008,34.332 156.131993,34.5899974 157.56,35.106 C158.988007,35.6220026 160.229995,36.3599952 161.286,37.32 C161.670002,37.6800018 161.862,38.0999976 161.862,38.58 C161.862,38.9160017 161.766001,39.2099987 161.574,39.462 C161.381999,39.7140013 161.154001,39.84 160.89,39.84 C160.601999,39.84 160.254002,39.7080013 159.846,39.444 C158.621994,38.4839952 157.512005,37.8120019 156.516,37.428 C155.519995,37.0439981 154.374006,36.852 153.078,36.852 C150.293986,36.852 148.152007,37.7579909 146.652,39.57 C145.151992,41.3820091 144.402,43.9559833 144.402,47.292 C144.402,50.6520168 145.151992,53.2379909 146.652,55.05 C148.152007,56.8620091 150.293986,57.768 153.078,57.768 C154.350006,57.768 155.489995,57.5760019 156.498,57.192 C157.506005,56.8079981 158.621994,56.1360048 159.846,55.176 C160.254002,54.9119987 160.601999,54.78 160.89,54.78 C161.154001,54.78 161.381999,54.8999988 161.574,55.14 C161.766001,55.3800012 161.862,55.6799982 161.862,56.04 C161.862,56.5200024 161.670002,56.9399982 161.286,57.3 C160.229995,58.2600048 158.988007,58.9979974 157.56,59.514 C156.131993,60.0300026 154.614008,60.288 153.006,60.288 C150.605988,60.288 148.530009,59.7660052 146.778,58.722 Z M179.718,43.782 C180.774005,44.9460058 181.302,46.6799885 181.302,48.984 L181.302,58.74 C181.302,59.1960023 181.170001,59.5499987 180.906,59.802 C180.641999,60.0540013 180.294002,60.18 179.862,60.18 C179.405998,60.18 179.046001,60.0540013 178.782,59.802 C178.517999,59.5499987 178.386,59.1960023 178.386,58.74 L178.386,49.056 C178.386,47.4959922 178.068003,46.3440037 177.432,45.6 C176.795997,44.8559963 175.782007,44.484 174.39,44.484 C172.781992,44.484 171.498005,44.9759951 170.538,45.96 C169.577995,46.9440049 169.098,48.2759916 169.098,49.956 L169.098,58.74 C169.098,59.1960023 168.972001,59.5499987 168.72,59.802 C168.467999,60.0540013 168.114002,60.18 167.658,60.18 C167.201998,60.18 166.842001,60.0540013 166.578,59.802 C166.313999,59.5499987 166.182,59.1960023 166.182,58.74 L166.182,35.844 C166.182,35.435998 166.319999,35.1000013 166.596,34.836 C166.872001,34.5719987 167.225998,34.44 167.658,34.44 C168.114002,34.44 168.467999,34.5659987 168.72,34.818 C168.972001,35.0700013 169.098,35.4119978 169.098,35.844 L169.098,45.276 C169.674003,44.2199947 170.477995,43.4160028 171.51,42.864 C172.542005,42.3119972 173.717993,42.036 175.038,42.036 C177.10201,42.036 178.661995,42.6179942 179.718,43.782 Z M200.382,48.948 L200.382,58.74 C200.382,59.1720022 200.256001,59.5199987 200.004,59.784 C199.751999,60.0480013 199.410002,60.18 198.978,60.18 C198.545998,60.18 198.198001,60.0480013 197.934,59.784 C197.669999,59.5199987 197.538,59.1720022 197.538,58.74 L197.538,57.012 C197.081998,58.0440052 196.386005,58.8419972 195.45,59.406 C194.513995,59.9700028 193.434006,60.252 192.21,60.252 C191.081994,60.252 190.044005,60.0240023 189.096,59.568 C188.147995,59.1119977 187.398003,58.4760041 186.846,57.66 C186.293997,56.8439959 186.018,55.9440049 186.018,54.96 C186.018,53.6399934 186.353997,52.6140037 187.026,51.882 C187.698003,51.1499963 188.801992,50.6220016 190.338,50.298 C191.874008,49.9739984 194.009986,49.812 196.746,49.812 L197.538,49.812 L197.538,48.624 C197.538,47.1839928 197.244003,46.1280034 196.656,45.456 C196.067997,44.7839966 195.114007,44.448 193.794,44.448 C192.161992,44.448 190.506008,44.8919956 188.826,45.78 C188.177997,46.188002 187.722001,46.392 187.458,46.392 C187.169999,46.392 186.930001,46.2840011 186.738,46.068 C186.545999,45.8519989 186.45,45.5760017 186.45,45.24 C186.45,44.9039983 186.551999,44.6100013 186.756,44.358 C186.960001,44.1059987 187.289998,43.8480013 187.746,43.584 C188.586004,43.1039976 189.539995,42.7260014 190.608,42.45 C191.676005,42.1739986 192.737995,42.036 193.794,42.036 C198.186022,42.036 200.382,44.339977 200.382,48.948 Z M196.152,56.49 C197.076005,55.5179951 197.538,54.2640077 197.538,52.728 L197.538,51.684 L196.89,51.684 C194.777989,51.684 193.170006,51.7739991 192.066,51.954 C190.961994,52.1340009 190.176002,52.4339979 189.708,52.854 C189.239998,53.2740021 189.006,53.8919959 189.006,54.708 C189.006,55.6440047 189.347997,56.4179969 190.032,57.03 C190.716003,57.6420031 191.573995,57.948 192.606,57.948 C194.046007,57.948 195.227995,57.4620049 196.152,56.49 Z M215.07,59.028 C215.07,59.436002 214.920001,59.741999 214.62,59.946 C214.319998,60.150001 213.870003,60.2280002 213.27,60.18 L212.298,60.108 C210.37799,59.9639993 208.962005,59.388005 208.05,58.38 C207.137995,57.371995 206.682,55.8480102 206.682,53.808 L206.682,44.772 L204.27,44.772 C203.861998,44.772 203.544001,44.670001 203.316,44.466 C203.087999,44.261999 202.974,43.9920017 202.974,43.656 C202.974,43.2959982 203.087999,43.0080011 203.316,42.792 C203.544001,42.5759989 203.861998,42.468 204.27,42.468 L206.682,42.468 L206.682,38.4 C206.682,37.9439977 206.813999,37.5900013 207.078,37.338 C207.342001,37.0859987 207.701998,36.96 208.158,36.96 C208.590002,36.96 208.937999,37.0859987 209.202,37.338 C209.466001,37.5900013 209.598,37.9439977 209.598,38.4 L209.598,42.468 L213.594,42.468 C213.978002,42.468 214.283999,42.5759989 214.512,42.792 C214.740001,43.0080011 214.854,43.2959982 214.854,43.656 C214.854,43.9920017 214.740001,44.261999 214.512,44.466 C214.283999,44.670001 213.978002,44.772 213.594,44.772 L209.598,44.772 L209.598,53.952 C209.598,55.2720066 209.867997,56.2259971 210.408,56.814 C210.948003,57.4020029 211.757995,57.7319996 212.838,57.804 L213.81,57.876 C214.650004,57.9480004 215.07,58.3319965 215.07,59.028 Z M252.402,42.18 C252.762002,42.18 253.085999,42.2999988 253.374,42.54 C253.662001,42.7800012 253.806,43.0799982 253.806,43.44 C253.806,43.6080008 253.77,43.787999 253.698,43.98 L247.722,59.1 C247.577999,59.4120016 247.368001,59.6579991 247.092,59.838 C246.815999,60.0180009 246.510002,60.108 246.174,60.108 C245.861998,60.108 245.568001,60.0180009 245.292,59.838 C245.015999,59.6579991 244.806001,59.4120016 244.662,59.1 L239.694,46.464 L234.762,59.1 C234.641999,59.4120016 234.438001,59.6579991 234.15,59.838 C233.861999,60.0180009 233.550002,60.108 233.214,60.108 C232.901998,60.108 232.602001,60.0180009 232.314,59.838 C232.025999,59.6579991 231.810001,59.4120016 231.666,59.1 L225.69,44.016 C225.618,43.823999 225.582,43.6560007 225.582,43.512 C225.582,43.1279981 225.743998,42.8040013 226.068,42.54 C226.392002,42.2759987 226.745998,42.144 227.13,42.144 C227.706003,42.144 228.113999,42.4319971 228.354,43.008 L233.286,56.292 L238.362,43.116 C238.506001,42.8039984 238.703999,42.5640008 238.956,42.396 C239.208001,42.2279992 239.477999,42.144 239.766,42.144 C240.078002,42.144 240.359999,42.2279992 240.612,42.396 C240.864001,42.5640008 241.049999,42.8039984 241.17,43.116 L246.246,56.256 L251.214,43.044 C251.454001,42.4679971 251.849997,42.18 252.402,42.18 Z M257.964,59.802 C257.687999,59.5499987 257.55,59.1960023 257.55,58.74 L257.55,43.548 C257.55,43.0919977 257.687999,42.7380013 257.964,42.486 C258.240001,42.2339987 258.593998,42.108 259.026,42.108 C259.458002,42.108 259.805999,42.2339987 260.07,42.486 C260.334001,42.7380013 260.466,43.0919977 260.466,43.548 L260.466,58.74 C260.466,59.2200024 260.334001,59.5799988 260.07,59.82 C259.805999,60.0600012 259.458002,60.18 259.026,60.18 C258.593998,60.18 258.240001,60.0540013 257.964,59.802 Z M257.622,37.824 C257.261998,37.4879983 257.082,37.0440028 257.082,36.492 C257.082,35.9639974 257.261998,35.5320017 257.622,35.196 C257.982002,34.8599983 258.449997,34.692 259.026,34.692 C259.602003,34.692 260.069998,34.8599983 260.43,35.196 C260.790002,35.5320017 260.97,35.9639974 260.97,36.492 C260.97,37.0440028 260.790002,37.4879983 260.43,37.824 C260.069998,38.1600017 259.602003,38.328 259.026,38.328 C258.449997,38.328 257.982002,38.1600017 257.622,37.824 Z M275.262,59.028 C275.262,59.436002 275.112002,59.741999 274.812,59.946 C274.511999,60.150001 274.062003,60.2280002 273.462,60.18 L272.49,60.108 C270.56999,59.9639993 269.154005,59.388005 268.242,58.38 C267.329995,57.371995 266.874,55.8480102 266.874,53.808 L266.874,44.772 L264.462,44.772 C264.053998,44.772 263.736001,44.670001 263.508,44.466 C263.279999,44.261999 263.166,43.9920017 263.166,43.656 C263.166,43.2959982 263.279999,43.0080011 263.508,42.792 C263.736001,42.5759989 264.053998,42.468 264.462,42.468 L266.874,42.468 L266.874,38.4 C266.874,37.9439977 267.005999,37.5900013 267.27,37.338 C267.534001,37.0859987 267.893998,36.96 268.35,36.96 C268.782002,36.96 269.129999,37.0859987 269.394,37.338 C269.658001,37.5900013 269.79,37.9439977 269.79,38.4 L269.79,42.468 L273.786,42.468 C274.170002,42.468 274.475999,42.5759989 274.704,42.792 C274.932001,43.0080011 275.046,43.2959982 275.046,43.656 C275.046,43.9920017 274.932001,44.261999 274.704,44.466 C274.475999,44.670001 274.170002,44.772 273.786,44.772 L269.79,44.772 L269.79,53.952 C269.79,55.2720066 270.059997,56.2259971 270.6,56.814 C271.140003,57.4020029 271.949995,57.7319996 273.03,57.804 L274.002,57.876 C274.842004,57.9480004 275.262,58.3319965 275.262,59.028 Z M291.678,43.782 C292.734005,44.9460058 293.262,46.6799885 293.262,48.984 L293.262,58.74 C293.262,59.1960023 293.130001,59.5499987 292.866,59.802 C292.601999,60.0540013 292.254002,60.18 291.822,60.18 C291.365998,60.18 291.006001,60.0540013 290.742,59.802 C290.477999,59.5499987 290.346,59.1960023 290.346,58.74 L290.346,49.056 C290.346,47.4959922 290.028003,46.3440037 289.392,45.6 C288.755997,44.8559963 287.742007,44.484 286.35,44.484 C284.741992,44.484 283.458005,44.9759951 282.498,45.96 C281.537995,46.9440049 281.058,48.2759916 281.058,49.956 L281.058,58.74 C281.058,59.1960023 280.932001,59.5499987 280.68,59.802 C280.427999,60.0540013 280.074002,60.18 279.618,60.18 C279.161998,60.18 278.802001,60.0540013 278.538,59.802 C278.273999,59.5499987 278.142,59.1960023 278.142,58.74 L278.142,35.844 C278.142,35.435998 278.279999,35.1000013 278.556,34.836 C278.832001,34.5719987 279.185998,34.44 279.618,34.44 C280.074002,34.44 280.427999,34.5659987 280.68,34.818 C280.932001,35.0700013 281.058,35.4119978 281.058,35.844 L281.058,45.276 C281.634003,44.2199947 282.437995,43.4160028 283.47,42.864 C284.502005,42.3119972 285.677993,42.036 286.998,42.036 C289.06201,42.036 290.621995,42.6179942 291.678,43.782 Z M161.646,96.766 C161.381999,96.4899986 161.25,96.1240023 161.25,95.668 L161.25,73.06 C161.25,72.6279978 161.387999,72.2800013 161.664,72.016 C161.940001,71.7519987 162.305998,71.62 162.762,71.62 L175.866,71.62 C176.298002,71.62 176.633999,71.7279989 176.874,71.944 C177.114001,72.1600011 177.234,72.471998 177.234,72.88 C177.234,73.2640019 177.114001,73.5639989 176.874,73.78 C176.633999,73.9960011 176.298002,74.104 175.866,74.104 L164.166,74.104 L164.166,82.852 L175.146,82.852 C175.578002,82.852 175.913999,82.9599989 176.154,83.176 C176.394001,83.3920011 176.514,83.703998 176.514,84.112 C176.514,84.4960019 176.394001,84.7959989 176.154,85.012 C175.913999,85.2280011 175.578002,85.336 175.146,85.336 L164.166,85.336 L164.166,95.668 C164.166,96.1240023 164.040001,96.4899986 163.788,96.766 C163.535999,97.0420014 163.182002,97.18 162.726,97.18 C162.269998,97.18 161.910001,97.0420014 161.646,96.766 Z M191.058,80.332 C191.058,80.7160019 190.950001,81.0219989 190.734,81.25 C190.517999,81.4780011 190.146003,81.6159998 189.618,81.664 L188.538,81.772 C186.929992,81.9160007 185.736004,82.485995 184.956,83.482 C184.175996,84.478005 183.786,85.6479933 183.786,86.992 L183.786,95.74 C183.786,96.2200024 183.654001,96.5799988 183.39,96.82 C183.125999,97.0600012 182.778002,97.18 182.346,97.18 C181.913998,97.18 181.560001,97.0540013 181.284,96.802 C181.007999,96.5499987 180.87,96.1960023 180.87,95.74 L180.87,80.548 C180.87,80.0919977 181.013999,79.7380013 181.302,79.486 C181.590001,79.2339987 181.937998,79.108 182.346,79.108 C182.730002,79.108 183.053999,79.2339987 183.318,79.486 C183.582001,79.7380013 183.714,80.0799978 183.714,80.512 L183.714,82.528 C184.218003,81.4719947 184.931995,80.6680028 185.856,80.116 C186.780005,79.5639972 187.841994,79.2400005 189.042,79.144 L189.546,79.108 C190.554005,79.0359996 191.058,79.4439956 191.058,80.332 Z M193.992,96.802 C193.715999,96.5499987 193.578,96.1960023 193.578,95.74 L193.578,80.548 C193.578,80.0919977 193.715999,79.7380013 193.992,79.486 C194.268001,79.2339987 194.621998,79.108 195.054,79.108 C195.486002,79.108 195.833999,79.2339987 196.098,79.486 C196.362001,79.7380013 196.494,80.0919977 196.494,80.548 L196.494,95.74 C196.494,96.2200024 196.362001,96.5799988 196.098,96.82 C195.833999,97.0600012 195.486002,97.18 195.054,97.18 C194.621998,97.18 194.268001,97.0540013 193.992,96.802 Z M193.65,74.824 C193.289998,74.4879983 193.11,74.0440028 193.11,73.492 C193.11,72.9639974 193.289998,72.5320017 193.65,72.196 C194.010002,71.8599983 194.477997,71.692 195.054,71.692 C195.630003,71.692 196.097998,71.8599983 196.458,72.196 C196.818002,72.5320017 196.998,72.9639974 196.998,73.492 C196.998,74.0440028 196.818002,74.4879983 196.458,74.824 C196.097998,75.1600017 195.630003,75.328 195.054,75.328 C194.477997,75.328 194.010002,75.1600017 193.65,74.824 Z M216.186,93.256 C216.378001,93.4720011 216.474,93.7479983 216.474,94.084 C216.474,94.684003 216.054004,95.2359975 215.214,95.74 C214.349996,96.2440025 213.438005,96.6219987 212.478,96.874 C211.517995,97.1260013 210.582005,97.252 209.67,97.252 C206.957986,97.252 204.816008,96.448008 203.244,94.84 C201.671992,93.231992 200.886,91.0120142 200.886,88.18 C200.886,86.379991 201.233997,84.7900069 201.93,83.41 C202.626003,82.0299931 203.603994,80.9560038 204.864,80.188 C206.124006,79.4199962 207.557992,79.036 209.166,79.036 C211.446011,79.036 213.257993,79.7799926 214.602,81.268 C215.946007,82.7560074 216.618,84.7719873 216.618,87.316 C216.618,87.7960024 216.522001,88.1439989 216.33,88.36 C216.137999,88.5760011 215.826002,88.684 215.394,88.684 L203.802,88.684 C204.018001,92.8120206 205.973982,94.876 209.67,94.876 C210.606005,94.876 211.409997,94.7500013 212.082,94.498 C212.754003,94.2459987 213.473996,93.9040022 214.242,93.472 C214.866003,93.1119982 215.285999,92.932 215.502,92.932 C215.766001,92.932 215.993999,93.0399989 216.186,93.256 Z M205.512,82.744 C204.587995,83.7040048 204.042001,85.0599912 203.874,86.812 L214.062,86.812 C214.014,85.0359911 213.570004,83.6740047 212.73,82.726 C211.889996,81.7779953 210.714008,81.304 209.202,81.304 C207.665992,81.304 206.436005,81.7839952 205.512,82.744 Z M236.022,85.984 L236.022,95.74 C236.022,96.1960023 235.896001,96.5499987 235.644,96.802 C235.391999,97.0540013 235.038002,97.18 234.582,97.18 C234.125998,97.18 233.766001,97.0540013 233.502,96.802 C233.237999,96.5499987 233.106,96.1960023 233.106,95.74 L233.106,86.164 C233.106,84.5319918 232.788003,83.3440037 232.152,82.6 C231.515997,81.8559963 230.502007,81.484 229.11,81.484 C227.501992,81.484 226.218005,81.9759951 225.258,82.96 C224.297995,83.9440049 223.818,85.2759916 223.818,86.956 L223.818,95.74 C223.818,96.1960023 223.692001,96.5499987 223.44,96.802 C223.187999,97.0540013 222.834002,97.18 222.378,97.18 C221.921998,97.18 221.562001,97.0540013 221.298,96.802 C221.033999,96.5499987 220.902,96.1960023 220.902,95.74 L220.902,80.548 C220.902,80.1159978 221.033999,79.7680013 221.298,79.504 C221.562001,79.2399987 221.921998,79.108 222.378,79.108 C222.810002,79.108 223.151999,79.2399987 223.404,79.504 C223.656001,79.7680013 223.782,80.103998 223.782,80.512 L223.782,82.348 C224.358003,81.2679946 225.161995,80.4460028 226.194,79.882 C227.226005,79.3179972 228.401993,79.036 229.722,79.036 C233.922021,79.036 236.022,81.3519768 236.022,85.984 Z M256.506,71.836 C256.770001,72.1000013 256.902,72.435998 256.902,72.844 L256.902,95.74 C256.902,96.1720022 256.770001,96.5199987 256.506,96.784 C256.241999,97.0480013 255.882002,97.18 255.426,97.18 C254.969998,97.18 254.616001,97.0480013 254.364,96.784 C254.111999,96.5199987 253.986,96.1720022 253.986,95.74 L253.986,93.796 C253.457997,94.9000055 252.684005,95.751997 251.664,96.352 C250.643995,96.952003 249.450007,97.252 248.082,97.252 C246.545992,97.252 245.190006,96.8680038 244.014,96.1 C242.837994,95.3319962 241.926003,94.2580069 241.278,92.878 C240.629997,91.4979931 240.306,89.8960091 240.306,88.072 C240.306,86.271991 240.629997,84.6880068 241.278,83.32 C241.926003,81.9519932 242.837994,80.8960037 244.014,80.152 C245.190006,79.4079963 246.545992,79.036 248.082,79.036 C249.450007,79.036 250.643995,79.335997 251.664,79.936 C252.684005,80.536003 253.457997,81.3879945 253.986,82.492 L253.986,72.844 C253.986,72.4119978 254.111999,72.0700013 254.364,71.818 C254.616001,71.5659987 254.969998,71.44 255.426,71.44 C255.882002,71.44 256.241999,71.5719987 256.506,71.836 Z M252.6,93.094 C253.524005,91.9299942 253.986,90.2800107 253.986,88.144 C253.986,86.0079893 253.524005,84.3640058 252.6,83.212 C251.675995,82.0599942 250.362009,81.484 248.658,81.484 C246.953991,81.484 245.628005,82.0599942 244.68,83.212 C243.731995,84.3640058 243.258,85.9839896 243.258,88.072 C243.258,90.2080107 243.731995,91.8699941 244.68,93.058 C245.628005,94.2460059 246.953991,94.84 248.658,94.84 C250.362009,94.84 251.675995,94.2580058 252.6,93.094 Z M265.056,96.856 C264.059995,96.5919987 263.178004,96.2200024 262.41,95.74 C261.977998,95.4519986 261.672001,95.1820013 261.492,94.93 C261.311999,94.6779987 261.222,94.3720018 261.222,94.012 C261.222,93.6999984 261.311999,93.442001 261.492,93.238 C261.672001,93.033999 261.905999,92.932 262.194,92.932 C262.482001,92.932 262.901997,93.1119982 263.454,93.472 C264.174004,93.9040022 264.887996,94.2459987 265.596,94.498 C266.304004,94.7500013 267.185995,94.876 268.242,94.876 C269.538006,94.876 270.545996,94.6480023 271.266,94.192 C271.986004,93.7359977 272.346,93.0760043 272.346,92.212 C272.346,91.6839974 272.214001,91.2580016 271.95,90.934 C271.685999,90.6099984 271.230003,90.3220013 270.582,90.07 C269.933997,89.8179987 268.986006,89.5600013 267.738,89.296 C265.625989,88.8399977 264.114005,88.2280038 263.202,87.46 C262.289995,86.6919962 261.834,85.6480066 261.834,84.328 C261.834,83.2959948 262.121997,82.384004 262.698,81.592 C263.274003,80.799996 264.071995,80.1760023 265.092,79.72 C266.112005,79.2639977 267.269994,79.036 268.566,79.036 C269.502005,79.036 270.407996,79.1619987 271.284,79.414 C272.160004,79.6660013 272.933997,80.0199977 273.606,80.476 C274.422004,81.0520029 274.83,81.6519969 274.83,82.276 C274.83,82.5880016 274.734001,82.8519989 274.542,83.068 C274.349999,83.2840011 274.122001,83.392 273.858,83.392 C273.569999,83.392 273.138003,83.188002 272.562,82.78 C271.889997,82.3479978 271.254003,82.0120012 270.654,81.772 C270.053997,81.5319988 269.310004,81.412 268.422,81.412 C267.293994,81.412 266.388003,81.6639975 265.704,82.168 C265.019997,82.6720025 264.678,83.3439958 264.678,84.184 C264.678,84.7120026 264.803999,85.1379984 265.056,85.462 C265.308001,85.7860016 265.727997,86.0739987 266.316,86.326 C266.904003,86.5780013 267.749994,86.8239988 268.854,87.064 C270.486008,87.4240018 271.751996,87.8199978 272.652,88.252 C273.552004,88.6840022 274.193998,89.2119969 274.578,89.836 C274.962002,90.4600031 275.154,91.2519952 275.154,92.212 C275.154,93.7240076 274.518006,94.9419954 273.246,95.866 C271.973994,96.7900046 270.29401,97.252 268.206,97.252 C267.101994,97.252 266.052005,97.1200013 265.056,96.856 Z" id="Chat-with-Friends" fill="#FFFFFF"></path>
            </g>
        </g>
    </g>
</svg>