<?xml version="1.0" encoding="UTF-8"?>
<svg width="152px" height="152px" viewBox="0 0 152 152" version="1.1" xmlns="http://www.w3.org/2000/svg" xmlns:xlink="http://www.w3.org/1999/xlink">
    <!-- Generator: Sketch 49.3 (51167) - http://www.bohemiancoding.com/sketch -->
    <title>contact us</title>
    <desc>Created with Sketch.</desc>
    <defs>
        <linearGradient x1="110.895156%" y1="-19.1075484%" x2="17.0231844%" y2="97.0927959%" id="linearGradient-1">
            <stop stop-color="#B4F3D6" offset="0%"></stop>
            <stop stop-color="#72EFAC" offset="100%"></stop>
        </linearGradient>
        <rect id="path-2" x="0" y="0" width="140" height="140" rx="10"></rect>
        <filter x="-5.4%" y="-5.4%" width="115.0%" height="115.0%" filterUnits="objectBoundingBox" id="filter-3">
            <feOffset dx="3" dy="3" in="SourceAlpha" result="shadowOffsetOuter1"></feOffset>
            <feGaussianBlur stdDeviation="3" in="shadowOffsetOuter1" result="shadowBlurOuter1"></feGaussianBlur>
            <feColorMatrix values="0 0 0 0 0.447058824   0 0 0 0 0.937254902   0 0 0 0 0.674509804  0 0 0 0.25 0" type="matrix" in="shadowBlurOuter1"></feColorMatrix>
        </filter>
    </defs>
    <g id="iOS-App" stroke="none" stroke-width="1" fill="none" fill-rule="evenodd">
        <g id="Settings" transform="translate(-201.000000, -432.000000)">
            <g id="contact-us" transform="translate(204.000000, 435.000000)">
                <g id="Rectangle-4-Copy-3">
                    <use fill="black" fill-opacity="1" filter="url(#filter-3)" xlink:href="#path-2"></use>
                    <use fill="url(#linearGradient-1)" fill-rule="evenodd" xlink:href="#path-2"></use>
                </g>
                <path d="M33.408,121.432 C32.6293294,120.967998 32.0293354,120.301338 31.608,119.432 C31.1866646,118.562662 30.976,117.536006 30.976,116.352 C30.976,115.178661 31.1866646,114.157338 31.608,113.288 C32.0293354,112.418662 32.6293294,111.752002 33.408,111.288 C34.1866706,110.823998 35.109328,110.592 36.176,110.592 C36.8906702,110.592 37.5653302,110.706666 38.2,110.936 C38.8346698,111.165334 39.3866643,111.493331 39.856,111.92 C40.0266675,112.080001 40.112,112.266666 40.112,112.48 C40.112,112.629334 40.0693338,112.759999 39.984,112.872 C39.8986662,112.984001 39.7973339,113.04 39.68,113.04 C39.5519994,113.04 39.3973342,112.981334 39.216,112.864 C38.6719973,112.437331 38.1786689,112.138668 37.736,111.968 C37.2933311,111.797332 36.7840029,111.712 36.208,111.712 C34.9706605,111.712 34.01867,112.114663 33.352,112.92 C32.68533,113.725337 32.352,114.869326 32.352,116.352 C32.352,117.845341 32.68533,118.994663 33.352,119.8 C34.01867,120.605337 34.9706605,121.008 36.208,121.008 C36.7733362,121.008 37.2799978,120.922668 37.728,120.752 C38.1760022,120.581332 38.6719973,120.282669 39.216,119.856 C39.3973342,119.738666 39.5519994,119.68 39.68,119.68 C39.7973339,119.68 39.8986662,119.733333 39.984,119.84 C40.0693338,119.946667 40.112,120.079999 40.112,120.24 C40.112,120.453334 40.0266675,120.639999 39.856,120.8 C39.3866643,121.226669 38.8346698,121.554666 38.2,121.784 C37.5653302,122.013334 36.8906702,122.128 36.176,122.128 C35.109328,122.128 34.1866706,121.896002 33.408,121.432 Z M43.32,121.616 C42.7599972,121.285332 42.3280015,120.813336 42.024,120.2 C41.7199985,119.586664 41.568,118.874671 41.568,118.064 C41.568,117.253329 41.7199985,116.541336 42.024,115.928 C42.3280015,115.314664 42.7599972,114.842668 43.32,114.512 C43.8800028,114.181332 44.5279963,114.016 45.264,114.016 C46.0000037,114.016 46.6506638,114.181332 47.216,114.512 C47.7813362,114.842668 48.2159985,115.314664 48.52,115.928 C48.8240015,116.541336 48.976,117.253329 48.976,118.064 C48.976,118.874671 48.8240015,119.586664 48.52,120.2 C48.2159985,120.813336 47.7813362,121.285332 47.216,121.616 C46.6506638,121.946668 46.0000037,122.112 45.264,122.112 C44.5279963,122.112 43.8800028,121.946668 43.32,121.616 Z M47.032,120.28 C47.4426687,119.773331 47.648,119.034672 47.648,118.064 C47.648,117.114662 47.4400021,116.381336 47.024,115.864 C46.6079979,115.346664 46.0213371,115.088 45.264,115.088 C44.5066629,115.088 43.9200021,115.346664 43.504,115.864 C43.0879979,116.381336 42.88,117.114662 42.88,118.064 C42.88,119.024005 43.0853313,119.759997 43.496,120.272 C43.9066687,120.784003 44.4959962,121.04 45.264,121.04 C46.0320038,121.04 46.6213313,120.786669 47.032,120.28 Z M57.632,117.104 L57.632,121.44 C57.632,121.642668 57.5760006,121.799999 57.464,121.912 C57.3519994,122.024001 57.1946677,122.08 56.992,122.08 C56.7893323,122.08 56.6293339,122.024001 56.512,121.912 C56.3946661,121.799999 56.336,121.642668 56.336,121.44 L56.336,117.184 C56.336,116.458663 56.1946681,115.930668 55.912,115.6 C55.6293319,115.269332 55.1786698,115.104 54.56,115.104 C53.8453298,115.104 53.2746688,115.322664 52.848,115.76 C52.4213312,116.197336 52.208,116.78933 52.208,117.536 L52.208,121.44 C52.208,121.642668 52.1520006,121.799999 52.04,121.912 C51.9279994,122.024001 51.7706677,122.08 51.568,122.08 C51.3653323,122.08 51.2053339,122.024001 51.088,121.912 C50.9706661,121.799999 50.912,121.642668 50.912,121.44 L50.912,114.688 C50.912,114.495999 50.9706661,114.341334 51.088,114.224 C51.2053339,114.106666 51.3653323,114.048 51.568,114.048 C51.760001,114.048 51.9119994,114.106666 52.024,114.224 C52.1360006,114.341334 52.192,114.490666 52.192,114.672 L52.192,115.488 C52.4480013,115.007998 52.805331,114.642668 53.264,114.392 C53.722669,114.141332 54.2453304,114.016 54.832,114.016 C56.698676,114.016 57.632,115.045323 57.632,117.104 Z M64.16,121.568 C64.16,121.749334 64.093334,121.885333 63.96,121.976 C63.826666,122.066667 63.626668,122.101333 63.36,122.08 L62.928,122.048 C62.0746624,121.984 61.4453354,121.728002 61.04,121.28 C60.6346646,120.831998 60.432,120.154671 60.432,119.248 L60.432,115.232 L59.36,115.232 C59.1786658,115.232 59.0373338,115.186667 58.936,115.096 C58.8346662,115.005333 58.784,114.885334 58.784,114.736 C58.784,114.575999 58.8346662,114.448 58.936,114.352 C59.0373338,114.256 59.1786658,114.208 59.36,114.208 L60.432,114.208 L60.432,112.4 C60.432,112.197332 60.4906661,112.040001 60.608,111.928 C60.7253339,111.815999 60.8853323,111.76 61.088,111.76 C61.280001,111.76 61.4346661,111.815999 61.552,111.928 C61.6693339,112.040001 61.728,112.197332 61.728,112.4 L61.728,114.208 L63.504,114.208 C63.6746675,114.208 63.8106662,114.256 63.912,114.352 C64.0133338,114.448 64.064,114.575999 64.064,114.736 C64.064,114.885334 64.0133338,115.005333 63.912,115.096 C63.8106662,115.186667 63.6746675,115.232 63.504,115.232 L61.728,115.232 L61.728,119.312 C61.728,119.89867 61.8479988,120.322665 62.088,120.584 C62.3280012,120.845335 62.6879976,120.992 63.168,121.024 L63.6,121.056 C63.9733352,121.088 64.16,121.258665 64.16,121.568 Z M71.552,117.088 L71.552,121.44 C71.552,121.632001 71.4960006,121.786666 71.384,121.904 C71.2719994,122.021334 71.120001,122.08 70.928,122.08 C70.735999,122.08 70.5813339,122.021334 70.464,121.904 C70.3466661,121.786666 70.288,121.632001 70.288,121.44 L70.288,120.672 C70.0853323,121.130669 69.7760021,121.485332 69.36,121.736 C68.9439979,121.986668 68.4640027,122.112 67.92,122.112 C67.4186642,122.112 66.9573354,122.010668 66.536,121.808 C66.1146646,121.605332 65.7813346,121.322668 65.536,120.96 C65.2906654,120.597332 65.168,120.197336 65.168,119.76 C65.168,119.17333 65.3173318,118.717335 65.616,118.392 C65.9146682,118.066665 66.4053299,117.832001 67.088,117.688 C67.7706701,117.543999 68.7199939,117.472 69.936,117.472 L70.288,117.472 L70.288,116.944 C70.288,116.303997 70.1573346,115.834668 69.896,115.536 C69.6346654,115.237332 69.2106696,115.088 68.624,115.088 C67.898663,115.088 67.1626704,115.285331 66.416,115.68 C66.1279986,115.861334 65.9253339,115.952 65.808,115.952 C65.6799994,115.952 65.5733338,115.904 65.488,115.808 C65.4026662,115.712 65.36,115.589334 65.36,115.44 C65.36,115.290666 65.4053329,115.160001 65.496,115.048 C65.5866671,114.935999 65.7333323,114.821334 65.936,114.704 C66.3093352,114.490666 66.733331,114.322667 67.208,114.2 C67.682669,114.077333 68.1546643,114.016 68.624,114.016 C70.5760098,114.016 71.552,115.03999 71.552,117.088 Z M69.672,120.44 C70.0826687,120.007998 70.288,119.45067 70.288,118.768 L70.288,118.304 L70,118.304 C69.0613286,118.304 68.3466691,118.344 67.856,118.424 C67.3653309,118.504 67.016001,118.637332 66.808,118.824 C66.599999,119.010668 66.496,119.285332 66.496,119.648 C66.496,120.064002 66.6479985,120.407999 66.952,120.68 C67.2560015,120.952001 67.637331,121.088 68.096,121.088 C68.7360032,121.088 69.2613313,120.872002 69.672,120.44 Z M75.208,121.616 C74.6479972,121.285332 74.2160015,120.816003 73.912,120.208 C73.6079985,119.599997 73.456,118.896004 73.456,118.096 C73.456,117.295996 73.6133318,116.58667 73.928,115.968 C74.2426682,115.34933 74.6826638,114.869335 75.248,114.528 C75.8133362,114.186665 76.4639963,114.016 77.2,114.016 C77.6053354,114.016 78.007998,114.071999 78.408,114.184 C78.808002,114.296001 79.1573318,114.458666 79.456,114.672 C79.648001,114.800001 79.7839996,114.925333 79.864,115.048 C79.9440004,115.170667 79.984,115.306666 79.984,115.456 C79.984,115.605334 79.9440004,115.728 79.864,115.824 C79.7839996,115.92 79.6800006,115.968 79.552,115.968 C79.477333,115.968 79.3973338,115.946667 79.312,115.904 C79.2266662,115.861333 79.154667,115.818667 79.096,115.776 C79.037333,115.733333 78.9973334,115.706667 78.976,115.696 C78.6986653,115.514666 78.4346679,115.370667 78.184,115.264 C77.9333321,115.157333 77.6266685,115.104 77.264,115.104 C76.4853294,115.104 75.8800022,115.367997 75.448,115.896 C75.0159978,116.424003 74.8,117.157329 74.8,118.096 C74.8,119.034671 75.0159978,119.759997 75.448,120.272 C75.8800022,120.784003 76.4853294,121.04 77.264,121.04 C77.6266685,121.04 77.9386654,120.986667 78.2,120.88 C78.4613346,120.773333 78.725332,120.629334 78.992,120.448 C79.1093339,120.373333 79.2213328,120.309334 79.328,120.256 C79.4346672,120.202666 79.525333,120.176 79.6,120.176 C79.7173339,120.176 79.8159996,120.224 79.896,120.32 C79.9760004,120.416 80.016,120.538666 80.016,120.688 C80.016,120.826667 79.978667,120.951999 79.904,121.064 C79.829333,121.176001 79.6906677,121.301333 79.488,121.44 C79.1893318,121.642668 78.8293354,121.805333 78.408,121.928 C77.9866646,122.050667 77.5626688,122.112 77.136,122.112 C76.410663,122.112 75.7680028,121.946668 75.208,121.616 Z M85.744,121.568 C85.744,121.749334 85.677334,121.885333 85.544,121.976 C85.410666,122.066667 85.210668,122.101333 84.944,122.08 L84.512,122.048 C83.6586624,121.984 83.0293354,121.728002 82.624,121.28 C82.2186646,120.831998 82.016,120.154671 82.016,119.248 L82.016,115.232 L80.944,115.232 C80.7626658,115.232 80.6213338,115.186667 80.52,115.096 C80.4186662,115.005333 80.368,114.885334 80.368,114.736 C80.368,114.575999 80.4186662,114.448 80.52,114.352 C80.6213338,114.256 80.7626658,114.208 80.944,114.208 L82.016,114.208 L82.016,112.4 C82.016,112.197332 82.0746661,112.040001 82.192,111.928 C82.3093339,111.815999 82.4693323,111.76 82.672,111.76 C82.864001,111.76 83.0186661,111.815999 83.136,111.928 C83.2533339,112.040001 83.312,112.197332 83.312,112.4 L83.312,114.208 L85.088,114.208 C85.2586675,114.208 85.3946662,114.256 85.496,114.352 C85.5973338,114.448 85.648,114.575999 85.648,114.736 C85.648,114.885334 85.5973338,115.005333 85.496,115.096 C85.3946662,115.186667 85.2586675,115.232 85.088,115.232 L83.312,115.232 L83.312,119.312 C83.312,119.89867 83.4319988,120.322665 83.672,120.584 C83.9120012,120.845335 84.2719976,120.992 84.752,121.024 L85.184,121.056 C85.5573352,121.088 85.744,121.258665 85.744,121.568 Z M92.4,120.976 C91.6426629,120.207996 91.264,119.077341 91.264,117.584 L91.264,111.312 C91.264,111.109332 91.3226661,110.946667 91.44,110.824 C91.5573339,110.701333 91.7173323,110.64 91.92,110.64 C92.112001,110.64 92.2666661,110.701333 92.384,110.824 C92.5013339,110.946667 92.56,111.109332 92.56,111.312 L92.56,117.696 C92.56,118.794672 92.8293306,119.621331 93.368,120.176 C93.9066694,120.730669 94.6986614,121.008 95.744,121.008 C96.7893386,121.008 97.578664,120.730669 98.112,120.176 C98.645336,119.621331 98.912,118.794672 98.912,117.696 L98.912,111.312 C98.912,111.109332 98.9733327,110.946667 99.096,110.824 C99.2186673,110.701333 99.375999,110.64 99.568,110.64 C99.7706677,110.64 99.9306661,110.701333 100.048,110.824 C100.165334,110.946667 100.224,111.109332 100.224,111.312 L100.224,117.584 C100.224,119.066674 99.8426705,120.194663 99.08,120.968 C98.3173295,121.741337 97.2053406,122.128 95.744,122.128 C94.2719926,122.128 93.1573371,121.744004 92.4,120.976 Z M103.96,121.936 C103.517331,121.818666 103.125335,121.653334 102.784,121.44 C102.591999,121.311999 102.456,121.192001 102.376,121.08 C102.296,120.967999 102.256,120.832001 102.256,120.672 C102.256,120.533333 102.296,120.418667 102.376,120.328 C102.456,120.237333 102.559999,120.192 102.688,120.192 C102.816001,120.192 103.002665,120.271999 103.248,120.432 C103.568002,120.624001 103.885332,120.775999 104.2,120.888 C104.514668,121.000001 104.906664,121.056 105.376,121.056 C105.952003,121.056 106.399998,120.954668 106.72,120.752 C107.040002,120.549332 107.2,120.256002 107.2,119.872 C107.2,119.637332 107.141334,119.448001 107.024,119.304 C106.906666,119.159999 106.704001,119.032001 106.416,118.92 C106.127999,118.807999 105.706669,118.693334 105.152,118.576 C104.213329,118.373332 103.541335,118.101335 103.136,117.76 C102.730665,117.418665 102.528,116.95467 102.528,116.368 C102.528,115.909331 102.655999,115.504002 102.912,115.152 C103.168001,114.799998 103.522664,114.522668 103.976,114.32 C104.429336,114.117332 104.943997,114.016 105.52,114.016 C105.936002,114.016 106.338665,114.071999 106.728,114.184 C107.117335,114.296001 107.461332,114.453332 107.76,114.656 C108.122668,114.912001 108.304,115.178665 108.304,115.456 C108.304,115.594667 108.261334,115.712 108.176,115.808 C108.090666,115.904 107.989334,115.952 107.872,115.952 C107.743999,115.952 107.552001,115.861334 107.296,115.68 C106.997332,115.487999 106.714668,115.338667 106.448,115.232 C106.181332,115.125333 105.850669,115.072 105.456,115.072 C104.954664,115.072 104.552002,115.183999 104.248,115.408 C103.943998,115.632001 103.792,115.930665 103.792,116.304 C103.792,116.538668 103.847999,116.727999 103.96,116.872 C104.072001,117.016001 104.258665,117.143999 104.52,117.256 C104.781335,117.368001 105.157331,117.477333 105.648,117.584 C106.373337,117.744001 106.935998,117.919999 107.336,118.112 C107.736002,118.304001 108.021332,118.538665 108.192,118.816 C108.362668,119.093335 108.448,119.445331 108.448,119.872 C108.448,120.544003 108.165336,121.085331 107.6,121.496 C107.034664,121.906669 106.288005,122.112 105.36,122.112 C104.869331,122.112 104.402669,122.053334 103.96,121.936 Z" id="Contact-Us" fill="#FFFFFF"></path>
            </g>
        </g>
    </g>
</svg>