<?xml version="1.0" encoding="utf-8"?>
<!-- Generator: Adobe Illustrator 22.0.1, SVG Export Plug-In . SVG Version: 6.00 Build 0)  -->
<svg version="1.1" xmlns="http://www.w3.org/2000/svg" xmlns:xlink="http://www.w3.org/1999/xlink" x="0px" y="0px"
	 viewBox="0 0 151.3 112.7" style="enable-background:new 0 0 151.3 112.7;" xml:space="preserve">
<style type="text/css">
	.st0{fill:none;stroke:#FFFFFF;stroke-width:1.854;stroke-miterlimit:10;}
	.st1{fill:none;stroke:#FFFFFF;stroke-width:1.854;}
	.st2{fill:#FFFFFF;}
	.st3{fill:none;stroke:#FFFFFF;stroke-width:2;stroke-linecap:round;stroke-linejoin:round;stroke-miterlimit:10;}
	.st4{fill:none;stroke:#FFFFFF;stroke-width:2;stroke-miterlimit:10;}
	.st5{fill:none;stroke:#FFFFFF;stroke-width:1.9255;stroke-miterlimit:10;}
	.st6{fill:none;stroke:#FFFFFF;stroke-linecap:round;stroke-linejoin:round;stroke-miterlimit:10;}
	.st7{fill:none;stroke:#FFFFFF;stroke-width:1.4107;stroke-miterlimit:10;}
	.st8{fill:none;stroke:#FFFFFF;stroke-width:2.2747;stroke-linecap:round;stroke-linejoin:round;stroke-miterlimit:10;}
	.st9{fill:none;stroke:#FFFFFF;stroke-width:2.03;stroke-linecap:round;stroke-linejoin:round;stroke-miterlimit:10;}
	.st10{fill:none;}
	.st11{fill:#FFFFFF;stroke:#FFFFFF;stroke-linecap:round;stroke-linejoin:round;stroke-miterlimit:10;}
</style>
<g id="Layer_2">
</g>
<g id="Layer_1">
</g>
<g id="Layer_3">
	<g>
		<g>
			<path class="st3" d="M42.4,44.4c-1.6-0.5-3.3-0.7-5.2-0.3c-3.9,0.9-6.8,4.4-7.9,8.2s-0.7,7.9,0.2,11.8c0.9,4.2,2.4,8.3,4.7,11.9
				c1,1.5,2.2,3,3.7,4c2,1.4,4.2,1.8,6.5,1c1-0.4,2.1-0.9,3.2-1.1c3.9-0.6,7,3,10.8,1.3c5.2-2.3,8.5-9.4,10.1-14.6
				c1.5-4.6,2-9.8,0.3-14.3c-2-5.4-7.5-9.2-13.3-8.4c-2.7,0.4-5.6,2.2-8.2,1.7C45.5,45.4,44,44.8,42.4,44.4z"/>
			<path class="st3" d="M48,45.2c0-4,2-8,5.2-10.3"/>
		</g>
		<g>
			<path class="st3" d="M72.8,49.4h45.5c0-10.2-7.5-18.4-16.7-18.4H77.3c-5.7,0-10.8,3.2-13.8,8C66.2,40.6,70.4,43.8,72.8,49.4z"/>
			<path class="st2" d="M120.7,53.8H74.1c0.4,1.9,0.5,3.9,0.4,6.2h46.2c1.1,0,2-1,2-2.2V56C122.7,54.8,121.8,53.8,120.7,53.8z"/>
			<path class="st3" d="M74.2,63.7C73.7,67.1,73,69.8,72,72h38.7c4.2,0,7.5-3.7,7.5-8.3H74.2z"/>
		</g>
		<path class="st3" d="M54.9,48.6c4.1,0.4,7.7,4,8,8.2"/>
	</g>
</g>
</svg>
