<?xml version="1.0" encoding="utf-8"?>
<!-- Generator: Adobe Illustrator 22.0.1, SVG Export Plug-In . SVG Version: 6.00 Build 0)  -->
<svg version="1.1" id="Layer_1" xmlns="http://www.w3.org/2000/svg" xmlns:xlink="http://www.w3.org/1999/xlink" x="0px" y="0px"
	 viewBox="0 0 140.2 133.9" style="enable-background:new 0 0 140.2 133.9;" xml:space="preserve">
<style type="text/css">
	.st0{fill:#FF7E88;}
	.st1{fill:#FFBE84;}
	.st2{fill:#FF9267;}
	.st3{opacity:0.3;}
	.st4{clip-path:url(#SVGID_2_);fill:#C1815D;}
	.st5{clip-path:url(#SVGID_2_);fill:#C2825D;}
	.st6{clip-path:url(#SVGID_2_);fill:#C2825E;}
	.st7{clip-path:url(#SVGID_2_);fill:#C3835E;}
	.st8{clip-path:url(#SVGID_2_);fill:#C4845F;}
	.st9{clip-path:url(#SVGID_2_);fill:#C58560;}
	.st10{clip-path:url(#SVGID_2_);fill:#C68660;}
	.st11{clip-path:url(#SVGID_2_);fill:#C78761;}
	.st12{clip-path:url(#SVGID_2_);fill:#C88861;}
	.st13{clip-path:url(#SVGID_2_);fill:#C98862;}
	.st14{clip-path:url(#SVGID_2_);fill:#C98962;}
	.st15{clip-path:url(#SVGID_2_);fill:#CA8A63;}
	.st16{clip-path:url(#SVGID_2_);fill:#CB8B63;}
	.st17{clip-path:url(#SVGID_2_);fill:#CC8C64;}
	.st18{clip-path:url(#SVGID_2_);fill:#CD8D65;}
	.st19{clip-path:url(#SVGID_2_);fill:#CE8E65;}
	.st20{clip-path:url(#SVGID_2_);fill:#CF8F66;}
	.st21{clip-path:url(#SVGID_2_);fill:#D09066;}
	.st22{clip-path:url(#SVGID_2_);fill:#D19167;}
	.st23{clip-path:url(#SVGID_2_);fill:#D29268;}
	.st24{clip-path:url(#SVGID_2_);fill:#D39368;}
	.st25{clip-path:url(#SVGID_2_);fill:#D49469;}
	.st26{clip-path:url(#SVGID_2_);fill:#D5956A;}
	.st27{clip-path:url(#SVGID_2_);fill:#D6966A;}
	.st28{clip-path:url(#SVGID_2_);fill:#D7976B;}
	.st29{clip-path:url(#SVGID_2_);fill:#D8986B;}
	.st30{clip-path:url(#SVGID_2_);fill:#D9996C;}
	.st31{clip-path:url(#SVGID_2_);fill:#DA9A6D;}
	.st32{clip-path:url(#SVGID_2_);fill:#DB9B6D;}
	.st33{clip-path:url(#SVGID_2_);fill:#DC9C6E;}
	.st34{clip-path:url(#SVGID_2_);fill:#DD9D6F;}
	.st35{clip-path:url(#SVGID_2_);fill:#DE9E6F;}
	.st36{clip-path:url(#SVGID_2_);fill:#DF9F70;}
	.st37{clip-path:url(#SVGID_2_);fill:#E0A071;}
	.st38{clip-path:url(#SVGID_2_);fill:#E1A171;}
	.st39{clip-path:url(#SVGID_2_);fill:#E3A272;}
	.st40{clip-path:url(#SVGID_2_);fill:#E4A373;}
	.st41{clip-path:url(#SVGID_2_);fill:#E5A473;}
	.st42{clip-path:url(#SVGID_2_);fill:#E6A574;}
	.st43{clip-path:url(#SVGID_2_);fill:#E7A675;}
	.st44{clip-path:url(#SVGID_2_);fill:#E8A776;}
	.st45{clip-path:url(#SVGID_2_);fill:#E9A976;}
	.st46{clip-path:url(#SVGID_2_);fill:#EAAA77;}
	.st47{clip-path:url(#SVGID_2_);fill:#EBAB78;}
	.st48{clip-path:url(#SVGID_2_);fill:#EDAC78;}
	.st49{clip-path:url(#SVGID_2_);fill:#EEAD79;}
	.st50{clip-path:url(#SVGID_2_);fill:#EFAE7A;}
	.st51{clip-path:url(#SVGID_2_);fill:#F0AF7B;}
	.st52{clip-path:url(#SVGID_2_);fill:#F1B07B;}
	.st53{clip-path:url(#SVGID_2_);fill:#F2B17C;}
	.st54{clip-path:url(#SVGID_2_);fill:#F3B37D;}
	.st55{clip-path:url(#SVGID_2_);fill:#F4B47D;}
	.st56{clip-path:url(#SVGID_2_);fill:#F6B57E;}
	.st57{clip-path:url(#SVGID_2_);fill:#F7B67F;}
	.st58{clip-path:url(#SVGID_2_);fill:#F8B780;}
	.st59{clip-path:url(#SVGID_2_);fill:#F9B880;}
	.st60{clip-path:url(#SVGID_2_);fill:#FAB981;}
	.st61{clip-path:url(#SVGID_2_);fill:#FBBB82;}
	.st62{clip-path:url(#SVGID_2_);fill:#FDBC83;}
	.st63{clip-path:url(#SVGID_2_);fill:#FEBD83;}
	.st64{clip-path:url(#SVGID_2_);fill:#FFBE84;}
	.st65{opacity:0.8;}
	.st66{clip-path:url(#SVGID_4_);fill:#FF9267;}
	.st67{clip-path:url(#SVGID_4_);fill:#FF9367;}
	.st68{clip-path:url(#SVGID_4_);fill:#FF9368;}
	.st69{clip-path:url(#SVGID_4_);fill:#FF9468;}
	.st70{clip-path:url(#SVGID_4_);fill:#FF9569;}
	.st71{clip-path:url(#SVGID_4_);fill:#FF966A;}
	.st72{clip-path:url(#SVGID_4_);fill:#FF976A;}
	.st73{clip-path:url(#SVGID_4_);fill:#FF986B;}
	.st74{clip-path:url(#SVGID_4_);fill:#FF996B;}
	.st75{clip-path:url(#SVGID_4_);fill:#FF9A6C;}
	.st76{clip-path:url(#SVGID_4_);fill:#FF9B6D;}
	.st77{clip-path:url(#SVGID_4_);fill:#FF9C6E;}
	.st78{clip-path:url(#SVGID_4_);fill:#FF9D6F;}
	.st79{clip-path:url(#SVGID_4_);fill:#FF9E6F;}
	.st80{clip-path:url(#SVGID_4_);fill:#FF9F70;}
	.st81{clip-path:url(#SVGID_4_);fill:#FFA071;}
	.st82{clip-path:url(#SVGID_4_);fill:#FFA171;}
	.st83{clip-path:url(#SVGID_4_);fill:#FFA272;}
	.st84{clip-path:url(#SVGID_4_);fill:#FFA473;}
	.st85{clip-path:url(#SVGID_4_);fill:#FFA573;}
	.st86{clip-path:url(#SVGID_4_);fill:#FFA674;}
	.st87{clip-path:url(#SVGID_4_);fill:#FFA775;}
	.st88{clip-path:url(#SVGID_4_);fill:#FFA875;}
	.st89{clip-path:url(#SVGID_4_);fill:#FFA976;}
	.st90{clip-path:url(#SVGID_4_);fill:#FFAA77;}
	.st91{clip-path:url(#SVGID_4_);fill:#FFAB77;}
	.st92{clip-path:url(#SVGID_4_);fill:#FFAC78;}
	.st93{clip-path:url(#SVGID_4_);fill:#FFAD79;}
	.st94{clip-path:url(#SVGID_4_);fill:#FFAE7A;}
	.st95{clip-path:url(#SVGID_4_);fill:#FFAF7A;}
	.st96{clip-path:url(#SVGID_4_);fill:#FFB07B;}
	.st97{clip-path:url(#SVGID_4_);fill:#FFB27C;}
	.st98{clip-path:url(#SVGID_4_);fill:#FFB37D;}
	.st99{clip-path:url(#SVGID_4_);fill:#FFB47D;}
	.st100{clip-path:url(#SVGID_4_);fill:#FFB57E;}
	.st101{clip-path:url(#SVGID_4_);fill:#FFB67F;}
	.st102{clip-path:url(#SVGID_4_);fill:#FFB77F;}
	.st103{clip-path:url(#SVGID_4_);fill:#FFB880;}
	.st104{clip-path:url(#SVGID_4_);fill:#FFB981;}
	.st105{clip-path:url(#SVGID_4_);fill:#FFBB82;}
	.st106{clip-path:url(#SVGID_4_);fill:#FFBC82;}
	.st107{clip-path:url(#SVGID_4_);fill:#FFBD83;}
	.st108{clip-path:url(#SVGID_4_);fill:#FFBE84;}
	.st109{fill:#361E56;}
	.st110{clip-path:url(#SVGID_6_);fill:#FF9267;}
	.st111{clip-path:url(#SVGID_6_);fill:#FF9367;}
	.st112{clip-path:url(#SVGID_6_);fill:#FF9368;}
	.st113{clip-path:url(#SVGID_6_);fill:#FF9468;}
	.st114{clip-path:url(#SVGID_6_);fill:#FF9569;}
	.st115{clip-path:url(#SVGID_6_);fill:#FF966A;}
	.st116{clip-path:url(#SVGID_6_);fill:#FF976A;}
	.st117{clip-path:url(#SVGID_6_);fill:#FF986B;}
	.st118{clip-path:url(#SVGID_6_);fill:#FF996B;}
	.st119{clip-path:url(#SVGID_6_);fill:#FF9A6C;}
	.st120{clip-path:url(#SVGID_6_);fill:#FF9B6D;}
	.st121{clip-path:url(#SVGID_6_);fill:#FF9C6E;}
	.st122{clip-path:url(#SVGID_6_);fill:#FF9D6F;}
	.st123{clip-path:url(#SVGID_6_);fill:#FF9E6F;}
	.st124{clip-path:url(#SVGID_6_);fill:#FF9F70;}
	.st125{clip-path:url(#SVGID_6_);fill:#FFA071;}
	.st126{clip-path:url(#SVGID_6_);fill:#FFA171;}
	.st127{clip-path:url(#SVGID_6_);fill:#FFA272;}
	.st128{clip-path:url(#SVGID_6_);fill:#FFA473;}
	.st129{clip-path:url(#SVGID_6_);fill:#FFA573;}
	.st130{clip-path:url(#SVGID_6_);fill:#FFA674;}
	.st131{clip-path:url(#SVGID_6_);fill:#FFA775;}
	.st132{clip-path:url(#SVGID_6_);fill:#FFA875;}
	.st133{clip-path:url(#SVGID_6_);fill:#FFA976;}
	.st134{clip-path:url(#SVGID_6_);fill:#FFAA77;}
	.st135{clip-path:url(#SVGID_6_);fill:#FFAB77;}
	.st136{clip-path:url(#SVGID_6_);fill:#FFAC78;}
	.st137{clip-path:url(#SVGID_6_);fill:#FFAD79;}
	.st138{clip-path:url(#SVGID_6_);fill:#FFAE7A;}
	.st139{clip-path:url(#SVGID_6_);fill:#FFAF7A;}
	.st140{clip-path:url(#SVGID_6_);fill:#FFB07B;}
	.st141{clip-path:url(#SVGID_6_);fill:#FFB27C;}
	.st142{clip-path:url(#SVGID_6_);fill:#FFB37D;}
	.st143{clip-path:url(#SVGID_6_);fill:#FFB47D;}
	.st144{clip-path:url(#SVGID_6_);fill:#FFB57E;}
	.st145{clip-path:url(#SVGID_6_);fill:#FFB67F;}
	.st146{clip-path:url(#SVGID_6_);fill:#FFB77F;}
	.st147{clip-path:url(#SVGID_6_);fill:#FFB880;}
	.st148{clip-path:url(#SVGID_6_);fill:#FFB981;}
	.st149{clip-path:url(#SVGID_6_);fill:#FFBB82;}
	.st150{clip-path:url(#SVGID_6_);fill:#FFBC82;}
	.st151{clip-path:url(#SVGID_6_);fill:#FFBD83;}
	.st152{clip-path:url(#SVGID_6_);fill:#FFBE84;}
	.st153{opacity:0.15;}
	.st154{clip-path:url(#SVGID_8_);fill:#C1815D;}
	.st155{clip-path:url(#SVGID_8_);fill:#C2825D;}
	.st156{clip-path:url(#SVGID_8_);fill:#C2825E;}
	.st157{clip-path:url(#SVGID_8_);fill:#C3835E;}
	.st158{clip-path:url(#SVGID_8_);fill:#C4845F;}
	.st159{clip-path:url(#SVGID_8_);fill:#C58560;}
	.st160{clip-path:url(#SVGID_8_);fill:#C68660;}
	.st161{clip-path:url(#SVGID_8_);fill:#C78761;}
	.st162{clip-path:url(#SVGID_8_);fill:#C88861;}
	.st163{clip-path:url(#SVGID_8_);fill:#C98862;}
	.st164{clip-path:url(#SVGID_8_);fill:#C98962;}
	.st165{clip-path:url(#SVGID_8_);fill:#CA8A63;}
	.st166{clip-path:url(#SVGID_8_);fill:#CB8B63;}
	.st167{clip-path:url(#SVGID_8_);fill:#CC8C64;}
	.st168{clip-path:url(#SVGID_8_);fill:#CD8D65;}
	.st169{clip-path:url(#SVGID_8_);fill:#CE8E65;}
	.st170{clip-path:url(#SVGID_8_);fill:#CF8F66;}
	.st171{clip-path:url(#SVGID_8_);fill:#D09066;}
	.st172{clip-path:url(#SVGID_8_);fill:#D19167;}
	.st173{clip-path:url(#SVGID_8_);fill:#D29268;}
	.st174{clip-path:url(#SVGID_8_);fill:#D39368;}
	.st175{clip-path:url(#SVGID_8_);fill:#D49469;}
	.st176{clip-path:url(#SVGID_8_);fill:#D5956A;}
	.st177{clip-path:url(#SVGID_8_);fill:#D6966A;}
	.st178{clip-path:url(#SVGID_8_);fill:#D7976B;}
	.st179{clip-path:url(#SVGID_8_);fill:#D8986B;}
	.st180{clip-path:url(#SVGID_8_);fill:#D9996C;}
	.st181{clip-path:url(#SVGID_8_);fill:#DA9A6D;}
	.st182{clip-path:url(#SVGID_8_);fill:#DB9B6D;}
	.st183{clip-path:url(#SVGID_8_);fill:#DC9C6E;}
	.st184{clip-path:url(#SVGID_8_);fill:#DD9D6F;}
	.st185{clip-path:url(#SVGID_8_);fill:#DE9E6F;}
	.st186{clip-path:url(#SVGID_8_);fill:#DF9F70;}
	.st187{clip-path:url(#SVGID_8_);fill:#E0A071;}
	.st188{clip-path:url(#SVGID_8_);fill:#E1A171;}
	.st189{clip-path:url(#SVGID_8_);fill:#E3A272;}
	.st190{clip-path:url(#SVGID_8_);fill:#E4A373;}
	.st191{clip-path:url(#SVGID_8_);fill:#E5A473;}
	.st192{clip-path:url(#SVGID_8_);fill:#E6A574;}
	.st193{clip-path:url(#SVGID_8_);fill:#E7A675;}
	.st194{clip-path:url(#SVGID_8_);fill:#E8A776;}
	.st195{clip-path:url(#SVGID_8_);fill:#E9A976;}
	.st196{clip-path:url(#SVGID_8_);fill:#EAAA77;}
	.st197{clip-path:url(#SVGID_8_);fill:#EBAB78;}
	.st198{clip-path:url(#SVGID_8_);fill:#EDAC78;}
	.st199{clip-path:url(#SVGID_8_);fill:#EEAD79;}
	.st200{clip-path:url(#SVGID_8_);fill:#EFAE7A;}
	.st201{clip-path:url(#SVGID_8_);fill:#F0AF7B;}
	.st202{clip-path:url(#SVGID_8_);fill:#F1B07B;}
	.st203{clip-path:url(#SVGID_8_);fill:#F2B17C;}
	.st204{clip-path:url(#SVGID_8_);fill:#F3B37D;}
	.st205{clip-path:url(#SVGID_8_);fill:#F4B47D;}
	.st206{clip-path:url(#SVGID_8_);fill:#F6B57E;}
	.st207{clip-path:url(#SVGID_8_);fill:#F7B67F;}
	.st208{clip-path:url(#SVGID_8_);fill:#F8B780;}
	.st209{clip-path:url(#SVGID_8_);fill:#F9B880;}
	.st210{clip-path:url(#SVGID_8_);fill:#FAB981;}
	.st211{clip-path:url(#SVGID_8_);fill:#FBBB82;}
	.st212{clip-path:url(#SVGID_8_);fill:#FDBC83;}
	.st213{clip-path:url(#SVGID_8_);fill:#FEBD83;}
	.st214{clip-path:url(#SVGID_8_);fill:#FFBE84;}
	.st215{fill:none;stroke:#361E56;stroke-width:4;stroke-linecap:round;stroke-linejoin:round;stroke-miterlimit:10;}
</style>
<g>
	<g>
		<path class="st1" d="M63.5,14c5.4,0.4,11,1.5,15.3,4.8c6,4.7,8.2,12.7,9.2,20.2c1.9,13.9,1.1,28.2-2.3,41.8
			c-3.6,14.6-10.8,29.2-23.4,37.5S31.1,127,20.8,116c-5.3-5.7-7.8-13.4-9.8-21C-1.1,48.8,8.1,9.6,63.5,14z"/>
	</g>
	<g>
		<path class="st2" d="M48.6,102.3c-0.1,0-0.2,0-0.3-0.1c-5.5-2.3-9.9-7.3-12.2-13.7c-1.9-5.2-2.4-11.2-1.5-18.3
			c1.7-14,8.4-25.3,18.1-30.3c0.4-0.2,1-0.1,1.2,0.4c0.2,0.4,0.1,1-0.4,1.2c-9.1,4.7-15.5,15.5-17.1,28.9
			c-0.8,6.8-0.3,12.6,1.4,17.5c2.1,5.9,6.2,10.6,11.2,12.7c0.4,0.2,0.7,0.7,0.5,1.2C49.2,102.1,48.9,102.3,48.6,102.3z"/>
	</g>
	<g class="st65">
		<g>
			<defs>
				<path id="SVGID_5_" d="M53.2,40.7C42.6,46.2,37,58.4,35.6,70.3c-0.7,6-0.6,12.2,1.5,17.9c2,5.7,6.1,10.8,11.7,13.2"/>
			</defs>
			<clipPath id="SVGID_2_">
				<use xlink:href="#SVGID_5_"  style="overflow:visible;"/>
			</clipPath>
			<rect x="34.9" y="40.7" style="clip-path:url(#SVGID_2_);fill:#FF9267;" width="0.3" height="60.8"/>
			<rect x="35.2" y="40.7" style="clip-path:url(#SVGID_2_);fill:#FF9267;" width="0.4" height="60.8"/>
			<rect x="35.6" y="40.7" style="clip-path:url(#SVGID_2_);fill:#FF9367;" width="0.4" height="60.8"/>
			<rect x="36" y="40.7" style="clip-path:url(#SVGID_2_);fill:#FF9368;" width="0.4" height="60.8"/>
			<rect x="36.4" y="40.7" style="clip-path:url(#SVGID_2_);fill:#FF9468;" width="0.4" height="60.8"/>
			<rect x="36.8" y="40.7" style="clip-path:url(#SVGID_2_);fill:#FF9569;" width="0.4" height="60.8"/>
			<rect x="37.3" y="40.7" style="clip-path:url(#SVGID_2_);fill:#FF966A;" width="0.4" height="60.8"/>
			<rect x="37.7" y="40.7" style="clip-path:url(#SVGID_2_);fill:#FF976A;" width="0.4" height="60.8"/>
			<rect x="38.1" y="40.7" style="clip-path:url(#SVGID_2_);fill:#FF986B;" width="0.4" height="60.8"/>
			<rect x="38.5" y="40.7" style="clip-path:url(#SVGID_2_);fill:#FF996B;" width="0.4" height="60.8"/>
			<rect x="38.9" y="40.7" style="clip-path:url(#SVGID_2_);fill:#FF9A6C;" width="0.4" height="60.8"/>
			<rect x="39.3" y="40.7" style="clip-path:url(#SVGID_2_);fill:#FF9B6D;" width="0.4" height="60.8"/>
			<rect x="39.7" y="40.7" style="clip-path:url(#SVGID_2_);fill:#FF9B6D;" width="0.4" height="60.8"/>
			<rect x="40.1" y="40.7" style="clip-path:url(#SVGID_2_);fill:#FF9C6E;" width="0.4" height="60.8"/>
			<rect x="40.5" y="40.7" style="clip-path:url(#SVGID_2_);fill:#FF9D6F;" width="0.4" height="60.8"/>
			<rect x="40.9" y="40.7" style="clip-path:url(#SVGID_2_);fill:#FF9E6F;" width="0.4" height="60.8"/>
			<rect x="41.3" y="40.7" style="clip-path:url(#SVGID_2_);fill:#FF9F70;" width="0.4" height="60.8"/>
			<rect x="41.8" y="40.7" style="clip-path:url(#SVGID_2_);fill:#FFA071;" width="0.4" height="60.8"/>
			<rect x="42.2" y="40.7" style="clip-path:url(#SVGID_2_);fill:#FFA171;" width="0.4" height="60.8"/>
			<rect x="42.6" y="40.7" style="clip-path:url(#SVGID_2_);fill:#FFA272;" width="0.4" height="60.8"/>
			<rect x="43" y="40.7" style="clip-path:url(#SVGID_2_);fill:#FFA473;" width="0.4" height="60.8"/>
			<rect x="43.4" y="40.7" style="clip-path:url(#SVGID_2_);fill:#FFA573;" width="0.4" height="60.8"/>
			<rect x="43.8" y="40.7" style="clip-path:url(#SVGID_2_);fill:#FFA674;" width="0.4" height="60.8"/>
			<rect x="44.2" y="40.7" style="clip-path:url(#SVGID_2_);fill:#FFA775;" width="0.4" height="60.8"/>
			<rect x="44.6" y="40.7" style="clip-path:url(#SVGID_2_);fill:#FFA875;" width="0.4" height="60.8"/>
			<rect x="45" y="40.7" style="clip-path:url(#SVGID_2_);fill:#FFA976;" width="0.4" height="60.8"/>
			<rect x="45.4" y="40.7" style="clip-path:url(#SVGID_2_);fill:#FFAA77;" width="0.4" height="60.8"/>
			<rect x="45.8" y="40.7" style="clip-path:url(#SVGID_2_);fill:#FFAB77;" width="0.4" height="60.8"/>
			<rect x="46.2" y="40.7" style="clip-path:url(#SVGID_2_);fill:#FFAC78;" width="0.4" height="60.8"/>
			<rect x="46.7" y="40.7" style="clip-path:url(#SVGID_2_);fill:#FFAD79;" width="0.4" height="60.8"/>
			<rect x="47.1" y="40.7" style="clip-path:url(#SVGID_2_);fill:#FFAE7A;" width="0.4" height="60.8"/>
			<rect x="47.5" y="40.7" style="clip-path:url(#SVGID_2_);fill:#FFAF7A;" width="0.4" height="60.8"/>
			<rect x="47.9" y="40.7" style="clip-path:url(#SVGID_2_);fill:#FFB07B;" width="0.4" height="60.8"/>
			<rect x="48.3" y="40.7" style="clip-path:url(#SVGID_2_);fill:#FFB27C;" width="0.4" height="60.8"/>
			<rect x="48.7" y="40.7" style="clip-path:url(#SVGID_2_);fill:#FFB37D;" width="0.4" height="60.8"/>
			<rect x="49.1" y="40.7" style="clip-path:url(#SVGID_2_);fill:#FFB47D;" width="0.4" height="60.8"/>
			<rect x="49.5" y="40.7" style="clip-path:url(#SVGID_2_);fill:#FFB57E;" width="0.4" height="60.8"/>
			<rect x="49.9" y="40.7" style="clip-path:url(#SVGID_2_);fill:#FFB67F;" width="0.4" height="60.8"/>
			<rect x="50.3" y="40.7" style="clip-path:url(#SVGID_2_);fill:#FFB77F;" width="0.4" height="60.8"/>
			<rect x="50.7" y="40.7" style="clip-path:url(#SVGID_2_);fill:#FFB880;" width="0.4" height="60.8"/>
			<rect x="51.2" y="40.7" style="clip-path:url(#SVGID_2_);fill:#FFB981;" width="0.4" height="60.8"/>
			<rect x="51.6" y="40.7" style="clip-path:url(#SVGID_2_);fill:#FFBB82;" width="0.4" height="60.8"/>
			<rect x="52" y="40.7" style="clip-path:url(#SVGID_2_);fill:#FFBC82;" width="0.4" height="60.8"/>
			<rect x="52.4" y="40.7" style="clip-path:url(#SVGID_2_);fill:#FFBD83;" width="0.4" height="60.8"/>
			<rect x="52.8" y="40.7" class="st64" width="0.4" height="60.8"/>
			<rect x="53.2" y="40.7" class="st64" width="0" height="60.8"/>
		</g>
	</g>
	<g class="st153">
		<g>
			<defs>
				<path id="SVGID_7_" d="M63.5,14c5.4,0.4,11,1.5,15.3,4.8c6,4.7,8.2,12.7,9.2,20.2c1.9,13.9,1.1,28.2-2.3,41.8
					c-3.6,14.6-10.8,29.2-23.4,37.5S31.1,127,20.8,116c-5.3-5.7-7.8-13.4-9.8-21C-1.1,48.8,8.1,9.6,63.5,14z"/>
			</defs>
			<clipPath id="SVGID_4_">
				<use xlink:href="#SVGID_7_"  style="overflow:visible;"/>
			</clipPath>
			<polygon style="clip-path:url(#SVGID_4_);fill:#C1815D;" points="-1.1,104.6 37.7,127 -1.1,127 			"/>
			<polygon style="clip-path:url(#SVGID_4_);fill:#C1815D;" points="-1.1,103.4 39.7,127 37.7,127 -1.1,104.6 			"/>
			<polygon style="clip-path:url(#SVGID_4_);fill:#C2825D;" points="-1.1,102.3 41.6,127 39.7,127 -1.1,103.4 			"/>
			<polygon style="clip-path:url(#SVGID_4_);fill:#C2825E;" points="-1.1,101.2 43.6,127 41.6,127 -1.1,102.3 			"/>
			<polygon style="clip-path:url(#SVGID_4_);fill:#C3835E;" points="-1.1,100 45.6,127 43.6,127 -1.1,101.2 			"/>
			<polygon style="clip-path:url(#SVGID_4_);fill:#C4845F;" points="-1.1,98.9 47.5,127 45.6,127 -1.1,100 			"/>
			<polygon style="clip-path:url(#SVGID_4_);fill:#C4845F;" points="-1.1,97.8 49.5,127 47.5,127 -1.1,98.9 			"/>
			<polygon style="clip-path:url(#SVGID_4_);fill:#C58560;" points="-1.1,96.6 51.4,127 49.5,127 -1.1,97.8 			"/>
			<polygon style="clip-path:url(#SVGID_4_);fill:#C68660;" points="-1.1,95.5 53.4,127 51.4,127 -1.1,96.6 			"/>
			<polygon style="clip-path:url(#SVGID_4_);fill:#C78761;" points="-1.1,94.4 55.4,127 53.4,127 -1.1,95.5 			"/>
			<polygon style="clip-path:url(#SVGID_4_);fill:#C88861;" points="-1.1,93.2 57.3,127 55.4,127 -1.1,94.4 			"/>
			<polygon style="clip-path:url(#SVGID_4_);fill:#C98862;" points="-1.1,92.1 59.3,127 57.3,127 -1.1,93.2 			"/>
			<polygon style="clip-path:url(#SVGID_4_);fill:#C98962;" points="-1.1,91 61.3,127 59.3,127 -1.1,92.1 			"/>
			<polygon style="clip-path:url(#SVGID_4_);fill:#CA8A63;" points="-1.1,89.8 63.2,127 61.3,127 -1.1,91 			"/>
			<polygon style="clip-path:url(#SVGID_4_);fill:#CB8B63;" points="-1.1,88.7 65.2,127 63.2,127 -1.1,89.8 			"/>
			<polygon style="clip-path:url(#SVGID_4_);fill:#CC8C64;" points="-1.1,87.6 66.6,126.7 66.4,127 65.2,127 -1.1,88.7 			"/>
			<polygon style="clip-path:url(#SVGID_4_);fill:#CD8D65;" points="-1.1,86.4 67.1,125.8 66.6,126.7 -1.1,87.6 			"/>
			<polygon style="clip-path:url(#SVGID_4_);fill:#CE8E65;" points="-1.1,85.3 67.6,125 67.1,125.8 -1.1,86.4 			"/>
			<polygon style="clip-path:url(#SVGID_4_);fill:#CF8F66;" points="-1.1,84.2 68.1,124.1 67.6,125 -1.1,85.3 			"/>
			<polygon style="clip-path:url(#SVGID_4_);fill:#D09066;" points="-1.1,83 68.6,123.3 68.1,124.1 -1.1,84.2 			"/>
			<polygon style="clip-path:url(#SVGID_4_);fill:#D19167;" points="-1.1,81.9 69.1,122.4 68.6,123.3 -1.1,83 			"/>
			<polygon style="clip-path:url(#SVGID_4_);fill:#D29268;" points="-1.1,80.8 69.6,121.6 69.1,122.4 -1.1,81.9 			"/>
			<polygon style="clip-path:url(#SVGID_4_);fill:#D39368;" points="-1.1,79.6 70.1,120.7 69.6,121.6 -1.1,80.8 			"/>
			<polygon style="clip-path:url(#SVGID_4_);fill:#D49469;" points="-1.1,78.5 70.5,119.9 70.1,120.7 -1.1,79.6 			"/>
			<polygon style="clip-path:url(#SVGID_4_);fill:#D5956A;" points="-1.1,77.4 71,119 70.5,119.9 -1.1,78.5 			"/>
			<polygon style="clip-path:url(#SVGID_4_);fill:#D6966A;" points="-1.1,76.2 71.5,118.2 71,119 -1.1,77.4 			"/>
			<polygon style="clip-path:url(#SVGID_4_);fill:#D7976B;" points="-1.1,75.1 72,117.3 71.5,118.2 -1.1,76.2 			"/>
			<polygon style="clip-path:url(#SVGID_4_);fill:#D8986B;" points="-1.1,74 72.5,116.5 72,117.3 -1.1,75.1 			"/>
			<polygon style="clip-path:url(#SVGID_4_);fill:#D9996C;" points="-1.1,72.8 73,115.6 72.5,116.5 -1.1,74 			"/>
			<polygon style="clip-path:url(#SVGID_4_);fill:#DA9A6D;" points="-1.1,71.7 73.5,114.8 73,115.6 -1.1,72.8 			"/>
			<polygon style="clip-path:url(#SVGID_4_);fill:#DB9B6D;" points="-1.1,70.6 74,113.9 73.5,114.8 -1.1,71.7 			"/>
			<polygon style="clip-path:url(#SVGID_4_);fill:#DC9C6E;" points="-1.1,69.4 74.5,113.1 74,113.9 -1.1,70.6 			"/>
			<polygon style="clip-path:url(#SVGID_4_);fill:#DD9D6F;" points="-1.1,68.3 75,112.2 74.5,113.1 -1.1,69.4 			"/>
			<polygon style="clip-path:url(#SVGID_4_);fill:#DE9E6F;" points="-1.1,67.2 75.4,111.4 75,112.2 -1.1,68.3 			"/>
			<polygon style="clip-path:url(#SVGID_4_);fill:#DF9F70;" points="-1.1,66 75.9,110.5 75.4,111.4 -1.1,67.2 			"/>
			<polygon style="clip-path:url(#SVGID_4_);fill:#E0A071;" points="-1.1,64.9 76.4,109.7 75.9,110.5 -1.1,66 			"/>
			<polygon style="clip-path:url(#SVGID_4_);fill:#E1A171;" points="-1.1,63.8 76.9,108.8 76.4,109.7 -1.1,64.9 			"/>
			<polygon style="clip-path:url(#SVGID_4_);fill:#E3A272;" points="-1.1,62.6 77.4,108 76.9,108.8 -1.1,63.8 			"/>
			<polygon style="clip-path:url(#SVGID_4_);fill:#E4A373;" points="-1.1,61.5 77.9,107.1 77.4,108 -1.1,62.6 			"/>
			<polygon style="clip-path:url(#SVGID_4_);fill:#E5A473;" points="-1.1,60.4 78.4,106.3 77.9,107.1 -1.1,61.5 			"/>
			<polygon style="clip-path:url(#SVGID_4_);fill:#E6A574;" points="-1.1,59.2 78.9,105.4 78.4,106.3 -1.1,60.4 			"/>
			<polygon style="clip-path:url(#SVGID_4_);fill:#E7A675;" points="-1.1,58.1 79.4,104.6 78.9,105.4 -1.1,59.2 			"/>
			<polygon style="clip-path:url(#SVGID_4_);fill:#E8A776;" points="-1.1,57 79.9,103.7 79.4,104.6 -1.1,58.1 			"/>
			<polygon style="clip-path:url(#SVGID_4_);fill:#E9A976;" points="-1.1,55.8 80.4,102.9 79.9,103.7 -1.1,57 			"/>
			<polygon style="clip-path:url(#SVGID_4_);fill:#EAAA77;" points="-1.1,54.7 80.8,102 80.4,102.9 -1.1,55.8 			"/>
			<polygon style="clip-path:url(#SVGID_4_);fill:#EBAB78;" points="-1.1,53.6 81.3,101.2 80.8,102 -1.1,54.7 			"/>
			<polygon style="clip-path:url(#SVGID_4_);fill:#EDAC78;" points="-1.1,52.4 81.8,100.3 81.3,101.2 -1.1,53.6 			"/>
			<polygon style="clip-path:url(#SVGID_4_);fill:#EEAD79;" points="-1.1,51.3 82.3,99.5 81.8,100.3 -1.1,52.4 			"/>
			<polygon style="clip-path:url(#SVGID_4_);fill:#EFAE7A;" points="-1.1,50.2 82.8,98.6 82.3,99.5 -1.1,51.3 			"/>
			<polygon style="clip-path:url(#SVGID_4_);fill:#F0AF7B;" points="-1.1,49 83.3,97.8 82.8,98.6 -1.1,50.2 			"/>
			<polygon style="clip-path:url(#SVGID_4_);fill:#F1B07B;" points="-1.1,47.9 83.8,96.9 83.3,97.8 -1.1,49 			"/>
			<polygon style="clip-path:url(#SVGID_4_);fill:#F2B17C;" points="-1.1,46.8 84.3,96.1 83.8,96.9 -1.1,47.9 			"/>
			<polygon style="clip-path:url(#SVGID_4_);fill:#F3B37D;" points="-1.1,45.6 84.8,95.2 84.3,96.1 -1.1,46.8 			"/>
			<polygon style="clip-path:url(#SVGID_4_);fill:#F4B47D;" points="-1.1,44.5 85.3,94.4 84.8,95.2 -1.1,45.6 			"/>
			<polygon style="clip-path:url(#SVGID_4_);fill:#F6B57E;" points="-1.1,43.4 85.8,93.5 85.3,94.4 -1.1,44.5 			"/>
			<polygon style="clip-path:url(#SVGID_4_);fill:#F7B67F;" points="-1.1,42.2 86.2,92.7 85.8,93.5 -1.1,43.4 			"/>
			<polygon style="clip-path:url(#SVGID_4_);fill:#F8B780;" points="-1.1,41.1 86.7,91.8 86.2,92.7 -1.1,42.2 			"/>
			<polygon style="clip-path:url(#SVGID_4_);fill:#F9B880;" points="-1.1,40 87.2,91 86.7,91.8 -1.1,41.1 			"/>
			<polygon style="clip-path:url(#SVGID_4_);fill:#FAB981;" points="-1.1,38.8 87.7,90.1 87.2,91 -1.1,40 			"/>
			<polygon style="clip-path:url(#SVGID_4_);fill:#FBBB82;" points="-1.1,37.7 88.2,89.3 87.7,90.1 -1.1,38.8 			"/>
			<polygon style="clip-path:url(#SVGID_4_);fill:#FDBC83;" points="-1.1,36.6 88.7,88.4 88.2,89.3 -1.1,37.7 			"/>
			<polygon style="clip-path:url(#SVGID_4_);fill:#FEBD83;" points="-1.1,35.4 89.2,87.6 88.7,88.4 -1.1,36.6 			"/>
			<polygon class="st108" points="-1.1,34.3 89.7,86.7 89.2,87.6 -1.1,35.4 			"/>
			<polygon class="st108" points="-1.1,23.2 6.7,9.6 63.2,9.6 89.9,25 89.9,86.4 89.7,86.7 -1.1,34.3 			"/>
			<polygon class="st108" points="89.9,25 63.2,9.6 89.9,9.6 			"/>
		</g>
	</g>
</g>
<path class="st215" d="M111.5,51c3.6,5.4,6.5,11.5,7.2,18c0.7,6.5-1.1,13.4-5.8,18"/>
<path class="st215" d="M101.9,57.9c2.3,3.4,4.1,7.1,4.5,11.2s-0.7,8.3-3.6,11.2"/>
<path class="st215" d="M119.6,40.4C125.4,49,130,58.7,131,69s-1.8,21.4-9.2,28.7"/>
</svg>
