<?xml version="1.0" encoding="UTF-8"?>
<svg width="152px" height="152px" viewBox="0 0 152 152" version="1.1" xmlns="http://www.w3.org/2000/svg" xmlns:xlink="http://www.w3.org/1999/xlink">
    <!-- Generator: Sketch 49.3 (51167) - http://www.bohemiancoding.com/sketch -->
    <title>account</title>
    <desc>Created with Sketch.</desc>
    <defs>
        <linearGradient x1="70.1636097%" y1="43.031523%" x2="39.2094026%" y2="100%" id="linearGradient-1">
            <stop stop-color="#A4E0EB" offset="0%"></stop>
            <stop stop-color="#8ACAD8" offset="100%"></stop>
        </linearGradient>
        <rect id="path-2" x="0" y="0" width="140" height="140" rx="10"></rect>
        <filter x="-5.4%" y="-5.4%" width="115.0%" height="115.0%" filterUnits="objectBoundingBox" id="filter-3">
            <feOffset dx="3" dy="3" in="SourceAlpha" result="shadowOffsetOuter1"></feOffset>
            <feGaussianBlur stdDeviation="3" in="shadowOffsetOuter1" result="shadowBlurOuter1"></feGaussianBlur>
            <feColorMatrix values="0 0 0 0 0.541176471   0 0 0 0 0.792156863   0 0 0 0 0.847058824  0 0 0 0.25 0" type="matrix" in="shadowBlurOuter1"></feColorMatrix>
        </filter>
    </defs>
    <g id="iOS-App" stroke="none" stroke-width="1" fill="none" fill-rule="evenodd">
        <g id="Settings" transform="translate(-28.000000, -256.000000)">
            <g id="account" transform="translate(31.000000, 259.000000)">
                <g id="Rectangle-4">
                    <use fill="black" fill-opacity="1" filter="url(#filter-3)" xlink:href="#path-2"></use>
                    <use fill="url(#linearGradient-1)" fill-rule="evenodd" xlink:href="#path-2"></use>
                </g>
                <path d="M51.168,121.52 C51.168,121.680001 51.1066673,121.813333 50.984,121.92 C50.8613327,122.026667 50.7146675,122.08 50.544,122.08 C50.277332,122.08 50.0906672,121.952001 49.984,121.696 L48.848,119.104 L42.816,119.104 L41.664,121.696 C41.5573328,121.952001 41.370668,122.08 41.104,122.08 C40.9333325,122.08 40.7840006,122.024001 40.656,121.912 C40.5279994,121.799999 40.464,121.664001 40.464,121.504 C40.464,121.418666 40.4853331,121.333334 40.528,121.248 L45.104,111.072 C45.1680003,110.922666 45.2639994,110.810667 45.392,110.736 C45.5200006,110.661333 45.6586659,110.624 45.808,110.624 C45.9680008,110.624 46.1119994,110.664 46.24,110.744 C46.3680006,110.824 46.4639997,110.933333 46.528,111.072 L51.104,121.248 C51.1466669,121.333334 51.168,121.424 51.168,121.52 Z M43.296,118.016 L48.368,118.016 L45.824,112.272 L43.296,118.016 Z M54.12,121.616 C53.5599972,121.285332 53.1280015,120.816003 52.824,120.208 C52.5199985,119.599997 52.368,118.896004 52.368,118.096 C52.368,117.295996 52.5253318,116.58667 52.84,115.968 C53.1546682,115.34933 53.5946638,114.869335 54.16,114.528 C54.7253362,114.186665 55.3759963,114.016 56.112,114.016 C56.5173354,114.016 56.919998,114.071999 57.32,114.184 C57.720002,114.296001 58.0693318,114.458666 58.368,114.672 C58.560001,114.800001 58.6959996,114.925333 58.776,115.048 C58.8560004,115.170667 58.896,115.306666 58.896,115.456 C58.896,115.605334 58.8560004,115.728 58.776,115.824 C58.6959996,115.92 58.5920006,115.968 58.464,115.968 C58.389333,115.968 58.3093338,115.946667 58.224,115.904 C58.1386662,115.861333 58.066667,115.818667 58.008,115.776 C57.949333,115.733333 57.9093334,115.706667 57.888,115.696 C57.6106653,115.514666 57.3466679,115.370667 57.096,115.264 C56.8453321,115.157333 56.5386685,115.104 56.176,115.104 C55.3973294,115.104 54.7920022,115.367997 54.36,115.896 C53.9279978,116.424003 53.712,117.157329 53.712,118.096 C53.712,119.034671 53.9279978,119.759997 54.36,120.272 C54.7920022,120.784003 55.3973294,121.04 56.176,121.04 C56.5386685,121.04 56.8506654,120.986667 57.112,120.88 C57.3733346,120.773333 57.637332,120.629334 57.904,120.448 C58.0213339,120.373333 58.1333328,120.309334 58.24,120.256 C58.3466672,120.202666 58.437333,120.176 58.512,120.176 C58.6293339,120.176 58.7279996,120.224 58.808,120.32 C58.8880004,120.416 58.928,120.538666 58.928,120.688 C58.928,120.826667 58.890667,120.951999 58.816,121.064 C58.741333,121.176001 58.6026677,121.301333 58.4,121.44 C58.1013318,121.642668 57.7413354,121.805333 57.32,121.928 C56.8986646,122.050667 56.4746688,122.112 56.048,122.112 C55.322663,122.112 54.6800028,121.946668 54.12,121.616 Z M61.784,121.616 C61.2239972,121.285332 60.7920015,120.816003 60.488,120.208 C60.1839985,119.599997 60.032,118.896004 60.032,118.096 C60.032,117.295996 60.1893318,116.58667 60.504,115.968 C60.8186682,115.34933 61.2586638,114.869335 61.824,114.528 C62.3893362,114.186665 63.0399963,114.016 63.776,114.016 C64.1813354,114.016 64.583998,114.071999 64.984,114.184 C65.384002,114.296001 65.7333318,114.458666 66.032,114.672 C66.224001,114.800001 66.3599996,114.925333 66.44,115.048 C66.5200004,115.170667 66.56,115.306666 66.56,115.456 C66.56,115.605334 66.5200004,115.728 66.44,115.824 C66.3599996,115.92 66.2560006,115.968 66.128,115.968 C66.053333,115.968 65.9733338,115.946667 65.888,115.904 C65.8026662,115.861333 65.730667,115.818667 65.672,115.776 C65.613333,115.733333 65.5733334,115.706667 65.552,115.696 C65.2746653,115.514666 65.0106679,115.370667 64.76,115.264 C64.5093321,115.157333 64.2026685,115.104 63.84,115.104 C63.0613294,115.104 62.4560022,115.367997 62.024,115.896 C61.5919978,116.424003 61.376,117.157329 61.376,118.096 C61.376,119.034671 61.5919978,119.759997 62.024,120.272 C62.4560022,120.784003 63.0613294,121.04 63.84,121.04 C64.2026685,121.04 64.5146654,120.986667 64.776,120.88 C65.0373346,120.773333 65.301332,120.629334 65.568,120.448 C65.6853339,120.373333 65.7973328,120.309334 65.904,120.256 C66.0106672,120.202666 66.101333,120.176 66.176,120.176 C66.2933339,120.176 66.3919996,120.224 66.472,120.32 C66.5520004,120.416 66.592,120.538666 66.592,120.688 C66.592,120.826667 66.554667,120.951999 66.48,121.064 C66.405333,121.176001 66.2666677,121.301333 66.064,121.44 C65.7653318,121.642668 65.4053354,121.805333 64.984,121.928 C64.5626646,122.050667 64.1386688,122.112 63.712,122.112 C62.986663,122.112 62.3440028,121.946668 61.784,121.616 Z M69.448,121.616 C68.8879972,121.285332 68.4560015,120.813336 68.152,120.2 C67.8479985,119.586664 67.696,118.874671 67.696,118.064 C67.696,117.253329 67.8479985,116.541336 68.152,115.928 C68.4560015,115.314664 68.8879972,114.842668 69.448,114.512 C70.0080028,114.181332 70.6559963,114.016 71.392,114.016 C72.1280037,114.016 72.7786638,114.181332 73.344,114.512 C73.9093362,114.842668 74.3439985,115.314664 74.648,115.928 C74.9520015,116.541336 75.104,117.253329 75.104,118.064 C75.104,118.874671 74.9520015,119.586664 74.648,120.2 C74.3439985,120.813336 73.9093362,121.285332 73.344,121.616 C72.7786638,121.946668 72.1280037,122.112 71.392,122.112 C70.6559963,122.112 70.0080028,121.946668 69.448,121.616 Z M73.16,120.28 C73.5706687,119.773331 73.776,119.034672 73.776,118.064 C73.776,117.114662 73.5680021,116.381336 73.152,115.864 C72.7359979,115.346664 72.1493371,115.088 71.392,115.088 C70.6346629,115.088 70.0480021,115.346664 69.632,115.864 C69.2159979,116.381336 69.008,117.114662 69.008,118.064 C69.008,119.024005 69.2133313,119.759997 69.624,120.272 C70.0346687,120.784003 70.6239962,121.04 71.392,121.04 C72.1600038,121.04 72.7493313,120.786669 73.16,120.28 Z M83.432,114.224 C83.5440006,114.341334 83.6,114.495999 83.6,114.688 L83.6,121.456 C83.6,121.637334 83.5440006,121.786666 83.432,121.904 C83.3199994,122.021334 83.1626677,122.08 82.96,122.08 C82.767999,122.08 82.6160006,122.024001 82.504,121.912 C82.3919994,121.799999 82.336,121.653334 82.336,121.472 L82.336,120.672 C82.0906654,121.141336 81.7466689,121.498665 81.304,121.744 C80.8613311,121.989335 80.3626694,122.112 79.808,122.112 C78.8799954,122.112 78.1813357,121.853336 77.712,121.336 C77.2426643,120.818664 77.008,120.053338 77.008,119.04 L77.008,114.688 C77.008,114.495999 77.0666661,114.341334 77.184,114.224 C77.3013339,114.106666 77.4613323,114.048 77.664,114.048 C77.8666677,114.048 78.0239994,114.106666 78.136,114.224 C78.2480006,114.341334 78.304,114.495999 78.304,114.688 L78.304,119.008 C78.304,119.701337 78.4426653,120.210665 78.72,120.536 C78.9973347,120.861335 79.4346637,121.024 80.032,121.024 C80.7146701,121.024 81.2639979,120.802669 81.68,120.36 C82.0960021,119.917331 82.304,119.333337 82.304,118.608 L82.304,114.688 C82.304,114.495999 82.3626661,114.341334 82.48,114.224 C82.5973339,114.106666 82.7573323,114.048 82.96,114.048 C83.1626677,114.048 83.3199994,114.106666 83.432,114.224 Z M92.736,117.104 L92.736,121.44 C92.736,121.642668 92.6800006,121.799999 92.568,121.912 C92.4559994,122.024001 92.2986677,122.08 92.096,122.08 C91.8933323,122.08 91.7333339,122.024001 91.616,121.912 C91.4986661,121.799999 91.44,121.642668 91.44,121.44 L91.44,117.184 C91.44,116.458663 91.2986681,115.930668 91.016,115.6 C90.7333319,115.269332 90.2826698,115.104 89.664,115.104 C88.9493298,115.104 88.3786688,115.322664 87.952,115.76 C87.5253312,116.197336 87.312,116.78933 87.312,117.536 L87.312,121.44 C87.312,121.642668 87.2560006,121.799999 87.144,121.912 C87.0319994,122.024001 86.8746677,122.08 86.672,122.08 C86.4693323,122.08 86.3093339,122.024001 86.192,121.912 C86.0746661,121.799999 86.016,121.642668 86.016,121.44 L86.016,114.688 C86.016,114.495999 86.0746661,114.341334 86.192,114.224 C86.3093339,114.106666 86.4693323,114.048 86.672,114.048 C86.864001,114.048 87.0159994,114.106666 87.128,114.224 C87.2400006,114.341334 87.296,114.490666 87.296,114.672 L87.296,115.488 C87.5520013,115.007998 87.909331,114.642668 88.368,114.392 C88.826669,114.141332 89.3493304,114.016 89.936,114.016 C91.802676,114.016 92.736,115.045323 92.736,117.104 Z M99.264,121.568 C99.264,121.749334 99.197334,121.885333 99.064,121.976 C98.930666,122.066667 98.730668,122.101333 98.464,122.08 L98.032,122.048 C97.1786624,121.984 96.5493354,121.728002 96.144,121.28 C95.7386646,120.831998 95.536,120.154671 95.536,119.248 L95.536,115.232 L94.464,115.232 C94.2826658,115.232 94.1413338,115.186667 94.04,115.096 C93.9386662,115.005333 93.888,114.885334 93.888,114.736 C93.888,114.575999 93.9386662,114.448 94.04,114.352 C94.1413338,114.256 94.2826658,114.208 94.464,114.208 L95.536,114.208 L95.536,112.4 C95.536,112.197332 95.5946661,112.040001 95.712,111.928 C95.8293339,111.815999 95.9893323,111.76 96.192,111.76 C96.384001,111.76 96.5386661,111.815999 96.656,111.928 C96.7733339,112.040001 96.832,112.197332 96.832,112.4 L96.832,114.208 L98.608,114.208 C98.7786675,114.208 98.9146662,114.256 99.016,114.352 C99.1173338,114.448 99.168,114.575999 99.168,114.736 C99.168,114.885334 99.1173338,115.005333 99.016,115.096 C98.9146662,115.186667 98.7786675,115.232 98.608,115.232 L96.832,115.232 L96.832,119.312 C96.832,119.89867 96.9519988,120.322665 97.192,120.584 C97.4320012,120.845335 97.7919976,120.992 98.272,121.024 L98.704,121.056 C99.0773352,121.088 99.264,121.258665 99.264,121.568 Z" id="Account" fill="#FFFFFF"></path>
            </g>
        </g>
    </g>
</svg>