<?xml version="1.0" encoding="utf-8"?>
<!-- Generator: Adobe Illustrator 22.0.1, SVG Export Plug-In . SVG Version: 6.00 Build 0)  -->
<svg version="1.1" id="Layer_1" xmlns="http://www.w3.org/2000/svg" xmlns:xlink="http://www.w3.org/1999/xlink" x="0px" y="0px"
	 viewBox="0 0 290 38" style="enable-background:new 0 0 290 38;" xml:space="preserve">
<style type="text/css">
	.st0{enable-background:new    ;}
	.st1{fill:#290E54;}
</style>
<title>Notifications</title>
<desc>Created with Sketch.</desc>
<g id="iOS-App">
	<g id="Settings---notifications" transform="translate(-48.000000, -63.000000)">
		<g class="st0">
			<path class="st1" d="M78.7,99.2l-6.8,0.9c-0.3-0.4-0.8-1.1-1.5-2s-1.4-2-2.3-3.3s-1.9-2.7-2.9-4.2s-2.2-3.1-3.3-4.7
				c-1.1-1.6-2.2-3.2-3.3-4.8s-2.2-3.1-3.2-4.5l0.1,24h-7.3l0.1-35.7l6.7-0.7l16.3,22.9c0-1.5,0-3.2,0-4.9c0-1.7,0-3.4,0-5
				c0-1.7,0-3.3,0-4.8s0-2.9,0-4.1s0-2.3,0-3.1s0-1.4,0-1.7h6.9L78.7,99.2z"/>
			<path class="st1" d="M94.7,99.9c-1.8,0-3.3-0.2-4.7-0.7s-2.6-1.2-3.7-2.1c-1-0.9-1.9-1.9-2.6-3.1c-0.7-1.2-1.2-2.4-1.5-3.8
				s-0.5-2.7-0.5-4.1s0.2-2.8,0.5-4.1c0.4-1.3,0.9-2.6,1.6-3.8s1.6-2.2,2.6-3.1s2.2-1.6,3.6-2.1c1.4-0.5,2.9-0.8,4.6-0.8
				c1.6,0,3.1,0.3,4.4,0.8s2.4,1.2,3.4,2.1c1,0.9,1.8,1.9,2.4,3.1s1.1,2.4,1.4,3.7s0.5,2.7,0.5,4.1c0,1.4-0.2,2.8-0.5,4.1
				s-0.8,2.6-1.4,3.8s-1.4,2.2-2.4,3.1s-2.1,1.6-3.4,2.1S96.3,99.9,94.7,99.9z M93.8,79.2c-1,0.1-1.8,0.3-2.5,0.7s-1.3,1-1.8,1.6
				s-0.8,1.4-1.1,2.2s-0.3,1.7-0.3,2.5c0,0.9,0.1,1.7,0.4,2.5c0.3,0.8,0.6,1.5,1.1,2.2c0.5,0.6,1.1,1.1,1.9,1.5
				c0.8,0.4,1.6,0.6,2.6,0.6c1,0,1.9-0.2,2.6-0.6c0.7-0.4,1.4-0.9,1.8-1.6s0.8-1.4,1.1-2.3s0.3-1.7,0.3-2.6c0-0.9-0.2-1.7-0.5-2.6
				c-0.3-0.8-0.7-1.6-1.2-2.2s-1.2-1.1-1.9-1.5S94.8,79.1,93.8,79.2z"/>
			<path class="st1" d="M114.1,73.1c0-1,0-1.9,0-2.9s0-1.8,0-2.6c0-0.8,0-1.4,0-2s0-0.9,0-1.1h6.9l0,8.6h5.6v7.1h-5.5l0.1,20.2H114
				c0-0.4,0-1,0-1.8c0-0.8,0-1.7,0-2.8s0-2.2,0-3.5s0-2.6,0-3.9s0-2.7,0-4.1c0-1.4,0-2.7,0-4h-5.5v-7.1H114.1z"/>
			<path class="st1" d="M133.6,72.3c-0.9,0-1.7-0.1-2.3-0.5c-0.6-0.4-1.1-0.9-1.4-1.4s-0.5-1.2-0.5-1.9s0.1-1.3,0.4-1.9
				s0.8-1.1,1.4-1.5s1.4-0.6,2.3-0.6c0.8,0,1.5,0.2,2.1,0.6c0.6,0.4,1,0.9,1.3,1.4s0.5,1.2,0.5,1.9c0,0.7-0.1,1.3-0.4,1.9
				s-0.7,1.1-1.2,1.5S134.4,72.3,133.6,72.3z M136.9,100.1h-7.3l0.3-25.8h6.9L136.9,100.1z"/>
			<path class="st1" d="M143.2,79c0-1.7,0.1-3.1,0.3-4.2s0.3-2.1,0.5-2.9s0.5-1.5,0.7-2c0.3-0.6,0.6-1.1,0.9-1.5
				c0.8-1.2,1.8-2.2,2.9-2.8c1.1-0.7,2.2-1.2,3.4-1.4s2.4-0.4,3.5-0.3s2.3,0.2,3.3,0.5s1.9,0.6,2.7,1s1.3,0.8,1.7,1.2l-3.5,5.3
				c-0.7-0.5-1.4-0.8-2.2-1.1c-0.8-0.3-1.5-0.4-2.3-0.3s-1.4,0.3-2.1,0.7c-0.6,0.4-1.2,1-1.6,1.8c-0.4,0.7-0.6,1.6-0.8,2.6
				c-0.2,1-0.3,2.2-0.4,3.5h8.6v6.9l-8.5,0l0.2,14.5h-7.3l0-14.5H140V79H143.2z"/>
			<path class="st1" d="M169.4,72.3c-0.9,0-1.7-0.1-2.3-0.5c-0.6-0.4-1.1-0.9-1.4-1.4s-0.5-1.2-0.5-1.9s0.1-1.3,0.4-1.9
				s0.8-1.1,1.4-1.5s1.4-0.6,2.3-0.6c0.8,0,1.5,0.2,2.1,0.6c0.6,0.4,1,0.9,1.3,1.4s0.5,1.2,0.5,1.9c0,0.7-0.1,1.3-0.4,1.9
				s-0.7,1.1-1.2,1.5S170.3,72.3,169.4,72.3z M172.7,100.1h-7.3l0.3-25.8h6.9L172.7,100.1z"/>
			<path class="st1" d="M200.2,93.6c-0.6,0.9-1.3,1.7-2.1,2.5s-1.7,1.4-2.7,2c-1,0.6-2,1-3.1,1.3s-2.2,0.5-3.3,0.5
				c-1.8,0-3.3-0.2-4.7-0.7s-2.6-1.2-3.7-2.1c-1-0.9-1.9-1.9-2.6-3.1s-1.2-2.4-1.5-3.8S176,87.4,176,86s0.2-2.8,0.5-4.1
				c0.4-1.3,0.9-2.6,1.6-3.8s1.6-2.2,2.6-3.1s2.2-1.6,3.6-2.1c1.4-0.5,2.9-0.8,4.6-0.8c1.2,0,2.3,0.1,3.4,0.4s2.1,0.7,3,1.2
				c0.9,0.5,1.8,1.3,2.6,2.1s1.5,1.9,2.2,3.1l-6.2,3c-0.2-0.4-0.5-0.8-0.9-1.1s-0.9-0.7-1.4-0.9c-0.5-0.3-1.1-0.5-1.7-0.6
				s-1.2-0.2-1.9-0.1c-0.9,0.1-1.8,0.3-2.5,0.8s-1.3,1-1.8,1.7s-0.8,1.4-1.1,2.2c-0.2,0.8-0.3,1.7-0.3,2.5s0.1,1.7,0.4,2.5
				c0.3,0.8,0.6,1.5,1.1,2.1s1.1,1.1,1.9,1.5c0.8,0.4,1.6,0.6,2.6,0.6c0.5,0,1.1-0.1,1.7-0.2c0.6-0.1,1.2-0.4,1.7-0.6
				s1.1-0.6,1.6-1.1s0.9-0.9,1.2-1.5L200.2,93.6z"/>
			<path class="st1" d="M228.1,100.3h-7.3v-1.6c-1.7,1.1-3.5,1.7-5.5,1.7c-1.4,0-2.7-0.2-3.9-0.5s-2.2-0.9-3.1-1.5
				c-0.9-0.6-1.7-1.4-2.4-2.3c-0.7-0.9-1.3-1.8-1.7-2.8s-0.8-2.1-1.1-3.2c-0.3-1.1-0.4-2.2-0.4-3.3c0-1.2,0-2.4,0.3-3.6
				c0.2-1.2,0.5-2.3,1-3.4c0.5-1.1,1-2.1,1.8-3c0.7-0.9,1.6-1.7,2.5-2.4s2.1-1.2,3.3-1.6s2.6-0.6,4-0.6c1.1,0,2.1,0.1,3,0.4
				c0.9,0.2,1.8,0.5,2.6,1c0-0.1,0-0.2,0-0.3s0-0.3,0-0.5c0-0.2,0-0.3,0-0.5s0-0.2,0-0.3h6.9L228.1,100.3z M214.7,79.2
				c-0.8,0-1.6,0.2-2.2,0.6c-0.7,0.4-1.2,0.9-1.7,1.5s-0.8,1.4-1.1,2.3c-0.2,0.9-0.3,1.9-0.3,2.9c0,0.5,0.1,1,0.2,1.5
				c0.1,0.5,0.3,1.1,0.5,1.6c0.2,0.5,0.4,1,0.7,1.5c0.3,0.5,0.6,0.9,1,1.2c0.4,0.4,0.8,0.7,1.3,0.9s1,0.3,1.6,0.3
				c1,0,1.9-0.2,2.6-0.7s1.4-1,1.9-1.8s0.9-1.6,1.2-2.5s0.4-1.8,0.4-2.7c0-0.9-0.1-1.7-0.4-2.6c-0.3-0.8-0.7-1.6-1.2-2.2
				c-0.5-0.6-1.2-1.1-2-1.5C216.6,79.3,215.7,79.1,214.7,79.2z"/>
			<path class="st1" d="M236.4,73.1c0-1,0-1.9,0-2.9c0-0.9,0-1.8,0-2.6c0-0.8,0-1.4,0-2c0-0.5,0-0.9,0-1.1h6.9l0,8.6h5.6v7.1h-5.5
				l0.1,20.2h-7.3c0-0.4,0-1,0-1.8c0-0.8,0-1.7,0-2.8s0-2.2,0-3.5c0-1.3,0-2.6,0-3.9s0-2.7,0-4.1c0-1.4,0-2.7,0-4h-5.5v-7.1H236.4z"
				/>
			<path class="st1" d="M255.9,72.3c-0.9,0-1.7-0.1-2.3-0.5c-0.6-0.4-1.1-0.9-1.4-1.4c-0.3-0.6-0.5-1.2-0.5-1.9
				c0-0.7,0.1-1.3,0.4-1.9s0.8-1.1,1.4-1.5c0.6-0.4,1.4-0.6,2.3-0.6c0.8,0,1.5,0.2,2.1,0.6c0.6,0.4,1,0.9,1.3,1.4
				c0.3,0.6,0.5,1.2,0.5,1.9c0,0.7-0.1,1.3-0.4,1.9c-0.3,0.6-0.7,1.1-1.2,1.5S256.7,72.3,255.9,72.3z M259.2,100.1h-7.3l0.3-25.8
				h6.9L259.2,100.1z"/>
			<path class="st1" d="M275.6,99.9c-1.8,0-3.3-0.2-4.7-0.7s-2.6-1.2-3.7-2.1c-1-0.9-1.9-1.9-2.6-3.1c-0.7-1.2-1.2-2.4-1.5-3.8
				c-0.3-1.3-0.5-2.7-0.5-4.1s0.2-2.8,0.5-4.1c0.4-1.3,0.9-2.6,1.6-3.8c0.7-1.2,1.6-2.2,2.6-3.1c1-0.9,2.2-1.6,3.6-2.1
				c1.4-0.5,2.9-0.8,4.6-0.8c1.6,0,3.1,0.3,4.4,0.8c1.3,0.5,2.4,1.2,3.4,2.1c1,0.9,1.8,1.9,2.4,3.1s1.1,2.4,1.4,3.7
				c0.3,1.3,0.5,2.7,0.5,4.1c0,1.4-0.2,2.8-0.5,4.1c-0.3,1.3-0.8,2.6-1.4,3.8s-1.4,2.2-2.4,3.1s-2.1,1.6-3.4,2.1
				C278.6,99.6,277.2,99.9,275.6,99.9z M274.7,79.2c-1,0.1-1.8,0.3-2.5,0.7s-1.3,1-1.8,1.6c-0.5,0.7-0.8,1.4-1.1,2.2
				s-0.3,1.7-0.3,2.5c0,0.9,0.1,1.7,0.4,2.5c0.3,0.8,0.6,1.5,1.1,2.2c0.5,0.6,1.1,1.1,1.9,1.5c0.8,0.4,1.6,0.6,2.6,0.6
				c1,0,1.9-0.2,2.6-0.6c0.7-0.4,1.4-0.9,1.8-1.6c0.5-0.7,0.8-1.4,1.1-2.3s0.3-1.7,0.3-2.6c0-0.9-0.2-1.7-0.5-2.6
				c-0.3-0.8-0.7-1.6-1.2-2.2s-1.2-1.1-1.9-1.5S275.7,79.1,274.7,79.2z"/>
			<path class="st1" d="M297.9,75.5c0.2-0.1,0.4-0.2,0.7-0.3s0.4-0.2,0.7-0.3c2.3-0.9,4.3-1.4,6-1.4s3.2,0.4,4.4,1.3
				c1.2,0.9,2.2,2.2,2.8,4.1c0.7,1.8,1.1,4.2,1.3,7c0.1,1,0.1,2,0.2,3.2c0,1.1,0.1,2.3,0.1,3.5c0,1.2,0,2.5,0,3.7s-0.1,2.6-0.1,3.9
				h-6.8c0.1-1.3,0.1-2.5,0.2-3.8c0-1.2,0.1-2.4,0.1-3.6c0-1.1,0-2.2,0-3.2c0-1,0-1.9-0.1-2.6c-0.1-1.3-0.2-2.5-0.5-3.4
				c-0.2-0.9-0.6-1.6-1.1-2.1c-0.5-0.5-1.2-0.8-2-0.8c-0.8,0-1.8,0.2-3.1,0.7c-1,0.4-1.9,0.9-2.7,1.5l0.1,17.3h-7.3
				c0-0.6,0-1.4,0-2.4c0-1,0-2.1,0-3.4c0-1.3,0-2.6,0-4s0-2.8,0-4.3c0-1.4,0-2.8,0-4.2s0-2.6,0-3.7c0-1.1,0-2.1,0-2.9
				c0-0.8,0-1.4,0-1.7h6.9L297.9,75.5z"/>
			<path class="st1" d="M337.5,93.5c0,1.3-0.2,2.4-0.7,3.3c-0.5,0.9-1.1,1.7-1.9,2.3c-0.8,0.6-1.7,1.1-2.7,1.4s-2.1,0.5-3.3,0.5
				c-1.1,0-2.3-0.1-3.5-0.3c-1.2-0.2-2.3-0.6-3.4-1c-1.1-0.4-2.1-1-3-1.6s-1.7-1.4-2.3-2.2l3.9-4.9c0.5,0.5,1,0.9,1.6,1.3
				c0.6,0.4,1.2,0.8,1.9,1c0.6,0.3,1.3,0.5,1.9,0.7c0.6,0.2,1.2,0.2,1.7,0.2c0.5,0,1-0.2,1.3-0.4s0.6-0.6,0.8-1.1
				c0.1-0.4,0-0.9-0.5-1.3c-0.4-0.4-1-0.9-1.8-1.4s-1.6-1-2.6-1.6s-1.9-1.2-2.8-1.8c-0.9-0.6-1.8-1.3-2.6-2.1s-1.5-1.5-1.9-2.4
				c-0.5-0.8-0.7-1.7-0.7-2.6c0-0.9,0.1-1.7,0.4-2.5c0.3-0.8,0.8-1.6,1.4-2.3c0.6-0.7,1.3-1.3,2.1-1.8c0.8-0.5,1.7-0.9,2.7-1.1
				c1-0.2,2-0.3,3-0.2c1,0.1,2,0.3,3.1,0.6c1.1,0.3,2.1,0.7,3.1,1.2c1,0.5,1.9,1,2.7,1.6c0.8,0.6,1.4,1.2,1.9,1.8l-4,4.8
				c-0.7-0.7-1.4-1.3-2.3-1.8c-0.8-0.5-1.6-0.9-2.4-1.1c-0.8-0.2-1.5-0.3-2.1-0.2s-1.1,0.3-1.3,0.8c-0.1,0.3-0.2,0.5-0.1,0.8
				c0.1,0.3,0.2,0.5,0.5,0.7c0.2,0.2,0.5,0.5,0.8,0.7c0.3,0.2,0.7,0.4,1,0.6c0.3,0.2,0.7,0.4,1,0.5c0.3,0.2,0.6,0.3,0.8,0.4
				c1.1,0.5,2.2,1,3.2,1.7c1,0.7,1.9,1.5,2.7,2.4s1.4,1.9,1.8,3C337.2,91,337.5,92.2,337.5,93.5z"/>
		</g>
	</g>
</g>
</svg>
