<?xml version="1.0" encoding="UTF-8"?>
<svg width="152px" height="152px" viewBox="0 0 152 152" version="1.1" xmlns="http://www.w3.org/2000/svg" xmlns:xlink="http://www.w3.org/1999/xlink">
    <!-- Generator: Sketch 49.3 (51167) - http://www.bohemiancoding.com/sketch -->
    <title>numbers</title>
    <desc>Created with Sketch.</desc>
    <defs>
        <linearGradient x1="110.895156%" y1="-19.1075484%" x2="17.0231844%" y2="97.0927959%" id="linearGradient-1">
            <stop stop-color="#B4F3D6" offset="0%"></stop>
            <stop stop-color="#72EFAC" offset="100%"></stop>
        </linearGradient>
        <rect id="path-2" x="0" y="0" width="140" height="140" rx="10"></rect>
        <filter x="-5.4%" y="-5.4%" width="115.0%" height="115.0%" filterUnits="objectBoundingBox" id="filter-3">
            <feOffset dx="3" dy="3" in="SourceAlpha" result="shadowOffsetOuter1"></feOffset>
            <feGaussianBlur stdDeviation="3" in="shadowOffsetOuter1" result="shadowBlurOuter1"></feGaussianBlur>
            <feColorMatrix values="0 0 0 0 0.447058824   0 0 0 0 0.937254902   0 0 0 0 0.674509804  0 0 0 0.25 0" type="matrix" in="shadowBlurOuter1"></feColorMatrix>
        </filter>
    </defs>
    <g id="iOS-App" stroke="none" stroke-width="1" fill="none" fill-rule="evenodd">
        <g id="Parents-Dashboard-Copy" transform="translate(-185.000000, -248.000000)">
            <g id="numbers" transform="translate(188.000000, 251.000000)">
                <g id="numbers-copy">
                    <g id="numbers">
                        <g id="Rectangle-4-Copy-3">
                            <use fill="black" fill-opacity="1" filter="url(#filter-3)" xlink:href="#path-2"></use>
                            <use fill="url(#linearGradient-1)" fill-rule="evenodd" xlink:href="#path-2"></use>
                        </g>
                        <path d="M19.272,103.824 C19.3786672,103.946667 19.432,104.109332 19.432,104.312 L19.432,114.408 C19.432,114.610668 19.3760006,114.773333 19.264,114.896 C19.1519994,115.018667 18.9946677,115.08 18.792,115.08 C18.5893323,115.08 18.4133341,114.989334 18.264,114.808 L11.624,105.928 L11.624,114.408 C11.624,114.610668 11.5680006,114.773333 11.456,114.896 C11.3439994,115.018667 11.192001,115.08 11,115.08 C10.807999,115.08 10.6586672,115.018667 10.552,114.896 C10.4453328,114.773333 10.392,114.610668 10.392,114.408 L10.392,104.312 C10.392,104.109332 10.4479994,103.946667 10.56,103.824 C10.6720006,103.701333 10.8293323,103.64 11.032,103.64 C11.2453344,103.64 11.4266659,103.730666 11.576,103.912 L18.2,112.792 L18.2,104.312 C18.2,104.109332 18.2559994,103.946667 18.368,103.824 C18.4800006,103.701333 18.631999,103.64 18.824,103.64 C19.016001,103.64 19.1653328,103.701333 19.272,103.824 Z M28.416,107.224 C28.5280006,107.341334 28.584,107.495999 28.584,107.688 L28.584,114.456 C28.584,114.637334 28.5280006,114.786666 28.416,114.904 C28.3039994,115.021334 28.1466677,115.08 27.944,115.08 C27.751999,115.08 27.6000006,115.024001 27.488,114.912 C27.3759994,114.799999 27.32,114.653334 27.32,114.472 L27.32,113.672 C27.0746654,114.141336 26.7306689,114.498665 26.288,114.744 C25.8453311,114.989335 25.3466694,115.112 24.792,115.112 C23.8639954,115.112 23.1653357,114.853336 22.696,114.336 C22.2266643,113.818664 21.992,113.053338 21.992,112.04 L21.992,107.688 C21.992,107.495999 22.0506661,107.341334 22.168,107.224 C22.2853339,107.106666 22.4453323,107.048 22.648,107.048 C22.8506677,107.048 23.0079994,107.106666 23.12,107.224 C23.2320006,107.341334 23.288,107.495999 23.288,107.688 L23.288,112.008 C23.288,112.701337 23.4266653,113.210665 23.704,113.536 C23.9813347,113.861335 24.4186637,114.024 25.016,114.024 C25.6986701,114.024 26.2479979,113.802669 26.664,113.36 C27.0800021,112.917331 27.288,112.333337 27.288,111.608 L27.288,107.688 C27.288,107.495999 27.3466661,107.341334 27.464,107.224 C27.5813339,107.106666 27.7413323,107.048 27.944,107.048 C28.1466677,107.048 28.3039994,107.106666 28.416,107.224 Z M42.264,110.104 L42.264,114.44 C42.264,114.642668 42.2053339,114.799999 42.088,114.912 C41.9706661,115.024001 41.816001,115.08 41.624,115.08 C41.431999,115.08 41.2746673,115.024001 41.152,114.912 C41.0293327,114.799999 40.968,114.642668 40.968,114.44 L40.968,110.136 C40.968,109.42133 40.8400013,108.904002 40.584,108.584 C40.3279987,108.263998 39.9280027,108.104 39.384,108.104 C38.7333301,108.104 38.2213352,108.322664 37.848,108.76 C37.4746648,109.197336 37.288,109.78933 37.288,110.536 L37.288,114.44 C37.288,114.642668 37.2266673,114.799999 37.104,114.912 C36.9813327,115.024001 36.824001,115.08 36.632,115.08 C36.439999,115.08 36.2853339,115.024001 36.168,114.912 C36.0506661,114.799999 35.992,114.642668 35.992,114.44 L35.992,110.136 C35.992,109.42133 35.8640013,108.904002 35.608,108.584 C35.3519987,108.263998 34.9466694,108.104 34.392,108.104 C33.7519968,108.104 33.2426686,108.322664 32.864,108.76 C32.4853314,109.197336 32.296,109.78933 32.296,110.536 L32.296,114.44 C32.296,114.642668 32.2373339,114.799999 32.12,114.912 C32.0026661,115.024001 31.848001,115.08 31.656,115.08 C31.463999,115.08 31.3066673,115.024001 31.184,114.912 C31.0613327,114.799999 31,114.642668 31,114.44 L31,107.688 C31,107.495999 31.0613327,107.341334 31.184,107.224 C31.3066673,107.106666 31.463999,107.048 31.656,107.048 C31.8373342,107.048 31.9866661,107.103999 32.104,107.216 C32.2213339,107.328001 32.28,107.479999 32.28,107.672 L32.28,108.44 C32.5146678,107.981331 32.8399979,107.629335 33.256,107.384 C33.6720021,107.138665 34.1519973,107.016 34.696,107.016 C35.9120061,107.016 36.7066648,107.527995 37.08,108.552 C37.3040011,108.082664 37.645331,107.709335 38.104,107.432 C38.562669,107.154665 39.0853304,107.016 39.672,107.016 C41.4000086,107.016 42.264,108.045323 42.264,110.104 Z M50.36,107.512 C50.8826693,107.842668 51.2879986,108.311997 51.576,108.92 C51.8640014,109.528003 52.008,110.231996 52.008,111.032 C52.008,111.842671 51.8640014,112.554664 51.576,113.168 C51.2879986,113.781336 50.8826693,114.258665 50.36,114.6 C49.8373307,114.941335 49.2346701,115.112 48.552,115.112 C47.943997,115.112 47.4133356,114.978668 46.96,114.712 C46.5066644,114.445332 46.1626678,114.066669 45.928,113.576 L45.928,114.44 C45.928,114.632001 45.8720006,114.786666 45.76,114.904 C45.6479994,115.021334 45.4906677,115.08 45.288,115.08 C45.0853323,115.08 44.9253339,115.021334 44.808,114.904 C44.6906661,114.786666 44.632,114.632001 44.632,114.44 L44.632,104.264 C44.632,104.082666 44.6906661,103.933334 44.808,103.816 C44.9253339,103.698666 45.0853323,103.64 45.288,103.64 C45.4906677,103.64 45.6479994,103.695999 45.76,103.808 C45.8720006,103.920001 45.928,104.071999 45.928,104.264 L45.928,108.552 C46.1626678,108.061331 46.5066644,107.682668 46.96,107.416 C47.4133356,107.149332 47.943997,107.016 48.552,107.016 C49.2346701,107.016 49.8373307,107.181332 50.36,107.512 Z M50.056,113.248 C50.4720021,112.719997 50.68,111.981338 50.68,111.032 C50.68,110.103995 50.4720021,109.384003 50.056,108.872 C49.6399979,108.359997 49.0533371,108.104 48.296,108.104 C47.5386629,108.104 46.9546687,108.359997 46.544,108.872 C46.1333313,109.384003 45.928,110.114662 45.928,111.064 C45.928,112.013338 46.1333313,112.746664 46.544,113.264 C46.9546687,113.781336 47.5386629,114.04 48.296,114.04 C49.0533371,114.04 49.6399979,113.776003 50.056,113.248 Z M60.28,113.336 C60.3653338,113.432 60.408,113.554666 60.408,113.704 C60.408,113.970668 60.2213352,114.215999 59.848,114.44 C59.4639981,114.664001 59.0586688,114.831999 58.632,114.944 C58.2053312,115.056001 57.7893354,115.112 57.384,115.112 C56.1786606,115.112 55.2266702,114.75467 54.528,114.04 C53.8293298,113.32533 53.48,112.338673 53.48,111.08 C53.48,110.279996 53.6346651,109.573336 53.944,108.96 C54.2533349,108.346664 54.6879972,107.869335 55.248,107.528 C55.8080028,107.186665 56.4453298,107.016 57.16,107.016 C58.1733384,107.016 58.9786637,107.346663 59.576,108.008 C60.1733363,108.669337 60.472,109.565328 60.472,110.696 C60.472,110.909334 60.4293338,111.064 60.344,111.16 C60.2586662,111.256 60.120001,111.304 59.928,111.304 L54.776,111.304 C54.8720005,113.138676 55.7413251,114.056 57.384,114.056 C57.8000021,114.056 58.1573318,114.000001 58.456,113.888 C58.7546682,113.775999 59.074665,113.624001 59.416,113.432 C59.6933347,113.271999 59.8799995,113.192 59.976,113.192 C60.0933339,113.192 60.1946662,113.24 60.28,113.336 Z M55.536,108.664 C55.1253313,109.090669 54.882667,109.693329 54.808,110.472 L59.336,110.472 C59.3146666,109.682663 59.1173352,109.077335 58.744,108.656 C58.3706648,108.234665 57.8480034,108.024 57.176,108.024 C56.4933299,108.024 55.9466687,108.237331 55.536,108.664 Z M66.904,107.592 C66.904,107.762668 66.8560005,107.898666 66.76,108 C66.6639995,108.101334 66.4986678,108.162667 66.264,108.184 L65.784,108.232 C65.0693298,108.296 64.5386684,108.549331 64.192,108.992 C63.8453316,109.434669 63.672,109.954664 63.672,110.552 L63.672,114.44 C63.672,114.653334 63.6133339,114.813333 63.496,114.92 C63.3786661,115.026667 63.224001,115.08 63.032,115.08 C62.839999,115.08 62.6826673,115.024001 62.56,114.912 C62.4373327,114.799999 62.376,114.642668 62.376,114.44 L62.376,107.688 C62.376,107.485332 62.4399994,107.328001 62.568,107.216 C62.6960006,107.103999 62.8506658,107.048 63.032,107.048 C63.2026675,107.048 63.3466661,107.103999 63.464,107.216 C63.5813339,107.328001 63.64,107.479999 63.64,107.672 L63.64,108.568 C63.8640011,108.098664 64.1813313,107.741335 64.592,107.496 C65.0026687,107.250665 65.474664,107.106667 66.008,107.064 L66.232,107.048 C66.6800022,107.016 66.904,107.197331 66.904,107.592 Z M69.248,114.936 C68.8053311,114.818666 68.413335,114.653334 68.072,114.44 C67.879999,114.311999 67.7440004,114.192001 67.664,114.08 C67.5839996,113.967999 67.544,113.832001 67.544,113.672 C67.544,113.533333 67.5839996,113.418667 67.664,113.328 C67.7440004,113.237333 67.8479994,113.192 67.976,113.192 C68.1040006,113.192 68.2906654,113.271999 68.536,113.432 C68.8560016,113.624001 69.1733318,113.775999 69.488,113.888 C69.8026682,114.000001 70.1946643,114.056 70.664,114.056 C71.2400029,114.056 71.6879984,113.954668 72.008,113.752 C72.3280016,113.549332 72.488,113.256002 72.488,112.872 C72.488,112.637332 72.4293339,112.448001 72.312,112.304 C72.1946661,112.159999 71.9920014,112.032001 71.704,111.92 C71.4159986,111.807999 70.9946694,111.693334 70.44,111.576 C69.5013286,111.373332 68.8293354,111.101335 68.424,110.76 C68.0186646,110.418665 67.816,109.95467 67.816,109.368 C67.816,108.909331 67.9439987,108.504002 68.2,108.152 C68.4560013,107.799998 68.8106644,107.522668 69.264,107.32 C69.7173356,107.117332 70.2319971,107.016 70.808,107.016 C71.2240021,107.016 71.6266647,107.071999 72.016,107.184 C72.4053353,107.296001 72.7493318,107.453332 73.048,107.656 C73.4106685,107.912001 73.592,108.178665 73.592,108.456 C73.592,108.594667 73.5493338,108.712 73.464,108.808 C73.3786662,108.904 73.2773339,108.952 73.16,108.952 C73.0319994,108.952 72.8400013,108.861334 72.584,108.68 C72.2853318,108.487999 72.002668,108.338667 71.736,108.232 C71.469332,108.125333 71.1386686,108.072 70.744,108.072 C70.2426642,108.072 69.8400015,108.183999 69.536,108.408 C69.2319985,108.632001 69.08,108.930665 69.08,109.304 C69.08,109.538668 69.1359994,109.727999 69.248,109.872 C69.3600006,110.016001 69.5466654,110.143999 69.808,110.256 C70.0693346,110.368001 70.4453309,110.477333 70.936,110.584 C71.661337,110.744001 72.223998,110.919999 72.624,111.112 C73.024002,111.304001 73.3093325,111.538665 73.48,111.816 C73.6506675,112.093335 73.736,112.445331 73.736,112.872 C73.736,113.544003 73.4533362,114.085331 72.888,114.496 C72.3226638,114.906669 71.5760046,115.112 70.648,115.112 C70.1573309,115.112 69.6906689,115.053334 69.248,114.936 Z" id="Numbers" fill="#FFFFFF"></path>
                        <path d="M15.432,127.28 C15.5120004,127.352 15.552,127.451999 15.552,127.58 C15.552,127.860001 15.4000015,128 15.096,128 L10.392,128 C10.2559993,128 10.1440004,127.958 10.056,127.874 C9.96799956,127.79 9.924,127.688001 9.924,127.568 C9.924,127.415999 9.97999944,127.284001 10.092,127.172 L12.984,123.992 C13.384002,123.543998 13.6739991,123.142002 13.854,122.786 C14.0340009,122.429998 14.124,122.072002 14.124,121.712 C14.124,121.247998 13.9900013,120.892001 13.722,120.644 C13.4539987,120.395999 13.0760024,120.272 12.588,120.272 C12.2039981,120.272 11.8360018,120.341999 11.484,120.482 C11.1319982,120.622001 10.7800018,120.835999 10.428,121.124 C10.3079994,121.22 10.1960005,121.268 10.092,121.268 C10.0039996,121.268 9.92800032,121.226 9.864,121.142 C9.79999968,121.058 9.768,120.956001 9.768,120.836 C9.768,120.667999 9.83199936,120.532001 9.96,120.428 C10.2880016,120.123998 10.6879976,119.884001 11.16,119.708 C11.6320024,119.531999 12.1159975,119.444 12.612,119.444 C13.3720038,119.444 13.9779977,119.643998 14.43,120.044 C14.8820023,120.444002 15.108,120.983997 15.108,121.664 C15.108,122.152002 14.9980011,122.619998 14.778,123.068 C14.5579989,123.516002 14.1960025,124.015997 13.692,124.568 L11.292,127.172 L15.096,127.172 C15.2400007,127.172 15.3519996,127.208 15.432,127.28 Z M17.592,126.992 C17.0879975,126.255996 16.836,125.184007 16.836,123.776 C16.836,122.359993 17.0879975,121.284004 17.592,120.548 C18.0960025,119.811996 18.8319952,119.444 19.8,119.444 C20.7680048,119.444 21.5039975,119.809996 22.008,120.542 C22.5120025,121.274004 22.764,122.347993 22.764,123.764 C22.764,125.180007 22.5120025,126.255996 22.008,126.992 C21.5039975,127.728004 20.7680048,128.096 19.8,128.096 C18.8319952,128.096 18.0960025,127.728004 17.592,126.992 Z M21.288,126.416 C21.6080016,125.847997 21.768,124.964006 21.768,123.764 C21.768,122.555994 21.6100016,121.672003 21.294,121.112 C20.9779984,120.551997 20.4800034,120.272 19.8,120.272 C19.1279966,120.272 18.6320016,120.553997 18.312,121.118 C17.9919984,121.682003 17.832,122.563994 17.832,123.764 C17.832,124.964006 17.9919984,125.847997 18.312,126.416 C18.6320016,126.984003 19.1279966,127.268 19.8,127.268 C20.4720034,127.268 20.9679984,126.984003 21.288,126.416 Z M28.314,127.952 C27.9819983,127.864 27.6880013,127.740001 27.432,127.58 C27.2879993,127.484 27.1860003,127.394 27.126,127.31 C27.0659997,127.226 27.036,127.124001 27.036,127.004 C27.036,126.899999 27.0659997,126.814 27.126,126.746 C27.1860003,126.678 27.2639995,126.644 27.36,126.644 C27.4560005,126.644 27.5959991,126.703999 27.78,126.824 C28.0200012,126.968001 28.2579988,127.082 28.494,127.166 C28.7300012,127.25 29.0239982,127.292 29.376,127.292 C29.8080022,127.292 30.1439988,127.216001 30.384,127.064 C30.6240012,126.911999 30.744,126.692001 30.744,126.404 C30.744,126.227999 30.7000004,126.086001 30.612,125.978 C30.5239996,125.869999 30.3720011,125.774 30.156,125.69 C29.9399989,125.606 29.6240021,125.52 29.208,125.432 C28.5039965,125.279999 28.0000015,125.076001 27.696,124.82 C27.3919985,124.563999 27.24,124.216002 27.24,123.776 C27.24,123.431998 27.335999,123.128001 27.528,122.864 C27.720001,122.599999 27.9859983,122.392001 28.326,122.24 C28.6660017,122.087999 29.0519978,122.012 29.484,122.012 C29.7960016,122.012 30.0979985,122.054 30.39,122.138 C30.6820015,122.222 30.9399989,122.339999 31.164,122.492 C31.4360014,122.684001 31.572,122.883999 31.572,123.092 C31.572,123.196001 31.5400003,123.284 31.476,123.356 C31.4119997,123.428 31.3360004,123.464 31.248,123.464 C31.1519995,123.464 31.008001,123.396001 30.816,123.26 C30.5919989,123.115999 30.380001,123.004 30.18,122.924 C29.979999,122.844 29.7320015,122.804 29.436,122.804 C29.0599981,122.804 28.7580011,122.887999 28.53,123.056 C28.3019989,123.224001 28.188,123.447999 28.188,123.728 C28.188,123.904001 28.2299996,124.045999 28.314,124.154 C28.3980004,124.262001 28.537999,124.358 28.734,124.442 C28.930001,124.526 29.2119982,124.608 29.58,124.688 C30.1240027,124.808001 30.5459985,124.939999 30.846,125.084 C31.1460015,125.228001 31.3599994,125.403999 31.488,125.612 C31.6160006,125.820001 31.68,126.083998 31.68,126.404 C31.68,126.908003 31.4680021,127.313998 31.044,127.622 C30.6199979,127.930002 30.0600035,128.084 29.364,128.084 C28.9959982,128.084 28.6460017,128.04 28.314,127.952 Z M33.294,127.934 C33.2019995,127.85 33.156,127.732001 33.156,127.58 L33.156,122.516 C33.156,122.363999 33.2019995,122.246 33.294,122.162 C33.3860005,122.078 33.5039993,122.036 33.648,122.036 C33.7920007,122.036 33.9079996,122.078 33.996,122.162 C34.0840004,122.246 34.128,122.363999 34.128,122.516 L34.128,127.58 C34.128,127.740001 34.0840004,127.86 33.996,127.94 C33.9079996,128.02 33.7920007,128.06 33.648,128.06 C33.5039993,128.06 33.3860005,128.018 33.294,127.934 Z M33.18,120.608 C33.0599994,120.495999 33,120.348001 33,120.164 C33,119.987999 33.0599994,119.844001 33.18,119.732 C33.3000006,119.619999 33.455999,119.564 33.648,119.564 C33.840001,119.564 33.9959994,119.619999 34.116,119.732 C34.2360006,119.844001 34.296,119.987999 34.296,120.164 C34.296,120.348001 34.2360006,120.495999 34.116,120.608 C33.9959994,120.720001 33.840001,120.776 33.648,120.776 C33.455999,120.776 33.3000006,120.720001 33.18,120.608 Z M41.04,122.168 C41.1280004,122.256 41.172,122.371999 41.172,122.516 L41.172,127.604 C41.172,128.476004 40.9480022,129.133998 40.5,129.578 C40.0519978,130.022002 39.3880044,130.244 38.508,130.244 C37.6519957,130.244 36.9400028,130.076002 36.372,129.74 C36.0839986,129.579999 35.94,129.396001 35.94,129.188 C35.94,129.075999 35.9699997,128.984 36.03,128.912 C36.0900003,128.84 36.1679995,128.804 36.264,128.804 C36.3440004,128.804 36.487999,128.859999 36.696,128.972 C36.9760014,129.116001 37.2519986,129.232 37.524,129.32 C37.7960014,129.408 38.1199981,129.452 38.496,129.452 C39.0640028,129.452 39.4919986,129.302001 39.78,129.002 C40.0680014,128.701999 40.212,128.264003 40.212,127.688 L40.212,126.656 C40.0439992,127.032002 39.7860017,127.319999 39.438,127.52 C39.0899983,127.720001 38.6800024,127.82 38.208,127.82 C37.6959974,127.82 37.242002,127.700001 36.846,127.46 C36.449998,127.219999 36.1420011,126.880002 35.922,126.44 C35.7019989,125.999998 35.592,125.492003 35.592,124.916 C35.592,124.339997 35.7019989,123.832002 35.922,123.392 C36.1420011,122.951998 36.449998,122.612001 36.846,122.372 C37.242002,122.131999 37.6959974,122.012 38.208,122.012 C38.6720023,122.012 39.0759983,122.111999 39.42,122.312 C39.7640017,122.512001 40.0239991,122.795998 40.2,123.164 L40.2,122.516 C40.2,122.371999 40.2419996,122.256 40.326,122.168 C40.4100004,122.08 40.5279992,122.036 40.68,122.036 C40.8320008,122.036 40.9519996,122.08 41.04,122.168 Z M39.72,126.458 C40.0400016,126.085998 40.2,125.572003 40.2,124.916 C40.2,124.267997 40.0420016,123.758002 39.726,123.386 C39.4099984,123.013998 38.9680028,122.828 38.4,122.828 C37.8319972,122.828 37.3860016,123.013998 37.062,123.386 C36.7379984,123.758002 36.576,124.267997 36.576,124.916 C36.576,125.572003 36.7379984,126.085998 37.062,126.458 C37.3860016,126.830002 37.8319972,127.016 38.4,127.016 C38.9600028,127.016 39.3999984,126.830002 39.72,126.458 Z M48.012,124.328 L48.012,127.58 C48.012,127.732001 47.9700004,127.85 47.886,127.934 C47.8019996,128.018 47.6840008,128.06 47.532,128.06 C47.3799992,128.06 47.2600004,128.018 47.172,127.934 C47.0839996,127.85 47.04,127.732001 47.04,127.58 L47.04,124.388 C47.04,123.843997 46.9340011,123.448001 46.722,123.2 C46.5099989,122.951999 46.1720023,122.828 45.708,122.828 C45.1719973,122.828 44.7440016,122.991998 44.424,123.32 C44.1039984,123.648002 43.944,124.091997 43.944,124.652 L43.944,127.58 C43.944,127.732001 43.9020004,127.85 43.818,127.934 C43.7339996,128.018 43.6160008,128.06 43.464,128.06 C43.3119992,128.06 43.1920004,128.018 43.104,127.934 C43.0159996,127.85 42.972,127.732001 42.972,127.58 L42.972,122.516 C42.972,122.371999 43.0159996,122.256 43.104,122.168 C43.1920004,122.08 43.3119992,122.036 43.464,122.036 C43.6080007,122.036 43.7219996,122.08 43.806,122.168 C43.8900004,122.256 43.932,122.367999 43.932,122.504 L43.932,123.116 C44.124001,122.755998 44.3919983,122.482001 44.736,122.294 C45.0800017,122.105999 45.4719978,122.012 45.912,122.012 C47.312007,122.012 48.012,122.783992 48.012,124.328 Z M50.706,127.952 C50.3739983,127.864 50.0800013,127.740001 49.824,127.58 C49.6799993,127.484 49.5780003,127.394 49.518,127.31 C49.4579997,127.226 49.428,127.124001 49.428,127.004 C49.428,126.899999 49.4579997,126.814 49.518,126.746 C49.5780003,126.678 49.6559995,126.644 49.752,126.644 C49.8480005,126.644 49.9879991,126.703999 50.172,126.824 C50.4120012,126.968001 50.6499988,127.082 50.886,127.166 C51.1220012,127.25 51.4159982,127.292 51.768,127.292 C52.2000022,127.292 52.5359988,127.216001 52.776,127.064 C53.0160012,126.911999 53.136,126.692001 53.136,126.404 C53.136,126.227999 53.0920004,126.086001 53.004,125.978 C52.9159996,125.869999 52.7640011,125.774 52.548,125.69 C52.3319989,125.606 52.0160021,125.52 51.6,125.432 C50.8959965,125.279999 50.3920015,125.076001 50.088,124.82 C49.7839985,124.563999 49.632,124.216002 49.632,123.776 C49.632,123.431998 49.727999,123.128001 49.92,122.864 C50.112001,122.599999 50.3779983,122.392001 50.718,122.24 C51.0580017,122.087999 51.4439978,122.012 51.876,122.012 C52.1880016,122.012 52.4899985,122.054 52.782,122.138 C53.0740015,122.222 53.3319989,122.339999 53.556,122.492 C53.8280014,122.684001 53.964,122.883999 53.964,123.092 C53.964,123.196001 53.9320003,123.284 53.868,123.356 C53.8039997,123.428 53.7280004,123.464 53.64,123.464 C53.5439995,123.464 53.400001,123.396001 53.208,123.26 C52.9839989,123.115999 52.772001,123.004 52.572,122.924 C52.371999,122.844 52.1240015,122.804 51.828,122.804 C51.4519981,122.804 51.1500011,122.887999 50.922,123.056 C50.6939989,123.224001 50.58,123.447999 50.58,123.728 C50.58,123.904001 50.6219996,124.045999 50.706,124.154 C50.7900004,124.262001 50.929999,124.358 51.126,124.442 C51.322001,124.526 51.6039982,124.608 51.972,124.688 C52.5160027,124.808001 52.9379985,124.939999 53.238,125.084 C53.5380015,125.228001 53.7519994,125.403999 53.88,125.612 C54.0080006,125.820001 54.072,126.083998 54.072,126.404 C54.072,126.908003 53.8600021,127.313998 53.436,127.622 C53.0119979,127.930002 52.4520035,128.084 51.756,128.084 C51.3879982,128.084 51.0380017,128.04 50.706,127.952 Z" id="20-signs" fill="#FFFFFF"></path>
                    </g>
                </g>
                <g id="open-button" transform="translate(91.000000, 108.000000)">
                    <rect id="Rectangle-5" fill="#FFFFFF" x="0" y="0" width="44" height="16" rx="8"></rect>
                    <path d="M14.04,4.179 C14.1866674,4.179 14.3186661,4.22849951 14.436,4.3275 C14.5533339,4.4265005 14.612,4.54566597 14.612,4.685 C14.612,4.73633359 14.5936668,4.80599956 14.557,4.894 L11.455,11.692 C11.4036664,11.8093339 11.3230005,11.9009997 11.213,11.967 C11.1029995,12.0330003 10.9856673,12.066 10.861,12.066 C10.7363327,12.066 10.6171672,12.0330003 10.5035,11.967 C10.3898328,11.9009997 10.3073336,11.8093339 10.256,11.692 L7.165,4.894 C7.12833315,4.80599956 7.11,4.73633359 7.11,4.685 C7.11,4.5383326 7.1704994,4.41733381 7.2915,4.322 C7.4125006,4.22666619 7.5463326,4.179 7.693,4.179 C7.92033447,4.179 8.08166619,4.28166564 8.177,4.487 L10.872,10.526 L13.567,4.487 C13.6623338,4.28166564 13.8199989,4.179 14.04,4.179 Z M15.767,11.901 C15.6643328,11.7983328 15.613,11.6590009 15.613,11.483 L15.613,4.762 C15.613,4.59333249 15.6643328,4.45583387 15.767,4.3495 C15.8696672,4.24316614 16.0053325,4.19 16.174,4.19 C16.3500009,4.19 16.4893328,4.24133282 16.592,4.344 C16.6946672,4.44666718 16.746,4.58599912 16.746,4.762 L16.746,11.483 C16.746,11.6590009 16.6965005,11.7983328 16.5975,11.901 C16.4984995,12.0036672 16.3573343,12.055 16.174,12.055 C16.0053325,12.055 15.8696672,12.0036672 15.767,11.901 Z M18.6985,11.8515 C18.5994995,11.7524995 18.55,11.6186675 18.55,11.45 L18.55,4.795 C18.55,4.62633249 18.5994995,4.4925005 18.6985,4.3935 C18.7975005,4.29449951 18.9349991,4.245 19.111,4.245 L23.159,4.245 C23.3276675,4.245 23.4578329,4.28533293 23.5495,4.366 C23.6411671,4.44666707 23.687,4.5603326 23.687,4.707 C23.687,4.8536674 23.6411671,4.96549961 23.5495,5.0425 C23.4578329,5.11950039 23.3276675,5.158 23.159,5.158 L19.661,5.158 L19.661,7.6 L22.939,7.6 C23.1076675,7.6 23.2378329,7.64033293 23.3295,7.721 C23.4211671,7.80166707 23.467,7.9153326 23.467,8.062 C23.467,8.2086674 23.4211671,8.32233293 23.3295,8.403 C23.2378329,8.48366707 23.1076675,8.524 22.939,8.524 L19.661,8.524 L19.661,11.087 L23.159,11.087 C23.5110018,11.087 23.687,11.2373318 23.687,11.538 C23.687,11.6846674 23.6411671,11.7983329 23.5495,11.879 C23.4578329,11.9596671 23.3276675,12 23.159,12 L19.111,12 C18.9349991,12 18.7975005,11.9505005 18.6985,11.8515 Z M35.017,4.267 C35.1050004,4.20833304 35.2039994,4.179 35.314,4.179 C35.453334,4.179 35.5761661,4.22483288 35.6825,4.3165 C35.7888339,4.40816713 35.842,4.5273326 35.842,4.674 C35.842,4.75466707 35.8273335,4.82799967 35.798,4.894 L33.367,11.692 C33.3156664,11.8166673 33.2350005,11.9119997 33.125,11.978 C33.0149994,12.0440003 32.8940007,12.077 32.762,12.077 C32.6373327,12.077 32.5200005,12.0440003 32.41,11.978 C32.2999994,11.9119997 32.2230002,11.8166673 32.179,11.692 L30.177,6.016 L28.131,11.692 C28.0869998,11.8166673 28.0100005,11.9119997 27.9,11.978 C27.7899994,12.0440003 27.6726673,12.077 27.548,12.077 C27.4159993,12.077 27.2968339,12.0440003 27.1905,11.978 C27.0841661,11.9119997 27.0053336,11.8166673 26.954,11.692 L24.523,4.894 C24.4936665,4.82799967 24.479,4.75466707 24.479,4.674 C24.479,4.5273326 24.5339994,4.40816713 24.644,4.3165 C24.7540005,4.22483288 24.8859992,4.179 25.04,4.179 C25.1500005,4.179 25.2508329,4.20833304 25.3425,4.267 C25.4341671,4.32566696 25.5019998,4.41366608 25.546,4.531 L27.581,10.383 L29.649,4.586 C29.6930002,4.46133271 29.7644995,4.36600033 29.8635,4.3 C29.9625005,4.23399967 30.0706661,4.201 30.188,4.201 C30.3053339,4.201 30.4116662,4.23583299 30.507,4.3055 C30.6023338,4.37516702 30.6756664,4.47233271 30.727,4.597 L32.751,10.438 L34.819,4.531 C34.8630002,4.41366608 34.9289996,4.32566696 35.017,4.267 Z" id="VIEW" fill="#290E54"></path>
                </g>
            </g>
        </g>
    </g>
</svg>