<?xml version="1.0" encoding="utf-8"?>
<!-- Generator: Adobe Illustrator 22.0.1, SVG Export Plug-In . SVG Version: 6.00 Build 0)  -->
<svg version="1.1" id="Layer_1" xmlns="http://www.w3.org/2000/svg" xmlns:xlink="http://www.w3.org/1999/xlink" x="0px" y="0px"
	 viewBox="0 0 154.3 152.4" style="enable-background:new 0 0 154.3 152.4;" xml:space="preserve">
<style type="text/css">
	.st0{fill:url(#SVGID_1_);}
	.st1{fill:#FFFFFF;}
</style>
<linearGradient id="SVGID_1_" gradientUnits="userSpaceOnUse" x1="257.9867" y1="327.0585" x2="397.9867" y2="327.0585" gradientTransform="matrix(6.123234e-17 1 -1 6.123234e-17 404.8092 -251.1641)">
	<stop  offset="0" style="stop-color:#F9E877"/>
	<stop  offset="1" style="stop-color:#EFD154"/>
</linearGradient>
<path class="st0" d="M7.8,136.3V17.3c0-5.8,4.7-10.5,10.5-10.5h119.1c5.8,0,10.5,4.7,10.5,10.5v119.1c0,5.8-4.7,10.5-10.5,10.5H18.2
	C12.4,146.8,7.8,142.1,7.8,136.3z"/>
<g>
	<path class="st1" d="M59.7,124.8c-0.8-0.8-1.1-1.9-1.1-3.4v-6.3c0-0.2,0.1-0.4,0.2-0.5c0.1-0.1,0.3-0.2,0.5-0.2
		c0.2,0,0.3,0.1,0.5,0.2c0.1,0.1,0.2,0.3,0.2,0.5v6.4c0,1.1,0.3,1.9,0.8,2.5s1.3,0.8,2.4,0.8c1,0,1.8-0.3,2.4-0.8
		c0.5-0.6,0.8-1.4,0.8-2.5v-6.4c0-0.2,0.1-0.4,0.2-0.5c0.1-0.1,0.3-0.2,0.5-0.2c0.2,0,0.4,0.1,0.5,0.2c0.1,0.1,0.2,0.3,0.2,0.5v6.3
		c0,1.5-0.4,2.6-1.1,3.4s-1.9,1.2-3.3,1.2C61.6,126,60.5,125.6,59.7,124.8z"/>
	<path class="st1" d="M71.3,125.8c-0.4-0.1-0.8-0.3-1.2-0.5c-0.2-0.1-0.3-0.2-0.4-0.4s-0.1-0.2-0.1-0.4c0-0.1,0-0.3,0.1-0.3
		s0.2-0.1,0.3-0.1s0.3,0.1,0.6,0.2c0.3,0.2,0.6,0.3,1,0.5c0.3,0.1,0.7,0.2,1.2,0.2c0.6,0,1-0.1,1.3-0.3c0.3-0.2,0.5-0.5,0.5-0.9
		c0-0.2-0.1-0.4-0.2-0.6c-0.1-0.1-0.3-0.3-0.6-0.4s-0.7-0.2-1.3-0.3c-0.9-0.2-1.6-0.5-2-0.8c-0.4-0.3-0.6-0.8-0.6-1.4
		c0-0.5,0.1-0.9,0.4-1.2c0.3-0.4,0.6-0.6,1.1-0.8c0.5-0.2,1-0.3,1.5-0.3c0.4,0,0.8,0.1,1.2,0.2c0.4,0.1,0.7,0.3,1,0.5
		c0.4,0.3,0.5,0.5,0.5,0.8c0,0.1,0,0.3-0.1,0.4c-0.1,0.1-0.2,0.1-0.3,0.1c-0.1,0-0.3-0.1-0.6-0.3c-0.3-0.2-0.6-0.3-0.8-0.4
		c-0.3-0.1-0.6-0.2-1-0.2c-0.5,0-0.9,0.1-1.2,0.3c-0.3,0.2-0.5,0.5-0.5,0.9c0,0.2,0.1,0.4,0.2,0.6c0.1,0.1,0.3,0.3,0.6,0.4
		s0.6,0.2,1.1,0.3c0.7,0.2,1.3,0.3,1.7,0.5c0.4,0.2,0.7,0.4,0.9,0.7c0.2,0.3,0.3,0.6,0.3,1.1c0,0.7-0.3,1.2-0.8,1.6
		c-0.6,0.4-1.3,0.6-2.2,0.6C72.2,125.9,71.7,125.9,71.3,125.8z"/>
	<path class="st1" d="M84.1,124.2c0.1,0.1,0.1,0.2,0.1,0.4c0,0.3-0.2,0.5-0.6,0.7c-0.4,0.2-0.8,0.4-1.2,0.5
		c-0.4,0.1-0.8,0.2-1.2,0.2c-1.2,0-2.2-0.4-2.9-1.1c-0.7-0.7-1-1.7-1-3c0-0.8,0.2-1.5,0.5-2.1c0.3-0.6,0.7-1.1,1.3-1.4
		c0.6-0.3,1.2-0.5,1.9-0.5c1,0,1.8,0.3,2.4,1c0.6,0.7,0.9,1.6,0.9,2.7c0,0.2,0,0.4-0.1,0.5c-0.1,0.1-0.2,0.1-0.4,0.1h-5.2
		c0.1,1.8,1,2.8,2.6,2.8c0.4,0,0.8-0.1,1.1-0.2c0.3-0.1,0.6-0.3,1-0.5c0.3-0.2,0.5-0.2,0.6-0.2C83.9,124,84,124.1,84.1,124.2z
		 M79.3,119.5c-0.4,0.4-0.7,1-0.7,1.8h4.5c0-0.8-0.2-1.4-0.6-1.8c-0.4-0.4-0.9-0.6-1.6-0.6C80.3,118.8,79.7,119.1,79.3,119.5z"/>
	<path class="st1" d="M90.7,118.4c0,0.2,0,0.3-0.1,0.4s-0.3,0.2-0.5,0.2l-0.5,0c-0.7,0.1-1.2,0.3-1.6,0.8c-0.3,0.4-0.5,1-0.5,1.6
		v3.9c0,0.2-0.1,0.4-0.2,0.5s-0.3,0.2-0.5,0.2s-0.3-0.1-0.5-0.2s-0.2-0.3-0.2-0.5v-6.8c0-0.2,0.1-0.4,0.2-0.5s0.3-0.2,0.5-0.2
		c0.2,0,0.3,0.1,0.4,0.2c0.1,0.1,0.2,0.3,0.2,0.5v0.9c0.2-0.5,0.5-0.8,1-1.1s0.9-0.4,1.4-0.4l0.2,0C90.5,117.8,90.7,118,90.7,118.4z
		"/>
	<path class="st1" d="M93,125.8c-0.4-0.1-0.8-0.3-1.2-0.5c-0.2-0.1-0.3-0.2-0.4-0.4s-0.1-0.2-0.1-0.4c0-0.1,0-0.3,0.1-0.3
		s0.2-0.1,0.3-0.1s0.3,0.1,0.6,0.2c0.3,0.2,0.6,0.3,1,0.5c0.3,0.1,0.7,0.2,1.2,0.2c0.6,0,1-0.1,1.3-0.3c0.3-0.2,0.5-0.5,0.5-0.9
		c0-0.2-0.1-0.4-0.2-0.6c-0.1-0.1-0.3-0.3-0.6-0.4s-0.7-0.2-1.3-0.3c-0.9-0.2-1.6-0.5-2-0.8c-0.4-0.3-0.6-0.8-0.6-1.4
		c0-0.5,0.1-0.9,0.4-1.2c0.3-0.4,0.6-0.6,1.1-0.8c0.5-0.2,1-0.3,1.5-0.3c0.4,0,0.8,0.1,1.2,0.2c0.4,0.1,0.7,0.3,1,0.5
		c0.4,0.3,0.5,0.5,0.5,0.8c0,0.1,0,0.3-0.1,0.4c-0.1,0.1-0.2,0.1-0.3,0.1c-0.1,0-0.3-0.1-0.6-0.3c-0.3-0.2-0.6-0.3-0.8-0.4
		c-0.3-0.1-0.6-0.2-1-0.2c-0.5,0-0.9,0.1-1.2,0.3c-0.3,0.2-0.5,0.5-0.5,0.9c0,0.2,0.1,0.4,0.2,0.6c0.1,0.1,0.3,0.3,0.6,0.4
		s0.6,0.2,1.1,0.3c0.7,0.2,1.3,0.3,1.7,0.5c0.4,0.2,0.7,0.4,0.9,0.7c0.2,0.3,0.3,0.6,0.3,1.1c0,0.7-0.3,1.2-0.8,1.6
		c-0.6,0.4-1.3,0.6-2.2,0.6C93.9,125.9,93.4,125.9,93,125.8z"/>
</g>
</svg>
