<?xml version="1.0" encoding="UTF-8"?>
<svg width="114px" height="47px" viewBox="0 0 114 47" version="1.1" xmlns="http://www.w3.org/2000/svg" xmlns:xlink="http://www.w3.org/1999/xlink">
    <!-- Generator: Sketch 49.3 (51167) - http://www.bohemiancoding.com/sketch -->
    <title>replay</title>
    <desc>Created with Sketch.</desc>
    <defs>
        <rect id="path-1" x="0" y="0" width="106" height="39" rx="19.5"></rect>
        <filter x="-5.7%" y="-12.8%" width="113.2%" height="135.9%" filterUnits="objectBoundingBox" id="filter-2">
            <feOffset dx="1" dy="2" in="SourceAlpha" result="shadowOffsetOuter1"></feOffset>
            <feGaussianBlur stdDeviation="2" in="shadowOffsetOuter1" result="shadowBlurOuter1"></feGaussianBlur>
            <feComposite in="shadowBlurOuter1" in2="SourceAlpha" operator="out" result="shadowBlurOuter1"></feComposite>
            <feColorMatrix values="0 0 0 0 0   0 0 0 0 0   0 0 0 0 0  0 0 0 0.1 0" type="matrix" in="shadowBlurOuter1"></feColorMatrix>
        </filter>
    </defs>
    <g id="iOS-App" stroke="none" stroke-width="1" fill="none" fill-rule="evenodd">
        <g id="Sign-of-the-Day-1" transform="translate(-132.000000, -402.000000)">
            <g id="replay" transform="translate(135.000000, 404.000000)">
                <g id="Rectangle">
                    <use fill="black" fill-opacity="1" filter="url(#filter-2)" xlink:href="#path-1"></use>
                    <use fill="#EFD154" fill-rule="evenodd" xlink:href="#path-1"></use>
                    <rect stroke="#EFD154" stroke-width="2" x="1" y="1" width="104" height="37" rx="18.5"></rect>
                </g>
                <path d="M36.376,24.496 C36.376,24.6760009 36.3070007,24.8229994 36.169,24.937 C36.0309993,25.0510006 35.8720009,25.108 35.692,25.108 C35.4159986,25.108 35.2000008,24.9880012 35.044,24.748 L32.632,20.932 C32.3199984,20.4399975 31.9960017,20.1010009 31.66,19.915 C31.3239983,19.7289991 30.8680029,19.636 30.292,19.636 L28.024,19.636 L28.024,24.334 C28.024,24.5620011 27.9580007,24.7449993 27.826,24.883 C27.6939993,25.0210007 27.5200011,25.09 27.304,25.09 C27.0759989,25.09 26.8960007,25.0210007 26.764,24.883 C26.6319993,24.7449993 26.566,24.5620011 26.566,24.334 L26.566,13.03 C26.566,12.8139989 26.6349993,12.6400007 26.773,12.508 C26.9110007,12.3759993 27.0939989,12.31 27.322,12.31 L31.786,12.31 C33.1660069,12.31 34.2189964,12.6159969 34.945,13.228 C35.6710036,13.8400031 36.034,14.7399941 36.034,15.928 C36.034,16.936005 35.7430029,17.7459969 35.161,18.358 C34.5789971,18.9700031 33.7480054,19.3419993 32.668,19.474 C32.9680015,19.5700005 33.2379988,19.7259989 33.478,19.942 C33.7180012,20.1580011 33.9579988,20.4579981 34.198,20.842 L36.25,24.082 C36.3340004,24.2140007 36.376,24.3519993 36.376,24.496 Z M31.66,18.412 C32.6440049,18.412 33.3789976,18.208002 33.865,17.8 C34.3510024,17.391998 34.594,16.7740041 34.594,15.946 C34.594,15.1299959 34.3540024,14.524002 33.874,14.128 C33.3939976,13.731998 32.656005,13.534 31.66,13.534 L28.024,13.534 L28.024,18.412 L31.66,18.412 Z M45.826,23.128 C45.9220005,23.2360005 45.97,23.3739992 45.97,23.542 C45.97,23.8420015 45.7600021,24.1179987 45.34,24.37 C44.9079978,24.6220013 44.4520024,24.8109994 43.972,24.937 C43.4919976,25.0630006 43.0240023,25.126 42.568,25.126 C41.2119932,25.126 40.1410039,24.724004 39.355,23.92 C38.5689961,23.115996 38.176,22.0060071 38.176,20.59 C38.176,19.6899955 38.3499983,18.8950034 38.698,18.205 C39.0460017,17.5149965 39.5349968,16.9780019 40.165,16.594 C40.7950031,16.2099981 41.511996,16.018 42.316,16.018 C43.4560057,16.018 44.3619966,16.3899963 45.034,17.134 C45.7060034,17.8780037 46.042,18.8859936 46.042,20.158 C46.042,20.3980012 45.9940005,20.5719995 45.898,20.68 C45.8019995,20.7880005 45.6460011,20.842 45.43,20.842 L39.634,20.842 C39.7420005,22.9060103 40.7199908,23.938 42.568,23.938 C43.0360023,23.938 43.4379983,23.8750006 43.774,23.749 C44.1100017,23.6229994 44.4699981,23.4520011 44.854,23.236 C45.1660016,23.0559991 45.3759995,22.966 45.484,22.966 C45.6160007,22.966 45.7299995,23.0199995 45.826,23.128 Z M40.489,17.872 C40.0269977,18.3520024 39.7540004,19.0299956 39.67,19.906 L44.764,19.906 C44.7399999,19.0179956 44.5180021,18.3370024 44.098,17.863 C43.6779979,17.3889976 43.0900038,17.152 42.334,17.152 C41.5659962,17.152 40.9510023,17.3919976 40.489,17.872 Z M54.628,16.594 C55.2160029,16.9780019 55.6719984,17.5149965 55.996,18.205 C56.3200016,18.8950034 56.482,19.6959954 56.482,20.608 C56.482,21.5200046 56.3200016,22.3149966 55.996,22.993 C55.6719984,23.6710034 55.2190029,24.1959981 54.637,24.568 C54.0549971,24.9400019 53.3740039,25.126 52.594,25.126 C51.9099966,25.126 51.3130026,24.9760015 50.803,24.676 C50.2929975,24.3759985 49.9060013,23.9500028 49.642,23.398 L49.642,27.628 C49.642,27.8440011 49.5790006,28.0149994 49.453,28.141 C49.3269994,28.2670006 49.1500011,28.33 48.922,28.33 C48.6939989,28.33 48.5140007,28.2640007 48.382,28.132 C48.2499993,27.9999993 48.184,27.832001 48.184,27.628 L48.184,16.774 C48.184,16.5579989 48.2499993,16.3840007 48.382,16.252 C48.5140007,16.1199993 48.6939989,16.054 48.922,16.054 C49.1500011,16.054 49.3269994,16.1199993 49.453,16.252 C49.5790006,16.3840007 49.642,16.5579989 49.642,16.774 L49.642,17.746 C49.9060013,17.1939972 50.2929975,16.7680015 50.803,16.468 C51.3130026,16.1679985 51.9099966,16.018 52.594,16.018 C53.3620038,16.018 54.0399971,16.2099981 54.628,16.594 Z M54.286,23.056 C54.7540023,22.4799971 54.988,21.6640053 54.988,20.608 C54.988,19.5519947 54.7540023,18.727003 54.286,18.133 C53.8179977,17.538997 53.1580043,17.242 52.306,17.242 C51.4539957,17.242 50.7970023,17.5299971 50.335,18.106 C49.8729977,18.6820029 49.642,19.5039947 49.642,20.572 C49.642,21.6400053 49.8729977,22.4649971 50.335,23.047 C50.7970023,23.6290029 51.4539957,23.92 52.306,23.92 C53.1580043,23.92 53.8179977,23.6320029 54.286,23.056 Z M58.867,24.901 C58.7289993,24.7749994 58.66,24.5980011 58.66,24.37 L58.66,12.94 C58.66,12.7119989 58.7289993,12.5350006 58.867,12.409 C59.0050007,12.2829994 59.1819989,12.22 59.398,12.22 C59.602001,12.22 59.7729993,12.2829994 59.911,12.409 C60.0490007,12.5350006 60.118,12.7119989 60.118,12.94 L60.118,24.37 C60.118,24.5980011 60.0490007,24.7749994 59.911,24.901 C59.7729993,25.0270006 59.602001,25.09 59.398,25.09 C59.1819989,25.09 59.0050007,25.0270006 58.867,24.901 Z M69.712,19.474 L69.712,24.37 C69.712,24.5860011 69.6490006,24.7599993 69.523,24.892 C69.3969994,25.0240007 69.2260011,25.09 69.01,25.09 C68.7939989,25.09 68.6200007,25.0240007 68.488,24.892 C68.3559993,24.7599993 68.29,24.5860011 68.29,24.37 L68.29,23.506 C68.0619989,24.0220026 67.7140023,24.4209986 67.246,24.703 C66.7779977,24.9850014 66.2380031,25.126 65.626,25.126 C65.0619972,25.126 64.5430024,25.0120011 64.069,24.784 C63.5949976,24.5559989 63.2200014,24.238002 62.944,23.83 C62.6679986,23.421998 62.53,22.9720025 62.53,22.48 C62.53,21.8199967 62.6979983,21.3070018 63.034,20.941 C63.3700017,20.5749982 63.9219962,20.3110008 64.69,20.149 C65.4580038,19.9869992 66.5259932,19.906 67.894,19.906 L68.29,19.906 L68.29,19.312 C68.29,18.5919964 68.1430015,18.0640017 67.849,17.728 C67.5549985,17.3919983 67.0780033,17.224 66.418,17.224 C65.6019959,17.224 64.7740042,17.4459978 63.934,17.89 C63.6099984,18.094001 63.3820007,18.196 63.25,18.196 C63.1059993,18.196 62.9860005,18.1420005 62.89,18.034 C62.7939995,17.9259995 62.746,17.7880008 62.746,17.62 C62.746,17.4519992 62.7969995,17.3050006 62.899,17.179 C63.0010005,17.0529994 63.1659989,16.9240007 63.394,16.792 C63.8140021,16.5519988 64.2909973,16.3630007 64.825,16.225 C65.3590027,16.0869993 65.8899974,16.018 66.418,16.018 C68.614011,16.018 69.712,17.1699885 69.712,19.474 Z M67.597,23.245 C68.0590023,22.7589976 68.29,22.1320038 68.29,21.364 L68.29,20.842 L67.966,20.842 C66.9099947,20.842 66.1060028,20.8869995 65.554,20.977 C65.0019972,21.0670005 64.6090012,21.216999 64.375,21.427 C64.1409988,21.637001 64.024,21.945998 64.024,22.354 C64.024,22.8220023 64.1949983,23.2089985 64.537,23.515 C64.8790017,23.8210015 65.3079974,23.974 65.824,23.974 C66.5440036,23.974 67.1349977,23.7310024 67.597,23.245 Z M79.324,16.072 C79.5040009,16.072 79.6659993,16.1319994 79.81,16.252 C79.9540007,16.3720006 80.026,16.5219991 80.026,16.702 C80.026,16.8100005 80.0020002,16.9059996 79.954,16.99 L74.896,27.898 C74.8359997,28.0300007 74.7490006,28.1319996 74.635,28.204 C74.5209994,28.2760004 74.4040006,28.312 74.284,28.312 C74.1039991,28.312 73.9450007,28.2550006 73.807,28.141 C73.6689993,28.0269994 73.6,27.8800009 73.6,27.7 C73.6,27.6039995 73.6239998,27.5080005 73.672,27.412 L74.932,24.694 L71.368,16.99 C71.3199998,16.9059996 71.296,16.8160005 71.296,16.72 C71.296,16.5399991 71.3769992,16.3840007 71.539,16.252 C71.7010008,16.1199993 71.877999,16.054 72.07,16.054 C72.1900006,16.054 72.3069994,16.0899996 72.421,16.162 C72.5350006,16.2340004 72.6219997,16.3359993 72.682,16.468 L75.688,23.218 L78.694,16.504 C78.8260007,16.2159986 79.0359986,16.072 79.324,16.072 Z" id="Replay" fill="#FFFFFF"></path>
            </g>
        </g>
    </g>
</svg>