<?xml version="1.0" encoding="UTF-8"?>
<svg width="292px" height="64px" viewBox="0 0 292 64" version="1.1" xmlns="http://www.w3.org/2000/svg" xmlns:xlink="http://www.w3.org/1999/xlink">
    <!-- Generator: Sketch 49.3 (51167) - http://www.bohemiancoding.com/sketch -->
    <title>next</title>
    <desc>Created with Sketch.</desc>
    <defs>
        <rect id="path-1" x="0" y="0" width="280" height="52" rx="26"></rect>
        <filter x="-3.6%" y="-15.4%" width="107.1%" height="138.5%" filterUnits="objectBoundingBox" id="filter-2">
            <feOffset dx="0" dy="2" in="SourceAlpha" result="shadowOffsetOuter1"></feOffset>
            <feGaussianBlur stdDeviation="3" in="shadowOffsetOuter1" result="shadowBlurOuter1"></feGaussianBlur>
            <feComposite in="shadowBlurOuter1" in2="SourceAlpha" operator="out" result="shadowBlurOuter1"></feComposite>
            <feColorMatrix values="0 0 0 0 0.541176471   0 0 0 0 0.792156863   0 0 0 0 0.847058824  0 0 0 0.4 0" type="matrix" in="shadowBlurOuter1"></feColorMatrix>
        </filter>
    </defs>
    <g id="iOS-App" stroke="none" stroke-width="1" fill="none" fill-rule="evenodd">
        <g id="New-User---Girl-or-Boy" transform="translate(-42.000000, -572.000000)">
            <g id="next" transform="translate(48.000000, 576.000000)">
                <g id="Rectangle">
                    <use fill="black" fill-opacity="1" filter="url(#filter-2)" xlink:href="#path-1"></use>
                    <use fill="#8ACAD8" fill-rule="evenodd" xlink:href="#path-1"></use>
                    <rect stroke="#8ACAD8" stroke-width="2" x="1" y="1" width="278" height="50" rx="25"></rect>
                </g>
                <path d="M129.54,17.308 C129.756001,17.5400012 129.864,17.8399982 129.864,18.208 L129.864,32.872 C129.864,33.2400018 129.752001,33.5399988 129.528,33.772 C129.303999,34.0040012 129.016002,34.12 128.664,34.12 C128.247998,34.12 127.928001,33.9600016 127.704,33.64 L118.296,21.232 L118.296,32.872 C118.296,33.2400018 118.188001,33.5399988 117.972,33.772 C117.755999,34.0040012 117.472002,34.12 117.12,34.12 C116.767998,34.12 116.488001,34.0080011 116.28,33.784 C116.071999,33.5599989 115.968,33.2560019 115.968,32.872 L115.968,18.208 C115.968,17.8399982 116.079999,17.5400012 116.304,17.308 C116.528001,17.0759988 116.815998,16.96 117.168,16.96 C117.584002,16.96 117.903999,17.1199984 118.128,17.44 L127.536,29.872 L127.536,18.208 C127.536,17.8399982 127.639999,17.5400012 127.848,17.308 C128.056001,17.0759988 128.335998,16.96 128.688,16.96 C129.040002,16.96 129.323999,17.0759988 129.54,17.308 Z M143.232,31.312 C143.376001,31.4880009 143.448,31.7119986 143.448,31.984 C143.448,32.4480023 143.160003,32.8399984 142.584,33.16 C142.023997,33.4800016 141.412003,33.7279991 140.748,33.904 C140.083997,34.0800009 139.448003,34.168 138.84,34.168 C136.983991,34.168 135.520005,33.6280054 134.448,32.548 C133.375995,31.4679946 132.84,29.9920094 132.84,28.12 C132.84,26.919994 133.075998,25.8560046 133.548,24.928 C134.020002,23.9999954 134.683996,23.2800026 135.54,22.768 C136.396004,22.2559974 137.367995,22 138.456,22 C140.024008,22 141.263995,22.503995 142.176,23.512 C143.088005,24.520005 143.544,25.8799914 143.544,27.592 C143.544,28.2320032 143.256003,28.552 142.68,28.552 L135.264,28.552 C135.424001,31.0320124 136.615989,32.272 138.84,32.272 C139.432003,32.272 139.943998,32.1920008 140.376,32.032 C140.808002,31.8719992 141.263998,31.6640013 141.744,31.408 C141.792,31.3759998 141.923999,31.3080005 142.14,31.204 C142.356001,31.0999995 142.535999,31.048 142.68,31.048 C142.904001,31.048 143.087999,31.1359991 143.232,31.312 Z M136.272,24.664 C135.711997,25.256003 135.376001,26.0879946 135.264,27.16 L141.456,27.16 C141.408,26.0719946 141.132003,25.2360029 140.628,24.652 C140.123997,24.0679971 139.416005,23.776 138.504,23.776 C137.575995,23.776 136.832003,24.071997 136.272,24.664 Z M156.432,33.016 C156.432,33.3200015 156.324001,33.5799989 156.108,33.796 C155.891999,34.0120011 155.632002,34.12 155.328,34.12 C155.023998,34.12 154.744001,33.9840014 154.488,33.712 L150.816,29.584 L147.168,33.712 C146.911999,33.9840014 146.632002,34.12 146.328,34.12 C146.023998,34.12 145.764001,34.0080011 145.548,33.784 C145.331999,33.5599989 145.224,33.2960015 145.224,32.992 C145.224,32.6879985 145.335999,32.4160012 145.56,32.176 L149.352,28 L145.752,23.992 C145.511999,23.7199986 145.392,23.4480014 145.392,23.176 C145.392,22.8719985 145.503999,22.6120011 145.728,22.396 C145.952001,22.1799989 146.207999,22.072 146.496,22.072 C146.800002,22.072 147.079999,22.2079986 147.336,22.48 L150.816,26.416 L154.296,22.48 C154.552001,22.2079986 154.839998,22.072 155.16,22.072 C155.448001,22.072 155.703999,22.1799989 155.928,22.396 C156.152001,22.6120011 156.264,22.8719985 156.264,23.176 C156.264,23.4800015 156.144001,23.7519988 155.904,23.992 L152.304,28 L156.072,32.176 C156.312001,32.4160012 156.432,32.6959984 156.432,33.016 Z M165.3,32.548 C165.452001,32.7000008 165.528,32.9119986 165.528,33.184 C165.528,33.5040016 165.404001,33.7479992 165.156,33.916 C164.907999,34.0840008 164.544002,34.1520002 164.064,34.12 L163.416,34.072 C162.119994,33.9759995 161.152003,33.5800035 160.512,32.884 C159.871997,32.1879965 159.552,31.1600068 159.552,29.8 L159.552,24.16 L158.112,24.16 C157.407996,24.16 157.056,23.8480031 157.056,23.224 C157.056,22.9359986 157.147999,22.7080008 157.332,22.54 C157.516001,22.3719992 157.775998,22.288 158.112,22.288 L159.552,22.288 L159.552,19.816 C159.552,19.4479982 159.659999,19.160001 159.876,18.952 C160.092001,18.743999 160.383998,18.64 160.752,18.64 C161.120002,18.64 161.415999,18.743999 161.64,18.952 C161.864001,19.160001 161.976,19.4479982 161.976,19.816 L161.976,22.288 L164.352,22.288 C164.688002,22.288 164.947999,22.3719992 165.132,22.54 C165.316001,22.7080008 165.408,22.9359986 165.408,23.224 C165.408,23.5280015 165.316001,23.7599992 165.132,23.92 C164.947999,24.0800008 164.688002,24.16 164.352,24.16 L161.976,24.16 L161.976,29.968 C161.976,30.7200038 162.131998,31.2719982 162.444,31.624 C162.756002,31.9760018 163.231997,32.1759998 163.872,32.224 L164.544,32.272 C164.896002,32.3040002 165.147999,32.3959992 165.3,32.548 Z" id="Next" fill="#FFFFFF"></path>
            </g>
        </g>
    </g>
</svg>