<?xml version="1.0" encoding="UTF-8"?>
<svg width="375px" height="60px" viewBox="0 0 375 60" version="1.1" xmlns="http://www.w3.org/2000/svg" xmlns:xlink="http://www.w3.org/1999/xlink">
    <!-- Generator: Sketch 49.3 (51167) - http://www.bohemiancoding.com/sketch -->
    <title>delete account</title>
    <desc>Created with Sketch.</desc>
    <defs></defs>
    <g id="iOS-App" stroke="none" stroke-width="1" fill="none" fill-rule="evenodd">
        <g id="Settings---Account" transform="translate(0.000000, -607.000000)">
            <g id="delete-account" transform="translate(0.000000, 607.000000)">
                <rect id="Rectangle-17" fill="#E53C3C" x="0" y="0" width="375" height="60"></rect>
                <path d="M107.556,34.736 C107.371999,34.5599991 107.28,34.3280014 107.28,34.04 L107.28,19.04 C107.28,18.7519986 107.371999,18.5200009 107.556,18.344 C107.740001,18.1679991 107.983998,18.08 108.288,18.08 L112.968,18.08 C115.672014,18.08 117.763993,18.8119927 119.244,20.276 C120.724007,21.7400073 121.464,23.8239865 121.464,26.528 C121.464,29.2320135 120.720007,31.3199926 119.232,32.792 C117.743993,34.2640074 115.656013,35 112.968,35 L108.288,35 C107.983998,35 107.740001,34.9120009 107.556,34.736 Z M112.848,33.32 C117.232022,33.32 119.424,31.0560226 119.424,26.528 C119.424,22.0159774 117.232022,19.76 112.848,19.76 L109.248,19.76 L109.248,33.32 L112.848,33.32 Z M134.232,32.504 C134.360001,32.6480007 134.424,32.8319989 134.424,33.056 C134.424,33.456002 134.144003,33.8239983 133.584,34.16 C133.007997,34.4960017 132.400003,34.7479992 131.76,34.916 C131.119997,35.0840008 130.496003,35.168 129.888,35.168 C128.079991,35.168 126.652005,34.6320054 125.604,33.56 C124.555995,32.4879946 124.032,31.0080094 124.032,29.12 C124.032,27.919994 124.263998,26.8600046 124.728,25.94 C125.192002,25.0199954 125.843996,24.3040026 126.684,23.792 C127.524004,23.2799974 128.479995,23.024 129.552,23.024 C131.072008,23.024 132.279996,23.519995 133.176,24.512 C134.072004,25.504005 134.52,26.8479915 134.52,28.544 C134.52,28.8640016 134.456001,29.0959993 134.328,29.24 C134.199999,29.3840007 133.992001,29.456 133.704,29.456 L125.976,29.456 C126.120001,32.2080138 127.423988,33.584 129.888,33.584 C130.512003,33.584 131.047998,33.5000008 131.496,33.332 C131.944002,33.1639992 132.423997,32.9360014 132.936,32.648 C133.352002,32.4079988 133.631999,32.288 133.776,32.288 C133.952001,32.288 134.103999,32.3599993 134.232,32.504 Z M127.116,25.496 C126.499997,26.1360032 126.136001,27.0399942 126.024,28.208 L132.816,28.208 C132.784,27.0239941 132.488003,26.1160032 131.928,25.484 C131.367997,24.8519968 130.584005,24.536 129.576,24.536 C128.551995,24.536 127.732003,24.8559968 127.116,25.496 Z M137.652,34.868 C137.467999,34.6999992 137.376,34.4640015 137.376,34.16 L137.376,18.92 C137.376,18.6159985 137.467999,18.3800008 137.652,18.212 C137.836001,18.0439992 138.071999,17.96 138.36,17.96 C138.632001,17.96 138.859999,18.0439992 139.044,18.212 C139.228001,18.3800008 139.32,18.6159985 139.32,18.92 L139.32,34.16 C139.32,34.4640015 139.228001,34.6999992 139.044,34.868 C138.859999,35.0360008 138.632001,35.12 138.36,35.12 C138.071999,35.12 137.836001,35.0360008 137.652,34.868 Z M152.448,32.504 C152.576001,32.6480007 152.64,32.8319989 152.64,33.056 C152.64,33.456002 152.360003,33.8239983 151.8,34.16 C151.223997,34.4960017 150.616003,34.7479992 149.976,34.916 C149.335997,35.0840008 148.712003,35.168 148.104,35.168 C146.295991,35.168 144.868005,34.6320054 143.82,33.56 C142.771995,32.4879946 142.248,31.0080094 142.248,29.12 C142.248,27.919994 142.479998,26.8600046 142.944,25.94 C143.408002,25.0199954 144.059996,24.3040026 144.9,23.792 C145.740004,23.2799974 146.695995,23.024 147.768,23.024 C149.288008,23.024 150.495996,23.519995 151.392,24.512 C152.288004,25.504005 152.736,26.8479915 152.736,28.544 C152.736,28.8640016 152.672001,29.0959993 152.544,29.24 C152.415999,29.3840007 152.208001,29.456 151.92,29.456 L144.192,29.456 C144.336001,32.2080138 145.639988,33.584 148.104,33.584 C148.728003,33.584 149.263998,33.5000008 149.712,33.332 C150.160002,33.1639992 150.639997,32.9360014 151.152,32.648 C151.568002,32.4079988 151.847999,32.288 151.992,32.288 C152.168001,32.288 152.319999,32.3599993 152.448,32.504 Z M145.332,25.496 C144.715997,26.1360032 144.352001,27.0399942 144.24,28.208 L151.032,28.208 C151,27.0239941 150.704003,26.1160032 150.144,25.484 C149.583997,24.8519968 148.800005,24.536 147.792,24.536 C146.767995,24.536 145.948003,24.8559968 145.332,25.496 Z M161.832,34.352 C161.832,34.6240014 161.732001,34.8279993 161.532,34.964 C161.331999,35.1000007 161.032002,35.1520002 160.632,35.12 L159.984,35.072 C158.703994,34.9759995 157.760003,34.5920034 157.152,33.92 C156.543997,33.2479966 156.24,32.2320068 156.24,30.872 L156.24,24.848 L154.632,24.848 C154.359999,24.848 154.148001,24.7800007 153.996,24.644 C153.843999,24.5079993 153.768,24.3280011 153.768,24.104 C153.768,23.8639988 153.843999,23.6720007 153.996,23.528 C154.148001,23.3839993 154.359999,23.312 154.632,23.312 L156.24,23.312 L156.24,20.6 C156.24,20.2959985 156.327999,20.0600008 156.504,19.892 C156.680001,19.7239992 156.919998,19.64 157.224,19.64 C157.512001,19.64 157.743999,19.7239992 157.92,19.892 C158.096001,20.0600008 158.184,20.2959985 158.184,20.6 L158.184,23.312 L160.848,23.312 C161.104001,23.312 161.307999,23.3839993 161.46,23.528 C161.612001,23.6720007 161.688,23.8639988 161.688,24.104 C161.688,24.3280011 161.612001,24.5079993 161.46,24.644 C161.307999,24.7800007 161.104001,24.848 160.848,24.848 L158.184,24.848 L158.184,30.968 C158.184,31.8480044 158.363998,32.483998 158.724,32.876 C159.084002,33.268002 159.623996,33.4879998 160.344,33.536 L160.992,33.584 C161.552003,33.6320002 161.832,33.8879977 161.832,34.352 Z M173.256,32.504 C173.384001,32.6480007 173.448,32.8319989 173.448,33.056 C173.448,33.456002 173.168003,33.8239983 172.608,34.16 C172.031997,34.4960017 171.424003,34.7479992 170.784,34.916 C170.143997,35.0840008 169.520003,35.168 168.912,35.168 C167.103991,35.168 165.676005,34.6320054 164.628,33.56 C163.579995,32.4879946 163.056,31.0080094 163.056,29.12 C163.056,27.919994 163.287998,26.8600046 163.752,25.94 C164.216002,25.0199954 164.867996,24.3040026 165.708,23.792 C166.548004,23.2799974 167.503995,23.024 168.576,23.024 C170.096008,23.024 171.303996,23.519995 172.2,24.512 C173.096004,25.504005 173.544,26.8479915 173.544,28.544 C173.544,28.8640016 173.480001,29.0959993 173.352,29.24 C173.223999,29.3840007 173.016001,29.456 172.728,29.456 L165,29.456 C165.144001,32.2080138 166.447988,33.584 168.912,33.584 C169.536003,33.584 170.071998,33.5000008 170.52,33.332 C170.968002,33.1639992 171.447997,32.9360014 171.96,32.648 C172.376002,32.4079988 172.655999,32.288 172.8,32.288 C172.976001,32.288 173.127999,32.3599993 173.256,32.504 Z M166.14,25.496 C165.523997,26.1360032 165.160001,27.0399942 165.048,28.208 L171.84,28.208 C171.808,27.0239941 171.512003,26.1160032 170.952,25.484 C170.391997,24.8519968 169.608005,24.536 168.6,24.536 C167.575995,24.536 166.756003,24.8559968 166.14,25.496 Z M197.544,34.28 C197.544,34.5200012 197.452001,34.7199992 197.268,34.88 C197.083999,35.0400008 196.864001,35.12 196.608,35.12 C196.207998,35.12 195.928001,34.9280019 195.768,34.544 L194.064,30.656 L185.016,30.656 L183.288,34.544 C183.127999,34.9280019 182.848002,35.12 182.448,35.12 C182.191999,35.12 181.968001,35.0360008 181.776,34.868 C181.583999,34.6999992 181.488,34.4960012 181.488,34.256 C181.488,34.1279994 181.52,34.0000006 181.584,33.872 L188.448,18.608 C188.544,18.3839989 188.687999,18.2160006 188.88,18.104 C189.072001,17.9919994 189.279999,17.936 189.504,17.936 C189.744001,17.936 189.959999,17.9959994 190.152,18.116 C190.344001,18.2360006 190.488,18.399999 190.584,18.608 L197.448,33.872 C197.512,34.0000006 197.544,34.1359993 197.544,34.28 Z M185.736,29.024 L193.344,29.024 L189.528,20.408 L185.736,29.024 Z M201.972,34.424 C201.131996,33.9279975 200.484002,33.2240046 200.028,32.312 C199.571998,31.3999954 199.344,30.344006 199.344,29.144 C199.344,27.943994 199.579998,26.8800046 200.052,25.952 C200.524002,25.0239954 201.183996,24.3040026 202.032,23.792 C202.880004,23.2799974 203.855994,23.024 204.96,23.024 C205.568003,23.024 206.171997,23.1079992 206.772,23.276 C207.372003,23.4440008 207.895998,23.6879984 208.344,24.008 C208.632001,24.200001 208.835999,24.3879991 208.956,24.572 C209.076001,24.7560009 209.136,24.9599989 209.136,25.184 C209.136,25.4080011 209.076001,25.5919993 208.956,25.736 C208.835999,25.8800007 208.680001,25.952 208.488,25.952 C208.375999,25.952 208.256001,25.9200003 208.128,25.856 C207.999999,25.7919997 207.892,25.7280003 207.804,25.664 C207.716,25.5999997 207.656,25.5600001 207.624,25.544 C207.207998,25.2719986 206.812002,25.0560008 206.436,24.896 C206.059998,24.7359992 205.600003,24.656 205.056,24.656 C203.887994,24.656 202.980003,25.051996 202.332,25.844 C201.683997,26.636004 201.36,27.735993 201.36,29.144 C201.36,30.552007 201.683997,31.6399962 202.332,32.408 C202.980003,33.1760038 203.887994,33.56 205.056,33.56 C205.600003,33.56 206.067998,33.4800008 206.46,33.32 C206.852002,33.1599992 207.247998,32.9440014 207.648,32.672 C207.824001,32.5599994 207.991999,32.4640004 208.152,32.384 C208.312001,32.3039996 208.447999,32.264 208.56,32.264 C208.736001,32.264 208.883999,32.3359993 209.004,32.48 C209.124001,32.6240007 209.184,32.8079989 209.184,33.032 C209.184,33.240001 209.128001,33.4279992 209.016,33.596 C208.903999,33.7640008 208.696002,33.951999 208.392,34.16 C207.943998,34.4640015 207.404003,34.7079991 206.772,34.892 C206.139997,35.0760009 205.504003,35.168 204.864,35.168 C203.775995,35.168 202.812004,34.9200025 201.972,34.424 Z M213.468,34.424 C212.627996,33.9279975 211.980002,33.2240046 211.524,32.312 C211.067998,31.3999954 210.84,30.344006 210.84,29.144 C210.84,27.943994 211.075998,26.8800046 211.548,25.952 C212.020002,25.0239954 212.679996,24.3040026 213.528,23.792 C214.376004,23.2799974 215.351994,23.024 216.456,23.024 C217.064003,23.024 217.667997,23.1079992 218.268,23.276 C218.868003,23.4440008 219.391998,23.6879984 219.84,24.008 C220.128001,24.200001 220.331999,24.3879991 220.452,24.572 C220.572001,24.7560009 220.632,24.9599989 220.632,25.184 C220.632,25.4080011 220.572001,25.5919993 220.452,25.736 C220.331999,25.8800007 220.176001,25.952 219.984,25.952 C219.871999,25.952 219.752001,25.9200003 219.624,25.856 C219.495999,25.7919997 219.388,25.7280003 219.3,25.664 C219.212,25.5999997 219.152,25.5600001 219.12,25.544 C218.703998,25.2719986 218.308002,25.0560008 217.932,24.896 C217.555998,24.7359992 217.096003,24.656 216.552,24.656 C215.383994,24.656 214.476003,25.051996 213.828,25.844 C213.179997,26.636004 212.856,27.735993 212.856,29.144 C212.856,30.552007 213.179997,31.6399962 213.828,32.408 C214.476003,33.1760038 215.383994,33.56 216.552,33.56 C217.096003,33.56 217.563998,33.4800008 217.956,33.32 C218.348002,33.1599992 218.743998,32.9440014 219.144,32.672 C219.320001,32.5599994 219.487999,32.4640004 219.648,32.384 C219.808001,32.3039996 219.943999,32.264 220.056,32.264 C220.232001,32.264 220.379999,32.3359993 220.5,32.48 C220.620001,32.6240007 220.68,32.8079989 220.68,33.032 C220.68,33.240001 220.624001,33.4279992 220.512,33.596 C220.399999,33.7640008 220.192002,33.951999 219.888,34.16 C219.439998,34.4640015 218.900003,34.7079991 218.268,34.892 C217.635997,35.0760009 217.000003,35.168 216.36,35.168 C215.271995,35.168 214.308004,34.9200025 213.468,34.424 Z M224.964,34.424 C224.123996,33.9279975 223.476002,33.2200046 223.02,32.3 C222.563998,31.3799954 222.336,30.3120061 222.336,29.096 C222.336,27.8799939 222.563998,26.8120046 223.02,25.892 C223.476002,24.9719954 224.123996,24.2640025 224.964,23.768 C225.804004,23.2719975 226.775994,23.024 227.88,23.024 C228.984006,23.024 229.959996,23.2719975 230.808,23.768 C231.656004,24.2640025 232.307998,24.9719954 232.764,25.892 C233.220002,26.8120046 233.448,27.8799939 233.448,29.096 C233.448,30.3120061 233.220002,31.3799954 232.764,32.3 C232.307998,33.2200046 231.656004,33.9279975 230.808,34.424 C229.959996,34.9200025 228.984006,35.168 227.88,35.168 C226.775994,35.168 225.804004,34.9200025 224.964,34.424 Z M230.532,32.42 C231.148003,31.6599962 231.456,30.5520073 231.456,29.096 C231.456,27.6719929 231.144003,26.5720039 230.52,25.796 C229.895997,25.0199961 229.016006,24.632 227.88,24.632 C226.743994,24.632 225.864003,25.0199961 225.24,25.796 C224.615997,26.5720039 224.304,27.6719929 224.304,29.096 C224.304,30.5360072 224.611997,31.6399962 225.228,32.408 C225.844003,33.1760038 226.727994,33.56 227.88,33.56 C229.032006,33.56 229.915997,33.1800038 230.532,32.42 Z M245.94,23.336 C246.108001,23.5120009 246.192,23.7439986 246.192,24.032 L246.192,34.184 C246.192,34.4560014 246.108001,34.6799991 245.94,34.856 C245.771999,35.0320009 245.536002,35.12 245.232,35.12 C244.943999,35.12 244.716001,35.0360008 244.548,34.868 C244.379999,34.6999992 244.296,34.4800014 244.296,34.208 L244.296,33.008 C243.927998,33.7120035 243.412003,34.2479982 242.748,34.616 C242.083997,34.9840018 241.336004,35.168 240.504,35.168 C239.111993,35.168 238.064004,34.7800039 237.36,34.004 C236.655996,33.2279961 236.304,32.0800076 236.304,30.56 L236.304,24.032 C236.304,23.7439986 236.391999,23.5120009 236.568,23.336 C236.744001,23.1599991 236.983998,23.072 237.288,23.072 C237.592002,23.072 237.827999,23.1599991 237.996,23.336 C238.164001,23.5120009 238.248,23.7439986 238.248,24.032 L238.248,30.512 C238.248,31.5520052 238.455998,32.3159976 238.872,32.804 C239.288002,33.2920024 239.943996,33.536 240.84,33.536 C241.864005,33.536 242.687997,33.2040033 243.312,32.54 C243.936003,31.8759967 244.248,31.0000054 244.248,29.912 L244.248,24.032 C244.248,23.7439986 244.335999,23.5120009 244.512,23.336 C244.688001,23.1599991 244.927998,23.072 245.232,23.072 C245.536002,23.072 245.771999,23.1599991 245.94,23.336 Z M259.896,27.656 L259.896,34.16 C259.896,34.4640015 259.812001,34.6999992 259.644,34.868 C259.475999,35.0360008 259.240002,35.12 258.936,35.12 C258.631998,35.12 258.392001,35.0360008 258.216,34.868 C258.039999,34.6999992 257.952,34.4640015 257.952,34.16 L257.952,27.776 C257.952,26.6879946 257.740002,25.8960025 257.316,25.4 C256.891998,24.9039975 256.216005,24.656 255.288,24.656 C254.215995,24.656 253.360003,24.9839967 252.72,25.64 C252.079997,26.2960033 251.76,27.1839944 251.76,28.304 L251.76,34.16 C251.76,34.4640015 251.676001,34.6999992 251.508,34.868 C251.339999,35.0360008 251.104002,35.12 250.8,35.12 C250.495998,35.12 250.256001,35.0360008 250.08,34.868 C249.903999,34.6999992 249.816,34.4640015 249.816,34.16 L249.816,24.032 C249.816,23.7439986 249.903999,23.5120009 250.08,23.336 C250.256001,23.1599991 250.495998,23.072 250.8,23.072 C251.088001,23.072 251.315999,23.1599991 251.484,23.336 C251.652001,23.5120009 251.736,23.7359986 251.736,24.008 L251.736,25.232 C252.120002,24.5119964 252.655997,23.9640019 253.344,23.588 C254.032003,23.2119981 254.815996,23.024 255.696,23.024 C258.496014,23.024 259.896,24.5679846 259.896,27.656 Z M269.688,34.352 C269.688,34.6240014 269.588001,34.8279993 269.388,34.964 C269.187999,35.1000007 268.888002,35.1520002 268.488,35.12 L267.84,35.072 C266.559994,34.9759995 265.616003,34.5920034 265.008,33.92 C264.399997,33.2479966 264.096,32.2320068 264.096,30.872 L264.096,24.848 L262.488,24.848 C262.215999,24.848 262.004001,24.7800007 261.852,24.644 C261.699999,24.5079993 261.624,24.3280011 261.624,24.104 C261.624,23.8639988 261.699999,23.6720007 261.852,23.528 C262.004001,23.3839993 262.215999,23.312 262.488,23.312 L264.096,23.312 L264.096,20.6 C264.096,20.2959985 264.183999,20.0600008 264.36,19.892 C264.536001,19.7239992 264.775998,19.64 265.08,19.64 C265.368001,19.64 265.599999,19.7239992 265.776,19.892 C265.952001,20.0600008 266.04,20.2959985 266.04,20.6 L266.04,23.312 L268.704,23.312 C268.960001,23.312 269.163999,23.3839993 269.316,23.528 C269.468001,23.6720007 269.544,23.8639988 269.544,24.104 C269.544,24.3280011 269.468001,24.5079993 269.316,24.644 C269.163999,24.7800007 268.960001,24.848 268.704,24.848 L266.04,24.848 L266.04,30.968 C266.04,31.8480044 266.219998,32.483998 266.58,32.876 C266.940002,33.268002 267.479996,33.4879998 268.2,33.536 L268.848,33.584 C269.408003,33.6320002 269.688,33.8879977 269.688,34.352 Z" id="Delete-Account" fill="#FFFFFF"></path>
            </g>
        </g>
    </g>
</svg>