<?xml version="1.0" encoding="utf-8"?>
<!-- Generator: Adobe Illustrator 22.0.1, SVG Export Plug-In . SVG Version: 6.00 Build 0)  -->
<svg version="1.1" id="Layer_1" xmlns="http://www.w3.org/2000/svg" xmlns:xlink="http://www.w3.org/1999/xlink" x="0px" y="0px"
	 viewBox="0 0 280 52" style="enable-background:new 0 0 280 52;" xml:space="preserve">
<style type="text/css">
	.st0{fill:#FFFFFF;}
	.st1{fill:none;stroke:#B8B8B8;stroke-width:2;}
	.st2{fill:#A3A3A3;}
</style>
<path class="st0" d="M254,52H26C11.6,52,0,40.4,0,26v0C0,11.6,11.6,0,26,0h228c14.4,0,26,11.6,26,26v0C280,40.4,268.4,52,254,52z"/>
<title>sign up inactive</title>
<desc>Created with Sketch.</desc>
<g id="iOS-App">
	<g id="SignUp-Parents" transform="translate(-48.000000, -423.000000)">
		<g id="sign-up-inactive" transform="translate(48.000000, 423.000000)">
			<path id="Rectangle" class="st1" d="M26,1h228c13.8,0,25,11.2,25,25l0,0c0,13.8-11.2,25-25,25H26C12.2,51,1,39.8,1,26l0,0
				C1,12.2,12.2,1,26,1z"/>
			<path id="Sign-up" class="st2" d="M102.1,33.7c-1.1-0.3-2-0.8-2.6-1.4c-0.3-0.3-0.5-0.6-0.5-1c0-0.3,0.1-0.5,0.2-0.7
				c0.2-0.2,0.4-0.3,0.6-0.3c0.2,0,0.5,0.1,0.8,0.3c1.4,1.1,3,1.6,4.9,1.6c1.3,0,2.3-0.2,3-0.7c0.7-0.5,1-1.2,1-2.1
				c0-0.7-0.3-1.2-1-1.6c-0.6-0.4-1.7-0.7-3.1-1c-1.3-0.3-2.4-0.6-3.3-1s-1.5-0.9-2-1.5c-0.5-0.6-0.7-1.4-0.7-2.4
				c0-1,0.3-1.8,0.8-2.6c0.5-0.8,1.3-1.4,2.2-1.8c1-0.4,2.1-0.6,3.3-0.6c1.1,0,2.2,0.2,3.1,0.5s1.8,0.8,2.4,1.4
				c0.3,0.3,0.5,0.6,0.5,1c0,0.3-0.1,0.5-0.3,0.7c-0.2,0.2-0.4,0.3-0.6,0.3c-0.2,0-0.5-0.1-0.8-0.3c-0.7-0.6-1.4-1-2.1-1.2
				c-0.6-0.2-1.4-0.4-2.3-0.4c-1.2,0-2.2,0.3-2.9,0.8c-0.7,0.5-1,1.2-1,2.1c0,0.8,0.3,1.3,0.9,1.7s1.6,0.7,2.9,1.1
				c1.4,0.3,2.5,0.7,3.4,1c0.9,0.3,1.6,0.8,2.1,1.4c0.5,0.6,0.8,1.4,0.8,2.3c0,1-0.3,1.8-0.8,2.6c-0.5,0.7-1.3,1.3-2.3,1.7
				c-1,0.4-2.1,0.6-3.3,0.6C104.3,34.2,103.2,34,102.1,33.7z M115.1,33.8c-0.2-0.2-0.3-0.5-0.3-0.9v-9.7c0-0.4,0.1-0.7,0.3-0.9
				c0.2-0.2,0.5-0.3,0.9-0.3c0.4,0,0.6,0.1,0.9,0.3c0.2,0.2,0.3,0.5,0.3,0.9V33c0,0.4-0.1,0.7-0.3,0.9c-0.2,0.2-0.5,0.3-0.9,0.3
				C115.6,34.1,115.3,34,115.1,33.8z M114.8,19.3c-0.3-0.3-0.4-0.6-0.4-1c0-0.4,0.1-0.7,0.4-1s0.6-0.4,1.1-0.4
				c0.4,0,0.8,0.1,1.1,0.4s0.4,0.6,0.4,1c0,0.4-0.1,0.8-0.4,1c-0.3,0.3-0.6,0.4-1.1,0.4C115.5,19.7,115.1,19.6,114.8,19.3z
				 M131.1,22.4c0.2,0.2,0.3,0.5,0.3,0.9v9.8c0,1.8-0.5,3.1-1.4,4.1c-1,0.9-2.4,1.4-4.2,1.4c-1.7,0-3.2-0.3-4.3-1
				c-0.6-0.3-0.9-0.7-0.9-1.2c0-0.3,0.1-0.5,0.2-0.7c0.2-0.2,0.3-0.3,0.6-0.3c0.2,0,0.5,0.1,1,0.4c0.6,0.3,1.1,0.5,1.6,0.6
				c0.5,0.2,1.1,0.2,1.8,0.2c2.2,0,3.3-1.1,3.3-3.3v-1.8c-0.3,0.7-0.8,1.3-1.5,1.6c-0.7,0.4-1.5,0.6-2.4,0.6c-1,0-1.9-0.2-2.7-0.7
				c-0.8-0.5-1.4-1.2-1.9-2c-0.4-0.9-0.7-1.9-0.7-3c0-1.2,0.2-2.2,0.7-3c0.4-0.9,1.1-1.6,1.9-2.1c0.8-0.5,1.7-0.7,2.7-0.7
				c0.9,0,1.7,0.2,2.4,0.6c0.7,0.4,1.2,0.9,1.5,1.6v-1c0-0.4,0.1-0.6,0.3-0.8c0.2-0.2,0.5-0.3,0.9-0.3
				C130.6,22,130.9,22.2,131.1,22.4z M128.1,30.7c0.6-0.7,0.9-1.6,0.9-2.9c0-1.2-0.3-2.1-0.9-2.8c-0.6-0.7-1.4-1-2.5-1
				s-1.9,0.3-2.5,1c-0.6,0.7-0.9,1.6-0.9,2.9c0,1.2,0.3,2.2,0.9,2.9s1.4,1,2.5,1C126.7,31.7,127.6,31.4,128.1,30.7z M145.3,26.7V33
				c0,0.4-0.1,0.7-0.3,0.9s-0.5,0.3-0.9,0.3c-0.4,0-0.7-0.1-0.9-0.3c-0.2-0.2-0.3-0.5-0.3-0.8v-6.1c0-1-0.2-1.7-0.6-2.2
				c-0.4-0.5-1-0.7-1.8-0.7c-1,0-1.8,0.3-2.4,0.9c-0.6,0.6-0.9,1.4-0.9,2.4V33c0,0.4-0.1,0.6-0.3,0.8c-0.2,0.2-0.5,0.3-0.9,0.3
				c-0.4,0-0.7-0.1-0.9-0.3c-0.2-0.2-0.3-0.5-0.3-0.8v-9.8c0-0.3,0.1-0.6,0.3-0.8c0.2-0.2,0.5-0.3,0.9-0.3c0.4,0,0.6,0.1,0.8,0.3
				c0.2,0.2,0.3,0.5,0.3,0.8v1c0.4-0.7,0.9-1.2,1.6-1.6s1.5-0.6,2.3-0.6C143.9,22,145.3,23.6,145.3,26.7z M164.9,22.4
				c0.2,0.2,0.3,0.5,0.3,0.9V33c0,0.3-0.1,0.6-0.3,0.8c-0.2,0.2-0.5,0.3-0.9,0.3c-0.3,0-0.6-0.1-0.8-0.3c-0.2-0.2-0.3-0.5-0.3-0.8
				v-0.9c-0.4,0.7-0.9,1.2-1.5,1.5c-0.6,0.4-1.4,0.5-2.2,0.5c-2.8,0-4.3-1.6-4.3-4.7v-6.2c0-0.4,0.1-0.7,0.3-0.9
				c0.2-0.2,0.5-0.3,0.9-0.3c0.4,0,0.7,0.1,0.9,0.3c0.2,0.2,0.3,0.5,0.3,0.9v6.2c0,0.9,0.2,1.6,0.6,2.1s1,0.7,1.8,0.7
				c0.9,0,1.7-0.3,2.3-0.9s0.9-1.4,0.9-2.4v-5.6c0-0.4,0.1-0.6,0.3-0.9s0.5-0.3,0.9-0.3C164.4,22,164.7,22.2,164.9,22.4z
				 M177.6,22.8c0.8,0.5,1.4,1.2,1.8,2.2c0.4,0.9,0.7,2,0.7,3.2c0,1.2-0.2,2.3-0.6,3.2c-0.4,0.9-1,1.6-1.8,2.1s-1.7,0.7-2.7,0.7
				c-0.9,0-1.7-0.2-2.3-0.6c-0.7-0.4-1.2-0.9-1.5-1.6v5.4c0,0.3-0.1,0.6-0.3,0.8c-0.2,0.2-0.5,0.3-0.9,0.3c-0.4,0-0.7-0.1-0.9-0.3
				c-0.2-0.2-0.3-0.5-0.3-0.8V23.2c0-0.4,0.1-0.6,0.3-0.9s0.5-0.3,0.9-0.3c0.4,0,0.6,0.1,0.9,0.3s0.3,0.5,0.3,0.9v1
				c0.4-0.7,0.9-1.2,1.5-1.6c0.7-0.4,1.4-0.6,2.3-0.6C175.9,22,176.8,22.3,177.6,22.8z M176.8,31.2c0.6-0.7,0.9-1.7,0.9-3
				c0-1.3-0.3-2.4-0.9-3.1s-1.4-1.1-2.4-1.1c-1.1,0-1.9,0.4-2.4,1.1c-0.6,0.7-0.9,1.7-0.9,3.1s0.3,2.4,0.9,3.1
				c0.6,0.7,1.4,1.1,2.4,1.1C175.4,32.2,176.2,31.9,176.8,31.2z"/>
		</g>
	</g>
</g>
</svg>
