<?xml version="1.0" encoding="UTF-8"?>
<svg width="165px" height="165px" viewBox="0 0 165 165" version="1.1" xmlns="http://www.w3.org/2000/svg" xmlns:xlink="http://www.w3.org/1999/xlink">
    <!-- Generator: Sketch 49.3 (51167) - http://www.bohemiancoding.com/sketch -->
    <title>Sign of the Day Button</title>
    <desc>Created with Sketch.</desc>
    <defs>
        <linearGradient x1="75.1560763%" y1="5.33323529%" x2="39.368198%" y2="100%" id="linearGradient-1">
            <stop stop-color="#F9E877" offset="0%"></stop>
            <stop stop-color="#EFD154" offset="100%"></stop>
        </linearGradient>
        <rect id="path-2" x="0" y="0" width="145" height="145" rx="15"></rect>
        <filter x="-9.0%" y="-9.7%" width="123.4%" height="123.4%" filterUnits="objectBoundingBox" id="filter-3">
            <feOffset dx="4" dy="3" in="SourceAlpha" result="shadowOffsetOuter1"></feOffset>
            <feGaussianBlur stdDeviation="5" in="shadowOffsetOuter1" result="shadowBlurOuter1"></feGaussianBlur>
            <feColorMatrix values="0 0 0 0 0.937254902   0 0 0 0 0.819607843   0 0 0 0 0.329411765  0 0 0 0.3 0" type="matrix" in="shadowBlurOuter1"></feColorMatrix>
        </filter>
    </defs>
    <g id="iOS-App" stroke="none" stroke-width="1" fill="none" fill-rule="evenodd">
        <g id="Menu-Copy" transform="translate(-196.000000, -353.000000)">
            <g id="Sign-of-the-Day-Button" transform="translate(202.000000, 360.000000)">
                <g id="Rectangle-8-Copy-6">
                    <use fill="black" fill-opacity="1" filter="url(#filter-3)" xlink:href="#path-2"></use>
                    <use fill="url(#linearGradient-1)" fill-rule="evenodd" xlink:href="#path-2"></use>
                </g>
                <path d="M55.84,108.71 C54.9266621,108.409999 54.1966694,108.006669 53.65,107.5 C53.449999,107.313332 53.35,107.080001 53.35,106.8 C53.35,106.613332 53.4033328,106.450001 53.51,106.31 C53.6166672,106.169999 53.7433326,106.1 53.89,106.1 C54.0633342,106.1 54.249999,106.173333 54.45,106.32 C55.6900062,107.280005 57.1033254,107.76 58.69,107.76 C59.8366724,107.76 60.7166636,107.540002 61.33,107.1 C61.9433364,106.659998 62.25,106.033337 62.25,105.22 C62.25,104.753331 62.1033348,104.376668 61.81,104.09 C61.5166652,103.803332 61.1300024,103.573334 60.65,103.4 C60.1699976,103.226666 59.5233374,103.046668 58.71,102.86 C57.6166612,102.606665 56.7200035,102.340001 56.02,102.06 C55.3199965,101.779999 54.7533355,101.380003 54.32,100.86 C53.8866645,100.339997 53.67,99.6600042 53.67,98.82 C53.67,98.019996 53.8866645,97.3100031 54.32,96.69 C54.7533355,96.0699969 55.3599961,95.5900017 56.14,95.25 C56.9200039,94.9099983 57.809995,94.74 58.81,94.74 C59.743338,94.74 60.6133293,94.8833319 61.42,95.17 C62.2266707,95.4566681 62.9033306,95.866664 63.45,96.4 C63.6633344,96.6133344 63.77,96.8466654 63.77,97.1 C63.77,97.2866676 63.7166672,97.4499993 63.61,97.59 C63.5033328,97.7300007 63.3766674,97.8 63.23,97.8 C63.0833326,97.8 62.8900012,97.7266674 62.65,97.58 C61.9966634,97.046664 61.3900028,96.6733344 60.83,96.46 C60.2699972,96.2466656 59.5966706,96.14 58.81,96.14 C57.7033278,96.14 56.8433364,96.3699977 56.23,96.83 C55.6166636,97.2900023 55.31,97.9333292 55.31,98.76 C55.31,99.4666702 55.5799973,99.9966649 56.12,100.35 C56.6600027,100.703335 57.4899944,101.013332 58.61,101.28 C59.8233394,101.573335 60.7766632,101.843332 61.47,102.09 C62.1633368,102.336668 62.7399977,102.706664 63.2,103.2 C63.6600023,103.693336 63.89,104.353329 63.89,105.18 C63.89,105.966671 63.6733355,106.659997 63.24,107.26 C62.8066645,107.860003 62.1966706,108.326665 61.41,108.66 C60.6233294,108.993335 59.7233384,109.16 58.71,109.16 C57.709995,109.16 56.7533379,109.010002 55.84,108.71 Z M66.54,108.89 C66.3866659,108.749999 66.31,108.553335 66.31,108.3 L66.31,99.86 C66.31,99.6066654 66.3866659,99.4100007 66.54,99.27 C66.6933341,99.1299993 66.8899988,99.06 67.13,99.06 C67.3700012,99.06 67.5633326,99.1299993 67.71,99.27 C67.8566674,99.4100007 67.93,99.6066654 67.93,99.86 L67.93,108.3 C67.93,108.566668 67.8566674,108.766666 67.71,108.9 C67.5633326,109.033334 67.3700012,109.1 67.13,109.1 C66.8899988,109.1 66.6933341,109.030001 66.54,108.89 Z M66.35,96.68 C66.149999,96.4933324 66.05,96.2466682 66.05,95.94 C66.05,95.6466652 66.149999,95.4066676 66.35,95.22 C66.550001,95.0333324 66.8099984,94.94 67.13,94.94 C67.4500016,94.94 67.709999,95.0333324 67.91,95.22 C68.110001,95.4066676 68.21,95.6466652 68.21,95.94 C68.21,96.2466682 68.110001,96.4933324 67.91,96.68 C67.709999,96.8666676 67.4500016,96.96 67.13,96.96 C66.8099984,96.96 66.550001,96.8666676 66.35,96.68 Z M79.45,99.28 C79.5966674,99.4266674 79.67,99.6199988 79.67,99.86 L79.67,108.34 C79.67,109.793341 79.2966704,110.889996 78.55,111.63 C77.8033296,112.370004 76.696674,112.74 75.23,112.74 C73.8033262,112.74 72.6166714,112.460003 71.67,111.9 C71.1899976,111.633332 70.95,111.326668 70.95,110.98 C70.95,110.793332 70.9999995,110.640001 71.1,110.52 C71.2000005,110.399999 71.3299992,110.34 71.49,110.34 C71.623334,110.34 71.8633316,110.433332 72.21,110.62 C72.676669,110.860001 73.1366644,111.053333 73.59,111.2 C74.0433356,111.346667 74.5833302,111.42 75.21,111.42 C76.1566714,111.42 76.8699976,111.170003 77.35,110.67 C77.8300024,110.169997 78.07,109.440005 78.07,108.48 L78.07,106.76 C77.7899986,107.38667 77.3600029,107.866665 76.78,108.2 C76.1999971,108.533335 75.5166706,108.7 74.73,108.7 C73.8766624,108.7 73.1200033,108.500002 72.46,108.1 C71.7999967,107.699998 71.2866685,107.133337 70.92,106.4 C70.5533315,105.666663 70.37,104.820005 70.37,103.86 C70.37,102.899995 70.5533315,102.053337 70.92,101.32 C71.2866685,100.586663 71.7999967,100.020002 72.46,99.62 C73.1200033,99.219998 73.8766624,99.02 74.73,99.02 C75.5033372,99.02 76.1766638,99.186665 76.75,99.52 C77.3233362,99.853335 77.7566652,100.326664 78.05,100.94 L78.05,99.86 C78.05,99.6199988 78.1199993,99.4266674 78.26,99.28 C78.4000007,99.1333326 78.5966654,99.06 78.85,99.06 C79.1033346,99.06 79.3033326,99.1333326 79.45,99.28 Z M77.25,106.43 C77.783336,105.809997 78.05,104.953339 78.05,103.86 C78.05,102.779995 77.7866693,101.930003 77.26,101.31 C76.7333307,100.689997 75.9966714,100.38 75.05,100.38 C74.1033286,100.38 73.3600027,100.689997 72.82,101.31 C72.2799973,101.930003 72.01,102.779995 72.01,103.86 C72.01,104.953339 72.2799973,105.809997 72.82,106.43 C73.3600027,107.050003 74.1033286,107.36 75.05,107.36 C75.983338,107.36 76.716664,107.050003 77.25,106.43 Z M91.07,102.88 L91.07,108.3 C91.07,108.553335 91.0000007,108.749999 90.86,108.89 C90.7199993,109.030001 90.5233346,109.1 90.27,109.1 C90.0166654,109.1 89.8166674,109.030001 89.67,108.89 C89.5233326,108.749999 89.45,108.553335 89.45,108.3 L89.45,102.98 C89.45,102.073329 89.2733351,101.413335 88.92,101 C88.5666649,100.586665 88.0033372,100.38 87.23,100.38 C86.3366622,100.38 85.623336,100.653331 85.09,101.2 C84.556664,101.746669 84.29,102.486662 84.29,103.42 L84.29,108.3 C84.29,108.553335 84.2200007,108.749999 84.08,108.89 C83.9399993,109.030001 83.7433346,109.1 83.49,109.1 C83.2366654,109.1 83.0366674,109.030001 82.89,108.89 C82.7433326,108.749999 82.67,108.553335 82.67,108.3 L82.67,99.86 C82.67,99.6199988 82.7433326,99.4266674 82.89,99.28 C83.0366674,99.1333326 83.2366654,99.06 83.49,99.06 C83.7300012,99.06 83.9199993,99.1333326 84.06,99.28 C84.2000007,99.4266674 84.27,99.6133322 84.27,99.84 L84.27,100.86 C84.5900016,100.259997 85.0366638,99.8033349 85.61,99.49 C86.1833362,99.1766651 86.836663,99.02 87.57,99.02 C89.903345,99.02 91.07,100.306654 91.07,102.88 Z M29.44,131.52 C28.7399965,131.106665 28.2000019,130.516671 27.82,129.75 C27.4399981,128.983329 27.25,128.093338 27.25,127.08 C27.25,126.066662 27.4399981,125.176671 27.82,124.41 C28.2000019,123.643329 28.7399965,123.053335 29.44,122.64 C30.1400035,122.226665 30.9499954,122.02 31.87,122.02 C32.7900046,122.02 33.6033298,122.226665 34.31,122.64 C35.0166702,123.053335 35.5599981,123.643329 35.94,124.41 C36.3200019,125.176671 36.51,126.066662 36.51,127.08 C36.51,128.093338 36.3200019,128.983329 35.94,129.75 C35.5599981,130.516671 35.0166702,131.106665 34.31,131.52 C33.6033298,131.933335 32.7900046,132.14 31.87,132.14 C30.9499954,132.14 30.1400035,131.933335 29.44,131.52 Z M34.08,129.85 C34.5933359,129.216664 34.85,128.293339 34.85,127.08 C34.85,125.893327 34.5900026,124.97667 34.07,124.33 C33.5499974,123.68333 32.8166714,123.36 31.87,123.36 C30.9233286,123.36 30.1900026,123.68333 29.67,124.33 C29.1499974,124.97667 28.89,125.893327 28.89,127.08 C28.89,128.280006 29.1466641,129.199997 29.66,129.84 C30.1733359,130.480003 30.9099952,130.8 31.87,130.8 C32.8300048,130.8 33.5666641,130.483337 34.08,129.85 Z M41.63,119.85 C41.2699982,120.243335 41.09,120.833329 41.09,121.62 L41.09,122.26 L43.31,122.26 C43.5366678,122.26 43.7099994,122.319999 43.83,122.44 C43.9500006,122.560001 44.01,122.719999 44.01,122.92 C44.01,123.120001 43.9500006,123.273333 43.83,123.38 C43.7099994,123.486667 43.5366678,123.54 43.31,123.54 L41.09,123.54 L41.09,131.3 C41.09,131.553335 41.0133341,131.749999 40.86,131.89 C40.7066659,132.030001 40.5166678,132.1 40.29,132.1 C40.0499988,132.1 39.8533341,132.030001 39.7,131.89 C39.5466659,131.749999 39.47,131.553335 39.47,131.3 L39.47,123.54 L38.13,123.54 C37.9033322,123.54 37.7266673,123.483334 37.6,123.37 C37.4733327,123.256666 37.41,123.106668 37.41,122.92 C37.41,122.719999 37.4733327,122.560001 37.6,122.44 C37.7266673,122.319999 37.9033322,122.26 38.13,122.26 L39.47,122.26 L39.47,121.9 C39.47,120.699994 39.769997,119.75667 40.37,119.07 C40.970003,118.38333 41.8299944,118 42.95,117.92 L43.47,117.88 C43.8166684,117.853333 44.0666659,117.886666 44.22,117.98 C44.3733341,118.073334 44.45,118.239999 44.45,118.48 C44.45,118.866669 44.216669,119.086666 43.75,119.14 L43.23,119.18 C42.5233298,119.233334 41.9900018,119.456665 41.63,119.85 Z M55.85,131.46 C55.85,131.686668 55.7666675,131.856666 55.6,131.97 C55.4333325,132.083334 55.183335,132.126667 54.85,132.1 L54.31,132.06 C53.243328,131.98 52.4566692,131.660003 51.95,131.1 C51.4433308,130.539997 51.19,129.693339 51.19,128.56 L51.19,123.54 L49.85,123.54 C49.6233322,123.54 49.4466673,123.483334 49.32,123.37 C49.1933327,123.256666 49.13,123.106668 49.13,122.92 C49.13,122.719999 49.1933327,122.560001 49.32,122.44 C49.4466673,122.319999 49.6233322,122.26 49.85,122.26 L51.19,122.26 L51.19,120 C51.19,119.746665 51.2633326,119.550001 51.41,119.41 C51.5566674,119.269999 51.7566654,119.2 52.01,119.2 C52.2500012,119.2 52.4433326,119.269999 52.59,119.41 C52.7366674,119.550001 52.81,119.746665 52.81,120 L52.81,122.26 L55.03,122.26 C55.2433344,122.26 55.4133327,122.319999 55.54,122.44 C55.6666673,122.560001 55.73,122.719999 55.73,122.92 C55.73,123.106668 55.6666673,123.256666 55.54,123.37 C55.4133327,123.483334 55.2433344,123.54 55.03,123.54 L52.81,123.54 L52.81,128.64 C52.81,129.373337 52.9599985,129.903332 53.26,130.23 C53.5600015,130.556668 54.009997,130.74 54.61,130.78 L55.15,130.82 C55.616669,130.86 55.85,131.073331 55.85,131.46 Z M64.97,122.99 C65.5566696,123.63667 65.85,124.599994 65.85,125.88 L65.85,131.3 C65.85,131.553335 65.7766674,131.749999 65.63,131.89 C65.4833326,132.030001 65.2900012,132.1 65.05,132.1 C64.7966654,132.1 64.5966674,132.030001 64.45,131.89 C64.3033326,131.749999 64.23,131.553335 64.23,131.3 L64.23,125.92 C64.23,125.053329 64.0533351,124.413335 63.7,124 C63.3466649,123.586665 62.7833372,123.38 62.01,123.38 C61.1166622,123.38 60.403336,123.653331 59.87,124.2 C59.336664,124.746669 59.07,125.486662 59.07,126.42 L59.07,131.3 C59.07,131.553335 59.0000007,131.749999 58.86,131.89 C58.7199993,132.030001 58.5233346,132.1 58.27,132.1 C58.0166654,132.1 57.8166674,132.030001 57.67,131.89 C57.5233326,131.749999 57.45,131.553335 57.45,131.3 L57.45,118.58 C57.45,118.353332 57.5266659,118.166667 57.68,118.02 C57.8333341,117.873333 58.0299988,117.8 58.27,117.8 C58.5233346,117.8 58.7199993,117.869999 58.86,118.01 C59.0000007,118.150001 59.07,118.339999 59.07,118.58 L59.07,123.82 C59.3900016,123.23333 59.8366638,122.786668 60.41,122.48 C60.9833362,122.173332 61.636663,122.02 62.37,122.02 C63.5166724,122.02 64.3833304,122.34333 64.97,122.99 Z M76.73,129.92 C76.8366672,130.040001 76.89,130.193332 76.89,130.38 C76.89,130.713335 76.656669,131.019999 76.19,131.3 C75.7099976,131.580001 75.203336,131.789999 74.67,131.93 C74.136664,132.070001 73.6166692,132.14 73.11,132.14 C71.6033258,132.14 70.4133377,131.693338 69.54,130.8 C68.6666623,129.906662 68.23,128.673341 68.23,127.1 C68.23,126.099995 68.4233314,125.21667 68.81,124.45 C69.1966686,123.683329 69.7399965,123.086669 70.44,122.66 C71.1400035,122.233331 71.9366622,122.02 72.83,122.02 C74.096673,122.02 75.1033296,122.433329 75.85,123.26 C76.5966704,124.086671 76.97,125.20666 76.97,126.62 C76.97,126.886668 76.9166672,127.079999 76.81,127.2 C76.7033328,127.320001 76.5300012,127.38 76.29,127.38 L69.85,127.38 C69.9700006,129.673345 71.0566564,130.82 73.11,130.82 C73.6300026,130.82 74.0766648,130.750001 74.45,130.61 C74.8233352,130.469999 75.2233312,130.280001 75.65,130.04 C75.9966684,129.839999 76.2299994,129.74 76.35,129.74 C76.4966674,129.74 76.6233328,129.799999 76.73,129.92 Z M70.8,124.08 C70.2866641,124.613336 69.9833338,125.366662 69.89,126.34 L75.55,126.34 C75.5233332,125.353328 75.276669,124.596669 74.81,124.07 C74.343331,123.543331 73.6900042,123.28 72.85,123.28 C71.9966624,123.28 71.3133359,123.546664 70.8,124.08 Z M84.98,131.78 C84.8266659,131.633333 84.75,131.440001 84.75,131.2 L84.75,118.7 C84.75,118.459999 84.8266659,118.266667 84.98,118.12 C85.1333341,117.973333 85.3366654,117.9 85.59,117.9 L89.49,117.9 C91.7433446,117.9 93.4866605,118.509994 94.72,119.73 C95.9533395,120.950006 96.57,122.686655 96.57,124.94 C96.57,127.193345 95.9500062,128.933327 94.71,130.16 C93.4699938,131.386673 91.7300112,132 89.49,132 L85.59,132 C85.3366654,132 85.1333341,131.926667 84.98,131.78 Z M89.39,130.6 C93.0433516,130.6 94.87,128.713352 94.87,124.94 C94.87,121.179981 93.0433516,119.3 89.39,119.3 L86.39,119.3 L86.39,130.6 L89.39,130.6 Z M106.93,125.86 L106.93,131.3 C106.93,131.540001 106.860001,131.733333 106.72,131.88 C106.579999,132.026667 106.390001,132.1 106.15,132.1 C105.909999,132.1 105.716667,132.026667 105.57,131.88 C105.423333,131.733333 105.35,131.540001 105.35,131.3 L105.35,130.34 C105.096665,130.913336 104.710003,131.356665 104.19,131.67 C103.669997,131.983335 103.070003,132.14 102.39,132.14 C101.76333,132.14 101.186669,132.013335 100.66,131.76 C100.133331,131.506665 99.7166682,131.153336 99.41,130.7 C99.1033318,130.246664 98.95,129.746669 98.95,129.2 C98.95,128.466663 99.1366648,127.896669 99.51,127.49 C99.8833352,127.083331 100.496662,126.790001 101.35,126.61 C102.203338,126.429999 103.389992,126.34 104.91,126.34 L105.35,126.34 L105.35,125.68 C105.35,124.879996 105.186668,124.293335 104.86,123.92 C104.533332,123.546665 104.003337,123.36 103.27,123.36 C102.363329,123.36 101.443338,123.606664 100.51,124.1 C100.149998,124.326668 99.8966674,124.44 99.75,124.44 C99.5899992,124.44 99.4566672,124.380001 99.35,124.26 C99.2433328,124.139999 99.19,123.986668 99.19,123.8 C99.19,123.613332 99.2466661,123.450001 99.36,123.31 C99.4733339,123.169999 99.6566654,123.026667 99.91,122.88 C100.376669,122.613332 100.906664,122.403334 101.5,122.25 C102.093336,122.096666 102.68333,122.02 103.27,122.02 C105.710012,122.02 106.93,123.299987 106.93,125.86 Z M104.58,130.05 C105.093336,129.509997 105.35,128.813338 105.35,127.96 L105.35,127.38 L104.99,127.38 C103.816661,127.38 102.923336,127.43 102.31,127.53 C101.696664,127.63 101.260001,127.796666 101,128.03 C100.739999,128.263334 100.61,128.606664 100.61,129.06 C100.61,129.580003 100.799998,130.009998 101.18,130.35 C101.560002,130.690002 102.036664,130.86 102.61,130.86 C103.410004,130.86 104.066664,130.590003 104.58,130.05 Z M117.61,122.08 C117.810001,122.08 117.989999,122.146666 118.15,122.28 C118.310001,122.413334 118.39,122.579999 118.39,122.78 C118.39,122.900001 118.363334,123.006666 118.31,123.1 L112.69,135.22 C112.623333,135.366667 112.526667,135.48 112.4,135.56 C112.273333,135.64 112.143334,135.68 112.01,135.68 C111.809999,135.68 111.633334,135.616667 111.48,135.49 C111.326666,135.363333 111.25,135.200001 111.25,135 C111.25,134.893333 111.276666,134.786667 111.33,134.68 L112.73,131.66 L108.77,123.1 C108.716666,123.006666 108.69,122.906667 108.69,122.8 C108.69,122.599999 108.779999,122.426667 108.96,122.28 C109.140001,122.133333 109.336666,122.06 109.55,122.06 C109.683334,122.06 109.813333,122.1 109.94,122.18 C110.066667,122.26 110.163333,122.373333 110.23,122.52 L113.57,130.02 L116.91,122.56 C117.056667,122.239998 117.289998,122.08 117.61,122.08 Z" id="Sign-of-the-Day" fill="#FFFFFF"></path>
            </g>
        </g>
    </g>
</svg>