<?xml version="1.0" encoding="UTF-8"?>
<svg width="152px" height="152px" viewBox="0 0 152 152" version="1.1" xmlns="http://www.w3.org/2000/svg" xmlns:xlink="http://www.w3.org/1999/xlink">
    <!-- Generator: Sketch 49.3 (51167) - http://www.bohemiancoding.com/sketch -->
    <title>family</title>
    <desc>Created with Sketch.</desc>
    <defs>
        <linearGradient x1="74.4956621%" y1="31.8847943%" x2="33.3378919%" y2="100%" id="linearGradient-1">
            <stop stop-color="#F9B642" offset="0%"></stop>
            <stop stop-color="#F19034" offset="100%"></stop>
        </linearGradient>
        <rect id="path-2" x="0" y="0" width="140" height="140" rx="10"></rect>
        <filter x="-5.4%" y="-5.4%" width="115.0%" height="115.0%" filterUnits="objectBoundingBox" id="filter-3">
            <feOffset dx="3" dy="3" in="SourceAlpha" result="shadowOffsetOuter1"></feOffset>
            <feGaussianBlur stdDeviation="3" in="shadowOffsetOuter1" result="shadowBlurOuter1"></feGaussianBlur>
            <feColorMatrix values="0 0 0 0 0.945098039   0 0 0 0 0.564705882   0 0 0 0 0.203921569  0 0 0 0.25 0" type="matrix" in="shadowBlurOuter1"></feColorMatrix>
        </filter>
    </defs>
    <g id="iOS-App" stroke="none" stroke-width="1" fill="none" fill-rule="evenodd">
        <g id="Parents-Dashboard-Copy" transform="translate(-177.000000, -478.000000)">
            <g id="family" transform="translate(180.000000, 481.000000)">
                <g id="Rectangle-4-Copy-4">
                    <use fill="black" fill-opacity="1" filter="url(#filter-3)" xlink:href="#path-2"></use>
                    <use fill="url(#linearGradient-1)" fill-rule="evenodd" xlink:href="#path-2"></use>
                </g>
                <path d="M10.568,114.896 C10.4506661,114.773333 10.392,114.610668 10.392,114.408 L10.392,104.36 C10.392,104.167999 10.4533327,104.013334 10.576,103.896 C10.6986673,103.778666 10.8613323,103.72 11.064,103.72 L16.888,103.72 C17.080001,103.72 17.2293328,103.768 17.336,103.864 C17.4426672,103.96 17.496,104.098666 17.496,104.28 C17.496,104.450668 17.4426672,104.584 17.336,104.68 C17.2293328,104.776 17.080001,104.824 16.888,104.824 L11.688,104.824 L11.688,108.712 L16.568,108.712 C16.760001,108.712 16.9093328,108.76 17.016,108.856 C17.1226672,108.952 17.176,109.090666 17.176,109.272 C17.176,109.442668 17.1226672,109.576 17.016,109.672 C16.9093328,109.768 16.760001,109.816 16.568,109.816 L11.688,109.816 L11.688,114.408 C11.688,114.610668 11.6320006,114.773333 11.52,114.896 C11.4079994,115.018667 11.2506677,115.08 11.048,115.08 C10.8453323,115.08 10.6853339,115.018667 10.568,114.896 Z M25.224,110.088 L25.224,114.44 C25.224,114.632001 25.1680006,114.786666 25.056,114.904 C24.9439994,115.021334 24.792001,115.08 24.6,115.08 C24.407999,115.08 24.2533339,115.021334 24.136,114.904 C24.0186661,114.786666 23.96,114.632001 23.96,114.44 L23.96,113.672 C23.7573323,114.130669 23.4480021,114.485332 23.032,114.736 C22.6159979,114.986668 22.1360027,115.112 21.592,115.112 C21.0906642,115.112 20.6293354,115.010668 20.208,114.808 C19.7866646,114.605332 19.4533346,114.322668 19.208,113.96 C18.9626654,113.597332 18.84,113.197336 18.84,112.76 C18.84,112.17333 18.9893318,111.717335 19.288,111.392 C19.5866682,111.066665 20.0773299,110.832001 20.76,110.688 C21.4426701,110.543999 22.3919939,110.472 23.608,110.472 L23.96,110.472 L23.96,109.944 C23.96,109.303997 23.8293346,108.834668 23.568,108.536 C23.3066654,108.237332 22.8826696,108.088 22.296,108.088 C21.570663,108.088 20.8346704,108.285331 20.088,108.68 C19.7999986,108.861334 19.5973339,108.952 19.48,108.952 C19.3519994,108.952 19.2453338,108.904 19.16,108.808 C19.0746662,108.712 19.032,108.589334 19.032,108.44 C19.032,108.290666 19.0773329,108.160001 19.168,108.048 C19.2586671,107.935999 19.4053323,107.821334 19.608,107.704 C19.9813352,107.490666 20.405331,107.322667 20.88,107.2 C21.354669,107.077333 21.8266643,107.016 22.296,107.016 C24.2480098,107.016 25.224,108.03999 25.224,110.088 Z M23.344,113.44 C23.7546687,113.007998 23.96,112.45067 23.96,111.768 L23.96,111.304 L23.672,111.304 C22.7333286,111.304 22.0186691,111.344 21.528,111.424 C21.0373309,111.504 20.688001,111.637332 20.48,111.824 C20.271999,112.010668 20.168,112.285332 20.168,112.648 C20.168,113.064002 20.3199985,113.407999 20.624,113.68 C20.9280015,113.952001 21.309331,114.088 21.768,114.088 C22.4080032,114.088 22.9333313,113.872002 23.344,113.44 Z M38.856,110.104 L38.856,114.44 C38.856,114.642668 38.7973339,114.799999 38.68,114.912 C38.5626661,115.024001 38.408001,115.08 38.216,115.08 C38.023999,115.08 37.8666673,115.024001 37.744,114.912 C37.6213327,114.799999 37.56,114.642668 37.56,114.44 L37.56,110.136 C37.56,109.42133 37.4320013,108.904002 37.176,108.584 C36.9199987,108.263998 36.5200027,108.104 35.976,108.104 C35.3253301,108.104 34.8133352,108.322664 34.44,108.76 C34.0666648,109.197336 33.88,109.78933 33.88,110.536 L33.88,114.44 C33.88,114.642668 33.8186673,114.799999 33.696,114.912 C33.5733327,115.024001 33.416001,115.08 33.224,115.08 C33.031999,115.08 32.8773339,115.024001 32.76,114.912 C32.6426661,114.799999 32.584,114.642668 32.584,114.44 L32.584,110.136 C32.584,109.42133 32.4560013,108.904002 32.2,108.584 C31.9439987,108.263998 31.5386694,108.104 30.984,108.104 C30.3439968,108.104 29.8346686,108.322664 29.456,108.76 C29.0773314,109.197336 28.888,109.78933 28.888,110.536 L28.888,114.44 C28.888,114.642668 28.8293339,114.799999 28.712,114.912 C28.5946661,115.024001 28.440001,115.08 28.248,115.08 C28.055999,115.08 27.8986673,115.024001 27.776,114.912 C27.6533327,114.799999 27.592,114.642668 27.592,114.44 L27.592,107.688 C27.592,107.495999 27.6533327,107.341334 27.776,107.224 C27.8986673,107.106666 28.055999,107.048 28.248,107.048 C28.4293342,107.048 28.5786661,107.103999 28.696,107.216 C28.8133339,107.328001 28.872,107.479999 28.872,107.672 L28.872,108.44 C29.1066678,107.981331 29.4319979,107.629335 29.848,107.384 C30.2640021,107.138665 30.7439973,107.016 31.288,107.016 C32.5040061,107.016 33.2986648,107.527995 33.672,108.552 C33.8960011,108.082664 34.237331,107.709335 34.696,107.432 C35.154669,107.154665 35.6773304,107.016 36.264,107.016 C37.9920086,107.016 38.856,108.045323 38.856,110.104 Z M41.408,114.912 C41.2853327,114.799999 41.224,114.642668 41.224,114.44 L41.224,107.688 C41.224,107.485332 41.2853327,107.328001 41.408,107.216 C41.5306673,107.103999 41.687999,107.048 41.88,107.048 C42.072001,107.048 42.2266661,107.103999 42.344,107.216 C42.4613339,107.328001 42.52,107.485332 42.52,107.688 L42.52,114.44 C42.52,114.653334 42.4613339,114.813333 42.344,114.92 C42.2266661,115.026667 42.072001,115.08 41.88,115.08 C41.687999,115.08 41.5306673,115.024001 41.408,114.912 Z M41.256,105.144 C41.0959992,104.994666 41.016,104.797335 41.016,104.552 C41.016,104.317332 41.0959992,104.125334 41.256,103.976 C41.4160008,103.826666 41.6239987,103.752 41.88,103.752 C42.1360013,103.752 42.3439992,103.826666 42.504,103.976 C42.6640008,104.125334 42.744,104.317332 42.744,104.552 C42.744,104.797335 42.6640008,104.994666 42.504,105.144 C42.3439992,105.293334 42.1360013,105.368 41.88,105.368 C41.6239987,105.368 41.4160008,105.293334 41.256,105.144 Z M45.12,114.912 C44.9973327,114.799999 44.936,114.642668 44.936,114.44 L44.936,104.28 C44.936,104.077332 44.9973327,103.920001 45.12,103.808 C45.2426673,103.695999 45.399999,103.64 45.592,103.64 C45.7733342,103.64 45.9253327,103.695999 46.048,103.808 C46.1706673,103.920001 46.232,104.077332 46.232,104.28 L46.232,114.44 C46.232,114.642668 46.1706673,114.799999 46.048,114.912 C45.9253327,115.024001 45.7733342,115.08 45.592,115.08 C45.399999,115.08 45.2426673,115.024001 45.12,114.912 Z M54.824,107.064 C54.9840008,107.064 55.1279994,107.117333 55.256,107.224 C55.3840006,107.330667 55.448,107.463999 55.448,107.624 C55.448,107.72 55.4266669,107.805333 55.384,107.88 L50.888,117.576 C50.8346664,117.693334 50.7573338,117.784 50.656,117.848 C50.5546662,117.912 50.4506672,117.944 50.344,117.944 C50.1839992,117.944 50.0426673,117.893334 49.92,117.792 C49.7973327,117.690666 49.736,117.560001 49.736,117.4 C49.736,117.314666 49.7573331,117.229334 49.8,117.144 L50.92,114.728 L47.752,107.88 C47.7093331,107.805333 47.688,107.725334 47.688,107.64 C47.688,107.479999 47.7599993,107.341334 47.904,107.224 C48.0480007,107.106666 48.2053325,107.048 48.376,107.048 C48.4826672,107.048 48.5866662,107.08 48.688,107.144 C48.7893338,107.208 48.8666664,107.298666 48.92,107.416 L51.592,113.416 L54.264,107.448 C54.3813339,107.191999 54.5679987,107.064 54.824,107.064 Z" id="Family" fill="#FFFFFF"></path>
                <path d="M15.24,127.28 C15.3200004,127.352 15.36,127.451999 15.36,127.58 C15.36,127.716001 15.3220004,127.82 15.246,127.892 C15.1699996,127.964 15.0560008,128 14.904,128 L10.932,128 C10.7799992,128 10.6660004,127.964 10.59,127.892 C10.5139996,127.82 10.476,127.716001 10.476,127.58 C10.476,127.451999 10.5159996,127.352 10.596,127.28 C10.6760004,127.208 10.7879993,127.172 10.932,127.172 L12.42,127.172 L12.42,120.74 L11.112,121.592 C11.0479997,121.632 10.9840003,121.652 10.92,121.652 C10.8079994,121.652 10.7100004,121.600001 10.626,121.496 C10.5419996,121.391999 10.5,121.280001 10.5,121.16 C10.5,120.991999 10.5639994,120.872 10.692,120.8 L12.516,119.612 C12.6520007,119.524 12.7919993,119.48 12.936,119.48 C13.0720007,119.48 13.1839996,119.524 13.272,119.612 C13.3600004,119.7 13.404,119.823999 13.404,119.984 L13.404,127.172 L14.904,127.172 C15.0480007,127.172 15.1599996,127.208 15.24,127.28 Z M21.534,123.032 C21.938002,123.256001 22.2499989,123.569998 22.47,123.974 C22.6900011,124.378002 22.8,124.843997 22.8,125.372 C22.8,125.900003 22.6800012,126.369998 22.44,126.782 C22.1999988,127.194002 21.8660021,127.513999 21.438,127.742 C21.0099979,127.970001 20.5160028,128.084 19.956,128.084 C19.4599975,128.084 18.9760024,127.996001 18.504,127.82 C18.0319976,127.643999 17.6320016,127.404002 17.304,127.1 C17.1759994,126.979999 17.112,126.844001 17.112,126.692 C17.112,126.571999 17.1439997,126.472 17.208,126.392 C17.2720003,126.312 17.3479996,126.272 17.436,126.272 C17.5480006,126.272 17.6599994,126.316 17.772,126.404 C18.1240018,126.692001 18.4759982,126.905999 18.828,127.046 C19.1800018,127.186001 19.5479981,127.256 19.932,127.256 C20.524003,127.256 20.9879983,127.088002 21.324,126.752 C21.6600017,126.415998 21.828,125.960003 21.828,125.384 C21.828,124.823997 21.6600017,124.372002 21.324,124.028 C20.9879983,123.683998 20.5360028,123.512 19.968,123.512 C19.2399964,123.512 18.6480023,123.791997 18.192,124.352 C18.0799994,124.472001 17.9440008,124.532 17.784,124.532 C17.6719994,124.532 17.5780004,124.498 17.502,124.43 C17.4259996,124.362 17.388,124.268001 17.388,124.148 L17.388,120.008 C17.388,119.871999 17.4299996,119.76 17.514,119.672 C17.5980004,119.584 17.7159992,119.54 17.868,119.54 L22.092,119.54 C22.2360007,119.54 22.3499996,119.576 22.434,119.648 C22.5180004,119.72 22.56,119.819999 22.56,119.948 C22.56,120.076001 22.5180004,120.176 22.434,120.248 C22.3499996,120.32 22.2360007,120.356 22.092,120.356 L18.36,120.356 L18.36,123.368 C18.5840011,123.151999 18.8459985,122.986001 19.146,122.87 C19.4460015,122.753999 19.7719982,122.696 20.124,122.696 C20.6600027,122.696 21.129998,122.807999 21.534,123.032 Z M28.314,127.952 C27.9819983,127.864 27.6880013,127.740001 27.432,127.58 C27.2879993,127.484 27.1860003,127.394 27.126,127.31 C27.0659997,127.226 27.036,127.124001 27.036,127.004 C27.036,126.899999 27.0659997,126.814 27.126,126.746 C27.1860003,126.678 27.2639995,126.644 27.36,126.644 C27.4560005,126.644 27.5959991,126.703999 27.78,126.824 C28.0200012,126.968001 28.2579988,127.082 28.494,127.166 C28.7300012,127.25 29.0239982,127.292 29.376,127.292 C29.8080022,127.292 30.1439988,127.216001 30.384,127.064 C30.6240012,126.911999 30.744,126.692001 30.744,126.404 C30.744,126.227999 30.7000004,126.086001 30.612,125.978 C30.5239996,125.869999 30.3720011,125.774 30.156,125.69 C29.9399989,125.606 29.6240021,125.52 29.208,125.432 C28.5039965,125.279999 28.0000015,125.076001 27.696,124.82 C27.3919985,124.563999 27.24,124.216002 27.24,123.776 C27.24,123.431998 27.335999,123.128001 27.528,122.864 C27.720001,122.599999 27.9859983,122.392001 28.326,122.24 C28.6660017,122.087999 29.0519978,122.012 29.484,122.012 C29.7960016,122.012 30.0979985,122.054 30.39,122.138 C30.6820015,122.222 30.9399989,122.339999 31.164,122.492 C31.4360014,122.684001 31.572,122.883999 31.572,123.092 C31.572,123.196001 31.5400003,123.284 31.476,123.356 C31.4119997,123.428 31.3360004,123.464 31.248,123.464 C31.1519995,123.464 31.008001,123.396001 30.816,123.26 C30.5919989,123.115999 30.380001,123.004 30.18,122.924 C29.979999,122.844 29.7320015,122.804 29.436,122.804 C29.0599981,122.804 28.7580011,122.887999 28.53,123.056 C28.3019989,123.224001 28.188,123.447999 28.188,123.728 C28.188,123.904001 28.2299996,124.045999 28.314,124.154 C28.3980004,124.262001 28.537999,124.358 28.734,124.442 C28.930001,124.526 29.2119982,124.608 29.58,124.688 C30.1240027,124.808001 30.5459985,124.939999 30.846,125.084 C31.1460015,125.228001 31.3599994,125.403999 31.488,125.612 C31.6160006,125.820001 31.68,126.083998 31.68,126.404 C31.68,126.908003 31.4680021,127.313998 31.044,127.622 C30.6199979,127.930002 30.0600035,128.084 29.364,128.084 C28.9959982,128.084 28.6460017,128.04 28.314,127.952 Z M33.294,127.934 C33.2019995,127.85 33.156,127.732001 33.156,127.58 L33.156,122.516 C33.156,122.363999 33.2019995,122.246 33.294,122.162 C33.3860005,122.078 33.5039993,122.036 33.648,122.036 C33.7920007,122.036 33.9079996,122.078 33.996,122.162 C34.0840004,122.246 34.128,122.363999 34.128,122.516 L34.128,127.58 C34.128,127.740001 34.0840004,127.86 33.996,127.94 C33.9079996,128.02 33.7920007,128.06 33.648,128.06 C33.5039993,128.06 33.3860005,128.018 33.294,127.934 Z M33.18,120.608 C33.0599994,120.495999 33,120.348001 33,120.164 C33,119.987999 33.0599994,119.844001 33.18,119.732 C33.3000006,119.619999 33.455999,119.564 33.648,119.564 C33.840001,119.564 33.9959994,119.619999 34.116,119.732 C34.2360006,119.844001 34.296,119.987999 34.296,120.164 C34.296,120.348001 34.2360006,120.495999 34.116,120.608 C33.9959994,120.720001 33.840001,120.776 33.648,120.776 C33.455999,120.776 33.3000006,120.720001 33.18,120.608 Z M41.04,122.168 C41.1280004,122.256 41.172,122.371999 41.172,122.516 L41.172,127.604 C41.172,128.476004 40.9480022,129.133998 40.5,129.578 C40.0519978,130.022002 39.3880044,130.244 38.508,130.244 C37.6519957,130.244 36.9400028,130.076002 36.372,129.74 C36.0839986,129.579999 35.94,129.396001 35.94,129.188 C35.94,129.075999 35.9699997,128.984 36.03,128.912 C36.0900003,128.84 36.1679995,128.804 36.264,128.804 C36.3440004,128.804 36.487999,128.859999 36.696,128.972 C36.9760014,129.116001 37.2519986,129.232 37.524,129.32 C37.7960014,129.408 38.1199981,129.452 38.496,129.452 C39.0640028,129.452 39.4919986,129.302001 39.78,129.002 C40.0680014,128.701999 40.212,128.264003 40.212,127.688 L40.212,126.656 C40.0439992,127.032002 39.7860017,127.319999 39.438,127.52 C39.0899983,127.720001 38.6800024,127.82 38.208,127.82 C37.6959974,127.82 37.242002,127.700001 36.846,127.46 C36.449998,127.219999 36.1420011,126.880002 35.922,126.44 C35.7019989,125.999998 35.592,125.492003 35.592,124.916 C35.592,124.339997 35.7019989,123.832002 35.922,123.392 C36.1420011,122.951998 36.449998,122.612001 36.846,122.372 C37.242002,122.131999 37.6959974,122.012 38.208,122.012 C38.6720023,122.012 39.0759983,122.111999 39.42,122.312 C39.7640017,122.512001 40.0239991,122.795998 40.2,123.164 L40.2,122.516 C40.2,122.371999 40.2419996,122.256 40.326,122.168 C40.4100004,122.08 40.5279992,122.036 40.68,122.036 C40.8320008,122.036 40.9519996,122.08 41.04,122.168 Z M39.72,126.458 C40.0400016,126.085998 40.2,125.572003 40.2,124.916 C40.2,124.267997 40.0420016,123.758002 39.726,123.386 C39.4099984,123.013998 38.9680028,122.828 38.4,122.828 C37.8319972,122.828 37.3860016,123.013998 37.062,123.386 C36.7379984,123.758002 36.576,124.267997 36.576,124.916 C36.576,125.572003 36.7379984,126.085998 37.062,126.458 C37.3860016,126.830002 37.8319972,127.016 38.4,127.016 C38.9600028,127.016 39.3999984,126.830002 39.72,126.458 Z M48.012,124.328 L48.012,127.58 C48.012,127.732001 47.9700004,127.85 47.886,127.934 C47.8019996,128.018 47.6840008,128.06 47.532,128.06 C47.3799992,128.06 47.2600004,128.018 47.172,127.934 C47.0839996,127.85 47.04,127.732001 47.04,127.58 L47.04,124.388 C47.04,123.843997 46.9340011,123.448001 46.722,123.2 C46.5099989,122.951999 46.1720023,122.828 45.708,122.828 C45.1719973,122.828 44.7440016,122.991998 44.424,123.32 C44.1039984,123.648002 43.944,124.091997 43.944,124.652 L43.944,127.58 C43.944,127.732001 43.9020004,127.85 43.818,127.934 C43.7339996,128.018 43.6160008,128.06 43.464,128.06 C43.3119992,128.06 43.1920004,128.018 43.104,127.934 C43.0159996,127.85 42.972,127.732001 42.972,127.58 L42.972,122.516 C42.972,122.371999 43.0159996,122.256 43.104,122.168 C43.1920004,122.08 43.3119992,122.036 43.464,122.036 C43.6080007,122.036 43.7219996,122.08 43.806,122.168 C43.8900004,122.256 43.932,122.367999 43.932,122.504 L43.932,123.116 C44.124001,122.755998 44.3919983,122.482001 44.736,122.294 C45.0800017,122.105999 45.4719978,122.012 45.912,122.012 C47.312007,122.012 48.012,122.783992 48.012,124.328 Z M50.706,127.952 C50.3739983,127.864 50.0800013,127.740001 49.824,127.58 C49.6799993,127.484 49.5780003,127.394 49.518,127.31 C49.4579997,127.226 49.428,127.124001 49.428,127.004 C49.428,126.899999 49.4579997,126.814 49.518,126.746 C49.5780003,126.678 49.6559995,126.644 49.752,126.644 C49.8480005,126.644 49.9879991,126.703999 50.172,126.824 C50.4120012,126.968001 50.6499988,127.082 50.886,127.166 C51.1220012,127.25 51.4159982,127.292 51.768,127.292 C52.2000022,127.292 52.5359988,127.216001 52.776,127.064 C53.0160012,126.911999 53.136,126.692001 53.136,126.404 C53.136,126.227999 53.0920004,126.086001 53.004,125.978 C52.9159996,125.869999 52.7640011,125.774 52.548,125.69 C52.3319989,125.606 52.0160021,125.52 51.6,125.432 C50.8959965,125.279999 50.3920015,125.076001 50.088,124.82 C49.7839985,124.563999 49.632,124.216002 49.632,123.776 C49.632,123.431998 49.727999,123.128001 49.92,122.864 C50.112001,122.599999 50.3779983,122.392001 50.718,122.24 C51.0580017,122.087999 51.4439978,122.012 51.876,122.012 C52.1880016,122.012 52.4899985,122.054 52.782,122.138 C53.0740015,122.222 53.3319989,122.339999 53.556,122.492 C53.8280014,122.684001 53.964,122.883999 53.964,123.092 C53.964,123.196001 53.9320003,123.284 53.868,123.356 C53.8039997,123.428 53.7280004,123.464 53.64,123.464 C53.5439995,123.464 53.400001,123.396001 53.208,123.26 C52.9839989,123.115999 52.772001,123.004 52.572,122.924 C52.371999,122.844 52.1240015,122.804 51.828,122.804 C51.4519981,122.804 51.1500011,122.887999 50.922,123.056 C50.6939989,123.224001 50.58,123.447999 50.58,123.728 C50.58,123.904001 50.6219996,124.045999 50.706,124.154 C50.7900004,124.262001 50.929999,124.358 51.126,124.442 C51.322001,124.526 51.6039982,124.608 51.972,124.688 C52.5160027,124.808001 52.9379985,124.939999 53.238,125.084 C53.5380015,125.228001 53.7519994,125.403999 53.88,125.612 C54.0080006,125.820001 54.072,126.083998 54.072,126.404 C54.072,126.908003 53.8600021,127.313998 53.436,127.622 C53.0119979,127.930002 52.4520035,128.084 51.756,128.084 C51.3879982,128.084 51.0380017,128.04 50.706,127.952 Z" id="15-signs" fill="#FFFFFF"></path>
                <g id="buy-button-copy" transform="translate(91.000000, 108.000000)">
                    <rect id="Rectangle-5" fill="#FFFFFF" x="0" y="0" width="44" height="16" rx="8"></rect>
                    <path d="M15.04,4.179 C15.1866674,4.179 15.3186661,4.22849951 15.436,4.3275 C15.5533339,4.4265005 15.612,4.54566597 15.612,4.685 C15.612,4.73633359 15.5936668,4.80599956 15.557,4.894 L12.455,11.692 C12.4036664,11.8093339 12.3230005,11.9009997 12.213,11.967 C12.1029995,12.0330003 11.9856673,12.066 11.861,12.066 C11.7363327,12.066 11.6171672,12.0330003 11.5035,11.967 C11.3898328,11.9009997 11.3073336,11.8093339 11.256,11.692 L8.165,4.894 C8.12833315,4.80599956 8.11,4.73633359 8.11,4.685 C8.11,4.5383326 8.1704994,4.41733381 8.2915,4.322 C8.4125006,4.22666619 8.5463326,4.179 8.693,4.179 C8.92033447,4.179 9.08166619,4.28166564 9.177,4.487 L11.872,10.526 L14.567,4.487 C14.6623338,4.28166564 14.8199989,4.179 15.04,4.179 Z M16.767,11.901 C16.6643328,11.7983328 16.613,11.6590009 16.613,11.483 L16.613,4.762 C16.613,4.59333249 16.6643328,4.45583387 16.767,4.3495 C16.8696672,4.24316614 17.0053325,4.19 17.174,4.19 C17.3500009,4.19 17.4893328,4.24133282 17.592,4.344 C17.6946672,4.44666718 17.746,4.58599912 17.746,4.762 L17.746,11.483 C17.746,11.6590009 17.6965005,11.7983328 17.5975,11.901 C17.4984995,12.0036672 17.3573343,12.055 17.174,12.055 C17.0053325,12.055 16.8696672,12.0036672 16.767,11.901 Z M19.6985,11.8515 C19.5994995,11.7524995 19.55,11.6186675 19.55,11.45 L19.55,4.795 C19.55,4.62633249 19.5994995,4.4925005 19.6985,4.3935 C19.7975005,4.29449951 19.9349991,4.245 20.111,4.245 L24.159,4.245 C24.3276675,4.245 24.4578329,4.28533293 24.5495,4.366 C24.6411671,4.44666707 24.687,4.5603326 24.687,4.707 C24.687,4.8536674 24.6411671,4.96549961 24.5495,5.0425 C24.4578329,5.11950039 24.3276675,5.158 24.159,5.158 L20.661,5.158 L20.661,7.6 L23.939,7.6 C24.1076675,7.6 24.2378329,7.64033293 24.3295,7.721 C24.4211671,7.80166707 24.467,7.9153326 24.467,8.062 C24.467,8.2086674 24.4211671,8.32233293 24.3295,8.403 C24.2378329,8.48366707 24.1076675,8.524 23.939,8.524 L20.661,8.524 L20.661,11.087 L24.159,11.087 C24.5110018,11.087 24.687,11.2373318 24.687,11.538 C24.687,11.6846674 24.6411671,11.7983329 24.5495,11.879 C24.4578329,11.9596671 24.3276675,12 24.159,12 L20.111,12 C19.9349991,12 19.7975005,11.9505005 19.6985,11.8515 Z M36.017,4.267 C36.1050004,4.20833304 36.2039994,4.179 36.314,4.179 C36.453334,4.179 36.5761661,4.22483288 36.6825,4.3165 C36.7888339,4.40816713 36.842,4.5273326 36.842,4.674 C36.842,4.75466707 36.8273335,4.82799967 36.798,4.894 L34.367,11.692 C34.3156664,11.8166673 34.2350005,11.9119997 34.125,11.978 C34.0149994,12.0440003 33.8940007,12.077 33.762,12.077 C33.6373327,12.077 33.5200005,12.0440003 33.41,11.978 C33.2999994,11.9119997 33.2230002,11.8166673 33.179,11.692 L31.177,6.016 L29.131,11.692 C29.0869998,11.8166673 29.0100005,11.9119997 28.9,11.978 C28.7899994,12.0440003 28.6726673,12.077 28.548,12.077 C28.4159993,12.077 28.2968339,12.0440003 28.1905,11.978 C28.0841661,11.9119997 28.0053336,11.8166673 27.954,11.692 L25.523,4.894 C25.4936665,4.82799967 25.479,4.75466707 25.479,4.674 C25.479,4.5273326 25.5339994,4.40816713 25.644,4.3165 C25.7540005,4.22483288 25.8859992,4.179 26.04,4.179 C26.1500005,4.179 26.2508329,4.20833304 26.3425,4.267 C26.4341671,4.32566696 26.5019998,4.41366608 26.546,4.531 L28.581,10.383 L30.649,4.586 C30.6930002,4.46133271 30.7644995,4.36600033 30.8635,4.3 C30.9625005,4.23399967 31.0706661,4.201 31.188,4.201 C31.3053339,4.201 31.4116662,4.23583299 31.507,4.3055 C31.6023338,4.37516702 31.6756664,4.47233271 31.727,4.597 L33.751,10.438 L35.819,4.531 C35.8630002,4.41366608 35.9289996,4.32566696 36.017,4.267 Z" id="VIEW" fill="#290E54"></path>
                </g>
            </g>
        </g>
    </g>
</svg>