<?xml version="1.0" encoding="UTF-8"?>
<svg width="152px" height="152px" viewBox="0 0 152 152" version="1.1" xmlns="http://www.w3.org/2000/svg" xmlns:xlink="http://www.w3.org/1999/xlink">
    <!-- Generator: Sketch 49.3 (51167) - http://www.bohemiancoding.com/sketch -->
    <title>notifications</title>
    <desc>Created with Sketch.</desc>
    <defs>
        <linearGradient x1="76.5808383%" y1="26.0583074%" x2="37.3044766%" y2="100%" id="linearGradient-1">
            <stop stop-color="#F564C2" offset="0%"></stop>
            <stop stop-color="#E14598" offset="100%"></stop>
        </linearGradient>
        <rect id="path-2" x="0" y="0" width="140" height="140" rx="10"></rect>
        <filter x="-5.4%" y="-5.4%" width="115.0%" height="115.0%" filterUnits="objectBoundingBox" id="filter-3">
            <feOffset dx="3" dy="3" in="SourceAlpha" result="shadowOffsetOuter1"></feOffset>
            <feGaussianBlur stdDeviation="3" in="shadowOffsetOuter1" result="shadowBlurOuter1"></feGaussianBlur>
            <feColorMatrix values="0 0 0 0 0.882352941   0 0 0 0 0.270588235   0 0 0 0 0.596078431  0 0 0 0.25 0" type="matrix" in="shadowBlurOuter1"></feColorMatrix>
        </filter>
    </defs>
    <g id="iOS-App" stroke="none" stroke-width="1" fill="none" fill-rule="evenodd">
        <g id="Settings" transform="translate(-28.000000, -432.000000)">
            <g id="notifications" transform="translate(31.000000, 435.000000)">
                <g id="Rectangle-4-Copy">
                    <use fill="black" fill-opacity="1" filter="url(#filter-3)" xlink:href="#path-2"></use>
                    <use fill="url(#linearGradient-1)" fill-rule="evenodd" xlink:href="#path-2"></use>
                </g>
                <path d="M35.272,110.824 C35.3786672,110.946667 35.432,111.109332 35.432,111.312 L35.432,121.408 C35.432,121.610668 35.3760006,121.773333 35.264,121.896 C35.1519994,122.018667 34.9946677,122.08 34.792,122.08 C34.5893323,122.08 34.4133341,121.989334 34.264,121.808 L27.624,112.928 L27.624,121.408 C27.624,121.610668 27.5680006,121.773333 27.456,121.896 C27.3439994,122.018667 27.192001,122.08 27,122.08 C26.807999,122.08 26.6586672,122.018667 26.552,121.896 C26.4453328,121.773333 26.392,121.610668 26.392,121.408 L26.392,111.312 C26.392,111.109332 26.4479994,110.946667 26.56,110.824 C26.6720006,110.701333 26.8293323,110.64 27.032,110.64 C27.2453344,110.64 27.4266659,110.730666 27.576,110.912 L34.2,119.792 L34.2,111.312 C34.2,111.109332 34.2559994,110.946667 34.368,110.824 C34.4800006,110.701333 34.631999,110.64 34.824,110.64 C35.016001,110.64 35.1653328,110.701333 35.272,110.824 Z M39.312,121.616 C38.7519972,121.285332 38.3200015,120.813336 38.016,120.2 C37.7119985,119.586664 37.56,118.874671 37.56,118.064 C37.56,117.253329 37.7119985,116.541336 38.016,115.928 C38.3200015,115.314664 38.7519972,114.842668 39.312,114.512 C39.8720028,114.181332 40.5199963,114.016 41.256,114.016 C41.9920037,114.016 42.6426638,114.181332 43.208,114.512 C43.7733362,114.842668 44.2079985,115.314664 44.512,115.928 C44.8160015,116.541336 44.968,117.253329 44.968,118.064 C44.968,118.874671 44.8160015,119.586664 44.512,120.2 C44.2079985,120.813336 43.7733362,121.285332 43.208,121.616 C42.6426638,121.946668 41.9920037,122.112 41.256,122.112 C40.5199963,122.112 39.8720028,121.946668 39.312,121.616 Z M43.024,120.28 C43.4346687,119.773331 43.64,119.034672 43.64,118.064 C43.64,117.114662 43.4320021,116.381336 43.016,115.864 C42.5999979,115.346664 42.0133371,115.088 41.256,115.088 C40.4986629,115.088 39.9120021,115.346664 39.496,115.864 C39.0799979,116.381336 38.872,117.114662 38.872,118.064 C38.872,119.024005 39.0773313,119.759997 39.488,120.272 C39.8986687,120.784003 40.4879962,121.04 41.256,121.04 C42.0240038,121.04 42.6133313,120.786669 43.024,120.28 Z M51.064,121.568 C51.064,121.749334 50.997334,121.885333 50.864,121.976 C50.730666,122.066667 50.530668,122.101333 50.264,122.08 L49.832,122.048 C48.9786624,121.984 48.3493354,121.728002 47.944,121.28 C47.5386646,120.831998 47.336,120.154671 47.336,119.248 L47.336,115.232 L46.264,115.232 C46.0826658,115.232 45.9413338,115.186667 45.84,115.096 C45.7386662,115.005333 45.688,114.885334 45.688,114.736 C45.688,114.575999 45.7386662,114.448 45.84,114.352 C45.9413338,114.256 46.0826658,114.208 46.264,114.208 L47.336,114.208 L47.336,112.4 C47.336,112.197332 47.3946661,112.040001 47.512,111.928 C47.6293339,111.815999 47.7893323,111.76 47.992,111.76 C48.184001,111.76 48.3386661,111.815999 48.456,111.928 C48.5733339,112.040001 48.632,112.197332 48.632,112.4 L48.632,114.208 L50.408,114.208 C50.5786675,114.208 50.7146662,114.256 50.816,114.352 C50.9173338,114.448 50.968,114.575999 50.968,114.736 C50.968,114.885334 50.9173338,115.005333 50.816,115.096 C50.7146662,115.186667 50.5786675,115.232 50.408,115.232 L48.632,115.232 L48.632,119.312 C48.632,119.89867 48.7519988,120.322665 48.992,120.584 C49.2320012,120.845335 49.5919976,120.992 50.072,121.024 L50.504,121.056 C50.8773352,121.088 51.064,121.258665 51.064,121.568 Z M52.528,121.912 C52.4053327,121.799999 52.344,121.642668 52.344,121.44 L52.344,114.688 C52.344,114.485332 52.4053327,114.328001 52.528,114.216 C52.6506673,114.103999 52.807999,114.048 53,114.048 C53.192001,114.048 53.3466661,114.103999 53.464,114.216 C53.5813339,114.328001 53.64,114.485332 53.64,114.688 L53.64,121.44 C53.64,121.653334 53.5813339,121.813333 53.464,121.92 C53.3466661,122.026667 53.192001,122.08 53,122.08 C52.807999,122.08 52.6506673,122.024001 52.528,121.912 Z M52.376,112.144 C52.2159992,111.994666 52.136,111.797335 52.136,111.552 C52.136,111.317332 52.2159992,111.125334 52.376,110.976 C52.5360008,110.826666 52.7439987,110.752 53,110.752 C53.2560013,110.752 53.4639992,110.826666 53.624,110.976 C53.7840008,111.125334 53.864,111.317332 53.864,111.552 C53.864,111.797335 53.7840008,111.994666 53.624,112.144 C53.4639992,112.293334 53.2560013,112.368 53,112.368 C52.7439987,112.368 52.5360008,112.293334 52.376,112.144 Z M62.44,114.352 C62.5360005,114.448 62.584,114.575999 62.584,114.736 L62.584,121.44 C62.584,121.642668 62.5226673,121.799999 62.4,121.912 C62.2773327,122.024001 62.1253342,122.08 61.944,122.08 C61.751999,122.08 61.5946673,122.024001 61.472,121.912 C61.3493327,121.799999 61.288,121.642668 61.288,121.44 L61.288,115.232 L57.784,115.232 L57.784,121.44 C57.784,121.642668 57.7226673,121.799999 57.6,121.912 C57.4773327,122.024001 57.3253342,122.08 57.144,122.08 C56.951999,122.08 56.7946673,122.024001 56.672,121.912 C56.5493327,121.799999 56.488,121.642668 56.488,121.44 L56.488,115.232 L55.416,115.232 C55.2346658,115.232 55.0933338,115.186667 54.992,115.096 C54.8906662,115.005333 54.84,114.885334 54.84,114.736 C54.84,114.575999 54.8906662,114.448 54.992,114.352 C55.0933338,114.256 55.2346658,114.208 55.416,114.208 L56.488,114.208 L56.488,113.936 C56.488,112.975995 56.7279976,112.221336 57.208,111.672 C57.6880024,111.122664 58.3759955,110.810667 59.272,110.736 L59.656,110.704 C60.1680026,110.661333 60.424,110.821332 60.424,111.184 C60.424,111.493335 60.2426685,111.669333 59.88,111.712 L59.496,111.744 C58.9306638,111.786667 58.5040014,111.965332 58.216,112.28 C57.9279986,112.594668 57.784,113.066664 57.784,113.696 L57.784,114.208 L62.024,114.208 C62.2053342,114.208 62.3439995,114.256 62.44,114.352 Z M62.56,110.976 C62.7253342,111.125334 62.808,111.317332 62.808,111.552 C62.808,111.797335 62.7280008,111.994666 62.568,112.144 C62.4079992,112.293334 62.2000013,112.368 61.944,112.368 C61.6879987,112.368 61.4800008,112.293334 61.32,112.144 C61.1599992,111.994666 61.08,111.797335 61.08,111.552 C61.08,111.317332 61.1599992,111.125334 61.32,110.976 C61.4800008,110.826666 61.6879987,110.752 61.944,110.752 C62.1893346,110.752 62.3946658,110.826666 62.56,110.976 Z M66.288,121.616 C65.7279972,121.285332 65.2960015,120.816003 64.992,120.208 C64.6879985,119.599997 64.536,118.896004 64.536,118.096 C64.536,117.295996 64.6933318,116.58667 65.008,115.968 C65.3226682,115.34933 65.7626638,114.869335 66.328,114.528 C66.8933362,114.186665 67.5439963,114.016 68.28,114.016 C68.6853354,114.016 69.087998,114.071999 69.488,114.184 C69.888002,114.296001 70.2373318,114.458666 70.536,114.672 C70.728001,114.800001 70.8639996,114.925333 70.944,115.048 C71.0240004,115.170667 71.064,115.306666 71.064,115.456 C71.064,115.605334 71.0240004,115.728 70.944,115.824 C70.8639996,115.92 70.7600006,115.968 70.632,115.968 C70.557333,115.968 70.4773338,115.946667 70.392,115.904 C70.3066662,115.861333 70.234667,115.818667 70.176,115.776 C70.117333,115.733333 70.0773334,115.706667 70.056,115.696 C69.7786653,115.514666 69.5146679,115.370667 69.264,115.264 C69.0133321,115.157333 68.7066685,115.104 68.344,115.104 C67.5653294,115.104 66.9600022,115.367997 66.528,115.896 C66.0959978,116.424003 65.88,117.157329 65.88,118.096 C65.88,119.034671 66.0959978,119.759997 66.528,120.272 C66.9600022,120.784003 67.5653294,121.04 68.344,121.04 C68.7066685,121.04 69.0186654,120.986667 69.28,120.88 C69.5413346,120.773333 69.805332,120.629334 70.072,120.448 C70.1893339,120.373333 70.3013328,120.309334 70.408,120.256 C70.5146672,120.202666 70.605333,120.176 70.68,120.176 C70.7973339,120.176 70.8959996,120.224 70.976,120.32 C71.0560004,120.416 71.096,120.538666 71.096,120.688 C71.096,120.826667 71.058667,120.951999 70.984,121.064 C70.909333,121.176001 70.7706677,121.301333 70.568,121.44 C70.2693318,121.642668 69.9093354,121.805333 69.488,121.928 C69.0666646,122.050667 68.6426688,122.112 68.216,122.112 C67.490663,122.112 66.8480028,121.946668 66.288,121.616 Z M78.776,117.088 L78.776,121.44 C78.776,121.632001 78.7200006,121.786666 78.608,121.904 C78.4959994,122.021334 78.344001,122.08 78.152,122.08 C77.959999,122.08 77.8053339,122.021334 77.688,121.904 C77.5706661,121.786666 77.512,121.632001 77.512,121.44 L77.512,120.672 C77.3093323,121.130669 77.0000021,121.485332 76.584,121.736 C76.1679979,121.986668 75.6880027,122.112 75.144,122.112 C74.6426642,122.112 74.1813354,122.010668 73.76,121.808 C73.3386646,121.605332 73.0053346,121.322668 72.76,120.96 C72.5146654,120.597332 72.392,120.197336 72.392,119.76 C72.392,119.17333 72.5413318,118.717335 72.84,118.392 C73.1386682,118.066665 73.6293299,117.832001 74.312,117.688 C74.9946701,117.543999 75.9439939,117.472 77.16,117.472 L77.512,117.472 L77.512,116.944 C77.512,116.303997 77.3813346,115.834668 77.12,115.536 C76.8586654,115.237332 76.4346696,115.088 75.848,115.088 C75.122663,115.088 74.3866704,115.285331 73.64,115.68 C73.3519986,115.861334 73.1493339,115.952 73.032,115.952 C72.9039994,115.952 72.7973338,115.904 72.712,115.808 C72.6266662,115.712 72.584,115.589334 72.584,115.44 C72.584,115.290666 72.6293329,115.160001 72.72,115.048 C72.8106671,114.935999 72.9573323,114.821334 73.16,114.704 C73.5333352,114.490666 73.957331,114.322667 74.432,114.2 C74.906669,114.077333 75.3786643,114.016 75.848,114.016 C77.8000098,114.016 78.776,115.03999 78.776,117.088 Z M76.896,120.44 C77.3066687,120.007998 77.512,119.45067 77.512,118.768 L77.512,118.304 L77.224,118.304 C76.2853286,118.304 75.5706691,118.344 75.08,118.424 C74.5893309,118.504 74.240001,118.637332 74.032,118.824 C73.823999,119.010668 73.72,119.285332 73.72,119.648 C73.72,120.064002 73.8719985,120.407999 74.176,120.68 C74.4800015,120.952001 74.861331,121.088 75.32,121.088 C75.9600032,121.088 76.4853313,120.872002 76.896,120.44 Z M85.304,121.568 C85.304,121.749334 85.237334,121.885333 85.104,121.976 C84.970666,122.066667 84.770668,122.101333 84.504,122.08 L84.072,122.048 C83.2186624,121.984 82.5893354,121.728002 82.184,121.28 C81.7786646,120.831998 81.576,120.154671 81.576,119.248 L81.576,115.232 L80.504,115.232 C80.3226658,115.232 80.1813338,115.186667 80.08,115.096 C79.9786662,115.005333 79.928,114.885334 79.928,114.736 C79.928,114.575999 79.9786662,114.448 80.08,114.352 C80.1813338,114.256 80.3226658,114.208 80.504,114.208 L81.576,114.208 L81.576,112.4 C81.576,112.197332 81.6346661,112.040001 81.752,111.928 C81.8693339,111.815999 82.0293323,111.76 82.232,111.76 C82.424001,111.76 82.5786661,111.815999 82.696,111.928 C82.8133339,112.040001 82.872,112.197332 82.872,112.4 L82.872,114.208 L84.648,114.208 C84.8186675,114.208 84.9546662,114.256 85.056,114.352 C85.1573338,114.448 85.208,114.575999 85.208,114.736 C85.208,114.885334 85.1573338,115.005333 85.056,115.096 C84.9546662,115.186667 84.8186675,115.232 84.648,115.232 L82.872,115.232 L82.872,119.312 C82.872,119.89867 82.9919988,120.322665 83.232,120.584 C83.4720012,120.845335 83.8319976,120.992 84.312,121.024 L84.744,121.056 C85.1173352,121.088 85.304,121.258665 85.304,121.568 Z M86.768,121.912 C86.6453327,121.799999 86.584,121.642668 86.584,121.44 L86.584,114.688 C86.584,114.485332 86.6453327,114.328001 86.768,114.216 C86.8906673,114.103999 87.047999,114.048 87.24,114.048 C87.432001,114.048 87.5866661,114.103999 87.704,114.216 C87.8213339,114.328001 87.88,114.485332 87.88,114.688 L87.88,121.44 C87.88,121.653334 87.8213339,121.813333 87.704,121.92 C87.5866661,122.026667 87.432001,122.08 87.24,122.08 C87.047999,122.08 86.8906673,122.024001 86.768,121.912 Z M86.616,112.144 C86.4559992,111.994666 86.376,111.797335 86.376,111.552 C86.376,111.317332 86.4559992,111.125334 86.616,110.976 C86.7760008,110.826666 86.9839987,110.752 87.24,110.752 C87.4960013,110.752 87.7039992,110.826666 87.864,110.976 C88.0240008,111.125334 88.104,111.317332 88.104,111.552 C88.104,111.797335 88.0240008,111.994666 87.864,112.144 C87.7039992,112.293334 87.4960013,112.368 87.24,112.368 C86.9839987,112.368 86.7760008,112.293334 86.616,112.144 Z M91.584,121.616 C91.0239972,121.285332 90.5920015,120.813336 90.288,120.2 C89.9839985,119.586664 89.832,118.874671 89.832,118.064 C89.832,117.253329 89.9839985,116.541336 90.288,115.928 C90.5920015,115.314664 91.0239972,114.842668 91.584,114.512 C92.1440028,114.181332 92.7919963,114.016 93.528,114.016 C94.2640037,114.016 94.9146638,114.181332 95.48,114.512 C96.0453362,114.842668 96.4799985,115.314664 96.784,115.928 C97.0880015,116.541336 97.24,117.253329 97.24,118.064 C97.24,118.874671 97.0880015,119.586664 96.784,120.2 C96.4799985,120.813336 96.0453362,121.285332 95.48,121.616 C94.9146638,121.946668 94.2640037,122.112 93.528,122.112 C92.7919963,122.112 92.1440028,121.946668 91.584,121.616 Z M95.296,120.28 C95.7066687,119.773331 95.912,119.034672 95.912,118.064 C95.912,117.114662 95.7040021,116.381336 95.288,115.864 C94.8719979,115.346664 94.2853371,115.088 93.528,115.088 C92.7706629,115.088 92.1840021,115.346664 91.768,115.864 C91.3519979,116.381336 91.144,117.114662 91.144,118.064 C91.144,119.024005 91.3493313,119.759997 91.76,120.272 C92.1706687,120.784003 92.7599962,121.04 93.528,121.04 C94.2960038,121.04 94.8853313,120.786669 95.296,120.28 Z M105.896,117.104 L105.896,121.44 C105.896,121.642668 105.840001,121.799999 105.728,121.912 C105.615999,122.024001 105.458668,122.08 105.256,122.08 C105.053332,122.08 104.893334,122.024001 104.776,121.912 C104.658666,121.799999 104.6,121.642668 104.6,121.44 L104.6,117.184 C104.6,116.458663 104.458668,115.930668 104.176,115.6 C103.893332,115.269332 103.44267,115.104 102.824,115.104 C102.10933,115.104 101.538669,115.322664 101.112,115.76 C100.685331,116.197336 100.472,116.78933 100.472,117.536 L100.472,121.44 C100.472,121.642668 100.416001,121.799999 100.304,121.912 C100.191999,122.024001 100.034668,122.08 99.832,122.08 C99.6293323,122.08 99.4693339,122.024001 99.352,121.912 C99.2346661,121.799999 99.176,121.642668 99.176,121.44 L99.176,114.688 C99.176,114.495999 99.2346661,114.341334 99.352,114.224 C99.4693339,114.106666 99.6293323,114.048 99.832,114.048 C100.024001,114.048 100.175999,114.106666 100.288,114.224 C100.400001,114.341334 100.456,114.490666 100.456,114.672 L100.456,115.488 C100.712001,115.007998 101.069331,114.642668 101.528,114.392 C101.986669,114.141332 102.50933,114.016 103.096,114.016 C104.962676,114.016 105.896,115.045323 105.896,117.104 Z M109.488,121.936 C109.045331,121.818666 108.653335,121.653334 108.312,121.44 C108.119999,121.311999 107.984,121.192001 107.904,121.08 C107.824,120.967999 107.784,120.832001 107.784,120.672 C107.784,120.533333 107.824,120.418667 107.904,120.328 C107.984,120.237333 108.087999,120.192 108.216,120.192 C108.344001,120.192 108.530665,120.271999 108.776,120.432 C109.096002,120.624001 109.413332,120.775999 109.728,120.888 C110.042668,121.000001 110.434664,121.056 110.904,121.056 C111.480003,121.056 111.927998,120.954668 112.248,120.752 C112.568002,120.549332 112.728,120.256002 112.728,119.872 C112.728,119.637332 112.669334,119.448001 112.552,119.304 C112.434666,119.159999 112.232001,119.032001 111.944,118.92 C111.655999,118.807999 111.234669,118.693334 110.68,118.576 C109.741329,118.373332 109.069335,118.101335 108.664,117.76 C108.258665,117.418665 108.056,116.95467 108.056,116.368 C108.056,115.909331 108.183999,115.504002 108.44,115.152 C108.696001,114.799998 109.050664,114.522668 109.504,114.32 C109.957336,114.117332 110.471997,114.016 111.048,114.016 C111.464002,114.016 111.866665,114.071999 112.256,114.184 C112.645335,114.296001 112.989332,114.453332 113.288,114.656 C113.650668,114.912001 113.832,115.178665 113.832,115.456 C113.832,115.594667 113.789334,115.712 113.704,115.808 C113.618666,115.904 113.517334,115.952 113.4,115.952 C113.271999,115.952 113.080001,115.861334 112.824,115.68 C112.525332,115.487999 112.242668,115.338667 111.976,115.232 C111.709332,115.125333 111.378669,115.072 110.984,115.072 C110.482664,115.072 110.080002,115.183999 109.776,115.408 C109.471998,115.632001 109.32,115.930665 109.32,116.304 C109.32,116.538668 109.375999,116.727999 109.488,116.872 C109.600001,117.016001 109.786665,117.143999 110.048,117.256 C110.309335,117.368001 110.685331,117.477333 111.176,117.584 C111.901337,117.744001 112.463998,117.919999 112.864,118.112 C113.264002,118.304001 113.549332,118.538665 113.72,118.816 C113.890668,119.093335 113.976,119.445331 113.976,119.872 C113.976,120.544003 113.693336,121.085331 113.128,121.496 C112.562664,121.906669 111.816005,122.112 110.888,122.112 C110.397331,122.112 109.930669,122.053334 109.488,121.936 Z" id="Notifications" fill="#FFFFFF"></path>
            </g>
        </g>
    </g>
</svg>