<?xml version="1.0" encoding="UTF-8"?>
<svg width="292px" height="72px" viewBox="0 0 292 72" version="1.1" xmlns="http://www.w3.org/2000/svg" xmlns:xlink="http://www.w3.org/1999/xlink">
    <!-- Generator: Sketch 49.3 (51167) - http://www.bohemiancoding.com/sketch -->
    <title>sign up big</title>
    <desc>Created with Sketch.</desc>
    <defs>
        <rect id="path-1" x="0" y="0" width="280" height="60" rx="30"></rect>
        <filter x="-3.6%" y="-13.3%" width="107.1%" height="133.3%" filterUnits="objectBoundingBox" id="filter-2">
            <feOffset dx="0" dy="2" in="SourceAlpha" result="shadowOffsetOuter1"></feOffset>
            <feGaussianBlur stdDeviation="3" in="shadowOffsetOuter1" result="shadowBlurOuter1"></feGaussianBlur>
            <feComposite in="shadowBlurOuter1" in2="SourceAlpha" operator="out" result="shadowBlurOuter1"></feComposite>
            <feColorMatrix values="0 0 0 0 0.882352941   0 0 0 0 0.270588235   0 0 0 0 0.596078431  0 0 0 0.4 0" type="matrix" in="shadowBlurOuter1"></feColorMatrix>
        </filter>
    </defs>
    <g id="iOS-App" stroke="none" stroke-width="1" fill="none" fill-rule="evenodd">
        <g id="SignUp-or-Log-in" transform="translate(-42.000000, -357.000000)">
            <g id="sign-up-big" transform="translate(48.000000, 361.000000)">
                <g id="Rectangle">
                    <use fill="black" fill-opacity="1" filter="url(#filter-2)" xlink:href="#path-1"></use>
                    <use fill="#E14598" fill-rule="evenodd" xlink:href="#path-1"></use>
                    <rect stroke="#E14598" stroke-width="2" x="1" y="1" width="278" height="58" rx="29"></rect>
                </g>
                <path d="M102.044,36.652 C100.947995,36.2919982 100.072003,35.808003 99.416,35.2 C99.1759988,34.9759989 99.056,34.6960017 99.056,34.36 C99.056,34.1359989 99.1199994,33.9400008 99.248,33.772 C99.3760006,33.6039992 99.5279991,33.52 99.704,33.52 C99.912001,33.52 100.135999,33.6079991 100.376,33.784 C101.864007,34.9360058 103.55999,35.512 105.464,35.512 C106.840007,35.512 107.895996,35.2480026 108.632,34.72 C109.368004,34.1919974 109.736,33.4400049 109.736,32.464 C109.736,31.9039972 109.560002,31.4520017 109.208,31.108 C108.855998,30.7639983 108.392003,30.488001 107.816,30.28 C107.239997,30.071999 106.464005,29.8560011 105.488,29.632 C104.175993,29.3279985 103.100004,29.0080017 102.26,28.672 C101.419996,28.3359983 100.740003,27.8560031 100.22,27.232 C99.6999974,26.6079969 99.44,25.792005 99.44,24.784 C99.44,23.8239952 99.6999974,22.9720037 100.22,22.228 C100.740003,21.4839963 101.467995,20.908002 102.404,20.5 C103.340005,20.091998 104.407994,19.888 105.608,19.888 C106.728006,19.888 107.771995,20.0599983 108.74,20.404 C109.708005,20.7480017 110.519997,21.2399968 111.176,21.88 C111.432001,22.1360013 111.56,22.4159985 111.56,22.72 C111.56,22.9440011 111.496001,23.1399992 111.368,23.308 C111.239999,23.4760008 111.088001,23.56 110.912,23.56 C110.735999,23.56 110.504001,23.4720009 110.216,23.296 C109.431996,22.6559968 108.704003,22.2080013 108.032,21.952 C107.359997,21.6959987 106.552005,21.568 105.608,21.568 C104.279993,21.568 103.248004,21.8439972 102.512,22.396 C101.775996,22.9480028 101.408,23.719995 101.408,24.712 C101.408,25.5600042 101.731997,26.1959979 102.38,26.62 C103.028003,27.0440021 104.023993,27.4159984 105.368,27.736 C106.824007,28.0880018 107.967996,28.4119985 108.8,28.708 C109.632004,29.0040015 110.323997,29.447997 110.876,30.04 C111.428003,30.632003 111.704,31.423995 111.704,32.416 C111.704,33.3600047 111.444003,34.1919964 110.924,34.912 C110.403997,35.6320036 109.672005,36.191998 108.728,36.592 C107.783995,36.992002 106.704006,37.192 105.488,37.192 C104.287994,37.192 103.140005,37.0120018 102.044,36.652 Z M114.884,36.868 C114.699999,36.6999992 114.608,36.4640015 114.608,36.16 L114.608,26.032 C114.608,25.7279985 114.699999,25.4920008 114.884,25.324 C115.068001,25.1559992 115.303999,25.072 115.592,25.072 C115.880001,25.072 116.111999,25.1559992 116.288,25.324 C116.464001,25.4920008 116.552,25.7279985 116.552,26.032 L116.552,36.16 C116.552,36.4800016 116.464001,36.7199992 116.288,36.88 C116.111999,37.0400008 115.880001,37.12 115.592,37.12 C115.303999,37.12 115.068001,37.0360008 114.884,36.868 Z M114.656,22.216 C114.415999,21.9919989 114.296,21.6960018 114.296,21.328 C114.296,20.9759982 114.415999,20.6880011 114.656,20.464 C114.896001,20.2399989 115.207998,20.128 115.592,20.128 C115.976002,20.128 116.287999,20.2399989 116.528,20.464 C116.768001,20.6880011 116.888,20.9759982 116.888,21.328 C116.888,21.6960018 116.768001,21.9919989 116.528,22.216 C116.287999,22.4400011 115.976002,22.552 115.592,22.552 C115.207998,22.552 114.896001,22.4400011 114.656,22.216 Z M130.376,25.336 C130.552001,25.5120009 130.64,25.7439986 130.64,26.032 L130.64,36.208 C130.64,37.9520087 130.192004,39.2679956 129.296,40.156 C128.399996,41.0440044 127.072009,41.488 125.312,41.488 C123.599991,41.488 122.176006,41.1520034 121.04,40.48 C120.463997,40.1599984 120.176,39.7920021 120.176,39.376 C120.176,39.1519989 120.235999,38.9680007 120.356,38.824 C120.476001,38.6799993 120.631999,38.608 120.824,38.608 C120.984001,38.608 121.271998,38.7199989 121.688,38.944 C122.248003,39.2320014 122.799997,39.4639991 123.344,39.64 C123.888003,39.8160009 124.535996,39.904 125.288,39.904 C126.424006,39.904 127.279997,39.604003 127.856,39.004 C128.432003,38.403997 128.72,37.5280058 128.72,36.376 L128.72,34.312 C128.383998,35.0640038 127.868003,35.639998 127.172,36.04 C126.475997,36.440002 125.656005,36.64 124.712,36.64 C123.687995,36.64 122.780004,36.4000024 121.988,35.92 C121.195996,35.4399976 120.580002,34.7600044 120.14,33.88 C119.699998,32.9999956 119.48,31.9840058 119.48,30.832 C119.48,29.6799942 119.699998,28.6640044 120.14,27.784 C120.580002,26.9039956 121.195996,26.2240024 121.988,25.744 C122.780004,25.2639976 123.687995,25.024 124.712,25.024 C125.640005,25.024 126.447997,25.223998 127.136,25.624 C127.824003,26.024002 128.343998,26.5919963 128.696,27.328 L128.696,26.032 C128.696,25.7439986 128.779999,25.5120009 128.948,25.336 C129.116001,25.1599991 129.351998,25.072 129.656,25.072 C129.960002,25.072 130.199999,25.1599991 130.376,25.336 Z M127.736,33.916 C128.376003,33.1719963 128.696,32.1440066 128.696,30.832 C128.696,29.5359935 128.380003,28.5160037 127.748,27.772 C127.115997,27.0279963 126.232006,26.656 125.096,26.656 C123.959994,26.656 123.068003,27.0279963 122.42,27.772 C121.771997,28.5160037 121.448,29.5359935 121.448,30.832 C121.448,32.1440066 121.771997,33.1719963 122.42,33.916 C123.068003,34.6600037 123.959994,35.032 125.096,35.032 C126.216006,35.032 127.095997,34.6600037 127.736,33.916 Z M144.32,29.656 L144.32,36.16 C144.32,36.4640015 144.236001,36.6999992 144.068,36.868 C143.899999,37.0360008 143.664002,37.12 143.36,37.12 C143.055998,37.12 142.816001,37.0360008 142.64,36.868 C142.463999,36.6999992 142.376,36.4640015 142.376,36.16 L142.376,29.776 C142.376,28.6879946 142.164002,27.8960025 141.74,27.4 C141.315998,26.9039975 140.640005,26.656 139.712,26.656 C138.639995,26.656 137.784003,26.9839967 137.144,27.64 C136.503997,28.2960033 136.184,29.1839944 136.184,30.304 L136.184,36.16 C136.184,36.4640015 136.100001,36.6999992 135.932,36.868 C135.763999,37.0360008 135.528002,37.12 135.224,37.12 C134.919998,37.12 134.680001,37.0360008 134.504,36.868 C134.327999,36.6999992 134.24,36.4640015 134.24,36.16 L134.24,26.032 C134.24,25.7439986 134.327999,25.5120009 134.504,25.336 C134.680001,25.1599991 134.919998,25.072 135.224,25.072 C135.512001,25.072 135.739999,25.1599991 135.908,25.336 C136.076001,25.5120009 136.16,25.7359986 136.16,26.008 L136.16,27.232 C136.544002,26.5119964 137.079997,25.9640019 137.768,25.588 C138.456003,25.2119981 139.239996,25.024 140.12,25.024 C142.920014,25.024 144.32,26.5679846 144.32,29.656 Z M163.652,25.336 C163.820001,25.5120009 163.904,25.7439986 163.904,26.032 L163.904,36.184 C163.904,36.4560014 163.820001,36.6799991 163.652,36.856 C163.483999,37.0320009 163.248002,37.12 162.944,37.12 C162.655999,37.12 162.428001,37.0360008 162.26,36.868 C162.091999,36.6999992 162.008,36.4800014 162.008,36.208 L162.008,35.008 C161.639998,35.7120035 161.124003,36.2479982 160.46,36.616 C159.795997,36.9840018 159.048004,37.168 158.216,37.168 C156.823993,37.168 155.776004,36.7800039 155.072,36.004 C154.367996,35.2279961 154.016,34.0800076 154.016,32.56 L154.016,26.032 C154.016,25.7439986 154.103999,25.5120009 154.28,25.336 C154.456001,25.1599991 154.695998,25.072 155,25.072 C155.304002,25.072 155.539999,25.1599991 155.708,25.336 C155.876001,25.5120009 155.96,25.7439986 155.96,26.032 L155.96,32.512 C155.96,33.5520052 156.167998,34.3159976 156.584,34.804 C157.000002,35.2920024 157.655996,35.536 158.552,35.536 C159.576005,35.536 160.399997,35.2040033 161.024,34.54 C161.648003,33.8759967 161.96,33.0000054 161.96,31.912 L161.96,26.032 C161.96,25.7439986 162.047999,25.5120009 162.224,25.336 C162.400001,25.1599991 162.639998,25.072 162.944,25.072 C163.248002,25.072 163.483999,25.1599991 163.652,25.336 Z M176.12,25.792 C176.904004,26.3040026 177.511998,27.0199954 177.944,27.94 C178.376002,28.8600046 178.592,29.9279939 178.592,31.144 C178.592,32.3600061 178.376002,33.4199955 177.944,34.324 C177.511998,35.2280045 176.908004,35.9279975 176.132,36.424 C175.355996,36.9200025 174.448005,37.168 173.408,37.168 C172.495995,37.168 171.700003,36.968002 171.02,36.568 C170.339997,36.167998 169.824002,35.6000037 169.472,34.864 L169.472,40.504 C169.472,40.7920014 169.388001,41.0199992 169.22,41.188 C169.051999,41.3560008 168.816002,41.44 168.512,41.44 C168.207998,41.44 167.968001,41.3520009 167.792,41.176 C167.615999,40.9999991 167.528,40.7760014 167.528,40.504 L167.528,26.032 C167.528,25.7439986 167.615999,25.5120009 167.792,25.336 C167.968001,25.1599991 168.207998,25.072 168.512,25.072 C168.816002,25.072 169.051999,25.1599991 169.22,25.336 C169.388001,25.5120009 169.472,25.7439986 169.472,26.032 L169.472,27.328 C169.824002,26.5919963 170.339997,26.024002 171.02,25.624 C171.700003,25.223998 172.495995,25.024 173.408,25.024 C174.432005,25.024 175.335996,25.2799974 176.12,25.792 Z M175.664,34.408 C176.288003,33.6399962 176.6,32.552007 176.6,31.144 C176.6,29.735993 176.288003,28.636004 175.664,27.844 C175.039997,27.051996 174.160006,26.656 173.024,26.656 C171.887994,26.656 171.012003,27.0399962 170.396,27.808 C169.779997,28.5760038 169.472,29.6719929 169.472,31.096 C169.472,32.5200071 169.779997,33.6199961 170.396,34.396 C171.012003,35.1720039 171.887994,35.56 173.024,35.56 C174.160006,35.56 175.039997,35.1760038 175.664,34.408 Z" id="Sign-up" fill="#FFFFFF"></path>
            </g>
        </g>
    </g>
</svg>