<?xml version="1.0" encoding="UTF-8"?>
<svg width="123px" height="38px" viewBox="0 0 123 38" version="1.1" xmlns="http://www.w3.org/2000/svg" xmlns:xlink="http://www.w3.org/1999/xlink">
    <!-- Generator: Sketch 49.3 (51167) - http://www.bohemiancoding.com/sketch -->
    <title>Menu</title>
    <desc>Created with Sketch.</desc>
    <defs></defs>
    <g id="iOS-App" stroke="none" stroke-width="1" fill="none" fill-rule="evenodd">
        <g id="Menu-Copy" transform="translate(-125.000000, -63.000000)" fill="#290E54">
            <path d="M136.796875,63.0859375 L136.827637,63.2089844 C136.848145,63.291016 136.895996,63.4584948 136.971191,63.7114258 C137.046387,63.9643567 137.162597,64.3334937 137.319824,64.8188477 C137.477052,65.3042016 137.699217,65.9501913 137.986328,66.7568359 C138.273439,67.5634806 138.63574,68.5512637 139.073242,69.7202148 C139.510744,70.889166 140.04736,72.2939371 140.683105,73.9345703 C141.318851,75.5752035 142.063961,77.4755751 142.918457,79.6357422 C143.772953,81.7959092 144.760737,84.2568221 145.881836,87.0185547 C147.399422,83.2997861 148.674311,80.1245249 149.706543,77.4926758 C150.738775,74.8608267 151.593258,72.6596768 152.27002,70.8891602 C152.946781,69.1186435 153.466307,67.7172903 153.828613,66.6850586 C154.19092,65.6528269 154.457519,64.8701199 154.628418,64.3369141 C154.799317,63.8037083 154.901855,63.4619148 154.936035,63.3115234 L154.987305,63.0859375 L161.836914,63.0859375 C161.87793,63.3457044 161.946289,63.8549767 162.041992,64.6137695 C162.137696,65.3725624 162.250488,66.3124944 162.380371,67.4335938 C162.510255,68.5546931 162.660644,69.8193289 162.831543,71.2275391 C163.002442,72.6357492 163.176757,74.1225508 163.354492,75.6879883 C163.532227,77.2534258 163.720214,78.863273 163.918457,80.5175781 C164.1167,82.1718833 164.311522,83.8022381 164.50293,85.4086914 C164.694337,87.0151448 164.875487,88.5634691 165.046387,90.0537109 C165.217286,91.5439528 165.377929,92.9111266 165.52832,94.1552734 C165.678712,95.3994203 165.812011,96.4863235 165.928223,97.4160156 C166.044434,98.3457078 166.136718,99.0429664 166.205078,99.5078125 L159.027344,100.799805 L156.668945,77.8515625 C156.163083,79.1367252 155.653811,80.4799735 155.141113,81.8813477 C154.628415,83.2827219 154.119143,84.684075 153.613281,86.0854492 C153.107419,87.4868234 152.622073,88.8437434 152.157227,90.15625 C151.69238,91.4687566 151.261721,92.6821233 150.865234,93.7963867 C150.468748,94.9106501 150.116701,95.8813435 149.809082,96.7084961 C149.501463,97.5356487 149.25879,98.1611307 149.081055,98.5849609 L142.703125,98.5849609 C142.52539,98.1611307 142.282716,97.5356487 141.975098,96.7084961 C141.667479,95.8813435 141.315432,94.9106501 140.918945,93.7963867 C140.522459,92.6821233 140.091799,91.4687566 139.626953,90.15625 C139.162107,88.8437434 138.67676,87.4868234 138.170898,86.0854492 C137.665037,84.684075 137.152346,83.2827219 136.632812,81.8813477 C136.113279,80.4799735 135.607424,79.1367252 135.115234,77.8515625 L132.756836,100.799805 L125.579102,99.5078125 C125.647461,99.0429664 125.739746,98.3457078 125.855957,97.4160156 C125.972169,96.4863235 126.105468,95.3994203 126.255859,94.1552734 C126.406251,92.9111266 126.566894,91.5439528 126.737793,90.0537109 C126.908692,88.5634691 127.089843,87.0151448 127.28125,85.4086914 C127.472657,83.8022381 127.667479,82.1718833 127.865723,80.5175781 C128.063966,78.863273 128.251952,77.2534258 128.429688,75.6879883 C128.607423,74.1225508 128.781737,72.6357492 128.952637,71.2275391 C129.123536,69.8193289 129.273925,68.5546931 129.403809,67.4335938 C129.533692,66.3124944 129.646484,65.3725624 129.742188,64.6137695 C129.837891,63.8549767 129.90625,63.3457044 129.947266,63.0859375 L136.796875,63.0859375 Z M195.838867,95.0166016 C194.936519,96.0009815 193.914556,96.8520472 192.772949,97.5698242 C191.631342,98.2876012 190.445319,98.8720681 189.214844,99.3232422 C187.984369,99.7744163 186.743659,100.095702 185.492676,100.287109 C184.241693,100.478517 183.05567,100.540039 181.93457,100.47168 C180.239249,100.389648 178.619148,100.020511 177.074219,99.3642578 C175.529289,98.7080045 174.175787,97.7885801 173.013672,96.605957 C171.851557,95.4233339 170.932132,93.9809655 170.255371,92.2788086 C169.57861,90.5766516 169.260742,88.6318469 169.301758,86.4443359 C169.31543,85.2822208 169.458983,84.1167051 169.732422,82.9477539 C170.005861,81.7788027 170.405759,80.6543023 170.932129,79.5742188 C171.458499,78.4941352 172.107906,77.4824266 172.880371,76.5390625 C173.652836,75.5956984 174.551753,74.7753941 175.577148,74.078125 C176.602544,73.3808559 177.754388,72.8271505 179.032715,72.4169922 C180.311042,72.0068339 181.715813,71.7880861 183.24707,71.7607422 C184.805672,71.7470702 186.207025,71.9726539 187.451172,72.4375 C188.695319,72.9023461 189.78564,73.5449178 190.722168,74.3652344 C191.658696,75.185551 192.448239,76.1494085 193.09082,77.2568359 C193.733402,78.3642633 194.235838,79.5468687 194.598145,80.8046875 C194.960451,82.0625063 195.189453,83.3681573 195.285156,84.7216797 C195.38086,86.0752021 195.346681,87.4081966 195.182617,88.7207031 L175.987305,88.7822266 C176.206056,89.6845748 176.534177,90.4877894 176.97168,91.1918945 C177.409182,91.8959996 177.915036,92.4907202 178.489258,92.9760742 C179.063479,93.4614282 179.699215,93.8339831 180.396484,94.09375 C181.093753,94.3535169 181.825191,94.4902343 182.59082,94.5039062 C183.192386,94.5039062 183.852047,94.4355476 184.569824,94.2988281 C185.287601,94.1621087 186.012203,93.9467788 186.743652,93.652832 C187.475101,93.3588852 188.182614,92.9931663 188.866211,92.5556641 C189.549808,92.1181619 190.1582,91.6054717 190.691406,91.0175781 L195.838867,95.0166016 Z M188.825195,82.2607422 C188.71582,81.6181608 188.510744,81.0542016 188.209961,80.5688477 C187.909178,80.0834937 187.533205,79.6733415 187.082031,79.3383789 C186.630857,79.0034163 186.128421,78.7436533 185.574707,78.559082 C185.020993,78.3745108 184.450198,78.261719 183.862305,78.2207031 C183.151364,78.1660154 182.433597,78.2138664 181.708984,78.3642578 C180.984371,78.5146492 180.30762,78.7539046 179.678711,79.0820312 C179.049802,79.4101579 178.496096,79.8271459 178.017578,80.3330078 C177.53906,80.8388697 177.190431,81.4267545 176.97168,82.0966797 L188.825195,82.2607422 Z M205.641602,75.5341797 C205.860353,75.4248041 206.0791,75.3222661 206.297852,75.2265625 C206.516603,75.1308589 206.742186,75.0351567 206.974609,74.9394531 C209.244152,74.0234329 211.240226,73.5449221 212.962891,73.5039062 C214.685555,73.4628904 216.151849,73.8798784 217.361816,74.7548828 C218.571783,75.6298872 219.521969,76.9833893 220.212402,78.8154297 C220.902835,80.6474701 221.343749,82.9853373 221.535156,85.8291016 C221.603516,86.8134815 221.654785,87.8662053 221.688965,88.9873047 C221.723145,90.108404 221.74707,91.2739197 221.760742,92.4838867 C221.774414,93.6938537 221.767578,94.9413998 221.740234,96.2265625 C221.71289,97.5117252 221.671875,98.7968686 221.617188,100.082031 L214.829102,100.082031 C214.883789,98.8242125 214.935058,97.5732484 214.98291,96.3291016 C215.030762,95.0849547 215.068359,93.8920956 215.095703,92.7504883 C215.123047,91.608881 215.133301,90.5424854 215.126465,89.5512695 C215.119629,88.5600536 215.095703,87.6816445 215.054688,86.9160156 C214.972656,85.5898371 214.812013,84.4619187 214.572754,83.5322266 C214.333495,82.6025344 213.96094,81.8881861 213.455078,81.3891602 C212.949216,80.8901342 212.289555,80.6235353 211.476074,80.5893555 C210.662594,80.5551756 209.640631,80.7773414 208.410156,81.2558594 C207.371089,81.6523457 206.468754,82.1445283 205.703125,82.7324219 L205.805664,100.082031 L198.525391,100.082031 C198.539063,99.4941377 198.545898,98.6977589 198.545898,97.6928711 C198.545898,96.6879833 198.549316,95.5566469 198.556152,94.2988281 C198.562988,93.0410093 198.566406,91.701179 198.566406,90.2792969 C198.566406,88.8574148 198.569824,87.432136 198.57666,86.003418 C198.583496,84.5746999 198.586914,83.1836005 198.586914,81.8300781 C198.586914,80.4765557 198.590332,79.2392634 198.597168,78.1181641 C198.604004,76.9970647 198.61084,76.0297892 198.617676,75.2163086 C198.624512,74.402828 198.634766,73.8320329 198.648438,73.5039062 L205.580078,73.5039062 L205.641602,75.5341797 Z M240.730469,98.2568359 C240.511718,98.3662115 240.29297,98.4687495 240.074219,98.5644531 C239.855468,98.6601567 239.629884,98.7558589 239.397461,98.8515625 C237.127918,99.7675827 235.131845,100.246094 233.40918,100.287109 C231.686515,100.328125 230.220221,99.9111372 229.010254,99.0361328 C227.800287,98.1611284 226.850101,96.8076263 226.159668,94.9755859 C225.469235,93.1435455 225.028321,90.8056783 224.836914,87.9619141 C224.768554,86.9775341 224.717285,85.8427799 224.683105,84.5576172 C224.648926,83.2724545 224.625,81.9223704 224.611328,80.5073242 C224.597656,79.0922781 224.604492,77.6635814 224.631836,76.2211914 C224.65918,74.7788014 224.700195,73.4082096 224.754883,72.109375 L231.542969,72.109375 C231.515625,72.9570355 231.484863,73.8354447 231.450684,74.7446289 C231.416504,75.6538131 231.385742,76.5732375 231.358398,77.5029297 C231.331055,78.4326218 231.307129,79.3486283 231.286621,80.2509766 C231.266113,81.1533248 231.252441,82.0112264 231.245605,82.824707 C231.238769,83.6381877 231.242187,84.3901333 231.255859,85.0805664 C231.269531,85.7709995 231.290039,86.3691381 231.317383,86.875 C231.399414,88.2011785 231.560057,89.3290969 231.799316,90.2587891 C232.038575,91.1884812 232.41113,91.9028295 232.916992,92.4018555 C233.422854,92.9008814 234.082515,93.1674803 234.895996,93.2016602 C235.709477,93.23584 236.731439,93.0136743 237.961914,92.5351562 C239.000982,92.1386699 239.903316,91.6464873 240.668945,91.0585938 L240.566406,72.109375 L247.84668,72.109375 C247.833008,72.7109405 247.826172,73.5346627 247.826172,74.5805664 C247.826172,75.6264701 247.822754,76.8159113 247.815918,78.1489258 C247.809082,79.4819403 247.805664,80.907219 247.805664,82.4248047 C247.805664,83.9423904 247.802246,85.4667892 247.79541,86.9980469 C247.788574,88.5293045 247.785156,90.019524 247.785156,91.46875 C247.785156,92.917976 247.781738,94.2441346 247.774902,95.4472656 C247.768066,96.6503966 247.761231,97.6791949 247.754395,98.5336914 C247.747559,99.3881879 247.737305,99.9794905 247.723633,100.307617 L240.791992,100.307617 L240.730469,98.2568359 Z" id="Menu"></path>
        </g>
    </g>
</svg>