<?xml version="1.0" encoding="utf-8"?>
<!-- Generator: Adobe Illustrator 22.0.1, SVG Export Plug-In . SVG Version: 6.00 Build 0)  -->
<svg version="1.1" id="Layer_1" xmlns="http://www.w3.org/2000/svg" xmlns:xlink="http://www.w3.org/1999/xlink" x="0px" y="0px"
	 viewBox="0 0 156.8 155.5" style="enable-background:new 0 0 156.8 155.5;" xml:space="preserve">
<style type="text/css">
	.st0{fill:url(#SVGID_1_);}
	.st1{fill:#FFFFFF;}
	.st2{fill:#290E54;}
</style>
<g>
	<linearGradient id="SVGID_1_" gradientUnits="userSpaceOnUse" x1="79.0756" y1="147.4023" x2="79.0756" y2="7.4023">
		<stop  offset="0" style="stop-color:#3366CC"/>
		<stop  offset="0.6055" style="stop-color:#608EDF"/>
		<stop  offset="1" style="stop-color:#80AAED"/>
	</linearGradient>
	<path class="st0" d="M139,147.4H19.1c-5.5,0-10-4.5-10-10V17.4c0-5.5,4.5-10,10-10H139c5.5,0,10,4.5,10,10v119.9
		C149.1,142.9,144.6,147.4,139,147.4z"/>
	<g>
		<g>
			<path class="st1" d="M19.4,122.4c-0.8-0.5-1.4-1.1-1.8-2c-0.4-0.9-0.6-1.9-0.6-3.1c0-1.2,0.2-2.2,0.6-3.1s1-1.5,1.8-2
				c0.8-0.5,1.7-0.7,2.8-0.7c0.7,0,1.4,0.1,2,0.3c0.6,0.2,1.2,0.5,1.6,1c0.2,0.2,0.3,0.4,0.3,0.6c0,0.2-0.1,0.4-0.2,0.5
				c-0.1,0.1-0.2,0.2-0.4,0.2c-0.2,0-0.4-0.1-0.5-0.2c-0.5-0.4-1-0.7-1.4-0.8c-0.4-0.2-0.9-0.2-1.4-0.2c-1.2,0-2.1,0.4-2.7,1.1
				c-0.6,0.8-0.9,1.8-0.9,3.3c0,1.4,0.3,2.5,0.9,3.3c0.6,0.8,1.5,1.1,2.7,1.1c0.5,0,1-0.1,1.4-0.2s0.9-0.4,1.4-0.8
				c0.2-0.1,0.4-0.2,0.5-0.2c0.1,0,0.3,0.1,0.4,0.2c0.1,0.1,0.2,0.3,0.2,0.5c0,0.3-0.1,0.5-0.3,0.6c-0.5,0.4-1,0.7-1.6,1
				c-0.6,0.2-1.3,0.3-2,0.3C21.2,123.1,20.2,122.9,19.4,122.4z"/>
			<path class="st1" d="M28.2,122.9c-0.2-0.1-0.2-0.3-0.2-0.6v-9.9c0-0.3,0.1-0.5,0.2-0.6c0.2-0.1,0.3-0.2,0.6-0.2
				c0.2,0,0.4,0.1,0.6,0.2c0.1,0.1,0.2,0.3,0.2,0.6v9.9c0,0.3-0.1,0.4-0.2,0.6c-0.1,0.1-0.3,0.2-0.6,0.2
				C28.5,123.1,28.3,123,28.2,122.9z"/>
			<path class="st1" d="M33.2,122.6c-0.6-0.3-1-0.8-1.3-1.4c-0.3-0.6-0.5-1.3-0.5-2.1c0-0.8,0.2-1.5,0.5-2.2
				c0.3-0.6,0.8-1.1,1.3-1.4c0.6-0.3,1.3-0.5,2-0.5c0.8,0,1.4,0.2,2,0.5c0.6,0.3,1,0.8,1.3,1.4s0.5,1.3,0.5,2.2
				c0,0.8-0.2,1.5-0.5,2.1s-0.8,1.1-1.3,1.4c-0.6,0.3-1.3,0.5-2,0.5C34.5,123.1,33.8,122.9,33.2,122.6z M36.9,121.1
				c0.4-0.5,0.6-1.2,0.6-2.1c0-0.9-0.2-1.6-0.6-2.1c-0.4-0.5-0.9-0.7-1.6-0.7c-0.7,0-1.2,0.2-1.6,0.7c-0.4,0.5-0.6,1.2-0.6,2.1
				c0,0.9,0.2,1.6,0.6,2.1c0.4,0.5,0.9,0.7,1.6,0.7C35.9,121.8,36.5,121.6,36.9,121.1z"/>
			<path class="st1" d="M45.1,122c0.1,0.1,0.2,0.2,0.2,0.4c0,0.2-0.1,0.4-0.2,0.5c-0.2,0.1-0.4,0.2-0.7,0.1l-0.4,0
				c-0.9-0.1-1.5-0.3-1.9-0.8s-0.6-1.1-0.6-2.1v-3.8h-1c-0.5,0-0.7-0.2-0.7-0.6c0-0.2,0.1-0.3,0.2-0.5c0.1-0.1,0.3-0.2,0.5-0.2h1
				v-1.6c0-0.2,0.1-0.4,0.2-0.6s0.3-0.2,0.6-0.2c0.2,0,0.4,0.1,0.6,0.2s0.2,0.3,0.2,0.6v1.6h1.6c0.2,0,0.4,0.1,0.5,0.2
				c0.1,0.1,0.2,0.3,0.2,0.5c0,0.2-0.1,0.4-0.2,0.5s-0.3,0.2-0.5,0.2h-1.6v3.9c0,0.5,0.1,0.9,0.3,1.1s0.5,0.4,1,0.4l0.4,0
				C44.9,121.8,45,121.9,45.1,122z"/>
			<path class="st1" d="M53.5,118.1v4.2c0,0.2-0.1,0.4-0.2,0.6s-0.3,0.2-0.6,0.2c-0.2,0-0.4-0.1-0.6-0.2s-0.2-0.3-0.2-0.6v-4.1
				c0-0.6-0.1-1.1-0.4-1.4c-0.3-0.3-0.7-0.4-1.2-0.4c-0.7,0-1.2,0.2-1.6,0.6c-0.4,0.4-0.6,0.9-0.6,1.6v3.8c0,0.2-0.1,0.4-0.2,0.6
				s-0.3,0.2-0.6,0.2c-0.2,0-0.4-0.1-0.6-0.2c-0.1-0.1-0.2-0.3-0.2-0.6v-9.9c0-0.2,0.1-0.4,0.2-0.6c0.2-0.1,0.4-0.2,0.6-0.2
				c0.2,0,0.4,0.1,0.6,0.2c0.1,0.1,0.2,0.3,0.2,0.5v4c0.3-0.4,0.6-0.8,1.1-1c0.4-0.2,1-0.4,1.5-0.4C52.5,115,53.5,116,53.5,118.1z"
				/>
			<path class="st1" d="M62.2,121.2c0.1,0.1,0.1,0.3,0.1,0.4c0,0.3-0.2,0.6-0.6,0.8c-0.4,0.2-0.8,0.4-1.2,0.5
				c-0.4,0.1-0.9,0.2-1.3,0.2c-1.2,0-2.2-0.4-2.9-1.1c-0.7-0.7-1.1-1.7-1.1-3c0-0.8,0.2-1.5,0.5-2.1c0.3-0.6,0.8-1.1,1.3-1.4
				c0.6-0.3,1.2-0.5,1.9-0.5c1,0,1.9,0.3,2.5,1s0.9,1.6,0.9,2.7c0,0.4-0.2,0.6-0.6,0.6h-4.9c0.1,1.7,0.9,2.5,2.4,2.5
				c0.4,0,0.7-0.1,1-0.2c0.3-0.1,0.6-0.2,0.9-0.4c0,0,0.1-0.1,0.3-0.1s0.3-0.1,0.4-0.1C61.9,121,62.1,121.1,62.2,121.2z M57.5,116.7
				c-0.4,0.4-0.6,0.9-0.7,1.7H61c0-0.7-0.2-1.3-0.6-1.7c-0.3-0.4-0.8-0.6-1.4-0.6C58.4,116.2,57.9,116.4,57.5,116.7z"/>
			<path class="st1" d="M64.2,122.4c-0.2-0.1-0.3-0.2-0.4-0.4c-0.1-0.1-0.1-0.3-0.1-0.4c0-0.2,0-0.3,0.1-0.4
				c0.1-0.1,0.2-0.2,0.4-0.2c0.1,0,0.4,0.1,0.7,0.3c0.3,0.2,0.6,0.3,0.9,0.4c0.3,0.1,0.7,0.2,1.1,0.2c0.5,0,0.9-0.1,1.2-0.3
				c0.3-0.2,0.4-0.4,0.4-0.8c0-0.2-0.1-0.4-0.2-0.5c-0.1-0.1-0.3-0.2-0.6-0.3c-0.3-0.1-0.7-0.2-1.2-0.3c-0.9-0.2-1.6-0.5-2-0.8
				c-0.4-0.3-0.6-0.8-0.6-1.4c0-0.5,0.1-0.9,0.4-1.2s0.6-0.7,1.1-0.9c0.5-0.2,1-0.3,1.6-0.3c0.4,0,0.8,0.1,1.2,0.2
				c0.4,0.1,0.8,0.3,1.1,0.5c0.4,0.2,0.5,0.5,0.5,0.8c0,0.2-0.1,0.3-0.2,0.4c-0.1,0.1-0.2,0.2-0.4,0.2c-0.1,0-0.2,0-0.3-0.1
				c-0.1,0-0.2-0.1-0.4-0.2c-0.3-0.2-0.6-0.3-0.8-0.4c-0.3-0.1-0.6-0.1-0.9-0.1c-0.4,0-0.8,0.1-1.1,0.3c-0.3,0.2-0.4,0.5-0.4,0.8
				c0,0.3,0.1,0.5,0.4,0.7c0.3,0.2,0.7,0.3,1.4,0.5c0.7,0.1,1.3,0.3,1.7,0.5c0.4,0.2,0.7,0.4,0.9,0.7c0.2,0.3,0.3,0.6,0.3,1.1
				c0,0.7-0.3,1.3-0.9,1.7c-0.6,0.4-1.4,0.6-2.3,0.6C65.8,123.1,64.9,122.9,64.2,122.4z"/>
		</g>
		<g>
			<path class="st1" d="M22.4,135.3c0.1,0.1,0.1,0.2,0.1,0.4c0,0.3-0.2,0.5-0.6,0.5h-4c-0.4,0-0.6-0.2-0.6-0.5c0-0.2,0-0.3,0.1-0.4
				s0.2-0.1,0.4-0.1h1.4v-6l-1.2,0.8c-0.1,0-0.2,0.1-0.2,0.1c-0.1,0-0.3-0.1-0.4-0.2c-0.1-0.1-0.1-0.3-0.1-0.4
				c0-0.2,0.1-0.3,0.2-0.4l1.8-1.2c0.2-0.1,0.4-0.2,0.5-0.2c0.2,0,0.3,0.1,0.4,0.2c0.1,0.1,0.2,0.3,0.2,0.5v6.9H22
				C22.2,135.2,22.3,135.2,22.4,135.3z"/>
			<path class="st1" d="M24.6,135.2c-0.5-0.7-0.8-1.8-0.8-3.2c0-1.4,0.3-2.5,0.8-3.2c0.5-0.7,1.3-1.1,2.2-1.1s1.7,0.4,2.2,1.1
				s0.8,1.8,0.8,3.2s-0.3,2.5-0.8,3.2s-1.3,1.1-2.2,1.1S25.1,135.9,24.6,135.2z M28.2,134.5c0.3-0.5,0.4-1.4,0.4-2.5
				c0-1.2-0.1-2-0.4-2.5s-0.7-0.8-1.4-0.8c-0.6,0-1.1,0.3-1.4,0.8s-0.4,1.4-0.4,2.5c0,1.1,0.1,2,0.4,2.5s0.7,0.8,1.4,0.8
				C27.4,135.3,27.9,135,28.2,134.5z"/>
			<path class="st1" d="M34.4,135.8c-0.1-0.1-0.2-0.2-0.3-0.3c-0.1-0.1-0.1-0.2-0.1-0.3c0-0.1,0-0.2,0.1-0.3
				c0.1-0.1,0.2-0.1,0.3-0.1c0.1,0,0.3,0.1,0.5,0.2c0.2,0.1,0.5,0.2,0.7,0.3s0.5,0.1,0.9,0.1c0.4,0,0.7-0.1,0.9-0.2
				c0.2-0.1,0.3-0.3,0.3-0.6c0-0.2,0-0.3-0.1-0.4c-0.1-0.1-0.2-0.2-0.4-0.3c-0.2-0.1-0.5-0.2-0.9-0.2c-0.7-0.2-1.2-0.4-1.5-0.6
				c-0.3-0.3-0.5-0.6-0.5-1.1c0-0.3,0.1-0.7,0.3-0.9c0.2-0.3,0.5-0.5,0.8-0.6c0.4-0.2,0.8-0.2,1.2-0.2c0.3,0,0.6,0,0.9,0.1
				c0.3,0.1,0.6,0.2,0.8,0.4c0.3,0.2,0.4,0.4,0.4,0.6c0,0.1,0,0.2-0.1,0.3c-0.1,0.1-0.2,0.1-0.3,0.1c-0.1,0-0.1,0-0.2,0
				c-0.1,0-0.2-0.1-0.3-0.2c-0.2-0.1-0.4-0.2-0.6-0.3c-0.2-0.1-0.4-0.1-0.7-0.1c-0.3,0-0.6,0.1-0.8,0.2c-0.2,0.1-0.3,0.3-0.3,0.6
				c0,0.2,0.1,0.4,0.3,0.5s0.5,0.2,1.1,0.4c0.5,0.1,1,0.2,1.3,0.4c0.3,0.1,0.5,0.3,0.7,0.5s0.2,0.5,0.2,0.8c0,0.5-0.2,0.9-0.7,1.3
				c-0.4,0.3-1,0.5-1.7,0.5C35.6,136.3,35,136.1,34.4,135.8z"/>
			<path class="st1" d="M40.3,128.8c-0.1-0.1-0.2-0.3-0.2-0.5s0.1-0.4,0.2-0.5s0.3-0.2,0.6-0.2c0.2,0,0.4,0.1,0.5,0.2
				c0.1,0.1,0.2,0.3,0.2,0.5s-0.1,0.4-0.2,0.5S41,129,40.8,129C40.6,129,40.4,129,40.3,128.8z M40.4,136.1c-0.1-0.1-0.2-0.2-0.2-0.4
				v-4.9c0-0.2,0.1-0.3,0.2-0.4c0.1-0.1,0.3-0.1,0.4-0.1c0.2,0,0.3,0,0.4,0.1c0.1,0.1,0.2,0.2,0.2,0.4v4.9c0,0.2-0.1,0.3-0.2,0.4
				c-0.1,0.1-0.3,0.1-0.4,0.1C40.6,136.2,40.5,136.2,40.4,136.1z"/>
			<path class="st1" d="M48.4,130.4c0.1,0.1,0.2,0.3,0.2,0.4v4.9c0,0.9-0.2,1.6-0.7,2c-0.5,0.5-1.2,0.7-2.1,0.7
				c-0.9,0-1.6-0.2-2.2-0.5c-0.3-0.2-0.4-0.4-0.4-0.6c0-0.1,0-0.2,0.1-0.3c0.1-0.1,0.2-0.1,0.3-0.1c0.1,0,0.3,0.1,0.5,0.2
				c0.3,0.1,0.6,0.2,0.8,0.3c0.2,0.1,0.5,0.1,0.9,0.1c1.1,0,1.7-0.6,1.7-1.7v-0.9c-0.2,0.4-0.4,0.6-0.8,0.8
				c-0.3,0.2-0.7,0.3-1.2,0.3c-0.5,0-1-0.1-1.4-0.4c-0.4-0.2-0.7-0.6-0.9-1c-0.2-0.4-0.3-0.9-0.3-1.5s0.1-1.1,0.3-1.5
				c0.2-0.4,0.5-0.8,0.9-1s0.9-0.4,1.4-0.4c0.4,0,0.8,0.1,1.2,0.3c0.3,0.2,0.6,0.5,0.8,0.8v-0.5c0-0.2,0.1-0.3,0.2-0.4
				c0.1-0.1,0.3-0.2,0.4-0.2S48.3,130.3,48.4,130.4z M46.9,134.5c0.3-0.3,0.4-0.8,0.4-1.4c0-0.6-0.1-1.1-0.4-1.4s-0.7-0.5-1.2-0.5
				c-0.5,0-0.9,0.2-1.2,0.5c-0.3,0.3-0.5,0.8-0.5,1.4c0,0.6,0.2,1.1,0.5,1.4c0.3,0.3,0.7,0.5,1.2,0.5S46.6,134.9,46.9,134.5z"/>
			<path class="st1" d="M55.5,132.5v3.1c0,0.2-0.1,0.3-0.2,0.4s-0.3,0.1-0.5,0.1c-0.2,0-0.3-0.1-0.4-0.2c-0.1-0.1-0.2-0.2-0.2-0.4
				v-3.1c0-0.5-0.1-0.9-0.3-1.1c-0.2-0.2-0.5-0.3-0.9-0.3c-0.5,0-0.9,0.2-1.2,0.5c-0.3,0.3-0.4,0.7-0.4,1.2v2.8
				c0,0.2-0.1,0.3-0.2,0.4c-0.1,0.1-0.3,0.2-0.4,0.2c-0.2,0-0.3-0.1-0.4-0.2c-0.1-0.1-0.2-0.2-0.2-0.4v-4.9c0-0.2,0.1-0.3,0.2-0.4
				c0.1-0.1,0.3-0.2,0.4-0.2c0.2,0,0.3,0.1,0.4,0.2c0.1,0.1,0.2,0.2,0.2,0.4v0.5c0.2-0.4,0.5-0.6,0.8-0.8c0.3-0.2,0.7-0.3,1.2-0.3
				C54.8,130.2,55.5,131,55.5,132.5z"/>
			<path class="st1" d="M57.2,135.8c-0.1-0.1-0.2-0.2-0.3-0.3c-0.1-0.1-0.1-0.2-0.1-0.3c0-0.1,0-0.2,0.1-0.3
				c0.1-0.1,0.2-0.1,0.3-0.1c0.1,0,0.3,0.1,0.5,0.2c0.2,0.1,0.5,0.2,0.7,0.3s0.5,0.1,0.9,0.1c0.4,0,0.7-0.1,0.9-0.2
				c0.2-0.1,0.3-0.3,0.3-0.6c0-0.2,0-0.3-0.1-0.4c-0.1-0.1-0.2-0.2-0.4-0.3c-0.2-0.1-0.5-0.2-0.9-0.2c-0.7-0.2-1.2-0.4-1.5-0.6
				c-0.3-0.3-0.5-0.6-0.5-1.1c0-0.3,0.1-0.7,0.3-0.9c0.2-0.3,0.5-0.5,0.8-0.6c0.4-0.2,0.8-0.2,1.2-0.2c0.3,0,0.6,0,0.9,0.1
				c0.3,0.1,0.6,0.2,0.8,0.4c0.3,0.2,0.4,0.4,0.4,0.6c0,0.1,0,0.2-0.1,0.3c-0.1,0.1-0.2,0.1-0.3,0.1c-0.1,0-0.1,0-0.2,0
				c-0.1,0-0.2-0.1-0.3-0.2c-0.2-0.1-0.4-0.2-0.6-0.3c-0.2-0.1-0.4-0.1-0.7-0.1c-0.3,0-0.6,0.1-0.8,0.2c-0.2,0.1-0.3,0.3-0.3,0.6
				c0,0.2,0.1,0.4,0.3,0.5s0.5,0.2,1.1,0.4c0.5,0.1,1,0.2,1.3,0.4c0.3,0.1,0.5,0.3,0.7,0.5s0.2,0.5,0.2,0.8c0,0.5-0.2,0.9-0.7,1.3
				c-0.4,0.3-1,0.5-1.7,0.5C58.4,136.3,57.7,136.1,57.2,135.8z"/>
		</g>
	</g>
	<g>
		<path class="st1" d="M134.5,131.6h-28c-4.4,0-8-3.6-8-8v0c0-4.4,3.6-8,8-8h28c4.4,0,8,3.6,8,8v0
			C142.5,128,138.9,131.6,134.5,131.6z"/>
		<g>
			<path class="st2" d="M115.9,124.1c0.2,0.3,0.4,0.7,0.4,1.2c0,0.7-0.2,1.2-0.7,1.6c-0.5,0.4-1.1,0.6-1.9,0.6h-2.8
				c-0.2,0-0.3,0-0.4-0.1s-0.1-0.2-0.1-0.4v-6.7c0-0.2,0-0.3,0.1-0.4c0.1-0.1,0.2-0.1,0.4-0.1h2.7c0.8,0,1.4,0.2,1.9,0.5
				c0.5,0.4,0.7,0.9,0.7,1.5c0,0.4-0.1,0.8-0.3,1.1s-0.5,0.5-0.9,0.7C115.3,123.6,115.6,123.8,115.9,124.1z M111.4,123.1h2
				c1.1,0,1.6-0.4,1.6-1.2c0-0.4-0.1-0.7-0.4-0.9s-0.7-0.3-1.2-0.3h-2V123.1z M114.7,126.2c0.3-0.2,0.4-0.5,0.4-1
				c0-0.4-0.1-0.8-0.4-1c-0.3-0.2-0.7-0.3-1.2-0.3h-2.1v2.6h2.1C114.1,126.6,114.5,126.4,114.7,126.2z"/>
			<path class="st2" d="M118.5,126.8c-0.5-0.5-0.8-1.3-0.8-2.4v-4.2c0-0.2,0.1-0.3,0.2-0.4c0.1-0.1,0.2-0.2,0.4-0.2
				c0.2,0,0.3,0.1,0.4,0.2c0.1,0.1,0.2,0.2,0.2,0.4v4.2c0,0.7,0.2,1.2,0.5,1.6c0.3,0.4,0.8,0.5,1.5,0.5c0.7,0,1.2-0.2,1.5-0.5
				c0.3-0.4,0.5-0.9,0.5-1.6v-4.2c0-0.2,0.1-0.3,0.2-0.4c0.1-0.1,0.2-0.2,0.4-0.2c0.2,0,0.3,0.1,0.4,0.2c0.1,0.1,0.2,0.2,0.2,0.4
				v4.2c0,1-0.3,1.8-0.8,2.4s-1.3,0.8-2.3,0.8C119.8,127.6,119,127.3,118.5,126.8z"/>
			<path class="st2" d="M131,119.7c0.1,0,0.3,0.1,0.4,0.2s0.2,0.2,0.2,0.4c0,0.1,0,0.2-0.1,0.3l-2.6,3.2v3.2c0,0.2-0.1,0.3-0.2,0.4
				c-0.1,0.1-0.2,0.1-0.4,0.1c-0.2,0-0.3,0-0.4-0.1c-0.1-0.1-0.2-0.2-0.2-0.4v-3.2l-2.6-3.2c-0.1-0.1-0.1-0.2-0.1-0.4
				c0-0.1,0.1-0.3,0.2-0.4c0.1-0.1,0.2-0.2,0.4-0.2c0.1,0,0.3,0.1,0.4,0.2l2.4,3l2.4-3C130.7,119.7,130.8,119.7,131,119.7z"/>
		</g>
	</g>
</g>
</svg>
