<?xml version="1.0" encoding="UTF-8"?>
<svg width="132px" height="132px" viewBox="0 0 132 132" version="1.1" xmlns="http://www.w3.org/2000/svg" xmlns:xlink="http://www.w3.org/1999/xlink">
    <!-- Generator: Sketch 49.3 (51167) - http://www.bohemiancoding.com/sketch -->
    <title>add user icon</title>
    <desc>Created with Sketch.</desc>
    <defs>
        <polygon id="path-1" points="0 0.356253875 131.643013 0.356253875 131.643013 131.512915 0 131.512915"></polygon>
    </defs>
    <g id="iOS-App" stroke="none" stroke-width="1" fill="none" fill-rule="evenodd">
        <g id="Choose-a-User-1" transform="translate(-210.000000, -167.000000)">
            <g id="add-user-icon" transform="translate(210.000000, 167.000000)">
                <path d="M129.687311,66.0653668 C129.687311,101.207079 101.093667,129.695699 65.8213111,129.695699 C30.5494444,129.695699 1.95531111,101.207079 1.95531111,66.0653668 C1.95531111,30.9236546 30.5494444,2.43552177 65.8213111,2.43552177 C101.093667,2.43552177 129.687311,30.9236546 129.687311,66.0653668" id="Fill-1" fill="#EEFDFF"></path>
                <g id="Group-5" transform="translate(0.000000, 0.131026)">
                    <mask id="mask-2" fill="white">
                        <use xlink:href="#path-1"></use>
                    </mask>
                    <g id="Clip-4"></g>
                    <path d="M65.8214578,4.25293284 C31.6838133,4.25293284 3.91101333,31.9232502 3.91101333,65.9344384 C3.91101333,99.9456266 31.6838133,127.616431 65.8214578,127.616431 C99.9591022,127.616431 127.731902,99.9456266 127.731902,65.9344384 C127.731902,31.9232502 99.9591022,4.25293284 65.8214578,4.25293284 M65.8214578,131.51311 C29.5273244,131.51311 -9.77777778e-05,102.094645 -9.77777778e-05,65.9344384 C-9.77777778e-05,29.7742317 29.5273244,0.356253875 65.8214578,0.356253875 C102.115591,0.356253875 131.643013,29.7742317 131.643013,65.9344384 C131.643013,102.094645 102.115591,131.51311 65.8214578,131.51311" id="Fill-3" fill="#8ACAD8" mask="url(#mask-2)"></path>
                </g>
                <path d="M65.8214578,93.0733948 C63.1218133,93.0733948 60.9325689,90.8922288 60.9325689,88.2025461 L60.9325689,43.7161107 C60.9325689,41.026428 63.1218133,38.845262 65.8214578,38.845262 C68.5211022,38.845262 70.7103467,41.026428 70.7103467,43.7161107 L70.7103467,88.2025461 C70.7103467,90.8922288 68.5211022,93.0733948 65.8214578,93.0733948" id="Fill-6" fill="#8ACAD8"></path>
                <path d="M88.1470578,70.8301771 L43.4958578,70.8301771 C40.7962133,70.8301771 38.6069689,68.6490111 38.6069689,65.9593284 C38.6069689,63.2696458 40.7962133,61.0884797 43.4958578,61.0884797 L88.1470578,61.0884797 C90.8467022,61.0884797 93.0359467,63.2696458 93.0359467,65.9593284 C93.0359467,68.6490111 90.8467022,70.8301771 88.1470578,70.8301771" id="Fill-8" fill="#8ACAD8"></path>
            </g>
        </g>
    </g>
</svg>