<?xml version="1.0" encoding="UTF-8"?>
<svg width="152px" height="152px" viewBox="0 0 152 152" version="1.1" xmlns="http://www.w3.org/2000/svg" xmlns:xlink="http://www.w3.org/1999/xlink">
    <!-- Generator: Sketch 49.3 (51167) - http://www.bohemiancoding.com/sketch -->
    <title>greetings</title>
    <desc>Created with Sketch.</desc>
    <defs>
        <linearGradient x1="90.9363058%" y1="18.9568843%" x2="39.368198%" y2="100%" id="linearGradient-1">
            <stop stop-color="#F9E877" offset="0%"></stop>
            <stop stop-color="#EFD154" offset="100%"></stop>
        </linearGradient>
        <rect id="path-2" x="0" y="0" width="140" height="140" rx="10"></rect>
        <filter x="-5.4%" y="-5.4%" width="115.0%" height="115.0%" filterUnits="objectBoundingBox" id="filter-3">
            <feOffset dx="3" dy="3" in="SourceAlpha" result="shadowOffsetOuter1"></feOffset>
            <feGaussianBlur stdDeviation="3" in="shadowOffsetOuter1" result="shadowBlurOuter1"></feGaussianBlur>
            <feColorMatrix values="0 0 0 0 0.937254902   0 0 0 0 0.819607843   0 0 0 0 0.329411765  0 0 0 0.25 0" type="matrix" in="shadowBlurOuter1"></feColorMatrix>
        </filter>
    </defs>
    <g id="iOS-App" stroke="none" stroke-width="1" fill="none" fill-rule="evenodd">
        <g id="Parents-Dashboard-Copy" transform="translate(-177.000000, -248.000000)">
            <g id="greetings" transform="translate(180.000000, 251.000000)">
                <g id="Rectangle-4-Copy-2">
                    <use fill="black" fill-opacity="1" filter="url(#filter-3)" xlink:href="#path-2"></use>
                    <use fill="url(#linearGradient-1)" fill-rule="evenodd" xlink:href="#path-2"></use>
                </g>
                <g id="Group-4" transform="translate(7.000000, 99.000000)">
                    <g id="Group-3" fill="#FFFFFF">
                        <path d="M10.168,10.272 C10.2693338,10.3680005 10.32,10.5013325 10.32,10.672 L10.32,14.656 C10.32,14.9120013 10.2800004,15.1039994 10.2,15.232 C10.1199996,15.3600006 9.9733344,15.461333 9.76,15.536 C9.3333312,15.7173342 8.81600304,15.8613328 8.208,15.968 C7.59999696,16.0746672 6.99200304,16.128 6.384,16.128 C5.2639944,16.128 4.29867072,15.898669 3.488,15.44 C2.67732928,14.981331 2.05600216,14.3200043 1.624,13.456 C1.19199784,12.5919957 0.976,11.5573394 0.976,10.352 C0.976,9.16799408 1.1893312,8.14400432 1.616,7.28 C2.0426688,6.41599568 2.655996,5.75200232 3.456,5.288 C4.256004,4.82399768 5.19466128,4.592 6.272,4.592 C7.0186704,4.592 7.7119968,4.70666552 8.352,4.936 C8.9920032,5.16533448 9.53066448,5.4933312 9.968,5.92 C10.1493342,6.10133424 10.24,6.28799904 10.24,6.48 C10.24,6.62933408 10.1973338,6.75999944 10.112,6.872 C10.0266662,6.98400056 9.92000064,7.04 9.792,7.04 C9.66399936,7.04 9.51466752,6.97600064 9.344,6.848 C8.78933056,6.4213312 8.28800224,6.12533416 7.84,5.96 C7.39199776,5.79466584 6.8746696,5.712 6.288,5.712 C5.01866032,5.712 4.04533672,6.111996 3.368,6.912 C2.69066328,7.712004 2.352,8.8586592 2.352,10.352 C2.352,11.877341 2.69599656,13.0373294 3.384,13.832 C4.07200344,14.6266706 5.08266,15.024 6.416,15.024 C7.40800496,15.024 8.30932928,14.8746682 9.12,14.576 L9.12,11.152 L6.784,11.152 C6.60266576,11.152 6.4586672,11.1040005 6.352,11.008 C6.2453328,10.9119995 6.192,10.7893341 6.192,10.64 C6.192,10.4799992 6.2453328,10.3546671 6.352,10.264 C6.4586672,10.1733329 6.60266576,10.128 6.784,10.128 L9.776,10.128 C9.9360008,10.128 10.0666662,10.1759995 10.168,10.272 Z M17.312,8.592 C17.312,8.76266752 17.2640005,8.89866616 17.168,9 C17.0719995,9.10133384 16.9066678,9.16266656 16.672,9.184 L16.192,9.232 C15.4773298,9.29600032 14.9466684,9.54933112 14.6,9.992 C14.2533316,10.4346689 14.08,10.9546637 14.08,11.552 L14.08,15.44 C14.08,15.6533344 14.0213339,15.8133328 13.904,15.92 C13.7866661,16.0266672 13.632001,16.08 13.44,16.08 C13.247999,16.08 13.0906673,16.0240006 12.968,15.912 C12.8453327,15.7999994 12.784,15.6426677 12.784,15.44 L12.784,8.688 C12.784,8.48533232 12.8479994,8.32800056 12.976,8.216 C13.1040006,8.10399944 13.2586658,8.048 13.44,8.048 C13.6106675,8.048 13.7546661,8.10399944 13.872,8.216 C13.9893339,8.32800056 14.048,8.47999904 14.048,8.672 L14.048,9.568 C14.2720011,9.09866432 14.5893313,8.74133456 15,8.496 C15.4106687,8.25066544 15.882664,8.10666688 16.416,8.064 L16.64,8.048 C17.0880022,8.01599984 17.312,8.19733136 17.312,8.592 Z M24.768,14.336 C24.8533338,14.4320005 24.896,14.5546659 24.896,14.704 C24.896,14.970668 24.7093352,15.2159989 24.336,15.44 C23.9519981,15.6640011 23.5466688,15.8319994 23.12,15.944 C22.6933312,16.0560006 22.2773354,16.112 21.872,16.112 C20.6666606,16.112 19.7146702,15.7546702 19.016,15.04 C18.3173298,14.3253298 17.968,13.338673 17.968,12.08 C17.968,11.279996 18.1226651,10.5733364 18.432,9.96 C18.7413349,9.3466636 19.1759972,8.86933504 19.736,8.528 C20.2960028,8.18666496 20.9333298,8.016 21.648,8.016 C22.6613384,8.016 23.4666637,8.34666336 24.064,9.008 C24.6613363,9.66933664 24.96,10.5653277 24.96,11.696 C24.96,11.9093344 24.9173338,12.0639995 24.832,12.16 C24.7466662,12.2560005 24.608001,12.304 24.416,12.304 L19.264,12.304 C19.3600005,14.1386758 20.2293251,15.056 21.872,15.056 C22.2880021,15.056 22.6453318,15.0000006 22.944,14.888 C23.2426682,14.7759994 23.562665,14.624001 23.904,14.432 C24.1813347,14.2719992 24.3679995,14.192 24.464,14.192 C24.5813339,14.192 24.6826662,14.2399995 24.768,14.336 Z M20.024,9.664 C19.6133313,10.0906688 19.370667,10.6933294 19.296,11.472 L23.824,11.472 C23.8026666,10.6826627 23.6053352,10.0773354 23.232,9.656 C22.8586648,9.23466456 22.3360034,9.024 21.664,9.024 C20.9813299,9.024 20.4346687,9.2373312 20.024,9.664 Z M33.2,14.336 C33.2853338,14.4320005 33.328,14.5546659 33.328,14.704 C33.328,14.970668 33.1413352,15.2159989 32.768,15.44 C32.3839981,15.6640011 31.9786688,15.8319994 31.552,15.944 C31.1253312,16.0560006 30.7093354,16.112 30.304,16.112 C29.0986606,16.112 28.1466702,15.7546702 27.448,15.04 C26.7493298,14.3253298 26.4,13.338673 26.4,12.08 C26.4,11.279996 26.5546651,10.5733364 26.864,9.96 C27.1733349,9.3466636 27.6079972,8.86933504 28.168,8.528 C28.7280028,8.18666496 29.3653298,8.016 30.08,8.016 C31.0933384,8.016 31.8986637,8.34666336 32.496,9.008 C33.0933363,9.66933664 33.392,10.5653277 33.392,11.696 C33.392,11.9093344 33.3493338,12.0639995 33.264,12.16 C33.1786662,12.2560005 33.040001,12.304 32.848,12.304 L27.696,12.304 C27.7920005,14.1386758 28.6613251,15.056 30.304,15.056 C30.7200021,15.056 31.0773318,15.0000006 31.376,14.888 C31.6746682,14.7759994 31.994665,14.624001 32.336,14.432 C32.6133347,14.2719992 32.7999995,14.192 32.896,14.192 C33.0133339,14.192 33.1146662,14.2399995 33.2,14.336 Z M28.456,9.664 C28.0453313,10.0906688 27.802667,10.6933294 27.728,11.472 L32.256,11.472 C32.2346666,10.6826627 32.0373352,10.0773354 31.664,9.656 C31.2906648,9.23466456 30.7680034,9.024 30.096,9.024 C29.4133299,9.024 28.8666687,9.2373312 28.456,9.664 Z M39.456,15.568 C39.456,15.7493342 39.389334,15.8853329 39.256,15.976 C39.122666,16.0666671 38.922668,16.1013334 38.656,16.08 L38.224,16.048 C37.3706624,15.9839997 36.7413354,15.7280022 36.336,15.28 C35.9306646,14.8319978 35.728,14.1546712 35.728,13.248 L35.728,9.232 L34.656,9.232 C34.4746658,9.232 34.3333338,9.18666712 34.232,9.096 C34.1306662,9.00533288 34.08,8.88533408 34.08,8.736 C34.08,8.5759992 34.1306662,8.44800048 34.232,8.352 C34.3333338,8.25599952 34.4746658,8.208 34.656,8.208 L35.728,8.208 L35.728,6.4 C35.728,6.19733232 35.7866661,6.04000056 35.904,5.928 C36.0213339,5.81599944 36.1813323,5.76 36.384,5.76 C36.576001,5.76 36.7306661,5.81599944 36.848,5.928 C36.9653339,6.04000056 37.024,6.19733232 37.024,6.4 L37.024,8.208 L38.8,8.208 C38.9706675,8.208 39.1066662,8.25599952 39.208,8.352 C39.3093338,8.44800048 39.36,8.5759992 39.36,8.736 C39.36,8.88533408 39.3093338,9.00533288 39.208,9.096 C39.1066662,9.18666712 38.9706675,9.232 38.8,9.232 L37.024,9.232 L37.024,13.312 C37.024,13.8986696 37.1439988,14.3226654 37.384,14.584 C37.6240012,14.8453346 37.9839976,14.9919998 38.464,15.024 L38.896,15.056 C39.2693352,15.0880002 39.456,15.2586651 39.456,15.568 Z M40.92,15.912 C40.7973327,15.7999994 40.736,15.6426677 40.736,15.44 L40.736,8.688 C40.736,8.48533232 40.7973327,8.32800056 40.92,8.216 C41.0426673,8.10399944 41.199999,8.048 41.392,8.048 C41.584001,8.048 41.7386661,8.10399944 41.856,8.216 C41.9733339,8.32800056 42.032,8.48533232 42.032,8.688 L42.032,15.44 C42.032,15.6533344 41.9733339,15.8133328 41.856,15.92 C41.7386661,16.0266672 41.584001,16.08 41.392,16.08 C41.199999,16.08 41.0426673,16.0240006 40.92,15.912 Z M40.768,6.144 C40.6079992,5.99466592 40.528,5.79733456 40.528,5.552 C40.528,5.31733216 40.6079992,5.12533408 40.768,4.976 C40.9280008,4.82666592 41.1359987,4.752 41.392,4.752 C41.6480013,4.752 41.8559992,4.82666592 42.016,4.976 C42.1760008,5.12533408 42.256,5.31733216 42.256,5.552 C42.256,5.79733456 42.1760008,5.99466592 42.016,6.144 C41.8559992,6.29333408 41.6480013,6.368 41.392,6.368 C41.1359987,6.368 40.9280008,6.29333408 40.768,6.144 Z M51.168,11.104 L51.168,15.44 C51.168,15.6426677 51.1120006,15.7999994 51,15.912 C50.8879994,16.0240006 50.7306677,16.08 50.528,16.08 C50.3253323,16.08 50.1653339,16.0240006 50.048,15.912 C49.9306661,15.7999994 49.872,15.6426677 49.872,15.44 L49.872,11.184 C49.872,10.458663 49.7306681,9.93066832 49.448,9.6 C49.1653319,9.26933168 48.7146698,9.104 48.096,9.104 C47.3813298,9.104 46.8106688,9.32266448 46.384,9.76 C45.9573312,10.1973355 45.744,10.7893296 45.744,11.536 L45.744,15.44 C45.744,15.6426677 45.6880006,15.7999994 45.576,15.912 C45.4639994,16.0240006 45.3066677,16.08 45.104,16.08 C44.9013323,16.08 44.7413339,16.0240006 44.624,15.912 C44.5066661,15.7999994 44.448,15.6426677 44.448,15.44 L44.448,8.688 C44.448,8.49599904 44.5066661,8.34133392 44.624,8.224 C44.7413339,8.10666608 44.9013323,8.048 45.104,8.048 C45.296001,8.048 45.4479994,8.10666608 45.56,8.224 C45.6720006,8.34133392 45.728,8.49066576 45.728,8.672 L45.728,9.488 C45.9840013,9.0079976 46.341331,8.64266792 46.8,8.392 C47.258669,8.14133208 47.7813304,8.016 48.368,8.016 C50.234676,8.016 51.168,9.04532304 51.168,11.104 Z M60.336,8.224 C60.4533339,8.34133392 60.512,8.49599904 60.512,8.688 L60.512,15.472 C60.512,16.6346725 60.2133363,17.511997 59.616,18.104 C59.0186637,18.696003 58.1333392,18.992 56.96,18.992 C55.818661,18.992 54.8693371,18.7680022 54.112,18.32 C53.7279981,18.1066656 53.536,17.8613347 53.536,17.584 C53.536,17.4346659 53.5759996,17.3120005 53.656,17.216 C53.7360004,17.1199995 53.8399994,17.072 53.968,17.072 C54.0746672,17.072 54.2666653,17.1466659 54.544,17.296 C54.9173352,17.488001 55.2853315,17.6426661 55.648,17.76 C56.0106685,17.8773339 56.4426642,17.936 56.944,17.936 C57.7013371,17.936 58.2719981,17.736002 58.656,17.336 C59.0400019,16.935998 59.232,16.3520038 59.232,15.584 L59.232,14.208 C59.0079989,14.7093358 58.6640023,15.093332 58.2,15.36 C57.7359977,15.626668 57.1893365,15.76 56.56,15.76 C55.8773299,15.76 55.2720026,15.6000016 54.744,15.28 C54.2159974,14.9599984 53.8053348,14.5066696 53.512,13.92 C53.2186652,13.3333304 53.072,12.6560038 53.072,11.888 C53.072,11.1199962 53.2186652,10.4426696 53.512,9.856 C53.8053348,9.2693304 54.2159974,8.8160016 54.744,8.496 C55.2720026,8.1759984 55.8773299,8.016 56.56,8.016 C57.1786698,8.016 57.717331,8.149332 58.176,8.416 C58.634669,8.682668 58.9813322,9.06133088 59.216,9.552 L59.216,8.688 C59.216,8.49599904 59.2719994,8.34133392 59.384,8.224 C59.4960006,8.10666608 59.6533323,8.048 59.856,8.048 C60.0586677,8.048 60.2186661,8.10666608 60.336,8.224 Z M58.576,13.944 C59.0026688,13.4479975 59.216,12.762671 59.216,11.888 C59.216,11.0239957 59.0053354,10.3440025 58.584,9.848 C58.1626646,9.35199752 57.5733371,9.104 56.816,9.104 C56.0586629,9.104 55.4640022,9.35199752 55.032,9.848 C54.5999978,10.3440025 54.384,11.0239957 54.384,11.888 C54.384,12.762671 54.5999978,13.4479975 55.032,13.944 C55.4640022,14.4400025 56.0586629,14.688 56.816,14.688 C57.5626704,14.688 58.1493312,14.4400025 58.576,13.944 Z M64.136,15.936 C63.6933311,15.8186661 63.301335,15.6533344 62.96,15.44 C62.767999,15.3119994 62.6320004,15.1920006 62.552,15.08 C62.4719996,14.9679994 62.432,14.8320008 62.432,14.672 C62.432,14.5333326 62.4719996,14.4186671 62.552,14.328 C62.6320004,14.2373329 62.7359994,14.192 62.864,14.192 C62.9920006,14.192 63.1786654,14.2719992 63.424,14.432 C63.7440016,14.624001 64.0613318,14.7759994 64.376,14.888 C64.6906682,15.0000006 65.0826643,15.056 65.552,15.056 C66.1280029,15.056 66.5759984,14.9546677 66.896,14.752 C67.2160016,14.5493323 67.376,14.2560019 67.376,13.872 C67.376,13.6373322 67.3173339,13.4480007 67.2,13.304 C67.0826661,13.1599993 66.8800014,13.0320006 66.592,12.92 C66.3039986,12.8079994 65.8826694,12.6933339 65.328,12.576 C64.3893286,12.3733323 63.7173354,12.101335 63.312,11.76 C62.9066646,11.418665 62.704,10.9546696 62.704,10.368 C62.704,9.90933104 62.8319987,9.50400176 63.088,9.152 C63.3440013,8.79999824 63.6986644,8.52266768 64.152,8.32 C64.6053356,8.11733232 65.1199971,8.016 65.696,8.016 C66.1120021,8.016 66.5146647,8.07199944 66.904,8.184 C67.2933353,8.29600056 67.6373318,8.45333232 67.936,8.656 C68.2986685,8.91200128 68.48,9.17866528 68.48,9.456 C68.48,9.59466736 68.4373338,9.71199952 68.352,9.808 C68.2666662,9.90400048 68.1653339,9.952 68.048,9.952 C67.9199994,9.952 67.7280013,9.86133424 67.472,9.68 C67.1733318,9.48799904 66.890668,9.3386672 66.624,9.232 C66.357332,9.1253328 66.0266686,9.072 65.632,9.072 C65.1306642,9.072 64.7280015,9.18399888 64.424,9.408 C64.1199985,9.63200112 63.968,9.9306648 63.968,10.304 C63.968,10.5386678 64.0239994,10.7279993 64.136,10.872 C64.2480006,11.0160007 64.4346654,11.1439994 64.696,11.256 C64.9573346,11.3680006 65.3333309,11.4773328 65.824,11.584 C66.549337,11.7440008 67.111998,11.919999 67.512,12.112 C67.912002,12.304001 68.1973325,12.5386653 68.368,12.816 C68.5386675,13.0933347 68.624,13.4453312 68.624,13.872 C68.624,14.5440034 68.3413362,15.0853313 67.776,15.496 C67.2106638,15.9066687 66.4640046,16.112 65.536,16.112 C65.0453309,16.112 64.5786689,16.0533339 64.136,15.936 Z" id="Greetings"></path>
                        <path d="M6.24,28.28 C6.3200004,28.3520004 6.36,28.4519994 6.36,28.58 C6.36,28.7160007 6.32200038,28.8199996 6.246,28.892 C6.16999962,28.9640004 6.05600076,29 5.904,29 L1.932,29 C1.77999924,29 1.66600038,28.9640004 1.59,28.892 C1.51399962,28.8199996 1.476,28.7160007 1.476,28.58 C1.476,28.4519994 1.5159996,28.3520004 1.596,28.28 C1.6760004,28.2079996 1.78799928,28.172 1.932,28.172 L3.42,28.172 L3.42,21.74 L2.112,22.592 C2.04799968,22.6320002 1.98400032,22.652 1.92,22.652 C1.80799944,22.652 1.71000042,22.6000005 1.626,22.496 C1.54199958,22.3919995 1.5,22.2800006 1.5,22.16 C1.5,21.9919992 1.56399936,21.8720004 1.692,21.8 L3.516,20.612 C3.65200068,20.5239996 3.79199928,20.48 3.936,20.48 C4.07200068,20.48 4.18399956,20.5239996 4.272,20.612 C4.36000044,20.7000004 4.404,20.8239992 4.404,20.984 L4.404,28.172 L5.904,28.172 C6.04800072,28.172 6.1599996,28.2079996 6.24,28.28 Z M8.592,27.992 C8.08799748,27.2559963 7.836,26.184007 7.836,24.776 C7.836,23.3599929 8.08799748,22.2840037 8.592,21.548 C9.09600252,20.8119963 9.83199516,20.444 10.8,20.444 C11.7680048,20.444 12.5039975,20.8099963 13.008,21.542 C13.5120025,22.2740037 13.764,23.3479929 13.764,24.764 C13.764,26.1800071 13.5120025,27.2559963 13.008,27.992 C12.5039975,28.7280037 11.7680048,29.096 10.8,29.096 C9.83199516,29.096 9.09600252,28.7280037 8.592,27.992 Z M12.288,27.416 C12.6080016,26.8479972 12.768,25.964006 12.768,24.764 C12.768,23.555994 12.6100016,22.6720028 12.294,22.112 C11.9779984,21.5519972 11.4800034,21.272 10.8,21.272 C10.1279966,21.272 9.6320016,21.5539972 9.312,22.118 C8.9919984,22.6820028 8.832,23.563994 8.832,24.764 C8.832,25.964006 8.9919984,26.8479972 9.312,27.416 C9.6320016,27.9840028 10.1279966,28.268 10.8,28.268 C11.4720034,28.268 11.9679984,27.9840028 12.288,27.416 Z M19.314,28.952 C18.9819983,28.8639996 18.6880013,28.7400008 18.432,28.58 C18.2879993,28.4839995 18.1860003,28.3940004 18.126,28.31 C18.0659997,28.2259996 18.036,28.1240006 18.036,28.004 C18.036,27.8999995 18.0659997,27.8140003 18.126,27.746 C18.1860003,27.6779997 18.2639995,27.644 18.36,27.644 C18.4560005,27.644 18.5959991,27.7039994 18.78,27.824 C19.0200012,27.9680007 19.2579988,28.0819996 19.494,28.166 C19.7300012,28.2500004 20.0239982,28.292 20.376,28.292 C20.8080022,28.292 21.1439988,28.2160008 21.384,28.064 C21.6240012,27.9119992 21.744,27.6920014 21.744,27.404 C21.744,27.2279991 21.7000004,27.0860005 21.612,26.978 C21.5239996,26.8699995 21.3720011,26.7740004 21.156,26.69 C20.9399989,26.6059996 20.6240021,26.5200004 20.208,26.432 C19.5039965,26.2799992 19.0000015,26.0760013 18.696,25.82 C18.3919985,25.5639987 18.24,25.2160022 18.24,24.776 C18.24,24.4319983 18.335999,24.1280013 18.528,23.864 C18.720001,23.5999987 18.9859983,23.3920008 19.326,23.24 C19.6660017,23.0879992 20.0519978,23.012 20.484,23.012 C20.7960016,23.012 21.0979985,23.0539996 21.39,23.138 C21.6820015,23.2220004 21.9399989,23.3399992 22.164,23.492 C22.4360014,23.684001 22.572,23.883999 22.572,24.092 C22.572,24.1960005 22.5400003,24.2839996 22.476,24.356 C22.4119997,24.4280004 22.3360004,24.464 22.248,24.464 C22.1519995,24.464 22.008001,24.3960007 21.816,24.26 C21.5919989,24.1159993 21.380001,24.0040004 21.18,23.924 C20.979999,23.8439996 20.7320015,23.804 20.436,23.804 C20.0599981,23.804 19.7580011,23.8879992 19.53,24.056 C19.3019989,24.2240008 19.188,24.4479986 19.188,24.728 C19.188,24.9040009 19.2299996,25.0459995 19.314,25.154 C19.3980004,25.2620005 19.537999,25.3579996 19.734,25.442 C19.930001,25.5260004 20.2119982,25.6079996 20.58,25.688 C21.1240027,25.8080006 21.5459985,25.9399993 21.846,26.084 C22.1460015,26.2280007 22.3599994,26.403999 22.488,26.612 C22.6160006,26.820001 22.68,27.0839984 22.68,27.404 C22.68,27.9080025 22.4680021,28.3139985 22.044,28.622 C21.6199979,28.9300015 21.0600035,29.084 20.364,29.084 C19.9959982,29.084 19.6460017,29.0400004 19.314,28.952 Z M24.294,28.934 C24.2019995,28.8499996 24.156,28.7320008 24.156,28.58 L24.156,23.516 C24.156,23.3639992 24.2019995,23.2460004 24.294,23.162 C24.3860005,23.0779996 24.5039993,23.036 24.648,23.036 C24.7920007,23.036 24.9079996,23.0779996 24.996,23.162 C25.0840004,23.2460004 25.128,23.3639992 25.128,23.516 L25.128,28.58 C25.128,28.7400008 25.0840004,28.8599996 24.996,28.94 C24.9079996,29.0200004 24.7920007,29.06 24.648,29.06 C24.5039993,29.06 24.3860005,29.0180004 24.294,28.934 Z M24.18,21.608 C24.0599994,21.4959994 24,21.3480009 24,21.164 C24,20.9879991 24.0599994,20.8440006 24.18,20.732 C24.3000006,20.6199994 24.455999,20.564 24.648,20.564 C24.840001,20.564 24.9959994,20.6199994 25.116,20.732 C25.2360006,20.8440006 25.296,20.9879991 25.296,21.164 C25.296,21.3480009 25.2360006,21.4959994 25.116,21.608 C24.9959994,21.7200006 24.840001,21.776 24.648,21.776 C24.455999,21.776 24.3000006,21.7200006 24.18,21.608 Z M32.04,23.168 C32.1280004,23.2560004 32.172,23.3719993 32.172,23.516 L32.172,28.604 C32.172,29.4760044 31.9480022,30.1339978 31.5,30.578 C31.0519978,31.0220022 30.3880044,31.244 29.508,31.244 C28.6519957,31.244 27.9400028,31.0760017 27.372,30.74 C27.0839986,30.5799992 26.94,30.396001 26.94,30.188 C26.94,30.0759994 26.9699997,29.9840004 27.03,29.912 C27.0900003,29.8399996 27.1679995,29.804 27.264,29.804 C27.3440004,29.804 27.487999,29.8599994 27.696,29.972 C27.9760014,30.1160007 28.2519986,30.2319996 28.524,30.32 C28.7960014,30.4080004 29.1199981,30.452 29.496,30.452 C30.0640028,30.452 30.4919986,30.3020015 30.78,30.002 C31.0680014,29.7019985 31.212,29.2640029 31.212,28.688 L31.212,27.656 C31.0439992,28.0320019 30.7860017,28.319999 30.438,28.52 C30.0899983,28.720001 29.6800024,28.82 29.208,28.82 C28.6959974,28.82 28.242002,28.7000012 27.846,28.46 C27.449998,28.2199988 27.1420011,27.8800022 26.922,27.44 C26.7019989,26.9999978 26.592,26.4920029 26.592,25.916 C26.592,25.3399971 26.7019989,24.8320022 26.922,24.392 C27.1420011,23.9519978 27.449998,23.6120012 27.846,23.372 C28.242002,23.1319988 28.6959974,23.012 29.208,23.012 C29.6720023,23.012 30.0759983,23.111999 30.42,23.312 C30.7640017,23.512001 31.0239991,23.7959982 31.2,24.164 L31.2,23.516 C31.2,23.3719993 31.2419996,23.2560004 31.326,23.168 C31.4100004,23.0799996 31.5279992,23.036 31.68,23.036 C31.8320008,23.036 31.9519996,23.0799996 32.04,23.168 Z M30.72,27.458 C31.0400016,27.0859981 31.2,26.5720033 31.2,25.916 C31.2,25.2679968 31.0420016,24.7580019 30.726,24.386 C30.4099984,24.0139981 29.9680028,23.828 29.4,23.828 C28.8319972,23.828 28.3860016,24.0139981 28.062,24.386 C27.7379984,24.7580019 27.576,25.2679968 27.576,25.916 C27.576,26.5720033 27.7379984,27.0859981 28.062,27.458 C28.3860016,27.8300019 28.8319972,28.016 29.4,28.016 C29.9600028,28.016 30.3999984,27.8300019 30.72,27.458 Z M39.012,25.328 L39.012,28.58 C39.012,28.7320008 38.9700004,28.8499996 38.886,28.934 C38.8019996,29.0180004 38.6840008,29.06 38.532,29.06 C38.3799992,29.06 38.2600004,29.0180004 38.172,28.934 C38.0839996,28.8499996 38.04,28.7320008 38.04,28.58 L38.04,25.388 C38.04,24.8439973 37.9340011,24.4480012 37.722,24.2 C37.5099989,23.9519988 37.1720023,23.828 36.708,23.828 C36.1719973,23.828 35.7440016,23.9919984 35.424,24.32 C35.1039984,24.6480016 34.944,25.0919972 34.944,25.652 L34.944,28.58 C34.944,28.7320008 34.9020004,28.8499996 34.818,28.934 C34.7339996,29.0180004 34.6160008,29.06 34.464,29.06 C34.3119992,29.06 34.1920004,29.0180004 34.104,28.934 C34.0159996,28.8499996 33.972,28.7320008 33.972,28.58 L33.972,23.516 C33.972,23.3719993 34.0159996,23.2560004 34.104,23.168 C34.1920004,23.0799996 34.3119992,23.036 34.464,23.036 C34.6080007,23.036 34.7219996,23.0799996 34.806,23.168 C34.8900004,23.2560004 34.932,23.3679993 34.932,23.504 L34.932,24.116 C35.124001,23.7559982 35.3919983,23.4820009 35.736,23.294 C36.0800017,23.1059991 36.4719978,23.012 36.912,23.012 C38.312007,23.012 39.012,23.7839923 39.012,25.328 Z M41.706,28.952 C41.3739983,28.8639996 41.0800013,28.7400008 40.824,28.58 C40.6799993,28.4839995 40.5780003,28.3940004 40.518,28.31 C40.4579997,28.2259996 40.428,28.1240006 40.428,28.004 C40.428,27.8999995 40.4579997,27.8140003 40.518,27.746 C40.5780003,27.6779997 40.6559995,27.644 40.752,27.644 C40.8480005,27.644 40.9879991,27.7039994 41.172,27.824 C41.4120012,27.9680007 41.6499988,28.0819996 41.886,28.166 C42.1220012,28.2500004 42.4159982,28.292 42.768,28.292 C43.2000022,28.292 43.5359988,28.2160008 43.776,28.064 C44.0160012,27.9119992 44.136,27.6920014 44.136,27.404 C44.136,27.2279991 44.0920004,27.0860005 44.004,26.978 C43.9159996,26.8699995 43.7640011,26.7740004 43.548,26.69 C43.3319989,26.6059996 43.0160021,26.5200004 42.6,26.432 C41.8959965,26.2799992 41.3920015,26.0760013 41.088,25.82 C40.7839985,25.5639987 40.632,25.2160022 40.632,24.776 C40.632,24.4319983 40.727999,24.1280013 40.92,23.864 C41.112001,23.5999987 41.3779983,23.3920008 41.718,23.24 C42.0580017,23.0879992 42.4439978,23.012 42.876,23.012 C43.1880016,23.012 43.4899985,23.0539996 43.782,23.138 C44.0740015,23.2220004 44.3319989,23.3399992 44.556,23.492 C44.8280014,23.684001 44.964,23.883999 44.964,24.092 C44.964,24.1960005 44.9320003,24.2839996 44.868,24.356 C44.8039997,24.4280004 44.7280004,24.464 44.64,24.464 C44.5439995,24.464 44.400001,24.3960007 44.208,24.26 C43.9839989,24.1159993 43.772001,24.0040004 43.572,23.924 C43.371999,23.8439996 43.1240015,23.804 42.828,23.804 C42.4519981,23.804 42.1500011,23.8879992 41.922,24.056 C41.6939989,24.2240008 41.58,24.4479986 41.58,24.728 C41.58,24.9040009 41.6219996,25.0459995 41.706,25.154 C41.7900004,25.2620005 41.929999,25.3579996 42.126,25.442 C42.322001,25.5260004 42.6039982,25.6079996 42.972,25.688 C43.5160027,25.8080006 43.9379985,25.9399993 44.238,26.084 C44.5380015,26.2280007 44.7519994,26.403999 44.88,26.612 C45.0080006,26.820001 45.072,27.0839984 45.072,27.404 C45.072,27.9080025 44.8600021,28.3139985 44.436,28.622 C44.0119979,28.9300015 43.4520035,29.084 42.756,29.084 C42.3879982,29.084 42.0380017,29.0400004 41.706,28.952 Z" id="10-signs"></path>
                    </g>
                    <g id="buy-button" transform="translate(82.000000, 9.000000)">
                        <rect id="Rectangle-5" fill="#FFFFFF" x="0" y="0" width="44" height="16" rx="8"></rect>
                        <path d="M17.5065,8.678 C17.7521679,9.00066828 17.875,9.40399758 17.875,9.888 C17.875,10.5553367 17.6458356,11.0741648 17.1875,11.4445 C16.7291644,11.8148352 16.0893374,12 15.268,12 L12.463,12 C12.2869991,12 12.1495005,11.9505005 12.0505,11.8515 C11.9514995,11.7524995 11.902,11.6186675 11.902,11.45 L11.902,4.795 C11.902,4.62633249 11.9514995,4.4925005 12.0505,4.3935 C12.1495005,4.29449951 12.2869991,4.245 12.463,4.245 L15.147,4.245 C15.9463373,4.245 16.5714977,4.42283156 17.0225,4.7785 C17.4735023,5.13416845 17.699,5.63099681 17.699,6.269 C17.699,6.67966872 17.5908344,7.03533183 17.3745,7.336 C17.1581656,7.63666817 16.8556686,7.8603326 16.467,8.007 C16.9143356,8.13166729 17.2608321,8.35533172 17.5065,8.678 Z M13.013,7.6 L14.971,7.6 C16.0563388,7.6 16.599,7.18933744 16.599,6.368 C16.599,5.95733128 16.465168,5.65300099 16.1975,5.455 C15.929832,5.25699901 15.5210027,5.158 14.971,5.158 L13.013,5.158 L13.013,7.6 Z M16.39,10.779 C16.6540013,10.5736656 16.786,10.2546688 16.786,9.822 C16.786,9.3819978 16.652168,9.05383442 16.3845,8.8375 C16.116832,8.62116558 15.7043361,8.513 15.147,8.513 L13.013,8.513 L13.013,11.087 L15.147,11.087 C15.7116695,11.087 16.1259987,10.9843344 16.39,10.779 Z M20.108,11.285 C19.572664,10.749664 19.305,9.96133854 19.305,8.92 L19.305,4.762 C19.305,4.58599912 19.3563328,4.44666718 19.459,4.344 C19.5616672,4.24133282 19.6973325,4.19 19.866,4.19 C20.0346675,4.19 20.1703328,4.24133282 20.273,4.344 C20.3756672,4.44666718 20.427,4.58599912 20.427,4.762 L20.427,8.997 C20.427,9.70833689 20.5974983,10.2473315 20.9385,10.614 C21.2795017,10.9806685 21.78733,11.164 22.462,11.164 C23.1293367,11.164 23.6353316,10.9806685 23.98,10.614 C24.3246684,10.2473315 24.497,9.70833689 24.497,8.997 L24.497,4.762 C24.497,4.59333249 24.5483328,4.45583387 24.651,4.3495 C24.7536672,4.24316614 24.8893325,4.19 25.058,4.19 C25.2266675,4.19 25.3623328,4.24133282 25.465,4.344 C25.5676672,4.44666718 25.619,4.58599912 25.619,4.762 L25.619,8.92 C25.619,9.95400517 25.3495027,10.7404973 24.8105,11.2795 C24.2714973,11.8185027 23.4886718,12.088 22.462,12.088 C21.4279948,12.088 20.643336,11.820336 20.108,11.285 Z M32.604,4.19 C32.7360007,4.19 32.8551661,4.24316614 32.9615,4.3495 C33.0678339,4.45583387 33.121,4.57866597 33.121,4.718 C33.121,4.85000066 33.0770004,4.96366619 32.989,5.059 L30.393,8.293 L30.393,11.483 C30.393,11.6663343 30.3398339,11.8074995 30.2335,11.9065 C30.1271661,12.0055005 29.9896675,12.055 29.821,12.055 C29.6523325,12.055 29.5166672,12.0055005 29.414,11.9065 C29.3113328,11.8074995 29.26,11.6663343 29.26,11.483 L29.26,8.293 L26.664,5.059 C26.5759996,4.96366619 26.532,4.84633403 26.532,4.707 C26.532,4.56766597 26.5833328,4.44666718 26.686,4.344 C26.7886672,4.24133282 26.909666,4.19 27.049,4.19 C27.1956674,4.19 27.3239994,4.25599934 27.434,4.388 L29.832,7.402 L32.219,4.388 C32.3216672,4.25599934 32.4499992,4.19 32.604,4.19 Z" id="BUY" fill="#290E54"></path>
                    </g>
                </g>
            </g>
        </g>
    </g>
</svg>