<?xml version="1.0" encoding="utf-8"?>
<!-- Generator: Adobe Illustrator 22.0.1, SVG Export Plug-In . SVG Version: 6.00 Build 0)  -->
<svg version="1.1" id="Layer_1" xmlns="http://www.w3.org/2000/svg" xmlns:xlink="http://www.w3.org/1999/xlink" x="0px" y="0px"
	 viewBox="0 0 100.8 133.7" style="enable-background:new 0 0 100.8 133.7;" xml:space="preserve">
<style type="text/css">
	.st0{fill:#FF7E88;}
	.st1{fill:#FFBE84;}
	.st2{fill:#FF9267;}
	.st3{opacity:0.3;}
	.st4{clip-path:url(#SVGID_2_);fill:#C1815D;}
	.st5{clip-path:url(#SVGID_2_);fill:#C2825D;}
	.st6{clip-path:url(#SVGID_2_);fill:#C2825E;}
	.st7{clip-path:url(#SVGID_2_);fill:#C3835E;}
	.st8{clip-path:url(#SVGID_2_);fill:#C4845F;}
	.st9{clip-path:url(#SVGID_2_);fill:#C58560;}
	.st10{clip-path:url(#SVGID_2_);fill:#C68660;}
	.st11{clip-path:url(#SVGID_2_);fill:#C78761;}
	.st12{clip-path:url(#SVGID_2_);fill:#C88861;}
	.st13{clip-path:url(#SVGID_2_);fill:#C98862;}
	.st14{clip-path:url(#SVGID_2_);fill:#C98962;}
	.st15{clip-path:url(#SVGID_2_);fill:#CA8A63;}
	.st16{clip-path:url(#SVGID_2_);fill:#CB8B63;}
	.st17{clip-path:url(#SVGID_2_);fill:#CC8C64;}
	.st18{clip-path:url(#SVGID_2_);fill:#CD8D65;}
	.st19{clip-path:url(#SVGID_2_);fill:#CE8E65;}
	.st20{clip-path:url(#SVGID_2_);fill:#CF8F66;}
	.st21{clip-path:url(#SVGID_2_);fill:#D09066;}
	.st22{clip-path:url(#SVGID_2_);fill:#D19167;}
	.st23{clip-path:url(#SVGID_2_);fill:#D29268;}
	.st24{clip-path:url(#SVGID_2_);fill:#D39368;}
	.st25{clip-path:url(#SVGID_2_);fill:#D49469;}
	.st26{clip-path:url(#SVGID_2_);fill:#D5956A;}
	.st27{clip-path:url(#SVGID_2_);fill:#D6966A;}
	.st28{clip-path:url(#SVGID_2_);fill:#D7976B;}
	.st29{clip-path:url(#SVGID_2_);fill:#D8986B;}
	.st30{clip-path:url(#SVGID_2_);fill:#D9996C;}
	.st31{clip-path:url(#SVGID_2_);fill:#DA9A6D;}
	.st32{clip-path:url(#SVGID_2_);fill:#DB9B6D;}
	.st33{clip-path:url(#SVGID_2_);fill:#DC9C6E;}
	.st34{clip-path:url(#SVGID_2_);fill:#DD9D6F;}
	.st35{clip-path:url(#SVGID_2_);fill:#DE9E6F;}
	.st36{clip-path:url(#SVGID_2_);fill:#DF9F70;}
	.st37{clip-path:url(#SVGID_2_);fill:#E0A071;}
	.st38{clip-path:url(#SVGID_2_);fill:#E1A171;}
	.st39{clip-path:url(#SVGID_2_);fill:#E3A272;}
	.st40{clip-path:url(#SVGID_2_);fill:#E4A373;}
	.st41{clip-path:url(#SVGID_2_);fill:#E5A473;}
	.st42{clip-path:url(#SVGID_2_);fill:#E6A574;}
	.st43{clip-path:url(#SVGID_2_);fill:#E7A675;}
	.st44{clip-path:url(#SVGID_2_);fill:#E8A776;}
	.st45{clip-path:url(#SVGID_2_);fill:#E9A976;}
	.st46{clip-path:url(#SVGID_2_);fill:#EAAA77;}
	.st47{clip-path:url(#SVGID_2_);fill:#EBAB78;}
	.st48{clip-path:url(#SVGID_2_);fill:#EDAC78;}
	.st49{clip-path:url(#SVGID_2_);fill:#EEAD79;}
	.st50{clip-path:url(#SVGID_2_);fill:#EFAE7A;}
	.st51{clip-path:url(#SVGID_2_);fill:#F0AF7B;}
	.st52{clip-path:url(#SVGID_2_);fill:#F1B07B;}
	.st53{clip-path:url(#SVGID_2_);fill:#F2B17C;}
	.st54{clip-path:url(#SVGID_2_);fill:#F3B37D;}
	.st55{clip-path:url(#SVGID_2_);fill:#F4B47D;}
	.st56{clip-path:url(#SVGID_2_);fill:#F6B57E;}
	.st57{clip-path:url(#SVGID_2_);fill:#F7B67F;}
	.st58{clip-path:url(#SVGID_2_);fill:#F8B780;}
	.st59{clip-path:url(#SVGID_2_);fill:#F9B880;}
	.st60{clip-path:url(#SVGID_2_);fill:#FAB981;}
	.st61{clip-path:url(#SVGID_2_);fill:#FBBB82;}
	.st62{clip-path:url(#SVGID_2_);fill:#FDBC83;}
	.st63{clip-path:url(#SVGID_2_);fill:#FEBD83;}
	.st64{clip-path:url(#SVGID_2_);fill:#FFBE84;}
	.st65{opacity:0.8;}
	.st66{clip-path:url(#SVGID_4_);fill:#FF9267;}
	.st67{clip-path:url(#SVGID_4_);fill:#FF9367;}
	.st68{clip-path:url(#SVGID_4_);fill:#FF9368;}
	.st69{clip-path:url(#SVGID_4_);fill:#FF9468;}
	.st70{clip-path:url(#SVGID_4_);fill:#FF9569;}
	.st71{clip-path:url(#SVGID_4_);fill:#FF966A;}
	.st72{clip-path:url(#SVGID_4_);fill:#FF976A;}
	.st73{clip-path:url(#SVGID_4_);fill:#FF986B;}
	.st74{clip-path:url(#SVGID_4_);fill:#FF996B;}
	.st75{clip-path:url(#SVGID_4_);fill:#FF9A6C;}
	.st76{clip-path:url(#SVGID_4_);fill:#FF9B6D;}
	.st77{clip-path:url(#SVGID_4_);fill:#FF9C6E;}
	.st78{clip-path:url(#SVGID_4_);fill:#FF9D6F;}
	.st79{clip-path:url(#SVGID_4_);fill:#FF9E6F;}
	.st80{clip-path:url(#SVGID_4_);fill:#FF9F70;}
	.st81{clip-path:url(#SVGID_4_);fill:#FFA071;}
	.st82{clip-path:url(#SVGID_4_);fill:#FFA171;}
	.st83{clip-path:url(#SVGID_4_);fill:#FFA272;}
	.st84{clip-path:url(#SVGID_4_);fill:#FFA473;}
	.st85{clip-path:url(#SVGID_4_);fill:#FFA573;}
	.st86{clip-path:url(#SVGID_4_);fill:#FFA674;}
	.st87{clip-path:url(#SVGID_4_);fill:#FFA775;}
	.st88{clip-path:url(#SVGID_4_);fill:#FFA875;}
	.st89{clip-path:url(#SVGID_4_);fill:#FFA976;}
	.st90{clip-path:url(#SVGID_4_);fill:#FFAA77;}
	.st91{clip-path:url(#SVGID_4_);fill:#FFAB77;}
	.st92{clip-path:url(#SVGID_4_);fill:#FFAC78;}
	.st93{clip-path:url(#SVGID_4_);fill:#FFAD79;}
	.st94{clip-path:url(#SVGID_4_);fill:#FFAE7A;}
	.st95{clip-path:url(#SVGID_4_);fill:#FFAF7A;}
	.st96{clip-path:url(#SVGID_4_);fill:#FFB07B;}
	.st97{clip-path:url(#SVGID_4_);fill:#FFB27C;}
	.st98{clip-path:url(#SVGID_4_);fill:#FFB37D;}
	.st99{clip-path:url(#SVGID_4_);fill:#FFB47D;}
	.st100{clip-path:url(#SVGID_4_);fill:#FFB57E;}
	.st101{clip-path:url(#SVGID_4_);fill:#FFB67F;}
	.st102{clip-path:url(#SVGID_4_);fill:#FFB77F;}
	.st103{clip-path:url(#SVGID_4_);fill:#FFB880;}
	.st104{clip-path:url(#SVGID_4_);fill:#FFB981;}
	.st105{clip-path:url(#SVGID_4_);fill:#FFBB82;}
	.st106{clip-path:url(#SVGID_4_);fill:#FFBC82;}
	.st107{clip-path:url(#SVGID_4_);fill:#FFBD83;}
	.st108{clip-path:url(#SVGID_4_);fill:#FFBE84;}
	.st109{fill:#361E56;}
	.st110{clip-path:url(#SVGID_6_);fill:#FF9267;}
	.st111{clip-path:url(#SVGID_6_);fill:#FF9367;}
	.st112{clip-path:url(#SVGID_6_);fill:#FF9368;}
	.st113{clip-path:url(#SVGID_6_);fill:#FF9468;}
	.st114{clip-path:url(#SVGID_6_);fill:#FF9569;}
	.st115{clip-path:url(#SVGID_6_);fill:#FF966A;}
	.st116{clip-path:url(#SVGID_6_);fill:#FF976A;}
	.st117{clip-path:url(#SVGID_6_);fill:#FF986B;}
	.st118{clip-path:url(#SVGID_6_);fill:#FF996B;}
	.st119{clip-path:url(#SVGID_6_);fill:#FF9A6C;}
	.st120{clip-path:url(#SVGID_6_);fill:#FF9B6D;}
	.st121{clip-path:url(#SVGID_6_);fill:#FF9C6E;}
	.st122{clip-path:url(#SVGID_6_);fill:#FF9D6F;}
	.st123{clip-path:url(#SVGID_6_);fill:#FF9E6F;}
	.st124{clip-path:url(#SVGID_6_);fill:#FF9F70;}
	.st125{clip-path:url(#SVGID_6_);fill:#FFA071;}
	.st126{clip-path:url(#SVGID_6_);fill:#FFA171;}
	.st127{clip-path:url(#SVGID_6_);fill:#FFA272;}
	.st128{clip-path:url(#SVGID_6_);fill:#FFA473;}
	.st129{clip-path:url(#SVGID_6_);fill:#FFA573;}
	.st130{clip-path:url(#SVGID_6_);fill:#FFA674;}
	.st131{clip-path:url(#SVGID_6_);fill:#FFA775;}
	.st132{clip-path:url(#SVGID_6_);fill:#FFA875;}
	.st133{clip-path:url(#SVGID_6_);fill:#FFA976;}
	.st134{clip-path:url(#SVGID_6_);fill:#FFAA77;}
	.st135{clip-path:url(#SVGID_6_);fill:#FFAB77;}
	.st136{clip-path:url(#SVGID_6_);fill:#FFAC78;}
	.st137{clip-path:url(#SVGID_6_);fill:#FFAD79;}
	.st138{clip-path:url(#SVGID_6_);fill:#FFAE7A;}
	.st139{clip-path:url(#SVGID_6_);fill:#FFAF7A;}
	.st140{clip-path:url(#SVGID_6_);fill:#FFB07B;}
	.st141{clip-path:url(#SVGID_6_);fill:#FFB27C;}
	.st142{clip-path:url(#SVGID_6_);fill:#FFB37D;}
	.st143{clip-path:url(#SVGID_6_);fill:#FFB47D;}
	.st144{clip-path:url(#SVGID_6_);fill:#FFB57E;}
	.st145{clip-path:url(#SVGID_6_);fill:#FFB67F;}
	.st146{clip-path:url(#SVGID_6_);fill:#FFB77F;}
	.st147{clip-path:url(#SVGID_6_);fill:#FFB880;}
	.st148{clip-path:url(#SVGID_6_);fill:#FFB981;}
	.st149{clip-path:url(#SVGID_6_);fill:#FFBB82;}
	.st150{clip-path:url(#SVGID_6_);fill:#FFBC82;}
	.st151{clip-path:url(#SVGID_6_);fill:#FFBD83;}
	.st152{clip-path:url(#SVGID_6_);fill:#FFBE84;}
	.st153{opacity:0.15;}
	.st154{clip-path:url(#SVGID_8_);fill:#C1815D;}
	.st155{clip-path:url(#SVGID_8_);fill:#C2825D;}
	.st156{clip-path:url(#SVGID_8_);fill:#C2825E;}
	.st157{clip-path:url(#SVGID_8_);fill:#C3835E;}
	.st158{clip-path:url(#SVGID_8_);fill:#C4845F;}
	.st159{clip-path:url(#SVGID_8_);fill:#C58560;}
	.st160{clip-path:url(#SVGID_8_);fill:#C68660;}
	.st161{clip-path:url(#SVGID_8_);fill:#C78761;}
	.st162{clip-path:url(#SVGID_8_);fill:#C88861;}
	.st163{clip-path:url(#SVGID_8_);fill:#C98862;}
	.st164{clip-path:url(#SVGID_8_);fill:#C98962;}
	.st165{clip-path:url(#SVGID_8_);fill:#CA8A63;}
	.st166{clip-path:url(#SVGID_8_);fill:#CB8B63;}
	.st167{clip-path:url(#SVGID_8_);fill:#CC8C64;}
	.st168{clip-path:url(#SVGID_8_);fill:#CD8D65;}
	.st169{clip-path:url(#SVGID_8_);fill:#CE8E65;}
	.st170{clip-path:url(#SVGID_8_);fill:#CF8F66;}
	.st171{clip-path:url(#SVGID_8_);fill:#D09066;}
	.st172{clip-path:url(#SVGID_8_);fill:#D19167;}
	.st173{clip-path:url(#SVGID_8_);fill:#D29268;}
	.st174{clip-path:url(#SVGID_8_);fill:#D39368;}
	.st175{clip-path:url(#SVGID_8_);fill:#D49469;}
	.st176{clip-path:url(#SVGID_8_);fill:#D5956A;}
	.st177{clip-path:url(#SVGID_8_);fill:#D6966A;}
	.st178{clip-path:url(#SVGID_8_);fill:#D7976B;}
	.st179{clip-path:url(#SVGID_8_);fill:#D8986B;}
	.st180{clip-path:url(#SVGID_8_);fill:#D9996C;}
	.st181{clip-path:url(#SVGID_8_);fill:#DA9A6D;}
	.st182{clip-path:url(#SVGID_8_);fill:#DB9B6D;}
	.st183{clip-path:url(#SVGID_8_);fill:#DC9C6E;}
	.st184{clip-path:url(#SVGID_8_);fill:#DD9D6F;}
	.st185{clip-path:url(#SVGID_8_);fill:#DE9E6F;}
	.st186{clip-path:url(#SVGID_8_);fill:#DF9F70;}
	.st187{clip-path:url(#SVGID_8_);fill:#E0A071;}
	.st188{clip-path:url(#SVGID_8_);fill:#E1A171;}
	.st189{clip-path:url(#SVGID_8_);fill:#E3A272;}
	.st190{clip-path:url(#SVGID_8_);fill:#E4A373;}
	.st191{clip-path:url(#SVGID_8_);fill:#E5A473;}
	.st192{clip-path:url(#SVGID_8_);fill:#E6A574;}
	.st193{clip-path:url(#SVGID_8_);fill:#E7A675;}
	.st194{clip-path:url(#SVGID_8_);fill:#E8A776;}
	.st195{clip-path:url(#SVGID_8_);fill:#E9A976;}
	.st196{clip-path:url(#SVGID_8_);fill:#EAAA77;}
	.st197{clip-path:url(#SVGID_8_);fill:#EBAB78;}
	.st198{clip-path:url(#SVGID_8_);fill:#EDAC78;}
	.st199{clip-path:url(#SVGID_8_);fill:#EEAD79;}
	.st200{clip-path:url(#SVGID_8_);fill:#EFAE7A;}
	.st201{clip-path:url(#SVGID_8_);fill:#F0AF7B;}
	.st202{clip-path:url(#SVGID_8_);fill:#F1B07B;}
	.st203{clip-path:url(#SVGID_8_);fill:#F2B17C;}
	.st204{clip-path:url(#SVGID_8_);fill:#F3B37D;}
	.st205{clip-path:url(#SVGID_8_);fill:#F4B47D;}
	.st206{clip-path:url(#SVGID_8_);fill:#F6B57E;}
	.st207{clip-path:url(#SVGID_8_);fill:#F7B67F;}
	.st208{clip-path:url(#SVGID_8_);fill:#F8B780;}
	.st209{clip-path:url(#SVGID_8_);fill:#F9B880;}
	.st210{clip-path:url(#SVGID_8_);fill:#FAB981;}
	.st211{clip-path:url(#SVGID_8_);fill:#FBBB82;}
	.st212{clip-path:url(#SVGID_8_);fill:#FDBC83;}
	.st213{clip-path:url(#SVGID_8_);fill:#FEBD83;}
	.st214{clip-path:url(#SVGID_8_);fill:#FFBE84;}
	.st215{fill:none;stroke:#361E56;stroke-width:4;stroke-linecap:round;stroke-linejoin:round;stroke-miterlimit:10;}
</style>
<g>
	<g>
		<path class="st0" d="M45.7,5.5c-1.1-0.2-2.2-0.4-3.3-0.5c-6.8-0.6-14.2-0.1-20.7,2.3C12,10.8,8.3,22.2,7.5,32.1
			c-1.2,14-1.4,28-0.6,42C7.2,79.9,7.7,85.8,9,91.5c0.9,3.9,2.5,3.3,5.9,3c3.4-0.2,7-0.1,10.3-0.9c-0.6-3.2-0.5-5.8,0.6-9.1
			c1-2.8,1.9-5.5,2.9-8.2c1.9-5.3,3.9-10.5,5.9-15.7c2-5.2,4-10.5,6.2-15.6c0.7-1.8,1.1-3.3,2.8-4.1c1.7-0.8,4,0.6,4.9-1.8
			c0.3-0.7,0.2-1.4,0.2-2.1c-0.4-7.1,5.9-14.2,5.2-21.3c-0.2-1.9-0.4-3.9-1.3-5.6C51.2,7.4,48.6,6.1,45.7,5.5z"/>
	</g>
	<g>
		<path class="st1" d="M36.3,12.5C30.9,13,25.3,14,21,17.4C15,22,12.8,30,11.8,37.6c-1.9,13.9-1.1,28.2,2.3,41.8
			c3.6,14.6,10.8,29.2,23.4,37.5s31.2,8.6,41.5-2.4c5.3-5.7,7.8-13.4,9.8-21C100.9,47.4,91.7,8.2,36.3,12.5z"/>
	</g>
	<g>
		<path class="st2" d="M51.2,100.8c-0.3,0-0.7-0.2-0.8-0.5c-0.2-0.4,0-1,0.5-1.2c5-2.1,9.1-6.8,11.2-12.7c1.8-5,2.3-10.7,1.4-17.5
			c-1.6-13.4-8-24.2-17.1-28.9c-0.4-0.2-0.6-0.8-0.4-1.2c0.2-0.4,0.8-0.6,1.2-0.4c9.6,5,16.4,16.3,18.1,30.3
			c0.8,7.1,0.3,13.1-1.5,18.3c-2.3,6.4-6.7,11.4-12.2,13.7C51.5,100.8,51.3,100.8,51.2,100.8z"/>
	</g>
	<g class="st3">
		<g>
			<defs>
				<path id="SVGID_1_" d="M36.3,12.5C30.9,13,25.3,14,21,17.4C15,22,12.8,30,11.8,37.6c-1.9,13.9-1.1,28.2,2.3,41.8
					c3.6,14.6,10.8,29.2,23.4,37.5s31.2,8.6,41.5-2.4c5.3-5.7,7.8-13.4,9.8-21C100.9,47.4,91.7,8.2,36.3,12.5z"/>
			</defs>
			<clipPath id="SVGID_2_">
				<use xlink:href="#SVGID_1_"  style="overflow:visible;"/>
			</clipPath>
			<rect x="93.5" y="8.2" class="st4" width="7.4" height="117.3"/>
			<rect x="92.8" y="8.2" class="st4" width="0.7" height="117.3"/>
			<rect x="92.1" y="8.2" class="st5" width="0.7" height="117.3"/>
			<rect x="91.4" y="8.2" class="st6" width="0.7" height="117.3"/>
			<rect x="90.7" y="8.2" class="st7" width="0.7" height="117.3"/>
			<rect x="89.9" y="8.2" class="st8" width="0.7" height="117.3"/>
			<rect x="89.2" y="8.2" class="st8" width="0.7" height="117.3"/>
			<rect x="88.5" y="8.2" class="st9" width="0.7" height="117.3"/>
			<rect x="87.8" y="8.2" class="st10" width="0.7" height="117.3"/>
			<rect x="87.1" y="8.2" class="st11" width="0.7" height="117.3"/>
			<rect x="86.4" y="8.2" class="st12" width="0.7" height="117.3"/>
			<rect x="85.7" y="8.2" class="st13" width="0.7" height="117.3"/>
			<rect x="85" y="8.2" class="st14" width="0.7" height="117.3"/>
			<rect x="84.3" y="8.2" class="st15" width="0.7" height="117.3"/>
			<rect x="83.6" y="8.2" class="st16" width="0.7" height="117.3"/>
			<rect x="82.8" y="8.2" class="st17" width="0.7" height="117.3"/>
			<rect x="82.1" y="8.2" class="st18" width="0.7" height="117.3"/>
			<rect x="81.4" y="8.2" class="st19" width="0.7" height="117.3"/>
			<rect x="80.7" y="8.2" class="st20" width="0.7" height="117.3"/>
			<rect x="80" y="8.2" class="st21" width="0.7" height="117.3"/>
			<rect x="79.3" y="8.2" class="st22" width="0.7" height="117.3"/>
			<rect x="78.6" y="8.2" class="st23" width="0.7" height="117.3"/>
			<rect x="77.9" y="8.2" class="st24" width="0.7" height="117.3"/>
			<rect x="77.2" y="8.2" class="st25" width="0.7" height="117.3"/>
			<rect x="76.5" y="8.2" class="st26" width="0.7" height="117.3"/>
			<rect x="75.7" y="8.2" class="st27" width="0.7" height="117.3"/>
			<rect x="75" y="8.2" class="st28" width="0.7" height="117.3"/>
			<rect x="74.3" y="8.2" class="st29" width="0.7" height="117.3"/>
			<rect x="73.6" y="8.2" class="st30" width="0.7" height="117.3"/>
			<rect x="72.9" y="8.2" class="st31" width="0.7" height="117.3"/>
			<rect x="72.2" y="8.2" class="st32" width="0.7" height="117.3"/>
			<rect x="71.5" y="8.2" class="st33" width="0.7" height="117.3"/>
			<rect x="70.8" y="8.2" class="st34" width="0.7" height="117.3"/>
			<rect x="70.1" y="8.2" class="st35" width="0.7" height="117.3"/>
			<rect x="69.4" y="8.2" class="st36" width="0.7" height="117.3"/>
			<rect x="68.6" y="8.2" class="st37" width="0.7" height="117.3"/>
			<rect x="67.9" y="8.2" class="st38" width="0.7" height="117.3"/>
			<rect x="67.2" y="8.2" class="st39" width="0.7" height="117.3"/>
			<rect x="66.5" y="8.2" class="st40" width="0.7" height="117.3"/>
			<rect x="65.8" y="8.2" class="st41" width="0.7" height="117.3"/>
			<rect x="65.1" y="8.2" class="st42" width="0.7" height="117.3"/>
			<rect x="64.4" y="8.2" class="st43" width="0.7" height="117.3"/>
			<rect x="63.7" y="8.2" class="st44" width="0.7" height="117.3"/>
			<rect x="63" y="8.2" class="st45" width="0.7" height="117.3"/>
			<rect x="62.3" y="8.2" class="st46" width="0.7" height="117.3"/>
			<rect x="61.6" y="8.2" class="st47" width="0.7" height="117.3"/>
			<rect x="60.8" y="8.2" class="st48" width="0.7" height="117.3"/>
			<rect x="60.1" y="8.2" class="st49" width="0.7" height="117.3"/>
			<rect x="59.4" y="8.2" class="st50" width="0.7" height="117.3"/>
			<rect x="58.7" y="8.2" class="st51" width="0.7" height="117.3"/>
			<rect x="58" y="8.2" class="st52" width="0.7" height="117.3"/>
			<rect x="57.3" y="8.2" class="st53" width="0.7" height="117.3"/>
			<rect x="56.6" y="8.2" class="st54" width="0.7" height="117.3"/>
			<rect x="55.9" y="8.2" class="st55" width="0.7" height="117.3"/>
			<rect x="55.2" y="8.2" class="st56" width="0.7" height="117.3"/>
			<rect x="54.5" y="8.2" class="st57" width="0.7" height="117.3"/>
			<rect x="53.7" y="8.2" class="st58" width="0.7" height="117.3"/>
			<rect x="53" y="8.2" class="st59" width="0.7" height="117.3"/>
			<rect x="52.3" y="8.2" class="st60" width="0.7" height="117.3"/>
			<rect x="51.6" y="8.2" class="st61" width="0.7" height="117.3"/>
			<rect x="50.9" y="8.2" class="st62" width="0.7" height="117.3"/>
			<rect x="50.2" y="8.2" class="st63" width="0.7" height="117.3"/>
			<rect x="49.5" y="8.2" class="st64" width="0.7" height="117.3"/>
			<rect x="10.8" y="8.2" class="st64" width="38.7" height="117.3"/>
			<rect x="9.9" y="8.2" class="st64" width="0.9" height="117.3"/>
		</g>
	</g>
	<g class="st65">
		<g>
			<defs>
				<path id="SVGID_3_" d="M47.4,39.2C58,44.6,63.6,56.9,65,68.8c0.7,6,0.6,12.2-1.5,17.9c-2,5.7-6.1,10.8-11.7,13.2"/>
			</defs>
			<clipPath id="SVGID_4_">
				<use xlink:href="#SVGID_3_"  style="overflow:visible;"/>
			</clipPath>
			<rect x="65.4" y="39.2" class="st66" width="0.3" height="60.8"/>
			<rect x="65" y="39.2" class="st66" width="0.4" height="60.8"/>
			<rect x="64.6" y="39.2" class="st67" width="0.4" height="60.8"/>
			<rect x="64.2" y="39.2" class="st68" width="0.4" height="60.8"/>
			<rect x="63.8" y="39.2" class="st69" width="0.4" height="60.8"/>
			<rect x="63.4" y="39.2" class="st70" width="0.4" height="60.8"/>
			<rect x="62.9" y="39.2" class="st71" width="0.4" height="60.8"/>
			<rect x="62.5" y="39.2" class="st72" width="0.4" height="60.8"/>
			<rect x="62.1" y="39.2" class="st73" width="0.4" height="60.8"/>
			<rect x="61.7" y="39.2" class="st74" width="0.4" height="60.8"/>
			<rect x="61.3" y="39.2" class="st75" width="0.4" height="60.8"/>
			<rect x="60.9" y="39.2" class="st76" width="0.4" height="60.8"/>
			<rect x="60.5" y="39.2" class="st76" width="0.4" height="60.8"/>
			<rect x="60.1" y="39.2" class="st77" width="0.4" height="60.8"/>
			<rect x="59.7" y="39.2" class="st78" width="0.4" height="60.8"/>
			<rect x="59.3" y="39.2" class="st79" width="0.4" height="60.8"/>
			<rect x="58.9" y="39.2" class="st80" width="0.4" height="60.8"/>
			<rect x="58.4" y="39.2" class="st81" width="0.4" height="60.8"/>
			<rect x="58" y="39.2" class="st82" width="0.4" height="60.8"/>
			<rect x="57.6" y="39.2" class="st83" width="0.4" height="60.8"/>
			<rect x="57.2" y="39.2" class="st84" width="0.4" height="60.8"/>
			<rect x="56.8" y="39.2" class="st85" width="0.4" height="60.8"/>
			<rect x="56.4" y="39.2" class="st86" width="0.4" height="60.8"/>
			<rect x="56" y="39.2" class="st87" width="0.4" height="60.8"/>
			<rect x="55.6" y="39.2" class="st88" width="0.4" height="60.8"/>
			<rect x="55.2" y="39.2" class="st89" width="0.4" height="60.8"/>
			<rect x="54.8" y="39.2" class="st90" width="0.4" height="60.8"/>
			<rect x="54.4" y="39.2" class="st91" width="0.4" height="60.8"/>
			<rect x="54" y="39.2" class="st92" width="0.4" height="60.8"/>
			<rect x="53.5" y="39.2" class="st93" width="0.4" height="60.8"/>
			<rect x="53.1" y="39.2" class="st94" width="0.4" height="60.8"/>
			<rect x="52.7" y="39.2" class="st95" width="0.4" height="60.8"/>
			<rect x="52.3" y="39.2" class="st96" width="0.4" height="60.8"/>
			<rect x="51.9" y="39.2" class="st97" width="0.4" height="60.8"/>
			<rect x="51.5" y="39.2" class="st98" width="0.4" height="60.8"/>
			<rect x="51.1" y="39.2" class="st99" width="0.4" height="60.8"/>
			<rect x="50.7" y="39.2" class="st100" width="0.4" height="60.8"/>
			<rect x="50.3" y="39.2" class="st101" width="0.4" height="60.8"/>
			<rect x="49.9" y="39.2" class="st102" width="0.4" height="60.8"/>
			<rect x="49.5" y="39.2" class="st103" width="0.4" height="60.8"/>
			<rect x="49" y="39.2" class="st104" width="0.4" height="60.8"/>
			<rect x="48.6" y="39.2" class="st105" width="0.4" height="60.8"/>
			<rect x="48.2" y="39.2" class="st106" width="0.4" height="60.8"/>
			<rect x="47.8" y="39.2" class="st107" width="0.4" height="60.8"/>
			<rect x="47.4" y="39.2" class="st108" width="0.4" height="60.8"/>
		</g>
	</g>
	<g>
		<path class="st109" d="M61.1,72.3C61,72.3,61,72.3,61.1,72.3C55,72.2,49,68.8,45.8,63.7c-3.2-5.2-3.5-12-0.8-17.5
			c1.4-2.8,3.4-5.2,5.4-7.4c0.7-0.8,1.4-1.6,2.1-2.4c2.4-2.9,3.8-5.6,4.4-8.2c0.6-3,0.1-5.9-1.6-7.9c-0.7-0.8-1.6-1.6-2.6-2.4
			c-2.3-1.9-4.9-4.1-5.1-7.7c-0.1-1.3,0.9-2.4,2.2-2.4c1.3-0.1,2.4,0.9,2.4,2.2c0.1,1.4,1.3,2.6,3.4,4.3c1.1,0.9,2.3,1.9,3.2,3
			c2.5,3,3.5,7.5,2.6,11.9c-0.7,3.3-2.5,6.7-5.3,10.1c-0.7,0.9-1.5,1.7-2.2,2.6C52,44,50.3,46,49.2,48.3c-2,4-1.7,9.1,0.6,13
			c2.4,3.8,6.8,6.3,11.3,6.4c1.3,0,2.3,1.1,2.3,2.4C63.4,71.3,62.3,72.3,61.1,72.3z"/>
	</g>
</g>
</svg>
