<?xml version="1.0" encoding="utf-8"?>
<!-- Generator: Adobe Illustrator 22.0.1, SVG Export Plug-In . SVG Version: 6.00 Build 0)  -->
<svg version="1.1" xmlns="http://www.w3.org/2000/svg" xmlns:xlink="http://www.w3.org/1999/xlink" x="0px" y="0px"
	 viewBox="0 0 151.3 112.7" style="enable-background:new 0 0 151.3 112.7;" xml:space="preserve">
<style type="text/css">
	.st0{fill:none;stroke:#0a6924;stroke-width:1.854;stroke-miterlimit:10;}
	.st1{fill:none;stroke:#0a6924;stroke-width:1.854;}
	.st2{fill:#0a6924;}
	.st3{fill:none;stroke:#0a6924;stroke-width:2;stroke-linecap:round;stroke-linejoin:round;stroke-miterlimit:10;}
	.st4{fill:none;stroke:#0a6924;stroke-width:2;stroke-miterlimit:10;}
	.st5{fill:none;stroke:#0a6924;stroke-width:1.9255;stroke-miterlimit:10;}
	.st6{fill:none;stroke:#0a6924;stroke-linecap:round;stroke-linejoin:round;stroke-miterlimit:10;}
	.st7{fill:none;stroke:#0a6924;stroke-width:1.4107;stroke-miterlimit:10;}
	.st8{fill:none;stroke:#0a6924;stroke-width:2.2747;stroke-linecap:round;stroke-linejoin:round;stroke-miterlimit:10;}
	.st9{fill:none;stroke:#0a6924;stroke-width:2.03;stroke-linecap:round;stroke-linejoin:round;stroke-miterlimit:10;}
	.st10{fill:none;}
	.st11{fill:#0a6924;stroke:#0a6924;stroke-linecap:round;stroke-linejoin:round;stroke-miterlimit:10;}
</style>
<g id="Layer_2">
</g>
<g id="Layer_1">
</g>
<g id="Layer_3">
	<g>
		<g>
			<path class="st2" d="M95.1,49.5c0-6.9-5.6-12.5-12.5-12.5s-12.5,5.6-12.5,12.5S75.7,62,82.6,62C89.5,62,95.1,56.4,95.1,49.5z
				 M72.6,49.5c0-5.5,4.5-10,10-10c5.5,0,10,4.5,10,10s-4.5,10-10,10C77.1,59.5,72.6,55.1,72.6,49.5z"/>
			<path class="st2" d="M113.9,49.5c0-3.5-2.8-6.2-6.2-6.2s-6.2,2.8-6.2,6.2s2.8,6.2,6.2,6.2l0,0C111.1,55.8,113.9,53,113.9,49.5z
				 M103.9,49.5c0-2.1,1.7-3.8,3.8-3.8s3.8,1.7,3.8,3.8s-1.7,3.8-3.8,3.8l0,0C105.6,53.3,103.9,51.6,103.9,49.5z"/>
			<path class="st2" d="M66.4,49.5c0-3.5-2.8-6.2-6.2-6.2s-6.2,2.8-6.2,6.2s2.8,6.2,6.2,6.2l0,0C63.6,55.8,66.4,53,66.4,49.5z
				 M56.4,49.5c0-2.1,1.7-3.8,3.8-3.8s3.8,1.7,3.8,3.8s-1.7,3.8-3.8,3.8l0,0C58.1,53.3,56.4,51.6,56.4,49.5z"/>
			<path class="st2" d="M116.4,29.5H38.9v34c0.8,0,1.6,0.1,2.5,0.2V62c1.9,0,3.6,1,4.4,2.7c1.2,0.4,2.2,1.1,3.1,2
				c-0.2-4-3.5-7.2-7.5-7.2v-20c4.1,0,7.5-3.4,7.5-7.5h67.5c0,4.1,3.4,7.5,7.5,7.5v20c-4.1,0-7.5,3.4-7.5,7.5H49.1
				c0.5,0.7,0.8,1.6,0.8,2.5h76.5v-40H116.4z M41.4,37v-5h5C46.4,34.8,44.1,37,41.4,37z M123.9,67h-5c0-2.8,2.2-5,5-5V67z M118.9,32
				h5v5C121.1,37,118.9,34.8,118.9,32z"/>
		</g>
		<g>
			<path class="st2" d="M54.4,73.2c-2.6-0.1-11.3-0.1-11.5,4.5s8.4,5.4,11,5.5s11.3,0.1,11.5-4.5C65.6,74,57,73.3,54.4,73.2z
				 M54.1,80.7c-4.8-0.2-8.7-1.5-8.6-2.9s4-2.3,8.9-2.1c4.8,0.2,8.7,1.5,8.6,2.9S58.9,80.9,54.1,80.7z"/>
			
				<ellipse transform="matrix(4.474797e-02 -0.999 0.999 4.474797e-02 -26.5685 128.5343)" class="st2" cx="53.9" cy="78.2" rx="3.5" ry="9.5"/>
		</g>
		<g>
			<path class="st2" d="M113.4,73.2c-2.6-0.1-11.3-0.1-11.5,4.5c-0.2,4.6,8.4,5.4,11,5.5c2.6,0.1,11.3,0.1,11.5-4.5
				C124.6,74,116,73.3,113.4,73.2z M113.1,80.7c-4.8-0.2-8.7-1.5-8.6-2.9s4-2.3,8.9-2.1c4.8,0.2,8.7,1.5,8.6,2.9
				S117.9,80.9,113.1,80.7z"/>
			
				<ellipse transform="matrix(4.474797e-02 -0.999 0.999 4.474797e-02 29.7914 187.4752)" class="st2" cx="112.9" cy="78.2" rx="3.5" ry="9.5"/>
		</g>
		<g>
			<path class="st2" d="M36.4,65.2c-2.6-0.1-11.3-0.1-11.5,4.5s8.4,5.4,11,5.5s11.3,0.1,11.5-4.5S39,65.3,36.4,65.2z M36.1,72.7
				c-4.8-0.2-8.7-1.5-8.6-2.9s4-2.3,8.9-2.1c4.8,0.2,8.7,1.5,8.6,2.9S40.9,72.9,36.1,72.7z"/>
			
				<ellipse transform="matrix(4.474797e-02 -0.999 0.999 4.474797e-02 -35.7711 102.9103)" class="st2" cx="35.9" cy="70.2" rx="3.5" ry="9.5"/>
		</g>
		<circle class="st2" cx="59.9" cy="49.5" r="4.5"/>
		<circle class="st2" cx="107.9" cy="49.5" r="4.5"/>
	</g>
</g>
</svg>
