<?xml version="1.0" encoding="UTF-8"?>
<svg width="25px" height="25px" viewBox="0 0 25 25" version="1.1" xmlns="http://www.w3.org/2000/svg" xmlns:xlink="http://www.w3.org/1999/xlink">
    <!-- Generator: Sketch 49.3 (51167) - http://www.bohemiancoding.com/sketch -->
    <title>settings</title>
    <desc>Created with Sketch.</desc>
    <defs></defs>
    <g id="iOS-App" stroke="none" stroke-width="1" fill="none" fill-rule="evenodd">
        <g id="Parents-Dashboard-Copy" transform="translate(-334.000000, -70.000000)" fill="#aaaaaa" fill-rule="nonzero">
            <g id="settings" transform="translate(334.000000, 70.000000)">
                <path d="M24.3046374,10.909588 C24.1182464,10.7977534 22.5898404,9.8657985 21.9933893,9.60485114 L21.2478254,7.77821959 C21.4714946,7.18176848 21.8815547,5.50424971 21.9561111,5.20602416 C22.0306675,4.94507679 21.9188329,4.64685124 21.732442,4.46046026 L20.5395397,3.26755803 C20.3531488,3.08116706 20.0549232,2.96933247 19.7939758,3.04388886 C19.5703067,3.08116706 17.8555097,3.52850539 17.2217804,3.75217456 L15.3951489,3.00661067 C15.1342015,2.41015955 14.2395248,0.919031761 14.090412,0.695362593 C13.9412993,0.471693424 13.6803519,0.322580645 13.4194045,0.322580645 L11.7418858,0.322580645 C11.4809384,0.322580645 11.2199911,0.471693424 11.0708783,0.695362593 C10.9590437,0.881753566 10.0270888,2.41015955 9.76614146,3.00661067 L7.93950992,3.75217456 C7.3430588,3.52850539 5.66554004,3.11844525 5.36731448,3.04388886 C5.10636712,2.96933247 4.80814156,3.08116706 4.62175058,3.26755803 L3.42884835,4.46046026 C3.24245738,4.64685124 3.13062279,4.94507679 3.20517918,5.20602416 C3.24245738,5.42969332 3.68979572,7.14449028 3.91346488,7.77821959 L3.16790099,9.60485114 C2.57144987,9.8657985 1.08032208,10.7604752 0.856652915,10.909588 C0.632983747,11.0587007 0.483870968,11.3196481 0.483870968,11.5805955 L0.483870968,13.2581142 C0.483870968,13.5190616 0.632983747,13.7800089 0.856652915,13.9291217 C1.04304389,14.0409563 2.57144987,14.9729112 3.16790099,15.2338585 L3.91346488,17.0604901 C3.68979572,17.6569412 3.27973557,19.33446 3.16790099,19.6326855 C3.0933446,19.8936329 3.20517918,20.1918584 3.39157016,20.3782494 L4.58447239,21.5711516 C4.77086336,21.7575426 5.06908892,21.8693772 5.33003628,21.7948208 C5.55370545,21.7575426 7.26850241,21.3102043 7.90223172,21.0865351 L9.72886326,21.832099 C9.98981063,22.4285501 10.8844873,23.9196779 11.0336001,24.1433471 C11.1827129,24.3670163 11.4436602,24.516129 11.7418858,24.516129 L13.4194045,24.516129 C13.6803519,24.516129 13.9412993,24.3670163 14.090412,24.1433471 C14.2022466,23.9569561 15.1342015,22.4285501 15.3951489,21.832099 L17.2217804,21.0865351 C17.8182315,21.3102043 19.4957503,21.7202644 19.7939758,21.7948208 C20.0549232,21.8693772 20.3531488,21.7575426 20.5395397,21.5711516 L21.732442,20.3782494 C21.9188329,20.1918584 22.0306675,19.8936329 21.9561111,19.6326855 C21.9188329,19.4090164 21.4714946,17.6942194 21.2478254,17.0604901 L21.9933893,15.2338585 C22.5898404,14.9729112 24.0809682,14.0782345 24.3046374,13.9291217 C24.5283066,13.7800089 24.6774194,13.5190616 24.6774194,13.220836 L24.6774194,11.5433173 C24.6774194,11.3196481 24.5283066,11.0587007 24.3046374,10.909588 Z M12.5620061,17.6942194 C9.65430687,17.6942194 7.26850241,15.3084149 7.26850241,12.4007157 C7.26850241,9.49301655 9.65430687,7.14449028 12.5620061,7.14449028 C15.4697053,7.14449028 17.8555097,9.53029475 17.8555097,12.4379939 C17.8182315,15.3456931 15.4697053,17.6942194 12.5620061,17.6942194 Z" id="Shape"></path>
            </g>
        </g>
    </g>
</svg>