<?xml version="1.0" encoding="UTF-8"?>
<svg width="29px" height="31px" viewBox="0 0 29 31" version="1.1" xmlns="http://www.w3.org/2000/svg" xmlns:xlink="http://www.w3.org/1999/xlink">
    <!-- Generator: Sketch 49.3 (51167) - http://www.bohemiancoding.com/sketch -->
    <title>log-out</title>
    <desc>Created with Sketch.</desc>
    <defs></defs>
    <g id="iOS-App" stroke="none" stroke-width="1" fill="none" fill-rule="evenodd">
        <g id="Choose-a-User-1" transform="translate(-19.000000, -621.000000)" fill="#aaaaaa" fill-rule="nonzero">
            <g id="log-out" transform="translate(19.000000, 621.000000)">
                <path d="M15.496875,27.0075758 L3.896875,27.0075758 L3.896875,3.89848485 L15.496875,3.89848485 L15.496875,12.4939394 L19.03125,12.4939394 L19.03125,2.77121212 C19.03125,1.36212121 17.8984375,0.187878788 16.5390625,0.187878788 L2.809375,0.187878788 C1.45,0.187878788 0.3171875,1.36212121 0.3171875,2.77121212 L0.3171875,28.1348485 C0.3171875,29.5439394 1.45,30.7181818 2.809375,30.7181818 L16.584375,30.7181818 C17.94375,30.7181818 19.0765625,29.5439394 19.0765625,28.1348485 L19.0765625,18.4590909 L15.496875,18.4590909 L15.496875,27.0075758 Z" id="Shape"></path>
                <path d="M28.6828125,14.9833333 L22.6109375,8.73636364 C22.3390625,8.45454545 21.93125,8.45454545 21.7046875,8.73636364 L20.3453125,10.1454545 C20.0734375,10.4272727 20.0734375,10.85 20.3453125,11.0848485 L22.928125,13.7621212 L12.053125,13.7621212 C11.690625,13.7621212 11.41875,14.0439394 11.41875,14.419697 L11.41875,16.4393939 C11.41875,16.8151515 11.690625,17.0969697 12.053125,17.0969697 L22.928125,17.0969697 L20.3453125,19.7742424 C20.0734375,20.0560606 20.0734375,20.4787879 20.3453125,20.7136364 L21.7046875,22.1227273 C21.9765625,22.4045455 22.384375,22.4045455 22.6109375,22.1227273 L28.6375,15.8757576 C28.909375,15.6878788 28.909375,15.2651515 28.6828125,14.9833333 Z" id="Shape"></path>
            </g>
        </g>
    </g>
</svg>