<?xml version="1.0" encoding="utf-8"?>
<!-- Generator: Adobe Illustrator 22.0.1, SVG Export Plug-In . SVG Version: 6.00 Build 0)  -->
<svg version="1.1" xmlns="http://www.w3.org/2000/svg" xmlns:xlink="http://www.w3.org/1999/xlink" x="0px" y="0px"
	 viewBox="0 0 151.3 112.7" style="enable-background:new 0 0 151.3 112.7;" xml:space="preserve">
<style type="text/css">
	.st0{fill:none;stroke:#0b3691;stroke-width:1.854;stroke-miterlimit:10;}
	.st1{fill:none;stroke:#0b3691;stroke-width:1.854;}
	.st2{fill:#0b3691;}
	.st3{fill:none;stroke:#0b3691;stroke-width:2;stroke-linecap:round;stroke-linejoin:round;stroke-miterlimit:10;}
	.st4{fill:none;stroke:#0b3691;stroke-width:2;stroke-miterlimit:10;}
	.st5{fill:none;stroke:#0b3691;stroke-width:1.9255;stroke-miterlimit:10;}
	.st6{fill:none;stroke:#0b3691;stroke-linecap:round;stroke-linejoin:round;stroke-miterlimit:10;}
	.st7{fill:none;stroke:#0b3691;stroke-width:1.4107;stroke-miterlimit:10;}
	.st8{fill:none;stroke:#0b3691;stroke-width:2.2747;stroke-linecap:round;stroke-linejoin:round;stroke-miterlimit:10;}
	.st9{fill:none;stroke:#0b3691;stroke-width:2.03;stroke-linecap:round;stroke-linejoin:round;stroke-miterlimit:10;}
	.st10{fill:none;}
	.st11{fill:#0b3691;stroke:#0b3691;stroke-linecap:round;stroke-linejoin:round;stroke-miterlimit:10;}
</style>
<g id="Layer_2">
</g>
<g id="Layer_1">
	<g>
		<path class="st4" d="M74.7,59.7c-0.4,0-0.7,0.3-0.7,0.6l-2.1,12.9l-3.8,20.3c-0.1,0.3,0,0.6,0.2,0.8c0.2,0.2,0.4,0.4,0.7,0.4
			L85.4,96h0.1c0.5,0,0.9-0.3,1-0.7c1.2-4.8,3-10.2,4.2-13c0.3-0.8,1.5-0.8,1.8,0c1.2,2.8,3,8.2,4.3,13c0.1,0.5,0.6,0.8,1,0.7
			l16.4-1.3c0.3,0,0.5-0.2,0.7-0.4c0.2-0.2,0.2-0.5,0.2-0.8l-6.4-33.4c-0.1-0.5-0.5-0.8-1-0.8h-15L74.7,59.7z"/>
		<g>
			<path class="st2" d="M107.3,64.3H75.9l0.4-1.9h13.9c0,0,0,0,0.1,0c0,0,0,0,0.1,0H107L107.3,64.3z"/>
			<g>
				<g>
					<circle class="st2" cx="86.6" cy="77.2" r="1.5"/>
					<path class="st6" d="M87,76.2c1.1-1.2,1.6-2.9,1.5-4.5c-0.1-0.8-0.4-1.5-0.6-2.3c-0.2-0.9-0.2-1.9,0-2.8
						c0.3-1.3,0.9-2.7,1.8-3.7"/>
				</g>
				<g>
					<circle class="st2" cx="97.6" cy="78.2" r="1.5"/>
					<path class="st6" d="M97.2,77.2c-1.6-1.2-1.9-3.9-1.6-5.7c0.2-1,0.7-2.1,0.6-3.1c-0.1-1.9-1.6-3.3-2.5-4.9"/>
				</g>
			</g>
		</g>
		<path class="st3" d="M67.1,67.7l-14-15c0,0-2.1,3.6-2.2,6.5c0,0.7-0.7,1.1-1.4,0.9L36.9,55c-0.4-0.2-0.7-0.6-0.6-1.1
			c0.6-3.4,3.2-16.2,7.2-19.7c0.3-0.3,0.9-0.3,1.2-0.1c1.6,1.1,6.2,3.8,9.4,0.6c3.3-3.3,1.2-7.9,0.3-9.5c-0.2-0.4-0.2-0.8,0.1-1.1
			c1.3-1.5,5.9-5.6,19.8-7.3c0.4-0.1,0.9,0.2,1.1,0.6l5.1,12.7c0.3,0.7-0.3,1.4-1,1.4c-1.7-0.1-4.5-0.1-6.4,1.2l20,19l-3,3"/>
	</g>
</g>
<g id="Layer_3">
</g>
</svg>
