<?xml version="1.0" encoding="utf-8"?>
<!-- Generator: Adobe Illustrator 22.0.1, SVG Export Plug-In . SVG Version: 6.00 Build 0)  -->
<svg version="1.1" xmlns="http://www.w3.org/2000/svg" xmlns:xlink="http://www.w3.org/1999/xlink" x="0px" y="0px"
	 viewBox="0 0 151.3 112.7" style="enable-background:new 0 0 151.3 112.7;" xml:space="preserve">
<style type="text/css">
	.st0{fill:none;stroke:#190536;stroke-width:1.854;stroke-miterlimit:10;}
	.st1{fill:none;stroke:#190536;stroke-width:1.854;}
	.st2{fill:#190536;}
	.st3{fill:none;stroke:#190536;stroke-width:2;stroke-linecap:round;stroke-linejoin:round;stroke-miterlimit:10;}
	.st4{fill:none;stroke:#190536;stroke-width:2;stroke-miterlimit:10;}
	.st5{fill:none;stroke:#190536;stroke-width:1.9255;stroke-miterlimit:10;}
	.st6{fill:none;stroke:#190536;stroke-linecap:round;stroke-linejoin:round;stroke-miterlimit:10;}
	.st7{fill:none;stroke:#190536;stroke-width:1.4107;stroke-miterlimit:10;}
	.st8{fill:none;stroke:#190536;stroke-width:2.2747;stroke-linecap:round;stroke-linejoin:round;stroke-miterlimit:10;}
	.st9{fill:none;stroke:#190536;stroke-width:2.03;stroke-linecap:round;stroke-linejoin:round;stroke-miterlimit:10;}
	.st10{fill:none;}
	.st11{fill:#190536;stroke:#190536;stroke-linecap:round;stroke-linejoin:round;stroke-miterlimit:10;}
</style>
<g id="Layer_2">
</g>
<g id="Layer_1">
	<g>
		<g>
			<path class="st4" d="M37.2,99.4h50.2c3.3,0,5.9-2.6,5.9-5.8V19.1c0-3.2-2.6-5.8-5.9-5.8H37.2c-0.6,0-1.1,0.5-1.1,1.1v83.9
				C36.1,98.9,36.6,99.4,37.2,99.4z M90.3,21v74.7c0,2-1.7,3.6-3.7,3.6H37.1c-0.5,0-1-0.4-1-1v-81h50.5C88.6,17.4,90.3,19,90.3,21z"
				/>
			<path class="st4" d="M48.5,53.4h28.9c0.6,0,1.1-0.5,1.1-1.1V33c0-0.6-0.5-1.1-1.1-1.1H48.5c-0.6,0-1.1,0.5-1.1,1.1v19.3
				C47.4,52.9,47.9,53.4,48.5,53.4z"/>
			<path class="st2" d="M70,38.6H55.8c-0.6,0-1.1,0.5-1.1,1.1s0.5,1.1,1.1,1.1H70c0.6,0,1.1-0.5,1.1-1.1S70.7,38.6,70,38.6z"/>
			<path class="st2" d="M70,44.6H55.8c-0.6,0-1.1,0.5-1.1,1.1c0,0.6,0.5,1.1,1.1,1.1H70c0.6,0,1.1-0.5,1.1-1.1
				C71.1,45,70.7,44.6,70,44.6z"/>
			<g>
				<path class="st2" d="M108.9,73.5c2.7,0,3.9-5.6,3.9-10.8S111.6,52,108.9,52c-2.7,0-3.9,5.6-3.9,10.8S106.3,73.5,108.9,73.5z"/>
				<g>
					<g>
						<path class="st5" d="M108.6,17.7c0.1-0.1,0.2-0.1,0.3-0.1c0.1,0,0.2,0,0.3,0.1l2.3,6h-5.3L108.6,17.7z M113.5,33.5h-9.3
							c-0.7,0-1.1-0.7-0.9-1.4l2-5.2c0,0,0,0,0.1,0h6.8c0,0,0,0,0.1,0l2,5.2C114.6,32.7,114.2,33.5,113.5,33.5z M115.3,37.6v47.2
							c0,0.6-0.4,1-0.9,1h-10.8c-0.5,0-0.9-0.4-0.9-1V37.6c0-0.6,0.4-1,0.9-1h10.8C114.8,36.6,115.3,37.1,115.3,37.6z M111.7,96.4
							h-5.6c-1.9,0-3.5-1.7-3.5-3.8V90c0-0.6,0.4-1,0.9-1h10.8c0.5,0,0.9,0.4,0.9,1v2.6C115.3,94.7,113.7,96.4,111.7,96.4z"/>
					</g>
				</g>
			</g>
		</g>
	</g>
</g>
<g id="Layer_3">
</g>
</svg>
