<?xml version="1.0" encoding="utf-8"?>
<!-- Generator: Adobe Illustrator 22.0.1, SVG Export Plug-In . SVG Version: 6.00 Build 0)  -->
<svg version="1.1" xmlns="http://www.w3.org/2000/svg" xmlns:xlink="http://www.w3.org/1999/xlink" x="0px" y="0px"
	 viewBox="0 0 151.3 112.7" style="enable-background:new 0 0 151.3 112.7;" xml:space="preserve">
<style type="text/css">
	.st0{fill:none;stroke:#ffffff;stroke-width:1.854;stroke-miterlimit:10;}
	.st1{fill:none;stroke:#ffffff;stroke-width:1.854;}
	.st2{fill:#ffffff;}
	.st3{fill:none;stroke:#ffffff;stroke-width:2;stroke-linecap:round;stroke-linejoin:round;stroke-miterlimit:10;}
	.st4{fill:none;stroke:#ffffff;stroke-width:2;stroke-miterlimit:10;}
	.st5{fill:none;stroke:#ffffff;stroke-width:1.9255;stroke-miterlimit:10;}
	.st6{fill:none;stroke:#ffffff;stroke-linecap:round;stroke-linejoin:round;stroke-miterlimit:10;}
	.st7{fill:none;stroke:#ffffff;stroke-width:1.4107;stroke-miterlimit:10;}
	.st8{fill:none;stroke:#ffffff;stroke-width:2.2747;stroke-linecap:round;stroke-linejoin:round;stroke-miterlimit:10;}
	.st9{fill:none;stroke:#ffffff;stroke-width:2.03;stroke-linecap:round;stroke-linejoin:round;stroke-miterlimit:10;}
	.st10{fill:none;}
	.st11{fill:#ffffff;stroke:#ffffff;stroke-linecap:round;stroke-linejoin:round;stroke-miterlimit:10;}
</style>
<g id="Layer_2">
</g>
<g id="Layer_1">
	<g>
		<g>
			<path class="st0" d="M87.8,43c1.1,1.8,1.6,4,1.4,6.4c-0.2,2.2-0.9,4.1-2.2,5.7c-1.3,1.6-3.1,2.7-5.3,3.4c-2.2,0.7-4.8,1-7.7,0.7
				L58.6,58c-1.6-0.1-2.7-0.7-3.5-1.6c-0.8-0.9-1.1-2.2-1-3.7l2.6-30.7c0.1-1.6,0.7-2.7,1.6-3.5c0.9-0.8,2.2-1.1,3.7-1l14.7,1.3
				c4.2,0.4,7.5,1.6,9.9,3.7c2.3,2.1,3.4,4.8,3.1,8c-0.2,2.1-0.9,3.8-2.1,5.3c-1.2,1.5-2.9,2.5-4.9,3.1C84.9,39.9,86.7,41.2,87.8,43
				z M77.8,50.6c1-0.6,1.5-1.7,1.6-3.2c0.1-1.5-0.2-2.7-1.1-3.4c-0.8-0.7-2.3-1.2-4.4-1.4l-8.5-0.7l-0.7,8.6l8.5,0.7
				C75.3,51.4,76.8,51.2,77.8,50.6z M66.1,33.9l7.5,0.6c2,0.2,3.5,0,4.4-0.5c1-0.5,1.5-1.5,1.6-2.8c0.1-1.4-0.2-2.5-1.1-3.2
				c-0.9-0.7-2.3-1.2-4.3-1.3L66.8,26L66.1,33.9z"/>
		</g>
		<g>
			<path class="st0" d="M67,80.4c0.3,1.2,0.2,2.4-0.6,3.5c-0.7,1.1-1.7,1.9-3,2.2c-0.8,0.2-1.7,0.2-2.5,0c-0.8-0.2-1.6-0.7-2.2-1.5
				l-4.1-4.9l-17.9,5.1l-0.9,6.3c-0.2,1-0.5,1.8-1.1,2.5c-0.6,0.6-1.3,1.1-2.2,1.3c-1.3,0.4-2.5,0.3-3.8-0.3
				c-1.3-0.6-2.1-1.4-2.4-2.7c-0.2-0.7-0.2-1.4-0.1-2.2l6-34.2c0.2-1.1,0.7-2.1,1.5-2.9c0.8-0.8,1.8-1.4,2.9-1.7
				c1.1-0.3,2.2-0.3,3.3-0.1c1.1,0.3,2,0.8,2.8,1.7l23.2,25.8C66.5,79.1,66.8,79.7,67,80.4z M37.9,76.2L49,73.1l-9.1-10.8L37.9,76.2
				z"/>
		</g>
		<g>
			<path class="st0" d="M94.2,88.1c-2.7-2.2-4.5-5.1-5.6-8.5c-1-3.4-1.2-7.2-0.4-11.3c0.8-4.1,2.3-7.5,4.6-10.3
				c2.2-2.8,5-4.7,8.3-5.8s7-1.2,11-0.5c4.8,0.9,8.7,3,11.9,6.2c0.6,0.6,0.9,1.2,1.1,1.7c0.2,0.6,0.2,1.3,0,2.1
				c-0.2,1.2-0.7,2.1-1.6,2.8c-0.8,0.7-1.7,0.9-2.6,0.7c-0.6-0.1-1.1-0.3-1.5-0.6c-0.4-0.3-0.9-0.6-1.4-1.1c-1.2-1-2.3-1.9-3.4-2.4
				c-1.1-0.6-2.3-1-3.5-1.2c-3.4-0.7-6-0.1-8.1,1.6c-2,1.7-3.4,4.6-4.2,8.7c-0.8,4.1-0.6,7.4,0.7,9.7c1.2,2.3,3.5,3.8,6.9,4.5
				c1.1,0.2,2.3,0.3,3.4,0.1c1.1-0.2,2.6-0.4,4.4-0.9c0.9-0.3,1.5-0.4,1.9-0.5c0.4-0.1,0.9-0.1,1.4,0c0.9,0.2,1.7,0.7,2.2,1.7
				c0.5,0.9,0.6,2,0.4,3.2c-0.2,0.8-0.4,1.4-0.8,1.9c-0.4,0.5-0.9,0.9-1.7,1.2c-4.1,1.8-8.5,2.3-13.3,1.3
				C100.2,91.9,96.8,90.4,94.2,88.1z"/>
		</g>
	</g>
</g>
<g id="Layer_3">
</g>
</svg>
