<?xml version="1.0" encoding="utf-8"?>
<!-- Generator: Adobe Illustrator 22.0.1, SVG Export Plug-In . SVG Version: 6.00 Build 0)  -->
<svg version="1.1" xmlns="http://www.w3.org/2000/svg" xmlns:xlink="http://www.w3.org/1999/xlink" x="0px" y="0px"
	 viewBox="0 0 151.3 112.7" style="enable-background:new 0 0 151.3 112.7;" xml:space="preserve">
<style type="text/css">
	.st0{fill:none;stroke:#ffffff;stroke-width:1.854;stroke-miterlimit:10;}
	.st1{fill:none;stroke:#ffffff;stroke-width:1.854;}
	.st2{fill:#ffffff;}
	.st3{fill:none;stroke:#ffffff;stroke-width:2;stroke-linecap:round;stroke-linejoin:round;stroke-miterlimit:10;}
	.st4{fill:none;stroke:#ffffff;stroke-width:2;stroke-miterlimit:10;}
	.st5{fill:none;stroke:#ffffff;stroke-width:1.9255;stroke-miterlimit:10;}
	.st6{fill:none;stroke:#ffffff;stroke-linecap:round;stroke-linejoin:round;stroke-miterlimit:10;}
	.st7{fill:none;stroke:#ffffff;stroke-width:1.4107;stroke-miterlimit:10;}
	.st8{fill:none;stroke:#ffffff;stroke-width:2.2747;stroke-linecap:round;stroke-linejoin:round;stroke-miterlimit:10;}
	.st9{fill:none;stroke:#ffffff;stroke-width:2.03;stroke-linecap:round;stroke-linejoin:round;stroke-miterlimit:10;}
	.st10{fill:none;}
	.st11{fill:#ffffff;stroke:#ffffff;stroke-linecap:round;stroke-linejoin:round;stroke-miterlimit:10;}
</style>
<g id="Layer_2">
</g>
<g id="Layer_1">
	<g>
		<g>
			<path class="st1" d="M62.7,78.9c1,0.4,1.7,1.3,2.1,2.7c0.8,2.8-0.4,4.7-3.7,5.7l-19.7,5.8c-3.3,1-5.3,0.1-6.2-2.7
				c-0.4-1.4-0.3-2.5,0.3-3.4c0.6-0.9,1.7-1.6,3.4-2.1l4.6-1.4L37.5,63l-3.7,4c-0.5,0.6-1.1,1-1.8,1.2c-1.1,0.3-2.1,0.1-3.1-0.6
				c-1-0.7-1.7-1.6-2.1-2.8c-0.5-1.6-0.1-2.9,0.9-4.1l7.5-8c1.4-1.4,2.8-2.4,4.3-2.8c1.5-0.4,2.9-0.4,4.1,0.3c1.2,0.6,2,1.7,2.5,3.3
				l8,26.9l4.7-1.4C60.3,78.5,61.7,78.5,62.7,78.9z"/>
		</g>
		<g>
			<path class="st1" d="M87.8,55.2c0.8,0.8,1.1,1.9,1,3.3c-0.1,1.5-0.6,2.6-1.6,3.2c-0.9,0.6-2.2,0.9-4,0.7l-21.5-1.9
				c-1.4-0.1-2.5-0.6-3.3-1.6c-0.8-0.9-1.1-2-1-3.3c0.1-1.7,0.9-3.2,2.4-4.4l13.6-11.9c2.8-2.5,4.3-4.9,4.5-7.1
				c0.1-1.3-0.2-2.4-0.9-3.2c-0.7-0.8-1.8-1.2-3.2-1.3c-1.1-0.1-2.2,0-3.2,0.2c-1,0.3-2.1,0.6-3.5,1.2l-1.2,0.5
				c-0.2,0.1-0.5,0.2-1,0.4c-0.5,0.2-0.9,0.4-1.3,0.5c-0.4,0.1-0.7,0.1-1.1,0.1c-1-0.1-1.8-0.6-2.4-1.5c-0.6-0.9-0.8-2-0.7-3.2
				c0.1-0.9,0.3-1.6,0.6-2.1c0.3-0.5,0.8-1,1.6-1.4c2-1.1,4.1-1.9,6.5-2.4c2.4-0.5,4.7-0.7,6.9-0.5c2.9,0.3,5.4,1,7.5,2.1
				c2.1,1.2,3.7,2.7,4.7,4.6c1,1.9,1.5,4,1.3,6.3c-0.2,2.4-0.9,4.5-2,6.4c-1.1,1.9-3,4-5.5,6.2l-9.1,7.8l11.8,1
				C85.8,54,87.1,54.4,87.8,55.2z"/>
		</g>
		<g>
			<path class="st1" d="M121.2,77c1,2,1.2,4.2,0.7,6.7c-0.5,2.4-1.5,4.3-3.1,5.8c-1.6,1.5-3.7,2.5-6.2,3c-2.5,0.5-5.4,0.5-8.5-0.1
				c-2.5-0.5-4.9-1.3-7.1-2.4c-2.2-1.1-4-2.5-5.5-4.1c-0.6-0.6-0.9-1.3-1.1-1.9c-0.2-0.6-0.2-1.3,0-2.1c0.2-1.2,0.8-2.2,1.6-2.9
				c0.8-0.7,1.7-1,2.7-0.8c0.5,0.1,1,0.3,1.4,0.5c0.4,0.3,0.9,0.6,1.6,1.2c0.1,0.1,0.3,0.2,0.5,0.4c0.2,0.1,0.4,0.3,0.7,0.5
				c1.1,0.9,2.1,1.5,3.1,2.1c0.9,0.5,2,0.9,3.2,1.1c2.2,0.4,3.8,0.4,4.9-0.2c1.1-0.5,1.8-1.6,2.1-3.2c0.3-1.5,0-2.7-0.8-3.5
				c-0.8-0.8-2.4-1.5-4.6-1.9l-3.6-0.7c-1.2-0.2-2-0.8-2.5-1.7c-0.5-0.9-0.6-2-0.4-3.1c0.2-1.1,0.7-2,1.5-2.7c0.8-0.7,1.8-0.9,3-0.7
				l2.6,0.5c2.1,0.4,3.7,0.4,4.8,0c1.1-0.4,1.8-1.3,2-2.7c0.3-1.4,0.1-2.6-0.6-3.6c-0.7-1-1.8-1.6-3.3-1.9c-1.1-0.2-2.1-0.2-3.2-0.1
				c-1,0.2-2.2,0.4-3.4,0.8l-1.3,0.3c-0.8,0.2-1.4,0.4-1.9,0.5c-0.5,0.1-1,0.1-1.5,0c-1-0.2-1.7-0.8-2.2-1.7s-0.6-2-0.4-3.2
				c0.2-0.8,0.4-1.5,0.8-2c0.4-0.5,0.9-0.9,1.7-1.3c1.9-0.9,4.1-1.5,6.5-1.8c2.4-0.3,4.8-0.2,7.1,0.3c2.9,0.5,5.3,1.5,7.3,2.8
				c2,1.3,3.4,3,4.3,4.9c0.9,1.9,1.1,4,0.6,6.3c-0.4,2.1-1.3,3.9-2.7,5.3c-1.4,1.4-3.2,2.3-5.3,2.6C118.7,73.5,120.3,75,121.2,77z"
				/>
		</g>
	</g>
</g>
<g id="Layer_3">
</g>
</svg>
