<?xml version="1.0" encoding="utf-8"?>
<!-- Generator: Adobe Illustrator 22.0.1, SVG Export Plug-In . SVG Version: 6.00 Build 0)  -->
<svg version="1.1" xmlns="http://www.w3.org/2000/svg" xmlns:xlink="http://www.w3.org/1999/xlink" x="0px" y="0px"
	 viewBox="0 0 151.3 112.7" style="enable-background:new 0 0 151.3 112.7;" xml:space="preserve">
<style type="text/css">
	.st0{fill:none;stroke:#6e17bf;stroke-width:1.854;stroke-miterlimit:10;}
	.st1{fill:none;stroke:#6e17bf;stroke-width:1.854;}
	.st2{fill:#6e17bf;}
	.st3{fill:none;stroke:#6e17bf;stroke-width:2;stroke-linecap:round;stroke-linejoin:round;stroke-miterlimit:10;}
	.st4{fill:none;stroke:#6e17bf;stroke-width:2;stroke-miterlimit:10;}
	.st5{fill:none;stroke:#6e17bf;stroke-width:1.9255;stroke-miterlimit:10;}
	.st6{fill:none;stroke:#6e17bf;stroke-linecap:round;stroke-linejoin:round;stroke-miterlimit:10;}
	.st7{fill:none;stroke:#6e17bf;stroke-width:1.4107;stroke-miterlimit:10;}
	.st8{fill:none;stroke:#6e17bf;stroke-width:2.2747;stroke-linecap:round;stroke-linejoin:round;stroke-miterlimit:10;}
	.st9{fill:none;stroke:#6e17bf;stroke-width:2.03;stroke-linecap:round;stroke-linejoin:round;stroke-miterlimit:10;}
	.st10{fill:none;}
	.st11{fill:#6e17bf;stroke:#6e17bf;stroke-linecap:round;stroke-linejoin:round;stroke-miterlimit:10;}
</style>
<g id="Layer_2">
</g>
<g id="Layer_1">
	<g>
		<g>
			<g>
				<path class="st2" d="M61,36.8c-6.6,0-12.4,4.7-12.4,10c0,2.3,1.7,3.8,4,3.8c2.7,0,3.6-1.8,4.3-3.4c0.8-1.7,1.5-3.2,4.4-3.2
					c2.6,0,4,1.2,4,3.5c0,1.9-1.7,3.3-3.7,4.8c-2.3,1.8-5,3.8-5,7.3c0,2,1.4,4.1,4,4.1c2.9,0,3.5-1.7,4.1-3.1c0.2-0.5,0.4-1,0.7-1.4
					c0.4-0.6,1.4-1.3,2.5-2.1c2.8-2,6.7-4.8,6.7-9.7C74.4,39.7,67.2,36.8,61,36.8z"/>
				<path class="st2" d="M60.7,65.5c-2.7,0-4.9,2.2-4.9,4.9c0,2.7,2.2,4.9,4.9,4.9c2.7,0,4.9-2.2,4.9-4.9
					C65.6,67.7,63.4,65.5,60.7,65.5z"/>
			</g>
			<path class="st3" d="M91.5,39.3c-1.2-1.9-2.5-3.7-4-5.4c-6.6-7.2-15.9-11.4-25.6-11.4c-8.3,0-16.2,3-22.3,8.6
				C28.3,41.3,25.5,58.5,33,72.1l-3,10.1c-0.3,1-0.1,2.2,0.7,3c0.7,0.8,1.9,1.2,2.9,1l10.3-2c5.7,3.9,12.6,6.1,19.5,6.1
				c7.1,0,13.9-2.2,19.6-6.4l0.4-0.3"/>
		</g>
		<g>
			<g>
				<path class="st2" d="M94.4,60.8c-1.7,0-3,1.3-3,3s1.3,3,3,3c1.7,0,3-1.3,3-3S96,60.8,94.4,60.8z"/>
				<circle class="st2" cx="102.6" cy="63.7" r="3"/>
				<path class="st2" d="M110.8,60.8c-1.7,0-3,1.3-3,3s1.3,3,3,3c1.7,0,3-1.3,3-3S112.5,60.8,110.8,60.8z"/>
			</g>
			<path class="st3" d="M119.3,76.1l1.1,3.5l-3.6-0.7c-0.9-0.2-1.8,0-2.5,0.6c-3.5,2.6-7.8,4.1-12.2,4.1c-4.8,0-9.5-1.8-13-5
				c-0.2-0.1-0.3-0.3-0.5-0.5c-1.1-1.1-2.1-2.3-2.9-3.5c-4.7-7.5-3.7-17.4,2.3-24.1c1.1-1.3,2.4-2.4,3.9-3.3
				c1.3-0.9,2.7-1.6,4.1-2.1c2.3-0.9,4.7-1.3,7.1-1.3c4.8,0,9.5,1.8,13,5c6.9,6.2,8.3,16.7,3.5,24.8
				C119.2,74.3,119.1,75.2,119.3,76.1z"/>
		</g>
	</g>
</g>
<g id="Layer_3">
</g>
</svg>
