<?xml version="1.0" encoding="utf-8"?>
<!-- Generator: Adobe Illustrator 22.0.1, SVG Export Plug-In . SVG Version: 6.00 Build 0)  -->
<svg version="1.1" id="Layer_1" xmlns="http://www.w3.org/2000/svg" xmlns:xlink="http://www.w3.org/1999/xlink" x="0px" y="0px"
	 viewBox="0 0 117.1 110.5" style="enable-background:new 0 0 117.1 110.5;" xml:space="preserve">
<g fill="#aaaaaa"><path d="M73.3,79.7c-2.4,1.5-4,3.4-5.6,5.8c-3.3,5-5.4,10.8-10,14.8c-5.5,4.9-14,6-20.6,2.7c-6.4-3.2-10.4-9.8-13.5-16.2
	c-2.3-4.7-2.7-10-5.3-14.5C14.6,65.8,9.5,60.3,5.7,54c-0.6-1-1.2-2-1.4-3.2c-0.2-1.1,0.3-2.4,1.3-3c4-2.1,9.1,7.2,10.9,9.6
	c2,2.6,3.9,5.1,6.2,7.4c2.9,2.9,3-0.1,2.2-2.7c-1.5-4.7-3.3-9.3-4.8-14c-1.3-3.8-3.9-9.5-3-13.6c0.3-1.5,1.5-2.8,3-2.8
	c1.8,0,2.9,1.9,3.7,3.5c4.1,8.5,7.4,17.3,10.8,26.1c0.2,0.6,1,0.6,1.3,0c1.1-2.3,0.8-5.1,0.4-7.7c-1.2-8.2-2.7-16.5-3-24.8
	c0-1.2,0-2.4,0.5-3.4c1.3-2.8,4-1.9,5.2,0.3c1.1,1.9,1.7,4,2.2,6.1c1.2,4.7,2.1,9.4,2.8,14.2c0.7,4.5,0.7,9.3,2.2,13.7
	c0.2,0.6,0.5,1.2,1.1,1.3c0.3,0.1,0.7-0.1,1-0.3c0.8-0.6,1-1.7,1.1-2.7c0.5-4,0.9-8,1.3-12c0.4-4.2,1.1-8.4,1.5-12.6
	c0.1-1.6,0.4-3.6,1.9-4.3c0.8-0.4,1.8-0.3,2.6,0.1c0.8,0.4,1.4,1.2,1.8,2c1.8,3.3,0.8,7.4,0.5,10.9c-0.3,2.9-0.6,5.9-0.9,8.8
	c-0.6,5.9-1.2,11.9-1.8,17.8c-0.1,0.5-0.1,1-0.2,1.5c-0.2,1.8-0.4,3.6,0.5,5.2c0.3,0.7,0.9,1.2,1.6,1.6c1.7,0.9,3.2-0.1,4.5-1.1
	c3.9-2.9,9.5-6.9,14.3-6.9c1.6,0,3.3,0.5,3.8,2.3c0.4,1.2,0.1,2.4-0.6,3.5C78.6,77.3,75.6,78.2,73.3,79.7z"/>
<path d="M71.9,62.9c2.4,0,4.4,0.5,6.7,1.5c4.7,2,8.9,5.1,14,5.8c6.2,0.9,12.8-2.4,15.9-7.8c3-5.3,2.7-11.8,1.9-17.8
	c-0.6-4.4-2.8-8.4-3.1-12.8c-0.4-6.3,0.6-12.6,0.3-18.9c0-1-0.1-2-0.5-2.9c-0.4-0.9-1.3-1.6-2.3-1.5c-3.8,0.4-3.1,9.4-3.2,11.9
	c-0.2,2.7-0.3,5.5-0.9,8.2c-0.7,3.4-2.2,1.3-2.8-0.9c-1.1-4-2-8.1-3.1-12.2c-0.9-3.3-1.7-8.6-4.3-11.1c-0.9-0.9-2.4-1.3-3.5-0.6
	c-1.2,0.9-1.2,2.7-1,4.2c1.1,8,2.9,15.8,4.7,23.6c0.1,0.5-0.5,0.9-0.9,0.6c-1.8-1.1-3-3.3-3.9-5.3c-3-6.4-5.8-13-9.6-19
	c-0.5-0.8-1.1-1.7-1.9-2.2c-2.2-1.4-3.7,0.5-3.6,2.7c0.1,1.9,0.7,3.6,1.3,5.4c1.3,3.9,3,7.7,4.7,11.4c1.6,3.5,3.9,7,4.9,10.7
	c0.1,0.5,0.2,1.1-0.2,1.5c-0.2,0.2-0.5,0.3-0.8,0.3c-0.8-0.1-1.5-0.8-2-1.4c-2.2-2.6-4.4-5.2-6.6-7.9c-2.3-2.8-4.8-5.4-7-8.3
	c-0.9-1.1-2-2.3-3.4-2.1C61,18,60.3,18.6,60,19.2s-0.5,1.5-0.4,2.3c0.3,3.2,2.9,5.6,4.8,8c1.6,1.9,3.2,3.9,4.8,5.8
	c3.2,3.9,6.5,7.9,9.7,11.8c0.3,0.3,0.6,0.7,0.8,1c1,1.2,1.9,2.4,2.1,3.9c0.1,0.6,0,1.3-0.4,1.9c-0.8,1.4-2.3,1.4-3.7,1.4
	c-4.1-0.2-10-0.4-13.4,1.9c-1.1,0.7-2.1,1.9-1.6,3.4c0.3,1,1.1,1.8,2,2.2C67,63.7,69.6,62.9,71.9,62.9z"/>
</g></svg>
