<?xml version="1.0" encoding="utf-8"?>
<!-- Generator: Adobe Illustrator 22.0.1, SVG Export Plug-In . SVG Version: 6.00 Build 0)  -->
<svg version="1.1" xmlns="http://www.w3.org/2000/svg" xmlns:xlink="http://www.w3.org/1999/xlink" x="0px" y="0px"
	 viewBox="0 0 75 95" style="enable-background:new 0 0 75 95;" xml:space="preserve">
<style type="text/css">
	.st0{fill:#e2e2e2;}
	.st1{fill:none;stroke:#e2e2e2;stroke-width:1.9368;stroke-miterlimit:10;}
	.st2{fill:none;stroke:#e2e2e2;stroke-width:1.9368;}
	.st3{fill:none;stroke:#e2e2e2;stroke-width:2.1966;}
	.st4{fill:#e2e2e2;}
	.st5{fill:none;stroke:#e2e2e2;stroke-width:2;stroke-linecap:round;stroke-linejoin:round;stroke-miterlimit:10;}
	.st6{fill:none;stroke:#e2e2e2;stroke-width:2;stroke-miterlimit:10;}
	.st7{fill:none;stroke:#e2e2e2;stroke-width:1.9255;stroke-miterlimit:10;}
	.st8{fill:none;stroke:#e2e2e2;stroke-linecap:round;stroke-linejoin:round;stroke-miterlimit:10;}
	.st9{fill:none;stroke:#e2e2e2;stroke-width:1.4107;stroke-miterlimit:10;}
</style>
<g id="Layer_2">
</g>
<g id="Layer_1">
	<g>
		<g>
			<g>
				<g>
					<path class="st9" d="M52.2,22c0.1,0,0.2,0,0.2,0c0,0,0.1,0.1,0.2,0.2l-0.5,4.9l-3.3-1.5L52.2,22z M50.2,34.6L44.4,32
						c-0.4-0.2-0.5-0.8-0.1-1.2l2.9-3.1c0,0,0,0,0,0l4.2,1.9c0,0,0,0,0,0l-0.4,4.3C51.1,34.4,50.6,34.8,50.2,34.6z M49.9,38.1
						L34.5,71.8c-0.2,0.4-0.6,0.6-0.9,0.5l-6.7-3.1c-0.3-0.1-0.4-0.6-0.3-1L42,34.5c0.2-0.4,0.6-0.6,0.9-0.5l6.7,3.1
						C50,37.3,50.1,37.7,49.9,38.1z M28.6,79l-3.5-1.6c-1.2-0.6-1.6-2.2-1-3.7l0.8-1.8c0.2-0.4,0.6-0.6,0.9-0.5l6.7,3.1
						c0.3,0.1,0.4,0.6,0.3,1L32,77.3C31.4,78.8,29.8,79.6,28.6,79z"/>
				</g>
			</g>
		</g>
		
			<rect x="34.5" y="33.8" transform="matrix(0.9101 0.4144 -0.4144 0.9101 25.4239 -11.2342)" class="st4" width="8.2" height="38.4"/>
		<polygon class="st4" points="49.3,25.2 52.4,22.6 52.2,26.5 		"/>
	</g>
</g>
</svg>
