<?xml version="1.0" encoding="utf-8"?>
<!-- Generator: Adobe Illustrator 22.0.1, SVG Export Plug-In . SVG Version: 6.00 Build 0)  -->
<svg version="1.1" xmlns="http://www.w3.org/2000/svg" xmlns:xlink="http://www.w3.org/1999/xlink" x="0px" y="0px"
	 viewBox="0 0 151.3 112.7" style="enable-background:new 0 0 151.3 112.7;" xml:space="preserve">
<style type="text/css">
	.st0{fill:none;stroke:#d1b01f;stroke-width:1.854;stroke-miterlimit:10;}
	.st1{fill:none;stroke:#d1b01f;stroke-width:1.854;}
	.st2{fill:#d1b01f;}
	.st3{fill:none;stroke:#d1b01f;stroke-width:2;stroke-linecap:round;stroke-linejoin:round;stroke-miterlimit:10;}
	.st4{fill:none;stroke:#d1b01f;stroke-width:2;stroke-miterlimit:10;}
	.st5{fill:none;stroke:#d1b01f;stroke-width:1.9255;stroke-miterlimit:10;}
	.st6{fill:none;stroke:#d1b01f;stroke-linecap:round;stroke-linejoin:round;stroke-miterlimit:10;}
	.st7{fill:none;stroke:#d1b01f;stroke-width:1.4107;stroke-miterlimit:10;}
	.st8{fill:none;stroke:#d1b01f;stroke-width:2.2747;stroke-linecap:round;stroke-linejoin:round;stroke-miterlimit:10;}
	.st9{fill:none;stroke:#d1b01f;stroke-width:2.03;stroke-linecap:round;stroke-linejoin:round;stroke-miterlimit:10;}
	.st10{fill:none;}
	.st11{fill:#d1b01f;stroke:#d1b01f;stroke-linecap:round;stroke-linejoin:round;stroke-miterlimit:10;}
</style>
<g id="Layer_2">
</g>
<g id="Layer_1">
	<g>
		<path class="st4" d="M105.7,63.9c-1.8,1.7-2.8,3.5-3.8,5.8c-1.9,4.7-2.8,9.9-6,14c-3.8,5-10.8,7.3-16.8,5.6
			c-5.9-1.7-10.2-6.5-13.9-11.4c-2.6-3.5-3.9-7.9-6.8-11.3c-4.1-4.8-9.3-8.6-13.5-13.3c-0.7-0.7-1.3-1.5-1.6-2.4
			c-0.3-0.9-0.2-2.1,0.6-2.7c3-2.4,8.8,4.6,10.7,6.3c2,1.8,4.1,3.7,6.4,5.2c2.9,2,2.5-0.6,1.4-2.6c-2-3.7-4.2-7.3-6.3-10.9
			c-1.7-3-4.8-7.4-4.7-10.9c0-1.3,0.8-2.6,2.1-2.8c1.5-0.3,2.7,1.1,3.6,2.3c4.8,6.5,9,13.3,13.2,20.2c0.3,0.5,1,0.3,1.1-0.2
			c0.5-2.1-0.2-4.4-0.9-6.5c-2.3-6.7-4.9-13.4-6.4-20.3c-0.2-1-0.4-2-0.2-3c0.6-2.5,3-2.2,4.4-0.6c1.2,1.4,2.1,3.1,2.9,4.8
			c1.8,3.7,3.2,7.6,4.6,11.5c1.3,3.6,2.1,7.7,4,11.1c0.3,0.5,0.6,1,1.1,1c0.3,0,0.6-0.2,0.8-0.4c0.6-0.6,0.5-1.6,0.5-2.4
			c-0.2-3.4-0.5-6.8-0.8-10.3c-0.3-3.6-0.4-7.2-0.8-10.8c-0.1-1.4-0.2-3,0.9-3.9c0.6-0.5,1.5-0.6,2.2-0.3c0.7,0.2,1.4,0.7,1.9,1.3
			c2,2.5,1.9,6,2.1,9.1c0.2,2.5,0.4,5,0.7,7.5c0.4,5.1,0.9,10.2,1.3,15.2c0,0.4,0.1,0.9,0.1,1.3c0.1,1.5,0.3,3.1,1.3,4.3
			c0.4,0.5,0.9,0.9,1.6,1.1c1.6,0.4,2.7-0.6,3.6-1.6c2.8-3,6.8-7.3,10.9-8c1.3-0.2,2.8-0.1,3.6,1.3c0.5,0.9,0.5,2,0.1,3
			C109.8,61.1,107.3,62.3,105.7,63.9z"/>
		<g>
			<path class="st3" d="M51,79.8c-1.7-1.3-3.5-2.5-4.8-4.3c-1.3-1.7-2.1-4-1.5-6"/>
			<path class="st3" d="M44.1,81.3c-2.1-1.3-3.5-3.6-3.8-6"/>
		</g>
		<g>
			<path class="st3" d="M96.2,29.5c1.4,0,2.7,0.6,3.8,1.3c2.5,1.6,4.8,4.2,4.8,7.2"/>
			<path class="st3" d="M101.7,25.8c2.4,0.3,4.6,2,5.3,4.3"/>
		</g>
	</g>
</g>
<g id="Layer_3">
</g>
</svg>
