<?xml version="1.0" encoding="utf-8"?>
<!-- Generator: Adobe Illustrator 19.2.1, SVG Export Plug-In . SVG Version: 6.00 Build 0)  -->
<svg version="1.1" id="Layer_1" xmlns="http://www.w3.org/2000/svg" xmlns:xlink="http://www.w3.org/1999/xlink" x="0px" y="0px"
	 viewBox="0 0 36 36" style="enable-background:new 0 0 36 36;" xml:space="preserve">
<style type="text/css">
	.st0{fill:#4099FF;}
</style>
<path class="st0" d="M29.5,11.2c-0.8,0.4-1.7,0.7-2.7,0.7c1-0.6,1.7-1.5,2-2.6c-0.9,0.6-1.9,0.9-2.9,1.1C25,9.6,23.7,9,22.4,9
	c-2.6,0-4.7,2.1-4.7,4.7c0,0.4,0,0.7,0.1,1.1c-3.9-0.2-7.4-2-9.7-4.9c-0.4,0.7-0.7,1.5-0.7,2.4c0,1.6,0.8,3,2,3.9
	c-0.7,0-1.5-0.2-2.1-0.6v0.1c0,2.3,1.6,4.2,3.8,4.6c-0.4,0.1-0.8,0.2-1.2,0.2c-0.3,0-0.6,0-0.9-0.1c0.6,1.9,2.3,3.2,4.4,3.3
	c-1.6,1.2-3.6,2-5.8,2c-0.4,0-0.7,0-1.1-0.1c2,1.3,4.5,2.1,7.2,2.1c8.6,0,13.3-7.1,13.3-13.3c0-0.2,0-0.4,0-0.6
	C28,13,28.8,12.2,29.5,11.2z"/>
</svg>
